<?xml version="1.0" encoding="UTF-8" standalone="no"?>
<!-- Created with Inkscape (http://www.inkscape.org/) -->

<svg
   width="620"
   height="320"
   viewBox="0 0 164.04167 84.666665"
   version="1.1"
   id="svg1"
   inkscape:version="1.3.2 (1:1.3.2+202311252150+091e20ef0f)"
   sodipodi:docname="chosen_board.svg"
   inkscape:export-filename="chosen_board.png"
   inkscape:export-xdpi="96"
   inkscape:export-ydpi="96"
   xmlns:inkscape="http://www.inkscape.org/namespaces/inkscape"
   xmlns:sodipodi="http://sodipodi.sourceforge.net/DTD/sodipodi-0.dtd"
   xmlns:xlink="http://www.w3.org/1999/xlink"
   xmlns="http://www.w3.org/2000/svg"
   xmlns:svg="http://www.w3.org/2000/svg"
   xmlns:rdf="http://www.w3.org/1999/02/22-rdf-syntax-ns#"
   xmlns:cc="http://creativecommons.org/ns#">
  <sodipodi:namedview
     id="namedview1"
     pagecolor="#ffffff"
     bordercolor="#666666"
     borderopacity="1.0"
     inkscape:showpageshadow="2"
     inkscape:pageopacity="0.0"
     inkscape:pagecheckerboard="true"
     inkscape:deskcolor="#d1d1d1"
     inkscape:document-units="px"
     inkscape:zoom="1"
     inkscape:cx="191"
     inkscape:cy="123.5"
     inkscape:window-width="1868"
     inkscape:window-height="1016"
     inkscape:window-x="52"
     inkscape:window-y="27"
     inkscape:window-maximized="1"
     inkscape:current-layer="layer2"
     showguides="false">
    <sodipodi:guide
       position="8.4666667,46.134882"
       orientation="-1,0"
       id="guide2"
       inkscape:locked="false"
       inkscape:label=""
       inkscape:color="rgb(0,134,229)" />
    <sodipodi:guide
       position="19.924943,76.2"
       orientation="0,1"
       id="guide3"
       inkscape:locked="false"
       inkscape:label=""
       inkscape:color="rgb(0,134,229)" />
    <sodipodi:guide
       position="51.858333,32.078509"
       orientation="-1,0"
       id="guide4"
       inkscape:locked="false"
       inkscape:label=""
       inkscape:color="rgb(0,134,229)" />
    <sodipodi:guide
       position="60.325,38.444973"
       orientation="-1,0"
       id="guide5"
       inkscape:locked="false"
       inkscape:label=""
       inkscape:color="rgb(0,134,229)" />
    <sodipodi:guide
       position="103.71667,44.497862"
       orientation="-1,0"
       id="guide6"
       inkscape:locked="false"
       inkscape:label=""
       inkscape:color="rgb(0,134,229)" />
    <sodipodi:guide
       position="112.18333,72.24456"
       orientation="-1,0"
       id="guide7"
       inkscape:locked="false"
       inkscape:label=""
       inkscape:color="rgb(0,134,229)" />
    <sodipodi:guide
       position="140.50359,6.3978651"
       orientation="0,-1"
       id="guide8"
       inkscape:locked="false" />
    <sodipodi:guide
       position="155.575,27.230446"
       orientation="-1,0"
       id="guide9"
       inkscape:locked="false"
       inkscape:label=""
       inkscape:color="rgb(0,134,229)" />
  </sodipodi:namedview>
  <defs
     id="defs1">
    <linearGradient
       id="linearGradient11"
       inkscape:collect="always"
       inkscape:label="int outline">
      <stop
         style="stop-color:#f2b981;stop-opacity:1;"
         offset="0"
         id="stop11" />
      <stop
         style="stop-color:#7e5225;stop-opacity:0.67493653;"
         offset="1"
         id="stop12" />
    </linearGradient>
    <linearGradient
       id="linearGradient9"
       inkscape:collect="always">
      <stop
         style="stop-color:#c77f3a;stop-opacity:1;"
         offset="0"
         id="stop9" />
      <stop
         style="stop-color:#b57134;stop-opacity:1;"
         offset="1"
         id="stop10" />
    </linearGradient>
    <linearGradient
       inkscape:collect="always"
       xlink:href="#linearGradient9"
       id="linearGradient2"
       gradientUnits="userSpaceOnUse"
       gradientTransform="matrix(5.9488405,0,0,13.236909,-1.0726707,-3.9925906)"
       x1="14.850383"
       y1="0.31933519"
       x2="15.540911"
       y2="6.3065209" />
    <linearGradient
       inkscape:collect="always"
       xlink:href="#linearGradient11"
       id="linearGradient27"
       x1="65.429886"
       y1="2.7448118"
       x2="87.241203"
       y2="73.199242"
       gradientUnits="userSpaceOnUse" />
    <linearGradient
       inkscape:collect="always"
       xlink:href="#linearGradient11"
       id="linearGradient29"
       x1="56.674725"
       y1="79.949036"
       x2="14.197175"
       y2="19.888952"
       gradientUnits="userSpaceOnUse" />
    <linearGradient
       inkscape:collect="always"
       xlink:href="#linearGradient11"
       id="linearGradient31"
       x1="53.989994"
       y1="78.86618"
       x2="18.375486"
       y2="27.143028"
       gradientUnits="userSpaceOnUse" />
    <linearGradient
       inkscape:collect="always"
       xlink:href="#linearGradient11"
       id="linearGradient32"
       gradientUnits="userSpaceOnUse"
       x1="56.606293"
       y1="83.841507"
       x2="22.537069"
       y2="31.649504" />
    <filter
       inkscape:collect="always"
       style="color-interpolation-filters:sRGB"
       id="filter34"
       x="-0.038283374"
       y="-0.091790108"
       width="1.0765667"
       height="1.1835802">
      <feGaussianBlur
         inkscape:collect="always"
         stdDeviation="2.2185931"
         id="feGaussianBlur34" />
    </filter>
    <filter
       inkscape:collect="always"
       style="color-interpolation-filters:sRGB"
       id="filter53"
       x="-0.006748617"
       y="-0.012819841"
       width="1.0134972"
       height="1.0256397">
      <feGaussianBlur
         inkscape:collect="always"
         stdDeviation="0.49930283"
         id="feGaussianBlur53" />
    </filter>
  </defs>
  <g
     inkscape:groupmode="layer"
     id="layer2"
     inkscape:label="Main">
    <path
       id="path2"
       style="display:inline;fill:url(#linearGradient2);stroke:none;stroke-width:0.136421;stroke-linecap:round;stroke-linejoin:miter;stroke-miterlimit:10"
       inkscape:label="fill"
       d="M 1.6696655 0.32142741 C 0.85876755 0.28345152 0.23612795 0.44652078 0.35708415 1.3627075 L 1.1916585 16.836698 C 4.1186192 15.571094 3.8124459 21.93335 1.1828735 20.206519 C 1.3876745 31.672913 0.97943126 43.261923 0.65163981 54.834896 C 1.7735664 55.170981 2.8592852 55.518479 3.788916 55.91545 C 2.85426 56.151811 1.9082357 56.384787 0.60461426 56.514897 C 0.51676006 59.707973 0.43777746 62.899209 0.38188883 66.085889 C 0.39541176 70.825243 0.4940813 79.743308 0.8516276 84.262557 C 34.588788 84.657441 64.817613 83.256215 95.217961 83.137044 C 115.02195 83.059414 144.14657 84.178591 163.71972 84.062052 C 163.67102 82.881486 163.67384 76.350888 163.63084 75.171639 C 162.32193 74.557687 161.40287 74.702964 159.91479 74.017704 C 161.02566 73.340521 162.4947 73.450318 163.21536 73.356246 C 163.11716 68.414014 162.20385 53.621797 162.18545 48.6854 C 161.41323 48.186638 157.93086 48.247431 155.63494 47.126839 C 157.63418 46.590492 160.88065 46.808989 162.67534 46.701542 C 163.06862 34.761688 163.68372 12.533049 163.50837 0.4273641 C 135.83211 2.1919299 103.62266 0.97359114 83.999007 1.0753866 C 73.977459 1.1273722 62.427872 1.5701946 50.46462 1.5394409 C 33.587544 1.4960554 17.064803 1.0033323 1.6696655 0.32142741 z " />
    <path
       id="path21"
       style="font-variation-settings:normal;display:inline;opacity:1;vector-effect:none;fill:#ac6d2f;fill-opacity:1;stroke:none;stroke-width:0.136421;stroke-linecap:butt;stroke-linejoin:miter;stroke-miterlimit:4;stroke-dasharray:none;stroke-dashoffset:0;stroke-opacity:1;-inkscape-stroke:none;paint-order:fill markers stroke;stop-color:#000000;stop-opacity:1"
       inkscape:label="ext shadow"
       d="m 180.00729,27.7941 -1.27331,1.427303 c 0.18231,14.860304 -0.0702,29.450436 -0.53899,44.2743 -3.06739,-0.0075 -6.17293,0.225458 -9.33379,0.804602 l 4.67103,1.60662 -1.19838,-1.134297 -1.10846,-0.266651 7.95249,-0.369486 c 0.1959,-15.461479 0.45587,-30.91204 0.82941,-46.342391 z M 18.854491,43.155208 17.724685,44.142456 c 0,0 0.560845,-0.157255 0.835091,-0.09922 0.909171,0.192397 1.029882,1.200961 1.009758,1.200961 l 0.843838,0.352259 c 0.135868,-0.957957 -0.72226,-2.58631 -1.558881,-2.441248 z m 159.752879,32.956873 -1.38441,0.557072 1.84381,23.660057 c -1.67834,0.15756 -2.98314,0.63687 -4.24056,1.187 l 2.65462,1.0511 -1.26659,-1.079 c 1.18438,-0.4591 2.28072,-0.52218 3.40237,-0.69918 z m -160.142009,5.747243 -1.417245,0.456423 c 0.970272,0.343735 2.471359,0.537216 3.118406,1.011126 l 0.997261,0.366049 0.794816,-0.420234 z m 161.466999,20.569496 -1.12913,0.41393 0.0553,7.09104 -0.42426,0.33745 c -23.48808,-0.37441 -47.01617,-1.38789 -71.53363,-1.47233 -28.115157,-0.11951 -57.621155,2.03913 -88.150168,1.54984 l -1.229382,1.44074 c 29.17449,0.83295 59.705467,-1.29542 89.32995,-1.26142 24.53555,0.16461 49.19638,0.90794 72.9232,1.00304 0.18731,7.5e-4 0.36629,-0.21976 0.35139,-0.5793 z"
       transform="translate(-16.382648,-27.447351)"
       sodipodi:nodetypes="cccccccccccsccccccccccccccccccccccccsccc" />
    <path
       id="path22"
       style="font-variation-settings:normal;opacity:1;vector-effect:none;fill:#ac6d2f;fill-opacity:0.760059;stroke:none;stroke-width:0.136421;stroke-linecap:butt;stroke-linejoin:miter;stroke-miterlimit:4;stroke-dasharray:none;stroke-dashoffset:0;stroke-opacity:1;-inkscape-stroke:none;paint-order:fill markers stroke"
       inkscape:label="int shadow"
       d="M 6.9210246,6.5820272 7.5478597,77.645907 9.0779989,76.07546 9.6035482,9.5100138 51.647494,8.6439168 52.922351,7.0863892 Z M 111.13844,6.7246541 c 0,0 -0.58246,70.2868549 -0.17157,71.6514409 0.64287,-1.090089 1.85518,-2.318722 1.85518,-2.318722 l 0.43202,-66.7566487 42.29561,-0.2418457 1.07022,-1.874821 z m -5.50509,0.3131592 -47.076201,0.2878377 -0.06305,70.05929 2.403988,-1.113627 0.617533,-66.6610479 42.10803,-0.5622396 z m -1.71566,17.0537397 0.74672,1.013375 -0.11363,0.400889 2.43945,0.228442 0.72195,-0.400633 -2.05314,-1.095068 z"
       sodipodi:nodetypes="cccccccccccccccccccccccccccc" />
    <path
       id="path23"
       style="font-variation-settings:normal;display:inline;opacity:1;vector-effect:none;fill:#d09058;fill-opacity:1;stroke:none;stroke-width:0.136421;stroke-linecap:butt;stroke-linejoin:miter;stroke-miterlimit:4;stroke-dasharray:none;stroke-dashoffset:0;stroke-opacity:1;-inkscape-stroke:none;paint-order:fill markers stroke;stop-color:#000000;stop-opacity:1"
       inkscape:label="top"
       d="m 180.04966,27.757926 c -10.20872,0.837186 -20.53964,1.083919 -30.53405,1.0573 L 107.24687,28.37701 64.968313,28.900492 C 48.947758,28.578203 33.446728,27.93688 16.906647,27.933626 l 1.463207,1.355312 c 16.043365,0.143263 31.18302,1.294417 46.961744,1.086916 l 41.697712,-0.417545 42.18864,0.153996 c 9.85909,-0.09652 19.54721,-0.265922 29.49277,-0.920358 z M 19.49667,47.108683 c -0.311081,0.710888 -0.860959,1.024339 -1.777153,0.728121 l 0.74104,0.998906 c 1.152004,0.737595 1.439064,-0.100363 1.703529,-1.069914 z m 153.7131,27.836544 0.64699,1.013375 3.26388,0.788065 1.64434,-0.68988 z m -153.309507,8.42946 c -0.675724,0.297222 -1.835573,0.368714 -3.042709,0.502811 l 1.311032,0.728638 2.639115,-0.821655 z m 156.860707,18.337383 0.76946,0.81494 1.233,0.33486 1.12242,-0.54209 z"
       sodipodi:nodetypes="ccccccccccccccccccccccccccccccc"
       transform="translate(-16.382648,-27.447351)" />
    <path
       id="path24"
       style="font-variation-settings:normal;display:inline;opacity:1;vector-effect:none;fill:#cf8a52;fill-opacity:1;stroke:none;stroke-width:0.136421;stroke-linecap:butt;stroke-linejoin:miter;stroke-miterlimit:4;stroke-dasharray:none;stroke-dashoffset:0;stroke-opacity:1;-inkscape-stroke:none;paint-order:fill markers stroke;stop-color:#000000;stop-opacity:1"
       inkscape:label="left"
       d="M 16.862722,27.935693 17.555703,44.5538 c 0.122894,-0.344318 0.836527,-1.111415 1.152901,-1.308964 l -0.331246,-13.88339 z m 0.646989,19.563147 -0.448012,34.819396 c 0.588556,-0.259813 0.954792,-0.301896 1.191221,-0.406785 l 0.280501,-32.92743 z m -0.65223,36.351385 c 0.06809,9.210756 -0.21983,18.421515 0.271498,27.632265 l 0.207831,0.23722 1.344716,-1.4172 c -0.620754,-8.58297 -0.584134,-16.958582 -0.536795,-25.684084 -0.387179,-0.241042 -0.766836,-0.470875 -1.28725,-0.768201 z"
       transform="translate(-16.382648,-27.447351)"
       sodipodi:nodetypes="cccccccccccccccc" />
    <path
       id="path32"
       style="font-variation-settings:normal;opacity:1;vector-effect:none;fill:#d09058;fill-opacity:0.291948;stroke:none;stroke-width:0.136421;stroke-linecap:butt;stroke-linejoin:miter;stroke-miterlimit:4;stroke-dasharray:none;stroke-dashoffset:0;stroke-opacity:1;-inkscape-stroke:none;paint-order:fill markers stroke;stop-color:#000000;stop-opacity:1"
       inkscape:label="int light"
       d="m 105.6349,7.2538208 -1.98128,1.6257406 -0.0124,15.0055266 2.1931,0.177768 z M 52.93217,7.5003174 51.795288,8.8795614 51.885722,76.082695 9.1911703,76.051172 7.8574015,77.712569 53.860795,77.357035 Z m 103.62623,0.080099 -1.00407,1.3446207 -0.0264,37.4251049 1.30173,-0.183451 z m -52.94091,18.5133726 0.12708,49.988906 -42.695066,-0.03152 -1.253154,1.300179 45.84578,0.556038 -0.005,-51.580689 1.06168,-0.278966 -2.58254,-0.336545 z m 51.90945,21.849021 -0.0196,28.080458 -42.77723,0.09457 -1.3901,2.211235 45.70884,-0.972034 -0.20412,-29.009082 z"
       sodipodi:nodetypes="ccccccccccccccccccccccccccccccccc" />
    <g
       id="g9"
       inkscape:label="slot1"
       transform="translate(2.1166667,2.1166667)">
      <path
         id="rect2"
         style="fill:none;stroke:#935a28;stroke-width:0.529167;stroke-linecap:round;paint-order:fill markers stroke;stroke-opacity:0.26258579"
         inkscape:label="int"
         d="M 6.3557715,6.3021379 H 49.747438 V 74.035468 H 6.3557715 Z" />
      <path
         id="rect8"
         style="fill:none;stroke:url(#linearGradient29);stroke-width:0.26458333;stroke-linecap:round;paint-order:fill markers stroke;stroke-dasharray:none"
         inkscape:label="ext"
         d="M 4.5420699,4.2196876 50.795527,4.9773673 51.756475,75.263233 5.1697458,75.622971 Z"
         sodipodi:nodetypes="ccccc" />
    </g>
    <g
       id="g11"
       inkscape:label="slot2"
       transform="translate(53.975028,2.1166667)">
      <path
         id="path10"
         style="font-variation-settings:normal;opacity:1;vector-effect:none;fill:none;fill-opacity:1;stroke:#935a28;stroke-width:0.529167;stroke-linecap:round;stroke-linejoin:miter;stroke-miterlimit:4;stroke-dasharray:none;stroke-dashoffset:0;stroke-opacity:0.262586;-inkscape-stroke:none;paint-order:fill markers stroke;stop-color:#000000;stop-opacity:1"
         inkscape:label="int"
         d="M 6.3557715,6.3021379 H 49.747438 V 21.782281 l 0.92526,1.24568 -0.92526,0.967475 V 74.035468 H 6.3557715 Z"
         sodipodi:nodetypes="cccccccc" />
      <path
         id="path11"
         style="fill:none;stroke:url(#linearGradient31);stroke-width:0.264583;stroke-linecap:round;stroke-dasharray:none;paint-order:fill markers stroke"
         inkscape:label="ext"
         d="M 4.3195367,4.976675 51.917363,4.6722321 51.876116,21.929606 54.056551,23.260024 51.87047,24.292123 51.747545,75.72295 4.4884434,75.265465 Z"
         sodipodi:nodetypes="cccccccc" />
    </g>
    <g
       id="g13"
       inkscape:label="slot3"
       transform="translate(105.83341,2.1166667)">
      <path
         id="path12"
         style="font-variation-settings:normal;opacity:1;vector-effect:none;fill:none;fill-opacity:1;stroke:#935a28;stroke-width:0.529167;stroke-linecap:butt;stroke-linejoin:miter;stroke-miterlimit:4;stroke-dasharray:none;stroke-dashoffset:0;stroke-opacity:0.262586;-inkscape-stroke:none;paint-order:fill markers stroke;stop-color:#000000;stop-opacity:1"
         inkscape:label="int"
         d="m 49.747438,45.803184 0,28.232284 H 6.3557715 V 6.3021379 H 49.747438 V 44.207197"
         sodipodi:nodetypes="cccccc" />
      <path
         id="path13"
         style="font-variation-settings:normal;opacity:1;vector-effect:none;fill:none;fill-opacity:1;stroke:url(#linearGradient32);stroke-width:0.264583;stroke-linecap:round;stroke-linejoin:miter;stroke-miterlimit:4;stroke-dasharray:none;stroke-dashoffset:0;stroke-opacity:1;-inkscape-stroke:none;paint-order:fill markers stroke;stop-color:#000000;stop-opacity:1"
         inkscape:label="ext"
         d="M 50.964056,46.167038 51.191018,75.346637 5.1532796,76.295224 5.0483421,4.3760421 50.795527,4.9773673 50.947731,44.068268"
         sodipodi:nodetypes="cccccc" />
    </g>
    <path
       style="color:#000000;display:inline;fill:url(#linearGradient27);stroke-width:1.03223;stroke-linecap:round;stroke-miterlimit:10;-inkscape-stroke:none"
       d="M 163.984,-0.06652322 C 130.12552,2.4256812 99.101228,-0.23855703 72.01363,0.8379774 55.765627,1.483717 39.083577,1.545403 25.926063,0.97131763 13.053438,0.40966244 4.4007495,-0.18941457 0.42440592,-0.00823443 0.20679526,0.0016809 -0.19293826,0.15292998 -0.15166733,0.63389956 0.36575151,6.6638748 0.22677298,9.6538192 0.33100988,15.032244 1.8861213,14.516923 2.0050626,16.733662 2.0262624,17.646672 2.0431694,18.284919 1.9051646,20.277941 1.2003539,20.586039 0.83740527,20.744697 0.50775339,20.72654 0.06477218,20.458922 0.1965504,32.187924 -0.08039766,43.560464 -0.19638002,55.110764 1.285103,55.482986 2.5899205,55.933171 3.4529683,56.503057 c -1.0145945,0.473279 -2.2812715,0.866903 -3.69876877,1.212868 -0.0805879,9.374974 -0.008362,17.875584 0.49211398,26.78728 0.0251385,0.447627 0.60791092,0.463745 0.77309279,0.464473 28.0694107,0.123764 55.1981857,-1.16547 80.1846837,-1.684555 25.15837,-0.522657 58.24634,1.167877 82.87023,1.478282 0.39274,-0.02061 0.64973,-0.181142 0.67418,-0.581335 -0.0359,-0.870897 -0.0268,-6.448878 -0.0669,-7.476189 -1.54303,-0.111696 -3.12576,-0.844732 -4.02712,-1.269315 0.81043,-0.459624 3.23931,-1.08929 4.23662,-1.081889 -0.0812,-5.514172 -1.74459,-19.568723 -1.74459,-24.920773 -1.85747,-0.09622 -6.59457,-1.595119 -8.41926,-2.281281 2.19711,-0.63173 7.79782,-0.78853 9.0824,-0.657199 0.17621,0.01802 0.29378,-0.163568 0.29169,-0.34103 -0.14431,-12.222582 0.84713,-33.810864 0.45081,-45.82187609 -0.0417,-0.27596823 -0.27305,-0.41876016 -0.56812,-0.39704113 z m -0.192,0.35741832 c 0.3241,-0.0266372 0.46647,0.1199892 0.4708,0.2969603 0.29542,12.0714806 -0.46835,33.4046656 -0.47036,45.2986036 -2e-5,0.09093 -0.094,0.287348 -0.3432,0.250433 -3.76642,-0.310113 -8.90742,0.791035 -9.63678,0.907511 2.5829,1.012938 6.20638,2.278595 8.91805,2.77527 -0.17699,5.056349 1.7561,19.305397 1.8798,24.237018 -1.35691,0.172452 -3.40427,0.710544 -4.58166,1.315939 0.9734,0.612385 2.13758,1.097624 4.32837,1.56632 0.0404,1.261835 -0.11079,5.077292 0.0325,6.89002 0.022,0.277913 5.6e-4,0.521191 -0.46194,0.52194 C 139.5323,84.39041 106.44039,82.47318 81.352552,82.994371 56.485135,83.510983 28.944827,84.603327 1.0324215,84.566074 0.90759243,84.565907 0.65546909,84.423563 0.64849335,84.326916 0.03791167,75.867477 -0.07191428,67.478714 0.05334516,57.947687 1.4963947,57.640573 2.9015753,57.074814 4.3159972,56.572174 3.2073523,55.942299 1.8221736,55.22152 0.21618108,54.831885 0.38534196,43.0278 0.69229901,31.946523 0.4140486,21.04748 2.1709442,21.562377 2.355764,18.968831 2.3698043,17.727029 2.3599472,16.639317 2.0882355,14.31498 0.71381486,14.534035 0.59737696,9.2818492 0.68119001,6.2741186 0.27600586,0.95585478 0.25449681,0.6735367 0.30300096,0.41605591 0.59741554,0.39588867 4.6823686,0.11607156 14.368673,1.0679904 26.908203,1.4277344 39.792677,1.7973744 55.701231,1.6759859 72.117239,1.1406849 99.087791,0.26121643 130.0934,3.060493 163.792,0.2908951 Z"
       id="path19"
       sodipodi:nodetypes="ssssscssccccssscccccccssssssscccccssssscscccccssscss"
       inkscape:label="int outline"
       transform="matrix(0.97649279,0,0,0.96110957,1.8283551,1.5634182)" />
    <path
       style="color:#000000;display:inline;fill:#935a28;stroke-linecap:round;stroke-miterlimit:10;-inkscape-stroke:none"
       d="M 163.15415,0.05717234 C 129.29609,2.5552504 99.101228,-0.23855703 72.01363,0.8379774 55.765627,1.483717 40.081342,1.4725229 26.923828,0.8984375 14.051203,0.33678231 4.6741453,0.03691043 0.69780169,0.21809057 0.48019103,0.2280059 0.02454513,0.37627918 0.06581606,0.85724876 0.5832349,6.887224 0.84888848,12.117669 0.95312538,17.496094 1.2219176,17.17811 1.4084909,16.698844 2.1777173,16.841959 2.7556861,16.949491 2.9368345,17.728302 2.9556281,18.437762 2.9725351,19.076009 2.7819209,20.284931 2.169074,20.305043 1.7053881,20.32026 1.2938954,19.98368 0.98632851,19.560547 1.1183245,31.308933 0.75405777,43.269769 0.47961307,54.978649 1.6424871,55.199948 2.5719288,55.524598 3.2935946,55.85167 c -0.965143,0.350103 -2.0131415,0.366347 -2.95125552,0.472926 -0.21696229,9.521513 -0.28247076,18.869956 0.2192048,27.803014 0.0251385,0.447627 0.60791092,0.463745 0.77309282,0.464473 28.0694103,0.123764 54.5265213,-0.589665 79.5130193,-1.10875 25.158374,-0.522657 57.828764,0.596843 82.452654,0.907248 0.39274,-0.02061 0.64973,-0.181142 0.67418,-0.581335 -0.0359,-0.870897 -0.16714,-8.105249 -0.20721,-9.13256 -1.54303,-0.111696 -2.70914,-0.383646 -3.66059,-0.632309 0.734,-0.188942 2.40692,-0.578777 3.40423,-0.571376 -0.0812,-5.514172 -1.06599,-19.740054 -1.06599,-25.092104 -1.94994,-0.235206 -5.03203,-0.677966 -6.77041,-1.234382 2.02207,-0.160376 5.73961,-0.227368 7.02419,-0.09604 0.17621,0.01802 0.2972,-0.152493 0.29464,-0.329949 -0.17632,-12.216233 0.65979,-34.137462 0.77908,-46.25570625 0.003,-0.31182016 -0.23565,-0.4358797 -0.61828,-0.40765041 z m -0.18363,0.49862227 c 0.16988,-0.0123871 0.42335,0.13308791 0.41985,0.30923111 -0.24022,12.07282128 -0.69961,33.65554328 -0.70162,45.54948128 -2e-5,0.09093 0.0347,0.245205 -0.41324,0.20829 -3.76642,-0.310113 -7.68104,0.233383 -8.4104,0.349859 2.5829,1.012938 5.35278,1.347075 8.06445,1.84375 -0.17699,5.056349 1.06966,19.372025 1.19336,24.303646 -1.35691,0.172452 -2.59995,0.308667 -3.77734,0.914062 1.3018,0.451297 1.7135,0.593804 3.90429,1.0625 0.0404,1.261835 0.22232,6.548804 0.36569,8.361532 0.022,0.277913 5.6e-4,0.521191 -0.46194,0.52194 -24.39533,0.0395 -56.72805,-1.675806 -81.815889,-1.154615 C 56.470314,83.342083 29.260057,84.227732 1.3476519,84.190479 1.2228228,84.190312 0.97069946,84.047968 0.96372372,83.951321 0.34888628,75.432919 0.43714567,66.246494 0.72740251,56.62039 2.2224181,56.476329 3.1055089,56.19977 4.3062023,55.886055 3.1364243,55.473627 2.1556211,55.018102 0.88050304,54.77331 1.2421552,43.05363 1.7320712,31.338382 1.4566775,20.551236 c 0.2110703,0.0969 0.4892776,0.142746 0.6839475,0.144076 0.7623654,0.0052 1.3719017,-0.671565 1.3359375,-2.029219 C 3.4425211,17.381023 2.9555523,16.251331 2.0644531,16.402344 1.879722,16.43365 1.7389897,16.494032 1.5329939,16.585379 1.416556,11.333193 1.0882571,6.3098794 0.5503844,1.0035646 0.52164188,0.72000898 0.69276745,0.62918189 0.85758017,0.62221367 4.9482664,0.44926089 14.368673,1.0679904 26.908203,1.4277344 39.792677,1.7973744 57.17896,2.0201894 73.594968,1.4848884 100.56552,0.60541996 129.24858,3.0148011 162.97052,0.55579461 Z"
       id="path17"
       sodipodi:nodetypes="ssssscsssccccssscccccccsssssssscccccsssssccccssscsssss"
       inkscape:label="ext outline" />
    <path
       style="color:#000000;font-variation-settings:normal;opacity:0.190932;vector-effect:none;fill:#934f28;fill-opacity:1;stroke-width:0.998377;stroke-linecap:butt;stroke-linejoin:miter;stroke-miterlimit:40;stroke-dasharray:none;stroke-dashoffset:0;stroke-opacity:1;-inkscape-stroke:none;paint-order:fill markers stroke;filter:url(#filter53);stop-color:#000000;stop-opacity:1"
       d="m 155.58425,-0.70931566 c 0.3895,0.38728901 5.32791,2.15881506 5.8279,2.41517936 0.48174,0.9347095 0.53488,1.9693879 -0.21077,2.9562495 -0.66197,0.8761124 -2.08451,1.739785 -4.51271,2.5721074 -1.19163,0.7638037 -1.90736,1.1123487 -3.83319,1.3016013 -14.99907,3.1142851 -38.00666,3.0225081 -40.82758,3.0111161 -0.27707,-0.09972 -0.77082,-0.52931 -1.12098,-0.531372 -1.71426,-0.01009 -2.60635,-0.01609 -4.99421,-0.212577 -0.74165,0.08666 -1.35295,0.3173 -2.23861,0.45993 C 98.782934,10.776533 92.333802,9.2589923 85.069625,8.4026733 66.028764,6.1580896 31.47016,2.2672139 10.930069,6.3898308 8.5160137,6.5899308 7.5815472,6.9757584 6.7038513,7.4054332 5.1355834,7.8530112 3.6650124,8.3626543 2.3062893,8.940826 c -3.07055683,2.725907 -7.4244682,4.302225 -9.0484768,7.664643 2.5715209,-3.655731 6.22631188,-4.798026 9.0465984,-7.08399 C 3.721512,8.9645772 5.1858131,8.5452743 6.677602,8.2061054 10.941997,7.7990866 13.659671,6.9938595 15.220946,6.5426766 34.742066,4.0190392 61.702201,6.093938 82.672824,8.5660067 c 6.941287,0.818256 14.863902,2.4493273 20.956726,3.1381883 0.91408,-0.06008 1.54796,-0.267736 2.26306,-0.304952 1.96628,0.203671 3.65756,0.347945 4.94905,0.403992 0.33442,0.01451 0.96168,0.198044 1.27418,0.316355 7.05602,0.05522 29.9285,-0.04748 42.88904,-3.5252056 0.82475,0.03878 1.2159,-0.1285364 1.69114,-0.5013833 2.66866,-0.8769833 4.24495,-1.8605156 5.11843,-2.9289386 0.94282,-1.1532374 0.95132,-2.4855282 0.50723,-3.5652583 -2.06526,-1.28817154 -4.39684,-1.70687472 -6.73743,-2.30811986 z M 123.32328,2.8351117 c -1.49537,1.6795292 -5.34394,2.8366946 -10.0211,3.5553234 -0.84821,0.3694229 -1.64909,0.4584034 -2.41219,0.3269751 -1.58407,0.1885978 -3.23721,0.3383457 -4.91401,0.4543167 C 100.84754,7.8907334 90.891265,7.6764131 87.162521,6.8712078 80.52817,5.9694016 71.05825,4.2346909 62.435534,2.7326293 58.601402,2.1407451 53.324525,0.12291508 49.664885,0.6784401 c 3.508323,0.4937264 6.518513,1.1842316 10.446484,2.2102569 8.406462,1.4182812 17.537369,3.0647707 24.648292,4.1231153 6.967968,1.1743146 14.101445,0.7880293 21.143829,0.7807802 1.67703,-0.1203999 3.35833,-0.2781195 4.99128,-0.4795483 2.01303,0.3565405 3.27484,-0.303336 4.64266,-0.7301996 4.05543,-0.8020029 7.36411,-1.9763837 8.85683,-3.6529447 0.24662,-1.3983676 -0.42857,-3.9592896 -1.60509,-5.3671809 0.23441,1.79078603 1.42326,3.5556355 0.53411,5.2723927 z M 102.28381,2.442719 C 98.150446,3.6718557 92.638619,3.6973039 89.804687,3.609375 86.597699,3.5098712 82.077672,2.9169126 77.918941,2.2636939 72.529469,0.90752475 68.414781,-0.39277684 68.414781,-0.39277683 l 7.114107,2.93164363 c 5.023365,0.7675255 11.159561,1.5865721 15.160808,1.7107194 3.922751,0.1217118 8.975496,0.1436759 13.033624,-1.5632603 1.24552,-0.8238314 3.49162,-3.55592206 4.55568,-4.5948042 -1.8973,1.63150968 -3.72001,3.2694339 -5.99519,4.3511973 z M 40.371094,9.703125 c -10.78421,-0.087008 -18.013407,0.411908 -22.556641,1.3125 -1.941188,0.384796 -6.670064,1.427436 -6.466797,4.060547 0.179568,2.325936 6.448755,4.231018 8.652344,4.830078 5.142604,1.39805 12.576371,2.26257 20.515518,2.26257 3.828501,0 7.668162,0.632242 11.310008,0.703442 0.48229,-0.06095 0.835956,-0.361313 1.302048,-0.454007 1.825278,0.02391 3.595234,0.01825 5.284301,-0.04873 0.629589,0.09685 1.298803,0.20033 1.903788,0.305384 3.294206,-0.620713 10.441365,-0.877394 10.62379,-5.237405 -0.653679,-3.693848 -5.456665,-4.555145 -10.53358,-5.434568 -0.385753,-0.179187 -1.66602,-0.669711 -2.07761,-0.840673 -1.619346,-0.261404 -3.398195,-0.50986 -5.334978,-0.725379 -0.382965,0.198048 -0.798836,0.443456 -1.21233,0.401928 C 48.421637,10.501425 44.610563,9.7373296 40.371094,9.703125 Z m -0.0078,0.794922 c 4.273098,0.03448 8.076804,0.554548 11.44125,0.874122 0.449735,-0.07109 0.78906,-0.239167 1.214139,-0.323733 1.933031,0.204341 3.703,0.534428 5.307323,0.825295 0.359288,0.117286 1.646615,0.558515 1.977566,0.665605 3.814829,0.660803 9.743899,0.88523 9.698723,4.400624 -0.04673,3.636179 -6.235987,4.997741 -9.726597,5.161861 -0.537663,-0.130937 -1.297229,-0.444269 -1.951356,-0.534465 -1.681354,0.06111 -3.376138,0.06819 -5.210031,0.07416 -0.439679,0.208954 -0.864234,0.575065 -1.308516,0.752169 -3.911278,-0.0055 -7.987563,-0.833132 -11.643673,-0.833132 -7.869106,0 -15.396217,-0.997164 -20.457659,-2.37315 -0.127666,-0.03471 -6.999162,-2.301514 -7.150848,-4.266435 -0.13107,-1.697992 3.687528,-3.174319 6.332268,-3.698578 4.439969,-0.880123 10.720675,-0.811125 21.477411,-0.724338 z m 5.607422,2.498047 c -4.208612,0.665651 -8.923952,1.072776 -12.423828,1.416015 -4.907643,0.481303 -4.403025,0.637851 -5.574219,1.183594 -0.948845,0.442135 3.96316,1.926535 7.003906,2.634766 2.277158,0.53038 9.999972,2.556297 16.805415,2.421833 0.401,-0.119386 0.874209,-0.264889 1.204012,-0.40687 2.058929,-0.112458 3.914977,-0.41754 5.35716,-1.000014 0.943481,-0.177916 1.391483,-0.622329 1.949023,-0.935912 0.895304,-0.803488 1.871507,-2.093861 0.132566,-2.954695 -0.521914,-0.309047 -1.281895,-0.751395 -2.065683,-1.147675 -2.325398,-0.746353 -5.203355,-1.144226 -5.30591,-1.158268 -0.422062,0.152611 -0.748135,0.28989 -1.183427,0.475405 -1.918647,-0.195221 -3.912719,-0.84234 -5.899015,-0.528179 z m 14.50876,4.460432 c -0.549794,0.376784 -1.187638,0.839754 -2.146052,0.95221 -1.184281,0.51386 -2.873573,0.865457 -5.306859,1.079708 -0.381568,0.162231 -0.86825,0.334872 -1.236645,0.548936 -5.684825,0.574511 -11.159094,-1.270442 -16.633654,-2.580344 -2.670964,-0.622103 -5.98048,-1.385963 -4.748172,-1.729036 2.68457,-0.74738 8.863778,-1.365633 15.618411,-2.227321 1.911437,-0.243842 3.848872,0.28102 5.798464,0.536016 0.464126,-0.159734 0.801598,-0.123651 1.203068,-0.262782 0.657024,0.107021 3.335184,0.597231 5.29972,1.263565 0.723677,0.430464 1.770788,0.601158 2.153607,0.910122 0.562954,0.315646 0.482818,0.923213 -0.0019,1.508926 z m 26.315462,-3.054177 c -3.424903,0.43984 -6.150948,1.375546 -7.796875,3.148437 -3.376892,3.637381 -12.139813,7.23091 -18.645498,8.793724 -0.667856,-0.117541 -1.281035,-0.214811 -1.930755,-0.366805 -2.315928,0.505605 -4.183023,0.82448 -5.162632,0.937702 -0.469434,0.276119 -0.98747,0.573863 -1.485098,0.772853 C 31.484236,29.919738 16.907581,28.592654 8.5449553,26.72002 7.9341077,26.56251 7.3339552,26.126239 6.8378824,25.842194 4.9099606,25.443029 3.3318563,25.04652 2.1032985,24.703197 c -1.87347268,0.70801 -2.33838628,-0.197959 -3.5075794,-0.296939 0,0 0.931037,1.248422 3.496137,0.967431 1.2356607,0.300631 2.7920857,0.645793 4.6584348,0.996954 0.4424363,0.234174 1.0821467,0.631403 1.674238,0.787844 8.5319951,1.96748 23.6848701,3.011076 43.3366381,1.057556 0.532854,-0.178595 0.925467,-0.383001 1.453527,-0.564573 1.491076,-0.156452 3.23366,-0.43002 5.109377,-0.803857 0.615943,0.08933 1.385691,0.168356 1.975481,0.126726 7.662737,-1.729253 16.749703,-5.459728 20.11063,-9.079912 1.439661,-1.550715 3.14956,-2.276696 6.484365,-2.704966 4.112881,-0.528193 9.733294,0.12068 16.947913,0.826748 0.76906,-0.105724 1.34354,-0.257586 2.08598,-0.337556 1.63244,0.173412 3.30749,0.365235 5.00344,0.565388 0.39581,0.103041 0.84849,0.323961 1.26794,0.457143 5.97153,0.712903 12.05997,1.183397 17.48618,1.609533 10.72792,0.842494 19.1723,1.695601 25.87671,1.881069 0.44764,-0.161974 0.71746,-0.244747 1.16787,-0.427127 1.84799,0.04236 3.89393,0.07126 5.7107,0.09082 1.66696,1.270392 2.64299,0.289877 5.21108,-0.755862 -0.13314,0.06027 -3.97697,2.434744 -5.26689,-0.05804 -1.8171,-0.02607 -3.86299,-0.06231 -5.72295,-0.111395 -0.37095,0.25315 -0.74413,0.473694 -1.11398,0.574079 -7.24672,-0.224311 -16.46764,-1.281717 -27.45868,-2.144875 -5.10924,-0.401243 -10.51827,-0.652411 -15.88665,-1.278307 -0.39638,-0.132295 -0.88584,-0.511168 -1.30398,-0.559449 -1.70101,-0.196411 -3.38967,-0.386509 -5.052,-0.560583 -0.72167,0.220625 -1.41547,0.438719 -2.10324,0.536415 -8.240646,-0.797122 -13.285945,-1.565544 -16.949052,-1.095107 z m -0.04687,4.455078 c -0.795639,0.204728 -1.38373,0.660525 -1.75,1.201172 -0.676601,0.998719 -0.231783,3.665869 2.3962,5.141234 5.058245,2.590093 10.911385,3.793818 16.355472,5.247458 0.81599,0.06212 1.26805,0.120527 2.11667,0.193936 1.56015,0.448882 3.25016,0.961914 5.09866,1.559 0.45035,0.300942 0.87087,0.579006 1.35692,0.848407 2.13298,0.709981 9.66921,2.66578 17.37139,-1.964645 1.89576,-1.139695 3.33069,-2.435437 3.85938,-3.755859 0.83326,-2.081128 -1.06723,-3.035926 -1.98634,-3.365234 -7.18081,-2.572818 -12.89942,-2.324194 -19.37652,-3.052943 -0.37535,-0.19469 -0.83411,-0.427055 -1.24508,-0.70454 -1.24051,-0.148688 -3.01097,-0.372961 -5.10007,-0.740025 -0.79263,0.01732 -1.42421,0.194525 -2.15683,0.264673 -5.380704,-1.022822 -9.995171,-2.659589 -16.939852,-0.872634 z m 24.160432,2.257531 c 0.39235,0.135484 0.87931,0.284476 1.26947,0.474805 6.6847,1.087993 11.65326,0.44363 19.12093,3.119226 2.04919,0.734206 1.33196,1.932976 1.1408,2.410361 -0.40353,1.007859 -1.26155,2.470132 -3.07501,3.560352 -5.4563,3.378456 -11.28167,3.032912 -17.15937,1.41388 -0.3063,-0.237615 -0.98934,-0.824521 -1.34605,-1.060171 -1.83547,-0.541952 -3.53847,-0.996368 -5.12327,-1.388415 -0.77691,0.04069 -1.32626,0.360577 -2.00368,0.204811 -5.074024,-1.288325 -10.60416,-2.386628 -15.296725,-4.881052 -2.375141,-1.333418 -3.362153,-3.60739 -2.781246,-4.464844 0.225408,-0.332721 1.33044,-1.158075 2.155294,-1.364693 5.113202,-1.280806 10.583028,-0.07828 15.845967,0.972548 0.93809,-0.04695 1.44864,-0.118842 2.2494,-0.08033 1.66784,0.361832 3.32556,0.769741 5.00349,1.083522 z m 44.71342,3.697413 c -4.62585,0.10659 -8.81791,0.161873 -11.71756,1.865368 -2.57429,1.512352 -8.57652,6.063756 -10.83399,7.728516 -2.75133,2.02895 -7.53569,2.796365 -12.67406,2.600899 -2.59971,-0.0989 -5.32386,-0.160125 -8.13469,-0.62724 -0.39888,-0.14042 -0.98595,-0.339044 -1.45742,-0.537906 -1.64541,-0.292503 -3.33478,-0.619897 -5.07571,-0.959848 -0.67819,0.141266 -1.2859,0.285571 -2.03443,0.274765 -12.229893,-2.376623 -26.512082,-5.864924 -34.528772,-4.225635 -2.815003,0.575625 -5.698051,1.988801 -8.763344,2.509366 -0.643391,-0.03999 -1.328362,-0.36172 -2.026682,-0.540394 -1.674183,0.274355 -3.373649,0.540442 -5.089949,0.798065 -0.389202,0.351653 -0.987119,1.036298 -1.457209,1.105249 -15.025858,2.203939 -31.10416,2.864948 -42.750406,3.645763 -0.7119693,-0.09813 -1.4259973,-0.154968 -2.1545206,-0.315441 -1.7572827,0.113273 -3.3924222,0.213109 -4.8829972,0.300311 -3.6247631,1.537428 -6.6305233,0.67313 -9.9473588,0.99837 0,0 2.5985104,1.993756 9.9946344,-0.491965 1.487322,-0.08329 3.1107658,-0.178146 4.8494919,-0.285296 0.6011634,0.169499 1.3593499,0.217502 2.1102268,0.324514 11.6777965,-0.747845 27.8529855,-1.61072 42.8372165,-3.714021 0.446796,-0.253001 0.927641,-0.593955 1.414427,-0.835182 1.711511,-0.246413 3.406449,-0.500998 5.076569,-0.763592 0.900019,0.09066 1.404571,0.287173 1.944462,0.446323 3.703633,-0.602641 7.182745,-1.989182 10.512182,-2.670001 7.658056,-1.565954 20.550947,1.865936 32.803609,4.246995 0.88013,0.03827 1.43985,0.0065 2.2392,0.01949 1.69161,0.316361 3.36727,0.613576 5.01268,0.877274 0.45409,0.07277 0.90586,0.310568 1.35504,0.377933 3.02414,0.453546 5.93024,0.610117 8.62658,0.712687 5.21959,0.198556 10.6221,-0.480657 13.62195,-2.69287 2.27194,-1.675434 7.37978,-6.192564 9.81555,-7.623536 2.67655,-1.572425 6.78916,-1.834581 11.35098,-1.939695 0.3274,-0.0075 0.75222,-0.309187 1.06043,-0.416478 1.80267,-0.01141 3.65058,0.05572 5.47804,0.175574 2.60252,1.183922 4.89922,-0.04106 7.34883,-0.06159 -2.28281,-0.29933 -5.45332,1.363169 -7.31661,-0.732971 -1.83953,-0.120484 -3.70229,-0.187931 -5.5245,-0.17608 -0.33873,0.20722 -0.70113,0.472211 -1.08189,0.602281 z m 12.64767,4.920056 c -1.86471,0.790031 -5.34421,2.732612 -6.12059,0.996186 0,0 -3.67494,0.708411 -5.4066,1.119041 -0.45059,0.245191 -0.87118,0.702347 -1.25333,0.924881 -7.36022,1.878993 -8.36713,2.889812 -8.47143,3.932548 -0.28493,2.845086 5.17674,4.850565 8.52105,5.589964 0.38913,-0.03437 0.74279,-0.054 1.19944,-0.110647 1.9121,0.08133 3.51709,0.347654 5.22415,0.552494 1.66688,1.266959 4.17141,0.979544 7.69195,-0.0031 -0.44513,-0.190369 -5.37268,2.212475 -7.72931,-0.865803 -1.90063,-0.155425 -3.79541,-0.351818 -5.21835,-0.646486 -0.40673,0.06652 -0.7928,0.474289 -1.20379,0.514033 -4.89961,-0.926452 -7.8107,-3.956487 -7.68303,-5.232873 0.19171,-1.915644 6.05102,-2.610121 7.72103,-3.026067 0.34811,-0.199224 0.77925,-0.673153 1.20232,-0.898532 1.58231,-0.350258 3.54003,-0.716367 5.39567,-1.041066 1.15054,0.444035 2.54155,0.606529 6.13082,-1.804573 z m -78.796866,8.728515 c -2.24024,0.01099 -4.329004,0.207073 -6.289062,0.644532 -9.591217,2.140634 -16.771416,3.973861 -22.801055,4.280865 -0.684254,-0.13388 -1.343198,-0.671254 -1.987397,-0.818396 -1.779537,0.05363 -3.461778,0.05395 -5.082539,0.01777 -0.488432,0.179364 -0.956247,0.42675 -1.449525,0.631521 -3.473008,-0.123954 -6.703268,-1.072109 -10.066203,-1.320749 -8.393567,-0.620581 -17.6163,-0.691756 -33.3486541,1.761854 -0.4832361,0.07537 -0.9485441,-0.233151 -1.4480484,-0.151596 -1.6135981,0.263454 -3.2942286,0.556849 -5.0476093,0.882931 -3.3140785,1.972427 -5.979407,1.747553 -8.9677058,2.616571 3.1711208,-0.67331 5.9094694,-0.744398 8.9696736,-1.833745 1.7562647,-0.328195 3.4417778,-0.62349 5.0618499,-0.888662 0.4844801,0.02425 0.9313208,0.07648 1.4042382,0.0025 16.1604319,-2.528215 25.6845949,-2.229702 34.1760959,-1.60188 3.136963,0.231932 6.102909,0.981242 9.238056,1.11488 0.527652,-0.174878 1.002968,-0.316327 1.548871,-0.439203 1.567235,0.04418 3.188384,0.05358 4.90344,0.01121 0.616144,0.149425 1.448561,0.453468 2.062748,0.574914 5.975166,-0.282399 13.126131,-1.859998 23.007524,-4.065396 5.548455,-1.238343 12.00443,0.0036 20.391158,1.423416 0.73187,0.0015 1.37076,-0.113045 2.05932,-0.123536 1.53171,0.266862 3.4938,0.681716 5.15555,0.975112 0.55815,0.167653 0.83357,0.307344 1.24026,0.504887 10.93932,1.893806 26.50252,6.475912 43.31082,7.646382 0.42634,-0.121404 0.71432,-0.285457 1.20124,-0.37443 1.43687,-0.03748 2.87373,0.02667 4.3106,0.0672 2.00303,1.066134 4.30707,0.06839 6.4606,-0.398759 -1.60701,-0.300319 -4.40287,1.134017 -6.47838,-0.145646 -1.45741,0.03639 -2.91515,0.06097 -4.19609,-0.01772 -0.4315,0.08768 -0.85557,0.327558 -1.25794,0.478947 -16.67137,-1.199853 -32.38681,-6.286529 -43.39189,-8.191718 -0.37062,-0.0923 -0.67201,-0.193885 -1.27882,-0.530724 -1.74402,-0.307579 -3.42401,-0.605131 -5.04393,-0.883594 -0.65735,0.03393 -1.32775,0.281905 -2.04123,0.270636 C 98.401114,39.68619 93.624803,38.766249 89.472656,38.460944 Z m -1.808594,7.328125 c -8.231826,-1.049616 -13.129016,1.605999 -17.697265,5.236329 -2.990855,2.376795 -6.001265,6.336746 -9.717828,9.681629 -0.594468,0.425604 -0.98505,0.485989 -1.784828,0.808006 -1.454266,1.235762 -3.040245,2.496339 -4.803685,3.760916 -0.557002,0.189735 -1.179073,0.494204 -1.752563,0.712999 -4.85159,3.3405 -10.888265,6.933533 -17.508662,10.170059 -1.049344,0.250971 -3.455025,0.945096 -4.459828,1.407096 -4.440689,2.041795 -8.91643,3.892707 -13.380811,5.381102 -2.698002,0.360869 -4.635677,1.341146 -6.781273,1.871533 l 0.725854,0.272182 c 1.756685,-0.556571 4.055524,-1.578042 7.005962,-2.00091 4.457853,-1.525332 8.915748,-3.390037 13.319219,-5.429548 1.058172,-0.358188 2.456438,-0.883169 4.249312,-1.455407 6.222781,-3.060879 12.156563,-6.390564 16.803263,-9.529711 0.823004,-0.29317 1.083962,-0.318675 1.851551,-0.596681 1.679557,-1.204424 3.245931,-2.460472 4.715741,-3.724672 0.674361,-0.320231 1.048324,-0.626193 1.803721,-0.943777 4.218281,-3.83928 7.7051,-8.312269 10.74134,-10.725132 4.47713,-3.55792 9.147509,-4.660436 17.271298,-4.110484 3.564953,0.241335 7.493182,2.563819 15.462832,5.353739 0.86174,-0.130149 1.26237,0.03608 2.10449,0.165297 1.51442,0.51042 3.35975,1.083177 5.15947,1.640954 0.36232,0.239923 0.87948,0.718665 1.19427,0.997185 21.33257,6.477778 33.40334,6.331709 43.38825,5.059081 0.4869,-0.179522 0.8092,-0.345597 1.32833,-0.649735 1.42722,-0.387255 3.0051,-0.939311 4.55783,-1.463864 2.27081,0.277838 4.87739,0.259466 6.51101,0.316707 -0.53806,-0.691428 -3.92524,-0.21543 -6.56586,-0.651823 -1.52584,0.475326 -3.10561,0.962464 -4.48598,1.274577 -0.49428,0.165695 -0.98407,0.569392 -1.36355,0.850536 -14.80369,1.926311 -31.04775,-1.240316 -43.3867,-5.398865 -0.42497,-0.265895 -0.82648,-0.792519 -1.25128,-1.05767 -1.70739,-0.586869 -3.41309,-1.193524 -5.11481,-1.798006 -0.73676,0.0069 -1.30711,0.07786 -2.01925,0.05175 C 98.547879,49.87986 93.115621,46.484176 87.66413,45.789072 Z m -65.571598,4.331954 c -4.803078,0.220689 -9.454373,0.992131 -13.5718665,1.39377 -0.4980518,-0.04936 -1.0253378,-0.304299 -1.5207382,-0.253383 -2.0113401,0.20672 -3.5626822,0.418918 -5.2207843,0.622288 -2.60559486,1.908457 -5.3406917,1.35936 -8.0173612,1.919038 2.0737638,0.706749 3.0315304,1.200861 8.0565479,-1.438617 1.6035423,-0.243412 3.3593032,-0.483962 5.1830607,-0.690847 0.5200463,0.04127 1.0542102,0.112698 1.4753252,0.147607 4.3385154,-0.446784 9.2661024,-1.059265 14.2660334,-0.964748 18.994973,0.359076 25.562252,6.353659 26.122548,7.333324 3.150812,5.184896 -14.998659,9.96274 -20.117187,11.341797 -6.762889,1.822088 -13.992688,3.961171 -20.3121562,4.887192 -0.4066056,-0.06713 -0.7292297,-0.340336 -1.1594718,-0.52206 -1.8709658,0.259589 -3.6515026,0.470497 -5.3038874,0.628478 -6.3542757,2.754602 -9.8866332,0.02617 -9.884641,0.02787 1.0841937,0.926189 7.44602093,1.673261 9.8779766,0.608841 1.5557074,-0.07203 3.3020357,-0.211042 5.3879678,-0.474634 0.3787401,0.06578 0.7690665,0.277263 1.1232127,0.365406 6.5621843,-0.966955 13.9517423,-2.995704 20.4760773,-4.753519 5.97155,-1.608881 23.98275,-6.710354 20.453829,-12.879936 -1.905936,-3.33213 -17.880485,-7.731339 -27.314485,-7.297871 z m 76.405874,6.172783 c -9.069997,1.328666 -23.061477,9.195779 -38.244277,16.979952 -0.712368,0.132257 -1.032787,0.105857 -1.718631,0.191014 -1.55298,0.797069 -3.112996,1.598245 -4.675378,2.398074 -1.240644,0.265333 -2.361863,0.635553 -2.924204,1.493261 -4.014721,2.04401 -7.297914,3.684859 -10.246601,5.12209 -8.572309,3.074227 -13.515923,6.366375 -19.490033,8.558915 l 20.3459,-8.384623 c 3.355288,-1.699662 6.711742,-3.397034 10.065148,-5.100409 0.392574,-0.700466 1.321038,-0.953009 2.296131,-1.166842 1.533651,-0.779427 3.068702,-1.559299 4.599703,-2.334506 0.714265,-0.05346 1.179952,-0.118087 1.773428,-0.301223 15.124356,-7.633626 29.699738,-15.235982 38.30538,-16.589071 1.884628,-0.296325 3.627658,0.760826 5.167318,1.383416 0.76659,0.105265 1.19329,0.124074 1.96318,0.258651 1.9924,1.322509 3.70939,3.255846 5.2555,5.339646 0.34329,0.788414 0.93544,2.110304 1.26604,2.853061 2.8439,4.055296 5.64774,6.260092 7.99057,9.126222 0.54731,0.66956 0.82284,1.255725 1.02437,1.998416 1.1453,1.313988 2.36,2.61634 3.65847,3.882489 2.38702,3.246222 8.86961,5.635497 13.36112,8.446883 -1.79309,-3.721807 -10.36974,-4.551538 -12.28962,-8.470896 -1.29756,-1.370957 -2.69084,-2.611195 -3.92382,-3.954647 -0.32542,-0.643053 -0.57573,-1.228879 -1.08064,-1.811498 -1.59251,-1.837614 -5.30626,-4.987475 -8.78344,-10.086472 -0.23162,-0.803294 -0.85483,-2.072141 -1.18907,-2.81938 -1.51681,-2.147923 -3.15896,-4.118373 -5.16783,-5.456257 -0.76326,-0.0151 -1.22872,-0.107377 -2.06577,-0.06803 -1.41297,-0.543573 -3.46963,-1.7524 -5.272944,-1.488232 z M -6.4097122,63.242077 c 1.635817,-0.197254 5.61390937,-1.211293 8.1745182,-2.426716 1.7990263,0.08742 3.6615024,0.256725 5.3748075,0.461413 0.4240821,0.313512 0.9891661,0.779597 1.3514362,0.868719 4.6450543,1.142729 6.5624823,2.565689 6.1944973,3.700207 -0.373918,1.15281 -2.905263,2.788045 -6.1911358,3.427122 -0.4477728,0.02328 -0.8333414,-0.281587 -1.2168808,-0.496124 -1.7810577,0.295263 -3.7151234,0.512875 -5.6043862,0.645406 -3.4530151,1.734781 -4.0274058,0.601919 -6.0383779,0.900159 -7.277e-4,-0.02273 2.495077,1.717955 6.141485,-0.374091 1.8086969,-0.144125 3.7539771,-0.338823 5.5169352,-0.603909 0.4213703,0.127526 0.7959119,0.375451 1.1708528,0.310697 C 12.348526,68.984091 15.49004,67.44884 15.478517,65.839841 15.466638,64.182565 12.842797,62.955236 8.4961686,61.766248 8.076922,61.651566 7.5027189,60.988179 7.1674042,60.707351 5.5004977,60.339619 3.6283499,60.084259 1.5937454,59.99068 c -2.46718503,1.756873 -5.3353585,2.168537 -8.0034576,3.251397 z M 129.92187,65.205078 c -2.29989,0.320805 -5.30639,0.938763 -5.63671,2.527344 -0.15401,0.740608 3.22724,4.732039 6.82491,8.249393 0.47068,0.666958 1.089,1.396245 1.46636,1.937434 3.11843,1.9876 6.40982,3.402817 10.14121,4.714018 2.81336,1.552138 6.24733,2.865628 11.88981,3.804233 -0.0592,-1.159329 -6.30187,-2.011834 -10.44668,-3.901075 -4.19558,-1.239183 -8.33408,-2.698996 -10.5651,-4.535594 -0.46457,-0.667104 -0.95859,-1.241277 -1.34294,-1.786387 -4.10325,-3.916838 -7.25616,-8.002537 -7.1902,-8.319913 0.23363,-1.12424 3.53296,-1.704023 4.96875,-1.904297 4.04819,-0.564671 10.03227,-0.651966 16.21289,-0.511718 3.01174,0.06834 6.22142,0.83554 9.27373,0.913028 0.5081,-0.13785 0.92909,-0.544622 1.42763,-0.67276 1.89369,0.05384 3.70901,0.118504 5.36306,0.202637 0.13949,0.0197 1.1195,1.632127 3.58112,1.619707 -0.9985,-0.325043 -3.1328,-1.698277 -3.72672,-2.12297 -1.62104,-0.104701 -3.3702,-0.210143 -5.19621,-0.308417 -0.47316,0.22424 -0.8383,0.560121 -1.40177,0.732439 -3.01195,-0.152432 -6.17328,-1.085615 -9.30326,-1.156639 z m -40.398433,3.052734 c -4.583829,-0.475374 -10.744207,3.622374 -17.005061,7.835255 -0.587197,0.39512 -0.963644,0.878127 -1.843087,1.369771 -2.68672,1.501985 -4.926367,2.974592 -6.962599,4.373233 -4.032981,3.215642 -7.856249,5.703857 -12.822065,7.585804 3.734256,-0.867327 9.676181,-4.010359 13.648595,-7.545972 2.331235,-1.566295 4.790663,-2.934005 6.839631,-4.363815 0.667893,-0.484501 1.32061,-0.946435 1.955615,-1.376532 6.222925,-4.214869 12.767681,-7.753096 16.943866,-7.319997 4.04828,0.686548 6.284759,4.52776 8.842226,7.323209 0.664868,0.351453 1.365192,1.130109 2.172882,1.606275 0.84023,0.377244 2.3965,2.126181 3.80364,3.698628 0.96916,1.626771 2.39228,4.224194 4.25366,4.906205 -1.03664,-0.748732 -3.08828,-3.732329 -3.51917,-4.831468 -1.08217,-1.367015 -2.28242,-2.82842 -3.74854,-3.765767 -0.64475,-0.497386 -1.48966,-1.314825 -2.146462,-1.584615 -2.628711,-3.681424 -5.654028,-7.178515 -10.413131,-7.910214 z m 3.238282,10.177735 c -6.433269,-0.06072 -10.991584,1.31556 -14.220638,3.10027 -3.418789,3.457412 -7.112336,7.185339 -7.613347,7.58137 1.30618,-0.466884 4.647826,-4.194964 8.669922,-7.535509 3.13448,-1.721775 7.348721,-2.905776 13.089844,-2.357069 1.188913,0.11363 2.780206,1.020475 4.398567,2.233351 1.25819,2.194433 3.800063,3.239523 5.167553,4.708904 -0.0888,-0.71769 -3.421794,-2.699274 -4.166365,-4.785858 -2.160043,-2.013912 -3.708971,-2.9302 -5.325536,-2.945459 z"
       id="path52"
       sodipodi:nodetypes="ccsccccccscccccccsccccccsccccccccccccccccccscccscccsssssccccsccccssccccsccccsssssscssccccccccscsccssscccccsssccccccccccccccssssccccccccccccsccccsscssccccssscccccccsssccccsccccccssccccccccccccccccccssssccccsccccccccccccccccccccccccccccsccccccscccccsscccccccccccccccccsccccccccccccccccssscccccccccccccccccscsccsscccccccccccscccscccccscccccscccccccccccccccsccscccccccccccccsccccccccccccccccccccscsscccccccccccccccsscccscccscc"
       inkscape:label="lines" />
    <path
       id="rect19"
       style="mix-blend-mode:soft-light;fill:#ffffff;fill-opacity:0.158282;stroke-width:1.05833;stroke-linecap:round;paint-order:fill markers stroke;filter:url(#filter34)"
       inkscape:label="slot use"
       d="m 14.587994,27.87526 -1.558298,28.810686 c -0.420836,7.780651 5.217945,13.869013 12.965879,14.69675 10.060122,1.372003 20.486011,-1.506685 20.752082,-15.080063 L 47.306673,27.784867 C 47.459386,19.99434 41.033406,13.720093 33.241382,13.720093 22.798873,13.384336 15.277995,15.118118 14.587994,27.87526 Z m 50.300035,-0.09039 1.193375,28.876437 C 66.40315,64.446682 74.575046,69.302277 82.361748,69.590246 102.51147,70.335427 98.55508,45.940506 99.165007,27.784867 99.426628,19.997236 94.987341,16.501159 88.094173,14.873742 78.365022,12.576774 65.293059,14.679269 64.888029,27.784867 Z m 52.916671,0 1.53092,28.71632 c 0.29943,11.876509 9.6563,13.144704 19.34598,13.144704 7.79203,0 11.89093,-4.64072 12.2066,-12.426347 l 1.19347,-29.434677 C 152.39735,19.99924 145.49834,15.03186 137.70631,15.03186 127.2638,14.696103 117.12456,15.027199 117.8047,27.784867 Z"
       sodipodi:nodetypes="ssssssssssssssssssss" />
  </g>
  <metadata
     id="metadata1">
    <rdf:RDF>
      <cc:Work
         rdf:about="">
        <cc:license
           rdf:resource="http://creativecommons.org/licenses/by-sa/4.0/" />
      </cc:Work>
      <cc:License
         rdf:about="http://creativecommons.org/licenses/by-sa/4.0/">
        <cc:permits
           rdf:resource="http://creativecommons.org/ns#Reproduction" />
        <cc:permits
           rdf:resource="http://creativecommons.org/ns#Distribution" />
        <cc:requires
           rdf:resource="http://creativecommons.org/ns#Notice" />
        <cc:requires
           rdf:resource="http://creativecommons.org/ns#Attribution" />
        <cc:permits
           rdf:resource="http://creativecommons.org/ns#DerivativeWorks" />
        <cc:requires
           rdf:resource="http://creativecommons.org/ns#ShareAlike" />
      </cc:License>
    </rdf:RDF>
  </metadata>
</svg>
