<?xml version="1.0" encoding="UTF-8" standalone="no"?>
<!-- Created with Inkscape (http://www.inkscape.org/) -->

<svg
   width="210"
   height="340"
   viewBox="0 0 55.562504 89.958333"
   version="1.1"
   id="svg1"
   inkscape:version="1.3.2 (1:1.3.2+202311252150+091e20ef0f)"
   sodipodi:docname="menu_plant.svg"
   inkscape:export-filename="menu_plant.png"
   inkscape:export-xdpi="96"
   inkscape:export-ydpi="96"
   xmlns:inkscape="http://www.inkscape.org/namespaces/inkscape"
   xmlns:sodipodi="http://sodipodi.sourceforge.net/DTD/sodipodi-0.dtd"
   xmlns="http://www.w3.org/2000/svg"
   xmlns:svg="http://www.w3.org/2000/svg"
   xmlns:rdf="http://www.w3.org/1999/02/22-rdf-syntax-ns#"
   xmlns:cc="http://creativecommons.org/ns#">
  <sodipodi:namedview
     id="namedview1"
     pagecolor="#ffffff"
     bordercolor="#666666"
     borderopacity="1.0"
     inkscape:showpageshadow="2"
     inkscape:pageopacity="0.0"
     inkscape:pagecheckerboard="true"
     inkscape:deskcolor="#d1d1d1"
     inkscape:document-units="px"
     inkscape:zoom="1.0973349"
     inkscape:cx="132.13833"
     inkscape:cy="113.4567"
     inkscape:window-width="1868"
     inkscape:window-height="1016"
     inkscape:window-x="52"
     inkscape:window-y="27"
     inkscape:window-maximized="1"
     inkscape:current-layer="layer7"
     showguides="true">
    <sodipodi:guide
       position="135.46668,-12.75644"
       orientation="-1,0"
       id="guide2"
       inkscape:locked="false"
       inkscape:label=""
       inkscape:color="rgb(0,134,229)" />
  </sodipodi:namedview>
  <defs
     id="defs1">
    <filter
       inkscape:collect="always"
       style="color-interpolation-filters:sRGB"
       id="filter3"
       x="-0.014924103"
       y="-0.0061102435"
       width="1.0298482"
       height="1.0122205">
      <feGaussianBlur
         inkscape:collect="always"
         stdDeviation="0.23119856"
         id="feGaussianBlur3" />
    </filter>
    <filter
       inkscape:collect="always"
       style="color-interpolation-filters:sRGB"
       id="filter5"
       x="-0.016513215"
       y="-0.0065962821"
       width="1.0330264"
       height="1.0131926">
      <feGaussianBlur
         inkscape:collect="always"
         stdDeviation="0.25642798"
         id="feGaussianBlur5" />
    </filter>
  </defs>
  <g
     inkscape:groupmode="layer"
     id="g13"
     inkscape:label="Foil4"
     transform="translate(34.761764,32.160317)"
     style="display:inline">
    <path
       style="fill:#498e45;fill-opacity:1;stroke:none;stroke-width:1.00013;stroke-linecap:round;stroke-linejoin:round;stroke-dasharray:none;stroke-opacity:1"
       d="m -18.376773,32.751838 c -9.18e-4,0.005 -0.997836,-0.36226 -2.169506,-0.31314 -0.813003,0.0341 -2.093447,-1.21924 -2.079963,-1.25421 -0.08957,-0.0471 1.744413,-0.94715 2.692485,-0.5894 0.7414,0.27978 1.631999,1.86047 1.631999,1.86047 z"
       id="path11"
       sodipodi:nodetypes="cscscc"
       inkscape:label="fill" />
    <path
       style="fill:#376f35;fill-opacity:0.254484;stroke:none;stroke-width:0.841374;stroke-linecap:round;stroke-linejoin:round;stroke-dasharray:none;stroke-opacity:1"
       d="m -22.392896,31.255968 c 1.107324,1.11513 2.264697,1.0975 2.597268,1.05029 0.652399,-0.0926 1.174242,0.13088 1.479143,0.32242 0,0 -0.973615,-1.61054 -1.674,-1.71083 0.571156,0.47745 0.680492,0.63066 0.680492,0.63066 -0.936788,0.27857 -2.552522,-0.17871 -3.082903,-0.29254 z"
       id="path12"
       sodipodi:nodetypes="cscccc"
       inkscape:label="shadow" />
    <path
       id="path13"
       style="color:#000000;fill:#3b7639;stroke-width:0.999996;stroke-linecap:round;stroke-linejoin:round;-inkscape-stroke:none"
       d="m -20.054466,30.410078 c -0.430674,-0.004 -0.900365,0.079 -1.336259,0.21683 -0.53999,0.17073 -0.933469,0.26979 -1.646946,0.49629 0.45514,0.40136 1.603867,1.82876 2.789901,1.3836 1.207947,-0.45338 1.605885,0.15854 2.056629,0.26567 -0.892137,-0.21898 -0.507818,-1.03023 -2.151964,-0.45024 -0.544615,0.19212 -1.837409,-0.64402 -2.215584,-1.11008 0.169547,-0.0658 1.022595,-0.31498 1.245024,-0.38531 0.561627,-0.17757 1.058241,-0.21827 1.348288,-0.11765 0.280348,0.0973 0.938041,0.7643 1.243776,1.185 l 0.52974,0.69735 c 0,0 -0.123666,-0.49634 -0.446764,-0.94092 -0.436159,-0.75248 -0.523845,-1.2318 -1.415841,-1.24054 z"
       sodipodi:nodetypes="sscscscssccss"
       inkscape:label="outline" />
  </g>
  <g
     inkscape:groupmode="layer"
     id="g10"
     inkscape:label="Foil2"
     transform="matrix(-1.1753307,0,0,1.1753307,287.95968,-26.109792)"
     style="stroke-width:0.850824">
    <path
       style="fill:#4f9549;fill-opacity:1;stroke:none;stroke-width:0.850935;stroke-linecap:round;stroke-linejoin:round;stroke-dasharray:none;stroke-opacity:1"
       d="m 207.40072,28.259456 c 0,0 -3.53586,-1.52511 -4.96505,-2.16902 -1.41987,-0.63972 -3.73671,-1.39426 -3.73671,-1.39426 0,0 4.09214,-1.45156 5.70936,-0.79427 1.53283,0.62302 3.17466,3.93558 3.17466,3.93558 z"
       id="path8"
       sodipodi:nodetypes="cscscc"
       inkscape:label="fill" />
    <path
       style="fill:#376f35;fill-opacity:0.254484;stroke:none;stroke-width:0.715862;stroke-linecap:round;stroke-linejoin:round;stroke-dasharray:none;stroke-opacity:1"
       d="m 199.93085,24.497686 c 0.5418,-0.003 2.17321,0.0185 3.39159,0.4086 1.33978,0.42901 2.75856,1.4801 2.85896,1.84158 0.10939,0.39378 -1.88803,-0.73543 -1.58939,-0.4802 0.6037,0.51591 1.92744,1.15859 2.3227,1.5356 l 0.40929,-0.2387 c -0.32052,-0.0191 -2.48418,-3.31429 -4.18628,-3.37319 -0.72386,-0.0251 -3.20687,0.30633 -3.20687,0.30633 z"
       id="path9"
       sodipodi:nodetypes="csssccscc"
       inkscape:label="shadow" />
    <path
       id="path10"
       style="color:#000000;fill:#3b7639;stroke-width:0.850824;stroke-linecap:round;stroke-linejoin:round;-inkscape-stroke:none"
       d="m 203.7309,23.316566 c -0.89876,-0.0896 -1.94832,0.11364 -2.87808,0.32667 -1.15183,0.26393 -1.95493,0.57539 -3.11972,1.36835 2.14627,-0.19257 2.72735,0.84104 5.34674,1.62947 2.78511,0.83832 3.81687,1.71739 4.69377,1.84314 -1.35726,-0.89254 -3.03288,-1.94288 -4.85511,-2.42976 -1.16288,-0.31071 -1.90475,-1.49731 -3.56266,-1.45249 0.3632,-0.10702 1.06746,-0.3512 1.5419,-0.45992 1.19795,-0.27447 2.83583,-0.25861 3.4297,-0.0172 0.57402,0.23331 1.86408,1.65452 2.44951,2.53553 l 1.01844,1.46359 c 0,0 -0.19474,-1.006 -0.81343,-1.93703 -1.24168,-1.86852 -1.84295,-2.73061 -3.25106,-2.87031 z"
       sodipodi:nodetypes="sscscscssccsss"
       inkscape:label="outline" />
  </g>
  <g
     inkscape:label="Main"
     inkscape:groupmode="layer"
     id="layer1">
    <path
       style="color:#000000;fill:#498f45;stroke-width:1;stroke-linecap:round;stroke-linejoin:round;-inkscape-stroke:none"
       d="M 26.547246,0.71703747 C 14.143946,1.0417275 8.5428652,2.9660075 7.9456352,16.222477 c -0.41296,9.1662 3.2754908,11.647991 9.7038208,11.726871 5.73195,0.0703 6.22702,-2.407071 6.26191,-5.449851 0.0134,-1.17208 -1.10994,-3.53265 -2.42875,-3.5499 -1.74097,-0.0228 -2.82507,0.27598 -2.88821,1.10078 -0.0919,1.20122 2.71886,-0.26023 2.92441,1.64192 0.30271,2.80126 0.63206,3.72036 -3.83049,3.6415 -5.99284,-0.10589 -6.67752,-1.10462 -4.90183,-9.74253 1.38194,-6.7225199 8.59048,-7.4256999 14.43241,-7.3125099 6.26915,0.12147 7.97262,1.3530998 9.63646,11.3568799 1.73636,10.439811 -0.54713,13.106631 -6.62308,18.146811 -6.31949,5.24218 -11.46249,12.1211 -13.62481,19.4662 -5.85057,19.87357 -2.77469,21.54541 2.64373,36.74537 l 15.42569,0.21541 c -5.23521,-15.23508 -8.95768,-15.72265 -5.6532,-30.00596 2.09367,-9.0497 3.19982,-14.54801 9.60932,-20.64756 6.25455,-5.95209 11.67412,-9.81451 9.18644,-24.450611 C 44.846806,1.6159075 40.094346,0.36240766 26.547246,0.71703747 Z"
       id="path1"
       sodipodi:nodetypes="sssssssssssssccssss"
       inkscape:label="fill" />
    <path
       style="color:#000000;mix-blend-mode:normal;fill:#295028;fill-opacity:0.141494;stroke-width:1.00012;stroke-linecap:round;stroke-linejoin:round;stroke-dasharray:none;filter:url(#filter3)"
       d="m 25.642126,3.8083675 c -7.39889,1.21611 -13.69757,2.6191696 -15.04776,12.0582895 -0.16153,1.12926 -0.34615,2.82051 -0.35063,3.73939 -0.003,0.67329 -0.8571808,-1.10484 -0.7874208,-0.53435 0.4719906,3.85933 4.1092008,8.276811 8.3438708,8.419411 4.02542,0.13555 5.52928,-1.46222 5.56407,-4.505001 0.005,-0.43157 -0.15113,-0.9442 -0.27309,-1.36157 -0.0321,-0.10971 0.0905,-0.15236 0.0469,-0.2548 -0.24078,-0.56626 -0.66594,-1.0014 -1.37152,-1.08422 -1.72924,-0.20299 -2.72153,-0.28619 -1.98274,0.0859 0.50031,0.25197 1.37317,0.18934 2.03638,0.77301 0.1371,0.12066 0.52379,0.0941 0.60998,0.29732 0.0692,0.16314 0.11877,0.35667 0.14362,0.58664 0.30271,2.80126 0.21085,4.545341 -4.25216,4.466481 -2.03164,-0.0359 -5.05928,-1.871441 -6.0227,-2.783401 -0.51322,-0.4858 -1.68953,-2.58829 -0.51582,-8.29784 1.38194,-6.7225199 8.37032,-8.3595399 15.69154,-8.4112699 3.54989,-0.0251 9.73008,2.7515198 11.84006,6.7170599 0.14232,0.26749 -0.64649,-0.60704 -1.66743,-1.27458 -1.17772,-0.77005 -2.59952,-1.32794 -2.19891,-0.57305 0.22381,0.42173 1.85664,1.00745 2.88568,2.86995 1.16209,2.10329 1.76791,4.22736 2.44803,7.25103 2.72796,12.128001 0.92426,14.882021 -6.20278,18.132721 -4.40346,2.00846 -7.40174,5.48424 -8.98901,9.19934 -0.23428,0.54833 1.17457,0.26458 0.9629,0.83672 -0.7872,2.12768 -2.30399,4.90643 -3.10393,7.25102 -4.91149,14.39534 -1.83276,21.70518 3.58566,36.90514 l 6.16348,-0.10832 c -5.70195,-13.93159 -8.46239,-19.66849 -6.87233,-26.27286 0.16433,-0.68252 0.21789,1.67129 0.40216,0.87481 1.80029,-7.78158 4.71482,-18.64687 9.01852,-23.91946 0.0932,-0.11417 -1.03668,0.26728 -2.17228,0.88585 -1.27032,0.69195 -2.39977,1.66593 -2.44968,1.50314 -0.0848,-0.2766 1.38631,-1.45866 2.69413,-2.35388 1.04402,-0.71466 2.23738,-1.19548 3.24437,-1.7148 4.4447,-2.2922 10.54051,-9.26625 9.43792,-24.071261 -0.63105,-8.47355 -8.29046,-17.3984295 -20.85908,-15.3325995 z"
       id="path3"
       sodipodi:nodetypes="ssssssssssssssssssssssssssccssssssssss"
       inkscape:label="shadow" />
    <path
       id="path4"
       style="color:#000000;fill:#6db15d;fill-opacity:0.188109;stroke-width:1;stroke-linecap:round;stroke-linejoin:round;-inkscape-stroke:none;filter:url(#filter5)"
       inkscape:label="light"
       d="M 26.547306,0.71715747 C 14.029896,1.0511475 8.9701352,3.8675475 7.6550452,16.175667 c -0.12979,1.21471 0.0313,7.49849 1.94965,8.29442 -1.24331,-2.30496 -1.3484,-6.38948 -0.79171,-9.2458 C 10.194926,8.5017971 12.156426,5.7753775 16.504416,4.0690275 25.123396,0.68652747 42.677616,0.34825766 44.889856,8.5652571 44.402696,1.5873675 34.249606,0.51520766 26.547306,0.71715747 Z M 18.731986,20.317537 c 0.9047,-1.08499 3.61628,-0.36655 4.45781,-0.0287 -0.92232,-1.81141 -4.79654,-1.35576 -4.45781,0.0287 z m 16.13812,-8.44556 c 3.32658,10.57724 4.3003,20.311511 -4.63775,25.910621 -5.63236,4.4014 -11.35391,12.20886 -13.62501,19.466 -6.18735,19.77124 -2.77465,21.54563 2.64377,36.74556 l 1.74318,-0.26407 c -5.23518,-15.23505 -4.45125,-21.36963 -1.1468,-35.65288 2.09367,-9.04967 6.02738,-12.34522 12.43688,-18.44474 6.25452,-5.95209 8.76257,-4.28318 6.12643,-17.740621 -0.60751,-3.10133 -1.78283,-7.51294 -3.5407,-10.01987 z m -13.82175,13.62572 c 1.25041,-0.76013 1.1881,-2.49607 0.64302,-4.05998 0.1784,3.15534 -0.8737,4.2808 -5.48361,4.06723 1.37221,0.485111 3.53254,0.796471 4.84059,-0.007 z"
       sodipodi:nodetypes="csccscccccccsccssscsccss" />
    <path
       style="color:#000000;display:inline;fill:#3b7639;stroke-linecap:round;stroke-linejoin:round;-inkscape-stroke:none"
       d="m 26.530706,0.05667766 c -6.23408,0.12568 -10.52197,0.91108981 -13.75598,3.24007984 -3.2340108,2.32899 -5.4457108,6.7308395 -5.7484408,13.4504995 -0.21059,4.67423 0.95513,7.47373 2.8028306,9.434071 1.8477102,1.96034 4.5564002,2.07432 7.8541102,2.11478 2.96148,0.0363 4.717,-0.2801 5.73615,-1.47576 1.01915,-1.195661 0.95079,-2.757311 0.96845,-4.312501 0.009,-0.80796 -0.14249,-1.67697 -0.64618,-2.46875 -0.50369,-0.79179 -1.14979,-1.01152 -1.85286,-1.22392 -1.30905,-0.39548 -3.9764,0.24773 -3.95574,1.25513 0.011,0.53544 0.80793,0.79663 1.32995,0.90588 0.56975,0.11925 1.26791,0.007 1.68862,0.40405 0.8092,0.76448 0.48761,2.06771 -0.085,2.8092 -0.65763,0.85164 -1.45249,0.98374 -3.09694,0.91042 -1.61633,-0.0721 -4.07479,-0.29709 -5.17252,-1.7847 -0.51632,-0.99274 -0.52685,-3.82371 0.35658,-8.12132 0.64621,-3.14351 3.46037,-4.54954 6.02287,-5.4986801 2.5625,-0.9491298 5.42629,-1.1722698 8.31546,-1.1162898 3.09244,0.0599 4.69003,0.43341 5.9327,1.8128999 1.24266,1.37949 1.93815,4.83647 2.97776,9.35236 1.17456,5.1021 0.70411,8.295421 -0.3379,10.730461 -1.042,2.43505 -2.39983,4.16228 -5.42502,6.67176 -6.40261,5.31113 -11.99141,12.46326 -14.20237,19.97359 -2.93557,9.97173 -3.92375,15.41571 -3.18901,20.35075 0.73473,4.93504 2.88159,9.17618 5.58008,16.74609 0.29094,0.81481 1.53746,0.36936 1.24609,-0.44531 -2.71992,-7.63004 -4.19349,-11.74541 -4.88865,-16.41466 -0.62406,-4.19169 -0.3324,-12.72571 1.6713,-17.74618 0.16062,-0.40246 1.83823,-3.63732 1.95662,-4.07118 0.14705,-0.5389 -1.54043,1.40451 -1.37526,0.84346 2.11365,-7.17985 7.17892,-12.91869 13.41529,-18.09191 3.05075,-2.53069 5.52729,-4.53973 6.71192,-7.30809 1.18464,-2.76836 0.83687,-6.635491 -0.0405,-11.910661 -0.5442,-3.27198 -0.99248,-5.29914 -1.67694,-6.80279 -0.36851,-0.80955 2.65681,0.7537 2.09955,0.13508 -0.95342,-1.05839 -3.04268,-2.7879999 -5.53148,-3.8226799 -1.66776,-0.69335 -3.70978,-0.93999 -4.98439,-0.96469 -2.95275,-0.0572 -6.28312,0.08 -9.13086,1.13477 -2.84773,1.0547798 -5.22716,3.1280299 -5.96289,6.7070299 -0.70445,3.42684 -0.84927,5.61436 -0.44556,7.21639 0.10761,0.42704 -1.53848,-1.27227 -1.38308,-0.902 0.38474,0.91676 1.6635,2.50171 3.10069,3.03475 1.53912,0.57085 3.57515,0.79613 4.53552,0.83413 2.23238,0.0883 2.52662,-0.14647 3.50125,-0.84795 0.6154,-0.44293 0.79979,-2.30229 0.50394,-3.50521 -0.0792,-0.32218 0.82104,-0.0431 0.65256,-0.27808 -0.54545,-0.76071 -2.63028,0.11681 -3.62306,-1.05849 -0.21436,-0.25377 0.8767,-0.65598 2.35543,-0.35878 0.3553,0.0714 1.03319,0.16994 1.4257,0.78696 0.39252,0.61703 0.69045,1.00466 0.72112,2.13167 0.0405,1.48713 -0.0906,2.70849 -0.76073,3.494641 -0.67009,0.78614 -1.91778,1.75601 -4.68825,1.72203 -3.13061,-0.0384 -6.43023,-1.34673 -7.9306,-2.938551 -1.5003608,-1.59183 -1.9534208,-4.52856 -1.7510508,-9.02052 0.2945,-6.5367899 2.3329408,-9.9332399 5.1495908,-11.9616695 2.81666,-2.02844 6.89266,-2.26788 13.06273,-2.4294 6.75114,-0.17673 11.37276,-0.10926 14.40332,2.17798 3.03056,2.2872796 4.7232,6.9700595 6.2002,15.6599095 1.22893,7.230341 0.38832,12.202011 -1.36286,15.596591 -1.344,2.60528 -3.95734,5.55888 -7.94913,8.37783 -1.20936,0.85403 -3.97108,2.1488 -4.43963,2.59948 -0.60338,0.58037 3.59893,-1.35408 3.0733,-0.78332 -5.13026,5.57073 -6.61763,10.98786 -8.51515,19.18973 -1.66491,7.1964 -1.16285,10.93003 0.0411,14.84586 1.20398,3.91584 3.43446,7.80685 6.0371,15.38086 0.28155,0.81686 1.53019,0.38765 1.25,-0.42968 -2.63255,-7.66105 -4.25447,-11.63231 -5.39441,-15.33985 -1.13993,-3.70754 -1.87992,-7.21583 -0.24035,-14.30273 2.0954,-9.05717 3.30433,-14.79499 9.59755,-20.78389 3.10992,-2.95953 5.92791,-4.99338 7.82823,-8.67705 1.90032,-3.68367 3.07803,-8.95491 1.21953,-16.233331 -1.81182,-7.09564 -2.63792,-13.5827895 -6.46612,-15.6577895 -3.57529,-1.93791 -7.81483,-3.09402984 -15.31588,-2.94280984 z"
       id="path2"
       sodipodi:nodetypes="sssssssssssaasssssssssssccssssssssssssssssssssssssssssssssssssssccssssssss"
       inkscape:label="outline" />
  </g>
  <g
     inkscape:groupmode="layer"
     id="layer7-3"
     inkscape:label="Foil3"
     transform="translate(34.761765,32.160316)"
     style="display:inline">
    <path
       style="fill:#498e45;fill-opacity:1;stroke:none;stroke-width:1.00013;stroke-linecap:round;stroke-linejoin:round;stroke-dasharray:none;stroke-opacity:1"
       d="m -4.2522448,9.9952969 c -0.002,0.008 -1.81781,-0.24019 -3.696869,-1.1216598 -1.1964207,-0.56124 -3.7120822,-1.93908 -3.7120822,-1.93908 -0.155064,-0.0897 3.1494852,-1.5565096 4.8018912,-0.85937 1.29221,0.54518 2.75984,3.40128 2.75984,3.40128 z"
       id="path5-6"
       sodipodi:nodetypes="cscscc"
       inkscape:label="fill" />
    <path
       style="fill:#376f35;fill-opacity:0.254484;stroke:none;stroke-width:0.841375;stroke-linecap:round;stroke-linejoin:round;stroke-dasharray:none;stroke-opacity:1"
       d="m -11.073705,6.9678671 c 1.6263705,0.22348 3.1470732,1.3453 4.3198502,2.01425 1.01304,0.57783 2.09036,0.44005 2.61658,0.7995198 0,0 -1.61243,-2.9145198 -2.84429,-3.1394998 0.97767,0.88322 0.8777,1.65939 0.8777,1.65939 -1.756696,-1.67606 -3.8084507,-1.28367 -4.9698402,-1.33366 z"
       id="path7-4"
       sodipodi:nodetypes="cscccc"
       inkscape:label="shadow" />
    <path
       id="path6-7"
       style="color:#000000;fill:#3b7639;stroke-width:0.999997;stroke-linecap:round;stroke-linejoin:round;-inkscape-stroke:none"
       d="m -7.4429868,5.5748975 c -0.760323,-0.0546 -1.641878,0.15377 -2.4221427,0.3678796 -0.9666135,0.26526 -1.6379695,0.56316 -2.6047005,1.2976 1.834463,-0.23161 4.4826452,2.01679 4.9252552,2.19438 2.11933,0.8502999 2.82934,0.3895398 3.61923,0.6096399 -1.57004,-0.4397199 -1.85703,-0.3565601 -3.3731,-1.0870699 -0.920787,-0.44368 -2.8469452,-2.05413 -4.2451612,-1.96926 0.304326,-0.10473 1.44025,-0.63528 1.8384055,-0.74453 1.0053437,-0.27587 2.2760877,-0.16637 2.7822157,0.0314 0.48919,0.19115 1.60704,1.41547 2.11915,2.18029 l 0.88948,1.2693198 c 0,0 -0.18497,-0.8862298 -0.72617,-1.6944598 -1.08618,-1.62209 -1.61127,-2.3697196 -2.802462,-2.4551596 z"
       sodipodi:nodetypes="sscscscssccsss"
       inkscape:label="outline" />
  </g>
  <g
     inkscape:groupmode="layer"
     id="layer7"
     inkscape:label="Foil1"
     style="display:inline">
    <path
       style="fill:#4f9549;fill-opacity:1;stroke:none;stroke-width:1.00013;stroke-linecap:round;stroke-linejoin:round;stroke-dasharray:none;stroke-opacity:1"
       d="m 8.6584152,14.590627 c 0,0 -2.36304,-0.46419 -3.68841,-0.57739 -1.31673,-0.11245 -4.27294995,0.18579 -4.27294995,0.18579 0,0 2.79558995,-2.42072 4.27370995,-2.35205 1.40099,0.0651 3.70381,2.3382 3.70381,2.3382 z"
       id="path5"
       sodipodi:nodetypes="cscscc"
       inkscape:label="fill" />
    <path
       style="fill:#376f35;fill-opacity:0.254484;stroke:none;stroke-width:0.841375;stroke-linecap:round;stroke-linejoin:round;stroke-dasharray:none;stroke-opacity:1"
       d="m 2.6983952,13.264967 c 2.20149,-0.83828 4.66328,0.39578 5.71476,0.9002 0,0 -2.5603,-1.70982 -3.37663,-1.74194 -0.61334,-0.0241 -2.33813,0.84174 -2.33813,0.84174 z"
       id="path7"
       sodipodi:nodetypes="ccsc"
       inkscape:label="shadow" />
    <path
       id="path6"
       style="color:#000000;fill:#3b7639;stroke-width:0.999997;stroke-linecap:round;stroke-linejoin:round;-inkscape-stroke:none"
       d="m 4.2575952,11.559987 c -0.73776,0.19179 -1.50614,0.67153 -2.17673,1.12426 -0.83074,0.56087 -1.37131995,1.0581 -2.05189993,2.06348 1.66364993,-0.80695 3.67894993,-0.55506 5.39142993,-0.40835 2.45918,0.21067 2.86949,0.48295 3.60103,0.32805 -1.3439,-0.34158 -2.21764,-0.71874 -3.90463,-0.89988 -1.01626,-0.10913 -2.63153,-0.36972 -3.92891,0.1585 0.25475,-0.19669 0.73758,-0.6086 1.07977,-0.83962 0.86403,-0.58333 2.16395,-1.05507 2.70675,-1.02985 0.52464,0.0244 1.97573,0.82621 2.70582,1.38672 l 1.24916,0.91758 c 0,0 -0.45907,-0.7803 -1.23062,-1.37263 -1.54848,-1.18876 -2.28536,-1.72883 -3.44117,-1.42826 z"
       sodipodi:nodetypes="sscscscssccss"
       inkscape:label="outline" />
  </g>
  <metadata
     id="metadata13">
    <rdf:RDF>
      <cc:Work
         rdf:about="">
        <cc:license
           rdf:resource="http://creativecommons.org/licenses/by-sa/4.0/" />
      </cc:Work>
      <cc:License
         rdf:about="http://creativecommons.org/licenses/by-sa/4.0/">
        <cc:permits
           rdf:resource="http://creativecommons.org/ns#Reproduction" />
        <cc:permits
           rdf:resource="http://creativecommons.org/ns#Distribution" />
        <cc:requires
           rdf:resource="http://creativecommons.org/ns#Notice" />
        <cc:requires
           rdf:resource="http://creativecommons.org/ns#Attribution" />
        <cc:permits
           rdf:resource="http://creativecommons.org/ns#DerivativeWorks" />
        <cc:requires
           rdf:resource="http://creativecommons.org/ns#ShareAlike" />
      </cc:License>
    </rdf:RDF>
  </metadata>
</svg>
