<?xml version="1.0" encoding="UTF-8" standalone="no"?>
<!-- Created with Inkscape (http://www.inkscape.org/) -->

<svg
   width="256"
   height="64"
   viewBox="0 0 67.733332 16.933333"
   version="1.1"
   id="svg1"
   inkscape:version="1.3 (1:1.3+202307231459+0e150ed6c4)"
   sodipodi:docname="plank001.svg"
   inkscape:export-filename="plank001.png"
   inkscape:export-xdpi="96"
   inkscape:export-ydpi="96"
   xmlns:inkscape="http://www.inkscape.org/namespaces/inkscape"
   xmlns:sodipodi="http://sodipodi.sourceforge.net/DTD/sodipodi-0.dtd"
   xmlns:xlink="http://www.w3.org/1999/xlink"
   xmlns="http://www.w3.org/2000/svg"
   xmlns:svg="http://www.w3.org/2000/svg">
  <sodipodi:namedview
     id="namedview1"
     pagecolor="#ffffff"
     bordercolor="#666666"
     borderopacity="1.0"
     inkscape:showpageshadow="2"
     inkscape:pageopacity="0.0"
     inkscape:pagecheckerboard="0"
     inkscape:deskcolor="#d1d1d1"
     inkscape:document-units="px"
     inkscape:zoom="2"
     inkscape:cx="98"
     inkscape:cy="98.25"
     inkscape:window-width="1868"
     inkscape:window-height="1016"
     inkscape:window-x="52"
     inkscape:window-y="27"
     inkscape:window-maximized="1"
     inkscape:current-layer="layer1" />
  <defs
     id="defs1">
    <linearGradient
       id="linearGradient11"
       inkscape:collect="always">
      <stop
         style="stop-color:#f2b981;stop-opacity:1;"
         offset="0"
         id="stop11" />
      <stop
         style="stop-color:#7e5225;stop-opacity:0.67493653;"
         offset="1"
         id="stop12" />
    </linearGradient>
    <linearGradient
       id="linearGradient9"
       inkscape:collect="always">
      <stop
         style="stop-color:#c77f3a;stop-opacity:1;"
         offset="0"
         id="stop9" />
      <stop
         style="stop-color:#b57134;stop-opacity:1;"
         offset="1"
         id="stop10" />
    </linearGradient>
    <linearGradient
       inkscape:collect="always"
       xlink:href="#linearGradient9"
       id="linearGradient10"
       x1="14.850383"
       y1="0.31933519"
       x2="15.540911"
       y2="6.3065209"
       gradientUnits="userSpaceOnUse"
       gradientTransform="matrix(2.5701028,0,0,2.5859884,-0.06645775,-0.04334707)" />
    <linearGradient
       inkscape:collect="always"
       xlink:href="#linearGradient11"
       id="linearGradient12"
       x1="9.2182226"
       y1="0.89703673"
       x2="10.402332"
       y2="6.0305238"
       gradientUnits="userSpaceOnUse"
       gradientTransform="matrix(2.5701028,0,0,2.5859884,-0.06645775,-0.04334707)" />
    <filter
       inkscape:collect="always"
       style="color-interpolation-filters:sRGB"
       id="filter20"
       x="-0.003949802"
       y="-0.011685197"
       width="1.0078996"
       height="1.0233704">
      <feGaussianBlur
         inkscape:collect="always"
         stdDeviation="0.11275273"
         id="feGaussianBlur20" />
    </filter>
    <filter
       inkscape:collect="always"
       style="color-interpolation-filters:sRGB"
       id="filter21"
       x="-0.089217168"
       y="-0.53668142"
       width="1.1784343"
       height="2.0733628">
      <feGaussianBlur
         inkscape:collect="always"
         stdDeviation="2.2615041"
         id="feGaussianBlur21" />
    </filter>
  </defs>
  <g
     inkscape:label="Main"
     inkscape:groupmode="layer"
     id="layer1">
    <path
       id="path7"
       style="fill:#ac6d2f;fill-opacity:1;stroke:none;stroke-width:0.136421;stroke-dasharray:none;stroke-opacity:1"
       d="m 67.386374,13.339353 -0.7564,-0.502663 -4.32336,1.52174 3.948515,1.187152 -2.000174,-1.276644 z M 67.25172,8.4956231 66.504219,7.9164954 64.136887,8.9435652 66.689984,10.026419 65.789862,8.9044947 Z M 0.23520242,16.719619 1.009317,15.944842 c 21.97738,-0.380622 43.767703,-0.604116 65.882011,0.110336 l 0.718629,0.717159 C 45.260512,16.36209 22.707642,16.499827 0.23520242,16.719619 Z"
       inkscape:label="bottom"
       sodipodi:nodetypes="ccccccccccccccccc" />
    <path
       style="fill:#cf8a52;fill-opacity:1;stroke:none;stroke-width:0.136421;stroke-dasharray:none;stroke-opacity:1"
       d="M 0.23975055,0.20564271 0.21578984,16.742286 0.98950369,16.039187 0.91163526,0.93193327 Z"
       id="path4"
       inkscape:label="left"
       sodipodi:nodetypes="ccccc" />
    <path
       id="path5"
       style="fill:#be7935;fill-opacity:1;stroke:none;stroke-width:0.136421;stroke-dasharray:none;stroke-opacity:1"
       inkscape:label="rigth"
       d="M 67.589139,0.19448241 66.691494,1.0598624 c -0.190791,2.357286 -0.09526,4.5328399 -0.173139,6.8903447 l 0.726796,0.541651 c -0.07276,-2.7671576 0.212315,-5.5318516 0.343988,-8.29737569 z m -0.342029,9.44845169 -0.57548,0.4406699 0.04811,2.817399 0.575886,0.401703 c -0.08996,-1.892805 -0.05284,-3.5351626 -0.04853,-3.6597719 z m -0.340836,6.1510949 0.04378,0.350831 0.627133,0.618984 c -0.06621,-0.55093 -0.13367,-1.146197 -0.179368,-1.696655 z"
       sodipodi:nodetypes="cccccccccccccccc" />
    <path
       id="path9"
       style="font-variation-settings:normal;opacity:1;vector-effect:none;fill:#d09058;fill-opacity:1;stroke:none;stroke-width:0.136421;stroke-linecap:butt;stroke-linejoin:miter;stroke-miterlimit:4;stroke-dasharray:none;stroke-dashoffset:0;stroke-opacity:1;-inkscape-stroke:none;stop-color:#000000;stop-opacity:1"
       d="m 64.314859,14.27721 3.138641,0.787287 -0.510743,0.761699 -1.636278,-0.608717 z m 2.277356,-4.13482 0.68587,-0.5053764 -1.484964,-0.7618178 z M 0.24382,0.22652519 0.90704884,0.94044345 C 22.884428,1.3210643 44.764701,1.6290708 66.87901,0.91461887 L 67.534759,0.25274949 C 45.185314,0.66299665 22.716259,0.44631844 0.24382,0.22652519 Z"
       inkscape:label="top"
       sodipodi:nodetypes="cccccccccccccc" />
    <path
       id="path1"
       style="fill:url(#linearGradient10);stroke:none;stroke-width:0.136421;stroke-linecap:round;stroke-linejoin:miter;stroke-miterlimit:10"
       d="m 0.82044817,0.91166116 0.021666,15.40944984 c 24.10613283,-0.443951 44.72623883,-0.122607 66.23536383,0 -0.02101,-0.230639 -0.04168,-0.461572 -0.06024,-0.691953 -1.166716,-0.46793 -2.810117,-0.818094 -4.263477,-1.215207 1.286142,-0.447237 2.849926,-0.733793 4.058702,-1.385935 -0.04239,-0.965527 -0.01821,-1.929697 -0.02613,-2.894084 -0.322425,-0.4833837 -1.333608,-0.7588874 -2.053247,-1.1091366 0.28322,-0.1764963 0.652014,-0.3440227 0.989191,-0.492104 0.31263,-0.1373004 0.657,-0.2578825 1.048964,-0.3534032 0.04117,-2.3422901 0.176978,-4.9557188 0.331305,-7.30339719 C 55.537931,1.1801204 43.870306,1.202568 32.168131,1.1307788 21.741472,1.0668144 11.287383,0.92803687 0.85428972,0.84710663 c -0.0209438,0.012105 -0.0413023,0.0111559 -0.0338416,0.0645545 z"
       sodipodi:nodetypes="ccccccccsccscc"
       inkscape:label="fill"
       sodipodi:insensitive="true" />
    <path
       id="path20"
       style="opacity:0.06208003;fill:#e9c5af;fill-opacity:0.997793;stroke-width:0.136421;stroke-linecap:round;stroke-miterlimit:10;filter:url(#filter21)"
       inkscape:label="use"
       d="m 3.484375,3.53125 0.013672,10.113281 C 24.064659,13.312466 42.305167,13.487738 60.703125,13.619141 a 2.6597456,2.6597456 0 0 1 1.177734,-1.716797 c 0.711728,-0.247493 1.054828,-0.368453 1.648438,-0.544922 A 2.6597456,2.6597456 0 0 1 63.326172,6.7675781 c 0.343341,-0.2139622 0.59564,-0.3145743 0.86914,-0.4394531 0.03156,-0.9313535 0.07604,-1.8371653 0.125,-2.7734375 C 53.645176,3.7940877 42.914246,3.8570365 32.152344,3.7910156 22.597125,3.7323972 13.029793,3.6133038 3.484375,3.53125 Z" />
    <path
       style="color:#000000;fill:#934f28;stroke-miterlimit:40;-inkscape-stroke:none;opacity:0.2295914;filter:url(#filter20)"
       d="M 4.8772196,0.92332851 C 4.7766713,1.1467024 4.5347334,1.2245695 4.0746484,1.3795143 3.0393514,1.8876589 1.6199746,1.9942617 0.476041,1.9378147 0.27546206,1.9279172 0.06730514,1.8419599 -0.07108323,1.7489685 L -0.1449735,1.9037228 c 0.15865229,0.09682 0.32472536,0.358936 0.51058673,0.3681165 C 1.8008404,2.3427313 3.1351372,1.9244262 4.5340783,1.4789717 4.7622136,1.2897905 4.9792929,1.2150167 5.0538604,1.0679648 Z M 9.859375,1.6347656 C 8.6691533,1.4900442 8.1579844,1.5341657 7.3193617,1.8027436 6.4807391,2.0713216 5.0384935,2.2476889 4.9014225,2.9326907 4.7643516,3.6176925 5.3051581,4.70551 6.0292969,5.1992187 6.7534356,5.6929275 7.7863408,6.0584036 8.9765625,6.203125 10.166784,6.3478463 11.671052,6.5656946 12.54596,6.2699661 13.420867,5.9742377 14.089023,5.2367722 14.226094,4.5517704 14.363165,3.8667687 13.319085,2.9958332 12.594947,2.5021245 11.870808,2.0084157 11.049597,1.779487 9.859375,1.6347656 Z m 0.1180693,0.1359362 c 0.6048497,0.073545 0.9238647,-0.077202 1.5991007,0.636499 0.476614,0.1408463 0.896145,0.3147474 1.198651,0.5209921 0.648531,0.4421612 0.734925,0.9999533 0.642773,1.460479 C 13.325819,4.8491976 12.885167,5.5909733 12.08697,5.8607726 11.288773,6.1305719 9.9100621,6.112274 8.776436,5.974434 7.6428097,5.8365947 7.0486986,5.494912 6.400167,5.0527513 5.7516354,4.6105906 5.1083228,3.8665092 5.2004754,3.4059835 5.2926281,2.9454577 6.146374,2.3536518 6.9445709,2.0838524 7.3932638,1.9321893 7.9392504,1.8371744 8.545989,2.0099718 7.9624478,1.9635213 7.422138,2.3123912 6.973557,2.5235431 6.4866358,2.7527421 6.1059488,3.0781018 6.0104323,3.5554378 5.9149158,4.0327738 5.9682854,4.0807152 6.3500961,4.4213783 6.7319068,4.7620414 7.3696818,5.3247522 8.0078125,5.4023437 8.6459433,5.4799354 9.1933047,5.1635372 9.6802261,4.9343381 10.167147,4.705139 10.596073,4.8525866 10.69159,4.3752506 10.787106,3.8979145 10.513085,3.2193558 10.131274,2.8786928 9.7537787,2.5418807 9.3078118,2.0935032 8.6788709,2.0132203 7.3705332,1.4744826 9.5393209,1.7174295 9.9774443,1.7707018 Z M 8.578125,2.5585938 c 0.5630567,0.068463 1.1263935,0.282018 1.428758,0.551797 0.302365,0.269779 0.290289,0.5854864 0.228634,0.8935988 C 10.173863,4.3121021 9.9677048,4.5816695 9.5644531,4.7714844 9.1612014,4.9612993 8.6236036,5.0508851 8.0605469,4.9824219 7.4974902,4.9139587 7.0230679,4.7014196 6.7207031,4.4316406 6.4183384,4.1618616 6.2937246,3.9818282 6.3553789,3.6737158 6.4170332,3.3656034 6.669014,2.9593461 7.0722656,2.7695313 7.4755173,2.5797164 8.0150684,2.4901306 8.578125,2.5585938 Z m 11.188287,0.5335833 -0.582997,-0.068879 c 0.09714,0.2157818 0.176499,0.2865084 0.537943,0.4409157 3.955737,1.1859179 5.043876,2.5595461 8.356884,3.2382057 5.906148,1.2098567 9.321954,2.3746843 14.344933,3.3243415 3.251974,0.614827 8.157502,1.508557 13.289817,1.640964 1.415629,0.03652 2.204152,-1.019924 3.990848,-1.563416 1.685978,-0.5128542 3.025438,-1.1339911 5.984783,-0.7067615 0.139724,0.01092 0.273169,-0.043679 0.415954,-0.029267 l 0.02051,-0.2136838 C 66.002084,9.1421807 65.863647,9.0688467 65.741252,9.0600997 63.26752,8.8833076 60.929655,9.4368489 59.207618,9.9606733 57.400376,10.510416 56.267662,11.015479 54.986328,10.982422 41.972871,10.646691 40.003999,8.7675555 30.230398,6.7654629 27.441531,6.1941719 23.65445,4.7436934 21.011039,3.6109909 20.251134,3.4856047 19.897296,3.3691287 19.766412,3.0921771 Z M 7.9237137,2.9066188 C 7.3978036,2.8426728 6.949681,3.0877317 6.8518298,3.5767354 c -0.048926,0.2445018 -0.042257,0.3857159 0.11393,0.561664 0.156187,0.1759481 0.5430145,0.2085339 0.8059695,0.2405071 0.5259101,0.063946 1.2089798,0.023424 1.306831,-0.4655796 C 9.1274858,3.6688251 8.7037193,3.422426 8.5475324,3.246478 8.3913455,3.0705299 8.1866687,2.938592 7.9237137,2.9066188 Z M 7.8691409,3.2558594 C 8.037943,3.2763844 8.2184496,3.3230171 8.2987755,3.413506 8.3791015,3.503995 8.7008411,3.7829861 8.6789163,3.8925553 8.6350663,4.1116937 8.0016674,4.1582374 7.6640631,4.1171875 7.3357406,4.0678251 7.1406627,3.9771528 7.1933594,3.6328125 7.2372096,3.4136742 7.5315364,3.2148095 7.8691409,3.2558594 Z M 37.696366,5.1859922 37.382538,5.1420774 c -0.04909,0.2253312 0.01089,0.5063979 0.245912,0.6664014 5.505413,1.7634647 7.150272,2.0149211 16.637238,1.8948039 0.956402,-0.00532 1.588481,-0.1976858 1.776311,-0.3519616 L 55.649901,7.2960825 C 54.931275,7.5244535 52.886558,7.4612308 52.111452,7.4527601 46.477103,7.3513582 42.876931,6.8720563 38.824679,5.8851871 37.908849,5.5777089 37.810085,5.2956798 37.696366,5.1859922 Z M -0.65264718,4.77142 -0.70468671,4.9176343 c 0.13801717,0.1523433 0.30053273,0.2999858 0.48554902,0.3667974 4.74513239,1.7135259 9.10938859,2.720575 11.34824269,3.0534591 2.326148,0.3458633 2.279871,0.1498148 3.150933,-0.2943114 0.871061,-0.4441262 1.31355,-1.2433195 1.878915,-1.649195 0.565365,-0.4058755 1.452531,-0.6594731 3.077375,-0.3729 6.781714,1.196088 13.252116,5.0064246 20.134254,6.2200296 9.521089,1.678961 12.908052,3.247105 24.905303,2.789879 0.16231,-0.0062 0.279002,-0.0916 0.4445,-0.09853 l 0.0012,-0.0999 c -0.137425,0.0058 -0.264489,-0.0018 -0.400065,0.0032 C 52.269054,15.286858 47.455507,12.992169 37.881806,11.303931 31.10005,10.108028 26.645521,7.0936706 19.763433,5.8798796 18.073214,5.5817764 17.194287,5.1285239 16.546982,5.5932239 15.899677,6.0579242 15.325441,7.0420211 14.554305,7.4351985 13.78317,7.8283758 12.308746,8.1101139 10.03125,7.7714844 7.8282136,7.4439259 4.6205581,6.7335992 -0.14935158,5.0082952 -0.31056892,4.9499819 -0.52694543,4.8671875 -0.65264718,4.77142 Z m -0.89917452,4.3168416 -0.052529,0.3394299 c 9.0458725,3.0840335 13.8478727,3.3727395 16.9732257,2.7537705 3.125354,-0.618969 4.717458,-2.055376 9.119576,-1.244999 6.342955,1.167662 11.930402,4.342759 18.31451,5.646386 10.155727,2.073787 14.36638,1.398115 19.918046,0.693986 0.206955,-0.02625 0.312453,-0.135518 0.469478,-0.260294 l -0.06866,-0.07905 c -0.195001,0.10873 -0.34768,0.0879 -0.721695,0.134936 -5.29768,0.666279 -8.409576,1.325857 -18.215304,-0.676461 C 37.872059,15.106908 30.316761,11.523478 23.897078,10.341691 19.402164,9.5142319 17.489085,11.643099 14.413994,12.029539 10.951175,12.464704 7.4262692,12.146968 -1.5518217,9.0882616 Z M 64.194064,10.67778 c -1.247296,0.239293 -2.848044,0.247815 -3.758958,0.495137 -2.218588,0.602366 -2.272428,0.849762 -2.526742,1.277488 -0.435662,0.732735 1.932133,1.196636 2.623186,1.376849 1.029357,0.249557 2.403698,0.326285 3.951715,0.326285 0.14175,-0.0044 0.230631,-0.01661 0.422942,-0.04567 l 0.02871,-0.148175 c -0.272166,0.01004 -0.347848,-0.01384 -0.404363,-0.02396 -1.520239,0 -3.619901,-0.199956 -4.602698,-0.43331 -0.505286,-0.119974 -1.426834,-0.356125 -1.166135,-0.879386 0.369956,-0.742556 1.088101,-0.858312 1.772996,-1.038021 0.981362,-0.237921 2.279709,-0.660141 3.799947,-0.660141 0.356278,0 0.586622,0.06929 0.937402,0.01548 0.150609,-0.0231 0.2975,-0.03632 0.437919,-0.02691 l 0.09505,-0.362357 c -0.140898,-0.02068 -0.261894,-0.0259 -0.418129,-0.02314 -0.398431,0.01333 -0.797215,0.07393 -1.192846,0.149831 z m -66.4733609,2.130814 -0.1070373,0.386459 c 11.1618823,1.109099 15.9163352,2.076793 19.0601622,2.855728 3.143827,0.778935 5.826292,1.599095 10.804132,2.095718 5.245551,0.523332 7.975231,0.716558 14.317744,2.011692 7.139161,1.457808 11.748648,1.711137 14.352208,1.331108 2.482963,-0.362426 3.254445,-1.404438 7.158902,-1.708392 0.189637,-0.01476 0.214897,-0.08758 0.477523,-0.02791 l 0.0375,-0.245815 c -0.170243,-0.03336 -0.264321,-0.06342 -0.459245,-0.04057 -4.047871,0.474457 -5.907936,1.271174 -8.333295,1.625191 C 52.487144,21.462862 49.27653,21.363711 42.158201,19.910156 35.803842,18.612603 31.719896,18.063148 26.466797,17.539062 21.5152,17.045058 20.037739,16.617289 16.875004,15.833669 13.712269,15.050049 9.0857832,13.49823 -2.2792969,12.808594 Z m 24.8503319,-0.0887 c -0.937942,-0.01952 -2.583395,0.5531 -2.690176,1.086742 -0.144361,0.721447 0.680734,1.090651 1.075641,1.243862 0.968703,0.375825 1.844455,0.860574 3.374442,1.046608 1.529987,0.186034 4.075713,0.466023 5.142463,0.338361 1.035356,-0.123903 3.837403,-0.558301 3.0249,-1.239004 -0.70142,-0.58764 -1.475227,-0.225171 -2.079418,-0.601125 -0.292757,-0.182165 -0.03278,-0.510136 -0.690371,-0.76526 C 28.759813,13.454253 27.404987,13.1333 25.875,12.947266 24.556346,12.764241 23.640202,12.742143 22.571035,12.719896 Z m 0.354999,0.533911 c 0.973013,-0.06805 1.763642,-0.120651 3.26525,0.06193 1.226792,0.149168 2.228251,0.384623 3.178933,0.785642 0.212962,0.08983 0.744735,0.70771 0.913058,0.773014 1.117843,0.433687 2.084852,0.322655 1.635569,0.64706 -1.132802,0.817941 -2.613989,0.355688 -2.930656,0.393585 -1.018212,0.121854 -1.775827,0.145238 -3.277434,-0.03735 -1.501607,-0.182583 -2.975705,-0.408713 -3.895431,-0.765536 -0.06368,-0.02471 -1.668627,-0.801874 -1.537845,-1.383152 0.128485,-0.571067 1.761414,-0.413151 2.648556,-0.475197 z M 4.5859375,16.503906 c -1.6553388,-0.05103 -3.5282019,-0.01767 -5.6556303,0.01155 -0.5408837,0.0074 -0.6502576,0.141736 -1.0309236,0.313965 l 0.5963956,0.07064 c 0.2879564,-0.41918 2.02915571,-0.0613 3.5335679,-0.06921 6.557251,-0.03449 10.3868199,0.593482 12.9039949,1.466183 0.157164,0.08457 0.423702,0.218734 0.556734,0.420118 l 0.148663,5.95e-4 C 15.483945,18.482907 15.324854,18.367084 15.196011,18.285908 12.903814,17.427548 9.8657767,16.66667 4.5859375,16.503906 Z M 62.79796,22.810338 c -0.143732,0.248028 -0.342354,0.382176 -0.635729,0.451655 -1.512228,-0.09418 -2.868995,-0.22471 -4.386717,0.353414 -0.194838,0.130546 -0.327148,0.253355 -0.447705,0.428887 l 0.164728,0.0371 c 0.05492,-0.17492 0.253808,-0.302688 0.708513,-0.367323 1.00476,-0.142824 2.278525,-0.213397 4.203963,-0.296445 0.158169,0.0057 0.452165,-0.360227 0.458576,-0.537295 z"
       id="ellipse20"
       transform="matrix(0.9928741,-0.119168,0.19867725,0.98006496,0,0)"
       sodipodi:nodetypes="cccccccccscssssscsscssssssscssssssscsssssssssscccssssccccsssccsssssssssssssccccccccccccsssssccccsssssccccsssccccssscssssccccssssccccssssssccccsssscsasssssasssacsssssssacccsccccscccccccccccc"
       inkscape:label="lines" />
    <path
       id="path14"
       style="mix-blend-mode:luminosity;fill:none;stroke:url(#linearGradient12);stroke-width:0.136421;stroke-linecap:round;stroke-linejoin:miter;stroke-miterlimit:10"
       d="m 0.82044817,0.91166116 0.021666,15.40944984 c 24.10613283,-0.443951 44.72623883,-0.122607 66.23536383,0 -0.02101,-0.230639 -0.04168,-0.461572 -0.06024,-0.691953 -1.166716,-0.46793 -2.810117,-0.818094 -4.263477,-1.215207 1.286142,-0.447237 2.849926,-0.733793 4.058702,-1.385935 -0.04239,-0.965527 -0.01821,-1.929697 -0.02613,-2.894084 -0.322425,-0.4833837 -1.333608,-0.7588874 -2.053247,-1.1091366 0.28322,-0.1764963 0.652014,-0.3440227 0.989191,-0.492104 0.31263,-0.1373004 0.657,-0.2578825 1.048964,-0.3534032 0.04117,-2.3422901 0.176978,-4.9557188 0.331305,-7.30339719 C 55.537931,1.1801204 43.870306,1.202568 32.168131,1.1307788 21.741472,1.0668144 11.287383,0.92803687 0.85428972,0.84710663 c -0.0209438,0.012105 -0.0413023,0.0111559 -0.0338416,0.0645545 z"
       sodipodi:nodetypes="ccccccccsccscc"
       inkscape:label="internal outline" />
    <path
       style="color:#000000;fill:#935a28;stroke-width:2.57803;stroke-linecap:round;stroke-miterlimit:40;-inkscape-stroke:none"
       d="M 0.1160907,0.25289386 C 0.1415808,5.706727 0.19367478,11.151451 0.09677596,16.64719 0.0902639,16.786001 0.26274363,16.851359 0.35599656,16.855059 9.3611298,16.684963 17.876331,16.572616 26.102066,16.593444 c 14.266023,0.03612 27.777297,0.190626 41.454668,0.269393 0.100214,0.0017 0.151053,-0.04227 0.145758,-0.115415 -0.0718,-0.552359 -0.183894,-1.109729 -0.158424,-1.663594 0.001,-0.05113 -0.02499,-0.06455 -0.06031,-0.08588 -0.699174,-0.268673 -1.784317,-0.414789 -2.951711,-0.757613 0.941456,-0.223026 1.875148,-0.272593 2.841166,-0.823273 0.06675,-0.02679 0.07038,-0.07478 0.06016,-0.10104 -0.0025,-1.218545 -0.09533,-2.381542 -0.100722,-3.5951269 0.0038,-0.052002 -0.01259,-0.095211 -0.04901,-0.1241042 C 66.864876,9.2828187 66.390401,9.1112524 65.90751,8.937049 66.372537,8.6933895 66.702915,8.6692579 67.154205,8.6041845 67.22478,8.6030965 67.301317,8.5189991 67.293401,8.4363927 67.217003,5.9577081 67.473386,2.9119336 67.685672,0.27291263 67.69698,0.20056287 67.535105,0.10282313 67.44032,0.10554788 55.896547,0.41853674 44.76368,0.47682907 33.326305,0.45453852 22.770652,0.43396639 11.955754,0.35455554 0.3162434,0.11705455 0.19389166,0.12256436 0.12194576,0.17153716 0.1160907,0.25289386 Z M 0.32730269,0.4608676 C 0.32342807,0.31477312 0.43540634,0.31229373 0.53153419,0.31397731 11.936556,0.80856703 22.770815,0.71311869 34.059809,0.68966022 45.348804,0.66620175 57.009683,0.7290836 67.35632,0.3330386 c 0.07861,6.5813e-4 0.120404,0.0550813 0.115689,0.12787684 -0.166186,2.56550886 -0.297854,5.35264696 -0.332952,7.89429476 9.38e-4,0.038417 -0.01105,0.1010033 -0.05806,0.1044842 -0.518662,0.038428 -1.007129,0.1985083 -1.504844,0.3510992 -0.07039,0.030698 -0.164975,0.055433 -0.219384,0.096259 0.100414,0.075834 0.150813,0.078669 0.214372,0.1007215 0.558229,0.1956791 1.10232,0.4001321 1.561137,0.7323599 0.145893,1.193617 0.0433,2.339049 0.100388,3.510277 -1.028087,0.430628 -2.064537,0.639465 -3.107215,0.893984 -0.09691,0.02676 -0.21553,0.06635 -0.308539,0.112409 0.102314,0.04673 0.207467,0.07177 0.31356,0.08963 1.259089,0.242322 2.451275,0.495259 3.217648,0.823273 0.112997,0.483261 0.098,0.988572 0.13051,1.484922 -14.095291,-0.07819 -27.683578,-0.332744 -42.157134,-0.317749 -7.961314,0.0082 -16.213333,0.158755 -24.91132791,0.322683 -0.072789,-0.0037 -0.11281834,-0.03932 -0.11199276,-0.08348 0.0985367,-5.386169 0.0232661,-10.7441015 0.0291274,-16.1152144 z"
       id="rect1"
       sodipodi:nodetypes="cccsccccccccccccccsccccscscsccccccccccscccc"
       inkscape:label="outline" />
  </g>
</svg>
