<?xml version="1.0" encoding="UTF-8" standalone="no"?>
<!-- Created with Inkscape (http://www.inkscape.org/) -->

<svg
   width="128"
   height="128"
   viewBox="0 0 33.866666 33.866666"
   version="1.1"
   id="svg1"
   xml:space="preserve"
   inkscape:version="1.3.2 (1:1.3.2+202311252150+091e20ef0f)"
   sodipodi:docname="herbs01.svg"
   inkscape:export-filename="herbs01.png"
   inkscape:export-xdpi="96"
   inkscape:export-ydpi="96"
   xmlns:inkscape="http://www.inkscape.org/namespaces/inkscape"
   xmlns:sodipodi="http://sodipodi.sourceforge.net/DTD/sodipodi-0.dtd"
   xmlns="http://www.w3.org/2000/svg"
   xmlns:svg="http://www.w3.org/2000/svg"><sodipodi:namedview
     id="namedview1"
     pagecolor="#ffffff"
     bordercolor="#666666"
     borderopacity="1.0"
     inkscape:showpageshadow="2"
     inkscape:pageopacity="0.0"
     inkscape:pagecheckerboard="true"
     inkscape:deskcolor="#d1d1d1"
     inkscape:document-units="mm"
     inkscape:zoom="1.5518659"
     inkscape:cx="-5.1550847"
     inkscape:cy="-53.806196"
     inkscape:window-width="1868"
     inkscape:window-height="1016"
     inkscape:window-x="52"
     inkscape:window-y="27"
     inkscape:window-maximized="1"
     inkscape:current-layer="svg1" /><defs
     id="defs1" /><g
     inkscape:label="Main"
     inkscape:groupmode="layer"
     id="layer1"><g
       id="g4"
       inkscape:label="herb"
       transform="matrix(0.7463949,0.1373074,-0.15549314,0.99286466,13.564207,-2.5397203)"
       style="stroke-width:1.14526"><path
         style="fill:#668e59;fill-opacity:1;stroke-width:0.963591;stroke-linecap:round;stroke-linejoin:round"
         d="m 28.460453,34.438174 c 0.501426,-3.546267 2.009062,-7.428148 3.064121,-11.159069 -1.006704,-0.605007 -2.262588,-0.987314 -3.726292,-1.183883 -0.957586,3.83908 -0.749977,4.757225 -3.645751,12.383867"
         id="path1"
         sodipodi:nodetypes="cccc"
         inkscape:label="fill" /><path
         style="font-variation-settings:normal;opacity:1;vector-effect:none;fill:#2e4229;fill-opacity:0.09544977;stroke-width:0.963593;stroke-linecap:round;stroke-linejoin:round;stroke-miterlimit:4;stroke-dasharray:none;stroke-dashoffset:0;stroke-opacity:1;-inkscape-stroke:none;stop-color:#000000;stop-opacity:1"
         d="m 28.141258,34.524087 c 0.501426,-3.546267 0.309234,-2.978272 1.364293,-6.709193 -3.791689,2.284855 0.07789,-3.973873 -1.385809,-4.170442 -0.957586,3.83908 -0.518743,3.372607 -3.414517,10.999249"
         id="path23"
         sodipodi:nodetypes="cccc"
         inkscape:label="shadow" /><path
         style="color:#000000;fill:#53744a;stroke-width:1.14526;stroke-linecap:round;-inkscape-stroke:none;paint-order:fill markers stroke"
         d="m 27.480469,21.628906 c -0.75673,4.373714 -1.220254,8.345235 -3.624052,12.792599 0.232973,0.175304 0.508308,0.255534 0.787109,0.298828 2.783197,-7.330145 2.602939,-8.686031 3.456708,-12.203218 1.120128,0.185053 2.510661,0.435224 3.311756,0.867822 -1.041025,3.591242 -2.597325,7.544276 -3.092032,11.043027 0.108654,0.245224 0.657824,0.332946 0.556999,0.06813 0.620683,-3.909076 2.060239,-7.618728 3.140624,-11.41211 -1.190086,-0.77234 -2.593565,-1.20069 -4.537112,-1.455078 z"
         id="path2"
         sodipodi:nodetypes="ccccccccc"
         inkscape:label="outline" /></g><g
       id="g5"
       inkscape:label="herb"
       transform="matrix(-0.80009992,0.10010156,0.16105385,1.1940576,21.897982,-9.6515626)"
       style="stroke-width:1.01457"><path
         style="fill:#668e59;fill-opacity:1;stroke-width:0.853632;stroke-linecap:round;stroke-linejoin:round"
         d="m 28.460453,34.438174 c 0.501426,-3.546267 2.009062,-7.428148 3.064121,-11.159069 -1.006704,-0.605007 -2.262588,-0.987314 -3.726292,-1.183883 -0.957586,3.83908 -0.749977,4.757225 -3.645751,12.383867"
         id="path4"
         sodipodi:nodetypes="cccc"
         inkscape:label="fill" /><path
         style="font-variation-settings:normal;opacity:1;vector-effect:none;fill:#2e4229;fill-opacity:0.0910699;stroke-width:0.853635;stroke-linecap:round;stroke-linejoin:round;stroke-miterlimit:4;stroke-dasharray:none;stroke-dashoffset:0;stroke-opacity:1;-inkscape-stroke:none;stop-color:#000000;stop-opacity:1"
         d="m 28.139725,34.422111 c 0.135952,-0.558956 0.270455,-0.961101 0.358501,-1.676965 -3.219378,1.921575 -1.416131,-1.513886 -1.71958,-3.635143 -0.908063,2.583752 -2.254727,5.3817 -2.626115,5.369086"
         id="path26"
         sodipodi:nodetypes="cccc"
         inkscape:label="shadow" /><path
         style="color:#000000;fill:#53744a;stroke-width:1.01457;stroke-linecap:round;-inkscape-stroke:none;paint-order:fill markers stroke"
         d="m 27.480469,21.628906 c -0.75673,4.373714 -1.220254,8.345235 -3.624052,12.792599 0.232973,0.175304 0.508308,0.255534 0.787109,0.298828 2.783197,-7.330145 2.602939,-8.686031 3.456708,-12.203218 1.120128,0.185053 2.510661,0.435224 3.311756,0.867822 -1.041025,3.591242 -2.597325,7.544276 -3.092032,11.043027 0.108654,0.245224 0.657824,0.332946 0.556999,0.06813 0.620683,-3.909076 2.060239,-7.618728 3.140624,-11.41211 -1.190086,-0.77234 -2.593565,-1.20069 -4.537112,-1.455078 z"
         id="path5"
         sodipodi:nodetypes="ccccccccc"
         inkscape:label="outline" /></g><g
       id="g9"
       inkscape:label="herb"
       transform="matrix(1.120014,-0.29376562,0.19884667,2.5424673,-26.219072,-44.78234)"
       style="stroke-width:0.586612"><path
         style="fill:#668e59;fill-opacity:1;stroke-width:0.493562;stroke-linecap:round;stroke-linejoin:round"
         d="m 28.442934,34.453191 c 0.501426,-3.546267 2.026581,-7.443165 3.08164,-11.174086 -1.006704,-0.605007 -2.305191,-0.750585 -3.768895,-0.947154 -0.689651,3.889625 0.250606,4.381409 -3.393242,11.866926"
         id="path8"
         sodipodi:nodetypes="cccc"
         inkscape:label="fill" /><path
         style="fill:#2e4229;fill-opacity:0.17358534;stroke-width:0.493562;stroke-linecap:round;stroke-linejoin:round"
         d="m 28.442934,34.453191 0.565461,-3.11973 c -0.390037,0.547828 -0.787016,0.687002 -1.150322,0.583801 -0.13977,-0.0397 0.141216,-1.689411 0.01373,-1.791392 -0.123864,-0.09908 -0.656612,1.351044 -0.76458,1.210798 -0.363754,-0.472506 -0.625259,-1.129367 -0.703406,-1.638526 l -2.041377,4.500735"
         id="path20"
         sodipodi:nodetypes="ccssscc"
         inkscape:label="shadow" /><path
         style="color:#000000;fill:#53744a;stroke-width:0.586612;stroke-linecap:round;-inkscape-stroke:none;paint-order:fill markers stroke"
         d="m 27.413724,22.084215 c -0.338545,4.454354 -0.729699,7.674909 -3.410157,12.066396 0.220841,0.173707 0.483282,0.252239 0.749457,0.293871 3.104673,-7.263548 2.630684,-8.379537 3.301144,-11.933432 1.069276,0.178358 2.412198,0.344754 3.173512,0.772115 -1.036536,3.591833 -2.585782,7.623301 -3.098724,11.119651 0.101138,0.244235 0.625411,0.328679 0.531984,0.06484 0.638099,-3.906783 2.057168,-7.619133 3.133648,-11.413029 -1.33813,-0.616266 -2.535735,-0.719769 -4.380864,-0.970409 z"
         id="path9"
         sodipodi:nodetypes="ccccccccc"
         inkscape:label="outline" /></g><g
       id="g7"
       inkscape:label="herb"
       transform="matrix(-0.97821341,-0.13409273,0.04515712,2.0542678,33.31998,-32.474155)"
       style="stroke-width:0.706496"><path
         style="fill:#668e59;fill-opacity:1;stroke-width:0.594429;stroke-linecap:round;stroke-linejoin:round"
         d="m 28.460453,34.438174 c 0.501426,-3.546267 2.009062,-7.428148 3.064121,-11.159069 -1.006704,-0.605007 -2.262588,-0.987314 -3.726292,-1.183883 -0.957586,3.83908 -0.749977,4.757225 -3.645751,12.383867"
         id="path6"
         sodipodi:nodetypes="cccc"
         inkscape:label="fill" /><path
         style="font-variation-settings:normal;opacity:1;vector-effect:none;fill:#2e4229;fill-opacity:0.0910699;stroke-width:0.59443;stroke-linecap:round;stroke-linejoin:round;stroke-miterlimit:4;stroke-dasharray:none;stroke-dashoffset:0;stroke-opacity:1;-inkscape-stroke:none;stop-color:#000000;stop-opacity:1"
         d="m 27.312753,34.341336 c 0.113756,-0.601633 0.06683,-0.837713 0.18095,-1.490386 -0.736039,-1.483438 -0.263256,-2.984377 -0.734634,-3.765727 -0.04774,0.728474 -1.507,4.695058 -1.840803,5.30009"
         id="path27"
         sodipodi:nodetypes="cccc"
         inkscape:label="shadow" /><path
         style="color:#000000;fill:#53744a;stroke-width:0.706496;stroke-linecap:round;-inkscape-stroke:none;paint-order:fill markers stroke"
         d="m 27.51149,22.007026 c -0.75673,4.373714 -1.251275,7.967115 -3.655073,12.414479 0.232973,0.175304 0.508308,0.255534 0.787109,0.298828 2.783197,-7.330145 2.609803,-8.778095 3.463572,-12.295282 1.120128,0.185053 2.510661,0.435224 3.311756,0.867822 -1.041025,3.591242 -2.604189,7.63634 -3.098896,11.135091 0.108654,0.245224 0.657824,0.332946 0.556999,0.06813 0.620683,-3.909076 2.20252,-7.587934 3.282905,-11.381316 -1.190086,-0.77234 -2.84652,-1.019314 -4.648372,-1.107752 z"
         id="path7"
         sodipodi:nodetypes="ccccccccc"
         inkscape:label="outline" /></g><g
       id="g11"
       inkscape:label="herb"
       transform="matrix(-0.85031802,-0.47273301,-0.61740189,1.4108359,68.826284,-1.0483887)"
       style="stroke-width:0.818812"><path
         style="fill:#668e59;fill-opacity:1;stroke-width:0.68893;stroke-linecap:round;stroke-linejoin:round"
         d="m 28.460453,34.438174 c 0.501426,-3.546267 2.009062,-7.428148 3.064121,-11.159069 -1.006704,-0.605007 -2.262588,-0.987314 -3.726292,-1.183883 -0.957586,3.83908 -0.749977,4.757225 -3.645751,12.383867"
         id="path10"
         sodipodi:nodetypes="cccc"
         inkscape:label="fill" /><path
         style="font-variation-settings:normal;opacity:1;vector-effect:none;fill:#2e4229;fill-opacity:0.11310706;stroke-width:0.68893;stroke-linecap:round;stroke-linejoin:round;stroke-miterlimit:4;stroke-dasharray:none;stroke-dashoffset:0;stroke-opacity:1;-inkscape-stroke:none;stop-color:#000000;stop-opacity:1"
         d="m 28.460453,34.438174 c 0.501426,-3.546267 1.122504,-6.241309 2.177563,-9.97223 -1.122374,1.946324 -1.505247,1.858044 -2.829587,1.469535 -1.188098,3.828967 -0.158654,1.072544 -2.736356,8.713141"
         id="path22"
         sodipodi:nodetypes="cccc"
         inkscape:label="shadow" /><path
         style="color:#000000;fill:#53744a;stroke-width:0.818812;stroke-linecap:round;-inkscape-stroke:none;paint-order:fill markers stroke"
         d="m 27.518816,21.875745 c -0.75673,4.373714 -1.258601,8.098396 -3.662399,12.54576 0.232973,0.175304 0.508308,0.255534 0.787109,0.298828 2.783197,-7.330145 2.602939,-8.686031 3.456708,-12.203218 1.120128,0.185053 2.510661,0.435224 3.311756,0.867822 -1.84056,3.504703 -2.849051,7.51703 -3.092032,11.043027 0.108654,0.245224 0.657824,0.332946 0.556999,0.06813 0.591547,-3.911559 1.157571,-7.695645 3.140624,-11.41211 -1.190086,-0.77234 -2.555218,-0.953851 -4.498765,-1.208239 z"
         id="path11"
         sodipodi:nodetypes="ccccccccc"
         inkscape:label="outline" /></g><g
       id="g19"
       inkscape:label="herb"
       transform="matrix(-0.95278152,-0.1967857,-0.16719537,1.5309111,48.505822,-13.385663)"
       style="stroke-width:0.818812"><path
         style="fill:#668e59;fill-opacity:1;stroke-width:0.68893;stroke-linecap:round;stroke-linejoin:round"
         d="m 28.460453,34.438174 c 0.501426,-3.546267 1.969777,-7.599818 3.024836,-11.330739 -1.006704,-0.605007 -2.258053,-0.617616 -3.721757,-0.814185 -0.957586,3.83908 -0.413656,4.605509 -3.30943,12.232151"
         id="path18"
         sodipodi:nodetypes="cccc"
         inkscape:label="fill" /><path
         style="font-variation-settings:normal;opacity:1;vector-effect:none;fill:#2e4229;fill-opacity:0.15471385;stroke-width:0.68893;stroke-linecap:round;stroke-linejoin:round;stroke-miterlimit:4;stroke-dasharray:none;stroke-dashoffset:0;stroke-opacity:1;-inkscape-stroke:none;stop-color:#000000;stop-opacity:1"
         d="m 28.460453,34.438174 c 0.501426,-3.546267 2.170027,-7.015231 3.225086,-10.746152 -1.006704,-0.605007 -1.410625,-0.651288 -2.874329,-0.847857 -0.762057,3.909234 -0.593887,4.567926 -4.250756,11.921495"
         id="path21"
         sodipodi:nodetypes="cccc"
         inkscape:label="shadow" /><path
         style="color:#000000;fill:#53744a;stroke-width:0.818812;stroke-linecap:round;-inkscape-stroke:none;paint-order:fill markers stroke"
         d="m 27.518816,21.875745 c -0.75673,4.373714 -1.258601,8.098396 -3.662399,12.54576 0.232973,0.175304 0.508308,0.255534 0.787109,0.298828 2.783197,-7.330145 2.602939,-8.686031 3.456708,-12.203218 1.120128,0.185053 2.510661,0.435224 3.311756,0.867822 -1.84056,3.504703 -2.849051,7.51703 -3.092032,11.043027 0.108654,0.245224 0.657824,0.332946 0.556999,0.06813 0.591547,-3.911559 1.157571,-7.695645 3.140624,-11.41211 -1.190086,-0.77234 -2.555218,-0.953851 -4.498765,-1.208239 z"
         id="path19"
         sodipodi:nodetypes="ccccccccc"
         inkscape:label="outline" /></g><g
       id="g15"
       inkscape:label="herb"
       transform="matrix(-1.0165159,-0.69450773,-0.47972723,2.2835499,63.705387,-23.631071)"
       style="stroke-width:0.613781"><path
         style="fill:#668e59;fill-opacity:1;stroke-width:0.516422;stroke-linecap:round;stroke-linejoin:round"
         d="m 28.460453,34.438174 c 0.501426,-3.546267 2.009062,-7.428148 3.064121,-11.159069 -1.006704,-0.605007 -2.262588,-0.987314 -3.726292,-1.183883 -0.957586,3.83908 -0.265485,3.732282 -3.161259,11.358924"
         id="path14"
         sodipodi:nodetypes="cccc"
         inkscape:label="fill" /><path
         style="font-variation-settings:normal;opacity:1;vector-effect:none;fill:#2e4229;fill-opacity:0.0910699;stroke-width:0.516421;stroke-linecap:round;stroke-linejoin:round;stroke-miterlimit:4;stroke-dasharray:none;stroke-dashoffset:0;stroke-opacity:1;-inkscape-stroke:none;stop-color:#000000;stop-opacity:1"
         d="m 28.099395,34.365243 c 0.218955,-0.841724 0.41501,-2.055909 0.62727,-2.729367 -3.812974,-0.276378 1.044484,-8.9643 -0.41922,-9.160869 -0.957586,3.83908 -0.774648,3.352497 -3.670422,10.979139"
         id="path24"
         sodipodi:nodetypes="cccc"
         inkscape:label="shadow" /><path
         style="color:#000000;fill:#53744a;stroke-width:0.613781;stroke-linecap:round;-inkscape-stroke:none;paint-order:fill markers stroke"
         d="m 27.399395,21.902886 c -0.75673,4.373714 -0.720601,7.145415 -3.124399,11.592779 0.232973,0.175304 0.508308,0.255534 0.787109,0.298828 2.783197,-7.330145 2.013972,-7.905648 2.867741,-11.422835 1.120128,0.185053 2.677579,0.610498 3.478674,1.043096 -1.041025,3.591242 -2.593855,7.514459 -3.088562,11.01321 0.108654,0.245224 0.657824,0.332946 0.556999,0.06813 0.620683,-3.909076 2.012495,-7.387317 3.09288,-11.180699 -1.190086,-0.77234 -2.626895,-1.158121 -4.570442,-1.412509 z"
         id="path15"
         sodipodi:nodetypes="ccccccccc"
         inkscape:label="outline" /></g><g
       id="g13"
       inkscape:label="herb"
       transform="matrix(-0.85335469,-0.87057634,-0.56857021,2.6814945,65.235379,-33.211187)"
       style="stroke-width:0.599409"><path
         style="fill:#668e59;fill-opacity:1;stroke-width:0.50433;stroke-linecap:round;stroke-linejoin:round"
         d="m 28.460453,34.438174 c 0.501426,-3.546267 2.099495,-7.587167 3.154554,-11.318088 -1.006704,-0.605007 -2.443666,-1.099744 -3.90737,-1.296313 -0.106143,4.172809 0.05219,4.147017 -3.058934,11.689252"
         id="path12"
         sodipodi:nodetypes="cccc"
         inkscape:label="fill" /><path
         style="font-variation-settings:normal;opacity:1;vector-effect:none;fill:#2e4229;fill-opacity:0.0910699;stroke-width:0.50433;stroke-linecap:round;stroke-linejoin:round;stroke-miterlimit:4;stroke-dasharray:none;stroke-dashoffset:0;stroke-opacity:1;-inkscape-stroke:none;stop-color:#000000;stop-opacity:1"
         d="m 27.297264,34.137956 c 0.174765,-1.455898 0.185196,-3.141211 0.650813,-4.59265 0.306574,-0.955664 1.071721,-2.435606 0.183658,-3.055512 -0.870601,3.850278 -1.720189,5.393713 -2.646124,7.225738"
         id="path28"
         sodipodi:nodetypes="cscc"
         inkscape:label="fill" /><path
         style="color:#000000;fill:#53744a;stroke-width:0.599409;stroke-linecap:round;-inkscape-stroke:none;paint-order:fill markers stroke"
         d="m 27.485135,21.544258 c 0.181282,4.658996 -0.745017,7.627882 -3.182833,12.0649 0.232973,0.175304 0.742377,0.258784 1.021178,0.302078 2.97127,-7.272945 2.909214,-8.138456 2.805075,-11.946977 1.120128,0.185053 2.51093,0.744854 3.312025,1.177452 -1.041025,3.591242 -2.625915,7.787502 -3.120622,11.286253 0.108654,0.245224 0.657824,0.332946 0.556999,0.06813 0.620683,-3.909076 2.254834,-7.515503 3.335219,-11.308885 -1.190086,-0.77234 -2.783494,-1.388563 -4.727041,-1.642951 z"
         id="path13"
         sodipodi:nodetypes="ccccccccc"
         inkscape:label="outline" /></g><g
       id="g17"
       inkscape:label="herb"
       transform="matrix(-1.2410626,-0.81119635,-0.17592849,2.0144477,54.422987,-11.698938)"
       style="stroke-width:0.615135"><path
         style="fill:#668e59;fill-opacity:1;stroke-width:0.517561;stroke-linecap:round;stroke-linejoin:round"
         d="m 28.460453,34.438174 c 0.501426,-3.546267 2.009062,-7.428148 3.064121,-11.159069 -1.006704,-0.605007 -2.262588,-0.987314 -3.726292,-1.183883 -0.957586,3.83908 -0.06414,3.473503 -2.959909,11.100145"
         id="path16"
         sodipodi:nodetypes="cccc"
         inkscape:label="fill" /><path
         style="font-variation-settings:normal;opacity:1;vector-effect:none;fill:#2e4229;fill-opacity:0.0910699;stroke-width:0.51756;stroke-linecap:round;stroke-linejoin:round;stroke-miterlimit:4;stroke-dasharray:none;stroke-dashoffset:0;stroke-opacity:1;-inkscape-stroke:none;stop-color:#000000;stop-opacity:1"
         d="m 28.342364,34.401375 c -0.124638,-0.440879 0.13376,-1.93233 0.300097,-2.714083 -2.568352,1.07252 -0.757198,-3.177297 -0.430017,-9.025181 -0.613226,3.940237 -1.538047,8.127605 -2.676164,10.835189"
         id="path25"
         sodipodi:nodetypes="cccc"
         inkscape:label="shadow" /><path
         style="color:#000000;fill:#53744a;stroke-width:0.615135;stroke-linecap:round;-inkscape-stroke:none;paint-order:fill markers stroke"
         d="m 27.480469,21.628906 c -0.75673,4.373714 -0.53923,7.037841 -2.943028,11.485205 0.232973,0.175304 0.508308,0.255534 0.787109,0.298828 2.783197,-7.330145 1.912391,-7.650067 2.76616,-11.167254 1.120128,0.185053 2.475546,0.64209 3.276641,1.074688 -1.434936,3.405246 -2.754527,7.513535 -3.047393,11.107591 0.108654,0.245224 0.657824,0.332946 0.556999,0.06813 0.409601,-4.008656 1.703462,-7.558123 3.108373,-11.198406 -1.190086,-0.77234 -2.561314,-1.414394 -4.504861,-1.668782 z"
         id="path17"
         sodipodi:nodetypes="ccccccccc"
         inkscape:label="outline" /></g></g></svg>
