<?xml version="1.0" encoding="UTF-8" standalone="no"?>
<!-- Created with Inkscape (http://www.inkscape.org/) -->

<svg
   width="512"
   height="512"
   viewBox="0 0 135.46666 135.46667"
   version="1.1"
   id="svg1"
   xml:space="preserve"
   inkscape:version="1.3.2 (1:1.3.2+202311252150+091e20ef0f)"
   sodipodi:docname="rock_house.svg"
   inkscape:export-filename="rock_house.png"
   inkscape:export-xdpi="96"
   inkscape:export-ydpi="96"
   xmlns:inkscape="http://www.inkscape.org/namespaces/inkscape"
   xmlns:sodipodi="http://sodipodi.sourceforge.net/DTD/sodipodi-0.dtd"
   xmlns:xlink="http://www.w3.org/1999/xlink"
   xmlns="http://www.w3.org/2000/svg"
   xmlns:svg="http://www.w3.org/2000/svg"><sodipodi:namedview
     id="namedview1"
     pagecolor="#ffffff"
     bordercolor="#666666"
     borderopacity="1.0"
     inkscape:showpageshadow="2"
     inkscape:pageopacity="0.0"
     inkscape:pagecheckerboard="true"
     inkscape:deskcolor="#d1d1d1"
     inkscape:document-units="px"
     inkscape:zoom="1"
     inkscape:cx="238"
     inkscape:cy="318.5"
     inkscape:window-width="1868"
     inkscape:window-height="1016"
     inkscape:window-x="52"
     inkscape:window-y="27"
     inkscape:window-maximized="1"
     inkscape:current-layer="layer2"
     showguides="false" /><defs
     id="defs1"><linearGradient
       inkscape:collect="always"
       xlink:href="#linearGradient20"
       id="linearGradient21"
       x1="39.625641"
       y1="176.80139"
       x2="236.50328"
       y2="243.32535"
       gradientUnits="userSpaceOnUse"
       gradientTransform="matrix(0.71913848,0,0,0.65900289,-25.59013,-36.468727)" /><linearGradient
       id="linearGradient20"
       inkscape:collect="always"><stop
         style="stop-color:#6c9564;stop-opacity:1;"
         offset="0"
         id="stop20" /><stop
         style="stop-color:#60884f;stop-opacity:1;"
         offset="1"
         id="stop21" /></linearGradient><filter
       inkscape:collect="always"
       style="color-interpolation-filters:sRGB"
       id="filter33"
       x="-0.15071957"
       y="-0.27838655"
       width="1.3014391"
       height="1.5567731"><feGaussianBlur
         inkscape:collect="always"
         stdDeviation="2.0285688"
         id="feGaussianBlur33" /></filter></defs><g
     inkscape:groupmode="layer"
     id="layer11"
     inkscape:label="Paper"><rect
       style="font-variation-settings:normal;opacity:1;vector-effect:none;fill:#ffffff;fill-opacity:1;stroke:none;stroke-width:1.24254;stroke-linecap:round;stroke-linejoin:miter;stroke-miterlimit:10;stroke-dasharray:none;stroke-dashoffset:0;stroke-opacity:1;-inkscape-stroke:none"
       id="rect42"
       width="125.60754"
       height="15.702521"
       x="5.0966148"
       y="122.02509" /><path
       style="font-variation-settings:normal;opacity:1;vector-effect:none;fill:#ffffff;fill-opacity:1;stroke:none;stroke-width:1.23815;stroke-linecap:round;stroke-linejoin:miter;stroke-miterlimit:10;stroke-dasharray:none;stroke-dashoffset:0;stroke-opacity:1;-inkscape-stroke:none"
       d="m 128.95228,123.16606 6.53334,-4.91467 -0.22273,-19.667848 -7.59031,-5.664364 5.7176,-2.2909 -1.16408,-4.637148 -14.04457,-1.83906 5.59641,-15.799081 -4.62768,-1.096436 -7.18385,8.866839 -4.42312,-12.531728 6.15509,-4.875665 -0.83319,-11.520262 3.14172,-1.697136 -7.71012,-17.355248 -6.07172,12.679288 L 101.47672,31.96305 70.542019,9.0329947 39.880336,8.3487976 9.58999,65.008333 9.7081193,77.471391 2.6594932,73.07056 1.835739,78.606633 l 4.2319278,5.451835 -5.79355119,3.588771 0.366578,10.323264 4.59911939,2.082607 -5.23096614,5.29311 -0.09197422,12.38421 19.03620336,15.03642 z"
       id="path42"
       sodipodi:nodetypes="ccccccccccccccccccccccccccccccc" /></g><g
     inkscape:groupmode="layer"
     id="layer6"
     inkscape:label="Ground"
     style="display:inline"><path
       id="path10-4"
       style="display:inline;opacity:1;fill:url(#linearGradient21);fill-opacity:1;stroke:none;stroke-width:2.06525;stroke-linecap:round;stroke-miterlimit:10;stroke-dasharray:none;stroke-opacity:1"
       inkscape:label="fill"
       d="m 15.2987,84.372123 c 1.353744,1.551073 2.568658,0.354395 3.866737,1.944948 1.029629,1.261601 -3.365257,0.09505 -5.004399,0.25268 -7.0269872,0.675752 -4.8675261,3.168535 -7.9264037,4.318613 -2.6189856,0.984722 -4.5105671,0.607962 -3.3965578,2.033244 2.2128017,2.831095 8.4127545,0.654585 3.89742,4.631607 -0.6897625,0.60753 2.6622913,2.272216 5.1565975,2.666105 4.233867,0.6686 3.534399,1.32073 5.276467,2.30352 1.250677,0.70558 -10.3083461,-0.67561 -10.6216321,2.98909 -0.1776323,2.07788 6.4951341,1.31913 5.6473831,2.69243 -3.0799026,4.98925 -11.680775,1.79666 -11.34275482,7.29168 0.0875221,1.42281 9.52721582,2.71702 6.36403512,4.59345 -3.8130401,2.26193 17.4368057,-0.97869 7.6177917,2.6527 -3.452063,1.27669 -0.840371,2.88713 2.199809,2.50375 4.556699,-0.57462 4.70993,-1.07051 6.663126,-0.23948 1.280798,0.54494 -2.521747,1.20281 0.310052,0.97125 2.207135,-0.18048 9.991,-1.85145 11.823461,-0.44902 1.20911,0.92535 5.763853,-2.67898 6.676415,-1.50228 1.23676,1.59476 3.798219,2.90392 5.929526,3.0187 5.254248,0.28297 -3.320063,5.68566 7.65878,4.57312 1.277272,-0.12943 -0.07692,-1.9122 3.288831,-1.7309 8.133247,0.43812 -2.293404,1.93014 4.24527,3.12583 4.721543,0.86341 13.12517,-1.06067 16.028535,-1.00074 3.619392,0.0747 -4.034801,-4.14095 -1.841486,-4.02022 1.180175,0.065 9.741384,-0.0385 14.231223,-1.1143 2.446713,-0.58625 -3.699325,-6.53715 -1.609512,-6.35324 1.661948,0.14626 4.885891,5.12918 5.386545,5.22904 2.476894,0.49405 9.134661,1.14811 11.666281,1.26571 4.93471,0.22921 -0.0783,4.10601 4.83835,3.65682 1.54496,-0.14121 15.07943,-1.42496 15.30415,-2.83276 0.27608,-1.72946 -5.54156,-3.34137 -7.32309,-3.9683 -10.97571,-3.86241 0.71816,-3.97745 -2.24069,-5.20661 -9.46081,-3.93018 6.49288,-1.05653 11.00002,-1.59861 3.49352,-0.42017 4.54968,1.5303 4.4805,-1.69786 -0.0959,-4.47926 -7.8747,-4.07174 -10.83966,-4.82739 -6.77064,-1.72557 -7.01223,-5.40179 0.26072,-5.35204 3.04599,0.0208 1.2821,2.7634 4.57528,2.93422 3.38857,0.17577 2.32928,-0.96713 5.18496,-2.64792 0.92346,-0.54354 2.0951,-1.50824 1.85885,-2.49045 -0.73237,-3.044802 -10.59255,-1.4502 -10.17675,-4.544708 0.33338,-2.481195 0.15431,-1.128594 2.22274,-2.758587 0.77452,-0.610348 -3.49527,-1.059736 -3.88833,-1.923775 -2.26175,-4.971791 -5.75155,-1.474396 -11.932,-4.512297 -3.58825,-1.763745 10.70891,0.874266 7.46248,-3.034752 C 116.49653,84.069602 14.952643,79.545093 15.2987,84.372123 Z"
       sodipodi:nodetypes="ssssssssassssssssssssssssssssssssssssssssssss" /><path
       style="font-variation-settings:normal;opacity:1;mix-blend-mode:normal;fill:#32442f;fill-opacity:1;stroke:none;stroke-width:1.05833;stroke-linecap:butt;stroke-linejoin:miter;stroke-miterlimit:10;stroke-dasharray:none;stroke-dashoffset:0;stroke-opacity:1;filter:url(#filter33)"
       d="M 79.078034,91.223606 C 78.202729,82.047618 64.546169,80.274219 63.968696,80.170257 61.688991,79.759845 43.45318,87.038995 47.309393,97.579577 c 9.938379,0.249021 24.057924,0.05305 31.768641,-6.355971 z"
       id="path31"
       inkscape:label="door"
       sodipodi:nodetypes="cscc" /><g
       inkscape:groupmode="layer"
       id="layer9"
       inkscape:label="stones"><path
         id="path40"
         style="display:inline;fill:#728079;fill-opacity:1;stroke:none;stroke-width:0.264583px;stroke-linecap:butt;stroke-linejoin:miter;stroke-opacity:1"
         d="m 55.351282,124.46064 c -0.746092,0.0948 -1.690041,0.38076 -1.8954,1.18142 -0.0986,0.94409 0.888842,1.52351 1.680644,1.63928 0.797499,0.1166 1.622475,0.29608 2.424085,0.0873 0.883802,-0.23019 1.654529,-0.71029 2.322144,-1.31764 0.754384,-0.90373 -0.102326,-1.36575 -0.929998,-1.20194 -1.565065,0.30977 -2.281326,-0.55623 -3.601475,-0.38842 z m -10.259066,-5.13662 c -0.933203,-0.0126 -2.086817,-0.17888 -2.53552,0.63032 -0.366357,0.57527 0.393084,1.31935 0.821077,1.18297 0.73371,0.28835 1.493227,0.0767 2.231793,-0.18976 0.511936,-0.1847 1.433675,-0.99187 0.685182,-1.34486 -0.306271,-0.14444 -0.686775,-0.27169 -1.202532,-0.27867 z m 19.062774,-4.81939 c -0.852305,0.27357 -1.908988,1.3775 -0.569572,1.49419 1.009127,0.55835 1.932023,0.75568 2.879798,0.92755 1.412411,0.5051 1.974859,-1.38611 1.400396,-1.95708 -0.35397,-0.50237 -1.036693,-0.40285 -1.557941,-0.69474 -1.247863,-0.0669 -1.695491,0.0829 -2.152681,0.23008 z m -11.656688,1.92957 c -0.893455,0.0866 -2.51367,0.21241 -2.772718,1.09139 0.37019,0.81758 0.898941,1.63514 1.876139,2.00061 l 3.184928,0.72659 c 0.667106,0.15219 2.054078,0.0187 2.478561,-0.14511 1.097369,-0.42368 2.061189,-0.47665 3.062225,-1.04886 0.49123,-0.28079 0.868558,-0.73348 0.23856,-1.28185 -0.741406,-0.84877 -1.900165,-1.07485 -2.97969,-1.28072 -1.44758,-0.36387 -3.372061,-0.22847 -5.088005,-0.062 z m -8.886162,-4.88414 c -0.718811,0.27676 -1.067943,1.30359 -0.506363,2.06348 0.556159,0.75255 1.162171,1.31969 1.626258,1.40519 0.843985,0.15549 1.800051,0.3165 2.651419,0.10248 0.659144,-0.1657 1.325113,-0.46031 2.042031,-0.60825 0.581421,0.0196 1.733243,-1.47079 0.515045,-1.61343 -2.2496,-0.26341 -1.210546,-0.83859 -2.459534,-1.03367 -2.778792,-0.43402 -2.826999,-0.71694 -3.868856,-0.3158 z m 13.458375,-4.30064 c -0.91691,-0.37526 -2.062523,-0.14423 -2.969914,-0.45809 -0.602097,-0.21255 -1.352702,-0.34404 -1.970738,-0.12942 -0.869764,0.32218 -1.430137,1.1754 -1.840378,1.78733 -0.11103,0.57411 -0.190501,1.45103 0.02606,2.01769 0.50243,1.02596 1.900351,1.21684 2.85748,1.61108 0.964733,0.11726 2.427815,-0.18162 3.341119,-0.003 1.302404,0.25491 2.170532,0.73699 3.48949,0.93106 0.749377,-0.0613 2.179204,-0.12337 2.865936,-0.46582 1.199118,-0.0551 0.669653,-1.41789 0.22882,-2.27475 -0.540899,-1.18327 -1.684654,-1.74883 -2.941803,-1.85162 -1.02862,-0.38818 -1.069835,-0.50194 -3.086074,-1.1646 z m 8.351307,-6.37343 c -2.377288,-0.10087 -4.515549,0.35862 -6.826065,0.74648 -1.242275,0.27877 -1.705229,1.39306 -1.704216,2.50377 0.05499,1.37443 2.144777,0.93791 3.10797,1.34274 1.41148,0.30217 2.616819,0.86711 4.059919,0.92821 1.178122,0.3029 1.96855,0.0419 3.160786,0.21258 0.935578,0.0312 2.10868,0.70628 3.06091,0.46648 0.996366,-0.24639 1.417149,-1.03651 1.944739,-1.71294 0.415702,-0.97491 -0.717354,-1.53751 -1.161937,-2.25305 -0.788966,-0.81856 -2.453633,-0.93202 -3.463331,-1.23636 -0.882515,-0.52913 -1.160258,-1.01621 -2.178775,-0.99791 z"
         sodipodi:nodetypes="scsscsssccsssccccccsccsssccsscsscsssccccccscccccscccccccccscc"
         inkscape:label="fill" /><path
         id="path44"
         style="color:#000000;display:inline;fill:#68756f;-inkscape-stroke:none"
         inkscape:label="outline"
         d="m 58.625578,101.43467 c -0.739298,0.11327 -1.182461,0.46141 -1.499726,1.05636 -0.257661,0.52656 -0.620622,1.07256 -0.471527,1.61228 0.1515,0.54844 0.585331,1.00717 1.252151,1.16004 0.616617,0.14136 1.556071,0.18972 1.981118,0.30646 1.378742,0.37868 2.64963,0.76796 4.081012,0.96197 0.623251,0.0845 1.142932,0.15395 1.642794,0.11255 1.123599,-0.093 2.01397,0.0565 3.062354,0.38647 0.943335,0.29296 1.978323,0.55666 2.963126,-0.63625 0.331529,-0.4016 0.524173,-0.70765 0.796854,-1.06877 0.264218,-0.48276 0.08024,-1.01403 -0.252833,-1.41326 -0.341797,-0.37741 -0.648707,-0.55915 -0.929012,-0.85596 -0.741141,-0.78476 -2.368075,-0.82757 -3.382166,-1.18816 -0.886895,-0.3516 -1.382308,-1.12469 -2.524435,-1.12527 -2.739135,-0.002 -4.50392,0.41594 -6.71971,0.69154 z m 6.64901,-0.47798 c 0.894642,-0.0291 1.830739,0.87365 2.827198,1.26869 1.017926,0.40353 2.031992,0.27398 2.699517,0.97277 0.306679,0.32105 0.799233,0.66492 1.055833,0.94826 0.186721,0.20618 0.409418,0.85243 0.193514,1.15817 -0.238694,0.338 -0.471722,0.57717 -0.732545,0.89311 -0.81633,0.98884 -1.929205,0.72479 -2.462801,0.52638 -1.049204,-0.39015 -2.083043,-0.31014 -3.1282,-0.43741 -0.553142,-0.0674 -1.107341,-0.0437 -1.662752,-0.17258 -3.117154,-0.72331 -3.04465,-0.63182 -4.13877,-0.88164 -0.574587,-0.13119 -1.436349,0.0101 -2.054328,-0.30158 -0.403096,-0.20329 -0.788994,-0.45299 -0.954792,-0.96056 -0.0077,-0.47685 0.31983,-1.08258 0.53649,-1.52533 0.217704,-0.4449 0.659331,-0.68136 1.203687,-0.7639 2.179401,-0.21104 3.826969,-0.63356 6.617949,-0.72438 z m -13.144383,5.64983 c -0.93978,0.19653 -1.338772,0.41964 -1.919924,1.74192 -0.28,0.63708 -0.36958,1.56407 -0.145388,2.20735 0.193764,0.55598 0.885199,0.93616 1.353968,1.13466 0.588869,0.24937 1.080361,0.46925 1.692489,0.62113 0.61425,0.15241 1.263469,-0.007 1.892261,-0.0507 0.598612,-0.0376 1.188635,-0.11372 1.597226,-0.0338 1.323927,0.25912 2.031628,0.85231 3.441726,0.98865 0.406865,0.0393 0.790711,-0.1621 1.380561,-0.23457 0.512183,-0.0629 1.087238,-0.1476 1.511382,-0.18201 0.718558,-0.0583 0.925905,-0.45399 0.901287,-1.11451 -0.04292,-0.51927 -0.296332,-1.07886 -0.521415,-1.51722 -0.293715,-0.64254 -0.672054,-1.08619 -1.219681,-1.38118 -0.547625,-0.29499 -1.338299,-0.39102 -1.955222,-0.54301 -1.031776,-0.25418 -1.931998,-0.60799 -2.98667,-0.99436 -1.017003,-0.37256 -2.079593,-0.29024 -2.927594,-0.47266 -0.69507,-0.14952 -0.927645,-0.41379 -2.095006,-0.16968 z m 1.891271,0.40917 c 1.010016,0.29732 2.224864,0.10868 3.068398,0.4177 1.013422,0.37125 2.158784,0.92303 3.26666,1.19596 0.607799,0.14974 1.012971,0.31425 1.494843,0.57381 0.481858,0.25955 0.782324,0.62147 1.029507,1.1622 l 0.0036,0.004 0.0021,0.006 c 0.214664,0.41725 0.442944,0.96104 0.474906,1.34772 0.03904,0.47233 -0.163566,0.55916 -0.380844,0.72386 -0.390273,0.29584 -0.304,0.16815 -1.436665,0.30736 -0.511598,0.0629 -1.381601,0.1433 -1.759356,0.10679 -1.277475,-0.12347 -1.89119,-0.75776 -3.224268,-1.01867 -0.504709,-0.0987 -1.041958,0.0601 -1.644392,0.098 -0.596001,0.0374 -1.115131,0.12221 -1.659558,0.0238 -0.534944,-0.0967 -1.02568,-0.38355 -1.519343,-0.59259 -0.504537,-0.21365 -1.053714,-0.62799 -1.270313,-1.06274 -0.185631,-0.49959 -0.281937,-1.48629 -0.093,-1.91618 0.270024,-0.6144 0.995638,-1.42054 1.813406,-1.60962 0.972755,-0.22493 1.356336,0.0919 1.834323,0.2326 z M 43.59383,111.4959 c -0.892722,0.30033 -1.33025,1.37967 -0.679686,2.25995 0.571298,0.77303 1.162801,1.38323 1.775085,1.49603 0.846688,0.15599 1.832658,0.33098 2.752287,0.0997 0.687084,-0.17272 1.390511,-0.39416 2.041268,-0.70086 0.316228,-0.14904 0.766897,-0.22264 0.894031,-0.5483 0.181468,-0.46482 0.175412,-1.37187 -0.408321,-1.44021 -0.550354,-0.0644 -1.113857,-0.15782 -1.322642,-0.24013 -0.589839,-0.23252 -0.48057,-0.48704 -1.496586,-0.65971 -1.378785,-0.23432 -1.728321,-0.48944 -2.2456,-0.51425 -0.431784,-0.0207 -0.648236,0.0252 -1.309836,0.24778 z m 1.321633,0.0644 c 0.860701,0.0403 1.130628,0.32319 2.527603,0.54138 0.655899,0.0483 0.552173,0.42803 1.266249,0.70956 0.268127,0.10571 0.62862,0.25649 1.202851,0.32552 0.367788,0.0442 0.276321,0.33204 0.236157,0.51728 -0.06688,0.30846 -0.436321,0.47237 -0.714685,0.62115 -0.642138,0.34322 -1.550712,0.43473 -2.10737,0.57467 -0.7831,0.19685 -1.9685,0.1188 -2.80977,-0.0361 -0.31589,-0.0582 -1.32052,-0.90678 -1.451148,-1.61984 -0.09546,-0.52109 0.01335,-1.2677 0.571976,-1.48279 0.497382,-0.19149 0.849606,-0.17085 1.278137,-0.15079 z m 19.348708,2.81268 c -0.50142,0.10422 -1.166385,0.40806 -1.418427,0.81073 -0.213458,0.34103 -0.255529,0.88667 0.73852,1.06889 1.320447,0.24206 1.909012,0.66404 2.806485,0.89791 0.792554,0.20653 1.366883,-0.0537 1.689612,-0.68647 0.264781,-0.51912 0.217148,-1.16052 -0.149743,-1.58498 -0.244442,-0.28281 -0.426551,-0.34462 -0.716157,-0.42155 -0.672114,-0.14245 -0.751004,-0.41804 -0.893989,-0.42045 -0.700326,-0.0118 -1.307766,0.18034 -2.056301,0.33592 z m 2.074708,-0.0185 c 0.301285,0.0684 0.512864,0.35616 0.748987,0.41889 0.263778,0.0701 0.697085,0.16306 0.842837,0.3381 0.189716,0.22785 0.123836,0.64283 -0.09835,1.07847 -0.130665,0.25617 -0.504148,0.65975 -1.227674,0.57131 -1.296225,-0.15844 -1.578652,-0.53153 -2.977766,-0.79679 -0.29254,-0.0555 -0.627935,-0.24173 -0.48912,-0.53278 0.125373,-0.26286 0.766846,-0.75781 1.139387,-0.84669 0.752465,-0.17952 1.508857,-0.35611 2.061704,-0.23051 z m -11.272636,1.68363 c -0.752384,-0.11238 -1.718085,0.0419 -2.607458,0.16105 -0.426997,0.0572 -1.062918,0.12322 -1.642277,0.27543 -0.439914,0.11558 -1.032585,0.37056 -1.10688,0.82461 -0.156247,0.9549 0.125891,2.01822 1.653702,2.38568 1.722122,0.41419 3.971299,1.05909 5.724627,0.526 1.034135,-0.39927 2.314925,-0.60855 3.395432,-1.22618 0.837548,-0.47875 0.566934,-0.69301 0.0064,-1.26996 -0.845495,-0.87018 -1.885138,-0.93726 -2.889332,-1.235 -0.822082,-0.24374 -1.412169,-0.27403 -2.534169,-0.44163 z m -0.0179,0.30626 c 0.826871,0.0965 1.628795,0.1672 2.471167,0.38034 1.047293,0.26498 1.994866,0.38633 2.80384,1.12977 0.454472,0.39039 0.342232,0.7226 -0.114084,0.99708 -0.909614,0.54715 -1.967623,0.41974 -3.089622,0.95722 -1.273597,0.6101 -3.554889,0.0159 -5.324851,-0.36708 -0.877662,-0.1899 -1.886512,-1.04465 -1.789038,-1.91202 0.05116,-0.45521 0.770552,-0.66043 1.138211,-0.77003 0.5252,-0.13184 0.963929,-0.14058 1.495588,-0.23807 0.796415,-0.1937 1.595903,-0.26031 2.408789,-0.17721 z m -11.531397,2.92791 c -0.469,-0.0663 -0.787536,0.12357 -1.046361,0.6068 -0.155923,0.29111 -0.12082,0.67371 0.117111,1.02292 0.200587,0.2944 0.510679,0.38706 0.811967,0.42648 0.812192,0.10625 1.526509,0.1289 2.297775,-0.1493 0.302891,-0.10925 0.636816,-0.37775 0.878554,-0.67106 0.420545,-0.51025 0.116571,-0.88781 -0.216524,-1.0449 -0.345734,-0.16305 -0.819189,-0.30572 -1.365292,-0.27957 -0.496676,0.0491 -0.976037,0.15952 -1.47723,0.0886 z m 1.600655,0.15279 c 0.481627,-0.0561 0.753967,0.0781 1.014257,0.21691 0.193872,0.10339 0.268032,0.39942 0.169743,0.57989 -0.154179,0.18707 -0.330408,0.45439 -0.57486,0.567 -0.768702,0.35413 -1.778757,0.3136 -2.529909,0.2153 -0.144118,-0.0189 -0.274417,-0.12833 -0.402877,-0.34402 -0.109244,-0.18343 -0.233278,-0.54081 -0.156688,-0.74108 0.137414,-0.3593 0.47872,-0.41952 0.845276,-0.4883 0.377059,-0.007 1.438796,0.0171 1.635058,-0.006 z m 10.16049,4.87965 c -0.375095,0.0154 -0.896441,-0.014 -1.186311,0.26964 -0.520132,0.50887 -1.413318,1.27625 -0.530316,2.11757 0.421738,0.40183 1.101924,0.76186 1.540074,0.82592 0.786144,0.11494 1.647362,0.30876 2.519742,0.0817 0.929272,-0.24203 1.680115,-0.65655 2.360642,-1.29232 0.331896,-0.31007 0.596659,-0.90547 0.05694,-1.40812 -0.311809,-0.29039 -0.661897,-0.37723 -1.13291,-0.28401 -0.734281,0.14534 -1.048684,0.0174 -1.570799,-0.0228 -0.690323,-0.053 -1.496624,-0.31059 -2.057065,-0.28761 z m 0.247335,0.26654 c 0.424884,-0.0829 1.9977,0.63022 3.184978,0.39521 0.356659,-0.0706 0.90192,0.017 1.020403,0.15814 0.189189,0.22544 0.208646,0.6111 0.05148,0.82921 -0.642983,0.58188 -1.575907,1.12457 -2.408194,1.34134 -0.730836,0.19035 -1.551406,-0.0301 -2.360253,-0.14834 -0.35365,-0.0517 -0.986207,-0.31883 -1.140314,-0.74613 -0.186868,-0.51814 0.08081,-1.20696 0.486941,-1.57905 0.292859,-0.26831 0.779903,-0.20486 1.164962,-0.25038 z"
         sodipodi:nodetypes="csassssssssssscsssssssassasscssssssscssscsssssssscsccssacsccacsssscsssssaassssscsssaassasacsssscssssscssssssssssascssasssssssassssssssssssssssasssssssssascssssasssssssaasss" /></g><g
       inkscape:groupmode="layer"
       id="layer10"
       inkscape:label="herbs"><path
         style="display:inline;font-variation-settings:normal;opacity:1;vector-effect:none;fill:#678f5b;fill-opacity:1;stroke:none;stroke-width:1.23815;stroke-linecap:round;stroke-linejoin:miter;stroke-miterlimit:10;stroke-dasharray:none;stroke-dashoffset:0;stroke-opacity:1;-inkscape-stroke:none;stop-color:#000000;stop-opacity:1"
         d="m 116.05731,94.327701 c 2.63039,-2.137288 4.26449,-4.336774 9.18462,-6.331114 -2.91322,-0.924601 -6.68821,1.333705 -10.15646,2.459082 l 1.5279,-13.790452 c 0,0 -3.86242,9.574751 -4.14724,9.158345 -0.28481,-0.416404 -2.68531,-8.130964 -2.68531,-8.130964 l 0.3408,7.632438 z"
         id="path45"
         sodipodi:nodetypes="ccccsccc"
         inkscape:label="fill1" /><path
         style="color:#000000;font-variation-settings:normal;display:inline;vector-effect:none;fill:#53744a;fill-opacity:1;stroke-width:1.56636;stroke-linecap:round;stroke-linejoin:miter;stroke-miterlimit:10;stroke-dasharray:none;stroke-dashoffset:0;stroke-opacity:1;-inkscape-stroke:none;stop-color:#000000"
         d="m 107.70431,71.799806 c 1.21855,4.995732 1.88835,9.981246 2.48485,15.202123 0.64502,-2.186258 0.20097,-5.960738 0.008,-6.996964 1.08492,2.855973 1.54403,7.187234 2.10623,9.544115 0.0769,-4.369073 2.50205,-7.236948 3.50133,-10.242283 -0.1199,4.852131 -0.66007,6.73953 -1.7734,15.705527 1.00658,-3.167334 5.95477,-6.673902 9.85851,-6.809633 -7.38756,2.932772 -8.0336,7.152237 -8.46344,10.154037 1.99586,-2.354837 0.75311,-7.010158 11.55942,-9.103451 l 3.71245,-0.720705 -3.5532,-1.138718 c -6.88609,-2.214405 -10.20292,2.178961 -11.64363,4.110324 0.33771,-7.630709 2.32307,-14.677709 4.98402,-21.561039 -4.05413,3.476176 -6.28806,8.877536 -7.92391,14.651188 -0.8266,-4.797566 -2.81367,-8.835559 -4.85725,-12.794521 z"
         id="path22-9"
         sodipodi:nodetypes="ccccccccccccccc"
         inkscape:label="outline1" /><path
         d="m 18.219568,87.402019 c -0.717471,-0.96425 0.741115,-5.478178 1.87191,-9.931488 -2.49244,1.13141 -3.504634,7.911307 -3.357029,7.922297 -0.904718,-3.950568 -1.457224,-3.822642 -1.947838,-9.991922 -0.595134,3.45502 -0.760819,5.052185 -0.611963,10.861325 -3.296247,-3.81279 -1.787151,-2.565853 -6.536896,-5.869103 3.219445,3.63653 3.152247,3.26654 5.508677,7.20929 -0.988478,-0.47703 -1.510891,-0.835776 -3.5724153,-0.496956 1.7872653,0.84435 2.8300963,1.699429 3.6618083,2.943399 3.317033,-0.0227 3.445355,-0.536232 4.983746,-2.646842 z"
         style="font-variation-settings:normal;display:inline;fill:#678f5b;fill-opacity:1;stroke:none;stroke-width:1.23815;stroke-linecap:round;stroke-linejoin:miter;stroke-miterlimit:10;stroke-dasharray:none;stroke-dashoffset:0;stroke-opacity:1"
         id="path1-6"
         sodipodi:nodetypes="cccccccccc"
         inkscape:label="fill2" /><path
         d="m 18.365301,86.593055 c -0.690167,-0.960991 -0.644383,-3.612832 1.11267,-7.448624 -1.306183,1.27439 -2.274226,6.200609 -2.696277,7.879354 -0.255494,-0.511322 -0.860581,-1.758838 -1.675665,-6.365352 -0.123764,3.174971 0.03189,5.366539 -0.176614,7.694481 -0.565517,-0.70168 -1.953457,-3.670345 -4.74705,-5.900701 1.536122,1.839863 2.276237,2.257494 4.270936,6.2287 -0.988478,-0.47703 -1.5247,-0.665446 -3.141336,-1.091128 1.787265,0.84435 1.386976,1.262552 1.923857,2.459076 3.190665,-0.924177 3.51042,-1.920664 5.129479,-3.455806 z"
         style="font-variation-settings:normal;display:inline;fill:#45603c;fill-opacity:0.12162467;stroke:none;stroke-width:1.23815;stroke-linecap:round;stroke-linejoin:miter;stroke-miterlimit:10;stroke-dasharray:none;stroke-dashoffset:0;stroke-opacity:1"
         id="path2"
         sodipodi:nodetypes="cccccccccc"
         inkscape:label="shadow2" /><path
         d="m 14.637763,71.361932 c -1.052436,4.52 -0.864147,9.596136 -0.741207,14.203959 -2.939884,-3.85561 -6.8649834,-7.148855 -10.7966344,-9.882168 3.2253883,3.496118 6.7312088,7.473096 8.9731014,11.447312 -1.280406,-0.40935 -2.1762415,-0.295271 -3.1711375,-0.131834 1.5613215,0.594116 3.1265945,1.730036 4.0668195,3.120206 -0.17828,-0.817554 -0.210825,-2.023971 -2.072101,-2.63082 1.669401,0.118682 1.680503,0.09711 4.453344,1.37077 l -1.752109,-1.35873 c -0.898087,-1.790805 -2.909249,-4.055379 -4.5849887,-6.043764 2.4014107,1.392954 3.8179347,3.448382 4.9448767,5.167709 l 0.824723,1.555823 c -0.265087,-2.891599 -0.615203,-6.266169 -0.03794,-9.003976 0.958543,3.131388 1.458032,5.836671 2.073565,8.938162 0.14884,-0.848507 0.310992,-1.6768 0.170567,-2.89473 0.445624,-1.863236 0.561335,-3.531232 1.132352,-5.459499 0.964838,-3.151492 1.913279,-4.219748 2.391959,-5.083957 -0.535088,1.888772 -1.345955,3.937189 -1.821826,6.489211 -1.013911,3.050133 -0.743084,4.33848 0.1657,7.106149 -0.105797,-3.218753 0.06691,-4.501455 0.57957,-7.050854 0.91374,-4.543923 1.868285,-6.866572 2.600034,-8.89227 -1.647895,1.518386 -3.525004,3.646737 -4.377593,6.951293 -0.473126,1.545394 -0.872879,3.06539 -1.154231,4.219064 -1.20352,-3.951054 -1.541355,-8.046443 -1.866826,-12.137056 z"
         style="color:#000000;fill:#53744a;fill-opacity:1;stroke-width:0.864054;stroke-linecap:round;stroke-miterlimit:10;-inkscape-stroke:none"
         id="path1"
         sodipodi:nodetypes="cccccccccccccccccccsccccc"
         inkscape:label="outline2" /><path
         style="font-variation-settings:normal;display:inline;opacity:1;vector-effect:none;fill:#45603c;fill-opacity:0.233095;stroke:none;stroke-width:1.23815;stroke-linecap:round;stroke-linejoin:miter;stroke-miterlimit:10;stroke-dasharray:none;stroke-dashoffset:0;stroke-opacity:1;-inkscape-stroke:none;stop-color:#000000;stop-opacity:1"
         d="m 115.79243,93.287092 c 2.98155,-1.557546 2.39599,-2.585656 7.12689,-4.718018 -1.51223,0.116356 -3.96073,1.821252 -7.42898,2.946629 -1.28118,-3.95676 -0.0144,-6.65599 0.001,-9.972851 0,0 -1.80922,6.614642 -3.36884,4.902198 -0.3397,-0.372981 -1.62263,-5.304935 -1.62263,-5.304935 l 0.55779,4.830104 z"
         id="path3"
         sodipodi:nodetypes="ccccsccc"
         inkscape:label="fill1" /></g><g
       inkscape:groupmode="layer"
       id="layer2"
       inkscape:label="small herbs"><path
         style="display:inline;fill:#5e8252;fill-opacity:1;stroke:none;stroke-width:0.433086;stroke-linecap:round;stroke-miterlimit:10;stroke-dasharray:none;stroke-opacity:1"
         d="m 19.771755,114.46378 c 1.136543,-0.91926 1.463403,-2.0424 1.491689,-3.22697 1.0344,1.43084 2.788287,2.29833 4.493499,2.99272 -1.33417,-0.39453 -2.690647,-0.57298 -4.002496,-1.18365 -0.440513,0.81818 -1.196612,1.14155 -1.982692,1.4179 z"
         id="path117"
         sodipodi:nodetypes="ccccc" /><path
         style="display:inline;fill:#5e8252;fill-opacity:1;stroke:none;stroke-width:0.448047;stroke-linecap:round;stroke-miterlimit:10;stroke-dasharray:none;stroke-opacity:1"
         d="m 13.280672,116.49071 c 1.175814,-0.95102 1.820842,-1.64402 1.850113,-2.86952 1.070137,1.48026 2.577701,1.90882 4.341815,2.62718 -1.380256,-0.40816 -2.783593,-0.59278 -4.140732,-1.22454 -0.455725,0.84645 -1.237959,1.18098 -2.051196,1.46688 z"
         id="path120"
         sodipodi:nodetypes="ccccc" /><path
         style="display:inline;fill:#577a4e;fill-opacity:1;stroke:none;stroke-width:0.389583;stroke-linecap:round;stroke-miterlimit:10;stroke-dasharray:none;stroke-opacity:1"
         d="m 38.195626,107.77623 c 0.853236,-0.69012 1.455574,-1.36679 1.476784,-2.25607 0.776561,1.07416 1.736317,1.55894 3.016452,2.08022 -1.001592,-0.29616 -1.638325,-0.43014 -2.623153,-0.88859 -0.33072,0.61424 -1.279947,0.85698 -1.870083,1.06444 z"
         id="path123"
         sodipodi:nodetypes="ccccc" /><path
         style="display:inline;fill:#577a4e;fill-opacity:1;stroke:none;stroke-width:0.579203;stroke-linecap:round;stroke-miterlimit:10;stroke-dasharray:none;stroke-opacity:1"
         d="m 77.987845,119.52235 c 1.519978,-1.2294 2.353852,-2.12526 2.391686,-3.70949 1.383391,1.91356 3.332268,2.46758 5.61279,3.39622 -1.784295,-0.52763 -3.598433,-0.76631 -5.352848,-1.58298 -0.589141,1.09421 -1.60035,1.52668 -2.651628,1.89625 z"
         id="path124"
         sodipodi:nodetypes="ccccc" /><path
         style="display:inline;fill:#57794d;fill-opacity:1;stroke:none;stroke-width:0.473426;stroke-linecap:round;stroke-miterlimit:10;stroke-dasharray:none;stroke-opacity:1"
         d="m 105.17704,125.29084 c 1.24243,-1.00488 1.59974,-2.23262 1.63065,-3.52752 1.13074,1.5641 3.04799,2.51241 4.91204,3.27144 -1.45844,-0.43125 -2.94126,-0.62634 -4.37532,-1.29389 -0.48153,0.8944 -1.30806,1.24788 -2.16737,1.54997 z"
         id="path125"
         sodipodi:nodetypes="ccccc" /><path
         style="display:inline;fill:#56764b;fill-opacity:1;stroke:none;stroke-width:0.414286;stroke-linecap:round;stroke-miterlimit:10;stroke-dasharray:none;stroke-opacity:1"
         d="m 99.621846,123.74056 c 1.072464,-0.87658 1.390544,-1.82045 1.798324,-3.02558 0.9895,1.36873 2.29582,2.13728 3.92702,2.8015 -1.27625,-0.37738 -2.57611,-0.44362 -3.4247,-1.63231 -0.65562,0.57062 -1.60861,1.53781 -2.300644,1.85639 z"
         id="path126"
         sodipodi:nodetypes="ccccc" /><path
         style="display:inline;fill:#56764b;fill-opacity:1;stroke:none;stroke-width:0.489779;stroke-linecap:round;stroke-miterlimit:10;stroke-dasharray:none;stroke-opacity:1"
         d="m 85.871528,126.17557 c 1.285317,-1.03958 1.990443,-1.79714 2.02244,-3.13676 1.169801,1.61812 2.817778,2.08661 4.746205,2.87186 -1.508805,-0.44617 -3.042856,-0.64799 -4.526403,-1.33857 -0.498181,0.92528 -1.353265,1.29097 -2.242242,1.60347 z"
         id="path127"
         sodipodi:nodetypes="ccccc" /></g></g><g
     inkscape:groupmode="layer"
     id="layer5"
     inkscape:label="Chinmey"><path
       id="path25"
       style="font-variation-settings:normal;opacity:1;fill:#657383;fill-opacity:1;stroke:none;stroke-width:1.05833;stroke-linecap:butt;stroke-linejoin:miter;stroke-miterlimit:10;stroke-dasharray:none;stroke-dashoffset:0;stroke-opacity:1"
       d="m 108.03268,34.159155 c -0.62004,3.343583 -1.42899,6.687329 -3.37912,10.030912 0.90008,0.434804 0.76191,0.671638 1.20649,0.810803 l 1.16354,1.478621 0.34763,6.893478 c -1.7028,3.159735 -5.33375,4.914156 -7.10964,7.818644 l 2.67684,2.059823 c 2.60207,-2.772277 5.33843,-5.51493 7.11998,-8.468217 l -0.54434,-8.200235 c 0.3156,-0.590337 0.80963,-1.065511 0.76085,-1.891023 0.75708,-0.261089 0.64175,-0.558206 1.60508,-1.006256 -1.60395,-3.114282 -3.30669,-6.210065 -3.84731,-9.52655 z"
       sodipodi:nodetypes="cccccccccccc"
       inkscape:label="fill" /><path
       id="path27"
       style="font-variation-settings:normal;opacity:1;fill:#363e45;fill-opacity:0.233175;stroke:none;stroke-width:1.05833;stroke-linecap:butt;stroke-linejoin:miter;stroke-miterlimit:10;stroke-dasharray:none;stroke-dashoffset:0;stroke-opacity:1"
       inkscape:label="shadow"
       d="m 108.20178,36.582518 c 0.42551,4.219776 0.86105,5.172426 -1.07205,7.969368 1.99574,-0.01676 2.85837,-0.681574 3.89664,-1.167334 -1.60395,-3.114279 -1.60778,-3.541942 -2.82459,-6.802034 z m -1.88212,8.419471 c 0.49189,0.681945 1.26883,1.718676 1.9761,2.102535 0.35846,2.033156 0.24863,4.359621 0.29197,6.444792 4.3e-4,0.02106 -0.33288,0.05282 -0.33241,0.07383 0.002,0.07029 0.33709,0.129581 0.33905,0.199288 -1.48561,3.287094 -6.55052,6.152134 -7.89974,7.802222 l 1.27744,1.39578 c 2.60207,-2.772274 5.98322,-5.267813 7.45587,-8.458398 0.19871,-2.572427 0.17108,-5.285345 -0.26882,-7.888656 -0.0866,-0.512483 1.10004,-1.260486 0.98722,-1.748425 -0.72119,0.0097 -1.54827,0.03225 -2.25098,0.04941 -0.0553,0.0014 -0.0416,1.617684 -0.0969,1.619001 -0.0403,9.61e-4 -0.10385,-1.595981 -0.14422,-1.595045 -0.46712,0.01084 -0.85586,-2.78e-4 -1.33457,0.0037 z"
       sodipodi:nodetypes="ccccccssccccscssscc" /><path
       id="path41"
       style="font-variation-settings:normal;opacity:1;fill:#798495;fill-opacity:1;stroke:none;stroke-width:1.05833;stroke-linecap:butt;stroke-linejoin:miter;stroke-miterlimit:10;stroke-dasharray:none;stroke-dashoffset:0;stroke-opacity:1"
       inkscape:label="light"
       d="m 108.01405,33.659337 c -0.62004,3.34358 -1.41036,7.18715 -3.36049,10.53073 1.09277,0.901937 2.66075,0.81239 3.71164,0.91814 -2.50829,-0.712987 -2.60257,-0.963508 -2.51522,-1.11244 1.60442,-2.73563 2.67678,-7.19118 2.16407,-10.33643 z m -0.82288,12.668241 0.18005,7.045391 c -1.7028,3.159732 -5.33375,4.914159 -7.10964,7.818644 l 0.44081,0.162972 c 2.33707,-2.872885 5.44203,-4.240886 7.39775,-7.408665 0.0309,-0.05009 0.42356,-0.0071 0.4539,-0.05806 -0.007,-0.05109 -0.37641,-0.196548 -0.38321,-0.249156 -0.30017,-2.322955 -0.0753,-6.079797 -0.97966,-7.311126 z"
       sodipodi:nodetypes="cccscccccscsc" /><path
       id="path28"
       style="font-variation-settings:normal;opacity:1;fill:#404040;fill-opacity:1;stroke:none;stroke-width:1.05833;stroke-linecap:butt;stroke-linejoin:miter;stroke-miterlimit:10;stroke-dasharray:none;stroke-dashoffset:0;stroke-opacity:1"
       d="m 110.02792,44.980007 -0.77786,0.05306 -0.19405,1.355394 c 0.3709,-0.461974 0.78156,-0.917583 0.97191,-1.408456 z m -2.28993,0.109483 -1.2302,0.0085 1.06462,1.313787 0.23803,0.05249 z m 1.15248,-0.08053 -0.87886,0.0781 0.12784,1.406484 c 0.19494,0.02645 0.39013,0.05768 0.57903,-0.0362 z"
       inkscape:label="holes"
       sodipodi:nodetypes="ccccccccccccccc" /><path
       style="color:#000000;fill:#515d6a;stroke-miterlimit:10;-inkscape-stroke:none"
       d="m 107.61677,46.469312 -1.26949,-1.195996 c 0.47052,0.03117 3.27326,-0.02063 3.71629,-0.213621 0.13018,0.427286 -0.91622,1.256169 -0.8255,1.695366 0.5098,2.468103 0.43995,5.115979 0.27746,7.850404 -1.10079,2.666121 -4.50339,5.523842 -6.98243,8.304687 l 0.81055,0.681641 c 2.78019,-2.682256 5.01019,-5.661309 7.25781,-8.63086 -0.0505,-2.794761 -0.18612,-5.512298 -0.60779,-8.258765 -0.079,-0.514607 0.65245,-1.333668 0.55204,-1.851005 0.90476,-0.32741 1.18564,-0.512197 2.05771,-0.917573 -2.72284,-3.420926 -3.80918,-8.188197 -4.53711,-12.857418 h 1e-4 c -0.70278,4.299161 -1.68833,9.119737 -4.15821,13.341797 0.80561,0.417226 0.92367,0.553094 1.80321,0.775746 0.0698,0.499985 1.08619,1.210656 1.12752,1.713303 0.1681,2.044615 0.11803,4.117786 -0.007,6.272669 -1.57509,3.661467 -4.92467,4.960937 -6.962889,7.65625 l 0.783199,0.710938 c 0.67152,-2.38789 5.54727,-5.336077 7.12771,-7.779995 0.0344,-0.05313 1.14375,0.07386 1.47221,0.565526 -0.068,-0.527211 -1.18043,-0.838571 -1.36611,-0.810244 z m 0.47907,-10.706773 c 0.72613,2.516002 1.87931,5.273734 3.09486,7.62059 -1.98066,1.190289 -4.02095,1.940635 -6.26863,0.665925 1.41778,-2.596162 2.61888,-5.720351 3.17377,-8.286515 z"
       id="path26"
       sodipodi:nodetypes="cccsccccsccccccscccsccccccc"
       inkscape:label="outline" /></g><g
     inkscape:groupmode="layer"
     id="layer4"
     inkscape:label="Rocks"><g
       inkscape:groupmode="layer"
       id="layer8"
       inkscape:label="fills"><path
         style="font-variation-settings:normal;display:inline;opacity:1;vector-effect:none;fill:#777866;fill-opacity:1;stroke:none;stroke-width:2.11667;stroke-linecap:butt;stroke-linejoin:miter;stroke-miterlimit:10;stroke-dasharray:none;stroke-dashoffset:0;stroke-opacity:1;-inkscape-stroke:none"
         d="m 13.570666,92.897144 -0.659402,-2.763959 c 0,0 5.849782,-7.170169 10.467255,-7.284697 5.575483,-0.13829 13.872352,9.354363 13.872352,9.354363 -3.89724,0.618981 -7.316321,0.961011 -10.406386,1.112474 -0.999198,-0.163681 -2.237727,-0.136719 -2.992621,-0.859702 -0.574716,0.353399 -0.784651,0.666968 -0.960008,0.980771 -0.711367,-0.06892 -1.251641,-0.146731 -1.716353,-0.90763 -0.101224,0.273644 -0.774051,0.547287 -1.388262,0.820931 -0.861149,-0.37284 -2.014678,-0.464107 -2.330877,-1.361757 -0.5813,0.225697 -0.970451,0.692233 -1.278316,1.260651 -0.450199,-0.134879 -0.865281,-0.283703 -0.876973,-0.592696 -0.385532,0.489942 -1.043207,0.397205 -1.730409,0.241251 z"
         id="path21"
         sodipodi:nodetypes="ccscccccccccc"
         inkscape:label="tiny" /><path
         style="display:inline;fill:#777866;fill-opacity:1;stroke:none;stroke-width:2.11667;stroke-linecap:butt;stroke-miterlimit:10;stroke-dasharray:none;stroke-opacity:1"
         d="M 91.042026,92.550003 C 92.359574,90.870105 107.04732,72.95226 106.2636,67.497824 c -0.27517,-1.915087 -7.2608,-6.242982 -7.2608,-7.398991 0,-1.15601 -1.093096,-24.689479 -1.093096,-24.689479 l -3.187888,-2.613851 -2.697257,1.085358 0.779843,-3.431429 C 93.532969,30.535447 70.52083,12.799392 68.972347,12.307747 66.82223,11.625083 43.973625,11.318431 41.74215,12.061461 l -27.890672,52.856491 -0.273677,8.610697 14.897504,20.70758 18.860269,2.176426 c 0,0 9.24459,-9.443782 15.332668,-10.144456 7.015527,-0.807414 19.862072,7.370479 19.862072,7.370479 z"
         id="path12"
         inkscape:label="big"
         sodipodi:nodetypes="cssccccscccccscc" /><path
         style="font-variation-settings:normal;display:inline;opacity:1;vector-effect:none;fill:#777866;fill-opacity:1;stroke:none;stroke-width:2.11667;stroke-linecap:butt;stroke-linejoin:miter;stroke-miterlimit:10;stroke-dasharray:none;stroke-dashoffset:0;stroke-opacity:1;-inkscape-stroke:none;stop-color:#000000;stop-opacity:1"
         d="m 112.86547,106.66208 c 0.48986,0.19982 5.13232,-13.402916 4.60815,-17.070499 -0.0883,-0.617743 -13.48385,-10.556262 -13.48385,-10.556262 l -13.79013,-4.78604 -3.899998,6.830989 -4.447807,0.745757 c -3.607361,4.655079 -6.911287,9.332715 -9.812734,14.04027 l 8.587036,10.944845 c 0.770811,0.15699 1.541622,0.63507 2.312433,-0.0932 0.349841,0.53699 1.090784,0.9151 1.887207,1.27067 1.165662,-0.7767 1.782503,-1.74147 2.049645,-2.82607 0.311343,1.47104 1.206912,2.55727 2.098857,3.64589 0.822146,0.12331 1.588649,0.17467 2.14047,-0.0516 0.35619,0.63133 1.499665,0.38809 2.023032,0.33027 1.014481,0.28068 1.315146,0.2007 1.96626,0.29779 1.283874,-0.55404 2.838179,-1.03441 3.26416,-1.82219 0.486604,0.46624 0.662025,1.10377 0.762283,1.78266 0.170985,-1.32665 0.227203,-2.65329 1.260426,-3.97994 0.21669,1.40155 1.13076,2.71776 2.71951,3.61061 1.04013,-0.73312 1.60133,-1.58222 1.68146,-2.54783 0.48047,1.15011 1.24782,1.73709 2.25329,1.85665 1.89112,-0.0987 2.68507,-0.94035 3.7685,-2.34753 1.12412,1.28716 1.55327,0.92353 2.0518,0.7247 z"
         id="path15"
         inkscape:label="medium"
         sodipodi:nodetypes="cccccccccccccccccccccccc" /><path
         style="font-variation-settings:normal;display:inline;opacity:1;vector-effect:none;fill:#777866;fill-opacity:1;stroke:none;stroke-width:2.11667;stroke-linecap:butt;stroke-linejoin:miter;stroke-miterlimit:10;stroke-dasharray:none;stroke-dashoffset:0;stroke-opacity:1;-inkscape-stroke:none"
         d="m 22.355987,100.42962 -1.282681,-1.741572 c 0,0 6.473061,-8.192556 11.090534,-8.307084 5.575483,-0.13829 14.198063,9.666006 14.198063,9.666006 -1.317136,0.12051 -2.582462,0.37177 -3.702212,-0.252558 -0.515901,0.386218 -0.54295,0.804918 -2.11039,1.072568 -0.289218,0.008 -0.854097,-0.46038 -0.938455,-0.63758 -0.07041,0.0915 -0.257888,0.44458 -0.470089,0.30088 -0.269124,-0.18224 -0.617338,-0.556119 -0.938601,-0.875035 -0.330624,1.125835 -2.656692,1.510515 -5.015254,0.288839 -0.742385,0.232816 -1.408268,1.201546 -3.151324,1.078786 -1.393574,-0.13117 -2.398803,-0.0472 -2.532717,-1.081923 -0.01492,0.761583 -1.767943,0.669783 -2.705336,0.723683 -0.417212,-0.14331 -0.90445,-0.16807 -1.15299,-0.59695 -0.24637,0.25255 -0.544313,0.46796 -1.288548,0.36194 z"
         id="path19"
         sodipodi:nodetypes="ccsccccsccccccc"
         inkscape:label="small" /><path
         style="display:inline;fill:#5e8252;fill-opacity:1;stroke:none;stroke-width:0.257597;stroke-linecap:round;stroke-miterlimit:10;stroke-dasharray:none;stroke-opacity:1"
         d="m 77.023771,219.24114 c 0.676006,-0.54677 1.245462,-1.1178 1.262286,-1.82237 0.615255,0.85105 1.283406,1.27003 2.297651,1.68305 -0.793535,-0.23464 -1.298033,-0.34081 -2.078295,-0.70402 -0.262014,0.48665 -1.014082,0.67897 -1.481642,0.84334 z"
         id="path119"
         sodipodi:nodetypes="ccccc"
         inkscape:label="herb"
         transform="matrix(1.1699063,0,0,1.1699063,-76.872406,-157.87219)" /><path
         style="display:inline;fill:#5e8252;fill-opacity:1;stroke:none;stroke-width:0.323946;stroke-linecap:round;stroke-miterlimit:10;stroke-dasharray:none;stroke-opacity:1"
         d="m 78.955974,220.26434 c 0.83862,-0.68544 1.087309,-1.42349 1.406199,-2.36583 0.77372,1.07026 1.338269,1.64124 2.613759,2.16062 -0.99794,-0.29508 -1.557439,-0.3169 -2.220989,-1.24638 -0.51265,0.4462 -1.257841,1.20248 -1.798969,1.45159 z"
         id="path118"
         sodipodi:nodetypes="ccccc"
         transform="matrix(1.1699063,0,0,1.1699063,-76.872406,-157.87219)"
         inkscape:label="herb" /><path
         id="path7"
         style="display:inline;fill:#777363;fill-opacity:1;stroke:none;stroke-width:2.11667;stroke-linecap:butt;stroke-miterlimit:10;stroke-dasharray:none;stroke-opacity:1"
         inkscape:label="big alter"
         d="m 23.204268,47.193501 -9.352917,17.7245 -0.273369,8.610843 14.116194,19.215255 c 6.160751,-4.756092 11.226169,0.605634 15.979987,4.11976 l 3.661448,-0.45114 c 0,0 5.950263,-6.071925 11.447364,-8.837187 -1.24918,-1.913901 -2.39632,-3.87771 -2.999301,-6.061129 1.305549,-0.66396 3.155735,-0.51359 1.351339,-2.3828 -3.100932,-2.695652 1.771409,-4.594191 4.10931,-4.328418 2.441256,-0.12924 5.182588,-0.495474 7.081738,-2.124935 1.539263,-1.429278 -0.297196,-4.352899 -0.589111,-6.207373 -1.917169,-1.514812 -3.939234,-3.167533 -6.558773,-2.787943 -2.420652,0.600337 -3.009275,-2.43571 -4.090706,-4.037997 -1.27311,-1.705483 -2.028835,-4.306383 -3.392041,-5.53868 -2.240136,-1.685952 -4.525115,-4.367488 -7.582483,-3.894335 -2.038522,0.394101 -5.326906,1.068162 -4.900476,3.775996 -0.09124,2.209448 -0.612616,4.38535 -2.717664,5.317505 -1.453957,0.186355 -4.150258,0.965329 -5.000211,-0.31626 0.03081,-2.392041 2.123455,-5.62723 -1.542542,-6.23166 C 30.0371,51.103161 27.572351,50.285905 25.838733,48.692634 25.047012,48.0248 24.151251,47.54766 23.204268,47.193501 Z"
         sodipodi:nodetypes="cccccccccccccccccccccc" /><path
         id="path10"
         style="display:inline;fill:#797b69;fill-opacity:1;stroke:none;stroke-width:2.11667;stroke-linecap:butt;stroke-miterlimit:10;stroke-dasharray:none;stroke-opacity:1"
         inkscape:label="big"
         d="M 53.71455 16.855818 C 51.735713 16.895197 49.803227 17.319068 47.895267 18.4335 C 44.722446 20.286732 52.296454 22.887043 55.098445 25.282694 C 56.97141 26.460651 59.362887 28.604854 57.78717 30.726806 C 55.694379 33.37086 56.450485 36.382521 59.842341 36.437052 C 61.895945 37.513497 64.275612 36.583151 66.057466 38.140307 C 68.747274 39.792012 72.195666 42.591348 67.197965 44.042789 C 65.419538 46.293581 60.57621 44.43144 59.69558 47.411576 C 60.851598 49.273655 58.698009 52.421684 57.650744 52.232987 C 55.901204 53.390938 51.057777 56.767162 53.102184 58.377831 C 58.160247 58.964903 55.328964 65.359754 58.449662 68.23201 C 60.950062 71.770834 65.216156 72.467696 69.099657 73.569669 C 71.942167 73.73356 73.413381 77.049152 73.242557 79.702628 C 72.183059 82.274839 70.406084 84.694483 69.963171 87.482514 C 76.175225 89.601696 82.530362 93.638728 82.530362 93.638728 L 91.041987 92.549905 C 92.359534 90.870009 107.04752 72.952119 106.2638 67.497688 C 105.98863 65.582603 99.002741 61.254664 99.002741 60.098656 C 99.002741 58.942648 97.909785 35.409208 97.909785 35.409208 L 94.721866 32.795414 L 92.024356 33.880619 L 92.804153 30.449304 C 93.115099 30.486014 88.868628 27.118571 84.044998 23.388753 C 81.242146 23.97284 78.197604 23.598372 75.331835 23.715865 C 72.758126 22.606567 70.823522 19.320058 67.678039 18.922876 C 62.645597 18.543569 58.067991 16.769186 53.71455 16.855818 z " /><path
         id="path36"
         style="display:inline;fill:#aaab9d;fill-opacity:0.0770314;stroke:none;stroke-width:2.11667;stroke-linecap:butt;stroke-miterlimit:10;stroke-dasharray:none;stroke-opacity:1"
         inkscape:label="light"
         d="m 42.913142,11.975496 c -0.619384,0.01125 -1.028197,0.03824 -1.170988,0.08578 l -27.890803,52.856722 -0.273369,8.610843 14.4315,19.61993 c 0,0 -4.669471,-15.871828 -1.270546,-23.266735 0.66569,-1.448316 1.405831,-2.904341 2.205974,-4.366579 0.329094,-0.601408 1.631429,-1.036821 1.979817,-1.640228 0.446351,-0.773077 -0.05538,-1.714754 0.418881,-2.490721 5.212174,-8.527986 11.982074,-17.217267 17.503513,-25.777276 0.426245,-0.660817 -2.097977,-2.418066 -1.565629,-2.973549 0.472599,-0.493138 7.585568,0.465582 8.058114,-0.0056 0.552971,-0.551392 -2.374049,-1.259427 -1.823121,-1.777493 5.455057,-5.129671 10.75779,-8.538941 14.876173,-8.510702 14.366449,0.09851 16.660184,2.162608 21.661792,5.900776 C 85.232134,24.374062 71.44691,12.55638 67.774674,12.572876 61.897712,12.599275 47.24883,11.896778 42.913142,11.975496 Z M 90.05445,28.240653 c 0.877158,0.703316 1.553631,1.228229 1.715141,1.279509 C 91.137492,29.053107 90.595233,28.64483 90.05445,28.240653 Z M 20.088179,84.279609 c -1.533997,1.097923 -3.416667,1.888015 -4.381984,3.488009 0,0 -2.75845,1.821609 -2.762604,2.100978 -0.01731,1.164143 0.494348,2.999636 0.494348,2.999636 0,0 0.200101,-1.557435 0.602722,-1.970763 3.331011,-3.41959 6.769204,-2.779536 5.035681,-3.252927 -2.693321,-0.735493 2.476347,-1.944865 2.476347,-1.944865 z"
         sodipodi:nodetypes="sccccssssssssscsscccccscsscc" /></g><path
       id="path22"
       style="font-variation-settings:normal;display:inline;opacity:1;vector-effect:none;fill:#282822;fill-opacity:0.119767;stroke:none;stroke-width:2.11667;stroke-linecap:butt;stroke-linejoin:miter;stroke-miterlimit:10;stroke-dasharray:none;stroke-dashoffset:0;stroke-opacity:1;-inkscape-stroke:none;stop-color:#000000;stop-opacity:1"
       inkscape:label="shadow"
       d="m 71.526899,17.148824 c -1.611986,0.128501 3.878577,12.151241 4.284493,14.489038 0.08666,0.49908 0.07396,1.258484 -0.01919,2.206856 -0.05091,0.518315 -0.587038,1.093075 -0.682923,1.712631 -0.09118,0.589145 0.259893,1.218797 0.133488,1.87894 -0.729338,3.808939 -2.000879,8.63296 -3.304999,12.548152 -0.159104,0.477656 0.106936,0.992773 -0.05221,1.439881 -0.103384,0.290446 -1.299723,0.432952 -1.402482,0.708075 -0.136334,0.365017 0.395617,0.805476 0.261423,1.139598 -0.601002,1.496401 -1.174602,2.660532 -1.667578,3.291477 -3.485474,4.460954 -11.268706,10.506248 -17.554783,14.557689 -0.48812,0.314598 -0.267823,1.184192 -0.735175,1.47307 -0.498522,0.308145 -1.683075,0.03369 -2.151586,0.308627 -2.073407,1.216755 -3.820681,2.088436 -4.956389,2.438796 -3.785499,1.167808 -26.763741,-0.862997 -26.763741,-0.862997 l 5.25595,7.714095 c 0,0 1.652639,0.479779 2.033342,1.161144 0.282924,0.506366 -0.05721,1.739197 -0.05721,1.739197 l 4.706728,6.908009 c 6.613652,-3.298268 11.166083,0.511356 17.287834,7.977807 -0.226268,-0.203278 -9.165495,-8.219071 -12.317594,-8.254793 -2.070958,-0.02347 -4.272195,1.516405 -6.468387,3.429662 -0.233721,0.203611 -0.365074,0.930402 -0.589484,1.13434 -0.221468,0.201265 -0.896586,0.146865 -1.106988,0.344427 -0.986578,0.92637 -1.840605,1.790077 -2.459816,2.385182 -0.332485,0.319541 -0.3545,1.385443 -0.3545,1.385443 4.930021,2.42058 10.328719,3.8221 14.81925,4.30878 9.485417,4.94804 32.037268,16.05804 46.021997,17.45527 2.232441,0.22305 4.675026,0.46453 7.300383,0.65871 -0.124276,-0.32017 -1.521174,-2.23454 -0.776941,-2.30396 1.354592,-0.12635 2.911155,2.19997 3.235888,2.46525 7.390461,0.43694 15.565791,0.3702 22.177521,-1.55003 -0.9022,-1.1479 3.1085,-1.96009 2.88999,-2.46727 -0.18347,-0.42586 -3.78446,-1.5322 -3.47655,-2.06953 0.47057,-0.82121 9.06618,0.0715 9.06618,0.0715 0.94241,-0.87304 1.76178,-1.85963 2.43579,-2.9726 0.61564,-0.871 1.22343,-1.7427 1.7949,-2.61769 -7.73356,-0.67484 -11.25509,-2.60767 -10.67655,-4.66523 1.49011,-1.98738 6.66404,-1.66179 6.74199,-1.16638 1.06174,0.84359 1.14636,2.26898 2.48442,2.4783 1.61258,0.27725 2.93275,0.1063 3.7666,-0.81009 0.40122,-0.92485 0.7152,-1.85757 0.91021,-2.80103 0.28823,-1.3945 -0.27851,-2.5693 -1.50741,-3.53298 -0.50566,-0.25233 -5.6441,-0.26487 -5.66247,-2.308031 -2.41865,-0.547408 -5.31519,-0.886606 -8.48835,-1.026539 -1.14815,2.248371 -1.71839,7.4567 -3.08457,9.09582 -0.25088,-1.51101 3.14064,-12.559519 2.65875,-16.086608 -0.55671,-2.219446 -11.27099,-8.57277 -11.80703,-8.846488 -3.18565,-1.626685 -7.44224,-2.83244 -11.800822,-3.340881 -2.874502,2.126179 -5.495604,8.03711 -7.295162,11.943973 l -0.494026,-5.31337 c -0.553781,-2.294981 -8.918614,7.948343 -8.969995,10.391613 1.307614,3.979616 2.724212,7.721201 5.581571,11.380181 0.05682,0.046 0.10781,0.0832 0.164331,0.12868 l -0.209806,-0.003 C 76.737285,103.74243 74.96856,99.309843 72.211614,95.466643 l 2.783809,-6.171716 c -3.483127,-1.024891 -7.510504,-2.024535 -11.621512,-2.888196 1.000661,-6.46759 -21.578706,14.586409 -16.874422,10.036597 0,0 8.038454,-12.352353 21.545971,-13.676685 0.69898,-0.06853 -3.501478,2.631349 -2.700093,2.707845 3.393308,0.323908 7.778994,1.606647 11.223617,3.068417 2.887366,-4.329587 5.742789,-6.561744 5.742789,-6.561744 l 4.424019,-1.074353 c 0.38401,-0.489618 1.747023,-6.496685 4.35684,-6.465238 2.705241,0.0326 5.843775,2.372044 8.474935,3.140377 2.408853,-3.932292 4.313733,-7.516483 4.147033,-8.751921 -0.17981,-1.332593 -3.802712,-4.993334 -6.441467,-7.995894 -1.157957,-1.317603 -1.885018,-2.939138 -2.050521,-3.250447 -0.121764,-0.229038 1.000958,0.323207 2.25671,1.509985 -0.109097,-2.412266 -0.162119,-6.126202 -0.229799,-9.859891 -0.0092,-0.505724 -0.76622,-0.947052 -0.776101,-1.450315 -0.01195,-0.60874 0.723062,-1.278108 0.709498,-1.872949 -0.108271,-4.748116 -0.277818,-8.873855 -0.666847,-9.510033 -0.479722,-0.784487 -2.13837,-1.743046 -2.13837,-1.743046 l -2.101681,0.919323 -5.246708,3.495394 1.891874,5.0276 0.91364,1.110527 -1.037663,-0.842843 -3.444751,2.335258 0.953947,1.459343 3.027722,2.96571 -3.214274,-2.830318 -1.211296,-1.529106 3.734139,-2.801896 -2.272212,-4.878772 4.723225,-3.7915 0.433049,-3.958414 c 0.728565,0.08601 -18.27305,-13.671832 -19.821529,-14.163477 -0.06719,-0.02133 -0.126284,-0.02947 -0.178284,-0.02532 z M 22.104594,85.939456 c -0.260717,0.07881 -2.481104,1.041341 -2.686141,1.244369 -0.223492,0.2213 1.634999,0.160451 1.828312,0.433565 2.178983,3.07848 -5.09776,-0.192888 -6.832658,3.867981 -0.181171,0.424063 -0.3545,1.385445 -0.3545,1.385445 1.687839,2.117272 6.71315,2.523736 9.228423,2.569015 2.043114,-0.860213 3.315428,-1.906811 4.023971,-2.891298 z"
       sodipodi:nodetypes="csssssssssssssccscccsssssccscsccsscccccccscccccscccccccccccsscccscssscsssscccccccccccccccsccsssccccs" /><g
       inkscape:groupmode="layer"
       id="layer7"
       inkscape:label="outlines"
       style="display:inline"><path
         id="path23"
         style="color:#000000;display:inline;fill:#68695b;stroke-miterlimit:10;-inkscape-stroke:none"
         inkscape:label="tiny"
         d="m 20.072676,82.985115 c -1.273741,0.773061 -2.320028,1.999311 -3.7052,3.300573 -2.177197,2.045309 -3.421897,2.540033 -3.893819,3.096452 0.01074,0.01189 -0.452085,0.767827 -0.268717,1.189075 0.394209,0.868792 0.469995,2.201874 1.683101,2.455664 -0.192326,-0.59862 -1.239512,-2.434232 -0.185002,-3.169833 0.153901,-0.189372 1.200882,-1.142813 2.388485,-1.67845 0.813831,-0.367058 1.781762,-0.271643 2.223637,-0.661458 0.47816,-0.421828 -2.351866,0.264311 -1.85415,-0.314193 1.084539,-1.26058 2.910322,-2.20844 4.605403,-2.817399 z m -7.599019,6.397025 c -0.0019,-0.0021 -0.01404,0.01214 -0.05323,0.0646 0.0159,-0.02173 0.03504,-0.04315 0.05323,-0.0646 z" /><path
         id="path11"
         style="color:#000000;display:inline;fill:#5f6053;stroke-miterlimit:10;-inkscape-stroke:none;fill-opacity:1"
         inkscape:label="big"
         d="m 52.846386,10.30118 c -3.162345,0.03095 -5.559944,0.305815 -9.45782,0.47439 -1.440265,-0.05493 -2.372436,0.720048 -3.13986,1.864485 -11.896751,18.783017 -19.825047,35.922003 -27.447937,52.000443 -0.714337,3.851704 -0.195352,6.143335 -0.293005,9.214941 4.601012,6.395264 8.882661,12.365491 13.803291,19.185909 l 1.422652,-1.278992 C 22.785176,86.131507 19.376135,79.317679 14.960844,73.180545 15.046134,70.511282 14.270354,68.070811 14.660087,65.07148 24.665032,42.402606 34.080996,31.923903 42.215511,14.143323 c 0.282252,-0.849861 1.425735,-1.2013 2.038635,-1.289327 7.605814,-0.708187 15.260257,-0.09893 22.880773,0.06304 1.233506,0.01591 1.745,0.507754 2.738335,1.188558 5.149194,3.529109 17.107001,14.005147 21.773347,16.662032 -0.01717,1.125654 -0.233819,2.282379 -0.79375,3.49281 l -6.661609,4.44934 0.877983,1.117245 -3.133659,1.941483 -2.951758,0.8816 2.975529,-0.316776 -0.07596,0.964799 0.791166,-1.174089 3.377055,-1.047481 1.504818,2.733166 -3.284554,2.713013 1.384928,1.941484 -1.130164,2.066023 1.529623,-1.563212 2.682007,1.62109 -2.570903,-2.408122 -1.000972,-1.51877 3.031856,-2.008663 1.648478,0.567924 -1.012341,-1.040763 -2.099614,-5.229655 5.668905,-4.080888 c 1.045963,-0.197872 1.530525,-0.542873 2.131653,-0.857312 0.972529,0.576228 2.203564,1.00311 2.337842,1.917712 0.977557,6.658409 1.193809,14.017544 1.108459,21.725289 -0.0072,0.653459 -2.970952,-1.248397 -2.982247,-0.590145 -0.03719,2.167524 5.320138,6.002299 6.857978,7.26519 1.25237,0.975436 2.43957,2.044555 3.35948,3.31866 0.28458,1.980598 -2.00578,6.171645 -4.92838,10.599353 0.78096,0.230329 1.49998,0.434913 2.15387,0.612883 3.14447,-4.886986 5.21023,-9.1343 4.86844,-11.512993 -0.13723,-0.955087 -0.21067,-1.978617 -3.74964,-4.891691 -0.95512,-1.000812 -2.93775,-1.416562 -3.48454,-2.762622 -0.384062,-8.267313 -0.254081,-16.29385 -0.636135,-24.561291 -0.976686,-0.982628 -2.672533,-2.172009 -4.21318,-3.339331 -0.174562,-0.165889 -0.39636,-0.184031 -0.498161,-0.09198 -0.610008,0.559717 -1.132804,1.249009 -2.037601,1.370976 0.697425,-0.680709 0.784664,-1.598451 1.048514,-2.447396 0.11611,-0.416752 -0.02287,-0.644615 -0.264583,-0.982369 C 92.721589,28.588752 82.198322,21.328042 71.068529,12.359452 69.951335,11.41948 68.325173,11.41403 66.892557,11.28975 59.935767,10.483441 56.008732,10.270233 52.846386,10.30118 Z m 14.947925,72.687552 c -9.060421,1.00973 -19.453952,10.951676 -20.805965,12.318111 -1.903716,0.37117 -3.50108,0.52138 -4.926314,0.531234 0.889142,0.779669 1.723193,1.511132 2.256193,1.986442 0.917758,-0.06751 1.861371,-0.175715 2.859773,-0.359152 1.644331,-1.679688 11.433982,-9.560859 16.622758,-10.158036 3.016242,-0.347136 7.277582,1.152771 11.055656,2.879411 l 0.7922,-1.511536 c -2.792244,-1.328501 -5.987319,-2.616974 -8.946224,-3.198254 -1.479913,-0.290731 2.353154,-2.633376 1.091923,-2.48822 z"
         sodipodi:nodetypes="scccccccccccsccccccccccccccccccccccccscsccccscccccccsccscccccsccsc" /><path
         style="color:#000000;display:inline;fill:#595a4e;stroke-miterlimit:10;-inkscape-stroke:none;font-variation-settings:normal;opacity:1;vector-effect:none;fill-opacity:1;stroke-width:1;stroke-linecap:butt;stroke-linejoin:miter;stroke-dasharray:none;stroke-dashoffset:0;stroke-opacity:1;stop-color:#000000;stop-opacity:1"
         d="m 89.650391,72.9375 c -1.318598,2.455687 -2.753315,4.951521 -3.408204,7.177734 -1.665364,0.24349 -2.111491,-0.102177 -4.996093,0.730469 -4.058824,5.016276 -8.138712,10.032552 -10.517578,15.048828 3.001949,3.807179 6.185874,7.581989 9.95374,11.252929 -0.317309,-2.82136 -6.257701,-8.637564 -7.26425,-11.758524 2.40716,-4.247498 4.298136,-7.977482 9.039025,-12.582295 1.528647,-0.747357 2.382496,-0.795545 3.562474,-1.18164 l -0.522358,3.432345 c 1.517242,-2.877235 2.056338,-6.098127 4.99279,-9.262332 5.349249,1.130893 8.668169,2.791605 13.002253,4.187408 0.12381,0.0909 3.34593,2.431738 7.08677,4.457631 2.17933,1.180244 3.30246,3.1857 5.33733,4.709534 0.64099,0.409452 0.79044,1.614961 0.78773,2.194079 -0.0334,7.147722 -3.35544,10.367054 -3.94819,15.888754 2.01972,-4.32768 4.59076,-11.531078 5.59055,-15.465878 0.2941,-1.157442 -0.72787,-3.675689 -1.34873,-4.054889 -2.33509,-1.66604 -2.49704,-2.393379 -5.06658,-3.832721 -3.08985,-1.730792 -8.31376,-5.499964 -8.31376,-5.499964 C 98.674783,76.555086 94.644117,73.902177 89.650391,72.9375 Z"
         id="path14"
         sodipodi:nodetypes="cccccccccccssscscscc"
         inkscape:label="medium" /><path
         style="color:#000000;fill:#5f6053;stroke-miterlimit:10;-inkscape-stroke:none;font-variation-settings:normal;opacity:1;vector-effect:none;fill-opacity:1;stroke-width:1;stroke-linecap:butt;stroke-linejoin:miter;stroke-dasharray:none;stroke-dashoffset:0;stroke-opacity:1;stop-color:#000000;stop-opacity:1"
         d="m 31.691218,89.69167 c -2.921819,0.07247 -5.267978,1.990813 -7.529109,4.114971 -2.26113,2.124157 -3.284578,3.35014 -3.712897,3.935432 -0.175188,0.14715 -0.431813,0.627831 -0.215585,1.124568 1.052047,0.641044 1.226636,1.439129 2.439743,1.692919 -0.192255,-0.59863 -0.717581,-1.437278 -0.662125,-2.035907 0.373489,-0.459573 1.361092,-2.139411 3.458558,-3.495192 2.282084,-1.475116 5.748741,-3.693441 7.429582,-3.786603 2.171989,-0.120384 7.019747,3.290114 7.537396,3.715279 1.280192,1.051468 4.122055,3.823612 6.148543,5.307733 0,0 -1.699288,-3.149093 -4.5391,-5.56334 -2.839811,-2.414247 -6.954183,-5.094212 -10.355006,-5.00986 z"
         id="path18"
         inkscape:label="small"
         sodipodi:nodetypes="ssccccssscss" /></g><g
       inkscape:groupmode="layer"
       id="layer3"
       inkscape:label="details"><path
         id="path13"
         style="opacity:1;vector-effect:none;fill:#5d5d52;fill-opacity:1;stroke-width:0.881195;stroke-linecap:round;stroke-miterlimit:10"
         d="m 83.886534,63.728452 c 0.126254,0.254376 -0.176285,0.79633 -0.595588,0.79633 -0.419303,0 -1.014647,-0.303662 -0.646595,-0.532406 0.447111,-0.277879 1.071295,-0.608225 1.242183,-0.263924 z"
         sodipodi:nodetypes="ssss" /><path
         id="path16"
         style="opacity:1;vector-effect:none;fill:#5d5d52;fill-opacity:1;stroke-width:0.9576;stroke-linecap:round;stroke-miterlimit:10"
         d="m 79.988793,70.493753 c 0.44597,0.151236 -0.369384,0.852669 -0.825043,0.852669 -0.45566,0 -0.647966,-0.534761 -0.415938,-0.944547 0.361538,-0.855396 0.602332,-0.162947 1.240981,0.09188 z"
         sodipodi:nodetypes="ssss" /><path
         id="path17"
         style="opacity:1;vector-effect:none;fill:#5d5d52;fill-opacity:1;stroke-width:0.950172;stroke-linecap:round;stroke-miterlimit:10"
         d="m 87.683728,64.954491 c -0.07644,0.342852 -0.495624,0.639707 -1.106866,0.639707 -0.611243,0 -0.766416,-0.406408 -0.455163,-0.707168 0.734634,-0.70987 1.771235,-0.87087 1.562029,0.06746 z"
         sodipodi:nodetypes="ssss" /><path
         id="path20"
         style="opacity:1;vector-effect:none;fill:#5d5d52;fill-opacity:1;stroke-width:0.90039;stroke-linecap:round;stroke-miterlimit:10"
         d="m 85.825337,69.578015 c -0.18203,0.403636 -0.347317,0.801728 -0.775754,0.801728 -0.428437,0 -0.194486,-0.355359 0.02368,-0.740664 0.525507,-0.928104 1.298254,-1.272169 0.752074,-0.06106 z"
         sodipodi:nodetypes="ssss" /><path
         id="path24"
         style="opacity:1;vector-effect:none;fill:#5d5d52;fill-opacity:1;stroke-width:0.753174;stroke-linecap:round;stroke-miterlimit:10"
         d="m 72.986227,69.406688 c 0.132635,0.345824 -0.290529,0.670644 -0.648915,0.670644 -0.358387,0 -0.435948,-0.290201 -0.253452,-0.612507 0.375941,-0.859302 0.610241,-0.81981 0.902367,-0.05814 z"
         sodipodi:nodetypes="ssss" /><path
         id="path29"
         style="opacity:1;vector-effect:none;fill:#5d5d52;fill-opacity:1;stroke-width:0.833437;stroke-linecap:round;stroke-miterlimit:10"
         d="m 76.49475,73.922525 c -0.231256,0.338384 -0.531101,0.609934 -0.909064,0.489855 -0.377962,-0.120079 -0.362526,-0.452119 -0.06207,-0.730884 0.679561,-0.630508 1.698344,-0.823058 0.971134,0.241029 z"
         sodipodi:nodetypes="ssss" /><path
         id="path30"
         style="opacity:1;vector-effect:none;fill:#5d5d52;fill-opacity:1;stroke-width:0.806765;stroke-linecap:round;stroke-miterlimit:10"
         d="m 82.428508,73.515354 c -0.09849,0.384321 -0.441836,0.660464 -0.822385,0.609949 -0.380549,-0.05052 -0.422001,-0.369595 -0.18279,-0.686109 0.572964,-0.758127 1.233476,-0.814683 1.005175,0.07616 z"
         sodipodi:nodetypes="ssss" /><path
         id="path32"
         style="opacity:1;vector-effect:none;fill:#5d5d52;fill-opacity:1;stroke-width:1.07479;stroke-linecap:round;stroke-miterlimit:10"
         d="m 109.55944,100.02597 c -0.0429,0.52679 -0.58861,0.87987 -1.09559,0.81258 -0.50697,-0.0673 -0.80393,-0.49239 -0.48525,-0.914047 0.7633,-1.009989 1.64012,-0.626294 1.58084,0.101467 z"
         sodipodi:nodetypes="ssss" /><path
         id="path34"
         style="opacity:1;vector-effect:none;fill:#5d5d52;fill-opacity:1;stroke-width:1.28511;stroke-linecap:round;stroke-miterlimit:10"
         d="m 107.49854,103.79476 c -0.0613,0.52679 -0.84152,0.87987 -1.56633,0.81258 -0.7248,-0.0673 -1.14936,-0.49239 -0.69375,-0.91404 1.09127,-1.00999 2.34483,-0.6263 2.26008,0.10146 z"
         sodipodi:nodetypes="ssss" /><path
         id="path35"
         style="opacity:1;vector-effect:none;fill:#5d5d52;fill-opacity:1;stroke-width:0.937681;stroke-linecap:round;stroke-miterlimit:10"
         d="m 102.57159,101.33538 c -0.0326,0.52679 -0.44801,0.87987 -0.83389,0.81258 -0.38588,-0.0673 -0.61191,-0.49239 -0.36935,-0.91404 0.58098,-1.00999 1.24836,-0.6263 1.20324,0.10146 z"
         sodipodi:nodetypes="ssss" /><path
         id="path37"
         style="opacity:1;vector-effect:none;fill:#5d5d52;fill-opacity:1;stroke-width:0.487448;stroke-linecap:round;stroke-miterlimit:10"
         d="m 40.820705,97.922062 c -0.238652,0.0225 -0.353837,0.31391 -0.564051,0.215889 -0.210215,-0.09802 -0.176338,-0.289454 0.01886,-0.428592 0.472619,-0.416253 1.297165,0.141799 0.545191,0.212703 z"
         sodipodi:nodetypes="ssss" /><path
         id="path38"
         style="opacity:1;vector-effect:none;fill:#5d5d52;fill-opacity:1;stroke-width:0.431431;stroke-linecap:round;stroke-miterlimit:10"
         d="m 39.252128,99.184797 c 0.03117,0.209861 -0.313174,0.277836 -0.499231,0.191079 -0.186057,-0.08676 -0.164854,-0.269545 0.01669,-0.379338 0.400802,-0.242394 0.438895,-0.105636 0.482541,0.188259 z"
         sodipodi:nodetypes="ssss" /><path
         id="path39"
         style="opacity:1;vector-effect:none;fill:#5d5d52;fill-opacity:1;stroke-width:0.368308;stroke-linecap:round;stroke-miterlimit:10"
         d="m 37.953482,97.489073 c -0.0531,0.173164 -0.475105,0.237186 -0.633939,0.163122 -0.158836,-0.07406 -0.133239,-0.218707 0.01425,-0.323837 0.360572,-0.339731 0.738028,-0.26073 0.619689,0.160715 z"
         sodipodi:nodetypes="ssss" /></g></g><g
     inkscape:label="Mailbox"
     inkscape:groupmode="layer"
     id="layer1"><path
       style="fill:#925d3b;fill-opacity:1;stroke:none;stroke-width:1;stroke-linecap:butt;stroke-miterlimit:10;stroke-dasharray:none;stroke-opacity:1"
       d="m 33.451949,119.05763 c 0,0 -0.670929,-3.15879 -0.780763,-4.7682 -0.10168,-1.48992 0.07475,-4.47954 0.07475,-4.47954 l -2.834884,0.21185 c 0,0 0.64388,3.01671 0.644588,4.95821 3.8e-4,1.04285 -0.414289,3.96295 -0.414289,3.96295 0.419762,0.13891 0.455103,-0.22383 0.552737,-0.50528 -0.02488,0.32761 0.01225,0.62379 0.24927,0.81867 0.469689,0.0289 0.503161,-0.15965 0.632387,-0.30048 0.09236,0.12969 0.253887,0.22677 0.191596,0.42934 0.234511,-0.18125 0.502453,-0.354 0.530349,-0.58786 0.06905,0.24456 0.189664,0.38237 0.308289,0.52428 0.2849,-0.0783 0.427926,-0.21049 0.523861,-0.36062 0.09702,0.13725 0.209734,0.11527 0.322109,0.0967 z"
       id="path9"
       inkscape:label="foot fill"
       sodipodi:nodetypes="csccsccccccccc" /><path
       style="display:inline;fill:#5c8052;fill-opacity:1;stroke:none;stroke-width:0.478555;stroke-linecap:round;stroke-miterlimit:10;stroke-dasharray:none;stroke-opacity:1"
       d="m 85.277906,239.95168 c 0.41166,-0.28711 1.116044,-1.06887 1.272396,-1.47702 0.01218,0.27595 0.31166,0.7794 0.812997,1.00243 0.374991,-0.36402 0.508692,-0.93231 0.815386,-1.80009 0.68245,1.41452 0.664788,2.18908 2.827984,2.29573 -1.75284,0.0649 -2.313455,-0.11142 -2.730901,-0.50274 -0.263148,0.1587 -0.396384,0.2466 -0.837355,0.28323 -0.406009,-0.17453 -0.442024,-0.16865 -0.736614,-0.33953 -0.190627,0.18976 -0.928118,0.36368 -1.423893,0.53799 z"
       id="path121"
       sodipodi:nodetypes="ccccccccc"
       transform="matrix(1.1699063,0,0,1.1699063,-76.872406,-157.87219)"
       inkscape:label="small herbs" /><path
       id="path33"
       style="font-variation-settings:normal;opacity:1;fill:#3a3a3a;fill-opacity:0.106163;stroke:none;stroke-width:1.05833;stroke-linecap:butt;stroke-linejoin:miter;stroke-miterlimit:10;stroke-dasharray:none;stroke-dashoffset:0;stroke-opacity:1"
       inkscape:label="shadow"
       d="m 32.487422,110.14986 -2.059306,1.97869 c 0,0 0.218538,0.63356 0.441317,1.41801 0.241945,0.85194 0.528309,1.89228 0.710551,2.80241 0.03242,0.16192 -0.669708,-1.09617 -0.67076,-0.85473 -9.43e-4,0.21655 0.190106,0.61201 0.232027,0.86661 0.18521,1.12482 -0.06296,2.4285 -0.200631,2.87433 l -0.240928,-0.46843 c -0.178825,0.0977 -0.287573,0.38424 -0.600238,0.12108 l 3.342949,3.85506 -5.074626,1.85105 c 0,0 -0.169938,0.31418 -0.304617,0.7671 2.346094,-0.1925 6.210842,-0.90477 7.965823,0.22511 0.815301,0.5249 3.957419,-1.57471 5.750266,-1.79499 0.840241,-0.10323 0.915688,0.65379 1.390016,0.93762 0.870987,-0.11455 1.247468,-0.68127 1.161357,-0.72343 -0.403255,-0.19744 -3.826123,-3.12436 -3.826123,-3.12436 l -4.112927,1.00873 -2.929537,-2.96158 -0.176217,-0.57878 -0.134359,0.0227 c -0.181029,-0.81417 -0.471355,-2.17275 -0.649572,-3.33003 -0.03086,-0.20042 -0.814894,-1.62586 -0.837159,-1.80661 -0.02393,-0.19428 0.714817,0.85808 0.703833,0.69712 -0.101678,-1.48992 0.118856,-3.78272 0.118856,-3.78272 z"
       sodipodi:nodetypes="ccssssccccccsscscccccssscc" /><path
       style="color:#000000;fill:#794c30;stroke-miterlimit:10;-inkscape-stroke:none;fill-opacity:1"
       d="m 31.39147,112.35415 c 0.02227,0.53877 1.129184,2.13779 1.189414,2.57573 0.274917,1.99892 0.468464,2.98574 0.881812,4.13179 0,0 -0.226171,-2.82468 -0.332847,-4.38772 -0.01389,-0.20345 -0.252798,-0.33413 -0.270727,-0.6346 -0.106081,-1.77786 -0.03373,-4.9028 -0.03373,-4.9028 -0.200059,1.60382 -0.441944,2.18761 -0.374285,4.75506 0.0055,0.20866 -1.069413,-1.77393 -1.059637,-1.53746 z m -1.437624,-2.49007 c 0,0 0.392913,3.02131 0.393607,4.92883 5.5e-5,0.15171 -0.148543,0.35792 -0.152543,0.593 -0.02176,1.30611 -0.09382,3.60318 -0.09382,3.60318 0.631576,-1.22441 0.515862,-2.2168 0.618577,-3.56351 0.01542,-0.20213 0.799281,1.19481 0.793848,0.98168 -0.0068,-0.26693 -0.56509,-1.33325 -0.589678,-1.59065 -0.193539,-2.02603 -0.722441,-3.70619 -0.970041,-4.95253 z"
       id="path8"
       sodipodi:nodetypes="sscsscsscsscssscc"
       inkscape:label="foot outline" /><path
       style="fill:#859b9e;fill-opacity:1;stroke:none;stroke-width:1;stroke-linecap:butt;stroke-miterlimit:10;stroke-dasharray:none;stroke-opacity:1"
       d="m 23.921326,110.45979 c 0.124157,0.0355 6.27749,1.1653 6.27749,1.1653 0,0 5.224648,-3.48587 6.851642,-4.6665 0.136141,-2.96772 1.125259,-6.6947 -1.851676,-7.753396 l -9.136174,2.323826 c -3.160366,1.35299 -2.141657,5.94182 -2.141282,8.93077 z"
       id="path5"
       inkscape:label="box fill"
       sodipodi:nodetypes="cccccc" /><path
       style="color:#000000;fill:#687d82;fill-opacity:1;stroke-width:1;stroke-miterlimit:10;stroke-dasharray:none"
       d="m 26.001958,100.87105 c -1.878546,0.63633 -2.333594,2.3254 -2.451172,3.22461 -0.274326,2.09798 -0.357781,6.15396 -0.356043,6.16265 -0.0025,0.33292 0.116658,0.67223 0.54358,0.73205 2.10514,0.59686 4.210279,0.91957 6.315419,1.30101 0.357389,0.0793 0.555086,-0.0166 0.707634,-0.12602 1.97601,-1.79128 4.212919,-3.44752 6.72795,-4.95983 0,0 -0.03433,-3.91416 -0.04397,-5.65125 -0.0076,-1.46571 -0.957409,-2.171336 -2.516426,-2.473402 -2.825303,0.710027 -5.86535,1.092472 -8.926972,1.790182 z m 10.889328,0.61333 c 0.05119,0.85066 -0.146619,4.90352 -0.15636,5.14745 -1.558348,1.47341 -3.976522,2.98426 -6.305243,4.49122 0.0825,-0.74581 0.127239,-4.5956 -0.07227,-6.70117 -0.07404,-0.78137 -0.198404,-1.6561 -0.691406,-2.38868 -0.218194,-0.32422 -0.527131,-0.59418 -0.872213,-0.82627 1.209483,-0.3892 4.624846,-1.346861 6.169714,-1.619582 1.806064,0.445152 1.89119,1.510432 1.927778,1.897032 z m -7.469089,2.93583 c 0.288902,2.10768 0.07734,6.69218 -0.05111,6.6794 -1.785929,-0.17774 -3.50212,-0.51299 -5.111328,-1.08984 -0.08834,-0.0317 -0.338336,-3.63837 0.136479,-5.93758 0.165013,-0.79905 0.720567,-2.57823 2.325914,-2.48116 1.661423,0.10046 2.54808,1.72054 2.700042,2.82918 z"
       id="path4"
       sodipodi:nodetypes="cscccccccccccsccccssssss"
       inkscape:label="box outline" /><path
       id="path6"
       style="fill:#4b5e62;fill-opacity:0.14193803;stroke:none;stroke-width:1;stroke-linecap:butt;stroke-miterlimit:10;stroke-dasharray:none;stroke-opacity:1"
       inkscape:label="box shadow"
       d="M 36.238098 100.29259 L 29.908768 102.27903 C 30.055239 102.42438 30.232383 102.70095 30.367138 103.37043 C 32.018 102.75274 35.940019 101.33592 36.708353 101.05843 C 36.614783 100.66659 36.46553 100.39712 36.238098 100.29259 z M 36.774499 101.42998 L 30.456539 103.93577 C 30.526748 104.50027 30.572683 105.25084 30.57281 106.26845 C 30.696967 106.30395 30.544388 110.92604 30.544388 110.92604 C 30.544388 110.92604 33.111661 109.1694 35.07021 107.80014 A 0.68314803 0.75626802 50.297351 0 1 34.981327 107.71435 A 0.68314803 0.75626802 50.297351 0 1 35.126538 106.70563 A 0.68314803 0.75626802 50.297351 0 1 36.14508 106.748 A 0.68314803 0.75626802 50.297351 0 1 36.259802 106.95988 C 36.401828 106.85856 36.559662 106.74715 36.67528 106.66326 C 36.76708 104.66217 36.943798 102.65445 36.774499 101.42998 z M 26.659871 101.85218 C 25.621369 101.84518 24.907857 102.95496 24.565425 104.35074 C 24.475515 104.71721 24.413146 105.11972 24.372672 105.55015 L 29.067476 103.81485 C 28.746265 103.05347 28.066296 101.95524 26.761157 101.85631 C 26.726977 101.85331 26.693367 101.85218 26.659871 101.85218 z M 29.279349 104.41481 C 28.871756 104.57567 25.398771 105.94819 24.320479 106.43898 C 24.289129 107.49438 24.351379 108.67021 24.445536 109.88321 C 26.302729 110.64525 27.777511 110.68786 29.241109 110.92656 C 29.380418 110.94776 29.550691 105.37242 29.279349 104.41481 z " /></g></svg>
