<?xml version="1.0" encoding="UTF-8" standalone="no"?>
<!-- Created with Inkscape (http://www.inkscape.org/) -->

<svg
   width="128"
   height="160"
   viewBox="0 0 33.866666 42.333322"
   version="1.1"
   id="svg1"
   inkscape:version="1.3 (1:1.3+202307231459+0e150ed6c4)"
   sodipodi:docname="screen.svg"
   xml:space="preserve"
   inkscape:export-filename="screen.png"
   inkscape:export-xdpi="96"
   inkscape:export-ydpi="96"
   xmlns:inkscape="http://www.inkscape.org/namespaces/inkscape"
   xmlns:sodipodi="http://sodipodi.sourceforge.net/DTD/sodipodi-0.dtd"
   xmlns:xlink="http://www.w3.org/1999/xlink"
   xmlns="http://www.w3.org/2000/svg"
   xmlns:svg="http://www.w3.org/2000/svg"><sodipodi:namedview
     id="namedview1"
     pagecolor="#ffffff"
     bordercolor="#666666"
     borderopacity="1.0"
     inkscape:showpageshadow="2"
     inkscape:pageopacity="0.0"
     inkscape:pagecheckerboard="true"
     inkscape:deskcolor="#d1d1d1"
     inkscape:document-units="px"
     inkscape:zoom="2"
     inkscape:cx="-36.5"
     inkscape:cy="46.75"
     inkscape:window-width="1868"
     inkscape:window-height="1016"
     inkscape:window-x="52"
     inkscape:window-y="27"
     inkscape:window-maximized="1"
     inkscape:current-layer="svg1" /><defs
     id="defs1"><linearGradient
       id="linearGradient3"
       inkscape:collect="always"><stop
         style="stop-color:#ac6e30;stop-opacity:1;"
         offset="0"
         id="stop3" /><stop
         style="stop-color:#d09058;stop-opacity:1;"
         offset="1"
         id="stop4" /></linearGradient><linearGradient
       inkscape:collect="always"
       xlink:href="#linearGradient3"
       id="linearGradient4"
       x1="21.41704"
       y1="11.567025"
       x2="30.469341"
       y2="32.171368"
       gradientUnits="userSpaceOnUse"
       gradientTransform="matrix(0.98678816,0,0,0.99007138,0.22546719,0.21120491)" /><linearGradient
       id="linearGradient9"
       inkscape:collect="always"><stop
         style="stop-color:#c77f3a;stop-opacity:1;"
         offset="0"
         id="stop9" /><stop
         style="stop-color:#b57134;stop-opacity:1;"
         offset="1"
         id="stop10" /></linearGradient><filter
       inkscape:collect="always"
       style="color-interpolation-filters:sRGB"
       id="filter21"
       x="-0.20854978"
       y="-1.2826344"
       width="1.4170996"
       height="3.5652689"><feGaussianBlur
         inkscape:collect="always"
         stdDeviation="2.2615041"
         id="feGaussianBlur21" /></filter><linearGradient
       inkscape:collect="always"
       xlink:href="#linearGradient3"
       id="linearGradient6"
       gradientUnits="userSpaceOnUse"
       gradientTransform="matrix(0.99360213,0,0,0.99007138,0.00303017,0.21120491)"
       x1="20.222425"
       y1="36.225872"
       x2="21.116407"
       y2="43.730667" /><filter
       inkscape:collect="always"
       style="color-interpolation-filters:sRGB"
       id="filter22"
       x="-0.0045318826"
       y="-0.0054051795"
       width="1.0090638"
       height="1.0108104"><feGaussianBlur
         inkscape:collect="always"
         stdDeviation="0.10787934"
         id="feGaussianBlur22" /></filter><linearGradient
       inkscape:collect="always"
       xlink:href="#linearGradient9"
       id="linearGradient22"
       gradientUnits="userSpaceOnUse"
       gradientTransform="matrix(2.5701028,0,0,2.5859884,-0.06645775,-0.04334707)"
       x1="1.0475682"
       y1="-0.50820279"
       x2="12.080015"
       y2="15.937229" /><mask
       maskUnits="userSpaceOnUse"
       id="mask22"><path
         id="path23"
         style="font-variation-settings:normal;opacity:1;vector-effect:none;fill:#ffffff;fill-opacity:1;stroke:none;stroke-width:0.136421;stroke-linecap:round;stroke-linejoin:miter;stroke-miterlimit:10;stroke-dasharray:none;stroke-dashoffset:0;stroke-opacity:1;-inkscape-stroke:none;stop-color:#000000;stop-opacity:1"
         inkscape:label="fill"
         d="m 3.0752641,0.21342363 c -1.5784729,0 -2.84892136,1.27096527 -2.84892136,2.84943807 V 39.270982 c 0,1.578472 1.27044846,2.848922 2.84892136,2.848922 H 30.796048 c 1.578472,0 2.849438,-1.27045 2.849438,-2.848922 V 3.0628617 c 0,-1.5784728 -1.270966,-2.84943807 -2.849438,-2.84943807 z M 5.4642652,3.0272049 H 28.528487 c 1.315032,0 2.374014,1.0584665 2.374014,2.3734984 V 28.557944 c 0,1.315029 -1.058982,2.373497 -2.374014,2.373497 H 5.4642652 c -1.3150319,0 -2.3740151,-1.058468 -2.3740151,-2.373497 V 5.4007033 c 0,-1.3150319 1.0589832,-2.3734984 2.3740151,-2.3734984 z" /></mask></defs><g
     inkscape:label="Main"
     inkscape:groupmode="layer"
     id="layer1"><path
       id="rect1"
       style="opacity:1;fill:url(#linearGradient22);fill-opacity:1;stroke:none;stroke-width:0.136421;stroke-miterlimit:10;-inkscape-stroke:none;font-variation-settings:normal;vector-effect:none;stroke-linecap:round;stroke-linejoin:miter;stroke-dasharray:none;stroke-dashoffset:0;stroke-opacity:1;stop-color:#000000;stop-opacity:1"
       inkscape:label="fill"
       d="M 3.075264 0.21342363 C 1.4967912 0.21342363 0.22634274 1.4843889 0.22634274 3.0628617 L 0.22634274 39.270982 C 0.22634274 40.849455 1.4967912 42.119904 3.075264 42.119904 L 30.796049 42.119904 C 32.374521 42.119904 33.645487 40.849455 33.645487 39.270982 L 33.645487 3.0628617 C 33.645487 1.4843889 32.374521 0.21342363 30.796049 0.21342363 L 3.075264 0.21342363 z M 5.4642652 3.027205 L 28.528487 3.027205 C 29.843519 3.027205 30.902502 4.0856714 30.902502 5.4007032 L 30.902502 28.557943 C 30.902502 29.872974 29.843519 30.931441 28.528487 30.931441 L 5.4642652 30.931441 C 4.1492334 30.931441 3.0902502 29.872974 3.0902502 28.557943 L 3.0902502 5.4007032 C 3.0902502 4.0856714 4.1492334 3.027205 5.4642652 3.027205 z " /><path
       id="rect3"
       style="opacity:1;fill:url(#linearGradient4);fill-opacity:0.997793;stroke:none;stroke-width:0.423333;stroke-miterlimit:40;-inkscape-stroke:none"
       d="M 4.4839634 1.8417478 C 3.0572027 1.8417478 1.9089271 2.9900233 1.9089271 4.416784 L 1.9089271 29.541345 C 1.9089271 30.968106 3.0572027 32.116898 4.4839634 32.116898 L 29.508272 32.116898 C 30.935033 32.116898 32.083825 30.968106 32.083825 29.541345 L 32.083825 4.416784 C 32.083825 2.9900233 30.935033 1.8417478 29.508272 1.8417478 L 4.4839634 1.8417478 z M 5.4642652 3.027205 L 28.528487 3.027205 C 29.843519 3.027205 30.902502 4.0856714 30.902502 5.4007032 L 30.902502 28.557943 C 30.902502 29.872974 29.843519 30.931441 28.528487 30.931441 L 5.4642652 30.931441 C 4.1492334 30.931441 3.0902502 29.872974 3.0902502 28.557943 L 3.0902502 5.4007032 C 3.0902502 4.0856714 4.1492334 3.027205 5.4642652 3.027205 z "
       inkscape:label="screen bevel" /><path
       id="rect5"
       style="opacity:1;fill:none;fill-opacity:0.997793;stroke:#fbb67a;stroke-width:0.2645833;stroke-miterlimit:40;stroke-opacity:0.19232261;stroke-dasharray:none"
       d="M 4.4839634 1.8417478 C 3.0572027 1.8417478 1.9089271 2.9900233 1.9089271 4.416784 L 1.9089271 29.541345 C 1.9089271 30.968106 3.0572027 32.116898 4.4839634 32.116898 L 29.508272 32.116898 C 30.935033 32.116898 32.083825 30.968106 32.083825 29.541345 L 32.083825 4.416784 C 32.083825 2.9900233 30.935033 1.8417478 29.508272 1.8417478 L 4.4839634 1.8417478 z M 5.4642652 3.027205 L 28.528487 3.027205 C 29.843519 3.027205 30.902502 4.0856714 30.902502 5.4007032 L 30.902502 28.557943 C 30.902502 29.872974 29.843519 30.931441 28.528487 30.931441 L 5.4642652 30.931441 C 4.1492334 30.931441 3.0902502 29.872974 3.0902502 28.557943 L 3.0902502 5.4007032 C 3.0902502 4.0856714 4.1492334 3.027205 5.4642652 3.027205 z "
       inkscape:label="bevel outline" /><path
       id="rect6"
       style="font-variation-settings:normal;opacity:1;vector-effect:none;fill:url(#linearGradient6);fill-opacity:0.997793;stroke:none;stroke-width:0.423333;stroke-linecap:butt;stroke-linejoin:miter;stroke-miterlimit:40;stroke-dasharray:none;stroke-dashoffset:0;stroke-opacity:1;-inkscape-stroke:none;stop-color:#000000;stop-opacity:1"
       d="M 3.4783402 33.166963 C 2.3500879 33.166963 1.4417723 34.075279 1.4417723 35.203531 L 1.4417723 38.666368 C 1.4417723 39.79462 2.3500879 40.702936 3.4783402 40.702936 L 30.401758 40.702936 C 31.53001 40.702936 32.438325 39.79462 32.438325 38.666368 L 32.438325 35.203531 C 32.438325 34.075279 31.53001 33.166963 30.401758 33.166963 L 3.4783402 33.166963 z M 3.7951166 33.66254 L 30.028654 33.66254 C 31.008441 33.66254 31.797021 34.451636 31.797021 35.431424 L 31.797021 38.438475 C 31.797021 39.418263 31.008441 40.206842 30.028654 40.206842 L 3.7951166 40.206842 C 2.815329 40.206842 2.0267494 39.418263 2.0267494 38.438475 L 2.0267494 35.431424 C 2.0267494 34.451636 2.815329 33.66254 3.7951166 33.66254 z "
       inkscape:label="control bevel" /><rect
       style="font-variation-settings:normal;opacity:0.0620801;vector-effect:none;fill:#e9c5af;fill-opacity:0.997793;stroke:#934f28;stroke-width:0.177433;stroke-linecap:round;stroke-linejoin:miter;stroke-miterlimit:10;stroke-dasharray:none;stroke-dashoffset:0;stroke-opacity:1;-inkscape-stroke:none;filter:url(#filter21);stop-color:#000000;stop-opacity:1"
       id="rect21"
       width="26.450886"
       height="4.3007784"
       x="3.6853085"
       y="34.956158"
       transform="matrix(0.77188005,0,0,0.7658517,3.85768,8.688435)"
       inkscape:label="use fx" /><path
       id="path21"
       style="color:#000000;opacity:0.23250862;fill:#934f28;stroke-linecap:round;stroke-miterlimit:10;-inkscape-stroke:none;filter:url(#filter22)"
       d="m 31.952422,36.049156 c -1.373203,-0.03199 -2.944565,0.128117 -3.791523,0.318585 -0.614964,0.138305 -1.066715,0.214141 -0.866859,0.764703 0.05769,0.158927 1.218819,0.973259 1.379962,1.123682 1.413476,1.319444 4.446236,2.975639 6.671612,4.017628 l -0.268516,-0.446356 c -2.393588,-0.926975 -5.835826,-3.18402 -7.110283,-4.457772 -0.518168,-0.517881 0.101379,-0.788717 0.598492,-0.911859 0.763348,-0.171666 1.960626,0.04656 3.317557,-0.03996 2.961075,-0.188809 5.627402,0.460108 5.615176,0.472823 l 0.04883,-0.423828 z M 30.611564,-0.46302077 C 29.229607,0.30153206 27.356941,1.2942452 25.269772,2.29495 21.095434,4.2963595 16.060396,6.119796 12.402859,6.4063264 9.3144695,6.6482698 4.6910925,5.8234408 0.87281482,4.6715488 -2.9454629,3.5196568 -4.7950555,2.6199947 -4.7950555,2.6199947 l -0.1586466,0.3942912 c 0,0 1.9857594,0.6912442 5.82341633,1.8489824 C 4.707371,6.0210066 9.2081847,7.2831454 12.425596,7.0310944 16.206477,6.7349014 21.25985,4.688408 25.453223,2.6778723 27.549909,1.6726044 29.312217,0.43855927 30.69993,-0.32917883 Z m 5.339725,5.15317307 c -0.904871,0.00648 -3.005105,0.063563 -5.331974,0.4154785 -3.102493,0.4692202 -6.628867,1.4414013 -8.290965,3.616833 -0.865177,1.1323829 -1.686311,2.8944802 -2.69751,3.6953812 -1.683558,1.333432 -4.899588,1.325339 -8.761738,0.570508 C 7.0069528,12.233522 2.5147435,10.760517 -1.7321938,9.3084744 l 0.1421102,0.3927408 C 2.660398,11.15447 6.8859061,12.641514 10.789004,13.404348 c 3.903097,0.762833 7.221414,0.837942 9.105386,-0.654224 1.153646,-0.913724 1.959977,-2.707759 2.771407,-3.7697949 1.520501,-1.990103 4.954317,-2.9920305 8.016047,-3.4550858 3.06173,-0.4630552 5.730398,-0.409794 5.730398,-0.409794 l 0.0098,-0.4242635 c 0,0 -0.169149,-0.00319 -0.470772,-0.00103 z m -3.81062,4.5986851 c -1.772899,0 -3.379835,0.410704 -4.560444,1.0898556 -1.180609,0.679152 -1.951302,1.645714 -1.951302,2.746085 0,1.100371 0.770693,2.066933 1.951302,2.746086 1.180609,0.679152 2.787545,1.089856 4.560444,1.089855 1.772899,10e-7 3.379836,-0.410703 4.560445,-1.089855 1.180609,-0.679153 1.953369,-1.645715 1.953369,-2.746086 0,-1.100371 -0.77276,-2.066933 -1.953369,-2.746085 C 35.520505,9.6995414 33.913568,9.2888374 32.140669,9.2888374 Z m 0.295589,0.2950724 c 1.707095,0 2.954081,0.5273912 4.054016,1.1601352 1.099936,0.632744 1.739945,1.479218 1.739945,2.380733 0,0.901515 -0.640009,1.74644 -1.739945,2.379183 -1.099935,0.632744 -2.609954,0.888318 -4.317049,0.888318 -1.707094,0 -3.282226,-0.255574 -4.38216,-0.888318 -1.099936,-0.632743 -1.740462,-1.477668 -1.740462,-2.379183 0,-0.901515 0.319615,-1.798632 1.419551,-2.431375 1.099935,-0.632745 3.25901,-1.1094932 4.966104,-1.1094932 z m 0.860413,1.5704462 c -0.955565,0 -1.82337,0.214974 -2.468583,0.57826 -0.645213,0.363285 -1.087789,0.89419 -1.087789,1.515669 0,0.621479 0.442576,1.151867 1.087789,1.515153 0.645213,0.363285 1.513018,0.578259 2.468583,0.578259 0.955565,0 1.821819,-0.214974 2.467032,-0.578259 0.645214,-0.363286 1.08779,-0.893674 1.087789,-1.515153 10e-7,-0.621479 -0.442575,-1.152384 -1.087789,-1.515669 -0.645213,-0.363286 -1.511467,-0.57826 -2.467032,-0.57826 z m 0,0.423747 c 0.891157,0 1.69481,0.20536 2.25981,0.523482 0.564998,0.318121 0.871264,0.728388 0.871264,1.1467 0,0.418312 -0.08664,0.839948 -0.651639,1.158069 -0.565,0.31812 -1.571742,0.752925 -2.462899,0.752925 -0.891157,0 -2.035876,-0.423436 -2.600874,-0.741556 -0.564999,-0.318121 -0.548287,-0.751126 -0.548287,-1.169438 0,-0.418312 0.04634,-0.909194 0.611332,-1.227315 0.564998,-0.318122 1.630136,-0.442867 2.521293,-0.442867 z m -43.716705,3.773413 -0.06615,0.418062 c 0,0 11.13223363,1.749893 18.0583265,1.987992 2.7514915,0.09459 5.8843235,-0.23926 8.7384835,-0.49196 2.85416,-0.252699 5.438529,-0.416134 7.023343,-0.0217 4.066245,1.012 6.573301,2.859549 10.820526,3.391007 4.244313,0.531093 6.852003,0.153234 8.411889,-0.371037 l -0.134876,-0.400492 c -1.482985,0.498425 -3.415524,0.758418 -7.614004,0.233061 C 30.670664,19.577547 27.507844,18.096176 23.364979,17.065106 21.652276,16.638851 19.132975,16.59072 16.273423,16.843931 13.413872,17.097107 9.4607362,17.402047 6.7546255,17.309019 -0.11570863,17.072799 -10.420034,15.351516 -10.420034,15.351516 Z M 5.1836622,21.87308 c -2.8273233,0.0359 -6.05355254,0.433384 -10.3750758,1.368909 l 0.08785,0.412378 c 3.3610707,-0.727607 5.86501609,-1.259357 8.2098336,-1.416451 3.6593869,-0.245164 6.6741511,0.232529 9.9776841,0.845943 5.420332,1.00647 12.095537,2.742812 25.61342,3.767728 l 0.03101,-0.42168 C 24.182939,25.618682 18.604732,23.678887 13.159918,22.667864 10.437503,22.162351 8.0109856,21.837185 5.1836622,21.87308 Z m 11.0577218,9.354467 c -1.261263,-6.8e-4 -2.521666,0.04404 -3.776514,0.118339 -8.3349683,0.49352 -17.861439,1.281058 -17.861439,1.281058 l 0.044958,0.42013 c 0,0 16.9407356,-1.780166 25.3478036,-1.244369 8.935535,0.56948 26.245422,4.453475 26.245422,4.453475 l 0.403076,-0.133325 c 0,0 -17.590564,-4.166295 -26.62111,-4.741829 -1.258692,-0.106738 -2.520935,-0.152799 -3.782197,-0.153479 z m -5.743318,4.408516 C 9.3916237,35.604009 8.2685823,35.669383 7.3494211,35.929585 4.6080925,36.705619 3.2437925,37.565289 2.3202715,38.351659 1.3967505,39.13803 1.073956,39.95363 0.08888345,40.4213 -0.45276727,40.678451 -1.639359,40.64267 -2.5274939,40.662112 l 0.00982,0.423746 c 0.9098345,-0.01992 1.96812943,-0.100776 2.64841675,-0.423746 1.07992525,-0.51271 1.57925255,-1.236091 2.46289845,-1.988509 0.8836458,-0.752417 1.7137047,-1.644749 4.4121331,-2.408638 1.6966366,-0.480296 5.7892941,-0.208546 8.5782861,0.33848 2.788993,0.547027 4.980355,1.730464 6.505546,2.660819 4.349619,2.653241 7.383667,6.483372 16.314764,6.202722 l -0.01395,-0.424264 c -8.925603,0.491029 -12.033236,-3.459551 -16.310113,-6.431648 -1.549705,-1.076925 -4.37865,-1.894949 -7.203177,-2.448945 -0.736068,-0.147961 -2.53499,-0.472643 -4.37906,-0.526066 z m 0.892452,2.40502 c -2.1769396,0 -4.1501868,0.50839 -5.5955237,1.343587 -1.445337,0.835197 -2.3791827,2.017512 -2.3791826,3.355351 4e-7,1.337839 0.9338456,2.520671 2.3791826,3.355867 1.4453368,0.835197 3.4185844,1.34152 5.5955237,1.34152 2.176938,0 4.150703,-0.506323 5.59604,-1.34152 1.445336,-0.835196 3.108853,-2.033531 3.108853,-3.37137 1e-6,-1.337839 -0.345882,-2.1882 -2.870108,-2.987931 -1.59134,-0.504172 -3.657847,-1.695504 -5.834785,-1.695504 z m 0.367936,0.463538 c 2.110836,0 3.477153,1.243661 5.123717,1.763716 1.502839,0.474661 2.482536,1.331806 2.482536,2.471684 0,1.139879 -1.224935,2.199921 -2.589506,2.988447 -1.364572,0.788526 -3.273848,1.285193 -5.384683,1.285193 -2.1108366,0 -4.0180454,-0.496667 -5.3826168,-1.285193 -1.3645715,-0.788526 -2.3151036,-1.78604 -2.3151039,-2.925919 -1e-7,-1.139878 0.7836176,-2.062462 2.148189,-2.850988 1.3645714,-0.788526 3.8066303,-1.44694 5.9174677,-1.44694 z m -1.8040243,1.160136 c -1.2337365,0.04773 -2.6079632,0.427181 -3.3977249,0.877982 -0.9025847,0.515201 -1.5022341,1.254505 -1.5022337,2.105814 1e-7,0.851311 0.599649,1.592165 1.5022337,2.107365 0.9025847,0.515202 2.1262057,0.824239 3.4747232,0.824239 1.348516,0 2.571622,-0.309037 3.474206,-0.824239 0.902585,-0.5152 1.322915,-1.174922 1.322916,-2.026233 0,-0.851309 -0.828058,-1.392693 -1.730643,-1.907893 -0.902584,-0.515202 -0.862884,-1.078018 -2.62568,-1.156519 -0.168397,-0.0075 -0.341549,-0.0073 -0.5177973,-5.16e-4 z m -0.2387451,0.37362 c 1.2832214,0 2.2733454,0.712079 3.0954174,1.181323 0.822073,0.469245 1.775086,0.77795 1.775086,1.428853 -10e-7,0.650905 -0.467255,1.270701 -1.289327,1.739946 -0.822072,0.469243 -1.982213,0.769462 -3.265433,0.769462 -1.2832213,0 -2.4418109,-0.300219 -3.2638834,-0.769462 -0.8220725,-0.469245 -1.2888099,-1.089041 -1.28881,-1.739946 -3e-7,-0.650903 0.4667375,-1.26915 1.28881,-1.738394 0.8220725,-0.469245 1.6649188,-0.871782 2.94814,-0.871782 z m -0.6082315,0.91674 c -0.7428619,-0.0065 -1.4179397,0.164492 -1.9239133,0.445451 -0.5059735,0.280959 -0.8629964,0.69946 -0.8629963,1.197343 -1e-7,0.497882 0.3570228,0.914317 0.8629963,1.195275 0.5059736,0.280959 1.1810233,0.444934 1.9239133,0.444934 0.74289,0 1.4179399,-0.163975 1.9239129,-0.444934 0.505974,-0.280958 1.146244,-0.785816 0.862997,-1.195275 -0.594036,-0.858731 -0.884164,-1.626258 -2.7869099,-1.642794 z m 0.4314982,0.45682 c 1.3176517,0 1.3638867,0.366611 1.8701697,1.036112 0.176049,0.232804 -0.156834,0.739058 -0.58291,0.975651 -0.426076,0.236593 -1.0393884,0.392741 -1.7187579,0.392741 -0.6793696,0 -1.2926819,-0.156148 -1.7187579,-0.392741 -0.4260759,-0.236593 -0.644405,-0.533915 -0.644405,-0.825789 0,-0.291875 0.079836,-0.542687 0.5059122,-0.779281 0.426076,-0.236593 1.6093792,-0.406693 2.2887489,-0.406693 z"
       inkscape:label="wood lines"
       mask="url(#mask22)" /><path
       style="color:#000000;fill:#935a28;stroke-miterlimit:40;-inkscape-stroke:none"
       d="m 3.0761719,0.00195313 c -1.6920747,0 -3.06250002,1.36847217 -3.06250002,3.06054687 v 36.208984 c 0,1.692075 1.37042532,3.060547 3.06250002,3.060547 H 30.804687 c 1.692075,0 3.060547,-1.368472 3.060547,-3.060547 V 3.0625 c 0,-1.6920747 -1.368472,-3.06054687 -3.060547,-3.06054687 z m 0.4893475,0.30574522 c 0,0 5.6807314,0.16278871 8.5327786,0.17515245 6.227675,0.0269972 19.035414,-0.0669855 19.035414,-0.0669855 1.464857,0.00635 2.309647,1.18176381 2.309647,2.64663471 0,0 -0.107141,6.4643501 -0.107141,9.642473 0,5.306394 0.131526,13.760604 0.162298,19.699794 0.02079,4.012679 -0.05516,6.866717 -0.05516,6.866717 0,1.464871 -1.364979,2.674249 -2.829849,2.672353 0,0 -3.531871,0.09201 -5.298256,0.103767 C 17.902245,42.096954 2.9304434,41.921009 2.9304434,41.921009 1.4656013,41.911827 0.5375239,40.721087 0.52834932,39.256245 L 0.30233284,3.1697094 C 0.29315827,1.7048672 2.1006622,0.30134813 3.5655194,0.30769835 Z"
       id="rect22"
       sodipodi:nodetypes="ssssssssssssssssssssss"
       inkscape:label="outline" /></g></svg>
