<?xml version="1.0" encoding="UTF-8" standalone="no"?>
<!-- Created with Inkscape (http://www.inkscape.org/) -->

<svg
   width="112"
   height="112"
   viewBox="0 0 29.633332 29.633334"
   version="1.1"
   id="svg1"
   xml:space="preserve"
   inkscape:version="1.3.2 (1:1.3.2+202311252150+091e20ef0f)"
   sodipodi:docname="shrew-portrait.svg"
   inkscape:export-filename="shrew-portrait.png"
   inkscape:export-xdpi="96"
   inkscape:export-ydpi="96"
   xmlns:inkscape="http://www.inkscape.org/namespaces/inkscape"
   xmlns:sodipodi="http://sodipodi.sourceforge.net/DTD/sodipodi-0.dtd"
   xmlns:xlink="http://www.w3.org/1999/xlink"
   xmlns="http://www.w3.org/2000/svg"
   xmlns:svg="http://www.w3.org/2000/svg"
   xmlns:rdf="http://www.w3.org/1999/02/22-rdf-syntax-ns#"
   xmlns:cc="http://creativecommons.org/ns#"
   xmlns:dc="http://purl.org/dc/elements/1.1/"><sodipodi:namedview
     id="namedview1"
     pagecolor="#ffffff"
     bordercolor="#666666"
     borderopacity="1.0"
     inkscape:showpageshadow="2"
     inkscape:pageopacity="0.0"
     inkscape:pagecheckerboard="true"
     inkscape:deskcolor="#d1d1d1"
     inkscape:document-units="px"
     inkscape:zoom="2.1946698"
     inkscape:cx="-20.959873"
     inkscape:cy="84.067316"
     inkscape:window-width="1868"
     inkscape:window-height="1016"
     inkscape:window-x="52"
     inkscape:window-y="27"
     inkscape:window-maximized="1"
     inkscape:current-layer="svg1"
     showguides="true"><sodipodi:guide
       position="67.733332,68.677957"
       orientation="-1,0"
       id="guide1"
       inkscape:locked="false"
       inkscape:label=""
       inkscape:color="rgb(0,134,229)" /></sodipodi:namedview><defs
     id="defs1"><linearGradient
       inkscape:collect="always"
       xlink:href="#linearGradient1"
       id="linearGradient2"
       x1="4.5821519"
       y1="2.8357584"
       x2="26.593573"
       y2="28.716522"
       gradientUnits="userSpaceOnUse"
       gradientTransform="translate(0.30397636,0.09559961)" /><linearGradient
       id="linearGradient1"
       inkscape:collect="always"><stop
         style="stop-color:#9fb7a3;stop-opacity:1;"
         offset="0"
         id="stop1" /><stop
         style="stop-color:#b6c7b8;stop-opacity:1;"
         offset="1"
         id="stop2" /></linearGradient></defs><rect
     style="fill:url(#linearGradient2);fill-opacity:1;stroke-width:2.33101;stroke-linecap:round;stroke-opacity:0.523214;stop-color:#000000"
     id="rect393"
     width="30.274805"
     height="30.555214"
     x="0.14624533"
     y="-0.5205785"
     ry="0.0029350608"
     inkscape:label="BG" /><g
     inkscape:label="Main"
     inkscape:groupmode="layer"
     id="layer1"
     style="display:inline"><g
       id="g24"
       inkscape:label="Tail"
       inkscape:groupmode="layer"><path
         style="font-variation-settings:normal;opacity:1;fill:#a1817a;fill-opacity:1;stroke:none;stroke-width:0.793752;stroke-linecap:butt;stroke-linejoin:miter;stroke-miterlimit:4;stroke-dasharray:none;stroke-dashoffset:0;stroke-opacity:1;paint-order:fill markers stroke"
         d="m -28.611678,44.958933 4.482902,5.015 c -5.736107,0.24005 -11.710424,2.678725 -18.267662,3.334995 -1.176277,0.468601 -2.408137,1.441765 -2.630052,2.332784 2.089066,2.803725 11.102121,-0.699921 17.249209,0.298153 1.93014,1.203536 3.113221,1.848556 2.289144,4.295985 -0.96844,0.213036 -2.260596,-1.05241 -3.925154,-1.457409 -6.359468,-0.132995 -7.554571,1.626543 -12.782959,1.568766 -2.343752,-0.148409 -4.68215,-0.324568 -6.526785,-3.058856 -0.442736,-1.465056 -1.378821,-4.084103 2.158916,-6.203735 1.39663,-0.97916 8.930336,-2.506329 11.014342,-3.101359 1.736082,-0.495696 7.139183,-2.922711 6.938099,-3.024324 z"
         id="path41"
         inkscape:label="fill"
         sodipodi:nodetypes="ccccccccccsc" /><path
         id="path75"
         style="font-variation-settings:normal;display:inline;opacity:1;vector-effect:none;fill:#46241d;fill-opacity:0.073618;stroke:none;stroke-width:0.793752;stroke-linecap:butt;stroke-linejoin:miter;stroke-miterlimit:4;stroke-dasharray:none;stroke-dashoffset:0;stroke-opacity:1;-inkscape-stroke:none;paint-order:fill markers stroke;stop-color:#000000;stop-opacity:1"
         inkscape:label="shadow"
         d="m -28.611725,44.958867 c 0.201086,0.101608 -0.659463,3.108219 -5.708263,4.494102 -2.089978,0.57369 -8.615836,1.972728 -10.097552,2.817626 -0.564823,0.322077 -1.772946,1.196643 -1.737429,1.978341 l 0.709048,1.17283 c 0.06122,-0.987436 1.899393,-2.112173 2.717694,-2.3002 2.792725,-0.641708 4.904063,-0.779609 8.942317,-2.043256 3.77313,-1.180687 7.79321,-2.247619 9.494028,-1.459222 z m -18.764427,9.388454 c -0.344508,0.331918 -0.615754,1.915154 -0.06396,2.928162 1.577722,2.896518 3.100926,2.482824 5.444678,2.631246 5.228383,0.05779 6.380255,-2.307608 12.582237,-1.522476 1.699554,0.215143 2.696709,1.522204 3.488419,0.925165 0.643818,-0.485505 -1.283191,-1.320663 -2.151852,-1.676329 -3.661308,-1.499077 -9.383372,1.099006 -13.468847,1.086695 -1.792601,-0.0052 -3.514122,-0.72031 -4.590604,-2.164307 -0.544026,-0.729759 -0.723835,-2.705531 -1.240064,-2.208156 z"
         sodipodi:nodetypes="cssccssccsscssssss" /><path
         style="color:#000000;fill:#947068;stroke-width:1;-inkscape-stroke:none;paint-order:fill markers stroke"
         d="m -28.891072,44.475655 c -4.167132,3.34359 -7.97634,3.483379 -12.989516,4.584594 -1.326185,0.291306 -2.863405,0.597836 -4.229634,1.247388 -1.368488,0.650641 -2.627805,1.831623 -3.226879,3.417088 -0.514002,1.394673 -0.09665,3.061994 0.827973,4.27113 1.08369,1.417139 2.340394,1.938393 3.768458,2.27686 3.316925,0.786118 6.856392,-0.121656 10.195289,-0.797541 1.727715,-0.34801 3.389256,-0.705784 4.367586,-0.584548 3.99339,0.494858 3.341916,1.889175 4.386502,1.681593 0.847886,-0.168483 1.409738,-1.284007 1.035,-2.377906 -0.907785,-2.716983 -4.349158,-3.017181 -6.233659,-2.966399 h -0.0013 -0.0024 c -2.398539,0 -5.60309,1.33781 -12.148602,1.203945 -0.512039,-0.01045 -1.300859,-0.319336 -1.670295,-0.703424 -0.0057,-0.255814 0.552165,-1.047669 0.869874,-1.300121 1.277384,-1.015032 3.139582,-0.918946 5.282589,-1.314623 4.830988,-0.89199 10.18027,-2.652648 14.996405,-2.849853 l -1.072287,-0.92375 c -4.99189,0.204399 -9.391417,2.265124 -14.129675,3.139993 -2.098805,0.387518 -3.79281,0.332348 -5.32722,1.551615 -0.378875,0.30107 -0.821803,0.988112 -0.971598,1.396941 -0.523772,-0.41228 -1.022833,-1.227526 -1.445852,-1.909125 0.315898,1.149208 0.686631,2.100031 1.731553,2.893868 2.210736,1.679517 12.238029,-0.336463 13.909777,-0.390317 1.532466,-0.04939 4.675315,0.136023 5.418301,2.427839 0.341354,1.052956 -0.206232,1.348927 -0.341032,1.371013 -1.062142,0.173958 -0.845322,-0.938063 -4.475265,-1.387866 -1.204767,-0.149302 -2.600224,-0.08841 -4.335942,0.261226 -3.328005,0.877046 -6.92314,1.939242 -10.237398,1.053815 -1.307546,-0.349332 -2.540544,-1.055432 -3.293389,-2.374647 -0.772785,-1.354159 -0.817491,-2.360183 -0.325005,-3.791476 0.47044,-1.367222 1.541464,-1.962817 2.790147,-2.556496 1.250809,-0.594691 1.401206,-0.683331 4.054623,-1.188677 2.748257,-0.523397 9.177742,-2.11685 13.257616,-4.56582 z"
         id="path4"
         sodipodi:nodetypes="cssssassscccsscssccssccssssssasssscc"
         inkscape:label="outline" /><g
         id="g87"
         inkscape:label="spots"
         transform="matrix(0.60138104,0,0,0.60138104,-52.335453,-10.808923)"
         style="stroke-width:1.66284"><ellipse
           style="font-variation-settings:normal;opacity:1;vector-effect:none;fill:#947068;fill-opacity:1;stroke:none;stroke-width:1.31992;stroke-linecap:butt;stroke-linejoin:miter;stroke-miterlimit:4;stroke-dasharray:none;stroke-dashoffset:0;stroke-opacity:1;-inkscape-stroke:none;paint-order:fill markers stroke"
           id="path84"
           cx="9.8101377"
           cy="102.3931"
           rx="0.33495447"
           ry="0.19690117"
           transform="matrix(0.96156077,-0.27459222,0.26341323,0.96468309,0,0)" /><ellipse
           style="font-variation-settings:normal;opacity:1;vector-effect:none;fill:#947068;fill-opacity:1;stroke:none;stroke-width:1.31992;stroke-linecap:butt;stroke-linejoin:miter;stroke-miterlimit:4;stroke-dasharray:none;stroke-dashoffset:0;stroke-opacity:1;-inkscape-stroke:none;paint-order:fill markers stroke"
           id="ellipse85"
           cx="11.118478"
           cy="104.60455"
           rx="0.45847878"
           ry="0.26951429"
           transform="matrix(0.96156077,-0.27459223,0.26341324,0.96468309,0,0)" /><ellipse
           style="font-variation-settings:normal;opacity:1;vector-effect:none;fill:#947068;fill-opacity:1;stroke:none;stroke-width:1.31992;stroke-linecap:butt;stroke-linejoin:miter;stroke-miterlimit:4;stroke-dasharray:none;stroke-dashoffset:0;stroke-opacity:1;-inkscape-stroke:none;paint-order:fill markers stroke"
           id="ellipse86"
           cx="9.6374216"
           cy="105.36188"
           rx="0.53193128"
           ry="0.31269294"
           transform="matrix(0.96156077,-0.27459223,0.26341325,0.96468309,0,0)" /><ellipse
           style="font-variation-settings:normal;opacity:1;vector-effect:none;fill:#947068;fill-opacity:1;stroke:none;stroke-width:1.31993;stroke-linecap:butt;stroke-linejoin:miter;stroke-miterlimit:4;stroke-dasharray:none;stroke-dashoffset:0;stroke-opacity:1;-inkscape-stroke:none;paint-order:fill markers stroke"
           id="ellipse87"
           cx="7.0477052"
           cy="103.72897"
           rx="0.31234378"
           ry="0.18360962"
           transform="matrix(0.96156077,-0.27459222,0.26341325,0.96468309,0,0)" /></g></g><g
       id="g42"
       inkscape:label="Nose"
       inkscape:groupmode="layer"><path
         style="font-variation-settings:normal;opacity:1;fill:#615551;fill-opacity:1;stroke:none;stroke-width:0.47625;stroke-linecap:butt;stroke-linejoin:miter;stroke-miterlimit:4;stroke-dasharray:none;stroke-dashoffset:0;stroke-opacity:1;paint-order:fill markers stroke"
         d="m 18.475486,26.436184 c 0.107657,-0.06075 1.563082,-2.161107 3.566356,-3.195245 -2.492226,0.95044 -2.832304,1.593813 -3.566356,3.195245 z"
         id="path70"
         sodipodi:nodetypes="ccc"
         inkscape:label="hair" /><path
         style="font-variation-settings:normal;display:inline;opacity:1;fill:#a1817a;fill-opacity:1;stroke:none;stroke-width:0.47625;stroke-linecap:butt;stroke-linejoin:miter;stroke-miterlimit:4;stroke-dasharray:none;stroke-dashoffset:0;stroke-opacity:1;paint-order:fill markers stroke"
         d="m 14.315603,11.155516 4.811572,7.733 7.63165,7.509259 c 0.230013,1.368619 -0.287266,2.313612 -2.3158,2.087764 -2.61745,-3.35889 -6.058538,-6.584659 -9.449619,-9.818507 l -5.8883646,-2.71565 z"
         id="path64"
         inkscape:label="fill"
         sodipodi:nodetypes="ccccccc" /><path
         style="font-variation-settings:normal;opacity:1;fill:#615551;fill-opacity:1;stroke:none;stroke-width:0.47625;stroke-linecap:butt;stroke-linejoin:miter;stroke-miterlimit:4;stroke-dasharray:none;stroke-dashoffset:0;stroke-opacity:1;paint-order:fill markers stroke"
         d="m 18.045164,17.899798 c 0.06294,-0.0234 1.283918,-1.189648 2.427092,-1.561283 -1.324924,0.239048 -1.654386,0.612931 -2.427092,1.561283 z"
         id="path69"
         sodipodi:nodetypes="ccc"
         inkscape:label="hair" /><path
         style="font-variation-settings:normal;display:inline;opacity:1;vector-effect:none;fill:#46241d;fill-opacity:0.073618;stroke:none;stroke-width:0.793752;stroke-linecap:butt;stroke-linejoin:miter;stroke-miterlimit:4;stroke-dasharray:none;stroke-dashoffset:0;stroke-opacity:1;-inkscape-stroke:none;paint-order:fill markers stroke;stop-color:#000000;stop-opacity:1"
         d="m 14.315603,11.155516 c 0,0 0.565458,1.59346 0.908253,2.800922 0.624889,2.201198 0.123742,3.197582 3.609717,6.226968 3.558849,3.092715 5.625886,7.034252 6.027456,6.76076 0.476222,-0.324346 0.367161,-0.479301 1.524238,-0.648405 0.638307,1.380169 -0.63492,2.417426 -1.762369,1.861303 -2.862596,-3.453486 -6.090492,-7.401457 -9.419973,-9.809479 -1.936048,-1.400227 -4.096426,-1.600626 -6.0979946,-2.396199 z"
         id="path76"
         inkscape:label="shadow"
         sodipodi:nodetypes="csssccscc" /><g
         id="g64"
         style="display:inline;stroke-width:1.66284"
         inkscape:label="nostrils"
         transform="matrix(0.60138104,0,0,0.60138104,-52.335453,-10.808923)"><ellipse
           style="font-variation-settings:normal;opacity:1;fill:#3f302b;fill-opacity:1;stroke:none;stroke-width:0.791926;stroke-linecap:butt;stroke-linejoin:miter;stroke-miterlimit:4;stroke-dasharray:none;stroke-dashoffset:0;stroke-opacity:1;paint-order:fill markers stroke"
           id="path63"
           cx="129.22163"
           cy="63.403152"
           rx="0.35661733"
           ry="0.62066323" /><ellipse
           style="font-variation-settings:normal;opacity:1;fill:#3f302b;fill-opacity:1;stroke:none;stroke-width:0.791926;stroke-linecap:butt;stroke-linejoin:miter;stroke-miterlimit:4;stroke-dasharray:none;stroke-dashoffset:0;stroke-opacity:1;paint-order:fill markers stroke"
           id="ellipse63"
           cx="130.39105"
           cy="62.9688"
           rx="0.34708923"
           ry="0.60408038" /></g><path
         style="color:#000000;fill:#947068;stroke-width:1;-inkscape-stroke:none;paint-order:fill markers stroke"
         d="m 14.94593,12.548748 c 0,0 1.613447,3.430684 2.830817,5.05659 2.536463,3.387648 4.143743,4.30519 8.424661,8.602808 -0.32844,0.123688 -0.669853,0.238276 -0.848761,0.395961 0.395183,-0.06091 0.81648,-0.158021 1.189662,-0.0051 0.244675,1.340254 -0.915789,2.071918 -1.860188,1.68046 -0.02024,-0.407209 0.09134,-0.8541 0.25249,-1.270791 -0.190277,0.227822 -0.412342,0.527058 -0.520667,0.967244 -1.198011,-1.436564 -5.977473,-7.177799 -9.315208,-9.593521 -1.380197,-0.998931 -4.587901,-2.005185 -4.587901,-2.005185 l 0.03657,0.43674 c 0,0 3.039424,1.233592 4.205222,2.077348 3.169921,2.294264 8.084663,7.958483 9.691393,9.872279 2.048325,0.562335 3.137903,-1.55999 2.513565,-2.530027 -2.871852,-2.868009 -5.924476,-5.532791 -8.409925,-8.755263 -1.085591,-1.449895 -3.010787,-4.943486 -3.010787,-4.943486 -0.197133,0.05585 -0.390216,0.02872 -0.590916,0.01393 z"
         id="path14"
         sodipodi:nodetypes="csccccccsccsccsccc"
         inkscape:label="outline" /><path
         style="font-variation-settings:normal;opacity:1;fill:#615551;fill-opacity:1;stroke:none;stroke-width:0.47625;stroke-linecap:butt;stroke-linejoin:miter;stroke-miterlimit:4;stroke-dasharray:none;stroke-dashoffset:0;stroke-opacity:1;paint-order:fill markers stroke"
         d="m 24.340656,24.676581 c 0.13488,-0.06467 2.526358,-2.77323 4.994292,-3.845418 -2.923714,0.875843 -3.556851,1.786554 -4.994292,3.845418 z"
         id="path65"
         sodipodi:nodetypes="ccc"
         inkscape:label="hair" /><path
         style="font-variation-settings:normal;opacity:1;fill:#615551;fill-opacity:1;stroke:none;stroke-width:0.47625;stroke-linecap:butt;stroke-linejoin:miter;stroke-miterlimit:4;stroke-dasharray:none;stroke-dashoffset:0;stroke-opacity:1;paint-order:fill markers stroke"
         d="m 20.534336,29.24969 c 0.0808,-0.09356 0.740769,-2.562199 2.276693,-4.212498 -2.02439,1.736767 -2.127037,2.457214 -2.276693,4.212498 z"
         id="path66"
         sodipodi:nodetypes="ccc"
         inkscape:label="hair" /><path
         style="font-variation-settings:normal;opacity:1;fill:#615551;fill-opacity:1;stroke:none;stroke-width:0.47625;stroke-linecap:butt;stroke-linejoin:miter;stroke-miterlimit:4;stroke-dasharray:none;stroke-dashoffset:0;stroke-opacity:1;paint-order:fill markers stroke"
         d="m 21.008133,21.914921 c 0.06152,-0.05826 0.906773,-1.965423 2.050564,-2.965379 -1.41941,0.949859 -1.618535,1.529043 -2.050564,2.965379 z"
         id="path67"
         sodipodi:nodetypes="ccc"
         inkscape:label="hair" /><path
         style="font-variation-settings:normal;opacity:1;fill:#615551;fill-opacity:1;stroke:none;stroke-width:0.47625;stroke-linecap:butt;stroke-linejoin:miter;stroke-miterlimit:4;stroke-dasharray:none;stroke-dashoffset:0;stroke-opacity:1;paint-order:fill markers stroke"
         d="m 16.783948,21.720427 c 0.04737,-0.02056 0.95002,-0.994344 1.81099,-1.32451 -1.047148,0.09843 -1.287923,0.413305 -1.81099,1.32451 z"
         id="path68"
         sodipodi:nodetypes="ccc"
         inkscape:label="hair" /><path
         style="font-variation-settings:normal;opacity:1;fill:#615551;fill-opacity:1;stroke:none;stroke-width:0.47625;stroke-linecap:butt;stroke-linejoin:miter;stroke-miterlimit:4;stroke-dasharray:none;stroke-dashoffset:0;stroke-opacity:1;paint-order:fill markers stroke"
         d="m 14.273045,19.737404 c 0.03711,-0.02574 0.652945,-0.976151 1.334357,-1.409597 -0.876372,0.287636 -1.031996,0.584711 -1.334357,1.409597 z"
         id="path81"
         sodipodi:nodetypes="ccc"
         inkscape:label="hair" /></g><g
       id="g89"
       inkscape:label="Foot L"
       inkscape:groupmode="layer"
       transform="translate(17.201691,-5.7691136)"
       style="display:inline"><path
         style="font-variation-settings:normal;opacity:1;vector-effect:none;fill:#a1817a;fill-opacity:1;stroke:none;stroke-width:0.793752;stroke-linecap:butt;stroke-linejoin:miter;stroke-miterlimit:4;stroke-dasharray:none;stroke-dashoffset:0;stroke-opacity:1;-inkscape-stroke:none;paint-order:fill markers stroke"
         d="m -28.018514,54.02225 2.974503,-1.023063 c 1.686838,0.99872 3.349403,1.764047 5.714336,2.413302 0.688683,0.768836 0.445058,1.267343 -0.246897,1.521867 0.20705,0.128453 2.321615,1.280233 2.818857,1.66668 0.665241,0.66224 -0.166164,1.500828 -0.972519,1.300358 -0.949755,-0.472205 -2.340328,-1.645012 -3.218914,-1.471391 0.322435,0.329417 0.708814,0.697583 0.896597,1.0113 0.284977,1.094707 -0.278676,1.661437 -1.115776,1.127155 l -1.858938,-2.191322 c 0.153103,1.005635 -1.272957,1.396687 -1.911702,0.0343 -1.365678,-1.624519 -1.841177,-2.734256 -3.079549,-4.389225 z"
         id="path87"
         inkscape:label="fill"
         sodipodi:nodetypes="ccccccccccccc" /><path
         id="path88"
         style="font-variation-settings:normal;display:inline;opacity:1;vector-effect:none;fill:#46241d;fill-opacity:0.073618;stroke:none;stroke-width:0.793752;stroke-linecap:butt;stroke-linejoin:miter;stroke-miterlimit:4;stroke-dasharray:none;stroke-dashoffset:0;stroke-opacity:1;-inkscape-stroke:none;paint-order:fill markers stroke;stop-color:#000000;stop-opacity:1"
         inkscape:label="shadow"
         d="m -24.954068,53.194599 c -1.081304,0.0031 -1.935914,0.291788 -2.93307,0.796199 0.64884,1.153166 1.035781,1.247062 1.930511,2.211743 0.09699,0.104558 1.129173,2.177237 1.830248,2.669223 0.533138,0.374124 0.697754,-0.394114 0.628256,-0.828103 -0.05486,-0.342525 -0.677245,-1.41568 -0.677245,-1.41568 0.579748,0.231284 0.86498,1.152296 1.147466,1.514431 0.270511,0.346785 0.704482,0.633212 0.817954,0.753 0.388055,0.409689 0.581157,1.618312 1.521227,1.602024 0.36335,-0.0063 0.482673,-0.484107 0.437259,-0.598853 -0.0527,-0.13315 -0.01659,0.469458 -0.715399,0.193927 -0.07005,-0.02768 -0.418923,-0.628041 -0.829761,-1.370206 -0.912526,-1.6484 -0.753119,-1.170386 -1.49041,-2.342501 -0.51421,-0.817478 1.559004,1.100611 2.222589,1.772551 -0.007,-0.360951 1.946811,0.446952 2.645604,1.001305 0.07349,0.04615 0.68598,0.451995 0.869539,0.480458 0.622034,0.09649 1.207703,-0.687137 0.372619,-0.428251 -0.43046,0.133445 -0.585469,-0.416117 -1.121579,-0.707934 -0.365881,-0.19916 -1.303152,-0.675905 -2.246091,-1.001072 -1.455342,-0.501875 -2.167281,-1.678972 -2.347434,-2.222261 -0.06916,-0.208527 2.937188,1.381048 3.121707,1.449754 0.218125,-0.01625 0.463789,-0.10887 0.546649,-0.272238 0.127487,-0.251324 0.109506,-0.479777 -0.306733,-0.217219 -0.541053,0.341277 -3.361914,-1.67187 -4.945628,-3.023821 -0.164802,-0.01132 -0.323806,-0.01689 -0.478278,-0.01647 z"
         sodipodi:nodetypes="scssscsscssssccssssscsscss" /><path
         style="color:#000000;fill:#947068;stroke-width:0.999994;-inkscape-stroke:none;paint-order:fill markers stroke"
         d="m -27.475546,54.611069 -0.613221,-0.02822 c 0.774077,0.994854 1.731008,2.22805 2.549416,3.381434 0.453079,0.666929 0.860182,1.653162 1.805849,1.570771 0.303344,-0.02632 0.754365,-0.425376 0.773705,-0.786277 0.231467,0.282306 0.454181,0.487768 0.642369,0.839827 0.229263,0.4289 0.20115,0.856565 0.865203,1.198325 1.604369,0.825667 1.81569,-0.615834 1.581695,-1.218535 -0.127801,-0.329185 -0.634859,-0.831928 -0.918942,-1.189105 0.231901,0.08211 1.66415,0.931236 1.805102,1.016542 0.305896,0.185127 0.564555,0.488366 0.733381,0.614742 0.72598,0.543446 1.748206,0.120764 2.060561,-0.507716 0.172471,-0.347024 -0.07713,-0.905385 -0.470248,-1.06275 -0.445516,-0.17742 -2.24428,-1.200958 -2.629699,-1.483924 0.320632,-0.04353 0.59303,-0.462692 0.617728,-0.70032 0.01969,-0.475476 -0.616787,-0.935253 -1.292548,-1.138219 -1.344437,-0.403827 -2.209083,-0.77273 -3.613935,-1.44681 l -0.168024,0.26453 c 1.569797,0.945406 2.025223,1.017434 3.319748,1.440149 0.557895,0.18217 1.325228,0.258719 1.314784,0.883853 -0.003,0.178163 -0.15866,0.374094 -0.478948,0.458749 l -3.131498,-1.447247 c 0.483665,0.567138 3.542284,1.803815 4.648868,2.713332 0.04208,0.0346 -0.351116,0.152826 -0.302718,0.172971 0.235708,0.09817 0.497269,0.0032 0.960997,0.207026 0.471602,0.206963 0.797547,0.514092 0.654725,0.967241 -0.13142,0.416955 -0.807031,0.432981 -1.12303,0.196453 -0.135496,-0.101409 -0.649875,-0.398119 -0.997368,-0.608449 -0.391459,-0.236915 -1.609618,-0.839847 -2.214084,-0.887388 -0.644861,-0.75539 -1.022471,-1.261281 -2.088212,-1.807108 0.942413,1.076091 1.533313,1.670654 2.239203,2.419627 0.106273,0.112747 -0.437091,0.114138 -0.19173,0.179705 0.797515,0.213087 0.940415,0.741159 0.938209,1.100412 -0.0019,0.314669 -0.227387,0.844535 -0.933341,0.520185 -0.225238,-0.103506 -0.625441,-0.546635 -0.872791,-1.122897 -0.192864,-0.449332 -0.730636,-0.812182 -0.920753,-0.984996 -0.09326,-0.401171 -0.116848,-0.713179 -0.827055,-1.337999 0.170085,0.277198 0.270579,0.493914 0.358112,0.750336 0.205289,0.60134 0.05155,1.113092 -0.429024,1.292639 -0.213328,0.07949 -0.591272,-0.323679 -0.870161,-0.666435 -0.361177,-0.443908 -0.339457,-1.075367 -0.551124,-1.434757 -0.0447,-0.07582 -0.0224,0.621045 -0.115446,0.446038 -0.683681,-1.285601 -1.652777,-2.314646 -2.11575,-2.775776 z"
         id="path89"
         inkscape:label="outline"
         sodipodi:nodetypes="ccsscssscssascssccssccssssssccsssssccssssscc" /></g><g
       id="g41"
       inkscape:label="Foot R"
       inkscape:groupmode="layer"><path
         style="font-variation-settings:normal;opacity:1;vector-effect:none;fill:#a1817a;fill-opacity:1;stroke:none;stroke-width:0.793752;stroke-linecap:butt;stroke-linejoin:miter;stroke-miterlimit:4;stroke-dasharray:none;stroke-dashoffset:0;stroke-opacity:1;-inkscape-stroke:none;paint-order:fill markers stroke"
         d="m -19.616676,51.783678 4.250125,-0.147845 c 1.403032,1.691556 2.909318,2.500161 4.038512,3.569124 0.269346,0.916501 -0.07721,1.135461 -0.749101,1.276488 0.170007,0.213874 1.06136,1.164523 1.44034,1.761246 0.202813,0.585985 -0.226631,1.168456 -0.970961,1.054435 -0.823854,-0.856397 -1.625565,-2.096326 -2.49069,-2.237845 0.07014,1.272576 1.069389,1.641551 1.389639,3.504611 -0.116726,1.256657 -1.04384,1.079742 -1.5499,0.7954 l -2.060951,-4.446533 c -0.05088,0.528239 0.05575,0.846181 -0.09526,1.359079 -0.445094,0.655086 -0.981474,0.63131 -1.31505,0.288963 -0.82921,-2.238914 -1.428481,-4.500935 -1.886703,-6.777123 z"
         id="path82"
         inkscape:label="fill"
         sodipodi:nodetypes="ccccccccccccc" /><path
         id="path83"
         style="font-variation-settings:normal;display:inline;opacity:1;vector-effect:none;fill:#46241d;fill-opacity:0.073618;stroke:none;stroke-width:0.793752;stroke-linecap:butt;stroke-linejoin:miter;stroke-miterlimit:4;stroke-dasharray:none;stroke-dashoffset:0;stroke-opacity:1;-inkscape-stroke:none;paint-order:fill markers stroke;stop-color:#000000;stop-opacity:1"
         inkscape:label="shadow"
         d="m -15.366607,51.635827 -4.250125,0.147937 c 0.215986,0.846759 0.211073,1.343764 0.533907,1.556967 0.133049,0.08787 0.435815,-0.356789 0.59948,-0.362985 0.208368,-0.0079 0.583806,0.562749 0.716332,0.76326 0.08428,0.127522 0.632483,-0.715845 1.051964,-0.693957 0.776782,0.209153 0.960339,1.315631 1.399598,2.000845 0.428663,0.668679 0.843064,1.350237 1.204053,2.056295 0.07005,-0.3863 -0.153625,-1.12252 1.883706,0.909234 0.06869,0.06849 0.551416,0.691122 0.614281,0.771729 0.463127,0.593736 1.258347,-0.314795 0.380018,-0.172425 -0.497344,0.08065 -0.524901,-0.450182 -0.991961,-0.947692 -0.768451,-0.818559 -1.733146,-2.035592 -1.73501,-3.129073 -4.19e-4,-0.24561 1.74579,1.685033 1.693398,1.619118 0.237197,0.05946 0.486335,0.03357 0.611492,-0.128461 0.244898,-0.317178 0.348614,-0.440354 -0.185237,-0.307298 -0.69394,0.172951 -2.317655,-2.093626 -3.525896,-4.083494 z m -1.785077,3.452989 c 0.2403,0.988353 0.275333,1.760818 0.125242,2.623234 -0.09036,0.519199 -0.347246,1.116814 0.108457,0.756734 0.587482,-0.464224 0.115172,-1.991355 0.0693,-2.520057 -0.02679,-0.308724 -0.06275,-0.637426 -0.303001,-0.859911 z m 2.551236,1.717671 c 0.103391,1.140444 0.476433,2.057837 0.981623,3.052073 0.236716,0.447621 -0.338122,1.175418 -0.302383,1.277578 0.191688,0.547915 0.963722,-0.207393 0.702348,-1.035179 -0.256814,-0.813336 -0.933872,-1.949668 -1.381588,-3.294472 z"
         sodipodi:nodetypes="ccssscacssssscssccsssccsssc" /><path
         style="color:#000000;fill:#947068;stroke-width:1;-inkscape-stroke:none;paint-order:fill markers stroke"
         d="m -19.472148,51.802345 -0.669455,0.106243 c 0.442158,1.347946 0.980181,3.389252 1.409488,4.922634 0.226997,0.879135 0.32101,1.969301 1.31349,2.345334 0.511113,0.131316 1.448765,-0.573189 1.245704,-1.553991 0.378244,0.622168 0.585029,1.553497 0.8224,2.028806 0.240095,0.480762 0.20096,0.919354 0.658936,1.619738 1.087795,1.663555 2.622813,-0.103819 2.412575,-0.694164 -0.246741,-0.692811 -0.762168,-1.29931 -1.041847,-1.940407 -0.08941,-0.20497 -0.475979,-1.061838 -0.557946,-1.303064 0.21363,0.173739 0.910684,0.711344 1.027227,0.854677 0.252912,0.311041 0.289382,0.580991 0.419872,0.778453 0.561129,0.849077 1.560081,0.801966 2.075468,0.327706 0.321531,-0.295876 0.25901,-0.993428 -0.09632,-1.3073 -0.403018,-0.354754 -0.971188,-0.922407 -1.271183,-1.367237 0.354351,0.0731 0.622567,-0.152931 0.737927,-0.396968 0.199487,-0.499304 0.043,-1.194412 -0.59316,-1.662009 -1.265655,-0.930311 -1.949567,-1.52858 -3.29727,-2.771764 l -0.334548,0.203138 c 1.258701,1.61656 1.639459,1.889126 2.96589,2.746441 0.551615,0.356525 0.942645,0.639627 0.696656,1.301856 -0.07011,0.188726 -0.105728,0.180041 -0.475228,0.151149 l -1.513614,-1.33199 c 0.296746,0.784201 1.341341,1.543619 1.854578,2.252781 0.03584,0.04949 -0.340792,-0.0074 -0.319732,0.04719 0.07953,0.206858 0.293558,0.123114 0.705963,0.512445 0.419411,0.395939 0.723624,0.797582 0.402714,1.227322 -0.295292,0.395426 -0.725781,0.05895 -0.970026,-0.310705 -0.104728,-0.158469 -0.413258,-0.516578 -0.700565,-0.869927 -0.323661,-0.398034 -0.821193,-0.794195 -1.440613,-1.069661 l -1.021612,-1.986522 c 0.154503,1.502344 1.058891,3.229611 1.521584,4.290212 0.06966,0.159685 -0.534292,0.01583 -0.181471,0.211924 0.656815,0.364916 0.89875,1.229891 0.761387,1.611871 -0.120313,0.334576 -0.85831,0.961755 -1.225286,0.172741 -0.169109,-0.363615 -0.387482,-1.243642 -0.687638,-1.808263 -0.770727,-1.449796 -1.377818,-2.48166 -2.16287,-3.724504 0.07512,0.358622 0.223269,0.853386 0.368378,1.502475 0.11694,0.776942 0.07436,1.691975 -0.499806,1.704551 -0.254808,0.0052 -0.765431,-0.571754 -0.930627,-1.040706 -0.213935,-0.607339 0.04631,-1.272105 -0.04174,-1.73377 -0.01859,-0.09743 -0.257038,0.653421 -0.289379,0.432341 -0.236883,-1.619471 -1.004611,-4.126018 -1.078291,-4.479101 z"
         id="path19"
         inkscape:label="outline"
         sodipodi:nodetypes="ccsscsssscssascssccssccssssssccsssssccssssc" /></g><g
       id="g25"
       inkscape:groupmode="layer"
       inkscape:label="Backpack (main)"><path
         style="font-variation-settings:normal;opacity:1;fill:#3e82ae;fill-opacity:1;stroke:none;stroke-width:0.793752;stroke-linecap:butt;stroke-linejoin:miter;stroke-miterlimit:4;stroke-dasharray:none;stroke-dashoffset:0;stroke-opacity:1;paint-order:fill markers stroke"
         d="m -15.900763,8.187207 c -2.484022,0.2002248 -9.012136,-0.1740865 -9.166518,3.614398 l 0.820554,-0.08105 c -1.850289,1.890011 -3.671414,3.346938 -6.000354,4.928413 -1.371599,1.983641 -1.200955,4.842925 0.522539,7.450876 1.494438,0.773117 3.177056,1.306747 4.991923,1.45878 4.859477,-5.424537 8.02511,-11.031477 8.831856,-17.3714253 z"
         id="path49"
         inkscape:label="fill"
         sodipodi:nodetypes="ccccccc" /><path
         style="font-variation-settings:normal;opacity:1;fill:#122633;fill-opacity:0.117154;stroke:none;stroke-width:0.793752;stroke-linecap:butt;stroke-linejoin:miter;stroke-miterlimit:4;stroke-dasharray:none;stroke-dashoffset:0;stroke-opacity:1;paint-order:fill markers stroke"
         d="m -17.464396,12.199648 c -0.317889,0.568737 -0.514156,1.111735 -0.811618,1.368095 -0.139314,0.120065 -0.965757,-2.288216 -1.172354,-2.320698 -0.12632,-0.01986 0.505247,2.379404 0.339981,2.286364 -0.457391,-0.257497 -1.193777,-0.805905 -2.100459,-1.80073 -0.826128,-0.906444 -2.718646,-0.589631 -3.858435,0.06894 l 0.651327,0.52762 c 1.330333,0.247638 2.393059,0.723251 2.987156,1.261223 0.19072,0.172702 -1.220271,0.640976 -1.132793,0.821052 0.0803,0.165295 1.757702,0.08151 1.650282,0.204896 -1.423536,1.635009 -4.220618,3.817253 -5.651728,5.086236 -0.996814,0.883885 -2.223782,-2.984268 -2.350428,-2.898268 0.447899,2.162671 0.391022,3.314056 0.130955,3.937358 -0.07504,0.179838 -0.502087,-0.313117 -0.603708,-0.209595 -0.08986,0.09155 0.147814,0.786619 0.04783,0.835585 -0.846571,0.41463 -1.876216,-0.409375 -0.04789,2.40034 1.494439,0.773119 2.238199,1.28214 4.496912,1.063517 4.859478,-5.424538 6.618223,-6.291972 7.424969,-12.631923 z"
         id="path72"
         inkscape:label="shadow"
         sodipodi:nodetypes="cssssccsssscssscccc" /><path
         id="path9"
         style="color:#000000;fill:#2d668b;stroke-width:1;-inkscape-stroke:none;paint-order:fill markers stroke"
         inkscape:label="outline"
         d="m -18.571199,7.9373113 c -2.126179,0.1446362 -4.5443,0.5274606 -6.049048,2.0695407 -0.50544,0.591785 -0.679905,1.348923 -0.762297,2.157688 l 0.670305,-0.160752 c -0.732304,0.688569 -2.112653,1.767114 -3.026498,2.547483 -0.951524,0.812549 -2.421669,1.374534 -3.109093,2.517111 -0.600281,0.997734 -0.722222,2.02923 -0.670087,3.428308 0.05214,1.39908 0.579647,2.814319 2.016147,3.982068 1.640919,1.33392 3.746478,1.388524 4.235509,1.388344 l 0.119011,-0.821641 c -0.405128,1.51e-4 -2.688406,0.052 -4.070822,-1.07178 -1.236228,-1.004943 -1.625095,-2.59603 -1.671225,-3.833926 -0.04612,-1.237898 -4.01e-4,-2.028869 0.523563,-2.83408 0.692379,-1.064028 2.124064,-1.278698 3.143809,-2.149499 1.256209,-1.07273 3.238295,-3.180828 3.276126,-3.216716 0.477798,-0.04486 1.338519,-0.123431 1.58543,-0.07679 1.229459,0.232269 2.290799,1.609744 3.291355,4.382506 l 0.356228,-0.53828 c -1.717735,-3.694426 -2.817828,-4.066398 -3.4875,-4.294482 -0.71795,-0.21174 -2.021619,0.128329 -2.745717,0.273397 0.04891,-0.292125 0.442646,-1.177095 0.934689,-1.639401 0.915179,-0.8598684 3.599798,-1.4713103 5.500017,-1.5019029 1.603068,-0.025811 3.683922,0.7081439 4.678323,1.1170179 l 0.306563,-0.7341052 c -2.675301,-1.1036556 -3.335062,-1.1064182 -5.044788,-0.9901116 z m -10.347455,8.6102697 c -0.161776,1.607178 1.666107,3.479867 2.67518,3.580875 -2.554525,-0.154537 -3.264437,-2.019731 -2.67518,-3.580875 z m 8.642208,-1.654707 c -3.175954,2.91555 -4.906785,4.362113 -7.353505,9.100962 0.914015,-2.415868 1.75533,-3.814281 2.903503,-5.249653 0.813486,-1.016967 2.334046,-2.179723 4.450002,-3.851309 z" /></g><g
       id="g61"
       inkscape:label="Eye L"
       inkscape:groupmode="layer"><path
         style="font-variation-settings:normal;opacity:1;fill:#302828;fill-opacity:1;stroke:none;stroke-width:0.47625;stroke-linecap:butt;stroke-linejoin:miter;stroke-miterlimit:4;stroke-dasharray:none;stroke-dashoffset:0;stroke-opacity:1;paint-order:fill markers stroke"
         d="m 13.30442,8.1500449 1.40969,2.6086241 c 0,0 0.398113,-1.4224488 0.05866,-1.9943519 C 14.262742,7.9050972 13.304447,8.1500449 13.304447,8.1500449 Z"
         id="path62"
         sodipodi:nodetypes="ccsc"
         inkscape:label="fill" /><path
         id="ellipse21"
         style="color:#000000;fill:#0d0a0a;stroke-width:1;-inkscape-stroke:none;paint-order:fill markers stroke"
         d="M 12.518982,7.9694948 12.823805,8.41252 c 0.794146,-0.5015698 1.977193,0.1158706 1.859702,1.3439151 -0.03193,0.3331109 -0.04846,0.7835639 -0.29151,1.0166629 l 0.250182,0.429672 c 0.401254,-0.36349 0.654172,-0.896 0.654172,-1.4823831 0,-1.506424 -1.555176,-2.4040753 -2.777369,-1.7508921 z"
         sodipodi:nodetypes="ccsccsc"
         inkscape:label="outline" /></g><g
       id="g47"
       inkscape:label="Cap (back)"
       style="display:inline"
       inkscape:groupmode="layer"><path
         style="font-variation-settings:normal;display:inline;opacity:1;fill:#9f520f;fill-opacity:1;stroke:none;stroke-width:0.793752;stroke-linecap:butt;stroke-linejoin:miter;stroke-miterlimit:4;stroke-dasharray:none;stroke-dashoffset:0;stroke-opacity:1;paint-order:fill markers stroke"
         d="m 16.450659,5.0740627 c 0,0 -1.820789,-1.6056013 -2.988876,-1.7185581 -0.945686,-0.091452 -2.704486,0.8925331 -2.704486,0.8925331 2.087255,-0.04299 3.93172,0.3184969 5.693362,0.826025 z"
         id="path48"
         sodipodi:nodetypes="cscc"
         inkscape:label="fill" /><path
         style="color:#000000;fill:#944c0f;fill-opacity:1;stroke-width:1;-inkscape-stroke:none;paint-order:fill markers stroke"
         d="m 10.433475,4.1241539 -0.285209,0.3234472 c 1.722822,-0.2555179 4.682653,0.028002 6.531022,1.1760508 L 16.8791,5.3308249 C 14.870809,4.0888987 12.310196,4.1211239 10.433475,4.1241539 Z"
         id="path47"
         sodipodi:nodetypes="ccccc"
         inkscape:label="outline" /></g><g
       id="g38"
       inkscape:label="Body"
       inkscape:groupmode="layer"><path
         style="color:#000000;display:inline;fill:#7d6f69;fill-opacity:1;stroke-width:1;-inkscape-stroke:none;paint-order:fill markers stroke"
         d="M 0.33041118,0.98201067 C 4.0431958,1.2252151 8.0431583,1.9084805 10.790722,4.3433973 c 0.291572,0.2583915 1.258314,0.4574052 1.50927,0.743325 l -0.580059,0.2098741 c 1.707717,2.0194607 2.521381,4.6374733 3.413453,7.1159156 -0.598251,-0.180601 -0.858724,0.04118 -0.96388,0.447973 -0.513253,-0.216206 -1.115728,-0.730322 -1.291336,0.180916 -1.080677,-0.422269 -1.127633,0.02254 -0.935214,1.061382 -1.633997,-0.33783 -0.78644,0.802802 -0.775904,1.471655 -0.740184,-0.103516 -0.701767,0.494581 -0.808329,0.962018 -0.8783626,0.346804 -3.6597002,1.457682 -5.3213083,3.671562 L 4.9796707,19.37375 c -1.3481451,1.046681 -2.6213245,2.549094 -3.5268066,4.147259 0.310748,1.171186 1.0428438,4.713193 0.9468035,5.975747 L 2.0878058,29.305259 c -0.2801745,0.59386 -0.6130347,1.681878 -1.46545512,2.52156 0.1668462,0.952885 0.3557773,1.722953 0.50206712,1.975195 l -0.56486072,-0.06051 c -0.1614869,2.645572 -1.13059959,6.691128 -1.39024938,8.961686 -0.1930789,0.806953 -0.823589,1.894975 -1.6248441,2.74659 0.045189,-0.289504 -0.1852856,-0.346684 -0.2595745,-0.588976 -0.6361213,0.689776 -2.1439196,2.070746 -3.2224975,2.677055 -0.1666374,0.09368 -0.034693,0.526051 0.028726,0.662057 -0.5533701,-0.18226 -0.7014269,-0.119539 -1.0065313,-0.387068 0.033738,0.264367 -0.0785,0.304879 -0.1565778,0.569333 -0.2796385,-0.196238 -0.4925189,-0.339402 -0.9497103,-0.483144 -0.1128111,0.161787 -0.4715952,0.637914 -0.6447132,0.799711 -0.1213834,-0.284762 -0.4200432,-0.809765 -0.7008928,-1.03582 -0.2897474,0.204939 -0.9366522,0.912723 -0.9855122,1.247145 -0.375678,-0.106572 -0.887012,-0.570798 -1.191377,-0.816246 l -3.411428,4.147869 c -0.411264,-0.06738 -0.820002,-0.234215 -1.245856,0.272338 -0.38608,-0.354265 -1.23435,-0.143605 -1.671762,0.290014 -0.310346,-0.391838 -0.882459,-0.816923 -1.524113,-0.223728 -2.514651,-1.855171 -8.130251,-3.116916 -9.305867,-8.573107 l -0.396495,0.104482 c -1.100621,-2.769726 -1.235552,-5.812388 -1.233831,-6.106451 -0.312439,0.235403 -0.561125,0.184275 -0.829562,0.559621 0.184602,-0.84242 0.518103,-1.201713 0.587847,-1.964647 -0.308814,0.149434 -0.410438,0.0386 -0.692405,0.245816 0.695964,-0.635575 0.850498,-1.478603 0.925046,-1.699486 1.297474,-3.84437 3.045846,-5.073447 3.520088,-5.978055 -0.136617,-0.05688 -0.475054,-0.09203 -0.867803,-0.171801 1.703645,-0.518205 2.113584,-1.237299 2.688063,-2.144798 -0.149168,-0.851101 -0.204143,-1.912384 0.361858,-2.115222 1.988996,-0.712799 0.501371,-1.499329 0.834112,-2.306451 0.742787,-1.801753 1.583229,-2.87475 2.784396,-4.157267 -0.103903,-0.225721 -0.825427,-0.354392 -1.466108,-0.286822 0.917811,-0.407994 2.087638,-0.879239 2.668348,-0.631896 0.540014,-0.345581 0.777023,-0.770537 1.018558,-1.398286 0.169373,-1.597891 1.259944,-4.139339 2.185292,-5.61175 -0.286839,-0.07816 -0.524324,-0.187487 -0.98985,-0.166539 0.834047,-0.720665 0.968655,-0.06579 1.716585,-1.0138253 -0.529592,-0.084083 -0.979333,-0.18845 -1.630905,-0.098839 0.57722,-0.7029555 2.034985,-0.7362775 2.296982,-1.0123917 4.001368,-3.8542699 8.2381083,-7.54978859 15.55341208,-7.07060154 z"
         id="path40"
         inkscape:label="fill"
         sodipodi:nodetypes="sscccccccccccccccccccsccccccccccccccccccscccsscccccccccs" /><path
         id="path71"
         style="color:#000000;display:inline;fill:#2f2a27;fill-opacity:0.110696;stroke-width:1;-inkscape-stroke:none;paint-order:fill markers stroke"
         inkscape:label="shadow"
         d="m 2.4151605,-0.16341529 c -0.8589559,0.0226744 -1.58890072,0.3584453 -2.08466212,1.1455067 L -2.1174549,4.8679872 c 0.7507016,1.9242313 7.2135294,3.3683343 1.43639019,9.4418838 -0.26199768,0.276111 -1.39898169,-0.287764 -1.97620149,0.415191 0.651572,-0.08961 1.3409474,0.476868 1.87053901,0.560943 -0.74792951,0.948048 -0.76643151,-0.04069 -1.60047721,0.67997 0.4655251,-0.02094 0.059804,3.435518 -2.0995779,3.696325 -0.1189797,0.01437 0.1282929,0.468215 0.017095,0.472063 -0.1115674,0.0038 -0.5815136,-0.442412 -0.6861851,-0.448443 -1.7995358,-0.103725 -2.6494441,-1.612427 -4.9325766,-2.654928 -0.142296,-0.06497 -1.22989,-1.149859 -1.375791,-1.204553 -0.328374,-0.123097 0.219694,0.753243 -0.103798,0.627448 -3.269825,-1.271517 -6.523435,-1.547841 -6.726356,-0.777551 -0.102202,0.387946 -0.02071,0.149735 -0.05532,0.476102 -0.241534,0.627749 -0.792893,1.294054 -1.332903,1.639634 -0.305892,-0.130288 3.158042,0.89386 5.004056,2.535902 1.061205,0.943952 1.85522,-0.522716 3.838037,1.286287 0.738426,0.673697 1.3586088,3.136434 1.1231305,4.016111 -0.034252,0.127959 0.1509114,0.686005 0.1065951,0.810494 -0.050614,0.142172 -0.332346,-0.149784 -0.3949906,-0.01275 -0.459933,1.006149 -1.22848,1.865201 -2.074716,2.449508 -0.09402,0.06492 -0.278343,0.908955 -0.376034,0.968677 -0.258366,0.157956 -0.313315,-0.611945 -0.567781,-0.528623 -0.416218,0.136285 -0.805238,0.187247 -1.095162,0.199515 -0.819078,0.03467 1.897326,3.717951 2.596813,4.178955 -1.685521,-0.655118 -2.193007,-2.354632 -3.153712,-3.652192 l -0.424826,0.267575 c -0.598678,-2.298468 -1.192921,-4.737634 -1.345022,-4.019218 -0.211124,0.997198 -1.146828,1.200345 -1.887631,0.942572 -2.734139,-0.95138 -5.497877,-4.765691 -5.410545,-4.385617 0.09054,0.394017 0.515477,1.93056 -0.548203,2.089321 -0.669197,0.09989 -0.27472,1.512944 -0.125552,2.364045 -0.574478,0.907498 -0.461197,1.04964 -2.164839,1.567845 0.747669,0.725702 1.472985,3.219817 3.33179,5.173117 -0.06303,0.120232 -0.870578,0.236095 -0.786877,0.313879 0.107125,0.09954 0.930781,0.261789 1.285666,0.56747 0.970133,0.835626 2.580558,1.074885 2.055136,3.245395 -0.05486,0.226577 -0.229206,1.063728 -0.925169,1.699301 0.281967,-0.207229 0.688142,0.04469 0.996958,-0.104727 -0.06974,0.762933 -1.795641,0.56631 -1.980241,1.408728 0.430522,0.07168 0.557722,0.569484 0.870163,0.33408 -0.0018,0.294061 -4.941143,1.677125 -3.840524,4.44686 l 0.480453,-0.634913 c 1.175614,5.456178 2.996961,4.896966 5.685889,6.589945 0.266038,-0.245941 0.796346,-0.381048 0.981731,-0.412084 0.261739,0.05739 0.597744,0.572416 0.779418,0.801793 0.205115,-0.203336 0.699562,-0.956266 0.852757,-1.088942 0.116366,0.236487 0.565059,0.607752 0.770094,0.795881 0.108796,-0.129404 0.08866,-0.451318 0.207596,-0.569328 0.367542,0.0023 0.997603,0.1966 1.202378,0.07769 0.858111,-0.923985 4.049614,-5.747321 4.9751526,-6.941749 0.070613,-0.09114 -1.4950476,2.671187 -1.8083826,3.284267 0.304364,0.245446 0.608848,0.483899 0.984527,0.590468 0.04886,-0.334425 0.7426376,-0.923787 1.0323849,-1.128729 0.2808487,0.226057 0.6978127,0.535371 0.8191952,0.820133 0.1731189,-0.161799 0.2681955,-0.432718 0.3810075,-0.59451 0.4571882,0.143749 0.6884158,0.23573 0.9680543,0.431976 0.07807,-0.264462 0.1944014,-0.40255 0.1606701,-0.666923 0.3051033,0.267529 0.4109557,0.375581 0.964326,0.557838 -0.063418,-0.136006 -0.095783,-0.513271 0.070853,-0.606944 1.0785769,-0.606299 2.7780236,-1.904256 3.4141441,-2.594031 0.074288,0.24229 0.3733694,0.08685 0.3281761,0.376347 0.8012552,-0.851611 1.3020458,-1.532551 1.49512583,-2.339505 0.25964864,-2.270553 0.84727925,-6.906636 1.00876615,-9.552206 l 0.4580806,-0.03917 C -1.6756674,26.3198 0.55559328,22.105804 5.328036,18.704808 l 0.087954,0.51495 c 1.6616069,-2.213876 3.5286944,-2.598076 4.4070504,-2.94488 0.0172,-0.36143 -0.244621,-0.606354 -0.427619,-0.884146 0.456682,-0.30583 0.8956766,-0.248135 1.3406626,-0.315745 -0.207626,-0.548715 -0.708496,-1.060407 -1.1753346,-1.576237 0.7967616,0.0013 1.6434406,-0.01528 2.0588696,0.122134 L 10.80788,12.1068 l 1.779168,0.493819 c 0.147515,-0.478782 0.0081,-0.769209 -0.01274,-1.137428 0.418155,0.351506 0.830518,0.799058 1.260182,0.965882 -0.05776,-0.392573 -0.129361,-0.804682 -0.03887,-0.987324 0.273019,0.201678 0.461359,0.271092 0.669401,0.33004 C 13.572953,9.2933491 12.853312,7.8830003 11.415103,5.5159445 L 12.299875,5.0867671 C 12.048919,4.8008487 11.082328,4.6017909 10.79077,4.3433994 8.7300892,2.5172147 4.9920183,-0.23143479 2.4151522,-0.16341949 Z M 1.6000047,25.692525 0.41005678,26.653744 0.61982838,31.547787 C 1.258082,30.509895 1.4904232,29.53987 1.7547687,28.53143 l 0.3082859,0.05748 C 1.2586595,27.766971 1.5651904,26.571364 1.6000047,25.692525 Z m -8.0429027,-0.33555 c 0.3036834,1.813389 0.5927564,3.62495 0.1816055,5.348928 L -6.4838049,30.5356 c -0.3182107,1.39634 -0.854225,2.146107 -1.3624251,2.978441 0.3214379,-0.937407 0.7686577,-2.38098 1.0782204,-3.967943 0.021321,-0.109283 0.2858649,0.218818 0.3057914,0.108291 0.2293734,-1.272283 0.1169655,-3.057029 0.019317,-4.297417 z"
         sodipodi:nodetypes="sccccccsccssssccssssssssscccsssscccssscccccccccccccsccccccccscccccccccccccccccccccsccccccccccssc" /><path
         style="color:#000000;fill:#615551;stroke-width:1;-inkscape-stroke:none;paint-order:fill markers stroke"
         d="m 1.6191278,23.185096 -0.4832291,0.79843 c 0.1163775,0.217847 1.2533497,4.643879 1.135558,5.167794 -0.067311,-0.106019 -0.2238916,-0.372639 -0.4290454,-0.386556 -0.1164953,0.769383 -0.87966442,2.386208 -1.27951412,3.05448 l 0.1738732,0.515165 c 0,0 1.19808162,-2.097377 1.43548252,-2.721062 0.1316195,0.08737 0.2132875,0.249185 0.285318,0.336556 0.2175306,-1.436611 -0.2703223,-4.055926 -0.8384431,-6.764807 z"
         id="path18"
         sodipodi:nodetypes="ccccccccc"
         inkscape:label="armL (outline)" /><path
         style="font-variation-settings:normal;opacity:1;fill:#3e82ae;fill-opacity:1;stroke:none;stroke-width:0.793752;stroke-linecap:butt;stroke-linejoin:miter;stroke-miterlimit:4;stroke-dasharray:none;stroke-dashoffset:0;stroke-opacity:1;paint-order:fill markers stroke"
         d="m 1.5382094,23.575225 c -0.042996,0.500441 0.2376791,1.383988 -0.011915,1.944285 -0.3071805,0.384142 -0.58861502,0.790872 -1.14579462,0.95568 z"
         id="path53"
         inkscape:label="strap (fill)"
         sodipodi:nodetypes="cccc" /><path
         style="font-variation-settings:normal;display:inline;opacity:1;fill:#2d668b;fill-opacity:1;stroke:none;stroke-width:0.793752;stroke-linecap:butt;stroke-linejoin:miter;stroke-miterlimit:4;stroke-dasharray:none;stroke-dashoffset:0;stroke-opacity:1;paint-order:fill markers stroke"
         d="m 1.8180751,23.069113 c 0,0 0.1467835,1.595107 0.087088,1.93269 -0.1319069,0.745998 -0.7713297,1.582495 -1.54414942,2.192451 l 0.4197673,-1.158052 C 1.319567,25.56951 1.4568638,24.389054 1.4808429,23.837685 Z"
         id="path52"
         sodipodi:nodetypes="cscccc"
         inkscape:label="strap (outline)" /><path
         style="color:#000000;fill:#615551;stroke-width:1;-inkscape-stroke:none;paint-order:fill markers stroke"
         d="M 0.48506438,0.47284881 C -7.3706809,0.07340211 -11.448117,4.8146032 -15.303091,7.8192851 c -0.509152,0.3968477 -1.548893,0.4866164 -2.365719,1.4299004 0.614431,-0.202728 0.981097,0.013073 1.513355,-0.03295 -0.39625,0.4744163 -1.629776,0.3864116 -2.38168,1.2921685 0.500187,-0.0099 0.774424,-0.164364 1.500911,-0.02935 -0.817288,1.15475 -2.622949,4.779583 -2.158678,5.72134 l -0.850956,0.935316 c -1.206906,-0.159836 -2.167058,0.395423 -3.110881,1.080196 0.609092,-0.02932 1.214319,-0.111451 1.821762,-0.04463 -1.48505,1.425504 -2.353985,3.060623 -2.673325,4.000591 -0.170122,0.500744 -0.175567,0.648625 -0.0097,1.071798 -0.158096,1.246888 -1.528565,0.846316 -1.245508,2.789 -0.239729,0.513247 -0.663665,1.487589 -0.985677,1.938169 -0.326376,0.456683 -1.223877,0.412929 -2.707258,1.381154 0.764201,0.152027 1.138773,-0.176716 1.760341,-0.05278 -1.161241,1.282269 -2.718427,3.315912 -3.248902,5.424147 -0.404928,1.609283 -0.646256,1.572906 -1.4412,2.818974 l 0.998386,-0.662461 c -0.132027,1.07101 -0.91412,1.895506 -0.52892,3.017681 0.03739,-0.716293 0.419032,-1.107616 0.863675,-1.552987 0.06609,1.456206 0.30312,2.911126 0.77874,4.2543 0.2345,0.662241 0.597162,1.994952 0.352488,2.679325 l 0.526384,-0.874958 c 0.398898,1.419664 1.417184,2.852073 2.422849,3.873552 1.09393,1.111135 2.483362,2.049948 4.167753,2.826118 0.888759,0.409539 1.768664,0.59947 2.322781,1.542744 0.181425,0.308842 0.155329,0.634538 0.155329,0.634538 0.308202,-0.304274 0.74565,-0.701006 1.158326,-0.971555 0.414737,0.29621 0.561871,0.749555 0.792439,1.113869 0.156967,-0.392696 0.80849,-0.772007 1.121278,-1.021202 0.165819,0.320213 0.728189,0.520857 1.009444,0.684557 -0.0389,-0.301631 0.02581,-0.595736 0.322501,-0.872993 0.525002,0.09754 0.883819,-0.05305 1.109109,0.06726 -0.205167,-0.496892 1.725499,-2.230363 2.784144,-3.87352 0.435887,0.406303 0.757714,0.654948 1.36403,0.738173 -0.08919,-0.305445 0.4488467,-0.902079 0.7394352,-1.202719 0.5627314,0.235561 0.609807,0.870427 0.4681772,1.237625 0.440943,-0.200596 0.8160972,-0.62716 0.9229459,-1.063418 0.4429851,0.233194 0.8022841,0.444763 0.7816236,0.814122 0.2241463,-0.266237 0.441976,-0.532111 0.4525989,-0.785802 0.3691082,0.212129 1.0639277,0.298807 1.4427453,0.199087 -0.2512358,-0.302824 -0.4992069,-0.428953 -0.3150612,-0.542159 1.0446504,-0.642227 2.0387569,-1.74413 2.8104555,-2.57938 0.1266868,0.25742 0.028181,0.656832 0.026625,0.883656 1.6362524,-1.321331 2.48692483,-3.860716 2.83935018,-5.771504 0.3483404,-1.888639 0.3831734,-3.8094 0.6096015,-5.468366 0.1702216,-0.194677 0.1151044,-0.54072 0.1741088,-0.81158 0.198768,0.138998 0.34182602,0.423368 0.52578222,0.52001 0.1748237,-0.5509 -0.34289662,-1.841261 -0.42263662,-2.491439 -0.1594785,-1.300358 -0.4033725,-2.914425 -0.2725015,-4.634861 0.1747134,-2.296789 1.10714242,-5.265372 4.15531322,-7.613206 -0.1397688,0.398609 0.014929,0.857877 0.075307,1.20992 0.7398958,-2.072924 4.7155152,-4.183357 5.6954788,-4.036966 0.291378,0.04354 0.529686,0.185155 0.663355,0.249119 0.01696,-0.511599 -0.31292,-0.930538 -0.52573,-1.380755 0.160017,-0.169921 0.590912,0.182965 0.998158,0.01304 -0.154009,-0.507341 -0.230378,-0.960095 -0.599049,-1.580267 0.881122,-0.02846 0.717421,0.01905 1.170512,0.103037 -0.02728,-0.398629 -0.01056,-0.911708 -0.160778,-1.301784 0.381659,0.157597 0.858425,0.175521 1.047583,0.459167 0.106498,-0.351589 0.225937,-0.524597 0.141703,-0.876185 0.465548,0.233077 0.869666,0.726557 1.275923,0.7463 -0.09416,-0.290028 -0.103392,-0.64458 -0.06864,-0.908076 0.548218,0.211539 1.01143,0.620652 1.901795,0.360592 0,0 -0.604105,-0.365529 -0.813971,-0.63939 C 14.841403,11.295593 15.008753,10.713871 14.15704,8.9250187 13.496755,7.5382169 13.05507,6.5095355 12.145394,5.3861021 12.53101,5.4716109 13.166049,5.2845168 13.889312,5.0987734 12.762916,5.179796 11.19572,4.226713 10.957495,4.018834 7.4597788,0.96660534 4.7112801,0.68775021 0.48506518,0.47285711 Z M 0.32575318,1.2825602 C 4.045049,1.1787861 7.6687046,2.2041019 10.434834,4.6179145 10.557666,4.7250987 11.5623,5.0599733 11.932112,5.0638651 11.7572,5.1722397 11.231618,5.1964122 11.03247,5.2293135 c 0.8873,1.0284916 1.974393,2.6599878 2.631816,4.0407803 0.648184,1.3613992 0.971015,2.3642742 1.152577,2.8381612 -0.39109,0.01033 -0.634543,-0.294685 -0.922984,-0.424185 0.03567,0.336868 -0.03994,0.619291 0.131149,0.940399 -0.529317,-0.188698 -0.901379,-0.586522 -1.347742,-0.922038 -0.05667,0.388084 0.183415,0.730038 -0.05383,1.073445 -0.444232,-0.303417 -1.149994,-0.348135 -1.66948,-0.509147 0.204343,0.511869 0.910304,1.167888 0.80869,1.577776 -0.05491,-0.09798 -1.203014,-0.198263 -1.9304066,-0.192955 0.4569246,0.579331 0.8757326,1.019972 1.0799256,1.63171 -0.542563,-0.111499 -0.873782,0.08586 -1.2831226,0.187702 0.200706,0.286806 0.4936886,0.57338 0.3840846,0.860962 -0.6855276,0.270665 -4.2158114,2.064806 -4.7658383,3.442905 l 0.026884,-0.81638 c -3.0960985,1.650918 -5.25048462,5.815178 -5.44928082,8.42855 -0.13934061,1.831766 0.6859656,5.531873 1.0576472,6.172755 -0.2383077,-0.23552 -0.2634183,-0.20369 -0.5692337,-0.402033 -0.161487,2.645573 -0.83249341,4.76156 -1.0921433,7.032115 -0.23426108,2.469896 -0.0955859,3.093889 -1.61562608,5.009674 0.045189,-0.289508 -0.1350078,-0.594198 -0.2092978,-0.836487 -0.6361226,0.689769 -2.2992015,2.342701 -3.3777794,2.949003 -0.1666387,0.09368 -0.1869751,0.480949 -0.1235629,0.616955 -0.5533712,-0.182258 -0.6417408,-0.240245 -0.9468441,-0.507779 0.033738,0.264372 -0.1266317,0.368333 -0.2047077,0.632795 -0.2796384,-0.196246 -0.5219534,-0.321936 -0.9791438,-0.465686 -0.1128122,0.161793 -0.2425994,0.500761 -0.4157183,0.662553 -0.1213824,-0.284765 -0.5072886,-0.617238 -0.7881383,-0.843295 -0.2897473,0.204943 -0.8912827,0.811383 -0.9401417,1.145807 -0.375678,-0.106572 -0.6647,-0.27616 -0.969064,-0.521606 0.6463,-0.890581 1.176796,-2.00356 1.5974512,-3.240489 -1.5172812,2.369363 -3.0002862,4.770682 -4.8353712,6.906004 -0.458879,-0.04001 -0.714581,-0.0037 -1.082633,-0.152606 -0.182591,0.22305 -0.198398,0.389224 -0.250795,0.694307 -0.307605,-0.317333 -0.869731,-0.484016 -0.889527,-0.866661 -0.207024,0.360222 -0.547504,0.787821 -0.916577,1.154881 -0.119099,-0.359516 -0.480831,-0.669859 -0.716612,-0.937147 -0.417311,0.195123 -1.07486,0.579757 -1.052669,0.774872 -0.198602,-0.46475 -0.721282,-0.965866 -2.292076,-1.612746 -1.686023,-0.694332 -3.162621,-2.064519 -4.11757,-3.034482 -1.369981,-1.39153 -2.224677,-2.647857 -2.900244,-4.46359 -0.03334,0.216854 -0.03461,0.411169 -0.231061,0.628015 -0.0014,-0.690892 -0.614365,-1.722799 -0.728132,-2.82307 -0.151479,-1.464953 -0.330541,-3.069198 -0.327937,-3.513808 -0.312442,0.235403 -0.594055,0.336605 -0.862491,0.711952 0.184599,-0.84242 0.505163,-1.200508 0.574907,-1.96344 -0.308814,0.149433 -0.302099,0.157517 -0.584067,0.364748 0.695965,-0.635575 0.873048,-1.441253 0.947596,-1.662134 1.297474,-3.84437 3.110582,-5.068233 3.584825,-5.972843 -0.136619,-0.05688 -0.564254,0.03034 -0.957006,-0.04941 1.632112,-0.329091 2.130401,-1.201232 2.704878,-2.108731 -0.149168,-0.851101 -0.315419,-1.924753 0.250583,-2.127592 0.540588,-0.193731 0.862103,-0.404878 1.063803,-0.829864 -0.01458,-0.507883 -0.46763,-1.014901 -0.271721,-1.490112 0.742789,-1.801755 2.119431,-2.979423 3.320599,-4.261938 -0.103903,-0.225722 -1.03167,-0.361623 -1.672351,-0.294053 0.917813,-0.407994 1.709089,-0.395147 2.289799,-0.147804 l 1.375202,-1.442002 c -0.543686,-0.558741 0.599263,-3.705517 2.053251,-6.1147 -0.28684,-0.07816 -0.559803,-0.06835 -1.02533,-0.04739 0.743913,-0.4821009 0.981307,0.02589 1.776257,-1.046602 -0.529592,-0.084083 -0.681029,-0.2457339 -1.332601,-0.1561218 0.518171,-0.4592972 1.476696,-0.3466607 1.75081,-0.6727673 4.951373,-3.8434939 6.0459156,-6.6900041 15.43142368,-6.9518712 z"
         id="path2"
         inkscape:label="outline"
         sodipodi:nodetypes="ssccccccccsccsccsccccsccssscccccccccccccccsccscccssccscccccccccccssccsssssccscccccccccccccscccccsccccccccscccccccssccscccscccscscccccccccsss" /></g><g
       id="g35"
       inkscape:label="Eye R"
       inkscape:groupmode="layer"><circle
         style="font-variation-settings:normal;opacity:1;fill:#302828;fill-opacity:1;stroke:none;stroke-width:0.793752;stroke-linecap:butt;stroke-linejoin:miter;stroke-miterlimit:4;stroke-dasharray:none;stroke-dashoffset:0;stroke-opacity:1;paint-order:fill markers stroke"
         id="path35"
         cx="7.4546642"
         cy="11.425523"
         r="1.711871"
         inkscape:label="fill" /><path
         id="circle35"
         style="font-variation-settings:normal;display:inline;opacity:1;fill:#1f1a1a;fill-opacity:1;stroke:none;stroke-width:0.793746;stroke-linecap:butt;stroke-linejoin:miter;stroke-miterlimit:4;stroke-dasharray:none;stroke-dashoffset:0;stroke-opacity:1;paint-order:fill markers stroke"
         d="m 8.345043,10.493886 c 0.1843666,1.002271 -1.1606258,1.885099 -2.2266892,1.156243 0.100334,0.560189 0.5395584,1.185334 1.1754353,1.185578 0.3888902,1.48e-4 0.7550374,-0.206567 1.0081658,-0.497805 -0.4407262,-0.13638 0.081591,-0.71757 0.2806326,-0.476233 0.02179,-0.06236 0.2553304,-1.046149 -0.2375445,-1.367783 z"
         sodipodi:nodetypes="ccsccc"
         inkscape:label="shadow" /><path
         id="path36"
         style="opacity:1;fill:#ffffff;fill-opacity:0.754601;stroke-width:0.793752;paint-order:fill markers stroke"
         inkscape:label="fx"
         d="m 6.7311844,10.938268 c 0,0.199251 0.00864,0.446685 -0.1603539,0.500318 -0.1771129,0.05623 -0.3851719,-0.06581 -0.3035937,-0.436142 0.042868,-0.194588 0.5670578,-0.715877 0.7442998,-0.715877 0.1772399,0 -0.2803522,0.452448 -0.2803522,0.651701 z m 1.3493709,1.561268 c 0,0.09454 -0.1069608,0.189068 -0.2056355,0.189069 -0.09866,-1e-6 -0.1786528,-0.07663 -0.1786528,-0.171173 0,-0.09453 0.1058583,-0.192227 0.2045335,-0.19223 0.098661,10e-7 0.1797548,0.07981 0.1797548,0.174334 z"
         sodipodi:nodetypes="ssssssssss" /><path
         style="color:#000000;fill:#0d0a0a;stroke-width:1;-inkscape-stroke:none;paint-order:fill markers stroke"
         d="m 7.4608451,9.358488 c -0.9283505,0 -1.8937637,0.915317 -1.9477912,2.060141 -0.053958,1.143553 0.8227663,2.134257 1.9477912,2.134257 1.1250271,0 1.9935603,-0.788062 2.0296593,-2.216521 C 9.5194824,10.191908 8.5858722,9.358488 7.4608451,9.358488 Z m 0.079828,0.6139404 c 0.7377433,-0.038208 1.2509325,0.6639126 1.1840243,1.4410366 -0.062773,0.729202 -0.7070761,1.521882 -1.3843979,1.521882 -0.6773256,0 -1.2795149,-0.734802 -1.2795149,-1.466702 0,-0.7319 0.8034714,-1.461184 1.4798885,-1.4962166 z"
         id="path21"
         sodipodi:nodetypes="ssssssssss"
         inkscape:label="outline" /></g><g
       id="g26"
       inkscape:label="Bag"
       inkscape:groupmode="layer"><path
         style="font-variation-settings:normal;opacity:1;fill:#729b4c;fill-opacity:1;stroke:none;stroke-width:0.793752;stroke-linecap:butt;stroke-linejoin:miter;stroke-miterlimit:4;stroke-dasharray:none;stroke-dashoffset:0;stroke-opacity:1;paint-order:fill markers stroke"
         d="m -25.285548,26.628697 c 4.358027,4.695031 9.564645,10.666811 20.4377069,10.126476 2.0564297,-0.102192 3.488921,-0.427327 5.55901048,-1.535645 1.71253732,0.390878 2.40784742,2.008993 2.17280092,3.338457 -0.3133092,1.772138 -0.8992212,4.387219 -3.40381563,5.866092 -3.24603667,0.538399 -6.49256327,0.21774 -9.73955367,-0.916824 l -3.773288,-4.544976 c -5.672827,-2.958073 -9.641053,-6.52098 -12.176279,-10.592355 z"
         id="path56"
         inkscape:label="fill"
         sodipodi:nodetypes="cscsccccc" /><g
         id="g77"
         inkscape:label="handle"
         style="display:inline"
         inkscape:groupmode="layer"><path
           style="font-variation-settings:normal;display:inline;opacity:1;fill:#546f3b;fill-opacity:1;stroke:none;stroke-width:0.793752;stroke-linecap:butt;stroke-linejoin:miter;stroke-miterlimit:4;stroke-dasharray:none;stroke-dashoffset:0;stroke-opacity:1;paint-order:fill markers stroke"
           d="m -5.1441191,40.306418 c 0.3458497,0.348006 0.4534684,0.822286 0.6799587,1.233559 -0.1949458,0.582086 -0.4132034,1.141003 -0.8920684,1.440874 -0.4463033,-0.455454 -0.3775466,-1.119258 -0.5228115,-1.696484 0.2289561,-0.331654 0.3579661,-0.698702 0.7349212,-0.977949 z"
           id="path57"
           inkscape:label="fill"
           sodipodi:nodetypes="ccccc" /><path
           style="color:#000000;fill:#4c6539;fill-opacity:1;stroke-width:1;-inkscape-stroke:none;paint-order:fill markers stroke"
           d="m -4.8262776,40.099174 -0.6679776,-0.01668 c -0.016171,0.154725 0.00419,0.308632 -0.073203,0.443566 -0.1620449,0.282432 -0.4558532,0.586836 -0.5051145,0.887676 -0.084352,0.515116 0.082254,1.242471 0.3324046,1.598593 0.099055,0.141027 0.2397573,0.273087 0.4404648,0.28777 0.2105629,0.01538 0.3524697,-0.118866 0.4545601,-0.252533 0.270736,-0.354465 0.4968843,-1.094096 0.4792243,-1.633828 -0.010568,-0.323038 -0.1761854,-0.62842 -0.4017036,-0.846868 -0.1082013,-0.125875 -0.056895,-0.30703 -0.058656,-0.467701 z m -0.4311874,0.425965 c 0.1331422,-0.396239 0.4371171,0.560873 0.4592281,0.895649 0.030969,0.468903 -0.1723092,1.078671 -0.4726418,1.328184 -0.2047274,0.170083 -0.4325959,-0.840539 -0.406059,-1.290815 0.020063,-0.340403 0.187318,-0.242119 0.4194727,-0.933018 z"
           id="path27"
           inkscape:label="outline"
           sodipodi:nodetypes="scssssssssasasa" /></g><path
         style="font-variation-settings:normal;display:inline;opacity:1;fill:#29371b;fill-opacity:0.0762478;stroke:none;stroke-width:0.793752;stroke-linecap:butt;stroke-linejoin:miter;stroke-miterlimit:4;stroke-dasharray:none;stroke-dashoffset:0;stroke-opacity:1;paint-order:fill markers stroke"
         d="m -24.501293,28.645435 c 0.229055,0.04103 1.804156,2.552976 3.206579,3.669646 1.020737,-0.673893 -0.294753,0.704171 0.239628,1.035918 1.203193,0.746944 1.016352,-0.671391 2.259431,-0.05252 0.619031,0.308187 -0.104568,1.092011 0.09533,1.254251 1.192056,0.967565 3.476727,2.077721 5.214194,2.279125 0.133004,0.01542 -0.124822,0.616949 -0.05388,0.732035 2.412886,3.913894 4.1842046,3.470094 7.554291,2.495483 0.9713137,-0.280899 2.1338215,-1.627215 -3.9052039,-3.838512 3.175191,0.340641 8.6422741,0.396806 10.25457628,-0.760321 0.2209911,0.05042 0.4217851,0.121739 0.6074999,0.201202 0.16785742,0.07182 0.016431,0.753023 0.067712,0.768735 0.103696,0.03177 0.1997581,-0.633175 0.2867347,-0.577478 0.804052,0.514894 1.1041263,1.214506 1.1184773,2.235343 0.00919,0.654692 -3.7500721,1.294163 -3.38548456,1.443011 0.87576079,0.357533 3.38774746,-1.001699 3.37175586,-0.91124 -0.2314748,1.309259 -0.2966115,2.636008 -1.3248485,3.836139 -0.077152,0.09003 -0.42041922,-0.402294 -0.50888432,-0.313742 -0.084272,0.08438 0.086805,0.74968 -0.00861,0.832585 -0.2763357,0.240162 -0.6010468,0.473991 -0.98416237,0.700205 -3.24603661,0.538393 -4.94126981,0.991786 -8.73421431,-0.588789 -2.1042771,-0.876881 -3.4111051,-3.097204 -4.7526731,-4.588291 -2.266403,-1.457853 -4.208678,-2.621038 -5.901088,-3.825962 -0.07697,-0.05479 -0.260142,-0.04827 -0.336095,-0.103297 -0.552062,-0.399846 -1.070243,-0.695425 -1.557851,-1.140652 -0.04262,-0.03892 -0.07595,-0.27885 -0.118262,-0.316881 -1.205849,-1.083806 -2.251471,-2.198211 -3.232027,-3.69338 -0.897158,-1.368008 0.417796,0.438075 0.588051,0.29892 0.15699,-0.128307 -0.7902,-1.202177 -0.061,-1.071542 z"
         id="path77"
         inkscape:label="shadow"
         sodipodi:nodetypes="scssssssccssssssssscscsssssss" /><path
         style="color:#000000;fill:#628541;stroke-width:1;-inkscape-stroke:none;paint-order:fill markers stroke"
         d="m -25.314156,25.840219 c -0.331689,0.872419 -0.575913,1.695712 -1.241786,2.372504 1.337291,2.682016 2.5744,4.096571 6.012216,6.780949 2.179507,1.701842 6.46652,4.386807 6.572153,4.453835 0.138916,0.233817 1.141713,2.132196 2.011244,2.963446 1.667103,1.593718 4.3207835,2.298834 6.6289096,2.452515 3.5080114,0.233584 5.94899898,0.03639 7.1942575,-2.284549 0.6388547,-1.190718 1.1030282,-2.729079 1.4202714,-4.036037 0.036683,-2.163573 -0.748282,-3.013399 -2.61468162,-3.762335 -1.22028708,1.423075 -4.80455918,2.19168 -11.91256388,0.730533 -3.151032,-0.64774 -5.77448,-2.040907 -6.915963,-2.778602 -2.929464,-1.893197 -4.546964,-3.188459 -7.154057,-6.892259 z m 0.208296,1.255915 c 0.993089,1.275413 2.550176,3.053585 4.293148,4.557986 0.372819,0.694931 1.197702,1.136082 2.054925,1.559081 0.966501,0.624612 3.566648,2.066477 5.959669,2.827319 -0.316964,0.352793 -0.431782,0.53611 -0.493506,0.840536 0.214819,-0.347448 0.322249,-0.46685 0.784492,-0.742173 1.378259,0.378159 10.6520991,2.353588 13.15689388,-0.630028 0.2561812,0.200564 0.39798982,0.426747 0.37969762,0.688794 0.039307,-0.182116 0.078025,-0.41046 -0.056245,-0.656067 1.55469352,0.579449 1.58643282,1.830527 1.56353322,2.959686 -2.25768892,0.870091 -4.7364337,1.339656 -7.157572,1.441909 -0.5348647,0.01537 -2.9958181,-0.06802 -3.1769643,-0.09494 0.7602928,0.263679 1.7634522,0.378285 3.2700713,0.369039 2.3324758,-0.01431 4.73528178,-0.523996 6.8557388,-1.310275 0.1318221,-0.04888 -1.1947827,1.045699 -0.9791804,0.967866 0.4067152,-0.146827 1.1650566,-0.831674 1.118627,-0.588854 -0.1447339,0.756938 -0.4897905,2.078453 -0.8543887,2.672935 -0.2226375,0.363013 -0.5898947,0.796133 -0.85096012,1.060275 -0.051435,-0.256539 -0.030479,-0.481918 -0.1280693,-0.605884 0.014321,0.283689 -0.045176,0.577491 -0.1995377,0.884281 -0.2464871,0.01454 -0.4775718,-0.04575 -0.70416834,-0.127896 0.0582004,0.16953 0.24999234,0.223624 0.42159764,0.31749 -1.36714238,0.795072 -3.30243258,0.888665 -5.65138698,0.734458 -2.2014346,-0.144515 -4.3212252,-0.997297 -5.7741586,-2.386268 -0.66807,-0.638656 -1.697988,-2.290668 -2.110752,-2.995373 -0.23055,-0.593031 -0.161656,-1.230888 -0.07219,-1.539297 -0.146999,0.310988 -0.323774,0.695365 -0.351216,1.317158 -2.209845,-1.369446 -4.147572,-2.505706 -6.195271,-4.043363 -0.653923,0.179516 -1.765383,-0.801761 -1.852275,-1.456652 -2.049951,-1.709636 -3.032919,-2.960464 -4.094808,-4.746889 0.388287,-0.371064 0.752462,-0.731903 0.844264,-1.274865 z"
         id="path6"
         inkscape:label="outline"
         sodipodi:nodetypes="ccscsssccsscccccccccccscssssscccccsscccccccc" /><path
         style="color:#000000;fill:#41572d;fill-opacity:1;stroke-width:1;-inkscape-stroke:none;paint-order:fill markers stroke"
         d="m -20.063899,31.225059 c -0.206373,-0.111487 -0.55834,-0.125415 -0.742584,0.09127 -0.499394,0.58735 -0.959244,1.217428 -1.390305,1.850056 -0.160154,0.235058 -0.140985,0.524698 0.05492,0.730913 0.478797,0.504002 1.086673,0.928537 1.688539,1.359295 0.231311,0.16552 0.543014,0.08525 0.731538,-0.127716 0.578279,-0.653289 1.012311,-1.329155 1.426065,-2.049126 0.141721,-0.246609 0.08109,-0.538193 -0.127684,-0.731355 -0.465978,-0.431125 -1.023781,-0.790195 -1.640488,-1.123345 z m -0.08065,0.74094 c 0.376784,0.181593 0.61575,0.446746 0.83889,0.692229 0.09213,0.101336 0.156042,0.294602 0.03338,0.503772 -0.242373,0.413301 -0.444262,0.723457 -0.750067,1.126873 -0.09433,0.124481 -0.300544,0.175868 -0.428569,0.113949 -0.41067,-0.19862 -0.774639,-0.478175 -1.094481,-0.779628 -0.06763,-0.06375 -0.102452,-0.268517 -0.04865,-0.352947 0.278401,-0.436861 0.578088,-0.829635 0.973906,-1.247067 0.147932,-0.155994 0.305633,-0.139094 0.475592,-0.05719 z"
         id="rect26"
         inkscape:label="loop"
         sodipodi:nodetypes="ssssssssssssssssss" /></g><g
       id="g29"
       inkscape:label="Strap (down)"
       inkscape:groupmode="layer"><path
         style="font-variation-settings:normal;opacity:1;fill:#3e82ae;fill-opacity:1;stroke:none;stroke-width:0.793752;stroke-linecap:butt;stroke-linejoin:miter;stroke-miterlimit:4;stroke-dasharray:none;stroke-dashoffset:0;stroke-opacity:1;paint-order:fill markers stroke"
         d="m -15.293938,29.296166 c -0.731065,0.06559 -1.299486,0.107137 -2.007315,-0.0559 -2.748306,-1.631077 -4.979184,-3.760001 -7.121624,-6.142546 l -1.643666,-0.14545 c 2.393811,2.837306 4.985068,5.98173 9.304977,7.097621 0.539174,0.02234 1.07835,-0.06079 1.617524,-0.119791 z"
         id="path51"
         inkscape:label="fill"
         sodipodi:nodetypes="ccccccc" /><path
         style="font-variation-settings:normal;display:inline;opacity:1;vector-effect:none;fill:#122633;fill-opacity:0.117154;stroke:none;stroke-width:0.793752;stroke-linecap:butt;stroke-linejoin:miter;stroke-miterlimit:4;stroke-dasharray:none;stroke-dashoffset:0;stroke-opacity:1;-inkscape-stroke:none;paint-order:fill markers stroke;stop-color:#000000;stop-opacity:1"
         d="m -15.475746,29.381747 c -1.018389,0.525493 -1.696227,0.197471 -2.216691,-0.002 -0.795113,-0.304691 -1.050554,-0.657985 -1.626491,-0.992155 -0.346275,-0.20092 0.01301,-0.485078 -0.04982,-0.532106 -0.278545,-0.208512 -0.89001,-0.763089 -1.203286,-0.587493 -0.633345,0.355006 -0.999718,-0.456584 -0.883909,-0.437196 -0.316361,-0.165085 -1.885088,-1.60535 -2.57316,-2.323043 -0.120397,-0.125578 -0.02778,-0.636103 -0.147239,-0.763443 -0.273606,-0.291652 -0.240273,-0.377399 -0.510213,-0.677592 l -1.080869,-0.07438 c 2.438402,2.759798 6.702981,6.471618 8.956771,6.8629 0.83871,0.145609 0.79229,0.085 1.543882,-0.199587 z"
         id="path74"
         inkscape:label="shadow"
         sodipodi:nodetypes="csssscssccscc" /><path
         style="color:#000000;fill:#2d668b;stroke-width:1;-inkscape-stroke:none;paint-order:fill markers stroke"
         d="m -17.479068,30.099747 c 0.795363,0.204086 1.612645,0.335779 2.560569,-0.184127 l -0.224389,-0.249234 c -0.611449,0.226904 -1.26278,0.52632 -2.54944,-0.03504 -2.127391,-0.928156 -6.758678,-4.678068 -8.030892,-6.478238 0.392444,0.106604 0.894371,0.04205 1.187879,0.0053 1.656578,1.981799 4.435822,4.802916 6.802649,6.045255 0.331903,0.174214 0.859916,0.493121 2.467591,0.203088 l -0.149737,-0.260236 c -1.113561,0.194251 -1.70553,0.02484 -2.295241,-0.323209 -3.253477,-1.920211 -5.771005,-4.960803 -6.569815,-5.967635 -0.392767,0.15431 -1.279647,0.02899 -2.292492,-0.184628 2.315356,3.076843 5.298241,6.072247 9.093318,7.428656 z"
         id="path11"
         inkscape:label="outline"
         sodipodi:nodetypes="sccsccsccsccs" /><path
         style="color:#000000;display:inline;fill:#234253;fill-opacity:1;stroke-width:1;-inkscape-stroke:none;paint-order:fill markers stroke"
         d="m -21.128485,28.643279 c 0.199698,0.06657 0.515841,0.111015 0.675887,-0.0022 0.43381,-0.307158 0.59512,-0.47447 0.979462,-0.814292 0.142797,-0.126263 0.185447,-0.373888 0.05274,-0.5159 -0.313696,-0.335678 -0.759981,-0.597132 -1.248332,-0.916511 -0.170706,-0.11164 -0.337187,-0.100752 -0.500265,0.01001 -0.500218,0.339723 -0.557251,0.42564 -0.935043,0.818835 -0.129396,0.134684 -0.162351,0.312196 -0.03291,0.466828 0.326434,0.389971 0.644184,0.831904 1.008468,0.953332 z m 0.04263,-0.614942 c -0.193439,-0.106666 -0.442696,-0.317353 -0.596543,-0.482045 -0.06351,-0.06799 -0.06511,-0.202315 0.04653,-0.316345 0.220637,-0.22531 0.271715,-0.288578 0.540803,-0.502676 0.08303,-0.06606 0.21306,-0.04157 0.307543,0.006 0.303075,0.152604 0.471629,0.264454 0.704015,0.461603 0.05309,0.04505 0.164564,0.270007 0.02978,0.395934 -0.255438,0.238664 -0.223171,0.223501 -0.600988,0.425366 -0.225025,0.120228 -0.345119,0.05959 -0.431145,0.01213 z"
         id="path55"
         inkscape:label="loop"
         sodipodi:nodetypes="sssssssssssssssssss" /></g><g
       id="g43"
       inkscape:label="Arm R"
       inkscape:groupmode="layer"><path
         style="font-variation-settings:normal;display:inline;opacity:1;vector-effect:none;fill:#a1817a;fill-opacity:1;stroke:none;stroke-width:0.793752;stroke-linecap:butt;stroke-linejoin:miter;stroke-miterlimit:4;stroke-dasharray:none;stroke-dashoffset:0;stroke-opacity:1;-inkscape-stroke:none;paint-order:fill markers stroke;stop-color:#000000;stop-opacity:1"
         d="m -10.711817,33.28988 c 0.419531,0.365295 0.7286462,1.060025 1.249619,0.301037 0.2203143,0.167771 0.445502,0.212704 0.6823656,-0.03675 l 0.6080787,0.535229 c 0.5921701,2.849823 0.9650076,5.167293 0.4400914,7.836771 -0.464537,1.107964 -1.6765225,1.435816 -2.7986977,1.596497 -0.356373,-0.181242 -0.449546,-0.519571 -0.408241,-1.075621 -1.131593,0.566382 -3.098894,0.851019 -2.510543,-0.807013 -0.396528,-0.03126 -1.491774,-1.103933 0.09807,-1.656343 2.462593,-1.47544 2.28144,-3.745864 2.209147,-6.290506 z"
         id="path92"
         inkscape:label="hand (fill)"
         sodipodi:nodetypes="ccccccccccc" /><path
         style="font-variation-settings:normal;display:inline;opacity:1;vector-effect:none;fill:#46241d;fill-opacity:0.073618;stroke:none;stroke-width:0.793752;stroke-linecap:butt;stroke-linejoin:miter;stroke-miterlimit:4;stroke-dasharray:none;stroke-dashoffset:0;stroke-opacity:1;-inkscape-stroke:none;paint-order:fill markers stroke;stop-color:#000000;stop-opacity:1"
         d="m -10.612218,33.395202 c 0.7760279,0.717535 0.6290472,0.954703 1.15002,0.195715 0.2203143,0.167771 0.445502,0.212704 0.6823656,-0.03675 l 0.2541461,0.486236 c 0.8700613,3.165903 0.5985382,7.421198 0.201617,7.948636 -0.2958334,0.393108 -0.7443946,0.88135 -1.5461373,0.895882 -0.3233204,0.0061 -0.3883884,-0.307338 -0.031598,-0.766951 0.8994307,-1.068109 1.040939,-2.080375 1.4361633,-4.397915 -0.6960027,3.860834 -3.4563867,4.810898 -4.1810747,4.721732 -0.263423,-0.03241 0.155596,-0.465433 0.575373,-0.981165 0.588389,-0.145596 1.712068,-1.206022 2.050167,-2.828909 -1.50917,2.611693 -2.2899,2.55899 -3.193066,2.610236 -0.238685,0.01354 -0.720494,-0.177211 0.191428,-0.368664 4.0109194,-0.842074 2.76643,-6.738655 2.055922,-7.244637 z"
         id="path93"
         inkscape:label="hand (shadow)"
         sodipodi:nodetypes="ccccssccsccsscc" /><path
         style="color:#000000;fill:#947068;stroke-width:1;-inkscape-stroke:none;paint-order:fill markers stroke"
         d="m -10.838989,33.370271 -0.567416,0.5576 -0.217198,-0.427224 c 0.217896,1.346998 0.259327,3.26379 -0.0641,3.973665 -0.330453,0.72531 -0.543086,1.153067 -0.981275,1.759423 -0.234873,0.325036 -2.164606,0.610447 -1.741891,2.029662 0.09622,0.283279 0.445208,0.373058 0.718601,0.441281 -0.253404,0.331875 -0.330792,0.635712 -0.138362,1.026931 0.614316,0.794769 1.866004,0.3929 2.66158,0.113937 -0.02295,0.330738 0.02496,0.820673 0.482752,0.933794 1.0387225,0.256664 2.3475402,-0.558296 2.9528752,-1.182806 0.7630339,-0.787196 0.8149675,-3.667896 0.5767143,-5.458234 -0.1322572,-0.993827 -0.7928356,-3.710474 -0.7928356,-3.710474 l -0.1658178,0.659697 -0.6070518,-0.474114 c 0,0 0.809102,2.836977 0.9189565,3.662458 0.2786798,2.094097 0.125284,4.606505 -0.2726368,4.996369 -0.8434488,0.826374 -2.152171,1.002415 -2.428738,0.782241 -0.146941,-0.116978 -0.236465,-0.272717 -0.164746,-0.463788 0.147309,-0.09193 0.7266523,-0.357536 0.8469473,-0.457574 0.1200559,-0.09985 0.254209,-0.276277 0.3900561,-0.505772 0.062213,0.203328 0.1305538,0.205766 0.4175578,0.288281 -0.1847277,-0.209642 -0.2365984,-0.294527 -0.2632284,-0.570434 0.4866531,-0.95741 0.9345294,-2.485375 0.7672574,-3.489227 -0.2619826,1.797835 -0.7297684,3.10096 -1.5678322,3.850628 -0.715135,0.453945 -2.374684,1.325788 -3.097791,0.746564 -0.164987,-0.132159 -0.332055,-0.432726 -0.06124,-0.68005 0.391724,0.04719 1.015135,-0.05782 1.31005,-0.177305 1.011832,-0.554447 1.437077,-1.532377 1.743476,-2.596015 -0.468258,0.767255 -1.097227,1.957403 -1.91978,2.201633 -0.477821,0.115623 -1.51311,0.496364 -1.867848,-0.259661 -0.20945,-0.446383 1.207621,-0.847987 1.687637,-1.398868 0.477522,-0.548018 0.855402,-1.058915 1.148783,-1.8535 0.419969,-1.137428 0.485054,-2.896772 0.296535,-4.319117 z"
         id="path17"
         inkscape:label="hand (outline)"
         sodipodi:nodetypes="cccssscscssscccssscscccccsccccsasc" /><path
         style="color:#000000;fill:#615551;stroke-width:1;-inkscape-stroke:none;paint-order:fill markers stroke"
         d="m -6.8501412,22.951814 c 0.5317175,2.294445 0.8031483,6.687973 0.5180741,7.320896 -0.046775,-0.08372 -0.2475661,-0.160911 -0.322411,-0.326239 0,0 -0.2888591,1.800653 -1.3622646,3.394307 -0.081059,0.120343 -0.220549,0.444294 -0.2009477,0.593448 -0.4196207,-0.388334 -0.3827945,-0.746059 -0.4694818,-1.162991 l -0.4422193,0.843392 c -0.064803,-0.327062 -0.1825128,-0.572412 -0.3440398,-0.875881 -0.1365926,0.447273 -0.1734492,0.681106 -0.5301067,1.097479 -0.118639,-0.359578 -0.529856,-0.635103 -0.82488,-0.944008 -0.257704,0.213611 -0.517881,0.426247 -0.580831,0.716552 -2.679285,-1.944294 -2.892185,-3.339104 -3.259131,-4.012642 l -0.198071,0.271375 c -0.52602,-0.505759 -0.765406,-1.5388 -1.072531,-2.61441 0.03403,0.533092 0.424951,3.327383 0.895068,3.653164 0.03433,-0.174332 0.08811,-0.287877 0.149824,-0.376684 1.101912,2.021959 2.163424,2.937964 3.620509,3.936569 0.140007,-0.261372 0.241332,-0.733049 0.549913,-0.931037 0.310278,0.218565 0.567521,0.582077 0.7302455,0.982806 0.3202841,-0.247612 0.4729292,-0.495702 0.5382775,-0.767067 0.1782264,0.272955 0.1761299,0.49282 0.2273346,0.779982 0.124385,-0.222634 0.2181034,-0.591643 0.4396278,-0.855479 0.2323959,0.274856 0.5424766,0.643968 0.802776,0.785682 -0.00419,-0.140752 0.059234,-0.398481 0.1833191,-0.548014 0.7240129,-0.87249 1.0155956,-1.906991 1.3008826,-2.998505 0.1949499,0.151814 0.2442144,0.245858 0.3225527,0.387229 0,0 1.3013493,-3.876576 -0.671489,-8.349932 z"
         id="path3"
         inkscape:label="arm outline"
         sodipodi:nodetypes="cccscccccccccccccccccccsccsc" /></g><g
       id="g28"
       inkscape:label="Strap (up)"
       inkscape:groupmode="layer"><path
         style="font-variation-settings:normal;opacity:1;fill:#3e82ae;fill-opacity:1;stroke:none;stroke-width:0.793752;stroke-linecap:butt;stroke-linejoin:miter;stroke-miterlimit:4;stroke-dasharray:none;stroke-dashoffset:0;stroke-opacity:1;paint-order:fill markers stroke"
         d="m -6.2129823,24.100461 c -0.7292452,-2.415736 -0.8848562,-4.077542 -5.0089397,-6.467965 -2.617262,-0.489466 -4.862634,-1.196553 -8.08107,-1.33423 -0.819345,0.182227 -2.040929,0.17486 -2.430193,0.559803 0,0 6.864046,0.851746 9.918993,2.439419 2.1823696,1.134188 5.6012097,4.802973 5.6012097,4.802973 z"
         id="path50"
         inkscape:label="fill"
         sodipodi:nodetypes="ccccsc" /><path
         style="font-variation-settings:normal;display:inline;opacity:1;vector-effect:none;fill:#122633;fill-opacity:0.117154;stroke:none;stroke-width:0.793752;stroke-linecap:butt;stroke-linejoin:miter;stroke-miterlimit:4;stroke-dasharray:none;stroke-dashoffset:0;stroke-opacity:1;-inkscape-stroke:none;paint-order:fill markers stroke;stop-color:#000000;stop-opacity:1"
         d="m -6.2129823,24.100461 c -0.7292452,-2.415736 -1.6639951,-3.266612 -4.3840567,-5.625312 -0.363447,0.495813 -2.122387,-0.23442 -4.355981,-0.727135 -2.15221,-0.474762 -5.701975,-0.718675 -4.582509,-1.458495 -0.819347,0.182225 -1.808392,0.183607 -2.197656,0.56855 0.122339,-0.02213 7.432313,0.627445 10.262779,2.092763 2.4610073,1.274052 5.3667506,5.149629 5.2574237,5.149629 z"
         id="path73"
         inkscape:label="shadow"
         sodipodi:nodetypes="ccsccsc" /><path
         style="color:#000000;fill:#2d668b;stroke-width:1;-inkscape-stroke:none;paint-order:fill markers stroke"
         d="m -21.802942,16.572224 c -0.318291,0.1343 -0.135396,0.424062 0.253531,0.536605 0.25293,0.07319 1.840726,0.321331 4.068078,0.790531 2.227347,0.4692 4.739134,1.295433 5.845983,1.869362 1.8131954,0.940185 3.3272669,2.306628 4.2195944,3.258386 0.3663686,0.390771 1.0791632,1.503058 1.2794628,1.889744 0.2288039,-1.375872 -0.086711,-2.423234 -0.7313533,-3.570373 -0.7675585,-1.365877 -2.4623996,-2.874384 -3.6154469,-3.576879 -1.264206,-0.770219 -3.447141,-1.154075 -5.360749,-1.397741 -1.913607,-0.243665 -3.550842,-0.242693 -3.550842,-0.242693 -0.714864,0.07312 -1.686439,0.138492 -2.408258,0.443058 z m 1.885258,-0.135438 c 0.941035,-0.06267 2.211323,0.147543 4.067398,0.383884 1.876384,0.238924 4.286205,1.016111 5.283641,1.623801 0.933758,0.568894 2.5600041,2.138461 3.4609083,3.371029 0.4617064,0.631683 0.6410518,1.364093 0.6383229,1.816878 -0.2295149,-0.391349 -0.915974,-1.303177 -1.4611847,-1.804645 -1.0533028,-0.968795 -2.2317945,-2.074098 -3.3233325,-2.640084 -1.317727,-0.683274 -3.845792,-1.306813 -6.093861,-1.780378 -1.166294,-0.245686 -4.031634,-0.469418 -4.341082,-0.612017 0.688299,-0.202748 1.115161,-0.285256 1.76919,-0.358468 z"
         id="path10"
         inkscape:label="outline"
         sodipodi:nodetypes="ssssscssscscssscssscc" /></g><g
       id="g30"
       inkscape:label="Cap (front)"
       inkscape:groupmode="layer"><g
         id="g79"
         inkscape:groupmode="layer"
         inkscape:label="head"><path
           style="font-variation-settings:normal;opacity:1;fill:#258b6a;fill-opacity:1;stroke:none;stroke-width:0.793752;stroke-linecap:butt;stroke-linejoin:miter;stroke-miterlimit:4;stroke-dasharray:none;stroke-dashoffset:0;stroke-opacity:1;paint-order:fill markers stroke"
           d="M 7.7965877,5.0483426 C 2.324206,5.387868 -3.0462243,4.3152212 -8.8401056,3.1627739 -8.4539699,-0.05405259 -9.1309175,-3.1355838 -7.3030097,-6.535904 -2.466164,-9.9579798 1.7463615,-9.2015178 5.7590116,-7.1073095 7.1784945,-3.055425 7.5319686,0.99645834 7.7965877,5.0483426 Z"
           id="path45"
           sodipodi:nodetypes="ccccc"
           inkscape:label="fill" /><path
           style="font-variation-settings:normal;display:inline;opacity:1;fill:#103c2e;fill-opacity:0.105703;stroke:none;stroke-width:0.793752;stroke-linecap:butt;stroke-linejoin:miter;stroke-miterlimit:4;stroke-dasharray:none;stroke-dashoffset:0;stroke-opacity:1;paint-order:fill markers stroke"
           d="M 7.1058322,3.9792413 C 1.6334482,4.318767 -0.2651811,4.5328339 -6.0590621,3.3803865 c -0.2610072,-2.3773756 -0.3644915,-4.4965316 0.3302537,-6.8074516 0.058522,-0.1946823 0.5991726,0.1558618 0.6694145,-0.041814 0.072091,-0.2028848 -0.1351392,-1.2927926 -0.04989,-1.4994024 0.1838928,-0.4456761 0.2086068,-0.5619806 0.4598027,-1.0292621 6.200767,2.4289295 8.5530862,-0.1035332 10.0438847,-0.8653617 1.4194862,4.0518846 1.4468108,6.79026231 1.7114277,10.8421446 z"
           id="path79"
           sodipodi:nodetypes="ccsssccc"
           inkscape:label="shadow" /><path
           id="path12"
           style="color:#000000;fill:#1c6a52;fill-opacity:1;stroke-width:1;-inkscape-stroke:none;paint-order:fill markers stroke"
           inkscape:label="outline"
           d="m -7.2130838,-7.0843521 c -2.3482535,1.8526334 -1.8240399,8.5854267 -1.7653807,9.2579813 3.4285767,2.0617741 5.6607605,2.7830193 9.67377908,2.9622712 L 1.1553802,4.357846 C -2.6447845,4.1881009 -5.2844727,3.7354706 -8.3032629,1.9353057 c -0.3120126,-4.1760617 0.6570831,-7.6118845 1.7221739,-8.4362911 3.9653705,-3.0692944 8.0450544,-2.6480144 11.9109069,-0.5458904 1.505059,1.7488996 1.6977206,6.39386541 1.669657,7.76996424 L 7.7642394,0.86991063 C 8.0296305,-0.04661279 6.8289478,-6.1168075 5.7929572,-7.5295144 1.7243426,-9.8104098 -3.593382,-9.9400798 -7.2130838,-7.0843521 Z m 11.2183413,0.806931 c 0,0 -2.7296681,0.6944673 -4.12398608,0.7517149 -1.45107712,0.05958 -4.49737622,-0.432231 -4.49737622,-0.432231 0,0 2.2058689,0.9225915 4.78901748,0.7678931 2.87253652,-0.1720282 3.83234482,-1.087377 3.83234482,-1.087377 z"
           sodipodi:nodetypes="sccccsccccscscsc" /></g><g
         id="g78"
         inkscape:groupmode="layer"
         inkscape:label="beek"><path
           style="font-variation-settings:normal;opacity:1;fill:#d46c14;fill-opacity:1;stroke:none;stroke-width:0.793752;stroke-linecap:butt;stroke-linejoin:miter;stroke-miterlimit:4;stroke-dasharray:none;stroke-dashoffset:0;stroke-opacity:1;paint-order:fill markers stroke"
           d="m 7.5947627,1.1927843 7.4006043,1.1183206 c 1.221264,0.9775045 1.43125,1.9545635 1.801942,2.9316944 C 15.699554,4.454849 14.978831,3.4404144 12.89825,3.2428499 11.326008,2.7612896 7.1441137,7.1709342 6.4977747,7.0387126 6.3829067,7.0152095 0.75134878,4.8898665 0.63108308,4.8292429 -0.08040441,4.4705962 5.7435855,0.40816661 7.5947627,1.1927843 Z"
           id="path46"
           sodipodi:nodetypes="ccccssc"
           inkscape:label="fill" /><path
           style="font-variation-settings:normal;display:inline;opacity:1;fill:#3d1f06;fill-opacity:0.0824236;stroke:none;stroke-width:0.793752;stroke-linecap:butt;stroke-linejoin:miter;stroke-miterlimit:4;stroke-dasharray:none;stroke-dashoffset:0;stroke-opacity:1;paint-order:fill markers stroke"
           d="M 7.6806596,1.5265239 C 6.8753114,2.1344485 3.9005691,3.4788588 7.027434,4.1555264 8.5369115,4.482186 11.193278,2.4200555 12.6547,2.5501709 12.964739,2.5777738 13.724834,2.7367297 12.454765,2.8709165 9.4078284,3.1911293 7.9364333,6.1483828 6.8987971,6.3030714 5.9795043,6.4401172 4.9612804,5.6789707 3.93333,5.3331527 2.7272721,4.9274175 1.2804112,4.8506786 1.1231094,4.6862403 0.57233808,4.1104863 4.3153102,1.1531643 7.6806596,1.5265239 Z"
           id="path80"
           sodipodi:nodetypes="csscsssc"
           inkscape:label="shadow" /><path
           style="color:#000000;fill:#b05a10;fill-opacity:1;stroke-width:1;-inkscape-stroke:none;paint-order:fill markers stroke"
           d="M 7.713378,0.63024071 C 4.0715889,0.94102296 2.1106169,2.2523513 0.09628088,5.2134221 1.4982375,5.3260397 2.8165636,5.8125029 4.0992237,6.3633274 4.9249044,6.6880173 5.7648978,7.3384202 6.6492192,7.2019733 7.7319498,7.0349138 8.4777379,5.9222695 9.3166434,5.2818637 10.39775,4.456567 12.512072,3.4196898 13.410952,3.5674224 15.135832,3.8509117 15.335668,4.80849 16.447499,5.5152879 16.76646,5.7180586 17.101662,5.7542977 17.065314,5.09479 17.058114,4.9637905 16.541104,3.0382671 15.534851,2.3380696 14.464981,1.5936047 12.843098,1.689279 11.560163,1.5680622 10.119111,1.4740302 9.1054274,1.0200114 7.713378,0.63024071 Z M 7.700475,1.4453951 c 1.5622644,0.4471242 2.975744,0.5246664 4.197913,0.6401412 1.254969,0.1185731 2.321056,0.2450199 3.208718,0.862699 0.302072,0.2101947 1.339975,0.9853776 1.484774,1.990709 C 15.761389,4.1484577 13.992409,2.9718775 12.7564,2.9621755 11.492608,3.023402 10.004992,3.9439107 8.8973522,4.7894015 8.1319078,5.3205991 7.8238749,6.2179688 7.0196197,6.3907859 6.1357356,6.5807106 5.1160145,5.9387879 4.4151894,5.6339189 3.5576851,5.2619036 2.0804016,5.0087574 1.0110222,4.7814414 2.4498675,2.3264934 5.1486752,1.916474 7.7004674,1.4453951 Z"
           id="path13"
           inkscape:label="outline"
           sodipodi:nodetypes="ccsassssssccsscssascc" /></g><g
         id="g31"
         inkscape:label="eye R"
         transform="matrix(0.60138104,0,0,0.60138104,-52.335453,-10.808923)"
         style="stroke-width:1.66284"><path
           style="color:#000000;fill:#1c362e;stroke-width:1.66284;-inkscape-stroke:none;paint-order:fill markers stroke"
           d="m 86.566406,11.310547 c -2.145741,0.254132 -3.619543,1.809305 -3.619543,4.020799 0,2.211493 1.495837,3.857957 3.663622,3.857957 2.167785,0 3.695701,-1.624294 3.695701,-3.835787 0,-2.211494 -1.587041,-4.29793 -3.73978,-4.042969 z"
           id="ellipse23"
           inkscape:label="main"
           sodipodi:nodetypes="sssss" /><path
           style="color:#000000;display:inline;fill:#dcede8;fill-opacity:1;stroke-width:1.66284;-inkscape-stroke:none;paint-order:fill markers stroke"
           d="m 85.45837,12.918685 c -0.830955,0.09842 -1.401696,0.700668 -1.401696,1.557085 0,0.856418 0.579274,1.494024 1.418766,1.494024 0.839491,0 1.431188,-0.629021 1.431188,-1.485438 0,-0.856418 -0.614594,-1.664406 -1.448258,-1.565671 z"
           id="path31"
           inkscape:label="fx"
           sodipodi:nodetypes="sssss" /></g><g
         id="g33"
         inkscape:label="eye L"
         transform="matrix(0.54008916,0,0,0.54008916,-40.213852,-11.068723)"
         style="stroke-width:1.85154"><path
           style="color:#000000;fill:#1c362e;stroke-width:1.85154;-inkscape-stroke:none;paint-order:fill markers stroke"
           d="m 82.946863,15.331346 c 0,2.211493 1.495837,3.857957 3.663622,3.857957 0.755859,0 1.471985,-0.193092 2.034613,-0.544079 0.07663,-1.030867 -1.294241,-7.199928 -1.545599,-7.350486 -1.225401,-0.07469 -4.152636,0.780315 -4.152636,4.036608 z"
           id="path32"
           inkscape:label="main"
           sodipodi:nodetypes="ssccs" /><path
           style="color:#000000;display:inline;fill:#dcede8;fill-opacity:1;stroke-width:1.85154;-inkscape-stroke:none;paint-order:fill markers stroke"
           d="m 85.45837,12.918685 c -0.830955,0.09842 -1.401696,0.700668 -1.401696,1.557085 0,0.856418 0.579274,1.494024 1.418766,1.494024 0.839491,0 1.431188,-0.629021 1.431188,-1.485438 0,-0.856418 -0.614594,-1.664406 -1.448258,-1.565671 z"
           id="path33"
           inkscape:label="fx"
           sodipodi:nodetypes="sssss" /></g></g><g
       id="g37"
       inkscape:label="Ear R"
       inkscape:groupmode="layer"><path
         style="font-variation-settings:normal;display:inline;opacity:1;fill:#7d6f69;fill-opacity:1;stroke:none;stroke-width:0.793752;stroke-linecap:butt;stroke-linejoin:miter;stroke-miterlimit:4;stroke-dasharray:none;stroke-dashoffset:0;stroke-opacity:1;paint-order:fill markers stroke"
         d="M -2.2992814,4.9522511 C -3.6946093,1.9266428 -8.0668639,-1.3425315 -13.616505,0.43549201 c 0.06883,0.1823008 0.055,0.42015235 -0.337503,0.31307397 0.09699,0.46827162 -0.0087,0.79037532 -0.489139,0.50408572 -1.668371,4.3086109 -0.251335,6.9188584 1.931656,9.7774953 7.0412262,0.250315 8.7581543,-2.831531 10.2122096,-6.0778959 z"
         id="path44"
         inkscape:label="fill"
         sodipodi:nodetypes="cccccc" /><path
         style="font-variation-settings:normal;display:inline;opacity:1;fill:#a1817a;fill-opacity:1;stroke:none;stroke-width:0.793752;stroke-linecap:butt;stroke-linejoin:miter;stroke-miterlimit:4;stroke-dasharray:none;stroke-dashoffset:0;stroke-opacity:1;paint-order:fill markers stroke"
         d="m -3.2157588,4.8719559 c -1.5338576,-2.1444134 -6.2912914,-4.92016489 -9.2637182,-2.9554367 -1.68617,4.1527566 -0.113436,6.5972905 1.154835,8.3380278 l 0.913755,0.03439 c 0.207218,-0.228698 0.254449,-0.4961918 0.351969,-0.7248898 l 1.3613095,0.2567593 0.288213,-0.7399822 0.669124,0.4748885 0.2693721,-0.5298208 1.1563771,0.2452606 -0.1655605,-0.6018723 c 0.3064834,0.061818 0.6066103,0.066192 0.8903285,-0.077754 L -5.8064775,7.7522744 c 0.3606394,-0.03794 0.7139773,-0.086381 0.9560659,-0.2949439 l -0.2071859,-0.3846276 0.5596648,-0.129195 0.060881,-0.8442325 0.7043896,-0.048913 C -3.5299998,5.6843205 -3.3288122,5.3169795 -3.215762,4.8719526 Z"
         id="path59"
         inkscape:label="inner fill"
         sodipodi:nodetypes="ccccccccccccccccccc" /><path
         style="font-variation-settings:normal;display:inline;opacity:1;vector-effect:none;fill:#46241d;fill-opacity:0.0606504;stroke:none;stroke-width:0.793752;stroke-linecap:butt;stroke-linejoin:miter;stroke-miterlimit:4;stroke-dasharray:none;stroke-dashoffset:0;stroke-opacity:1;-inkscape-stroke:none;paint-order:fill markers stroke;stop-color:#000000;stop-opacity:1"
         d="M -3.2157588,4.8719559 C -4.9434305,2.5226387 -9.2048634,0.16415351 -12.17729,2.1288817 c -0.84524,1.1383822 3.3858794,3.3394757 3.4560854,4.8338942 0.1290961,2.747904 -2.2347964,2.5475821 -2.6034374,3.2917711 l 0.913755,0.03439 c 0.207218,-0.228698 0.254449,-0.4961918 0.351969,-0.7248898 l 1.3613095,0.2567593 0.288213,-0.7399822 0.669124,0.4748885 0.2693721,-0.5298208 1.1563771,0.2452606 -0.1655605,-0.6018723 c 0.3064834,0.061818 0.6066103,0.066192 0.8903285,-0.077754 l 0.9602126,-1.3554341 c 0.3606383,-0.037945 -0.4629585,0.4297867 -0.2208699,0.221235 l -0.2071859,-0.3846253 0.5596648,-0.129195 0.060881,-0.8442325 0.7043896,-0.048913 C -3.5299998,5.6843205 -3.3288122,5.3169795 -3.215762,4.8719526 Z"
         id="path78"
         inkscape:label="inner shadow"
         sodipodi:nodetypes="ccsccccccccccccccccc" /><path
         id="path23"
         style="color:#000000;display:inline;fill:#947068;stroke-width:1;-inkscape-stroke:none;paint-order:fill markers stroke"
         inkscape:label="inner line"
         d="m -12.860428,1.7308152 c -0.774692,1.6592492 -0.934228,3.8627711 -0.277297,5.7910569 0.293624,0.8618729 0.628302,1.8711045 1.801971,2.7346179 -0.22877,-0.612083 -1.105077,-1.8301259 -1.383069,-2.8865521 -0.466445,-1.7200298 -0.181524,-3.6500655 0.547167,-5.2429639 3.9240497,-1.88765999 6.5836008,0.5667523 8.9434391,2.7344521 -2.1230984,-3.388024 -5.8629694,-4.94265949 -9.6322111,-3.1306109 z m 5.1766269,1.1904303 c -2.2293387,0.4890506 -2.9456369,1.2693526 -4.1899299,2.6411356 1.757782,-2.5982098 2.0439142,-2.517727 4.1899299,-2.6411356 z m 2.9059039,1.2459558 c -3.1915421,0.133202 -4.6567173,0.9437075 -6.7089348,4.2155725 1.6420808,-1.5806397 3.2011809,-3.506431 6.7089348,-4.2155725 z"
         sodipodi:nodetypes="csccccccccccc" /><path
         style="color:#000000;fill:#615551;stroke-width:1;-inkscape-stroke:none;paint-order:fill markers stroke"
         d="m -14.397947,0.25789481 c 0.02309,0.1132211 0.396198,0.73750218 0.366089,0.96317869 -0.107648,-0.1460778 -0.502167,-0.36526131 -0.537439,-0.28764675 -0.03674,0.0808168 0.03375,0.19689015 -0.0053,0.27966245 -0.313603,0.6637333 -0.678706,1.3766619 -0.694813,1.9213398 -0.09396,3.1774715 0.33642,5.7654583 2.897669,8.003535 -0.79717,-2.4363025 -2.73535,-2.752695 -2.301964,-7.5209719 0.05264,-0.5791119 0.09489,-1.4069489 0.469683,-2.0496389 0.04886,-0.083784 0.260587,0.018017 0.349389,0.1419079 0.07072,-0.2160636 -4.05e-4,-0.6342853 0.07826,-0.74377271 0.07679,0.0153116 0.324639,0.20702951 0.393319,0.23741521 0.0086,-0.074021 -0.011,-0.44211226 0.02074,-0.46226429 1.26784,-0.8051911 2.795238,-1.0915563 5.4727447,-0.2219827 2.6884221,0.87311629 4.7949814,3.15707759 5.7852125,4.81549199 -0.7458021,-2.9709653 -2.8293221,-4.38818805 -5.626824,-5.26101489 -2.2292181,-0.6955201 -3.6976742,-0.7180036 -5.8076162,0.1262949 -0.08481,0.033928 -0.178914,-0.031284 -0.26571,0.00577 -0.0544,0.023177 0.07625,0.3830095 0.0865,0.4425592 -0.169615,-0.032481 -0.212295,-0.2370588 -0.679897,-0.3897824 z"
         id="path22"
         sodipodi:nodetypes="ccssscsscccsscssccc"
         inkscape:label="outline" /><path
         style="color:#000000;fill:#615551;stroke-width:1;-inkscape-stroke:none;paint-order:fill markers stroke"
         d="m -3.207288,4.825201 c -0.2212868,0.5005075 -0.3907813,0.9925326 -0.5598845,1.1737239 -0.14872,-0.098686 -0.6167902,-0.072285 -0.8759569,-0.067052 0.2588152,0.2721422 0.058153,0.5969005 0.023198,0.9089367 -0.3200492,0.053191 -0.761378,0.1055106 -0.9660165,0.1973748 0.1655931,0.08934 0.4330637,0.2300405 0.4995865,0.3571669 -0.4084692,0.3357302 -1.0384523,0.010379 -1.4045358,0.08301 0.3772256,0.2063571 0.4678899,0.5969168 0.5862332,0.83325 -0.4691904,0.2404889 -0.7317938,-0.054593 -1.0712619,-0.033272 0.1625789,0.1672019 0.3058868,0.5469207 0.3569605,0.7099623 -0.1784936,-0.141546 -0.6957957,-0.2213861 -1.0660387,-0.2954603 0.018499,0.2128138 -0.017913,0.4923101 -0.1037637,0.6809259 -0.250512,-0.1261493 -0.5737821,-0.409345 -0.6700395,-0.7001365 -0.2249485,0.3095316 -0.3272404,0.6808905 -0.4038483,1.0075526 -0.4149241,-0.1032662 -0.8515453,-0.1724164 -1.3439094,-0.2298605 -0.02105,0.23389 0.02473,0.4702704 -0.202459,0.6964682 -0.356707,0.05235 -0.714962,0.103892 -1.327842,0.02215 0.492761,0.178335 0.961236,0.207975 1.43362,0.261535 0.121494,-0.255645 0.365719,-0.4437863 0.3391465,-0.7049527 0.5860516,0.00907 1.1519114,0.3080487 1.563743,0.3963377 -0.2433609,-0.2717508 -0.055868,-0.6078838 -0.011221,-0.8434465 0.1194277,0.2234542 0.5043689,0.3128157 0.722424,0.4268216 0.150683,-0.1631063 0.2274584,-0.3375986 0.2673271,-0.5177752 0.4857482,0.027267 0.9455993,0.085342 1.2870222,0.2842743 -0.040273,-0.2464983 -0.061446,-0.4963848 -0.1928702,-0.7267035 0.2732609,0.2269702 0.7079448,0.051659 1.0215317,-0.018776 -0.1456192,-0.5363075 -0.1477734,-0.7253801 -0.3146049,-0.8607063 0.496672,0.04084 0.716295,-0.1950695 0.9530349,-0.3691347 -0.066282,-0.120881 -0.101132,-0.2486993 -0.2866472,-0.3740284 0.2531634,-0.071106 0.5474646,-0.068326 0.7517882,-0.030196 0.016591,-0.3317748 0.014788,-0.5417197 -0.044048,-0.8909403 0.2023583,0.033779 0.4591355,-0.1002652 0.609943,0.027096 0.2133735,-0.4382917 0.3548214,-0.960677 0.4293846,-1.4041507 z"
         id="path58"
         sodipodi:nodetypes="cccccccccccccccccccccccccccccccccc"
         inkscape:label="hair" /></g></g><metadata
     id="metadata1"><rdf:RDF><cc:Work
         rdf:about=""><cc:license
           rdf:resource="http://creativecommons.org/licenses/by-sa/4.0/" /><dc:creator><cc:Agent><dc:title>Guillaume 'GuieA_7' ENGLERT</dc:title></cc:Agent></dc:creator></cc:Work><cc:License
         rdf:about="http://creativecommons.org/licenses/by-sa/4.0/"><cc:permits
           rdf:resource="http://creativecommons.org/ns#Reproduction" /><cc:permits
           rdf:resource="http://creativecommons.org/ns#Distribution" /><cc:requires
           rdf:resource="http://creativecommons.org/ns#Notice" /><cc:requires
           rdf:resource="http://creativecommons.org/ns#Attribution" /><cc:permits
           rdf:resource="http://creativecommons.org/ns#DerivativeWorks" /><cc:requires
           rdf:resource="http://creativecommons.org/ns#ShareAlike" /></cc:License></rdf:RDF></metadata></svg>
