<?xml version="1.0" encoding="UTF-8" standalone="no"?>
<!-- Created with Inkscape (http://www.inkscape.org/) -->

<svg
   width="512"
   height="512"
   viewBox="0 0 135.46666 135.46667"
   version="1.1"
   id="svg1"
   xml:space="preserve"
   inkscape:version="1.3.2 (1:1.3.2+202311252150+091e20ef0f)"
   sodipodi:docname="shrew.svg"
   inkscape:export-filename="shrew.png"
   inkscape:export-xdpi="96"
   inkscape:export-ydpi="96"
   xmlns:inkscape="http://www.inkscape.org/namespaces/inkscape"
   xmlns:sodipodi="http://sodipodi.sourceforge.net/DTD/sodipodi-0.dtd"
   xmlns="http://www.w3.org/2000/svg"
   xmlns:svg="http://www.w3.org/2000/svg"
   xmlns:rdf="http://www.w3.org/1999/02/22-rdf-syntax-ns#"
   xmlns:cc="http://creativecommons.org/ns#"
   xmlns:dc="http://purl.org/dc/elements/1.1/"><sodipodi:namedview
     id="namedview1"
     pagecolor="#ffffff"
     bordercolor="#666666"
     borderopacity="1.0"
     inkscape:showpageshadow="2"
     inkscape:pageopacity="0.0"
     inkscape:pagecheckerboard="true"
     inkscape:deskcolor="#d1d1d1"
     inkscape:document-units="px"
     inkscape:zoom="1.0973349"
     inkscape:cx="258.80887"
     inkscape:cy="286.60348"
     inkscape:window-width="1868"
     inkscape:window-height="1016"
     inkscape:window-x="52"
     inkscape:window-y="27"
     inkscape:window-maximized="1"
     inkscape:current-layer="layer8"
     showguides="true"><sodipodi:guide
       position="67.733332,68.677957"
       orientation="-1,0"
       id="guide1"
       inkscape:locked="false"
       inkscape:label=""
       inkscape:color="rgb(0,134,229)" /></sodipodi:namedview><defs
     id="defs1"><filter
       inkscape:collect="always"
       style="color-interpolation-filters:sRGB"
       id="filter94"
       x="-0.095119637"
       y="-0.38818385"
       width="1.1902393"
       height="1.7763677"><feGaussianBlur
         inkscape:collect="always"
         stdDeviation="3.9559303"
         id="feGaussianBlur94" /></filter></defs><ellipse
     style="font-variation-settings:normal;display:none;opacity:1;mix-blend-mode:normal;vector-effect:none;fill:#2b2423;fill-opacity:0.101085;stroke:none;stroke-width:0.811839;stroke-linecap:butt;stroke-linejoin:miter;stroke-miterlimit:4;stroke-dasharray:none;stroke-dashoffset:0;stroke-opacity:1;-inkscape-stroke:none;paint-order:fill markers stroke;filter:url(#filter94)"
     id="path94"
     cx="60.382259"
     cy="112.60568"
     rx="49.906796"
     ry="12.229041"
     inkscape:label="shadow"
     transform="matrix(0.97778437,0,0,0.97765302,2.661061,3.7605388)" /><g
     inkscape:groupmode="layer"
     id="layer8"
     inkscape:label="Paper"><rect
       style="display:inline;fill:#ffffff;fill-opacity:1;stroke-width:4.25337;stroke-linecap:round;stroke-opacity:0.523214;stop-color:#000000"
       id="rect393"
       width="70.944305"
       height="11.35015"
       x="31.878736"
       y="124.03606"
       ry="0.0010902683" /><path
       style="fill:#ffffff;stroke-width:4.25336;stroke-linecap:round;stroke-opacity:0.523214;-inkscape-stroke:none;paint-order:fill markers stroke"
       d="m 78.650668,124.53425 7.921127,-4.01488 2.683979,-4.03943 -5.821098,-3.28559 -0.83524,-3.29824 -3.898235,-1.14827 9.538152,-4.50098 4.199406,-11.912271 -4.635101,-9.531574 2.610475,-3.707495 -1.062287,-11.119985 12.016944,-9.297805 5.23707,2.276493 1.57748,2.847076 2.17876,-0.827577 1.22235,0.574738 -0.20135,2.690733 2.09496,-0.150085 2.6063,2.764595 -1.84713,4.548214 1.40739,1.783561 1.84163,-1.327208 -0.68921,3.936918 2.81352,1.655937 2.17246,-4.374483 4.23637,3.551174 3.41995,-1.002938 1.97004,-3.724235 -3.88267,-4.339381 6.51788,-4.97455 -0.74321,-2.058117 -8.40063,4.108018 -3.18913,-2.608931 2.62347,-3.478091 -1.75007,-0.964941 -2.97825,1.277467 -2.78393,-2.437347 3.0706,-2.229898 -1.29323,-1.117039 -3.41126,0.871683 -2.52239,-5.965762 -1.95354,-2.502212 0.32649,-3.661836 -2.7679,-4.213328 5.1283,0.166333 1.0172,-2.431706 -2.80238,-5.378325 -7.65157,-1.185059 -5.285675,-1.03102 -3.023184,-14.280477 -11.934603,-2.430644 -13.566664,3.4818 -1.337577,11.190373 -8.667546,1.034698 -1.734132,4.691158 0.499501,7.24087 -14.370716,2.822808 -3.572272,5.789065 -8.849114,7.888795 -0.303154,8.804818 3.590819,5.177287 5.799037,1.61359 -5.837153,4.761077 -4.404095,13.671227 1.186638,5.227121 2.587072,6.903823 -10.111011,4.49091 -13.378322,2.22147 -7.3226339,3.41604 -2.775931,6.55582 0.9102131,6.23327 6.9729659,4.00832 8.6463449,0.64331 11.873411,-2.08445 3.968819,-0.7897 z"
       id="path1" /></g><g
     inkscape:label="Main"
     inkscape:groupmode="layer"
     id="layer1"
     style="display:inline"><g
       id="g24"
       inkscape:label="Tail"
       inkscape:groupmode="layer"><path
         style="font-variation-settings:normal;opacity:1;fill:#a1817a;fill-opacity:1;stroke:none;stroke-width:0.79375;stroke-linecap:butt;stroke-linejoin:miter;stroke-miterlimit:4;stroke-dasharray:none;stroke-dashoffset:0;stroke-opacity:1;paint-order:fill markers stroke"
         d="m 37.439057,103.73804 7.428443,8.31016 c -9.505081,0.39778 -19.404888,4.43881 -30.27063,5.52629 -1.949161,0.7765 -3.990427,2.38909 -4.358155,3.86556 3.46171,4.64595 18.396892,-1.1598 28.58299,0.49406 3.198359,1.99433 5.158795,3.06318 3.793249,7.11871 -1.604764,0.35302 -3.745944,-1.7439 -6.504219,-2.41501 -10.538024,-0.22038 -12.518381,2.69527 -21.182138,2.59954 -3.88374,-0.24593 -7.7586088,-0.53784 -10.8152799,-5.06872 -0.7336438,-2.42768 -2.2847934,-6.7676 3.5774542,-10.27996 2.3143017,-1.62253 14.7981107,-4.15314 18.2514337,-5.13914 2.876795,-0.8214 11.830059,-4.84311 11.496852,-5.01149 z"
         id="path41"
         inkscape:label="fill"
         sodipodi:nodetypes="ccccccccccsc" /><path
         id="path75"
         style="font-variation-settings:normal;display:inline;opacity:1;vector-effect:none;fill:#46241d;fill-opacity:0.073618;stroke:none;stroke-width:0.79375;stroke-linecap:butt;stroke-linejoin:miter;stroke-miterlimit:4;stroke-dasharray:none;stroke-dashoffset:0;stroke-opacity:1;-inkscape-stroke:none;paint-order:fill markers stroke;stop-color:#000000;stop-opacity:1"
         inkscape:label="shadow"
         d="m 37.438982,103.73793 c 0.333208,0.16838 -1.092773,5.15051 -9.458942,7.447 -3.46322,0.95064 -14.276963,3.26893 -16.732257,4.66898 -0.935946,0.5337 -2.9378786,1.98291 -2.8790249,3.27823 l 1.1749342,1.94345 c 0.101442,-1.63624 3.1474117,-3.5 4.5033847,-3.81157 4.627713,-1.06335 8.126332,-1.29186 14.817964,-3.3858 6.252305,-1.95647 12.913822,-3.72444 15.732181,-2.41802 z M 6.3451837,119.29517 c -0.5708706,0.55001 -1.020343,3.17352 -0.1059981,4.85215 2.6143829,4.7997 5.1384234,4.11419 9.0221624,4.36013 8.663748,0.0957 10.572472,-3.82386 20.849531,-2.52284 2.816265,0.35651 4.468611,2.52239 5.780522,1.53306 1.066846,-0.80452 -2.126324,-2.18842 -3.565747,-2.77778 -6.067011,-2.48406 -15.548821,1.82112 -22.318699,1.80072 -2.970448,-0.009 -5.823115,-1.19361 -7.60691,-3.5864 -0.9014842,-1.20924 -1.1994377,-4.48322 -2.0548613,-3.65904 z"
         sodipodi:nodetypes="cssccssccsscssssss" /><path
         style="color:#000000;fill:#947068;stroke-width:1;-inkscape-stroke:none;paint-order:fill markers stroke"
         d="m 36.976083,102.93722 c -6.90519,5.54053 -13.217278,5.77217 -21.524415,7.59695 -2.19757,0.48271 -4.744838,0.99065 -7.0087615,2.067 -2.2676688,1.07815 -4.3544352,3.03511 -5.3471348,5.66232 -0.8517336,2.31106 -0.1601861,5.07391 1.3720034,7.07753 1.7957378,2.34827 3.8781726,3.21202 6.2445629,3.77288 5.496346,1.30266 11.361457,-0.20158 16.894211,-1.32157 2.862931,-0.57667 5.616206,-1.16952 7.237358,-0.96862 6.617289,0.82 5.537758,3.13047 7.268699,2.7865 1.404998,-0.2792 2.336021,-2.12768 1.715059,-3.94035 -1.504255,-4.50219 -7.206818,-4.99964 -10.329551,-4.91549 h -0.002 -0.0039 c -3.974525,0 -9.284661,2.21682 -20.130972,1.995 -0.848479,-0.0174 -2.155603,-0.52915 -2.767779,-1.16561 -0.0095,-0.4239 0.91497,-1.73605 1.441434,-2.15438 2.116701,-1.68197 5.202476,-1.52275 8.75357,-2.17841 8.00524,-1.47808 16.869324,-4.3956 24.849955,-4.72238 l -1.776856,-1.53071 c -8.271863,0.3387 -15.562149,3.75345 -23.413727,5.20316 -3.477847,0.64214 -6.284919,0.55072 -8.827528,2.57112 -0.627822,0.49889 -1.361779,1.63736 -1.609998,2.31482 -0.8679234,-0.68317 -1.694895,-2.03409 -2.3958651,-3.16354 0.523462,1.90431 1.1377898,3.47987 2.8692891,4.79531 3.663325,2.78307 20.279157,-0.55754 23.049346,-0.64677 2.539389,-0.0818 7.747282,0.22539 8.978455,4.02308 0.565644,1.7448 -0.34174,2.23524 -0.565112,2.27184 -1.760034,0.28826 -1.400753,-1.55442 -7.415786,-2.29978 -1.996373,-0.2474 -4.308729,-0.14646 -7.18492,0.43287 -5.514706,1.45333 -11.472063,3.21345 -16.96399,1.74623 -2.166683,-0.57885 -4.2098366,-1.74891 -5.4573463,-3.93493 -1.280552,-2.24392 -1.3546303,-3.91096 -0.538554,-6.2827 0.7795487,-2.26557 2.5543025,-3.25251 4.6234439,-4.23627 2.0726674,-0.98544 2.3218844,-1.13232 6.7187554,-1.96971 4.554029,-0.8673 15.20808,-3.50775 21.968679,-7.56584 z"
         id="path4"
         sodipodi:nodetypes="cssssassscccsscssccssccssssssasssscc"
         inkscape:label="outline" /><g
         id="g87"
         inkscape:label="spots"
         transform="matrix(0.99652495,0,0,0.99652495,-1.8726842,11.327312)"
         style="stroke-width:1.00349"><ellipse
           style="font-variation-settings:normal;opacity:1;vector-effect:none;fill:#947068;fill-opacity:1;stroke:none;stroke-width:0.796545;stroke-linecap:butt;stroke-linejoin:miter;stroke-miterlimit:4;stroke-dasharray:none;stroke-dashoffset:0;stroke-opacity:1;-inkscape-stroke:none;paint-order:fill markers stroke"
           id="path84"
           cx="9.8101377"
           cy="102.3931"
           rx="0.33495447"
           ry="0.19690117"
           transform="matrix(0.96156077,-0.27459222,0.26341323,0.96468309,0,0)" /><ellipse
           style="font-variation-settings:normal;opacity:1;vector-effect:none;fill:#947068;fill-opacity:1;stroke:none;stroke-width:0.796544;stroke-linecap:butt;stroke-linejoin:miter;stroke-miterlimit:4;stroke-dasharray:none;stroke-dashoffset:0;stroke-opacity:1;-inkscape-stroke:none;paint-order:fill markers stroke"
           id="ellipse85"
           cx="11.118478"
           cy="104.60455"
           rx="0.45847878"
           ry="0.26951429"
           transform="matrix(0.96156077,-0.27459223,0.26341324,0.96468309,0,0)" /><ellipse
           style="font-variation-settings:normal;opacity:1;vector-effect:none;fill:#947068;fill-opacity:1;stroke:none;stroke-width:0.796545;stroke-linecap:butt;stroke-linejoin:miter;stroke-miterlimit:4;stroke-dasharray:none;stroke-dashoffset:0;stroke-opacity:1;-inkscape-stroke:none;paint-order:fill markers stroke"
           id="ellipse86"
           cx="9.6374216"
           cy="105.36188"
           rx="0.53193128"
           ry="0.31269294"
           transform="matrix(0.96156077,-0.27459223,0.26341325,0.96468309,0,0)" /><ellipse
           style="font-variation-settings:normal;opacity:1;vector-effect:none;fill:#947068;fill-opacity:1;stroke:none;stroke-width:0.796547;stroke-linecap:butt;stroke-linejoin:miter;stroke-miterlimit:4;stroke-dasharray:none;stroke-dashoffset:0;stroke-opacity:1;-inkscape-stroke:none;paint-order:fill markers stroke"
           id="ellipse87"
           cx="7.0477052"
           cy="103.72897"
           rx="0.31234378"
           ry="0.18360962"
           transform="matrix(0.96156077,-0.27459222,0.26341325,0.96468309,0,0)" /></g></g><g
       id="g42"
       inkscape:label="Nose"
       inkscape:groupmode="layer"><path
         style="font-variation-settings:normal;opacity:1;fill:#615551;fill-opacity:1;stroke:none;stroke-width:0.47625;stroke-linecap:butt;stroke-linejoin:miter;stroke-miterlimit:4;stroke-dasharray:none;stroke-dashoffset:0;stroke-opacity:1;paint-order:fill markers stroke"
         d="m 115.46535,73.044721 c 0.17839,-0.100661 2.59012,-3.581085 5.90967,-5.294719 -4.12977,1.574939 -4.6933,2.641048 -5.90967,5.294719 z"
         id="path70"
         sodipodi:nodetypes="ccc"
         inkscape:label="hair" /><path
         style="font-variation-settings:normal;display:inline;opacity:1;fill:#a1817a;fill-opacity:1;stroke:none;stroke-width:0.47625;stroke-linecap:butt;stroke-linejoin:miter;stroke-miterlimit:4;stroke-dasharray:none;stroke-dashoffset:0;stroke-opacity:1;paint-order:fill markers stroke"
         d="m 108.57217,47.723724 7.97307,12.81405 12.64611,12.4433 c 0.38115,2.267885 -0.47602,3.833797 -3.83742,3.459552 -4.33728,-5.565887 -10.03937,-10.91118 -15.6586,-16.269863 l -9.757377,-4.499996 z"
         id="path64"
         inkscape:label="fill"
         sodipodi:nodetypes="ccccccc" /><path
         style="font-variation-settings:normal;opacity:1;fill:#615551;fill-opacity:1;stroke:none;stroke-width:0.47625;stroke-linecap:butt;stroke-linejoin:miter;stroke-miterlimit:4;stroke-dasharray:none;stroke-dashoffset:0;stroke-opacity:1;paint-order:fill markers stroke"
         d="m 114.75228,58.899409 c 0.10429,-0.03878 2.12753,-1.971317 4.02184,-2.58714 -2.19548,0.396115 -2.74142,1.015662 -4.02184,2.58714 z"
         id="path69"
         sodipodi:nodetypes="ccc"
         inkscape:label="hair" /><path
         style="font-variation-settings:normal;display:inline;opacity:1;vector-effect:none;fill:#46241d;fill-opacity:0.073618;stroke:none;stroke-width:0.79375;stroke-linecap:butt;stroke-linejoin:miter;stroke-miterlimit:4;stroke-dasharray:none;stroke-dashoffset:0;stroke-opacity:1;-inkscape-stroke:none;paint-order:fill markers stroke;stop-color:#000000;stop-opacity:1"
         d="m 108.57217,47.723724 c 0,0 0.937,2.640459 1.50503,4.641298 1.03548,3.647521 0.20505,5.298587 5.98152,10.318463 5.89723,5.124817 9.32244,11.656185 9.98786,11.202991 0.78914,-0.537461 0.60841,-0.794231 2.52576,-1.074444 1.05771,2.287022 -1.0521,4.00582 -2.92036,3.08429 -4.74349,-5.722635 -10.09231,-12.264664 -15.60946,-16.254903 -3.20815,-2.320261 -6.78803,-2.652334 -10.104747,-3.970647 z"
         id="path76"
         inkscape:label="shadow"
         sodipodi:nodetypes="csssccscc" /><g
         id="g64"
         style="display:inline;stroke-width:1.00349"
         inkscape:label="nostrils"
         transform="matrix(0.99652495,0,0,0.99652495,-1.8726842,11.327312)"><ellipse
           style="font-variation-settings:normal;opacity:1;fill:#3f302b;fill-opacity:1;stroke:none;stroke-width:0.47791;stroke-linecap:butt;stroke-linejoin:miter;stroke-miterlimit:4;stroke-dasharray:none;stroke-dashoffset:0;stroke-opacity:1;paint-order:fill markers stroke"
           id="path63"
           cx="129.22163"
           cy="63.403152"
           rx="0.35661733"
           ry="0.62066323" /><ellipse
           style="font-variation-settings:normal;opacity:1;fill:#3f302b;fill-opacity:1;stroke:none;stroke-width:0.47791;stroke-linecap:butt;stroke-linejoin:miter;stroke-miterlimit:4;stroke-dasharray:none;stroke-dashoffset:0;stroke-opacity:1;paint-order:fill markers stroke"
           id="ellipse63"
           cx="130.39105"
           cy="62.9688"
           rx="0.34708923"
           ry="0.60408038" /></g><path
         style="color:#000000;fill:#947068;stroke-width:1;-inkscape-stroke:none;paint-order:fill markers stroke"
         d="m 109.61666,50.032393 c 0,0 2.67358,5.684853 4.69084,8.379077 4.20307,5.613539 6.86643,7.133962 13.96017,14.255376 -0.54425,0.204961 -1.10998,0.394837 -1.40644,0.656131 0.65483,-0.100934 1.35296,-0.261849 1.97134,-0.0083 0.40544,2.220882 -1.51752,3.433295 -3.08244,2.784626 -0.0336,-0.674774 0.15134,-1.415298 0.41839,-2.105779 -0.3153,0.377512 -0.68329,0.873366 -0.86278,1.602782 -1.98518,-2.380474 -9.90504,-11.894051 -15.43587,-15.897049 -2.28707,-1.655289 -7.60243,-3.322712 -7.60243,-3.322712 l 0.0606,0.723703 c 0,0 5.03651,2.044137 6.96831,3.442292 5.25275,3.801736 13.39678,13.187691 16.05923,16.358968 3.39419,0.931821 5.19969,-2.585 4.16512,-4.192411 -4.75883,-4.752463 -9.81721,-9.168169 -13.93575,-14.508001 -1.79889,-2.402566 -4.98906,-8.191659 -4.98906,-8.191659 -0.32666,0.09254 -0.64661,0.04759 -0.97918,0.02308 z"
         id="path14"
         sodipodi:nodetypes="csccccccsccsccsccc"
         inkscape:label="outline" /><path
         style="font-variation-settings:normal;opacity:1;fill:#615551;fill-opacity:1;stroke:none;stroke-width:0.47625;stroke-linecap:butt;stroke-linejoin:miter;stroke-miterlimit:4;stroke-dasharray:none;stroke-dashoffset:0;stroke-opacity:1;paint-order:fill markers stroke"
         d="m 125.1843,70.12895 c 0.2235,-0.107159 4.18633,-4.595411 8.27583,-6.372091 -4.84477,1.451326 -5.89391,2.960427 -8.27583,6.372091 z"
         id="path65"
         sodipodi:nodetypes="ccc"
         inkscape:label="hair" /><path
         style="font-variation-settings:normal;opacity:1;fill:#615551;fill-opacity:1;stroke:none;stroke-width:0.47625;stroke-linecap:butt;stroke-linejoin:miter;stroke-miterlimit:4;stroke-dasharray:none;stroke-dashoffset:0;stroke-opacity:1;paint-order:fill markers stroke"
         d="m 118.87699,77.70687 c 0.13388,-0.155023 1.2275,-4.245718 3.77262,-6.980366 -3.35454,2.877928 -3.52463,4.071756 -3.77262,6.980366 z"
         id="path66"
         sodipodi:nodetypes="ccc"
         inkscape:label="hair" /><path
         style="font-variation-settings:normal;opacity:1;fill:#615551;fill-opacity:1;stroke:none;stroke-width:0.47625;stroke-linecap:butt;stroke-linejoin:miter;stroke-miterlimit:4;stroke-dasharray:none;stroke-dashoffset:0;stroke-opacity:1;paint-order:fill markers stroke"
         d="m 119.6621,65.552712 c 0.10195,-0.09654 1.50258,-3.256826 3.39791,-4.913814 -2.35205,1.573976 -2.68201,2.533719 -3.39791,4.913814 z"
         id="path67"
         sodipodi:nodetypes="ccc"
         inkscape:label="hair" /><path
         style="font-variation-settings:normal;opacity:1;fill:#615551;fill-opacity:1;stroke:none;stroke-width:0.47625;stroke-linecap:butt;stroke-linejoin:miter;stroke-miterlimit:4;stroke-dasharray:none;stroke-dashoffset:0;stroke-opacity:1;paint-order:fill markers stroke"
         d="m 112.66237,65.230424 c 0.0785,-0.03406 1.57424,-1.647689 3.00092,-2.194794 -1.73519,0.163107 -2.13417,0.68487 -3.00092,2.194794 z"
         id="path68"
         sodipodi:nodetypes="ccc"
         inkscape:label="hair" /><path
         style="font-variation-settings:normal;opacity:1;fill:#615551;fill-opacity:1;stroke:none;stroke-width:0.47625;stroke-linecap:butt;stroke-linejoin:miter;stroke-miterlimit:4;stroke-dasharray:none;stroke-dashoffset:0;stroke-opacity:1;paint-order:fill markers stroke"
         d="m 108.50165,61.944433 c 0.0615,-0.04265 1.08197,-1.617539 2.21111,-2.335786 -1.4522,0.476629 -1.71008,0.9689 -2.21111,2.335786 z"
         id="path81"
         sodipodi:nodetypes="ccc"
         inkscape:label="hair" /></g><g
       id="g89"
       inkscape:label="Foot L"
       inkscape:groupmode="layer"
       transform="translate(17.201691,-5.7691136)"
       style="display:inline"><path
         style="font-variation-settings:normal;opacity:1;vector-effect:none;fill:#a1817a;fill-opacity:1;stroke:none;stroke-width:0.79375;stroke-linecap:butt;stroke-linejoin:miter;stroke-miterlimit:4;stroke-dasharray:none;stroke-dashoffset:0;stroke-opacity:1;-inkscape-stroke:none;paint-order:fill markers stroke"
         d="m 49.724522,114.96585 4.928934,-1.69528 c 2.795192,1.65494 5.550164,2.92314 9.469004,3.99899 1.141189,1.274 0.737486,2.10006 -0.409123,2.52182 0.343091,0.21286 3.847056,2.12142 4.671014,2.7618 1.102346,1.09736 -0.275342,2.48696 -1.61152,2.15477 -1.573804,-0.78247 -3.878066,-2.72588 -5.333938,-2.43818 0.534297,0.54586 1.174549,1.15594 1.485716,1.67578 0.472225,1.81399 -0.461782,2.75309 -1.848909,1.86777 l -3.080375,-3.63117 c 0.253704,1.6664 -2.109368,2.31441 -3.167805,0.0568 -2.263012,-2.69192 -3.050941,-4.53082 -5.103001,-7.27321 z"
         id="path87"
         inkscape:label="fill"
         sodipodi:nodetypes="ccccccccccccc" /><path
         id="path88"
         style="font-variation-settings:normal;display:inline;opacity:1;vector-effect:none;fill:#46241d;fill-opacity:0.073618;stroke:none;stroke-width:0.79375;stroke-linecap:butt;stroke-linejoin:miter;stroke-miterlimit:4;stroke-dasharray:none;stroke-dashoffset:0;stroke-opacity:1;-inkscape-stroke:none;paint-order:fill markers stroke;stop-color:#000000;stop-opacity:1"
         inkscape:label="shadow"
         d="m 54.802495,113.59438 c -1.791785,0.005 -3.207928,0.48351 -4.860274,1.31935 1.075167,1.91086 1.716351,2.06646 3.198974,3.665 0.160718,0.17328 1.871107,3.6078 3.032834,4.42305 0.88344,0.61996 1.15622,-0.65307 1.041056,-1.37221 -0.09089,-0.56758 -1.122235,-2.34586 -1.122235,-2.34586 0.960677,0.38324 1.433322,1.90941 1.901419,2.5095 0.448255,0.57464 1.16737,1.04926 1.355399,1.24776 0.643032,0.67889 0.963014,2.68165 2.52077,2.65466 0.602094,-0.0104 0.799818,-0.8022 0.724561,-0.99234 -0.08732,-0.22064 -0.02748,0.77792 -1.185458,0.32134 -0.116076,-0.0458 -0.694181,-1.04069 -1.374965,-2.2705 -1.512112,-2.7315 -1.247966,-1.93941 -2.469702,-3.88168 -0.852075,-1.3546 2.583368,1.82378 3.682967,2.93723 -0.01157,-0.59812 3.225987,0.74062 4.383927,1.65923 0.121772,0.0764 1.136712,0.74897 1.440882,0.79614 1.030744,0.15987 2.001234,-1.13862 0.617448,-0.70963 -0.713295,0.22112 -0.970154,-0.68954 -1.858522,-1.1731 -0.606286,-0.33001 -2.159402,-1.12001 -3.72191,-1.65884 -2.411591,-0.83163 -3.591318,-2.78215 -3.88984,-3.68241 -0.114581,-0.34554 4.867098,2.28847 5.172859,2.40233 0.361446,-0.027 0.768525,-0.18042 0.90583,-0.45111 0.211254,-0.41647 0.181456,-0.79503 -0.508274,-0.35996 -0.89656,0.56552 -5.570897,-2.77038 -8.19521,-5.01065 -0.273088,-0.0188 -0.536567,-0.028 -0.792536,-0.0273 z"
         sodipodi:nodetypes="scssscsscssssccssssscsscss" /><path
         style="color:#000000;fill:#947068;stroke-width:0.999993;-inkscape-stroke:none;paint-order:fill markers stroke"
         d="m 50.624255,115.94155 -1.016145,-0.0467 c 1.282691,1.64853 2.868387,3.692 4.224534,5.60323 0.750782,1.10514 1.425376,2.7394 2.992402,2.60286 0.50266,-0.0437 1.250032,-0.70487 1.282079,-1.3029 0.383555,0.4678 0.752604,0.80826 1.064445,1.39165 0.3799,0.7107 0.333317,1.41938 1.433692,1.98568 2.658539,1.36819 3.00871,-1.02046 2.620969,-2.01918 -0.211775,-0.54548 -1.052003,-1.37855 -1.522745,-1.97042 0.384276,0.13608 2.7576,1.54312 2.991166,1.68447 0.506886,0.30677 0.935499,0.80926 1.215254,1.01867 1.202994,0.90053 2.896885,0.20011 3.414475,-0.84131 0.285794,-0.57505 -0.127796,-1.50029 -0.779229,-1.76104 -0.738249,-0.29401 -3.718905,-1.99007 -4.357573,-2.45895 0.531307,-0.0721 0.982689,-0.76672 1.023615,-1.16049 0.03263,-0.78788 -1.022051,-1.54976 -2.141831,-1.88609 -2.227814,-0.66916 -3.660584,-1.28046 -5.988513,-2.39745 l -0.278423,0.43834 c 2.601247,1.5666 3.355916,1.68596 5.501026,2.38641 0.924466,0.30187 2.195984,0.42871 2.178676,1.46461 -0.0049,0.29522 -0.262907,0.61989 -0.793644,0.76017 l -5.189087,-2.39818 c 0.801461,0.93979 5.869782,2.98903 7.703459,4.49615 0.06972,0.0574 -0.581818,0.25324 -0.501623,0.28663 0.390585,0.16264 0.824006,0.006 1.592433,0.34305 0.781471,0.34295 1.321582,0.85189 1.084917,1.60279 -0.217772,0.69092 -1.3373,0.71747 -1.860928,0.32552 -0.224526,-0.16805 -1.076882,-0.65971 -1.652699,-1.00823 -0.648671,-0.39258 -2.667234,-1.39168 -3.668875,-1.47045 -1.068573,-1.25174 -1.694296,-2.09003 -3.460292,-2.99449 1.561634,1.78314 2.540792,2.76837 3.710492,4.00946 0.176102,0.18684 -0.724282,0.18914 -0.317707,0.29779 1.321533,0.3531 1.558328,1.22815 1.554671,1.82345 -0.0032,0.52142 -0.376795,1.39945 -1.546603,0.86198 -0.373234,-0.17148 -1.036395,-0.90581 -1.446268,-1.86071 -0.319588,-0.74458 -1.210707,-1.34584 -1.525743,-1.6322 -0.154547,-0.66476 -0.193633,-1.18178 -1.370481,-2.21715 0.281839,0.45933 0.448364,0.81845 0.593413,1.24335 0.340175,0.99646 0.08543,1.84446 -0.71092,2.14199 -0.353497,0.13179 -0.979772,-0.53636 -1.441908,-1.10433 -0.598492,-0.73558 -0.5625,-1.78194 -0.913248,-2.37747 -0.07405,-0.12573 -0.0371,1.0291 -0.191307,0.73911 -1.132898,-2.13032 -2.738751,-3.83552 -3.505926,-4.59963 z"
         id="path89"
         inkscape:label="outline"
         sodipodi:nodetypes="ccsscssscssascssccssccssssssccsssssccssssscc" /></g><g
       id="g41"
       inkscape:label="Foot R"
       inkscape:groupmode="layer"><path
         style="font-variation-settings:normal;opacity:1;vector-effect:none;fill:#a1817a;fill-opacity:1;stroke:none;stroke-width:0.79375;stroke-linecap:butt;stroke-linejoin:miter;stroke-miterlimit:4;stroke-dasharray:none;stroke-dashoffset:0;stroke-opacity:1;-inkscape-stroke:none;paint-order:fill markers stroke"
         d="m 52.344324,115.04706 7.042712,-0.24499 c 2.324909,2.80301 4.820917,4.14292 6.692061,5.91426 0.446322,1.51869 -0.127941,1.88152 -1.241307,2.11521 0.281713,0.35441 1.758737,1.92969 2.386731,2.9185 0.336075,0.97101 -0.375542,1.93619 -1.608941,1.74725 -1.365176,-1.41909 -2.69366,-3.47374 -4.127225,-3.70823 0.116203,2.10872 1.772043,2.72014 2.302718,5.80735 -0.193423,2.08236 -1.729707,1.7892 -2.56828,1.31803 l -3.415123,-7.36818 c -0.0843,0.87532 0.09239,1.40217 -0.157851,2.25207 -0.737547,1.08552 -1.626362,1.04612 -2.179118,0.47883 -1.374047,-3.71002 -2.367077,-7.45832 -3.126377,-11.2301 z"
         id="path82"
         inkscape:label="fill"
         sodipodi:nodetypes="ccccccccccccc" /><path
         id="path83"
         style="font-variation-settings:normal;display:inline;opacity:1;vector-effect:none;fill:#46241d;fill-opacity:0.073618;stroke:none;stroke-width:0.79375;stroke-linecap:butt;stroke-linejoin:miter;stroke-miterlimit:4;stroke-dasharray:none;stroke-dashoffset:0;stroke-opacity:1;-inkscape-stroke:none;paint-order:fill markers stroke;stop-color:#000000;stop-opacity:1"
         inkscape:label="shadow"
         d="m 59.386942,114.80206 -7.04271,0.24514 c 0.357904,1.40313 0.349761,2.2267 0.884716,2.57999 0.220467,0.14559 0.72217,-0.59122 0.993373,-0.60149 0.345278,-0.013 0.967401,0.93251 1.187003,1.26477 0.139672,0.21131 1.048065,-1.1862 1.743169,-1.14993 1.287175,0.34658 1.59134,2.18008 2.31922,3.31552 0.710321,1.10805 1.397009,2.23743 1.995187,3.4074 0.11608,-0.64011 -0.254563,-1.86008 3.121417,1.50666 0.113812,0.11351 0.913729,1.14524 1.0179,1.2788 0.76743,0.98386 2.085157,-0.52163 0.629716,-0.28571 -0.824132,0.13359 -0.869795,-0.74598 -1.643742,-1.57039 -1.27337,-1.3564 -2.871929,-3.3731 -2.875017,-5.18506 -6.94e-4,-0.40699 2.892881,2.79221 2.806064,2.68298 0.393051,0.0985 0.805887,0.0557 1.013279,-0.21287 0.405812,-0.52558 0.577675,-0.72969 -0.306949,-0.50921 -1.1499,0.28659 -3.840495,-3.46927 -5.842626,-6.7666 z m -2.95798,5.72182 c 0.398193,1.63775 0.456246,2.91778 0.207533,4.34685 -0.149731,0.86035 -0.575406,1.85063 0.179723,1.25395 0.973492,-0.76924 0.190846,-3.29979 0.114839,-4.17588 -0.04438,-0.51157 -0.103988,-1.05626 -0.502095,-1.42492 z m 4.227553,2.84628 c 0.171333,1.88979 0.789481,3.40995 1.62661,5.05747 0.392253,0.74173 -0.560289,1.94774 -0.501065,2.11703 0.317636,0.90792 1.596943,-0.34367 1.16383,-1.71537 -0.425554,-1.34774 -1.547481,-3.23071 -2.289375,-5.45913 z"
         sodipodi:nodetypes="ccssscacssssscssccsssccsssc" /><path
         style="color:#000000;fill:#947068;stroke-width:1;-inkscape-stroke:none;paint-order:fill markers stroke"
         d="m 52.583816,115.07799 -1.109329,0.17604 c 0.732686,2.23363 1.624221,5.6162 2.335606,8.1571 0.376149,1.45679 0.531933,3.26326 2.176531,3.88637 0.846947,0.21759 2.400692,-0.94982 2.064208,-2.57506 0.626773,1.03096 0.96943,2.57424 1.362767,3.36185 0.397852,0.79665 0.333004,1.52343 1.091896,2.684 1.802545,2.75661 4.346162,-0.17207 3.997785,-1.15026 -0.408865,-1.14804 -1.262958,-2.15304 -1.726403,-3.21537 -0.148176,-0.33965 -0.788726,-1.75954 -0.924552,-2.15926 0.353999,0.2879 1.50906,1.17874 1.702177,1.41625 0.419093,0.51541 0.479525,0.96274 0.695754,1.28994 0.929825,1.40697 2.585149,1.32891 3.439178,0.54303 0.532795,-0.49029 0.429195,-1.64616 -0.159599,-2.16628 -0.667824,-0.58785 -1.609316,-1.52847 -2.106427,-2.26559 0.587181,0.12116 1.031632,-0.25342 1.222789,-0.65779 0.330563,-0.82739 0.07126,-1.97922 -0.982901,-2.75406 -2.097267,-1.54158 -3.23055,-2.53295 -5.463778,-4.59298 l -0.554365,0.33661 c 2.085746,2.67874 2.716684,3.1304 4.91466,4.55102 0.914059,0.59078 1.56202,1.0599 1.154402,2.15725 -0.116173,0.31273 -0.1752,0.29835 -0.787483,0.25047 l -2.50815,-2.20718 c 0.491728,1.29946 2.222685,2.55786 3.073148,3.73298 0.05939,0.0821 -0.564713,-0.0126 -0.529815,0.0782 0.131788,0.34279 0.486443,0.20401 1.169824,0.84916 0.694989,0.6561 1.199088,1.32164 0.66732,2.03375 -0.489314,0.65524 -1.202662,0.0976 -1.60739,-0.51486 -0.173539,-0.26259 -0.684795,-0.856 -1.160879,-1.44152 -0.536327,-0.65957 -1.360768,-1.31603 -2.387185,-1.7725 l -1.692879,-3.29179 c 0.25602,2.48948 1.754646,5.35167 2.521356,7.10915 0.11543,0.2646 -0.885353,0.0263 -0.300705,0.35116 1.088379,0.6047 1.489279,2.03801 1.261662,2.67098 -0.199365,0.5544 -1.422271,1.59368 -2.030373,0.28623 -0.280224,-0.60252 -0.642081,-2.06079 -1.139457,-2.9964 -1.277142,-2.4024 -2.283131,-4.11226 -3.584007,-6.17172 0.124486,0.59425 0.36997,1.41411 0.610423,2.48969 0.193779,1.28743 0.123222,2.8037 -0.828209,2.82454 -0.42223,0.009 -1.268365,-0.94743 -1.542103,-1.72452 -0.354504,-1.00638 0.07675,-2.10794 -0.06919,-2.87296 -0.0308,-0.16148 -0.425928,1.08277 -0.479517,0.71642 -0.392529,-2.68356 -1.664699,-6.83706 -1.786792,-7.42214 z"
         id="path19"
         inkscape:label="outline"
         sodipodi:nodetypes="ccsscsssscssascssccssccssssssccsssssccssssc" /></g><g
       id="g25"
       inkscape:groupmode="layer"
       inkscape:label="Backpack (main)"><path
         style="font-variation-settings:normal;opacity:1;fill:#3e82ae;fill-opacity:1;stroke:none;stroke-width:0.79375;stroke-linecap:butt;stroke-linejoin:miter;stroke-miterlimit:4;stroke-dasharray:none;stroke-dashoffset:0;stroke-opacity:1;paint-order:fill markers stroke"
         d="m 58.501816,42.805053 c -4.116176,0.331785 -14.933658,-0.28847 -15.189477,5.989282 l 1.35971,-0.134293 c -3.066042,3.13186 -6.08376,5.546078 -9.942953,8.166678 -2.272822,3.287014 -1.990056,8.025022 0.865878,12.346555 2.476377,1.281103 5.264576,2.16536 8.271921,2.417289 8.05245,-8.988789 13.298093,-18.279831 14.634921,-28.785511 z"
         id="path49"
         inkscape:label="fill"
         sodipodi:nodetypes="ccccccc" /><path
         style="font-variation-settings:normal;opacity:1;fill:#122633;fill-opacity:0.117154;stroke:none;stroke-width:0.79375;stroke-linecap:butt;stroke-linejoin:miter;stroke-miterlimit:4;stroke-dasharray:none;stroke-dashoffset:0;stroke-opacity:1;paint-order:fill markers stroke"
         d="m 55.91078,49.453915 c -0.526761,0.942431 -0.851988,1.842212 -1.344899,2.267015 -0.230852,0.198954 -1.600316,-3.791712 -1.94266,-3.84554 -0.209321,-0.03291 0.837223,3.942819 0.563368,3.788647 -0.757921,-0.426688 -1.978159,-1.335433 -3.480585,-2.983918 -1.36895,-1.502034 -4.504966,-0.977055 -6.393665,0.11422 l 1.079291,0.874296 c 2.204439,0.410354 3.965439,1.198473 4.949897,2.089923 0.316036,0.286177 -2.022066,1.062138 -1.877108,1.360534 0.133061,0.273905 2.91262,0.135085 2.734621,0.339527 -2.35889,2.709308 -6.993825,6.325419 -9.365261,8.4282 -1.651781,1.464653 -3.684941,-4.945111 -3.8948,-4.802605 0.742194,3.583678 0.647945,5.491592 0.217001,6.524441 -0.124338,0.298003 -0.831989,-0.518852 -1.000382,-0.34731 -0.148909,0.151694 0.244936,1.303474 0.07926,1.384616 -1.40282,0.687065 -3.109006,-0.678361 -0.07936,3.97751 2.476377,1.281102 3.708834,2.12458 7.45166,1.76231 8.05245,-8.988789 10.966795,-10.426182 12.303622,-20.931862 z"
         id="path72"
         inkscape:label="shadow"
         sodipodi:nodetypes="cssssccsssscssscccc" /><path
         id="path9"
         style="color:#000000;fill:#2d668b;stroke-width:1;-inkscape-stroke:none;paint-order:fill markers stroke"
         inkscape:label="outline"
         d="m 54.07674,42.390963 c -3.523205,0.23967 -7.530178,0.874034 -10.023639,3.429353 -0.837544,0.980625 -1.126644,2.235247 -1.263174,3.575423 l 1.110738,-0.266376 c -1.213474,1.141001 -3.500796,2.928215 -5.015091,4.221335 -1.576735,1.346441 -4.012852,2.277684 -5.151956,4.171002 -0.994703,1.653309 -1.196767,3.36256 -1.110374,5.680918 0.0864,2.318358 0.960508,4.663499 3.340878,6.598527 2.719101,2.210386 6.208141,2.300869 7.018494,2.300571 l 0.197209,-1.361509 c -0.671321,2.49e-4 -4.454854,0.08617 -6.745602,-1.776005 -2.048502,-1.665251 -2.692879,-4.301779 -2.76932,-6.353049 -0.07644,-2.051271 -6.65e-4,-3.361958 0.867575,-4.696243 1.147314,-1.763157 3.519708,-2.118878 5.209485,-3.561849 2.081613,-1.777577 5.366052,-5.270825 5.428739,-5.330293 0.791739,-0.07433 2.218008,-0.204535 2.627153,-0.127239 2.037292,0.384883 3.795996,2.667443 5.453976,7.262078 l 0.590292,-0.891964 c -2.846391,-6.121888 -4.669313,-6.738266 -5.778998,-7.116217 -1.189689,-0.350867 -3.349947,0.212649 -4.54982,0.453034 0.08106,-0.484068 0.733491,-1.950518 1.548835,-2.716585 1.516508,-1.424855 5.965086,-2.438052 9.113864,-2.488745 2.65638,-0.04277 6.104479,1.173436 7.752263,1.850965 l 0.507994,-1.21646 C 58.003125,42.202815 56.90986,42.198238 54.07674,42.390963 Z m -17.14636,14.26774 c -0.268074,2.663193 2.76084,5.76635 4.432934,5.933727 -4.233003,-0.256076 -5.409371,-3.346817 -4.432934,-5.933727 z m 14.320666,-2.741952 c -5.26275,4.831247 -8.130844,7.228287 -12.185207,15.080852 1.514578,-4.003244 2.908687,-6.320499 4.811281,-8.698994 1.347996,-1.685178 3.867656,-3.611934 7.373926,-6.381858 z" /></g><g
       id="g61"
       inkscape:label="Eye L"
       inkscape:groupmode="layer"><path
         style="font-variation-settings:normal;opacity:1;fill:#302828;fill-opacity:1;stroke:none;stroke-width:0.47625;stroke-linecap:butt;stroke-linejoin:miter;stroke-miterlimit:4;stroke-dasharray:none;stroke-dashoffset:0;stroke-opacity:1;paint-order:fill markers stroke"
         d="m 106.89658,42.743475 2.33594,4.32265 c 0,0 0.6597,-2.357086 0.0972,-3.304763 -0.84515,-1.42378 -2.4331,-1.017887 -2.4331,-1.017887 z"
         id="path62"
         sodipodi:nodetypes="ccsc"
         inkscape:label="fill" /><path
         id="ellipse21"
         style="color:#000000;fill:#0d0a0a;stroke-width:1;-inkscape-stroke:none;paint-order:fill markers stroke"
         d="m 105.59506,42.444292 0.50511,0.73412 c 1.31595,-0.831132 3.27633,0.192008 3.08164,2.226949 -0.0529,0.551987 -0.0803,1.298414 -0.48305,1.684673 l 0.41457,0.711991 c 0.6649,-0.602323 1.084,-1.484725 1.084,-2.4564 0,-2.496236 -2.57702,-3.983697 -4.60227,-2.901333 z"
         sodipodi:nodetypes="ccsccsc"
         inkscape:label="outline" /></g><g
       id="g47"
       inkscape:label="Cap (back)"
       style="display:inline"
       inkscape:groupmode="layer"><path
         style="font-variation-settings:normal;display:inline;opacity:1;fill:#9f520f;fill-opacity:1;stroke:none;stroke-width:0.79375;stroke-linecap:butt;stroke-linejoin:miter;stroke-miterlimit:4;stroke-dasharray:none;stroke-dashoffset:0;stroke-opacity:1;paint-order:fill markers stroke"
         d="m 112.11009,37.646384 c 0,0 -3.01716,-2.660578 -4.95275,-2.847754 -1.56706,-0.151536 -4.4815,1.478981 -4.4815,1.478981 3.45871,-0.07123 6.5151,0.52777 9.43425,1.368773 z"
         id="path48"
         sodipodi:nodetypes="cscc"
         inkscape:label="fill" /><path
         style="color:#000000;fill:#944c0f;fill-opacity:1;stroke-width:1;-inkscape-stroke:none;paint-order:fill markers stroke"
         d="m 102.13925,36.072329 -0.47261,0.535971 c 2.85482,-0.423409 7.75944,0.0464 10.8223,1.948788 l 0.3311,-0.485232 c -3.32786,-2.057947 -7.57095,-2.004549 -10.68079,-1.999527 z"
         id="path47"
         sodipodi:nodetypes="ccccc"
         inkscape:label="outline" /></g><g
       id="g38"
       inkscape:label="Body"
       inkscape:groupmode="layer"><path
         style="color:#000000;display:inline;fill:#7d6f69;fill-opacity:1;stroke-width:1;-inkscape-stroke:none;paint-order:fill markers stroke"
         d="m 85.397856,30.865605 c 6.152311,0.403005 12.780493,1.535218 17.333374,5.570023 0.48315,0.42817 2.0851,0.757948 2.50095,1.231734 l -0.96119,0.347775 c 2.82979,3.346368 4.17808,7.684575 5.6563,11.791506 -0.99134,-0.299266 -1.42296,0.06823 -1.59721,0.742318 -0.85049,-0.358267 -1.84883,-1.210187 -2.13982,0.29979 -1.79075,-0.699727 -1.86856,0.03736 -1.54971,1.758774 -2.70763,-0.559806 -1.30318,1.330292 -1.28572,2.438622 -1.22653,-0.171505 -1.16287,0.819551 -1.33945,1.594124 -1.4555,0.574673 -6.064345,2.415467 -8.817732,6.083998 l -0.09568,-1.382432 c -2.233958,1.734414 -4.343693,4.224005 -5.844132,6.872259 0.514929,1.940727 1.728056,7.810047 1.568911,9.902177 l -0.516776,-0.317322 c -0.464265,0.984061 -1.015835,2.786973 -2.428346,4.178379 0.276475,1.578986 0.589544,2.855036 0.831955,3.273019 l -0.936007,-0.100276 c -0.267594,4.383874 -1.873473,11.087608 -2.303728,14.850057 -0.319944,1.33717 -1.364737,3.14009 -2.692466,4.55127 0.07489,-0.47973 -0.307029,-0.57448 -0.43013,-0.97597 -1.054093,1.143 -3.552605,3.43135 -5.339874,4.43604 -0.276129,0.15523 -0.05748,0.8717 0.0476,1.09707 -0.916969,-0.30201 -1.162308,-0.19808 -1.667883,-0.64139 0.0559,0.43807 -0.130084,0.5052 -0.25946,0.94342 -0.463378,-0.32518 -0.816134,-0.56241 -1.573727,-0.8006 -0.186935,0.26809 -0.781462,1.05706 -1.06833,1.32517 -0.201139,-0.47187 -0.696037,-1.34183 -1.161422,-1.71642 -0.480129,0.3396 -1.552089,1.51244 -1.633052,2.0666 -0.622521,-0.1766 -1.469833,-0.94585 -1.974183,-1.35257 l -5.652944,6.87327 c -0.681492,-0.11166 -1.358794,-0.38811 -2.064462,0.45128 -0.639756,-0.58704 -2.045392,-0.23796 -2.770209,0.48057 -0.514262,-0.6493 -1.462289,-1.35369 -2.525544,-0.37073 -4.166933,-3.07413 -13.472323,-5.16492 -15.420388,-14.20616 l -0.657017,0.17314 c -1.823796,-4.589607 -2.047385,-9.631482 -2.044532,-10.118759 -0.517735,0.390076 -0.929819,0.305353 -1.374635,0.927325 0.305895,-1.395941 0.858525,-1.991313 0.974097,-3.255539 -0.511725,0.24762 -0.680121,0.06394 -1.147358,0.40733 1.153254,-1.053185 1.409328,-2.450136 1.532857,-2.81615 2.149993,-6.370356 5.047154,-8.40701 5.833002,-9.906002 -0.226385,-0.09425 -0.787195,-0.152496 -1.438005,-0.284684 2.823043,-0.858698 3.502339,-2.050279 4.454284,-3.55406 -0.24718,-1.410327 -0.338277,-3.168936 0.599624,-3.505052 3.295883,-1.181151 0.8308,-2.484479 1.382172,-3.821928 1.230843,-2.985617 2.623506,-4.763638 4.613914,-6.888845 -0.172185,-0.374034 -1.367782,-0.58725 -2.429432,-0.475281 1.520871,-0.676072 3.459345,-1.456954 4.421619,-1.047091 0.894832,-0.572649 1.287574,-1.276827 1.68781,-2.317045 0.280661,-2.647801 2.087801,-6.859139 3.621158,-9.299009 -0.475309,-0.129513 -0.868835,-0.310677 -1.640239,-0.275964 1.382066,-1.194188 1.60512,-0.108997 2.844485,-1.679971 -0.877567,-0.139321 -1.622813,-0.312272 -2.702509,-0.163778 0.956488,-1.164839 3.372094,-1.220057 3.806239,-1.677593 6.63051,-6.386762 13.651047,-12.510461 25.772948,-11.716419 z"
         id="path40"
         inkscape:label="fill"
         sodipodi:nodetypes="sscccccccccccccccccccsccccccccccccccccccscccsscccccccccs" /><path
         id="path71"
         style="color:#000000;display:inline;fill:#2f2a27;fill-opacity:0.110696;stroke-width:1;-inkscape-stroke:none;paint-order:fill markers stroke"
         inkscape:label="shadow"
         d="m 88.852411,28.967566 c -1.423341,0.03757 -2.632904,0.593966 -3.454409,1.898173 l -4.056407,6.439167 c 1.243956,3.188567 11.953255,5.581533 2.380185,15.645774 -0.434145,0.457536 -2.318198,-0.47684 -3.274686,0.687998 1.079695,-0.148493 2.222031,0.790198 3.099596,0.929518 -1.239363,1.570973 -1.270023,-0.06744 -2.652088,1.126751 0.771404,-0.03471 0.0991,5.692864 -3.479127,6.125036 -0.197157,0.02382 0.212588,0.77586 0.02832,0.782237 -0.184874,0.0063 -0.963604,-0.733104 -1.137051,-0.7431 -2.981939,-0.171886 -4.39029,-2.671887 -8.17358,-4.399376 C 67.897371,57.35208 66.095162,55.55436 65.853397,55.463726 65.30926,55.259749 66.217444,56.711898 65.681398,56.503447 60.2631,54.396465 54.87167,53.93858 54.535419,55.214997 c -0.16935,0.64285 -0.03434,0.248119 -0.09166,0.788932 -0.400236,1.040216 -1.313869,2.144325 -2.2087,2.716974 -0.50688,-0.215896 5.233067,1.481178 8.292023,4.202142 1.758481,1.564183 3.074212,-0.866175 6.359861,2.131455 1.223618,1.116356 2.251298,5.197262 1.861096,6.654939 -0.05676,0.212036 0.250069,1.136754 0.176634,1.343038 -0.08387,0.235588 -0.550718,-0.2482 -0.654524,-0.02111 -0.762137,1.667249 -2.035665,3.09075 -3.43793,4.058982 -0.155804,0.10758 -0.461232,1.506192 -0.623111,1.605157 -0.428128,0.261745 -0.519181,-1.01403 -0.940848,-0.875961 -0.689698,0.225833 -1.334327,0.310281 -1.81475,0.330609 -1.357261,0.05744 3.143986,6.16087 4.303077,6.924782 -2.793019,-1.085575 -3.633953,-3.901775 -5.2259,-6.05191 l -0.703962,0.443388 c -0.992045,-3.808701 -1.976742,-7.850546 -2.228784,-6.660089 -0.349846,1.652421 -1.900363,1.989044 -3.127918,1.5619 -4.530635,-1.576494 -9.110317,-7.897038 -8.965603,-7.267235 0.150024,0.652911 0.854176,3.199057 -0.908405,3.462133 -1.1089,0.165511 -0.455228,2.507039 -0.208047,3.917366 -0.951944,1.503779 -0.764231,1.739319 -3.58727,2.598016 1.238933,1.202531 2.440824,5.335433 5.520977,8.572167 -0.104447,0.199231 -1.442598,0.391227 -1.303901,0.520118 0.177516,0.164964 1.542361,0.4338 2.130426,0.940332 1.607567,1.384685 4.276143,1.781151 3.405486,5.377816 -0.09088,0.375453 -0.379808,1.762664 -1.533061,2.815848 0.467237,-0.343391 1.140294,0.07407 1.652019,-0.173544 -0.115571,1.264226 -2.975485,0.938412 -3.281379,2.334352 0.713399,0.118776 0.924177,0.943668 1.441912,0.553588 -0.0029,0.487277 -8.187776,2.779098 -6.363982,7.368718 l 0.796142,-1.05209 c 1.948063,9.04122 4.966147,8.11457 9.421864,10.91994 0.440841,-0.40754 1.319593,-0.63142 1.626786,-0.68285 0.433718,0.0951 0.990499,0.94853 1.291541,1.32862 0.339888,-0.33694 1.159218,-1.58459 1.413072,-1.80444 0.192825,0.39187 0.936339,1.00708 1.276093,1.31882 0.180282,-0.21443 0.146912,-0.74786 0.343999,-0.94341 0.60904,0.004 1.653088,0.32578 1.992414,0.12874 1.421942,-1.5311 6.710456,-9.52366 8.24413,-11.5029 0.117019,-0.15101 -2.477384,4.42632 -2.9966,5.44223 0.504349,0.40672 1.008899,0.80185 1.63142,0.97844 0.08096,-0.55416 1.230597,-1.53077 1.710725,-1.87037 0.465384,0.37459 1.156318,0.88714 1.357457,1.35901 0.286868,-0.26811 0.444416,-0.71704 0.631352,-0.98514 0.75759,0.2382 1.140748,0.39062 1.604126,0.71581 0.129374,-0.43823 0.322134,-0.66705 0.26624,-1.10513 0.505574,0.44331 0.680978,0.62236 1.597946,0.92437 -0.105082,-0.22537 -0.158715,-0.85052 0.117414,-1.00574 1.787267,-1.00468 4.603352,-3.15547 5.657443,-4.29847 0.1231,0.40149 0.618697,0.1439 0.543808,0.62363 1.327728,-1.41117 2.157569,-2.53953 2.477513,-3.8767 0.430254,-3.762447 1.403994,-11.444718 1.671588,-15.828588 l 0.759063,-0.06489 C 82.073653,72.851873 85.770994,65.869025 93.679211,60.233365 l 0.145736,0.853303 c 2.753386,-3.668527 5.847266,-4.305169 7.302753,-4.879842 0.0285,-0.598912 -0.40535,-1.004767 -0.70859,-1.465085 0.75675,-0.506778 1.48419,-0.411174 2.22156,-0.523209 -0.34405,-0.909255 -1.17402,-1.757157 -1.9476,-2.611919 1.32028,0.0021 2.72328,-0.02534 3.41167,0.202382 l -1.3451,-2.508927 2.94819,0.818286 c 0.24444,-0.79337 0.0134,-1.274625 -0.0211,-1.884786 0.69291,0.582466 1.37622,1.324087 2.0882,1.600523 -0.0957,-0.650514 -0.21436,-1.333406 -0.0644,-1.636055 0.45241,0.334192 0.7645,0.449217 1.10924,0.546896 -1.47822,-4.106927 -2.67071,-6.443959 -5.05391,-10.366316 l 1.46612,-0.711172 c -0.41585,-0.473785 -2.01755,-0.803636 -2.50068,-1.231805 -3.414674,-3.0261 -9.608886,-7.580779 -13.87891,-7.468073 z m -1.350762,42.844866 -1.971815,1.592798 0.347605,8.109726 c 1.057624,-1.71985 1.442626,-3.327241 1.880664,-4.998286 l 0.510849,0.09527 C 86.936019,75.249915 87.443959,73.268721 87.501649,71.812432 Z M 74.174072,71.256404 c 0.503222,3.004896 0.982233,6.006764 0.300932,8.863501 l -0.368717,-0.282202 c -0.527294,2.313817 -1.415503,3.556227 -2.257622,4.935457 0.532643,-1.553342 1.273713,-3.94543 1.786677,-6.575123 0.03533,-0.181087 0.473696,0.362592 0.506715,0.179449 0.380086,-2.10825 0.193818,-5.065684 0.03202,-7.121082 z"
         sodipodi:nodetypes="sccccccsccssssccssssssssscccsssscccssscccccccccccccsccccccccscccccccccccccccccccccsccccccccccssc" /><path
         style="color:#000000;fill:#615551;stroke-width:1;-inkscape-stroke:none;paint-order:fill markers stroke"
         d="m 87.533337,67.657468 -0.800739,1.323047 c 0.192837,0.360985 2.076877,7.695193 1.881688,8.56335 -0.11154,-0.175669 -0.371002,-0.617485 -0.710955,-0.640547 -0.193045,1.274914 -1.457655,3.954093 -2.120233,5.061459 l 0.28812,0.853661 c 0,0 1.985294,-3.475482 2.378683,-4.508966 0.2181,0.144778 0.353428,0.412915 0.472788,0.557692 0.360461,-2.380549 -0.44794,-6.720914 -1.389352,-11.209696 z"
         id="path18"
         sodipodi:nodetypes="ccccccccc"
         inkscape:label="armL (outline)" /><path
         style="font-variation-settings:normal;opacity:1;fill:#3e82ae;fill-opacity:1;stroke:none;stroke-width:0.79375;stroke-linecap:butt;stroke-linejoin:miter;stroke-miterlimit:4;stroke-dasharray:none;stroke-dashoffset:0;stroke-opacity:1;paint-order:fill markers stroke"
         d="m 87.399252,68.303937 c -0.07125,0.829262 0.393847,2.293352 -0.01975,3.221798 -0.509018,0.636547 -0.975371,1.310523 -1.898652,1.58362 z"
         id="path53"
         inkscape:label="strap (fill)"
         sodipodi:nodetypes="cccc" /><path
         style="font-variation-settings:normal;display:inline;opacity:1;fill:#2d668b;fill-opacity:1;stroke:none;stroke-width:0.79375;stroke-linecap:butt;stroke-linejoin:miter;stroke-miterlimit:4;stroke-dasharray:none;stroke-dashoffset:0;stroke-opacity:1;paint-order:fill markers stroke"
         d="m 87.863007,67.465278 c 0,0 0.243229,2.643189 0.144314,3.202586 -0.218579,1.236163 -1.27814,2.622291 -2.558749,3.633023 l 0.695577,-1.91896 c 0.892802,-0.77334 1.120312,-2.729427 1.160046,-3.643078 z"
         id="path52"
         sodipodi:nodetypes="cscccc"
         inkscape:label="strap (outline)" /><path
         style="color:#000000;fill:#615551;stroke-width:1;-inkscape-stroke:none;paint-order:fill markers stroke"
         d="M 85.654125,30.021893 C 72.63668,29.359987 65.880121,37.216445 59.492193,42.195386 c -0.843693,0.657599 -2.566608,0.806353 -3.920141,2.369432 1.01815,-0.335934 1.62574,0.02165 2.507722,-0.05461 -0.656609,0.786138 -2.700638,0.640309 -3.946588,2.141202 0.828841,-0.01635 1.283267,-0.272363 2.4871,-0.04865 -1.354295,1.913492 -4.346383,7.920062 -3.577055,9.480609 l -1.410088,1.549876 c -1.999918,-0.264859 -3.590948,0.655241 -5.15492,1.789951 1.009301,-0.04859 2.0122,-0.184686 3.018771,-0.07396 -2.460819,2.36215 -3.900698,5.071641 -4.429864,6.629226 -0.2819,0.829763 -0.290924,1.074811 -0.01599,1.776033 -0.261976,2.066169 -2.532927,1.402398 -2.063882,4.621542 -0.397247,0.850485 -1.099734,2.465026 -1.633328,3.211665 -0.540823,0.756753 -2.028035,0.68425 -4.486092,2.288657 1.266329,0.251916 1.887017,-0.292831 2.916994,-0.08749 -1.924247,2.124798 -4.504599,5.49467 -5.383628,8.988142 -0.670991,2.666679 -1.070886,2.606396 -2.388156,4.67121 l 1.654386,-1.097735 c -0.218777,1.774728 -1.514752,3.140965 -0.876451,5.000478 0.06195,-1.186942 0.694359,-1.835388 1.431158,-2.573394 0.109523,2.413021 0.502291,4.823912 1.290422,7.049633 0.388582,1.097377 0.989534,3.305757 0.584092,4.439807 l 0.87225,-1.44986 c 0.660999,2.35247 2.348363,4.72606 4.01481,6.41871 1.812709,1.84122 4.11508,3.39689 6.906221,4.68305 1.472728,0.67863 2.930786,0.99336 3.84899,2.55642 0.300632,0.51177 0.25739,1.05147 0.25739,1.05147 0.510709,-0.5042 1.235587,-1.16161 1.919413,-1.60993 0.687245,0.49084 0.931054,1.24206 1.313121,1.84575 0.260104,-0.65072 1.339716,-1.27926 1.858024,-1.69219 0.274774,0.53061 1.206654,0.86309 1.672709,1.13435 -0.06446,-0.49982 0.04276,-0.98717 0.534407,-1.4466 0.86996,0.16163 1.464541,-0.0879 1.83786,0.11144 -0.339975,-0.82338 2.859258,-3.69585 4.613497,-6.41866 0.72229,0.67327 1.255578,1.08529 2.260279,1.2232 -0.147782,-0.50614 0.743767,-1.4948 1.225289,-1.99298 0.93248,0.39034 1.010488,1.44235 0.775798,2.05082 0.73067,-0.3324 1.352323,-1.03924 1.529378,-1.76215 0.734052,0.38642 1.329433,0.737 1.295198,1.34905 0.371423,-0.44117 0.732381,-0.88174 0.749983,-1.30212 0.611635,0.35151 1.762994,0.49514 2.390717,0.3299 -0.416313,-0.5018 -0.827217,-0.7108 -0.522076,-0.89839 1.731049,-1.06421 3.378344,-2.89013 4.657096,-4.27419 0.209928,0.42656 0.0467,1.08841 0.04413,1.46427 2.711373,-2.18949 4.12099,-6.397404 4.70498,-9.563697 0.577219,-3.129591 0.634941,-6.312407 1.010146,-9.061414 0.282068,-0.322593 0.190726,-0.896008 0.288508,-1.344839 0.329372,0.23033 0.566428,0.701548 0.871253,0.861689 0.289607,-0.912869 -0.568289,-3.051075 -0.700422,-4.12846 -0.264266,-2.154771 -0.668412,-4.829381 -0.45155,-7.680249 0.28951,-3.805915 1.834601,-8.725039 6.885604,-12.615542 -0.231603,0.660519 0.02475,1.421553 0.124783,2.00491 1.226052,-3.43496 7.813899,-6.932079 9.437759,-6.689496 0.48283,0.07213 0.87772,0.30681 1.09922,0.412804 0.0281,-0.847753 -0.51853,-1.541958 -0.87117,-2.287996 0.26516,-0.28157 0.97918,0.303185 1.65401,0.02161 -0.2552,-0.840695 -0.38175,-1.590936 -0.99266,-2.618598 1.46007,-0.04717 1.18881,0.03155 1.93961,0.170749 -0.0452,-0.660553 -0.0175,-1.510755 -0.26642,-2.157135 0.63243,0.261148 1.42246,0.29085 1.73591,0.760868 0.17647,-0.582603 0.37439,-0.869289 0.23481,-1.451893 0.77144,0.386223 1.44109,1.20395 2.11428,1.236664 -0.15603,-0.480594 -0.17131,-1.068107 -0.11372,-1.504736 0.90843,0.350532 1.676,1.028458 3.15139,0.597521 0,0 -1.00104,-0.605703 -1.3488,-1.059508 -1.2152,-1.585787 -0.93789,-2.549735 -2.34923,-5.513975 -1.09413,-2.298014 -1.82603,-4.002602 -3.33342,-5.8642 0.63899,0.141685 1.69129,-0.168328 2.88978,-0.476121 -1.86651,0.134246 -4.46345,-1.445064 -4.8582,-1.789532 -5.79593,-5.057729 -10.350362,-5.51981 -17.353456,-5.875901 z m -0.263988,1.341742 c 6.163098,-0.171958 12.167719,1.527051 16.751363,5.526884 0.20354,0.177612 1.86828,0.732519 2.48108,0.738968 -0.28984,0.179575 -1.16076,0.219638 -1.49076,0.274159 1.47031,1.704271 3.27169,4.40776 4.36108,6.695818 1.07408,2.255922 1.60903,3.917748 1.90989,4.703006 -0.64806,0.01718 -1.05148,-0.48831 -1.52944,-0.7029 0.0591,0.558211 -0.0662,1.026201 0.21732,1.5583 -0.87711,-0.312687 -1.49364,-0.971907 -2.23329,-1.527875 -0.0939,0.643078 0.30393,1.209718 -0.0892,1.778767 -0.73612,-0.502785 -1.90561,-0.576885 -2.76643,-0.843691 0.33861,0.848198 1.50843,1.935261 1.34005,2.61447 -0.091,-0.162354 -1.99347,-0.328534 -3.1988,-0.319738 0.75715,0.959987 1.45114,1.690158 1.7895,2.703845 -0.89906,-0.184756 -1.44791,0.142264 -2.12621,0.311033 0.33258,0.475254 0.81807,0.950127 0.63645,1.426664 -1.13596,0.448509 -6.985858,3.421512 -7.897288,5.705104 l 0.04454,-1.352791 c -5.130408,2.735672 -8.700357,9.636103 -9.029774,13.966619 -0.230894,3.035347 1.136687,9.166651 1.752587,10.228631 -0.394895,-0.39027 -0.436506,-0.337527 -0.943262,-0.666192 -0.267594,4.383875 -1.379491,7.890193 -1.809746,11.652642 -0.388184,4.092765 -0.158395,5.126762 -2.677191,8.301332 0.07489,-0.47973 -0.223717,-0.98462 -0.346818,-1.38611 -1.054093,1.14299 -3.809917,3.882 -5.597186,4.88668 -0.27613,0.15522 -0.30983,0.79696 -0.204751,1.02233 -0.91697,-0.30201 -1.063404,-0.3981 -1.568979,-0.84142 0.0559,0.43808 -0.209835,0.61035 -0.339212,1.04858 -0.463378,-0.32519 -0.864909,-0.53347 -1.622502,-0.77167 -0.186935,0.2681 -0.402001,0.82979 -0.688869,1.09789 -0.201139,-0.47187 -0.840609,-1.0228 -1.305994,-1.39739 -0.480129,0.3396 -1.476909,1.34451 -1.557872,1.89867 -0.622521,-0.17659 -1.101449,-0.45761 -1.605798,-0.86433 1.070959,-1.47575 1.950024,-3.32002 2.647073,-5.36969 -2.514226,3.92618 -4.971656,7.90531 -8.012501,11.44367 -0.760393,-0.0663 -1.184106,-0.006 -1.79399,-0.25288 -0.302561,0.36961 -0.328757,0.64497 -0.415582,1.15051 -0.509722,-0.52584 -1.441196,-0.80204 -1.474001,-1.43611 -0.343049,0.59691 -0.907246,1.30547 -1.518824,1.91371 -0.197354,-0.59574 -0.796765,-1.11 -1.187467,-1.55291 -0.691512,0.32333 -1.781108,0.96069 -1.744335,1.28401 -0.329098,-0.77012 -1.195208,-1.6005 -3.798113,-2.67242 -2.793841,-1.15055 -5.240656,-3.42103 -6.823062,-5.02832 -2.27014,-2.30585 -3.686427,-4.38766 -4.80588,-7.39644 -0.05523,0.35934 -0.05737,0.68133 -0.382884,1.04066 -0.0024,-1.14485 -1.018039,-2.854784 -1.206561,-4.678 -0.251008,-2.427516 -0.547723,-5.085848 -0.543409,-5.822593 -0.517736,0.390077 -0.984385,0.557776 -1.4292,1.179749 0.305894,-1.395942 0.837084,-1.989314 0.952655,-3.25354 -0.511724,0.24762 -0.500596,0.261016 -0.967834,0.604408 1.153254,-1.053185 1.446694,-2.388243 1.570223,-2.754256 2.149993,-6.370355 5.154426,-8.39837 5.940273,-9.897363 -0.226385,-0.09425 -0.935005,0.05029 -1.585815,-0.08189 2.704507,-0.545323 3.530203,-1.990513 4.482148,-3.494295 -0.247181,-1.410327 -0.522673,-3.189432 0.415228,-3.525549 0.895789,-0.321025 1.428557,-0.670907 1.762788,-1.375135 -0.02417,-0.841594 -0.774891,-1.681754 -0.450258,-2.469206 1.230843,-2.985619 3.512025,-4.937085 5.502434,-7.062291 -0.172185,-0.374035 -1.709538,-0.599232 -2.771188,-0.487264 1.520872,-0.676071 2.832065,-0.654783 3.794338,-0.24492 l 2.278791,-2.389484 c -0.900921,-0.925869 0.993016,-6.140266 3.402361,-10.13243 -0.47531,-0.129514 -0.927628,-0.113249 -1.699032,-0.07854 1.232708,-0.798873 1.626085,0.04291 2.943365,-1.734284 -0.877567,-0.139321 -1.128507,-0.407197 -2.208203,-0.258704 0.858641,-0.761082 2.446977,-0.574439 2.9012,-1.114818 8.204727,-6.368901 10.018449,-11.085743 25.570805,-11.519672 z"
         id="path2"
         inkscape:label="outline"
         sodipodi:nodetypes="ssccccccccsccsccsccccsccssscccccccccccccccsccscccssccscccccccccccssccsssssccscccccccccccccscccccsccccccccscccccccssccscccscccscscccccccccsss" /></g><g
       id="g35"
       inkscape:label="Eye R"
       inkscape:groupmode="layer"><circle
         style="font-variation-settings:normal;opacity:1;fill:#302828;fill-opacity:1;stroke:none;stroke-width:0.79375;stroke-linecap:butt;stroke-linejoin:miter;stroke-miterlimit:4;stroke-dasharray:none;stroke-dashoffset:0;stroke-opacity:1;paint-order:fill markers stroke"
         id="path35"
         cx="97.203178"
         cy="48.171143"
         r="2.8366742"
         inkscape:label="fill" /><path
         id="circle35"
         style="font-variation-settings:normal;display:inline;opacity:1;fill:#1f1a1a;fill-opacity:1;stroke:none;stroke-width:0.793749;stroke-linecap:butt;stroke-linejoin:miter;stroke-miterlimit:4;stroke-dasharray:none;stroke-dashoffset:0;stroke-opacity:1;paint-order:fill markers stroke"
         d="m 98.67859,46.627364 c 0.305506,1.660822 -1.923229,3.123721 -3.689764,1.915963 0.166264,0.928269 0.894086,1.964173 1.947771,1.964576 0.644416,2.46e-4 1.251143,-0.342294 1.670594,-0.824895 -0.730312,-0.225988 0.13519,-1.189056 0.465025,-0.789145 0.0361,-0.103337 0.423097,-1.733535 -0.393626,-2.266499 z"
         sodipodi:nodetypes="ccsccc"
         inkscape:label="shadow" /><path
         id="path36"
         style="opacity:1;fill:#ffffff;fill-opacity:0.754601;stroke-width:0.79375;paint-order:fill markers stroke"
         inkscape:label="fx"
         d="m 96.004327,47.363729 c 0,0.330174 0.01421,0.740186 -0.265714,0.829059 -0.293489,0.09318 -0.638256,-0.109035 -0.503075,-0.722714 0.07103,-0.322443 0.93965,-1.18625 1.233349,-1.18625 0.293698,-1e-6 -0.46456,0.749731 -0.46456,1.079905 z m 2.235991,2.587119 c 0,0.156653 -0.177245,0.313298 -0.340753,0.313299 -0.163498,-1e-6 -0.296038,-0.126994 -0.296038,-0.283647 0,-0.156652 0.175429,-0.318531 0.338927,-0.318533 0.163499,1e-6 0.297864,0.132228 0.297864,0.288881 z"
         sodipodi:nodetypes="ssssssssss" /><path
         style="color:#000000;fill:#0d0a0a;stroke-width:1;-inkscape-stroke:none;paint-order:fill markers stroke"
         d="m 97.21342,44.745938 c -1.538333,0 -3.138084,1.516738 -3.227612,3.41378 -0.08942,1.894936 1.363377,3.536593 3.227612,3.536593 1.864236,0 3.30345,-1.305867 3.36327,-3.67291 0.048,-1.896437 -1.499034,-3.277463 -3.36327,-3.277463 z m 0.132284,1.017337 c 1.222483,-0.06331 2.072872,1.100145 1.962002,2.387885 -0.10403,1.208334 -1.171671,2.521851 -2.294032,2.521851 -1.122369,0 -2.120239,-1.21761 -2.120239,-2.430415 0,-1.212802 1.331405,-2.42127 2.452269,-2.479321 z"
         id="path21"
         sodipodi:nodetypes="ssssssssss"
         inkscape:label="outline" /></g><g
       id="g26"
       inkscape:label="Bag"
       inkscape:groupmode="layer"><path
         style="font-variation-settings:normal;opacity:1;fill:#729b4c;fill-opacity:1;stroke:none;stroke-width:0.79375;stroke-linecap:butt;stroke-linejoin:miter;stroke-miterlimit:4;stroke-dasharray:none;stroke-dashoffset:0;stroke-opacity:1;paint-order:fill markers stroke"
         d="m 42.950656,73.363725 c 7.22152,7.779952 15.849198,17.675555 33.866523,16.780187 3.407628,-0.169341 5.781353,-0.708108 9.211616,-2.544655 2.837779,0.647705 3.989949,3.329022 3.600464,5.532023 -0.519173,2.936541 -1.490065,7.26989 -5.640331,9.72047 -5.378878,0.89216 -10.758569,0.36081 -16.13903,-1.51923 L 61.59733,93.801217 C 52.197117,88.899511 45.621522,82.995555 41.420498,76.249038 Z"
         id="path56"
         inkscape:label="fill"
         sodipodi:nodetypes="cscsccccc" /><g
         id="g77"
         inkscape:label="handle"
         style="display:inline"
         inkscape:groupmode="layer"><path
           style="font-variation-settings:normal;display:inline;opacity:1;fill:#546f3b;fill-opacity:1;stroke:none;stroke-width:0.79375;stroke-linecap:butt;stroke-linejoin:miter;stroke-miterlimit:4;stroke-dasharray:none;stroke-dashoffset:0;stroke-opacity:1;paint-order:fill markers stroke"
           d="m 76.326228,96.028541 c 0.573094,0.576666 0.751424,1.362578 1.126733,2.044081 -0.323038,0.964554 -0.684704,1.890711 -1.478213,2.387618 -0.739551,-0.754717 -0.625616,-1.854681 -0.866329,-2.811178 0.379394,-0.549573 0.593172,-1.157792 1.217809,-1.620521 z"
           id="path57"
           inkscape:label="fill"
           sodipodi:nodetypes="ccccc" /><path
           style="color:#000000;fill:#4c6539;fill-opacity:1;stroke-width:1;-inkscape-stroke:none;paint-order:fill markers stroke"
           d="m 76.852911,95.685125 -1.106881,-0.02763 c -0.02679,0.256388 0.007,0.511422 -0.1213,0.735015 -0.268519,0.468006 -0.755376,0.972423 -0.837005,1.470932 -0.139775,0.853577 0.136299,2.058851 0.550814,2.648968 0.16415,0.23369 0.397293,0.45252 0.729877,0.47685 0.348916,0.0255 0.584063,-0.19697 0.753233,-0.41846 0.448627,-0.587377 0.82337,-1.812991 0.794105,-2.707358 -0.01752,-0.535293 -0.291949,-1.04133 -0.665647,-1.403311 -0.179297,-0.208582 -0.09428,-0.508767 -0.09719,-0.775012 z m -0.714505,0.705847 c 0.220625,-0.656589 0.72433,0.929403 0.760969,1.484149 0.05132,0.776998 -0.285527,1.787422 -0.783196,2.200879 -0.339245,0.28184 -0.716838,-1.392821 -0.672864,-2.138958 0.03325,-0.564068 0.310397,-0.401206 0.695091,-1.54607 z"
           id="path27"
           inkscape:label="outline"
           sodipodi:nodetypes="scssssssssasasa" /></g><path
         style="font-variation-settings:normal;display:inline;opacity:1;fill:#29371b;fill-opacity:0.0762478;stroke:none;stroke-width:0.79375;stroke-linecap:butt;stroke-linejoin:miter;stroke-miterlimit:4;stroke-dasharray:none;stroke-dashoffset:0;stroke-opacity:1;paint-order:fill markers stroke"
         d="m 44.250216,76.705584 c 0.379556,0.06799 2.989595,4.230436 5.313495,6.080825 1.691424,-1.116681 -0.488422,1.166856 0.397081,1.716578 1.993762,1.237732 1.684157,-1.112532 3.744013,-0.08703 1.025769,0.510686 -0.173272,1.809529 0.157948,2.078372 1.975307,1.60331 5.761147,3.442908 8.640235,3.776645 0.220395,0.02555 -0.206837,1.022325 -0.08927,1.213028 3.9983,6.48556 6.93348,5.750159 12.517918,4.135167 1.609527,-0.465468 3.535872,-2.696392 -6.47116,-6.360646 5.261485,0.564461 14.320773,0.657531 16.992456,-1.2599 0.366196,0.08358 0.698923,0.20173 1.006664,0.333406 0.278149,0.119015 0.02721,1.247802 0.112194,1.273841 0.171828,0.05266 0.331012,-1.049212 0.475136,-0.956918 1.332363,0.85321 1.829606,2.012509 1.853387,3.704099 0.01524,1.084865 -6.214099,2.144509 -5.609953,2.391156 1.451187,0.592456 5.613703,-1.659873 5.587202,-1.509979 -0.383566,2.169522 -0.491504,4.368026 -2.195353,6.356715 -0.127833,0.1492 -0.69666,-0.666624 -0.843253,-0.519887 -0.139645,0.13979 0.14385,1.242264 -0.01422,1.379644 -0.457903,0.39796 -0.995971,0.78543 -1.630817,1.16028 -5.378878,0.89215 -8.187983,1.64345 -14.473122,-0.97566 -3.486916,-1.453044 -5.652408,-5.132253 -7.875467,-7.603076 -3.755568,-2.415752 -6.974036,-4.343219 -9.77846,-6.339851 -0.127561,-0.09081 -0.431069,-0.08 -0.556928,-0.171158 -0.9148,-0.662565 -1.773455,-1.152358 -2.581453,-1.890127 -0.07063,-0.06449 -0.125852,-0.462072 -0.195968,-0.525091 -1.998166,-1.795932 -3.730826,-3.642568 -5.355664,-6.120156 -1.486648,-2.266872 0.692311,0.725917 0.974435,0.495331 0.260141,-0.212616 -1.30941,-1.992082 -0.101077,-1.775612 z"
         id="path77"
         inkscape:label="shadow"
         sodipodi:nodetypes="scssssssccssssssssscscsssssss" /><path
         style="color:#000000;fill:#628541;stroke-width:1;-inkscape-stroke:none;paint-order:fill markers stroke"
         d="m 42.903251,72.057171 c -0.549628,1.44565 -0.954321,2.809896 -2.057715,3.931382 2.215974,4.444264 4.265938,6.788267 9.96261,11.236445 3.611574,2.820054 10.715415,7.269205 10.890453,7.380276 0.230193,0.387447 1.89189,3.533178 3.332755,4.910609 2.76249,2.640887 7.1598,3.809307 10.984506,4.063967 5.812987,0.38706 9.857851,0.0603 11.921319,-3.785637 1.058622,-1.973094 1.827786,-4.522249 2.353477,-6.687962 0.06077,-3.58517 -1.239947,-4.993383 -4.332686,-6.234416 -2.022089,2.358122 -7.961446,3.631747 -19.73984,1.210537 C 60.996678,87.00903 56.649464,84.700467 54.757959,83.478061 49.903661,80.340918 47.223365,78.19459 42.903251,72.057171 Z m 0.34516,2.081126 c 1.645607,2.113435 4.225795,5.059976 7.11401,7.55286 0.617783,1.151541 1.984664,1.882558 3.405131,2.583493 1.601551,1.03502 5.910154,3.424276 9.875537,4.685037 -0.525232,0.584601 -0.715492,0.888369 -0.817771,1.392821 0.355967,-0.575742 0.533985,-0.7736 1.299951,-1.229827 2.283859,0.626634 17.651175,3.900039 21.801772,-1.043995 0.424506,0.332346 0.659491,0.707146 0.62918,1.141374 0.06514,-0.301777 0.129296,-0.680158 -0.0932,-1.087142 2.576223,0.960181 2.628815,3.033295 2.590872,4.904381 -3.74113,1.441791 -7.848559,2.21989 -11.860532,2.389329 -0.886303,0.02549 -4.964254,-0.112726 -5.264423,-0.157303 1.25985,0.43693 2.922147,0.626838 5.418707,0.611518 3.865054,-0.02371 7.846647,-0.868292 11.360375,-2.171206 0.218436,-0.081 -1.979828,1.732788 -1.622562,1.603813 0.67395,-0.2433 1.930569,-1.378134 1.853633,-0.975765 -0.239833,1.254292 -0.811612,3.444123 -1.415774,4.429214 -0.368925,0.601537 -0.977493,1.319241 -1.410092,1.756941 -0.08523,-0.4251 -0.05051,-0.798567 -0.212219,-1.003987 0.02374,0.47009 -0.07487,0.956937 -0.330645,1.465307 -0.408447,0.0241 -0.791367,-0.0758 -1.166852,-0.21193 0.09645,0.28092 0.414254,0.37056 0.698613,0.5261 -2.265436,1.31748 -5.472331,1.47257 -9.364691,1.21704 -3.647909,-0.23947 -7.16053,-1.65258 -9.568129,-3.954191 -1.107031,-1.058291 -2.813672,-3.795776 -3.497645,-4.963511 -0.382036,-0.982693 -0.267873,-2.039657 -0.119642,-2.550712 -0.243585,0.515325 -0.536512,1.152262 -0.581987,2.182611 -3.661846,-2.269255 -6.872779,-4.152106 -10.265937,-6.700099 -1.083591,0.297469 -2.925352,-1.328565 -3.069338,-2.413762 -3.396892,-2.832968 -5.025727,-4.905668 -6.785342,-7.865883 0.643414,-0.614876 1.246873,-1.212807 1.398997,-2.112526 z"
         id="path6"
         inkscape:label="outline"
         sodipodi:nodetypes="ccscsssccsscccccccccccscssssscccccsscccccccc" /><path
         style="color:#000000;fill:#41572d;fill-opacity:1;stroke-width:1;-inkscape-stroke:none;paint-order:fill markers stroke"
         d="m 51.603249,80.980175 c -0.341974,-0.184741 -0.925204,-0.207821 -1.230507,0.151251 -0.827526,0.973274 -1.589527,2.017354 -2.303822,3.065656 -0.265383,0.389505 -0.23362,0.869457 0.091,1.211166 0.793395,0.835164 1.800685,1.538643 2.798016,2.252435 0.383295,0.274275 0.899806,0.141287 1.2122,-0.211632 0.958244,-1.08254 1.67746,-2.202492 2.363077,-3.395527 0.23484,-0.408646 0.13438,-0.891818 -0.211581,-1.211901 -0.772155,-0.714398 -1.696466,-1.309401 -2.718387,-1.861448 z m -0.133641,1.227785 c 0.624354,0.300911 1.020335,0.740286 1.390094,1.147063 0.152651,0.16793 0.25857,0.488175 0.05531,0.834783 -0.401627,0.684865 -0.736173,1.198811 -1.242907,1.867296 -0.156319,0.206273 -0.49802,0.291425 -0.710166,0.188821 -0.680504,-0.329126 -1.283626,-0.792366 -1.81362,-1.291891 -0.112081,-0.105645 -0.169771,-0.44495 -0.08062,-0.584855 0.461324,-0.723905 0.957927,-1.374757 1.613819,-2.066465 0.245135,-0.258493 0.506454,-0.230488 0.788086,-0.09476 z"
         id="rect26"
         inkscape:label="loop"
         sodipodi:nodetypes="ssssssssssssssssss" /></g><g
       id="g29"
       inkscape:label="Strap (down)"
       inkscape:groupmode="layer"><path
         style="font-variation-settings:normal;opacity:1;fill:#3e82ae;fill-opacity:1;stroke:none;stroke-width:0.79375;stroke-linecap:butt;stroke-linejoin:miter;stroke-miterlimit:4;stroke-dasharray:none;stroke-dashoffset:0;stroke-opacity:1;paint-order:fill markers stroke"
         d="m 59.507361,77.783885 c -1.21142,0.10868 -2.153327,0.177525 -3.326243,-0.09262 -4.554108,-2.702794 -8.25081,-6.23055 -11.800962,-10.178572 l -2.723655,-0.241018 c 3.96669,4.701586 8.260563,9.91209 15.418912,11.761186 0.893445,0.03701 1.78689,-0.100748 2.680335,-0.1985 z"
         id="path51"
         inkscape:label="fill"
         sodipodi:nodetypes="ccccccc" /><path
         style="font-variation-settings:normal;display:inline;opacity:1;vector-effect:none;fill:#122633;fill-opacity:0.117154;stroke:none;stroke-width:0.79375;stroke-linecap:butt;stroke-linejoin:miter;stroke-miterlimit:4;stroke-dasharray:none;stroke-dashoffset:0;stroke-opacity:1;-inkscape-stroke:none;paint-order:fill markers stroke;stop-color:#000000;stop-opacity:1"
         d="m 59.206094,77.925697 c -1.687534,0.870773 -2.810751,0.327221 -3.673192,-0.0033 -1.317548,-0.504889 -1.740829,-1.09032 -2.695189,-1.644064 -0.573801,-0.332934 0.02156,-0.803802 -0.08255,-0.881728 -0.461568,-0.345518 -1.474802,-1.264486 -1.993916,-0.973511 -1.049494,0.588265 -1.656598,-0.756586 -1.464694,-0.72446 -0.524228,-0.273559 -3.123705,-2.660165 -4.263883,-3.849428 -0.199502,-0.20809 -0.04603,-1.054061 -0.243983,-1.265071 -0.453382,-0.483285 -0.398145,-0.625373 -0.845453,-1.122811 l -1.791069,-0.123266 c 4.040583,4.573153 11.107249,10.723865 14.841915,11.372243 1.389794,0.241282 1.312872,0.140861 2.558306,-0.330727 z"
         id="path74"
         inkscape:label="shadow"
         sodipodi:nodetypes="csssscssccscc" /><path
         style="color:#000000;fill:#2d668b;stroke-width:1;-inkscape-stroke:none;paint-order:fill markers stroke"
         d="m 55.886467,79.115466 c 1.317966,0.338181 2.672253,0.556407 4.243019,-0.305111 L 59.75766,78.39736 c -1.013209,0.375995 -2.092503,0.872144 -4.224577,-0.05806 -3.525214,-1.53801 -11.19954,-7.751845 -13.307675,-10.734833 0.650303,0.176656 1.482025,0.06968 1.968388,0.0088 2.74505,3.283958 7.350428,7.95872 11.272402,10.017351 0.549984,0.288685 1.424933,0.817133 4.088946,0.336531 l -0.24812,-0.43124 c -1.845239,0.321885 -2.82617,0.04115 -3.803355,-0.535578 -5.391207,-3.181905 -9.562906,-8.220351 -10.886582,-9.888733 -0.650839,0.2557 -2.120454,0.04801 -3.798799,-0.305941 3.836687,5.098516 8.779509,10.062083 15.068179,12.309736 z"
         id="path11"
         inkscape:label="outline"
         sodipodi:nodetypes="sccsccsccsccs" /><path
         style="color:#000000;display:inline;fill:#234253;fill-opacity:1;stroke-width:1;-inkscape-stroke:none;paint-order:fill markers stroke"
         d="m 49.839164,76.702011 c 0.330915,0.110304 0.854782,0.183964 1.119987,-0.0037 0.718849,-0.508981 0.986149,-0.786229 1.623027,-1.349334 0.236623,-0.209226 0.307298,-0.619555 0.08739,-0.854876 -0.519815,-0.556241 -1.259336,-0.989485 -2.068563,-1.518716 -0.28287,-0.184995 -0.558742,-0.166956 -0.828968,0.01657 -0.828895,0.562942 -0.923401,0.705312 -1.549426,1.35686 -0.214418,0.223178 -0.269025,0.517326 -0.05454,0.77356 0.540923,0.646207 1.067456,1.378516 1.671096,1.57973 z m 0.07064,-1.018997 c -0.32054,-0.176749 -0.733571,-0.525873 -0.988509,-0.798779 -0.105251,-0.112666 -0.107884,-0.335247 0.07711,-0.524203 0.365609,-0.373352 0.45025,-0.47819 0.896144,-0.832963 0.137564,-0.109464 0.353054,-0.06889 0.509618,0.01 0.502211,0.252876 0.781518,0.43822 1.166596,0.764907 0.08799,0.07465 0.272691,0.44742 0.04935,0.656088 -0.423277,0.395479 -0.369808,0.370354 -0.995872,0.704855 -0.372881,0.199226 -0.571884,0.09874 -0.714437,0.02012 z"
         id="path55"
         inkscape:label="loop"
         sodipodi:nodetypes="sssssssssssssssssss" /></g><g
       id="g43"
       inkscape:label="Arm R"
       inkscape:groupmode="layer"><path
         style="font-variation-settings:normal;display:inline;opacity:1;vector-effect:none;fill:#a1817a;fill-opacity:1;stroke:none;stroke-width:0.79375;stroke-linecap:butt;stroke-linejoin:miter;stroke-miterlimit:4;stroke-dasharray:none;stroke-dashoffset:0;stroke-opacity:1;-inkscape-stroke:none;paint-order:fill markers stroke;stop-color:#000000;stop-opacity:1"
         d="m 67.100214,84.401709 c 0.695189,0.605319 1.20741,1.756527 2.070695,0.498837 0.365074,0.278009 0.738223,0.352463 1.13072,-0.0609 l 1.007624,0.886906 c 0.981262,4.72233 1.599076,8.562516 0.729259,12.986007 -0.769766,1.835961 -2.7781,2.379231 -4.637613,2.645491 -0.590531,-0.30033 -0.744925,-0.86096 -0.67648,-1.782367 -1.875118,0.938527 -5.135055,1.410187 -4.160123,-1.337271 -0.657069,-0.0518 -2.471959,-1.829284 0.162507,-2.744664 4.080668,-2.444891 3.780487,-6.207122 3.660693,-10.42375 z"
         id="path92"
         inkscape:label="hand (fill)"
         sodipodi:nodetypes="ccccccccccc" /><path
         style="font-variation-settings:normal;display:inline;opacity:1;vector-effect:none;fill:#46241d;fill-opacity:0.073618;stroke:none;stroke-width:0.79375;stroke-linecap:butt;stroke-linejoin:miter;stroke-miterlimit:4;stroke-dasharray:none;stroke-dashoffset:0;stroke-opacity:1;-inkscape-stroke:none;paint-order:fill markers stroke;stop-color:#000000;stop-opacity:1"
         d="m 67.265255,84.576235 c 1.285925,1.189001 1.042369,1.582001 1.905654,0.324311 0.365074,0.278009 0.738223,0.352463 1.13072,-0.0609 l 0.421136,0.805722 c 1.441745,5.246094 0.991814,12.297374 0.334091,13.171371 -0.490213,0.651407 -1.233506,1.460451 -2.562043,1.484531 -0.535762,0.01 -0.643584,-0.509277 -0.05236,-1.270884 1.490411,-1.769919 1.724899,-3.447309 2.37981,-7.287612 -1.153319,6.397638 -5.727441,7.971949 -6.928294,7.824199 -0.436508,-0.0537 0.257833,-0.771254 0.953429,-1.625851 0.974996,-0.241263 2.836999,-1.998452 3.397251,-4.687675 -2.500787,4.327735 -3.794501,4.240402 -5.291103,4.32532 -0.395518,0.02244 -1.193905,-0.29365 0.317205,-0.610899 6.646338,-1.395368 4.584143,-11.166361 3.406788,-12.004803 z"
         id="path93"
         inkscape:label="hand (shadow)"
         sodipodi:nodetypes="ccccssccsccsscc" /><path
         style="color:#000000;fill:#947068;stroke-width:1;-inkscape-stroke:none;paint-order:fill markers stroke"
         d="m 66.889483,84.534922 -0.940243,0.923979 -0.359911,-0.707936 c 0.361068,2.232055 0.429722,5.408298 -0.10621,6.584606 -0.54758,1.201879 -0.899924,1.9107 -1.626032,2.915469 -0.389197,0.538605 -3.586883,1.011546 -2.886418,3.363272 0.159453,0.46941 0.737739,0.61818 1.190765,0.73123 -0.419907,0.549937 -0.548142,1.053414 -0.229275,1.701688 1.017959,1.31698 3.092084,0.65106 4.410402,0.1888 -0.03803,0.54805 0.04136,1.3599 0.799947,1.54735 1.721227,0.42531 3.890017,-0.92513 4.893094,-1.959977 1.264394,-1.304434 1.350451,-6.077929 0.955652,-9.044629 -0.219159,-1.646831 -1.313778,-6.148482 -1.313778,-6.148482 l -0.27477,1.09316 -1.005921,-0.785638 c 0,0 1.34073,4.701045 1.522766,6.068918 0.46179,3.470046 0.207603,7.633257 -0.451776,8.279284 -1.397645,1.369354 -3.566278,1.661064 -4.024565,1.296224 -0.24349,-0.19384 -0.391837,-0.45191 -0.272995,-0.768527 0.244099,-0.15234 1.204107,-0.592457 1.403443,-0.758227 0.19894,-0.165437 0.42124,-0.457807 0.646346,-0.838094 0.103094,0.336927 0.216337,0.340967 0.69192,0.477697 -0.306105,-0.347387 -0.392059,-0.488047 -0.436187,-0.945242 0.806414,-1.586486 1.548573,-4.118418 1.271393,-5.781861 -0.434121,2.979122 -1.20927,5.138479 -2.597992,6.380726 -1.185024,0.752214 -3.934995,2.196908 -5.13323,1.237101 -0.27339,-0.218997 -0.550235,-0.717054 -0.10147,-1.126884 0.649111,0.0782 1.68214,-0.0958 2.170832,-0.293807 1.676667,-0.91875 2.381324,-2.539241 2.889046,-4.301752 -0.775932,1.271385 -1.818173,3.243533 -3.181191,3.648236 -0.791779,0.191599 -2.507315,0.822506 -3.095138,-0.430273 -0.347072,-0.739683 2.001103,-1.405166 2.796517,-2.318007 0.791283,-0.9081 1.417453,-1.754688 1.903603,-3.071364 0.695912,-1.884788 0.803763,-4.800128 0.491376,-7.15704 z"
         id="path17"
         inkscape:label="hand (outline)"
         sodipodi:nodetypes="cccssscscssscccssscscccccsccccsasc" /><path
         style="color:#000000;fill:#615551;stroke-width:1;-inkscape-stroke:none;paint-order:fill markers stroke"
         d="m 73.499246,67.270906 c 0.881087,3.802037 1.330864,11.08238 0.858479,12.131168 -0.0775,-0.138733 -0.410232,-0.266638 -0.534254,-0.540596 0,0 -0.478657,2.983789 -2.257356,5.624574 -0.134314,0.199415 -0.365462,0.736223 -0.332982,0.98338 -0.695336,-0.643494 -0.634314,-1.236266 -0.77796,-1.927147 l -0.732785,1.397552 c -0.107375,-0.541963 -0.302433,-0.948523 -0.570094,-1.451387 -0.226342,0.741156 -0.287415,1.128634 -0.878419,1.818587 -0.196591,-0.595844 -0.878003,-1.052403 -1.366876,-1.564278 -0.427031,0.353965 -0.85816,0.706316 -0.962471,1.187371 -4.439739,-3.221812 -4.79253,-5.533098 -5.400578,-6.649192 l -0.328217,0.449683 c -0.871647,-0.838072 -1.268325,-2.549884 -1.777249,-4.332237 0.05638,0.883369 0.70417,5.513677 1.48318,6.053518 0.05689,-0.288881 0.146012,-0.477033 0.248267,-0.62419 1.825939,3.35051 3.584928,4.868384 5.999407,6.523136 0.231998,-0.43311 0.399901,-1.214709 0.911238,-1.542788 0.514149,0.362177 0.940417,0.964539 1.210062,1.628571 0.530729,-0.410309 0.783671,-0.821407 0.891957,-1.271075 0.295333,0.452301 0.291859,0.81663 0.376708,1.292475 0.206113,-0.368918 0.361411,-0.980389 0.72849,-1.417579 0.385094,0.455451 0.898916,1.067093 1.330248,1.301923 -0.007,-0.233236 0.09816,-0.660309 0.303772,-0.908093 1.199732,-1.445768 1.682903,-3.160001 2.155641,-4.968705 0.323044,0.251563 0.404678,0.407401 0.534489,0.641662 0,0 2.156415,-6.423722 -1.112697,-13.836345 z"
         id="path3"
         inkscape:label="arm outline"
         sodipodi:nodetypes="cccscccccccccccccccccccsccsc" /></g><g
       id="g28"
       inkscape:label="Strap (up)"
       inkscape:groupmode="layer"><path
         style="font-variation-settings:normal;opacity:1;fill:#3e82ae;fill-opacity:1;stroke:none;stroke-width:0.79375;stroke-linecap:butt;stroke-linejoin:miter;stroke-miterlimit:4;stroke-dasharray:none;stroke-dashoffset:0;stroke-opacity:1;paint-order:fill markers stroke"
         d="m 74.555056,69.174283 c -1.208403,-4.003019 -1.46626,-6.756731 -8.300117,-10.717809 -4.336961,-0.811077 -8.05768,-1.982762 -13.390822,-2.210901 -1.357704,0.301961 -3.381945,0.289754 -4.026977,0.927627 0,0 11.374139,1.411397 16.436372,4.042266 3.616318,1.87942 9.281544,7.958817 9.281544,7.958817 z"
         id="path50"
         inkscape:label="fill"
         sodipodi:nodetypes="ccccsc" /><path
         style="font-variation-settings:normal;display:inline;opacity:1;vector-effect:none;fill:#122633;fill-opacity:0.117154;stroke:none;stroke-width:0.79375;stroke-linecap:butt;stroke-linejoin:miter;stroke-miterlimit:4;stroke-dasharray:none;stroke-dashoffset:0;stroke-opacity:1;-inkscape-stroke:none;paint-order:fill markers stroke;stop-color:#000000;stop-opacity:1"
         d="m 74.555056,69.174283 c -1.208403,-4.003019 -2.75734,-5.412973 -7.264648,-9.321481 -0.602254,0.821591 -3.516923,-0.388448 -7.218126,-1.204907 -3.566341,-0.78671 -9.448517,-1.19089 -7.593494,-2.416818 -1.357705,0.30196 -2.996616,0.30425 -3.641648,0.942123 0.202721,-0.03668 12.315791,1.039718 17.006046,3.467838 4.078039,2.11118 8.893031,8.533245 8.71187,8.533245 z"
         id="path73"
         inkscape:label="shadow"
         sodipodi:nodetypes="ccsccsc" /><path
         style="color:#000000;fill:#2d668b;stroke-width:1;-inkscape-stroke:none;paint-order:fill markers stroke"
         d="m 48.721548,56.699539 c -0.527429,0.222545 -0.224359,0.702696 0.420119,0.889186 0.419118,0.121279 3.050195,0.532464 6.741045,1.309958 3.690853,0.777493 7.853035,2.146612 9.687153,3.097647 3.004573,1.557942 5.513482,3.822222 6.992122,5.399344 0.607097,0.64753 1.788239,2.490656 2.120149,3.13142 0.379142,-2.279905 -0.143694,-4.015446 -1.211898,-5.916325 -1.271891,-2.263342 -4.080346,-4.76303 -5.991015,-5.927106 -2.094864,-1.276299 -5.712123,-1.912374 -8.883087,-2.316141 -3.170962,-0.403769 -5.883958,-0.402156 -5.883958,-0.402156 -1.184572,0.121155 -2.794533,0.229487 -3.99063,0.734173 z m 3.123988,-0.22443 c 1.55935,-0.103843 3.664293,0.24449 6.739923,0.636119 3.109281,0.395912 7.102502,1.68376 8.755314,2.69074 1.547293,0.94269 4.242082,3.543555 5.734935,5.585998 0.765076,1.046736 1.062261,2.260384 1.05774,3.010677 -0.380321,-0.648489 -1.517825,-2.159441 -2.421272,-2.990406 -1.745387,-1.605353 -3.698219,-3.436906 -5.506962,-4.374782 -2.183556,-1.132226 -6.372713,-2.165468 -10.097901,-2.950195 -1.932617,-0.407114 -6.68066,-0.777851 -7.193433,-1.014146 1.140554,-0.335968 1.84789,-0.472686 2.931656,-0.594005 z"
         id="path10"
         inkscape:label="outline"
         sodipodi:nodetypes="ssssscssscscssscssscc" /></g><g
       id="g30"
       inkscape:label="Cap (front)"
       inkscape:groupmode="layer"><g
         id="g79"
         inkscape:groupmode="layer"
         inkscape:label="head"><path
           style="font-variation-settings:normal;opacity:1;fill:#258b6a;fill-opacity:1;stroke:none;stroke-width:0.79375;stroke-linecap:butt;stroke-linejoin:miter;stroke-miterlimit:4;stroke-dasharray:none;stroke-dashoffset:0;stroke-opacity:1;paint-order:fill markers stroke"
           d="m 97.769766,37.603765 c -9.068071,0.562615 -17.9672,-1.214827 -27.568013,-3.124501 0.63985,-5.330478 -0.481892,-10.436762 2.547062,-16.071299 8.014947,-5.670588 14.995357,-4.417085 21.644562,-0.946855 2.352171,6.714219 2.937899,13.428437 3.376389,20.142655 z"
           id="path45"
           sodipodi:nodetypes="ccccc"
           inkscape:label="fill" /><path
           style="font-variation-settings:normal;display:inline;opacity:1;fill:#103c2e;fill-opacity:0.105703;stroke:none;stroke-width:0.79375;stroke-linecap:butt;stroke-linejoin:miter;stroke-miterlimit:4;stroke-dasharray:none;stroke-dashoffset:0;stroke-opacity:1;paint-order:fill markers stroke"
           d="m 96.625142,35.8322 c -9.068074,0.562615 -12.214219,0.917335 -21.815031,-0.99234 -0.432504,-3.939456 -0.603985,-7.451026 0.54725,-11.28036 0.09698,-0.322602 0.992866,0.258272 1.109262,-0.06929 0.119464,-0.336194 -0.223934,-2.142236 -0.08267,-2.484602 0.304721,-0.738512 0.345673,-0.931235 0.761921,-1.705549 10.275046,4.024884 14.172982,-0.171559 16.643326,-1.433957 2.352173,6.714219 2.397454,11.251876 2.83594,17.966093 z"
           id="path79"
           sodipodi:nodetypes="ccsssccc"
           inkscape:label="shadow" /><path
           id="path12"
           style="color:#000000;fill:#1c6a52;fill-opacity:1;stroke-width:1;-inkscape-stroke:none;paint-order:fill markers stroke"
           inkscape:label="outline"
           d="m 72.897827,17.499153 c -3.891199,3.069925 -3.022545,14.226574 -2.925343,15.341037 5.68136,3.416485 9.380225,4.611632 16.030039,4.908664 L 86.76488,36.45957 c -6.297102,-0.281277 -10.671226,-1.031314 -15.673546,-4.014297 -0.517023,-6.919987 1.088827,-12.613354 2.853748,-13.979446 6.570858,-5.086008 13.331143,-4.387921 19.737095,-0.904574 2.493977,2.898033 2.813227,10.595024 2.766723,12.875302 l 1.267262,0.243295 C 98.155931,29.161114 96.166326,19.102432 94.449626,16.761491 87.707685,12.981909 78.895894,12.767037 72.897827,17.499153 Z M 91.4873,18.836287 c 0,0 -4.523226,1.150774 -6.833695,1.245637 -2.404522,0.09873 -7.452425,-0.716233 -7.452425,-0.716233 0,0 3.655257,1.52879 7.935692,1.272445 4.759966,-0.285062 6.350428,-1.801849 6.350428,-1.801849 z"
           sodipodi:nodetypes="sccccsccccscscsc" /></g><g
         id="g78"
         inkscape:groupmode="layer"
         inkscape:label="beek"><path
           style="font-variation-settings:normal;opacity:1;fill:#d46c14;fill-opacity:1;stroke:none;stroke-width:0.79375;stroke-linecap:butt;stroke-linejoin:miter;stroke-miterlimit:4;stroke-dasharray:none;stroke-dashoffset:0;stroke-opacity:1;paint-order:fill markers stroke"
           d="m 97.435329,31.21487 12.263251,1.853125 c 2.02371,1.619786 2.37167,3.238832 2.98593,4.857998 -1.81905,-1.305682 -3.01333,-2.986663 -6.46098,-3.314039 -2.6053,-0.797975 -9.534953,6.509074 -10.605975,6.289974 -0.190346,-0.03895 -9.52218,-3.560768 -9.721467,-3.661225 -1.178978,-0.594298 8.471727,-7.325991 11.539241,-6.025833 z"
           id="path46"
           sodipodi:nodetypes="ccccssc"
           inkscape:label="fill" /><path
           style="font-variation-settings:normal;display:inline;opacity:1;fill:#3d1f06;fill-opacity:0.0824236;stroke:none;stroke-width:0.79375;stroke-linecap:butt;stroke-linejoin:miter;stroke-miterlimit:4;stroke-dasharray:none;stroke-dashoffset:0;stroke-opacity:1;paint-order:fill markers stroke"
           d="m 97.577665,31.767898 c -1.334512,1.007367 -6.263838,3.235137 -1.082435,4.356417 2.501296,0.541294 6.90306,-2.875782 9.32472,-2.660172 0.51376,0.04574 1.77328,0.309139 -0.3313,0.531495 -5.04896,0.530612 -7.487152,5.43096 -9.206578,5.687289 -1.523325,0.227094 -3.210584,-1.034173 -4.913962,-1.607215 -1.998509,-0.672328 -4.396048,-0.799489 -4.656706,-1.071972 -0.912661,-0.95406 5.289671,-5.854522 10.866261,-5.235842 z"
           id="path80"
           sodipodi:nodetypes="csscsssc"
           inkscape:label="shadow" /><path
           style="color:#000000;fill:#b05a10;fill-opacity:1;stroke-width:1;-inkscape-stroke:none;paint-order:fill markers stroke"
           d="m 97.631883,30.282702 c -6.034667,0.514985 -9.284119,2.687935 -12.621995,7.59461 2.323126,0.186624 4.507674,0.992713 6.633119,1.905464 1.368203,0.538029 2.760122,1.615787 4.225499,1.389687 1.794151,-0.27683 3.029968,-2.120548 4.420084,-3.181739 1.79146,-1.367568 5.29502,-3.085736 6.78452,-2.840933 2.85823,0.469759 3.18937,2.056524 5.03174,3.22773 0.52854,0.336004 1.08399,0.396056 1.02376,-0.696789 -0.012,-0.217075 -0.86865,-3.407784 -2.53607,-4.568055 -1.77284,-1.233622 -4.4604,-1.075084 -6.5863,-1.275948 -2.38791,-0.155817 -4.067647,-0.908153 -6.374357,-1.554027 z m -0.02139,1.350759 c 2.588767,0.740913 4.930987,0.869406 6.956197,1.060754 2.07956,0.196483 3.84613,0.406012 5.31704,1.429544 0.50055,0.348306 2.22042,1.632832 2.46036,3.298726 -1.37616,-1.309883 -4.30747,-3.259549 -6.35561,-3.275625 -2.09418,0.101461 -4.55925,1.626795 -6.394677,3.027824 -1.268387,0.880226 -1.778816,2.367223 -3.111519,2.65359 -1.464649,0.314719 -3.154389,-0.748987 -4.315699,-1.254173 -1.420937,-0.616452 -3.868885,-1.035932 -5.640911,-1.412608 2.384254,-4.067998 6.856341,-4.747424 11.084819,-5.528032 z"
           id="path13"
           inkscape:label="outline"
           sodipodi:nodetypes="ccsassssssccsscssascc" /></g><g
         id="g31"
         inkscape:label="eye R"
         transform="matrix(0.99652495,0,0,0.99652495,-1.8726842,11.327312)"
         style="stroke-width:1.00349"><path
           style="color:#000000;fill:#1c362e;stroke-width:1.00349;-inkscape-stroke:none;paint-order:fill markers stroke"
           d="m 86.566406,11.310547 c -2.145741,0.254132 -3.619543,1.809305 -3.619543,4.020799 0,2.211493 1.495837,3.857957 3.663622,3.857957 2.167785,0 3.695701,-1.624294 3.695701,-3.835787 0,-2.211494 -1.587041,-4.29793 -3.73978,-4.042969 z"
           id="ellipse23"
           inkscape:label="main"
           sodipodi:nodetypes="sssss" /><path
           style="color:#000000;display:inline;fill:#dcede8;fill-opacity:1;stroke-width:1.00349;-inkscape-stroke:none;paint-order:fill markers stroke"
           d="m 85.45837,12.918685 c -0.830955,0.09842 -1.401696,0.700668 -1.401696,1.557085 0,0.856418 0.579274,1.494024 1.418766,1.494024 0.839491,0 1.431188,-0.629021 1.431188,-1.485438 0,-0.856418 -0.614594,-1.664406 -1.448258,-1.565671 z"
           id="path31"
           inkscape:label="fx"
           sodipodi:nodetypes="sssss" /></g><g
         id="g33"
         inkscape:label="eye L"
         transform="matrix(0.89496059,0,0,0.89496059,18.213546,10.896808)"
         style="stroke-width:1.11736"><path
           style="color:#000000;fill:#1c362e;stroke-width:1.11736;-inkscape-stroke:none;paint-order:fill markers stroke"
           d="m 82.946863,15.331346 c 0,2.211493 1.495837,3.857957 3.663622,3.857957 0.755859,0 1.471985,-0.193092 2.034613,-0.544079 0.07663,-1.030867 -1.294241,-7.199928 -1.545599,-7.350486 -1.225401,-0.07469 -4.152636,0.780315 -4.152636,4.036608 z"
           id="path32"
           inkscape:label="main"
           sodipodi:nodetypes="ssccs" /><path
           style="color:#000000;display:inline;fill:#dcede8;fill-opacity:1;stroke-width:1.11736;-inkscape-stroke:none;paint-order:fill markers stroke"
           d="m 85.45837,12.918685 c -0.830955,0.09842 -1.401696,0.700668 -1.401696,1.557085 0,0.856418 0.579274,1.494024 1.418766,1.494024 0.839491,0 1.431188,-0.629021 1.431188,-1.485438 0,-0.856418 -0.614594,-1.664406 -1.448258,-1.565671 z"
           id="path33"
           inkscape:label="fx"
           sodipodi:nodetypes="sssss" /></g></g><g
       id="g37"
       inkscape:label="Ear R"
       inkscape:groupmode="layer"><path
         style="font-variation-settings:normal;display:inline;opacity:1;fill:#7d6f69;fill-opacity:1;stroke:none;stroke-width:0.79375;stroke-linecap:butt;stroke-linejoin:miter;stroke-miterlimit:4;stroke-dasharray:none;stroke-dashoffset:0;stroke-opacity:1;paint-order:fill markers stroke"
         d="M 81.040296,37.444535 C 78.728153,32.430919 71.483062,27.013698 62.28697,29.959992 c 0.114056,0.302083 0.09116,0.696218 -0.559264,0.518781 0.160711,0.775955 -0.01427,1.309701 -0.810532,0.835302 -2.764594,7.139629 -0.416477,11.464968 3.20087,16.201906 11.667741,0.414787 14.512795,-4.692022 16.922252,-10.071446 z"
         id="path44"
         inkscape:label="fill"
         sodipodi:nodetypes="cccccc" /><path
         style="font-variation-settings:normal;display:inline;opacity:1;fill:#a1817a;fill-opacity:1;stroke:none;stroke-width:0.793752;stroke-linecap:butt;stroke-linejoin:miter;stroke-miterlimit:4;stroke-dasharray:none;stroke-dashoffset:0;stroke-opacity:1;paint-order:fill markers stroke"
         d="M 79.521637,37.311482 C 76.979943,33.758059 69.096586,29.15847 64.171095,32.414144 c -2.794088,6.881369 -0.187971,10.932111 1.913632,13.816619 l 1.514147,0.05699 c 0.343373,-0.378967 0.421637,-0.82222 0.583233,-1.201187 l 2.255772,0.425467 0.477588,-1.226196 1.108778,0.786919 0.446366,-0.877945 1.916187,0.406411 -0.274343,-0.997338 c 0.507862,0.10243 1.00519,0.109679 1.475328,-0.12885 l -0.359123,-1.39069 c 0.5976,-0.06287 1.183104,-0.143156 1.584259,-0.488739 l -0.34332,-0.637351 0.927399,-0.214086 0.100887,-1.398944 1.167217,-0.08105 c 0.335825,-0.606552 0.669205,-1.215258 0.856535,-1.952695 z"
         id="path59"
         inkscape:label="inner fill"
         sodipodi:nodetypes="ccccccccccccccccccc" /><path
         style="font-variation-settings:normal;display:inline;opacity:1;vector-effect:none;fill:#46241d;fill-opacity:0.0606504;stroke:none;stroke-width:0.79375;stroke-linecap:butt;stroke-linejoin:miter;stroke-miterlimit:4;stroke-dasharray:none;stroke-dashoffset:0;stroke-opacity:1;-inkscape-stroke:none;paint-order:fill markers stroke;stop-color:#000000;stop-opacity:1"
         d="m 79.521637,37.311482 c -2.862856,-3.892961 -9.924309,-7.801116 -14.849799,-4.545441 -1.400615,1.886368 5.610605,5.533714 5.726942,8.010057 0.213919,4.553446 -3.703194,4.221499 -4.314053,5.454665 l 1.514147,0.05699 c 0.343373,-0.378967 0.421637,-0.82222 0.583233,-1.201187 l 2.255772,0.425467 0.477588,-1.226196 1.108778,0.786919 0.446366,-0.877945 1.916187,0.406411 -0.274343,-0.997338 c 0.507862,0.10243 1.00519,0.109679 1.475328,-0.12885 l 1.59113,-2.24603 c 0.597601,-0.06287 -0.767149,0.712184 -0.365994,0.366601 l -0.34332,-0.637351 0.927399,-0.214086 0.100887,-1.398944 1.167217,-0.08105 c 0.335825,-0.606552 0.669205,-1.215258 0.856535,-1.952695 z"
         id="path78"
         inkscape:label="inner shadow"
         sodipodi:nodetypes="ccsccccccccccccccccc" /><path
         id="path23"
         style="color:#000000;display:inline;fill:#947068;stroke-width:1;-inkscape-stroke:none;paint-order:fill markers stroke"
         inkscape:label="inner line"
         d="m 63.539835,32.10642 c -1.283714,2.749478 -1.548072,6.400846 -0.459497,9.596134 0.486553,1.428177 1.041135,3.100535 2.985976,4.531429 -0.379086,-1.01426 -1.831182,-3.032632 -2.291829,-4.783194 -0.77293,-2.850195 -0.300797,-6.04838 0.906689,-8.68791 6.502387,-3.127966 10.909424,0.939143 14.81982,4.531154 C 75.98289,31.679872 69.785698,29.103745 63.539835,32.10642 Z m 8.577985,1.972615 c -3.694149,0.810387 -4.8811,2.103395 -6.942968,4.376524 2.912751,-4.305393 3.38689,-4.172028 6.942968,-4.376524 z m 4.81526,2.064626 c -5.28858,0.220724 -7.716464,1.563779 -11.117112,6.98546 2.721027,-2.619217 5.30455,-5.81037 11.117112,-6.98546 z"
         sodipodi:nodetypes="csccccccccccc" /><path
         style="color:#000000;fill:#615551;stroke-width:1;-inkscape-stroke:none;paint-order:fill markers stroke"
         d="m 60.992074,29.665702 c 0.03827,0.187614 0.656524,1.222086 0.606629,1.596046 -0.178378,-0.242061 -0.83212,-0.605261 -0.89057,-0.476648 -0.06087,0.133926 0.05592,0.326258 -0.0088,0.463417 -0.519658,1.099847 -1.124659,2.281213 -1.151347,3.183777 -0.15569,5.265264 0.557468,9.553715 4.801615,13.262346 -1.320961,-4.037103 -4.532643,-4.561385 -3.814495,-12.46271 0.08722,-0.959624 0.157231,-2.3314 0.778293,-3.396376 0.08097,-0.13884 0.431808,0.02985 0.578959,0.235149 0.117191,-0.35803 -6.71e-4,-1.051048 0.129683,-1.232476 0.127253,0.02537 0.537947,0.343061 0.651753,0.393412 0.01409,-0.122658 -0.01822,-0.732607 0.03437,-0.766 2.100886,-1.33425 4.631877,-1.808775 9.068669,-0.367839 4.454872,1.446807 7.945569,5.23147 9.586443,7.979563 -1.235789,-4.92307 -4.688309,-7.271495 -9.323939,-8.717821 -3.693951,-1.15252 -6.12727,-1.189776 -9.623573,0.209277 -0.140518,0.05622 -0.296471,-0.05184 -0.440298,0.0095 -0.09015,0.03841 0.126334,0.634669 0.143335,0.733348 -0.281063,-0.05383 -0.351784,-0.392821 -1.126631,-0.645894 z"
         id="path22"
         sodipodi:nodetypes="ccssscsscccsscssccc"
         inkscape:label="outline" /><path
         style="color:#000000;fill:#615551;stroke-width:1;-inkscape-stroke:none;paint-order:fill markers stroke"
         d="m 79.535674,37.234006 c -0.366685,0.829371 -0.647547,1.644687 -0.927764,1.944931 -0.246437,-0.163535 -1.022058,-0.119797 -1.451512,-0.111119 0.428873,0.450957 0.09637,0.989101 0.03844,1.506164 -0.530341,0.08815 -1.26165,0.174842 -1.600749,0.327061 0.274398,0.148043 0.717613,0.381194 0.827846,0.59185 -0.676859,0.556324 -1.720778,0.01715 -2.327402,0.137558 0.625086,0.341948 0.775322,0.98913 0.971424,1.380748 -0.777477,0.398505 -1.212627,-0.09048 -1.775146,-0.05514 0.269403,0.277065 0.506874,0.906281 0.591506,1.176452 -0.295775,-0.234551 -1.152977,-0.366851 -1.766492,-0.489597 0.03065,0.352646 -0.02968,0.815789 -0.171945,1.128335 -0.415115,-0.209034 -0.950792,-0.678307 -1.110296,-1.160167 -0.372754,0.512913 -0.542258,1.128278 -0.669201,1.669578 -0.687556,-0.171126 -1.411063,-0.285705 -2.226939,-0.380894 -0.03488,0.387568 0.04097,0.779267 -0.335487,1.15409 -0.591087,0.08675 -1.184737,0.172157 -2.200314,0.03671 0.816532,0.295509 1.592826,0.344629 2.375593,0.433378 0.201324,-0.423616 0.606018,-0.735379 0.561986,-1.168148 0.971124,0.01493 1.908787,0.510455 2.591217,0.656755 -0.403263,-0.450307 -0.09258,-1.0073 -0.01859,-1.397642 0.197899,0.370277 0.835771,0.518354 1.197102,0.707271 0.24969,-0.270279 0.376912,-0.559422 0.442976,-0.857986 0.804914,0.04519 1.566916,0.141422 2.132675,0.471059 -0.06673,-0.408462 -0.101825,-0.82254 -0.319599,-1.204192 0.452811,0.376104 1.173109,0.08561 1.692741,-0.0311 -0.2413,-0.888698 -0.24487,-1.202003 -0.52132,-1.426247 0.823015,0.06768 1.186945,-0.323243 1.579237,-0.611679 -0.10984,-0.200307 -0.167588,-0.412109 -0.474992,-0.619789 0.419508,-0.117831 0.907182,-0.11323 1.245759,-0.05004 0.02749,-0.54977 0.0245,-0.897662 -0.07299,-1.476341 0.33532,0.05598 0.760816,-0.166153 1.010711,0.0449 0.353576,-0.726281 0.587966,-1.591905 0.711522,-2.326768 z"
         id="path58"
         sodipodi:nodetypes="cccccccccccccccccccccccccccccccccc"
         inkscape:label="hair" /></g></g><metadata
     id="metadata1"><rdf:RDF><cc:Work
         rdf:about=""><cc:license
           rdf:resource="http://creativecommons.org/licenses/by-sa/4.0/" /><dc:creator><cc:Agent><dc:title>Guillaume 'GuieA_7' ENGLERT</dc:title></cc:Agent></dc:creator></cc:Work><cc:License
         rdf:about="http://creativecommons.org/licenses/by-sa/4.0/"><cc:permits
           rdf:resource="http://creativecommons.org/ns#Reproduction" /><cc:permits
           rdf:resource="http://creativecommons.org/ns#Distribution" /><cc:requires
           rdf:resource="http://creativecommons.org/ns#Notice" /><cc:requires
           rdf:resource="http://creativecommons.org/ns#Attribution" /><cc:permits
           rdf:resource="http://creativecommons.org/ns#DerivativeWorks" /><cc:requires
           rdf:resource="http://creativecommons.org/ns#ShareAlike" /></cc:License></rdf:RDF></metadata></svg>
