<?xml version="1.0" encoding="UTF-8" standalone="no"?>
<!-- Created with Inkscape (http://www.inkscape.org/) -->

<svg
   width="112"
   height="112"
   viewBox="0 0 29.633332 29.633334"
   version="1.1"
   id="svg1"
   xml:space="preserve"
   inkscape:version="1.3.2 (1:1.3.2+202311252150+091e20ef0f)"
   sodipodi:docname="slug-portrait.svg"
   inkscape:export-filename="slug-portrait.png"
   inkscape:export-xdpi="96"
   inkscape:export-ydpi="96"
   xmlns:inkscape="http://www.inkscape.org/namespaces/inkscape"
   xmlns:sodipodi="http://sodipodi.sourceforge.net/DTD/sodipodi-0.dtd"
   xmlns:xlink="http://www.w3.org/1999/xlink"
   xmlns="http://www.w3.org/2000/svg"
   xmlns:svg="http://www.w3.org/2000/svg"
   xmlns:rdf="http://www.w3.org/1999/02/22-rdf-syntax-ns#"
   xmlns:cc="http://creativecommons.org/ns#"
   xmlns:dc="http://purl.org/dc/elements/1.1/"><sodipodi:namedview
     id="namedview1"
     pagecolor="#ffffff"
     bordercolor="#666666"
     borderopacity="1.0"
     inkscape:showpageshadow="2"
     inkscape:pageopacity="0.0"
     inkscape:pagecheckerboard="true"
     inkscape:deskcolor="#d1d1d1"
     inkscape:document-units="px"
     inkscape:zoom="3.125"
     inkscape:cx="68.16"
     inkscape:cy="69.6"
     inkscape:window-width="1868"
     inkscape:window-height="1016"
     inkscape:window-x="52"
     inkscape:window-y="27"
     inkscape:window-maximized="1"
     inkscape:current-layer="svg1"
     showguides="true"><sodipodi:guide
       position="63.640079,91.822624"
       orientation="1,0"
       id="guide65"
       inkscape:locked="false" /></sodipodi:namedview><defs
     id="defs1"><linearGradient
       inkscape:collect="always"
       xlink:href="#linearGradient1"
       id="linearGradient2"
       x1="16.305481"
       y1="6.9347377"
       x2="25.943857"
       y2="31.667477"
       gradientUnits="userSpaceOnUse"
       gradientTransform="translate(-0.15479563,0.0428952)" /><linearGradient
       id="linearGradient1"
       inkscape:collect="always"><stop
         style="stop-color:#beb1bc;stop-opacity:1;"
         offset="0"
         id="stop1" /><stop
         style="stop-color:#c7bac4;stop-opacity:1;"
         offset="1"
         id="stop2" /></linearGradient></defs><rect
     style="display:inline;fill:url(#linearGradient2);fill-opacity:1;stroke-width:2.39188;stroke-linecap:round;stroke-opacity:0.523214;stop-color:#000000"
     id="rect393"
     width="31.435331"
     height="30.983959"
     x="-1.2041839"
     y="-0.44066757"
     ry="0.0029762452"
     inkscape:label="BG"
     sodipodi:insensitive="true" /><g
     inkscape:label="Main"
     inkscape:groupmode="layer"
     id="layer1"
     style="display:inline"><path
       style="color:#000000;display:inline;fill:#93b86b;fill-opacity:1;stroke-width:1;-inkscape-stroke:none;paint-order:fill markers stroke"
       d="m 27.670253,3.9514608 c -0.559427,-0.034671 -1.298554,0.2167244 -2.108462,1.1865312 -0.563492,1.0206238 -0.767506,1.5946826 -0.896962,2.7409178 -1.69331,1.9222075 -2.853177,3.6332262 -5.004557,5.4480482 -5.835165,0.30158 -7.863908,-2.779015 -17.3035744,0.970184 -0.7635979,0.784763 -3.26080724,3.343208 -4.3883975,4.982345 -2.5706516,3.73686 -4.1463762,7.508032 -4.2637737,11.192704 -0.023259,0.729966 0.2087166,1.863636 0.2951881,2.326393 -1.0358435,0.770766 -3.3477271,2.271133 -5.9226305,2.506519 -1.572721,0.143774 -3.221671,-0.470783 -4.928938,-0.319791 -1.340482,0.118552 -2.687408,0.314019 -3.914553,0.935789 -3.017761,1.52904 -4.069781,3.720025 -5.854851,6.043435 -0.132482,0.17243 -0.552995,0.05966 -0.71882,0.512326 -0.05992,0.163578 -0.849777,2.491357 2.486932,3.10394 1.777466,0.326307 3.233188,-0.724757 4.713942,-0.595084 1.229371,0.107661 2.280165,0.885076 3.49888,1.35617 1.488507,0.575365 3.229938,1.073265 4.738094,1.717291 1.150292,0.491197 2.2351827,1.293558 3.3894921,1.738519 2.5267063,1.314656 5.3525386,1.362552 7.85400966,0.968122 1.49496611,-0.951201 2.01625244,-1.993491 2.56591354,-2.769962 1.3932537,-0.936034 2.4213231,-1.599313 3.3878367,-1.762144 0.9126489,-0.07829 1.3732773,0.496588 1.7220324,-0.739587 0.1984348,-0.703355 -1.0428326,-3.259938 -0.730466,-6.249819 0.2220122,-2.125036 1.2823577,-7.8574 1.5504092,-9.022635 0.6139765,-2.66899 2.9795504,-4.732949 5.3743564,-5.67713 -0.323697,0.788081 -0.507324,4.457557 0.763046,4.254403 1.003569,-0.160488 0.570118,-2.420937 0.427141,-3.460533 0.423757,0.258596 1.112657,0.671802 1.620761,0.522426 0.480951,-0.246964 0.736957,-0.806413 0.974496,-1.309769 0.526446,0.64505 1.208934,0.794754 1.594265,0.69002 0.503105,-0.136742 0.442822,-0.886758 0.459108,-1.595398 0.954149,0.311467 1.979162,0.722307 2.438736,1.767779 -0.131574,0.310709 -0.176509,1.45056 0.685221,1.908297 0.524513,0.278615 0.880999,-0.238186 1.028578,-0.787471 0.204576,-0.761413 -0.05492,-1.331009 -0.368375,-1.902883 -0.451684,-0.824065 -1.214456,-1.218598 -1.730773,-1.808435 -0.581299,-0.664078 -1.298762,-1.990686 -1.695462,-2.90348 0.340322,-1.868046 1.458971,-2.964098 2.37924,-4.482316 1.258787,-2.138182 3.090891,-5.6684336 3.761361,-6.7222369 1.876939,-0.1247558 3.482095,-0.8657129 3.57524,-2.6639429 0.07677,-1.4820286 -0.685804,-1.8907739 -1.453684,-2.0995424 z"
       id="path13"
       sodipodi:nodetypes="cccccsscsssssssssccccssscscscsccsssscscsc"
       inkscape:label="body (fill)" /><path
       id="path45"
       style="font-variation-settings:normal;display:inline;opacity:1;vector-effect:none;fill:#91a951;fill-opacity:1;stroke:none;stroke-width:1;stroke-linecap:butt;stroke-linejoin:miter;stroke-miterlimit:4;stroke-dasharray:none;stroke-dashoffset:0;stroke-opacity:1;-inkscape-stroke:none;paint-order:fill markers stroke"
       d="m -23.880562,40.566759 c 0.03249,-0.251389 0.150576,-0.0166 0.298764,0.100763 0.171941,0.136193 0.275725,0.181763 0.05479,0.286946 -0.236814,0.112745 -0.38399,-0.152218 -0.353554,-0.387709 z m 2.113617,0.01039 c -0.291839,0.449166 -0.07594,0.612541 0.216877,0.509535 0.239935,-0.08439 0.595445,-0.370298 0.226403,-0.633317 -0.160361,-0.114291 -0.335159,-0.04265 -0.44328,0.123782 z m 10.644207,-3.844188 c 0.389019,-0.03999 0.40089,-1.051084 -0.404725,-0.72889 -0.544048,0.217584 -0.278782,0.799165 0.404725,0.72889 z m -1.440284,0.891909 c -0.602096,0.73298 -1.018719,2.909278 0.05797,2.40396 0.687829,-0.322819 0.720898,-1.754066 1.89883,-1.58547 0.9435137,0.135041 1.1477084,-1.2415 0.341333,-1.077179 -0.493258,0.100518 -1.064781,0.254451 -1.377386,0.549476 -0.370944,0.365768 -0.708196,-0.549537 -0.920744,-0.290787 z m 2.558756,2.336365 c -0.49421,0.495658 -1.827546,0.02831 -1.194792,0.960392 0.719827,1.060345 1.061402,0.05795 1.5854927,-0.290782 0.5927457,-0.394417 0.6576557,0.0855 0.5557587,-0.941032 -0.05892,-0.593651 -0.5356887,-0.14055 -0.9464594,0.271422 z m -4.143832,-4.425482 c -0.433609,0.821112 1.307171,1.146673 0.801103,0.09096 -0.233447,-0.184846 -0.667928,-0.343139 -0.801103,-0.09096 z m -0.203377,4.816478 c -0.471176,-0.0059 -0.791561,0.294126 -0.765257,0.515904 0.02509,0.211558 0.718684,0.64316 1.135112,0.589739 0.632363,-0.0811 0.368938,-1.096348 -0.369855,-1.105643 z m -2.702486,-3.862634 c -0.164214,0.708768 1.417099,1.015404 0.314581,2.074336 -0.557063,0.535042 2.086192,0.771502 2.853396,0.50234 0.704695,-0.752191 -0.83078,-1.286897 -1.395815,-1.709204 -0.382293,-0.285725 0.113163,-1.624418 -0.799335,-1.331102 -0.21845,0.07022 -0.912673,0.203993 -0.972827,0.46363 z m -2.8494,-0.117332 c 0.02356,0.582901 0.692502,0.776264 0.952358,0.561193 0.382057,-0.316212 0.876254,-0.470076 0.208614,-0.838973 -0.28917,-0.159778 -1.174046,-0.04566 -1.160972,0.27778 z m 1.553318,1.506542 c -0.656509,0.279975 -0.250632,0.880233 -0.632148,1.282533 -0.1453,0.153214 -0.71508,0.298333 -1.045613,0.355829 -1.033933,0.179852 1.083447,2.136972 1.735671,1.275985 0.601433,-0.793934 1.958152,-0.32841 1.51255,-0.9589 -0.454003,-0.642387 -1.439846,-0.977448 -0.680889,-1.752923 0.198233,-0.20255 -0.561022,-0.34264 -0.889571,-0.202524 z m -4.688231,1.789237 c 0.417783,0.341144 1.137799,0.344639 1.269634,0.158062 0.15007,-0.212388 -0.337921,-0.647437 -0.344634,-1.17181 -0.0093,-0.730727 2.088554,-0.139424 1.426508,-1.36836 -0.208358,-0.386766 -0.671105,-0.74711 -1.132568,-0.592431 -1.415433,0.474445 -0.862508,0.610403 -1.05953,1.266213 -0.174059,0.579378 -0.771464,1.208561 -0.15941,1.708326 z"
       sodipodi:nodetypes="ssssssssssssssscsssssscccsscssscsssssssssssssssssssss"
       inkscape:label="spots" /><path
       id="path68"
       style="font-variation-settings:normal;display:inline;opacity:1;fill:#f1f4f0;fill-opacity:0.32278;stroke:none;stroke-width:0.264583;stroke-linecap:butt;stroke-linejoin:miter;stroke-miterlimit:4;stroke-dasharray:none;stroke-dashoffset:0;stroke-opacity:1;paint-order:fill markers stroke"
       inkscape:label="body (light)"
       d="m -25.92935,42.053829 c -0.735386,-0.0013 0.518392,-0.581586 1.001493,-1.182362 0.801842,-0.997177 1.18885,-2.399 2.153916,-3.208772 1.336111,-1.121114 2.978854,-1.131099 4.649608,-1.405771 2.027089,-0.33325 4.154251,0.03865 6.199747,-0.113111 1.734072,-0.128655 6.5756152,-2.425806 5.0626585,-1.498696 -1.5732964,0.964085 -3.1113258,2.222152 -4.8946895,2.598196 -2.068144,0.436097 -4.224573,-0.84885 -6.304839,-0.48672 -1.558313,0.271269 -3.107803,0.889246 -4.379864,1.949205 -0.928712,0.773858 -1.192319,1.375764 -2.117115,2.155109 -0.538317,0.453648 -0.594328,1.194252 -1.370915,1.192922 z m -0.806019,0.504249 c 0.87393,0.752028 1.948114,0.829592 1.965989,0.99308 0.02366,0.216405 -1.472174,-0.02587 -1.747452,-0.480903 0,0 -0.394204,-0.663345 -0.218537,-0.512177 z M 2.609793,17.172391 C 2.3401271,16.812902 1.9275368,16.425596 1.5021266,16.471709 c -1.35822882,0.14723 -2.25576074,1.754754 -3.0574389,2.951872 -1.0266993,1.533134 -2.2436649,3.66059 -3.0708841,5.925947 -0.6708488,1.837138 1.2813718,-1.710932 2.6285969,-4.590975 0.7498902,-1.603084 2.21157618,-3.109228 3.1077665,-3.435009 0.4809816,-0.174846 0.9384089,0.383027 1.340433,0.718334 0.2430179,0.202689 0.3899476,1.175697 0.728207,0.974704 0.5245004,-0.311656 -0.1917106,-1.341214 -0.569014,-1.844191 z m -7.7629762,10.372595 c -0.4299116,-6.52e-4 -0.5227377,2.412914 -0.2972188,2.809514 0.1287941,0.226498 0.1974132,-1.022405 0.2887409,-1.269354 0.1560435,-0.421937 0.4878484,-1.539432 0.00848,-1.54016 z M 25.640573,5.8038229 C 25.624443,5.5475873 25.245946,6.3112038 25.136302,6.5389027 24.934861,6.9572376 24.83223,8.0541596 25.014246,7.76446 25.207483,7.4568978 25.14508,7.22008 25.24465,6.8401385 25.347086,6.4492828 25.662079,6.1461221 25.640573,5.8038229 Z" /><path
       id="path29"
       style="color:#000000;display:inline;fill:#242e17;fill-opacity:0.10199;stroke-width:1;-inkscape-stroke:none;paint-order:fill markers stroke"
       inkscape:label="body (shadow)"
       d="m 26.049845,5.2944714 c -0.110217,0.062344 -0.191463,0.5663385 -0.219374,0.8444481 -0.08058,0.802887 0.380162,1.4351247 -0.802966,2.1330032 -0.88201,0.5202653 -3.58186,5.6580613 -4.391351,6.0461573 -0.897501,0.430285 1.007858,-1.916954 -0.237742,-1.804274 L 2.5555385,14.153468 c -0.033384,0.989384 2.4209264,1.864622 3.3690175,2.619381 0.5218963,0.415471 0.1299492,1.061858 0.403428,2.925729 0.2538679,1.730214 -0.631151,2.132972 -0.7396179,1.905727 -0.2043523,-0.428128 0.848903,-2.139129 -1.0122436,-3.352677 -0.040631,2.983021 -2.2011276,4.904568 -2.8164268,5.655514 -0.5797762,0.707593 -2.60404544,3.879126 -3.3070569,5.92158 -1.3525599,3.92958 -3.9140237,2.210463 -4.022581,2.980683 -0.093279,0.661825 2.800478,1.78146 4.0955563,0.591062 0.4072763,-0.343714 1.07417822,-1.069427 1.22061222,-0.877767 0.35442246,0.463891 -0.94595062,2.991387 -1.50585792,4.159827 -0.9479679,1.978269 -2.5996839,3.689973 -5.1745774,3.925359 -1.5727139,0.143772 -4.414389,-1.280162 -6.121647,-1.12917 -1.340479,0.118552 -4.454823,-0.552145 -5.681963,0.06963 -2.613615,1.324273 -5.907165,1.768522 -6.475967,2.647741 -0.262326,0.405482 1.839607,2.055917 -0.461716,1.539201 -1.266409,-0.28434 -1.235848,-1.520925 -1.401673,-1.068246 -0.05992,0.163584 -0.07172,2.185542 2.624121,2.569656 1.787404,0.254664 2.925525,-0.828905 4.406273,-0.699233 1.229366,0.107657 2.475713,1.212082 3.694423,1.683176 1.4885,0.575351 2.95228,0.675122 4.460432,1.319139 1.150286,0.491201 2.4325794,1.40644 3.5535183,1.942282 2.5644307,1.225845 4.9044455,1.573945 7.3183949,0.761145 1.65555166,-0.557443 2.4077629,-2.081753 2.9139556,-2.892162 0.3814849,-0.610765 0.4572957,-2.107465 0.6033072,-2.821049 0.2685246,-1.312321 0.5667592,-2.485893 0.7047378,-3.770182 0.1690132,-1.573163 0.03871,-3.706543 0.08835,-5.323072 0.062228,-2.026292 1.059407,-6.609392 2.2785212,-8.539469 0.5239045,-0.829433 2.1139126,-1.78446 2.9541156,-2.143198 l 1.0168327,-0.389151 c 1.1535397,-0.536515 2.5963697,-0.400903 3.6517387,-0.0045 0.876294,-1.419176 1.193454,-2.779414 1.542342,-4.063347 0.02934,1.807791 -0.01722,2.799537 -0.411227,3.373068 -1.167285,1.699394 -0.949756,4.96894 -0.11153,4.655654 0.487114,-0.182057 -0.004,-1.541304 -0.06311,-2.913048 -0.03168,-0.736539 0.28849,-2.094787 1.841128,-3.033897 -1.647879,1.65357 -1.422895,2.316 -1.547392,2.939904 l 0.30154,0.159391 c -0.01674,-0.220281 0.05016,-0.199462 0.02779,-0.362297 0.423753,0.258596 0.812555,0.451745 1.320664,0.302369 0.362794,-0.186291 1.101863,-1.888742 1.339488,-2.345606 0.07739,-0.148791 -0.350951,1.3406 -0.292594,1.216939 0.573929,0.556065 1.00028,0.73111 1.385612,0.626375 0.418011,-0.113614 0.4416,-2.279959 0.614317,-2.903847 l 0.01834,1.48052 c 0.910878,0.194526 2.011203,0.744109 2.410703,1.548155 0.0297,-0.541222 0.07921,-0.813795 0.140441,-0.151186 0.04715,0.510059 -0.315706,1.804969 0.393792,2.139965 0.452574,0.213688 0.917404,-0.479767 0.52299,-1.552631 -0.327332,-0.890399 -1.019609,-1.206733 -1.535917,-1.796566 -0.446431,-0.509999 -1.636937,-1.66675 -1.696332,-3.293993 l -0.156048,0.887714 c -0.45467,-1.940766 1.253438,-4.450166 2.159653,-5.978274 1.28874,-2.17315 2.610239,-4.469103 3.958328,-6.5996755 L 25.050003,8.5208426 c 2.015351,0.0095 3.865471,-0.6559779 3.939052,-2.455265 l -2.24089,1.3467612 c -0.972334,-0.9822015 -0.540371,-2.04395 -0.649206,-2.1153824 -0.01686,-0.01106 -0.03334,-0.011352 -0.0491,-0.00248 z M 11.704735,17.648379 c 0.187095,0.0093 0.372972,0.07242 0.574852,0.239956 0.555829,0.461278 0.470494,1.442166 -0.160636,2.02384 -0.930118,0.857234 -2.2446534,1.075582 -2.8168874,0.850915 -0.5376156,-0.211078 -1.1749491,-2.833308 -0.4240807,-3.084873 0.3315071,-0.111065 1.1643891,0.220927 1.7998231,0.139997 0.399683,-0.05091 0.715107,-0.185284 1.026929,-0.169835 z m -0.362809,6.526818 c -0.645336,-0.02688 -1.414641,0.110027 -2.2250538,0.527904 -1.6369031,0.814652 -2.3051669,1.545233 -3.2306398,2.298111 -1.7172436,3.56347 -2.2502416,7.099305 -2.3191398,10.662778 0.4415454,3.074396 -0.6672747,6.574785 -1.3291573,9.952371 0.8869771,-0.59073 2.3793097,-1.381673 3.0796418,-1.499665 0.9126461,-0.07828 1.1321254,0.213862 1.3833145,-0.663423 0.2011325,-0.702459 -1.0685067,-3.341015 -0.756141,-6.33089 0.2220118,-2.125023 1.3383622,-7.81834 1.60637,-8.983583 0.3692141,-1.605267 1.5451911,-3.143169 2.7700594,-4.078209 0.175042,-0.111062 0.181854,0.0292 0.324611,-0.05066 0.436276,-0.350038 0.540012,-0.419578 1.063993,-0.685926 0.05178,-0.02165 -0.195922,-0.09918 -0.147327,-0.12557 0.591026,-0.320965 1.181999,-0.547292 1.6066,-0.604244 -0.677636,-0.363045 -1.289314,-0.396599 -1.827131,-0.418993 z m -31.550721,19.519311 c 0,0 -0.206241,0.298768 -0.464422,0.362107 -0.273636,0.06712 -1.003027,-0.02312 -1.003027,-0.02312 0.511709,-0.260197 0.991844,-0.314354 1.467449,-0.338949 z m 8.145278,2.287217 c -0.651145,-0.146976 -1.005438,-0.132455 -1.696095,0.0097 -0.206211,0.04247 -0.784144,-0.30359 -1.392723,-0.522947 0.90491,0.199094 3.567833,0.149694 3.088818,0.513183 z m 9.0094339,3.033702 c 0,0 -0.8170043,-0.183873 -1.5655864,-0.03331 -0.6069851,0.122086 -1.2243263,0.120495 -1.5474749,0.142902 -0.5659613,0.0393 0.5082721,-0.500615 1.6406383,-0.530546 0.5335903,-0.01409 1.0704856,0.145128 1.472423,0.420949 z"
       sodipodi:nodetypes="ssssccssscssscsssssssssscscsssssscccccsccccccscscccssssccsccccscsssssssssccccssssccscsscscscscccsssccss" /><path
       id="path5"
       style="color:#000000;display:inline;fill:#6c9046;fill-opacity:1;stroke-width:1;-inkscape-stroke:none;paint-order:fill markers stroke"
       inkscape:label="body (outline)"
       d="m 24.600322,7.833328 c -1.693306,1.9222009 -3.355401,3.695433 -5.506772,5.510252 l 0.237565,0.427042 c 2.23756,-1.887522 3.632105,-3.7922838 5.444362,-5.8502105 0.02251,-1.0933355 0.371425,-1.6317856 0.797835,-2.4126885 0.334674,-0.6129037 1.091274,-1.4847441 1.828843,-1.4481478 1.01148,0.050189 1.523205,0.9855579 1.500924,1.5737934 -0.02609,0.6896034 -0.20457,1.598161 -0.686686,2.1189472 -0.456335,0.4929322 -2.009516,0.8937357 -3.16788,0.777368 0.119739,0.099656 0.226748,0.1512131 0.360912,0.2024755 -1.239958,1.9283207 -2.870125,4.8682317 -3.775051,6.4055037 -0.841892,1.43019 -1.597582,2.419868 -2.137481,4.100181 -0.177095,0.680188 -0.379119,1.528935 -0.249867,2.20565 0.0441,-0.445722 0.151614,-0.909598 0.223774,-1.302554 0.133693,0.333934 0.831667,2.069664 1.354653,2.667125 0.58655,0.670076 1.427409,0.938615 1.794081,1.607584 0.305463,0.55729 0.529159,1.586468 0.394939,2.086005 -0.102423,0.381231 -0.450157,0.755782 -0.795149,0.724097 -0.340504,-0.03126 -0.628777,-0.25911 -0.662749,-0.84768 -0.015,-0.260174 0.192716,-1.205587 0.04589,-1.609002 -0.01934,-0.03972 -0.07898,0.283852 -0.100005,0.246569 -0.489645,-0.867662 -1.395628,-1.06043 -2.285221,-1.463832 -0.01783,-0.506071 -0.09836,-1.052783 -0.04937,-1.618523 -0.139255,0.90915 -0.207407,2.695445 -0.492259,3.018724 -0.288373,0.327278 -0.948119,-0.03463 -1.463128,-0.548224 0.05582,-0.15311 0.127417,-0.689029 0.233627,-1.298265 -0.246321,0.684589 -0.964009,2.325138 -1.355236,2.418501 -0.496049,0.118378 -1.084283,-0.189393 -1.501814,-0.418588 0.06542,-0.329771 0.128297,-0.904122 0.390116,-1.308446 0.449339,-0.693906 0.518695,-0.696318 1.07558,-1.51583 0,0 -1.008724,0.876028 -1.285556,1.324113 -0.243573,0.394256 -0.501394,1.161198 -0.520922,1.617779 -0.038,0.888421 0.280476,1.367729 0.27561,2.209341 -0.0021,0.382077 0.101668,0.960928 -0.341007,1.078436 -0.639289,0.169698 -0.978233,-0.889928 -1.051487,-1.492207 -0.07922,-0.651296 -0.09696,-1.554571 0.121396,-2.194419 0.268341,-0.786307 0.469427,-0.906943 0.64186,-1.390256 0.37628,-1.054691 0.836245,-2.710853 0.847018,-3.265647 -0.208428,0.884896 -0.740982,2.373997 -1.091874,3.150517 -0.157346,0.348202 -0.36319,0.689855 -0.516105,1.039398 -0.89724,-0.226935 -1.906497,-0.429553 -2.862967,-0.221017 -1.6464481,0.358966 -3.2073843,1.239234 -4.3957579,2.528327 -0.6141788,0.666233 -0.8933409,1.575951 -1.177011,2.379674 -0.6687781,1.894849 -1.001867,3.566416 -1.225263,5.580031 -0.2075859,1.871124 0.091191,3.865393 -0.067581,5.635206 -0.1007736,1.12327 -0.4806124,2.971455 -0.734144,4.294002 -0.3198112,1.668303 -0.4561725,2.388505 -0.5255328,2.559636 -0.2187448,0.539719 -1.67533712,2.671182 -2.90265334,3.259164 -0.67408616,0.322945 -2.03342556,0.157975 -3.07026606,0.07196 -1.8703315,-0.157045 -3.0460815,-0.137107 -4.7752238,-0.829832 -1.1601854,-0.447232 -2.3375661,-1.460484 -3.4727951,-1.945257 -1.474818,-0.629782 -3.001025,-0.959744 -4.532379,-1.551673 -1.198466,-0.463259 -2.225686,-1.331659 -3.554351,-1.448019 -1.655516,-0.144981 -2.960336,0.938506 -4.483686,0.65884 -2.699268,-0.495549 -2.583451,-2.537927 -2.528236,-2.688663 0.06581,-0.179648 0.53293,-0.42759 0.762268,-0.684801 1.005648,-1.127852 1.714468,-2.761854 2.654628,-3.723063 1.582803,-1.618229 3.665678,-2.729571 6.92549,-3.017871 1.573463,-0.139157 3.218326,0.527321 4.925591,0.371249 2.1434307,-0.161686 4.0778774,-1.160018 5.8364786,-2.439481 0.6800523,0.396709 2.9716777,1.021732 4.3034134,0.189384 1.12566816,-0.733614 1.03926056,-2.201375 1.61790192,-3.358108 C 0.75814568,28.276517 1.8985804,26.611914 2.8313723,24.869394 3.6965078,23.253259 5.1385711,21.841468 5.254798,19.91758 5.3607436,18.163857 3.2608327,15.622035 2.4993973,14.671153 L 2.896877,14.263241 2.3279617,14.040683 c 0,0 -3.27260764,3.136104 -4.5070637,4.930587 -1.3036835,1.895115 -2.8042266,4.499264 -3.5855181,6.732062 -0.8137635,2.31545 -0.9050676,4.461311 -0.4430537,6.895212 -1.6357388,1.217145 -3.4679565,2.332814 -5.9908592,2.563446 -1.572718,0.143772 -3.20568,-0.653037 -4.912942,-0.502045 -2.158889,0.19093 -5.05415,1.383992 -7.161899,3.538916 -1.051787,1.075331 -1.476214,2.530706 -2.444206,3.581709 -0.235293,0.255472 -0.648625,0.2261 -0.802268,0.645524 -0.202974,0.554089 -0.363202,2.805229 2.545638,3.33925 1.64592,0.302164 2.978199,-0.372376 4.535346,-0.236008 1.229367,0.10766 2.642693,0.904487 3.861405,1.375573 1.488504,0.575369 3.155616,0.698103 4.66377,1.342119 1.15029,0.491197 2.4192857,1.672577 3.5735942,2.117538 1.6047156,0.846044 2.8427313,0.51947 4.6204008,0.707491 1.0642169,0.08829 2.2241759,0.360689 3.06156756,-0.04052 1.09842742,-0.566926 2.29768624,-1.942639 2.93197534,-3.028382 1.0350727,-0.645268 1.8144358,-1.309009 2.9957643,-1.606494 0.3531265,-0.05949 0.8438042,0.144262 1.2437899,0.140006 0.4240371,-0.0045 0.6788494,-0.690516 0.7024428,-1.149304 0.046722,-0.908534 -0.720215,-2.413293 -0.7444088,-3.455605 -0.022624,-0.974512 -0.015738,-1.754214 0.039449,-2.763137 0.1036321,-1.894686 0.5218832,-3.733026 0.8905603,-5.642928 0.2408689,-1.247798 0.2946839,-2.548408 0.7249608,-3.653824 0.3347023,-0.859879 1.0209082,-2.115005 1.5800149,-2.86979 0.7715749,-1.04161 2.5104929,-1.879888 3.2278729,-2.195799 -0.209704,0.700629 -0.268526,1.231496 -0.164767,1.980573 0.13732,1.047771 0.398343,2.357989 1.141211,2.221277 0.419276,-0.07716 1.00651,-0.393791 1.056532,-1.553378 -0.0089,-0.61607 -0.262655,-1.09657 -0.323571,-1.786618 0.42376,0.258597 0.883924,0.475368 1.392033,0.325993 0.31318,-0.09207 0.716685,-0.517223 1.072832,-1.304555 0.361042,0.349147 0.9092,0.950592 1.501723,0.771429 0.603207,-0.20473 0.533438,-1.114426 0.561271,-1.681896 0.948876,0.16752 2.105622,1.104977 2.263414,1.537921 0.08164,0.224426 -0.242607,0.738278 -0.13792,1.139607 0.135477,0.519371 0.435867,1.125667 0.902784,1.167209 0.539667,0.04801 1.071935,-0.58624 1.23254,-1.14657 0.197124,-0.687711 -0.197367,-1.51637 -0.510826,-2.088243 -0.451674,-0.824064 -1.357401,-1.182609 -1.87371,-1.772446 -0.581307,-0.664078 -1.325563,-2.031545 -1.495537,-2.819343 0.43328,-1.753372 1.840351,-3.141898 2.651775,-4.695341 1.09016,-2.087062 3.128197,-6.089595 3.404728,-6.263587 0.381045,-0.053046 2.058148,-0.097915 2.762845,-0.8591469 0.565579,-0.6109469 1.131001,-1.8622096 0.803444,-2.7455035 -0.308961,-0.8331521 -0.785147,-1.3639621 -1.229591,-1.387249 -1.442899,-0.075598 -2.096083,0.72357 -2.511843,1.2428808 -0.540207,0.6747355 -0.700416,1.3209565 -0.83334,2.7440269 z M 2.2527168,14.872809 c 0.9975635,1.253276 2.5299904,3.661688 2.4427361,5.106007 -0.1005357,1.664154 -1.2570683,3.165417 -2.0290864,4.66836 -0.894777,1.741928 -2.09749822,3.314443 -3.00461628,5.016919 -0.51016716,0.957482 -0.83505702,2.940718 -1.77803152,3.530087 -0.4783594,0.298979 -2.114342,0.307816 -3.6302751,-0.495477 -0.5225087,-1.434419 -0.2327557,-4.566169 0.6722952,-7.152648 0.7585489,-2.167804 1.6704236,-4.010523 2.96249,-5.888752 1.1102544,-1.613938 4.0746636,-4.483763 4.364488,-4.784496 z M 12.878674,24.570045 C 11.53834,25.274427 9.918575,26.343639 9.3703882,27.083681 8.8052337,27.84663 8.1751,28.7574 7.8118117,29.690716 c -0.4682892,1.203072 -0.4375359,2.540705 -0.670055,3.745254 -0.3630733,1.880868 -0.8787144,3.719534 -0.9865413,5.690895 -0.058739,1.073905 -0.054802,2.128224 0.068355,3.180114 0.1173154,1.001993 0.5645596,1.902968 0.6350563,2.950905 0.015247,0.226601 -0.1490421,0.601536 -0.3726558,0.748964 -0.3508773,0.231335 -0.7320616,-0.06169 -1.2319883,0.02251 C 4.2926335,46.256841 3.3839351,46.739851 2.55485,47.299039 2.7028692,46.929737 2.9864697,45.495134 3.2044571,44.357986 3.4600848,43.024522 3.8143095,41.650093 3.91812,40.492976 4.0860836,38.620772 3.5937712,36.843575 3.7892424,35.081693 c 0.219065,-1.974584 0.5075155,-3.62293 1.162952,-5.479976 0.2876919,-0.81512 0.6875014,-2.026048 1.2037342,-2.586033 1.1211457,-1.216167 2.7896646,-2.437856 4.3640364,-2.666838 1.399342,-0.203525 2.236151,0.141196 2.358709,0.221178 z m -34.703093,19.540227 c 0.10902,-0.028 0.905149,-0.343666 1.374916,-0.33604 0.671307,0.01087 1.574429,0.455074 1.997757,0.601863 0.173282,0.06009 -1.31776,-0.926848 -2.056036,-0.895245 -0.502402,0.02148 -1.603751,0.703081 -1.316637,0.629422 z m 6.409754,1.222241 c -0.440458,-0.07253 0.633472,0.267106 1.052113,0.366699 0.584176,0.138972 1.342666,-0.05131 1.922405,0.107978 0.256794,0.07056 2.023178,1.330068 1.577862,0.902839 -0.278012,-0.266727 -1.232063,-1.047041 -1.587603,-1.185375 -0.519025,-0.201932 -1.09706,0.09332 -1.647096,0.05028 -0.457181,-0.03574 -0.850608,-0.165508 -1.317681,-0.242425 z m 9.3135025,3.630696 c 0.5813173,-0.128276 1.1650496,-0.31488 1.7558355,-0.256341 0.698553,0.06921 1.3919843,0.598211 2.0423512,0.501784 0.3700192,-0.05486 0.6700429,-0.433554 0.9502436,-0.643186 0.3119163,-0.233355 -0.6186062,0.413113 -1.0378155,0.377336 -0.5816288,-0.04962 -1.3920645,-0.559405 -1.9753177,-0.57496 -0.6065517,-0.01617 -1.9515606,0.643095 -1.7352971,0.595367 z"
       sodipodi:nodetypes="ccccssssccscccsssssccccsccscscssssssscscssssssssccssssssssccccsscccsccsssssssssccccccssssssccsccsccccssssscscssssccsssscssccsssssssccssssssccccsscssssscssssssss" /><g
       id="g18"
       inkscape:label="Hat"
       inkscape:groupmode="layer"><g
         id="g19"
         inkscape:label="strap"
         inkscape:groupmode="layer"
         style="display:inline"><path
           style="fill:#786553;fill-opacity:1;stroke:none;stroke-width:1;stroke-opacity:1;-inkscape-stroke:none;paint-order:fill markers stroke"
           d="m 8.3428568,14.736617 c -0.2010478,1.375756 -0.7509293,6.845505 1.2002406,9.616181 0.4559267,0.531354 1.3928476,0.632128 2.3169466,0.97333 l -0.75002,0.593726 C 9.9536121,25.638759 9.1815128,25.393124 8.667488,24.866231 6.7778779,21.557244 6.6761778,18.32823 7.2227748,14.739006 Z"
           id="path21"
           inkscape:label="fill"
           sodipodi:nodetypes="ccccccc" /><path
           style="display:inline;fill:#41382e;fill-opacity:0.114491;stroke:none;stroke-width:1;stroke-opacity:1;-inkscape-stroke:none;paint-order:fill markers stroke"
           d="m 8.2401159,14.767381 c -0.4511895,1.392256 -1.11128,6.2733 0.9747894,9.606463 0.455926,0.531353 1.3724497,0.750028 2.3212407,1.020023 l -0.244257,0.157076 c -0.168423,0.03882 -0.874062,-0.0827 -1.281566,-0.202421 0.253063,0.121699 0.881184,0.307883 1.128665,0.306438 l -0.166695,0.139879 C 9.7992093,25.474909 9.1879008,25.165387 8.6738763,24.638494 8.2101008,23.319655 8.0304614,22.586994 7.8024215,21.406796 c -0.017794,-0.0921 -0.058511,-0.542259 -0.065784,-0.636004 -0.075885,-0.978077 -0.2056171,-1.989338 -0.1695094,-3.070063 0.00331,-0.0996 -0.4094557,-0.36117 -0.4050448,-0.461858 0.034562,-0.788856 -0.065704,-1.669921 0.06069,-2.499865 z"
           id="path31"
           inkscape:label="shadow"
           sodipodi:nodetypes="ccccccccsssscc" /><path
           id="path11"
           style="color:#000000;fill:#615144;fill-opacity:1;stroke-width:1;-inkscape-stroke:none;paint-order:fill markers stroke"
           inkscape:label="outline"
           d="m 8.3290782,14.680473 c -0.4473245,1.792589 -0.644916,4.057232 -0.2866229,6.025639 0.3028022,1.663546 0.7266685,2.839399 1.2442831,3.635336 0.3055284,0.469812 1.5007346,0.856353 2.3809366,1.011008 -0.0439,0.02255 -0.185693,0.112297 -0.287495,0.181412 -0.332679,0.04276 -0.987789,-0.10504 -1.117569,-0.151056 0.05441,0.04597 0.803209,0.27888 0.912286,0.294512 -0.09072,0.06528 -0.166692,0.122911 -0.195761,0.15037 C 10.183074,25.559645 9.2465222,25.480943 8.6806697,24.768416 8.394958,24.287556 7.8693333,22.57084 7.4830262,20.726788 7.0713016,18.761399 6.8299078,16.355399 7.3015001,14.845215 l -0.2972404,-0.05901 c -0.5214127,1.669728 -0.3778864,4.023484 0.045968,6.046774 0.3981105,1.900397 1.0736095,3.450287 1.3955365,4.053426 0.2615245,0.489973 1.0860946,0.804228 2.6088398,1.090923 0.197488,-0.140661 0.295079,-0.190885 0.417067,-0.278393 l 0.10532,6.3e-5 c 0.08207,-0.132743 0.674585,-0.520429 0.855034,-0.648813 l -0.595574,0.06305 C 11.367932,25.10878 9.9282553,24.744739 9.6635882,24.337759 9.2044443,23.631729 8.7694868,22.215243 8.4778556,20.613069 8.1317094,18.711391 8.1191416,16.41196 8.5407612,14.722381 Z m -0.6378566,0.457978 c -0.1547334,1.170379 -0.1839538,2.319018 -0.1787829,3.461699 0,0 -0.1947912,-1.231335 -0.1576361,-1.848972 0.033084,-0.549971 0.336419,-1.612727 0.336419,-1.612727 z"
           sodipodi:nodetypes="cssccccccsccsscccccssccccac" /></g><path
         style="display:inline;fill:#967e5f;fill-opacity:1;stroke:none;stroke-width:1;stroke-opacity:1;-inkscape-stroke:none;paint-order:fill markers stroke"
         d="M 17.27192,7.332821 C 17.274485,6.7262559 17.439221,5.1681828 17.198042,4.0877013 15.521127,2.8354799 13.807416,1.3594022 11.018494,0.4786925 8.7297359,0.68231044 7.6164657,1.6156627 6.9142579,2.8265486 L 5.931113,2.5210015 C 3.3849535,4.7515489 3.9028787,7.5519169 4.1037155,8.91379 0.50736638,9.4748787 -0.75684254,10.600816 -0.61308744,12.356139 1.8907296,14.90082 6.4729085,14.731843 7.6490179,14.820501 9.5526671,14.337077 11.21695,14.189599 12.627814,14.397792 c 2.415611,1.204516 5.930517,0.604465 7.73184,-0.328423 0.858725,-2.866503 0.06178,-5.087527 -3.087734,-6.736548 z"
         id="path20"
         inkscape:label="fill"
         sodipodi:nodetypes="ccccccccccc" /><path
         id="path66"
         style="display:inline;fill:#3c3226;fill-opacity:0.108973;stroke:none;stroke-width:1;stroke-opacity:1;-inkscape-stroke:none;paint-order:fill markers stroke"
         inkscape:label="shadow"
         d="m 7.7870527,2.4615999 c -0.02256,0.1867544 2.2420003,-1.1918217 4.5049573,0.5246429 1.183959,0.8980407 -1.06643,0.4039744 -0.339864,0.8188753 0.276243,0.1577468 0.994261,0.3070736 1.141338,0.4917969 1.346883,1.6916312 0.781067,1.6135763 0.520575,1.7767974 C 13.134727,6.3740577 10.561857,4.8926642 9.2206727,5.3855036 6.9444765,6.2219276 8.948607,8.4148959 8.2190479,8.8525397 8.0378092,8.9612602 4.2214904,7.9395388 4.2398586,8.1424 c 2.421786,1.1350075 4.741632,1.300866 7.3349164,1.6903784 2.135657,-0.00665 3.712614,0.1405232 5.081849,-1.3461608 0.07271,-0.2199785 0.160961,-0.4398126 0.225704,-0.6648059 0.02452,-0.085258 -0.353238,0.1334138 -0.337587,0.046386 0.01774,-0.098418 0.427276,-0.5028289 0.427815,-0.6042988 0.0031,-0.6065632 0.113617,-1.3496164 -0.127738,-2.4300942 C 15.6569,3.9467386 14.498048,2.8637604 12.874525,2.0180628 12.206208,1.6699351 11.500154,1.0392179 10.655924,0.96371724 9.2552802,0.838455 7.834819,2.0661365 7.7870527,2.4615999 Z m 9.5654523,5.2229479 -0.04173,1.3533349 c 0.620731,0.033989 1.456489,0.2034284 2.166666,0.3953964 C 18.934615,8.5851223 17.352475,7.6845478 17.352475,7.6845478 Z M 4.0288917,9.4239373 C 3.6382376,9.4187173 7.2276439,11.046379 4.7207497,10.486976 4.4411945,10.424596 2.4100327,9.7091426 2.1564107,9.7485762 0.21656338,10.050194 -0.53344744,10.850172 -0.20741758,12.15914 c 0.1634231,0.656122 1.94755908,1.561508 3.87459468,1.994087 1.4958762,0.335793 3.1071093,0.296874 3.9263976,0.208867 C 9.2397497,14.151085 10.364705,13.860307 11.67238,13.887402 9.3276202,12.183267 7.0668671,9.4645403 4.0288917,9.4239373 Z M 19.690874,11.563718 c -0.246003,0.251465 -1.232635,-1.384432 -2.361898,-1.478289 -1.046902,0.933399 -2.445861,1.468892 -3.730198,1.748044 L 9.6494022,11.518422 c 1.1724208,0.81187 1.9725538,2.198961 3.2607028,2.803389 2.878854,0.708445 5.374468,0.27814 6.949691,-0.412631 0.31602,-0.182103 0.840923,-2.12704 0.145681,-3.422321 0.09929,0.3047 -0.01547,0.771109 -0.314603,1.076859 z M 5.2690165,4.7439729 C 5.2421577,4.5728634 5.8966668,3.5213054 6.2309671,3.5139234 6.7023276,3.5035112 7.3841364,3.6321591 7.7947338,4.1515309 8.051519,4.476343 6.8385019,3.8862037 6.3174348,4.0730468 5.8715575,4.2329285 5.3365871,5.1744301 5.2690165,4.7439729 Z"
         sodipodi:nodetypes="ssssssscccssccsssccccsssssccssccccccssssss" /><path
         style="color:#000000;fill:#7d694f;stroke-width:1;-inkscape-stroke:none;paint-order:fill markers stroke"
         d="m 10.631451,0.33396019 c -0.10652,0.003952 -0.220002,0.0146903 -0.343534,0.0325752 C 8.9345368,0.56246656 7.7497081,1.4897792 6.8420226,2.533853 6.5177208,2.4641262 6.1417551,2.2952839 5.8185354,2.3689922 4.9087357,2.5764646 3.9395407,4.6781876 3.7187797,6.1088323 3.6386908,6.7116984 3.7492514,7.5855225 3.9130679,8.1765557 4.0255794,8.177252 4.0873385,8.177424 4.2325057,8.1782656 4.2223281,8.0278619 4.0834309,7.8543867 4.0770433,7.6783323 4.0579102,7.1510852 4.1077451,6.5523467 4.1575466,6.1774586 4.3509254,5.057398 5.2651907,2.9052115 5.9429125,2.6914995 c 0.11973,-0.037751 3.1342598,0.981957 3.6113502,1.1871031 1.7031773,0.7323563 3.1453063,1.9107327 5.0132523,1.9634161 0.639228,0.018029 1.636731,-0.2195676 1.875986,-0.8628528 0.19802,-0.5324041 -1.29002,-1.7468322 -1.79489,-2.2037022 0.29126,0.4566382 1.739494,1.7122689 1.597535,2.128607 -0.284035,0.465595 -1.197826,0.6258049 -1.649489,0.628616 C 12.798033,5.324756 10.832012,4.1323414 9.2265632,3.269393 8.4371874,2.923935 7.9189105,2.8743684 7.1132679,2.5763794 7.8985437,1.5847993 9.1339367,0.9062242 10.2987,0.69924692 c 0.788218,-0.14006398 1.851344,0.30127448 2.63835,0.61568168 1.040224,0.4155662 1.718017,1.2021918 2.648676,1.9313391 0.458696,0.3593822 1.141166,0.5876934 1.395472,0.9481394 0.07108,0.1007428 0.177291,0.2555526 0.16081,0.3760426 0.01456,0.7493937 0.04914,1.9105268 -0.0713,2.844618 -0.03913,0.3031067 -0.35979,0.9065425 -0.325162,1.1203757 l 0.574283,-0.4921798 c 0.04313,-0.1565946 0.07992,-0.1753657 0.13678,-0.4885358 0.481024,0.246981 1.659922,1.1417854 1.931379,1.7066083 0.05701,0.059458 -0.745096,-0.577957 -1.785316,-0.4931668 1.172589,0.2348586 1.933095,0.7339037 2.050178,0.871977 0.382085,0.4505917 0.425663,0.5354567 0.592338,0.9654497 0.397565,1.02572 0.171174,3.19389 -0.196442,3.391221 -1.399119,0.751063 -3.235971,0.822062 -3.935147,0.803418 -1.061071,-0.0283 -2.586844,-0.383588 -3.204603,-0.617101 l 0.198197,0.420983 c 0.883808,0.358015 1.899412,0.642993 2.996076,0.677282 0.741752,0.01979 2.348073,0.147661 3.888334,-0.635822 1.214716,-0.617884 1.112372,-2.966227 0.684308,-4.070558 C 20.142303,9.1983474 18.371352,7.6841023 17.456535,7.2308355 17.500594,6.8671525 17.364094,5.6302411 17.505277,4.5978784 17.539532,4.347438 17.459147,4.0796641 17.33397,3.9022382 16.996737,3.424235 15.870571,3.0616449 15.472415,2.7497009 14.540862,2.0198374 13.988071,1.4884385 12.872168,1.0426386 11.779533,0.60613318 11.376921,0.30627353 10.631283,0.33395877 Z"
         id="path10"
         sodipodi:nodetypes="cccscccscsssscccccsssscsccccccccscccscccssscc"
         inkscape:label="main outline" /><g
         id="g66"
         inkscape:label="band"
         inkscape:groupmode="layer"><path
           style="font-variation-settings:normal;display:inline;opacity:1;vector-effect:none;fill:#867c61;fill-opacity:1;stroke:none;stroke-width:1;stroke-linecap:butt;stroke-linejoin:miter;stroke-miterlimit:4;stroke-dasharray:none;stroke-dashoffset:0;stroke-opacity:1;-inkscape-stroke:none;paint-order:fill markers stroke"
           d="m 9.2679267,11.384761 c 0.8668073,0.159418 3.6079873,0.70991 5.9724353,0.0569 0.715937,-0.197725 1.9972,-1.208922 1.9972,-1.208922 C 17.124154,9.6257649 17.124888,8.9583828 17.2116,8.2455035 16.711182,8.7053164 16.017082,9.3649079 14.624113,9.5991025 12.101432,10.023228 9.4757767,9.5535426 6.9643942,9.0569208 6.1381872,8.8935407 4.5393602,8.3044378 3.9828419,8.0943807 c 0.015199,0.3420184 -0.026924,0.5930766 -0.044904,0.8405724 2.4183706,0.053359 3.7328493,1.4196899 5.3300045,2.4498099 z"
           id="path65"
           sodipodi:nodetypes="csccssccc"
           inkscape:label="fill" /><path
           style="font-variation-settings:normal;display:inline;opacity:1;vector-effect:none;fill:#403a2d;fill-opacity:0.0595169;stroke:none;stroke-width:1;stroke-linecap:butt;stroke-linejoin:miter;stroke-miterlimit:4;stroke-dasharray:none;stroke-dashoffset:0;stroke-opacity:1;-inkscape-stroke:none;paint-order:fill markers stroke"
           d="m 9.2976447,11.453337 c 0.8668083,0.159419 3.6079883,0.709911 5.9724373,0.0569 0.715936,-0.197724 1.640975,-1.076192 1.640975,-1.076192 -0.06205,-0.332119 -0.04265,-0.5229447 -0.04312,-0.7251153 -0.350025,0.2363329 -0.74676,0.5150873 -1.235219,0.6669523 0.352087,-0.179178 1.193039,-0.8439263 1.197152,-0.8929592 0.0097,-0.1158947 0.02556,-0.253795 0.04733,-0.432477 -0.500427,0.459811 -0.744704,0.8013696 -2.143636,0.9892612 -2.298688,0.308737 -3.427417,0.300885 -6.0675347,-0.1730333 0.015956,0.103473 1.3479077,0.4213413 1.2163909,0.4954873 -0.1838619,0.103658 -1.3556197,0.0049 -1.6741715,0.04215 l 2.9972433,0.444598 1.90402,-0.08585 c -0.333561,0.08629 -0.586079,0.186018 -1.272523,0.213814 l 1.215185,0.151174 c -1.082426,0.0086 -2.914949,-0.124296 -4.0966622,-0.335855 0.5905866,0.208982 0.9625289,0.486376 0.3421915,0.661151 z"
           id="path67"
           sodipodi:nodetypes="cscccscscsccccccc"
           inkscape:label="shadow" /><path
           id="path62"
           style="color:#000000;fill:#716951;fill-opacity:1;stroke-width:1;-inkscape-stroke:none;paint-order:fill markers stroke"
           inkscape:label="outline"
           d="m 17.428264,7.9622599 c -0.07879,-0.1230868 -0.288112,0.032754 -0.360359,0.099569 -0.503067,0.46224 -1.594943,1.1785411 -2.93654,1.4040977 C 11.656298,9.8820469 9.60479,9.472291 7.0934177,8.9916075 6.107306,8.8028665 4.3727563,8.2204427 3.7790742,7.7852926 c -0.053573,0.1484249 0.066753,0.3972868 0.012891,1.1383209 l 0.2867219,0.035965 c -0.03175,-0.1938031 -0.07591,-0.5705148 -0.065243,-0.7597308 0.6489061,0.3772019 2.1374194,0.9078758 2.9265935,1.0639336 2.5139448,0.4971263 5.1481324,1.0054957 7.7184234,0.5733659 1.185225,-0.1992665 1.844444,-0.6000159 2.340058,-1.0301408 -0.0088,0.1391039 -0.03579,0.5560368 -0.04726,0.6895065 -0.243929,0.203778 -0.771876,0.7480031 -2.03104,1.1121211 1.419522,-0.258405 2.036109,-0.8926546 2.036109,-0.8926546 0,0 -0.01365,0.3218586 0.0061,0.4509916 -0.578746,0.615932 -1.615597,1.032874 -2.010467,1.141927 -2.295716,0.634026 -4.840607,0.09652 -5.7144147,-0.06418 l 0.057098,0.277385 c 0.8598057,0.15813 3.5672967,0.82438 6.0004837,0.152388 0.712164,-0.196682 2.144689,-1.132646 2.188286,-1.338299 -0.07494,-0.332491 -0.165239,-0.5999197 -0.18236,-0.8824433 -0.0026,-0.043033 0.04396,-0.1107392 0.04242,-0.1534236 -0.01483,-0.4230334 0.0233,-0.8342513 0.0848,-1.3380577 z M 7.7458505,10.312664 c 0,0 2.1375249,0.247644 3.0161195,0.386185 0.875797,0.1381 2.989259,-0.04813 2.991193,-0.06572 -9e-6,1.82e-4 -1.191992,0.340448 -2.190813,0.220457 0.5166,0.09862 0.644379,0.128774 1.136819,0.228649 -0.591623,0.02751 -1.85657,-0.212057 -2.027424,-0.22122 -1.0061956,-0.05397 -2.9258945,-0.548354 -2.9258945,-0.548354 z"
           sodipodi:nodetypes="ccssccccsscccccsccsccccccscccsc" /></g><path
         id="path64"
         style="color:#000000;display:inline;fill:#7d694f;stroke-width:1;-inkscape-stroke:none;paint-order:fill markers stroke"
         d="m 3.919117,8.7583002 c -1.1277212,0.072178 -5.3497202,0.9412184 -4.69060154,3.8221478 1.32556262,1.189476 3.07475754,1.75516 4.83196254,2.189448 1.1658722,0.265378 2.341589,0.280531 3.5291958,0.238215 1.4261285,-0.05822 4.3516172,-0.507609 6.0144072,-0.342381 -0.64098,-0.416413 -1.147015,-0.884863 -1.67606,-1.292059 -0.935018,-0.719665 -1.72259,-1.44901 -2.6422505,-2.2817 C 7.7277249,9.6812661 6.190547,8.6129313 3.919117,8.7583002 Z M 4.1488282,9.1278084 C 5.7744744,9.128178 7.2154966,10.145747 8.5131067,11.103658 9.5762949,11.89486 11.119312,13.324625 12.107706,14.017453 10.38799,13.828693 8.7687504,14.44737 7.2518769,14.5093 6.1013803,14.556269 4.6835082,14.593577 3.5801733,14.31634 1.9689063,13.911473 0.97427041,13.379768 -0.37402188,12.301452 -1.0117403,10.000628 2.8813518,9.1275215 4.1488282,9.1278084 Z"
         sodipodi:nodetypes="sccccssssscsscs"
         inkscape:label="borderR" /><g
         id="g62"
         inkscape:label="holes"
         transform="matrix(0.44407376,0,0,0.48118574,-30.101053,-7.7439968)"
         style="stroke-width:2.16329"><ellipse
           style="font-variation-settings:normal;opacity:1;fill:#473a2c;fill-opacity:1;stroke:#a99378;stroke-width:0.572372;stroke-linecap:butt;stroke-linejoin:miter;stroke-miterlimit:4;stroke-dasharray:none;stroke-dashoffset:0;stroke-opacity:1;paint-order:fill markers stroke"
           id="path61"
           cx="81.01104"
           cy="28.809677"
           rx="0.56669593"
           ry="1.1634724" /><ellipse
           style="font-variation-settings:normal;opacity:1;fill:#473a2c;fill-opacity:1;stroke:#a99378;stroke-width:0.572372;stroke-linecap:butt;stroke-linejoin:miter;stroke-miterlimit:4;stroke-dasharray:none;stroke-dashoffset:0;stroke-opacity:1;paint-order:fill markers stroke"
           id="ellipse61"
           cx="83.390472"
           cy="29.580006"
           rx="0.60819346"
           ry="1.2486701" /><ellipse
           style="font-variation-settings:normal;opacity:1;fill:#473a2c;fill-opacity:1;stroke:#a99378;stroke-width:0.572372;stroke-linecap:butt;stroke-linejoin:miter;stroke-miterlimit:4;stroke-dasharray:none;stroke-dashoffset:0;stroke-opacity:1;paint-order:fill markers stroke"
           id="ellipse62"
           cx="85.738708"
           cy="30.363918"
           rx="0.67028809"
           ry="1.3761554" /></g></g><g
       id="g28"
       inkscape:label="Eye L"
       style="display:inline;stroke-width:1.29185"
       transform="matrix(0.72802042,0,0,0.82305035,34.868317,4.6457068)"
       inkscape:groupmode="layer"><ellipse
         style="display:inline;fill:#2c473f;fill-opacity:1;stroke:none;stroke-width:1.29184;stroke-opacity:1;-inkscape-stroke:none;paint-order:fill markers stroke"
         id="ellipse26"
         inkscape:label="fill"
         ry="2.0581369"
         rx="1.8326232"
         cy="1.3982273"
         cx="-9.8692789" /><path
         id="path26"
         style="display:inline;fill:#16241f;fill-opacity:0.158085;stroke:none;stroke-width:1.29184;stroke-opacity:1;-inkscape-stroke:none;paint-order:fill markers stroke"
         inkscape:label="shadow"
         d="m -8.6839642,0.36047329 c 0.08007,0.83199961 -0.492818,1.74438511 -1.5127838,1.74435341 -0.424799,-0.00104 -0.907152,-0.118041 -1.194383,-0.4575802 0.08053,0.8393224 0.854557,1.3952217 1.5869659,1.479247 0.8507439,0.0976 1.5644458,-0.8147904 1.5644588,-1.7260996 -4.8e-5,-0.41333142 -0.186525,-0.73551376 -0.4442579,-1.03992061 z"
         sodipodi:nodetypes="cccscc" /><path
         style="color:#000000;display:inline;fill:#263e36;fill-opacity:1;stroke-width:1.29185;-inkscape-stroke:none;paint-order:fill markers stroke"
         d="m -9.8466881,-0.7375511 c -1.1800759,0 -2.0308149,0.7706825 -2.0308149,2.0876067 0,1.3169242 0.763811,2.2323753 1.9438779,2.2323753 1.1800749,0 2.0150158,-0.8247236 2.0150158,-2.1416479 0,-1.31692595 -0.7480079,-2.1783341 -1.9280788,-2.1783341 z m 0.04383,0.3320026 c 0.8524309,0.0722375 1.6006558,0.82725415 1.6006648,1.7836834 0,0.9564278 -0.7815229,1.8862212 -1.6135898,1.8233386 -0.8422269,-0.063651 -1.6594299,-0.9752487 -1.7101779,-1.9300267 -0.05176,-0.97370467 0.881381,-1.74832684 1.7231029,-1.6769953 z"
         id="path27"
         sodipodi:nodetypes="ssssssssss"
         inkscape:label="outline" /><ellipse
         style="fill:#ffffff;fill-opacity:1;stroke:none;stroke-width:1.29184;stroke-opacity:1;-inkscape-stroke:none;paint-order:fill markers stroke"
         id="ellipse27"
         cx="-10.469772"
         cy="0.39876094"
         rx="0.5154869"
         ry="0.48171112"
         inkscape:label="fx big" /><ellipse
         style="fill:#ffffff;fill-opacity:1;stroke:none;stroke-width:1.29184;stroke-opacity:1;-inkscape-stroke:none;paint-order:fill markers stroke"
         id="ellipse28"
         cx="-11.041824"
         cy="0.98404026"
         rx="0.16311887"
         ry="0.16570985"
         inkscape:label="fx small" /><path
         id="path28"
         style="fill:#ffffff;stroke-width:1.29184;paint-order:fill markers stroke"
         d="m -8.7606062,2.4927715 c -0.01261,0.050189 -0.06213,0.2198619 -0.287534,0.3806218 -0.2355079,0.1679637 -0.3810319,0.1280606 -0.3972999,0.070632 -0.04437,-0.156572 0.1983279,-0.1312887 0.3399479,-0.2105931 0.199537,-0.1117424 0.365237,-0.3211737 0.344886,-0.2406607 z"
         sodipodi:nodetypes="sssss"
         inkscape:label="fix long" /></g><g
       id="g17"
       inkscape:label="Antenna R"
       inkscape:groupmode="layer"
       style="display:inline"><path
         style="display:inline;fill:#93b86b;fill-opacity:1;stroke:none;stroke-width:1;stroke-opacity:1;-inkscape-stroke:none;paint-order:fill markers stroke"
         d="m 15.850019,17.848757 c 0.462374,-0.397325 0.807478,-0.61146 0.656855,-1.709246 0,0 -0.494819,-0.620077 -1.074427,-1.138868 C 14.560206,13.350761 14.516586,8.6979096 14.526548,8.2404707 15.190061,7.7427896 16.891615,7.1925615 17.159442,6.1046309 17.782646,2.7679803 15.77409,2.6834912 14.704161,2.7361054 c -1.456006,0.071599 -2.146247,1.1581338 -2.289999,2.6122937 -0.03919,0.4226842 0.125923,2.0700154 0.430104,2.4441217 0.617999,2.5804762 0.367695,4.7274162 -0.05435,7.5072792 -0.209457,0.485112 -0.537457,0.945401 -0.997193,1.3781 0.168944,0.988341 0.654714,1.323267 1.114024,1.460321 1.100511,0.187441 2.059882,0.03931 2.943266,-0.289464 z"
         id="path17"
         inkscape:label="fill"
         sodipodi:nodetypes="cccccscccccc" /><path
         style="font-variation-settings:normal;display:inline;opacity:1;vector-effect:none;fill:#242e17;fill-opacity:0.10199;stroke:none;stroke-width:1;stroke-linecap:butt;stroke-linejoin:miter;stroke-miterlimit:4;stroke-dasharray:none;stroke-dashoffset:0;stroke-opacity:1;-inkscape-stroke:none;paint-order:fill markers stroke;stop-color:#000000;stop-opacity:1"
         d="m 15.862419,17.824087 c 0.381475,-0.179026 0.474038,-1.004086 0.411459,-1.302136 -0.09453,-0.45027 -0.545762,-0.78096 -0.813706,-1.060855 0,0 -0.05102,0.230207 0.02421,0.811768 -0.791494,-2.240075 -1.574834,-5.654851 -1.157099,-7.8447647 -0.167611,-0.069603 -0.467118,-0.09225 -0.364444,-0.1485864 0.719939,-0.3950174 2.749013,-1.1098678 2.947299,-2.215152 0.457284,-2.5489698 -0.891474,-3.1975024 -2.073971,-3.1453404 -0.970718,0.042823 -1.517935,0.5579427 -1.816921,1.3274323 -0.0817,0.2102543 -0.24419,1.0059653 0.02248,1.9823951 0.04458,0.1632662 0.175587,0.4987084 0.115263,0.5374624 -0.09098,0.058447 -0.269724,-0.4689793 -0.286396,-0.2979495 -0.04118,0.4224636 0.241291,1.0418635 0.614362,1.3337137 0.32995,0.2581173 0.268199,5.2447345 0.229133,8.2033155 -0.02132,1.614576 -0.242244,0.848224 -0.675371,1.045602 -0.833881,0.380006 -0.37774,0.879239 0.40651,0.999875 0.83959,0.129149 2.164823,-0.108357 2.41716,-0.22678 z"
         id="path30"
         inkscape:label="shadow"
         sodipodi:nodetypes="sscccssssssssssss" /><path
         style="color:#000000;fill:#6c9046;fill-opacity:1;stroke-width:1;-inkscape-stroke:none;paint-order:fill markers stroke"
         d="m 14.502623,2.6439577 c -1.767447,0.2652449 -2.372783,1.5047624 -2.44398,2.8464292 -0.03139,0.7247842 0.173371,1.7909183 0.706348,2.4767539 0.01339,0.1222241 0.324261,1.8703579 0.297748,3.2609792 -0.02757,1.446271 -0.351125,3.560897 -0.686227,4.470652 -0.115678,0.314066 -0.709741,0.523378 -0.769323,1.077969 -0.03062,0.284951 -0.01208,1.247005 1.588084,1.441677 -0.99664,-0.31529 -1.112487,-0.72509 -1.146612,-1.386228 0.03214,-0.299203 0.562324,-0.470578 0.740701,-0.954853 0.406209,-1.102806 0.556024,-2.980488 0.583372,-4.414785 0.0197,-1.032924 0.09464,-1.362486 -0.08978,-3.6145595 -0.440048,-0.4901645 -0.754981,-1.3840043 -0.727413,-2.0206396 0.04714,-1.0886243 0.05893,-2.7900396 2.292064,-3.0277533 1.727789,-0.1839202 2.37737,1.4489499 2.235369,2.8450247 -0.09076,0.8923583 -1.370887,2.1559113 -3.096246,2.6719407 0.09266,0.086902 0.197948,0.082846 0.349313,0.1830033 -0.05221,0.6547106 -0.119049,1.9328487 0.08408,2.9342407 0.191533,0.944185 0.685095,3.958979 1.081468,4.8897 0.03152,-0.28186 -0.03873,-0.740297 -0.01222,-0.826856 0.359617,0.319964 0.891719,0.534422 0.888837,0.980402 -0.0058,0.894133 -0.13036,1.15133 -0.816785,1.429348 0.794765,0.0088 1.180666,-0.943827 1.170906,-1.488597 0.0065,-0.876997 -0.899657,-0.987523 -1.156795,-1.591293 -0.352077,-0.826703 -0.642716,-2.305431 -0.834666,-3.251652 -0.253447,-1.249406 0.149036,-3.0221047 0.145645,-3.2386699 0.467334,-0.3633316 2.27634,-1.0755222 2.422224,-2.4406877 0.266918,-2.497709 -0.986299,-3.5246453 -2.806082,-3.2515457 z"
         id="path6"
         inkscape:label="outline"
         sodipodi:nodetypes="sscssscssscsssccsccsccsscss" /><g
         id="g22"
         inkscape:label="Eye"
         transform="translate(-0.18221369,0.06951688)"
         inkscape:groupmode="layer"><ellipse
           style="display:inline;fill:#2c473f;fill-opacity:1;stroke:none;stroke-width:0.99999;stroke-opacity:1;-inkscape-stroke:none;paint-order:fill markers stroke"
           id="path22"
           inkscape:label="fill"
           ry="1.9913605"
           rx="1.8326232"
           cy="4.8677106"
           cx="15.178934" /><path
           id="ellipse23"
           style="display:inline;fill:#16241f;fill-opacity:0.158085;stroke:none;stroke-width:0.99999;stroke-opacity:1;-inkscape-stroke:none;paint-order:fill markers stroke"
           inkscape:label="shadow"
           d="m 16.364158,3.8636177 c 0.08008,0.8050046 -0.492814,1.6877884 -1.512784,1.6877572 -0.424791,-0.00101 -0.907145,-0.1142117 -1.194367,-0.4427332 0.08052,0.8120898 0.854545,1.3499539 1.586959,1.4312517 0.850744,0.094433 1.564436,-0.7883539 1.56445,-1.6700961 C 16.808373,4.4698766 16.6219,4.1581482 16.364158,3.8636177 Z"
           sodipodi:nodetypes="cccscc" /><path
           style="color:#000000;display:inline;fill:#263e36;fill-opacity:1;stroke-width:1;-inkscape-stroke:none;paint-order:fill markers stroke"
           d="m 15.201439,2.8012179 c -1.18007,0 -2.0308,0.7456783 -2.0308,2.0198745 0,1.2741979 0.763805,2.1599463 1.943864,2.1599463 1.180074,0 2.015015,-0.7979664 2.015015,-2.0721631 0,-1.274197 -0.748004,-2.1076577 -1.928079,-2.1076577 z m 0.04383,0.3212312 c 0.852422,0.069893 1.600647,0.8004135 1.600656,1.7258117 0,0.9253967 -0.781519,1.8250224 -1.613585,1.7641801 C 14.390116,6.5508552 13.572917,5.6688341 13.522166,4.7450333 13.470403,3.802921 14.403545,3.0534321 15.245267,3.1224491 Z"
           id="ellipse22"
           sodipodi:nodetypes="ssssssssss"
           inkscape:label="outline" /><ellipse
           style="fill:#ffffff;fill-opacity:1;stroke:none;stroke-width:0.99999;stroke-opacity:1;-inkscape-stroke:none;paint-order:fill markers stroke"
           id="path24"
           cx="14.164109"
           cy="4.2497883"
           rx="0.47417939"
           ry="0.46608198"
           inkscape:label="fx big" /><ellipse
           style="fill:#ffffff;fill-opacity:1;stroke:none;stroke-width:0.99999;stroke-opacity:1;-inkscape-stroke:none;paint-order:fill markers stroke"
           id="ellipse24"
           cx="14.765162"
           cy="3.5285404"
           rx="0.16311887"
           ry="0.1603334"
           inkscape:label="fx small" /><path
           id="ellipse25"
           style="fill:#ffffff;stroke-width:0.99999;paint-order:fill markers stroke"
           d="m 16.512921,5.6980358 c 0.04886,0.071466 -0.215853,0.3682246 -0.351633,0.4827354 -0.158332,0.1335236 -0.510709,0.2345442 -0.510709,0.1459966 0,-0.088548 0.230065,-0.094368 0.467055,-0.2727383 0.328641,-0.2473502 0.341692,-0.4344116 0.395287,-0.3559937 z"
           sodipodi:nodetypes="sssss"
           inkscape:label="fix long" /></g></g><g
       id="g20"
       inkscape:label="Star"
       inkscape:groupmode="layer"><path
         style="color:#000000;fill:#b1a048;stroke-width:1;-inkscape-stroke:none;paint-order:fill markers stroke"
         d="M 4.3743396,28.047488 C 3.0646271,28.224811 1.9971767,29.6107 1.9726633,31.116055 1.9481521,32.621409 2.9750821,33.723743 4.2847961,33.546421 5.5945096,33.3691 6.6619593,31.983209 6.6864718,30.477854 6.7109836,28.972499 5.6840531,27.870167 4.3743396,28.047488 Z"
         id="path7"
         inkscape:label="back fill" /><path
         id="path55"
         style="font-variation-settings:normal;display:inline;opacity:1;fill:#4a351e;fill-opacity:0.138429;stroke:none;stroke-width:0.396875;stroke-linecap:butt;stroke-linejoin:miter;stroke-miterlimit:4;stroke-dasharray:none;stroke-dashoffset:0;stroke-opacity:1;paint-order:fill markers stroke"
         inkscape:label="back shadow"
         d="m 4.4875427,32.712009 c 0,0 -0.7838827,0.599544 -0.8159003,0.60388 0.20538,0.0068 0.4041023,0.02625 0.6057868,0.0168 0.065627,-0.003 0.1316991,-0.110351 0.1982853,-0.120954 0.072011,-0.01148 0.1446464,0.07298 0.218585,0.04925 0.1190258,-0.0382 0.2410929,-0.09461 0.3679503,-0.176735 z m 1.7971037,-1.403964 c -0.019607,-0.08742 -0.058641,-0.139805 -0.049712,-0.241796 0.00497,-0.05656 0.1001593,-0.08963 0.1336289,-0.127235 l 0.074087,-0.418256 -0.559119,0.473887 0.2932237,0.891481 z m -1.3036905,-3.101793 0.1975075,0.987143 0.9763729,0.01607 -0.1553351,-0.250077 C 5.8165391,28.924457 5.7797889,28.964841 5.4916408,28.798187 5.2868017,28.679706 5.2647325,28.471601 5.1337899,28.301437 Z m -2.946265,3.137328 c 0.079469,0.245967 0.331509,0.489604 0.5368102,0.681351 l 0.1493957,-0.36811 z"
         sodipodi:nodetypes="ccscscccccccccccccscccccc" /><path
         id="path60"
         style="color:#000000;font-variation-settings:normal;opacity:1;vector-effect:none;fill:#d3d391;fill-opacity:1;stroke-width:1;stroke-linecap:butt;stroke-linejoin:miter;stroke-miterlimit:4;stroke-dasharray:none;stroke-dashoffset:0;stroke-opacity:1;-inkscape-stroke:none;paint-order:fill markers stroke;stop-color:#000000;stop-opacity:1"
         inkscape:label="big circle"
         d="m 4.4722848,27.996982 c -1.3448544,0.260999 -2.5255156,1.657191 -2.5510054,3.222522 0.5005862,0.691628 0.2638,1.584073 1.58445,2.052364 -0.7230978,-0.303852 -1.225775,-1.041283 -1.2765542,-2.033288 -0.072687,-1.420009 1.0366217,-2.733608 2.3670753,-2.933159 0.6289911,-0.09434 1.1259319,0.123033 1.461255,0.52678 C 5.9363713,28.358705 5.0559202,27.897174 4.4722848,27.996982 Z"
         sodipodi:nodetypes="cccsscc" /><path
         style="color:#000000;fill:#96863d;stroke-width:1;-inkscape-stroke:none;paint-order:fill markers stroke"
         d="m 4.3475117,27.93156 c -1.3448551,0.261 -2.5254416,1.657145 -2.550931,3.222476 -0.025489,1.565332 1.0134257,2.758531 2.3880018,2.572429 1.3745754,-0.186104 2.5074715,-1.61956 2.5329614,-3.184891 0.025489,-1.565331 -0.9961749,-2.87664 -2.3700322,-2.610014 z m 0.123961,0.308416 c 1.2445297,-0.153663 1.9747183,0.782247 1.9511823,2.227622 -0.023537,1.445375 -0.7626144,2.698654 -2.0074628,2.867193 -1.2448476,0.16854 -2.2454608,-0.756248 -2.2752555,-2.181708 -0.030037,-1.436964 1.1298186,-2.764727 2.331536,-2.913107 z"
         id="path52"
         sodipodi:nodetypes="ssssssssss"
         inkscape:label="big circle" /><path
         style="color:#000000;fill:#b1a048;stroke-width:1;-inkscape-stroke:none;paint-order:fill markers stroke"
         d="m 4.3689687,26.394013 c -0.4879979,0.06608 -0.5874876,0.82577 -0.2151961,0.901304 -0.7097067,1.364506 -0.7708981,1.889681 -0.9161719,2.197797 -0.2498465,0.03956 -0.6594588,0.186009 -1.8505961,0.469306 -0.091164,-0.511927 -0.84698112,-0.334583 -0.85574162,0.203427 -0.00589,0.361638 0.37974569,0.523309 0.66580952,0.283205 0.4707272,0.483946 0.9721177,0.950297 1.5820459,1.354368 l -0.5580775,1.938331 c -0.5956784,0.01164 -0.7359135,0.980759 -0.078218,0.883707 0.2937903,-0.04336 0.5032507,-0.340743 0.4367323,-0.60231 l 1.8822702,-1.409119 1.5248583,0.913424 c -0.083117,0.352394 -0.0063,0.626212 0.3495037,0.609735 0.5292392,-0.07165 0.5097224,-1.007211 -0.018173,-0.872353 -0.043657,-0.81178 -0.2455976,-1.523703 -0.392343,-2.270449 0.4730219,-0.453607 0.9426947,-0.861564 1.3290225,-1.339486 0.077288,0.05799 0.4583798,0.16949 0.5360897,-0.395116 0.061974,-0.450294 -0.463946,-0.637176 -0.6736887,0.0226 L 5.1477431,29.18186 C 4.9706788,28.531389 4.8475409,27.866855 4.527321,27.253722 4.9373414,27.060643 4.8600899,26.327517 4.3689713,26.394009 Z"
         id="path47"
         sodipodi:nodetypes="scccscccscccscccscccs"
         inkscape:label="star fill" /><path
         id="path57"
         style="color:#000000;display:inline;fill:#d3d391;fill-opacity:1;stroke-width:1;-inkscape-stroke:none;paint-order:fill markers stroke"
         inkscape:label="star light"
         d="m 4.3569366,26.412285 c -0.372342,0.06097 -0.5601116,0.692217 -0.1985257,0.901582 -0.4319544,0.753137 -0.7717019,1.481767 -0.9081237,2.250417 -0.5556849,-0.05611 -1.5353116,0.249043 -1.824493,0.398093 -0.07739,-0.198187 -0.1604882,-0.311681 -0.3752501,-0.282604 -0.15858434,0.002 -0.55916992,0.258436 -0.4171794,0.657312 0.003126,-0.194185 0.27846175,-0.433528 0.4540288,-0.453673 0.2112361,-0.02423 0.2115282,-0.0018 0.2819989,0.188064 1.0482905,-0.269303 1.8358374,-0.356995 2.089328,-0.283594 C 3.7662892,28.815249 3.7784174,28.160316 4.28978,27.280475 4.1412261,27.237705 4.0958713,27.045831 4.1089582,26.897623 4.1413602,26.53064 4.611978,26.483725 4.6873757,26.61366 c -0.027363,-0.09003 -0.02225,-0.194143 -0.2537128,-0.205537 -0.026355,-0.0013 -0.051906,1.37e-4 -0.076726,0.0042 z m 0.8985966,2.760443 -0.2350764,0.172235 c 0.8792868,0.01735 1.6244625,0.0902 2.1982922,0.07224 0.029246,-0.300446 0.2561992,-0.528224 0.5215199,-0.38392 C 7.4738673,28.669364 7.1605948,29.117498 7.1247675,29.311108 6.6152834,29.208213 5.9693539,29.106679 5.2555332,29.172725 Z M 3.1723736,31.572309 2.777545,31.871852 c -0.3257433,0.6605 -0.4514716,1.2926 -0.5468857,1.872256 -0.1560258,-2.39e-4 -0.6170424,0.195541 -0.4611378,0.706915 0.00139,-0.0849 0.1414344,-0.527278 0.5653382,-0.535998 0.154143,-0.691202 0.5647025,-1.633813 0.8375139,-2.342716 z"
         sodipodi:nodetypes="ccccccscccscscccccccccccccc" /><path
         id="path56"
         style="color:#000000;font-variation-settings:normal;display:inline;opacity:1;vector-effect:none;fill:#4a351e;fill-opacity:0.138429;stroke:none;stroke-width:0.396875;stroke-linecap:butt;stroke-linejoin:miter;stroke-miterlimit:4;stroke-dasharray:none;stroke-dashoffset:0;stroke-opacity:1;-inkscape-stroke:none;paint-order:fill markers stroke;stop-color:#000000;stop-opacity:1"
         inkscape:label="star shadow"
         d="M 4.668332,26.711969 C 4.650616,26.956995 4.5183061,27.08782 4.3505715,27.1978 c 0.3480534,0.676483 0.4091583,1.362184 0.5035006,2.089717 l 0.1905138,0.02739 C 4.8748814,28.655052 4.7193872,27.755247 4.4209256,27.204402 4.6196609,27.121152 4.7129594,26.926917 4.668332,26.711972 Z m 2.7867207,2.81357 c -0.1032978,0.01558 -0.1912307,-0.0017 -0.2648241,-0.06267 -0.4174778,0.578624 -1.0290641,0.987517 -1.5974555,1.452802 0.293678,0.783083 0.6673364,1.529676 0.6459093,2.393272 0.3169612,0.03914 0.3097682,0.110007 0.3053356,0.206733 -0.00864,0.188595 -0.1018697,0.350584 -0.2236117,0.398414 -0.094431,0.0371 -0.2564335,-0.126438 -0.2492211,-0.213587 0.00823,-0.09974 -4.169e-4,-0.17895 0.045859,-0.265195 -0.4998297,-0.33479 -1.1546889,-0.665676 -1.660529,-1.171829 -1.7906254,1.427162 -1.9666342,1.655296 -2.0403719,1.71705 0.018902,0.09806 -0.1245553,0.522169 -0.5505676,0.462277 0.080123,0.153575 0.6702875,0.148638 0.5858818,-0.460361 0.6697893,-0.39435 1.3999779,-1.119298 1.9796867,-1.570409 0.4803967,0.341255 1.1970113,0.927716 1.6548784,1.053766 -0.04098,0.06425 -0.051965,0.197967 -0.051591,0.264732 5.652e-4,0.107863 0.1268978,0.272872 0.2540206,0.257094 0.1109873,-0.01377 0.3447285,-0.08411 0.3497173,-0.390432 0.00287,-0.178365 0.016595,-0.319953 -0.3799223,-0.305786 0.042457,-0.822892 -0.2854805,-1.627302 -0.5049415,-2.351162 0.5827146,-0.426647 1.1565283,-1.009324 1.4568549,-1.419033 0.044838,0.03734 0.1348701,0.09139 0.2486627,0.07739 0.1227811,-0.01508 0.3164925,-0.159742 0.2425164,-0.477651 -0.00592,0.183063 0.016807,0.350458 -0.246287,0.404582 z m -6.23733,0.684304 c -0.075563,0.07657 -0.30374333,0.257371 -0.50331381,0.125696 0.10857651,0.200575 0.36368221,0.186723 0.48906531,-0.03995 0.5603616,0.523954 1.163646,1.203689 1.6729954,1.547953 L 3.0988305,31.606555 C 2.5018726,31.27697 1.770527,30.783636 1.2177227,30.209843 Z"
         sodipodi:nodetypes="ccccccccccssscccccccssscccscccccccc" /><path
         style="color:#000000;fill:#96863d;stroke-width:1;-inkscape-stroke:none;paint-order:fill markers stroke"
         d="m 4.3489938,26.298091 c -0.2633473,0.01719 -0.5077069,0.247994 -0.5252512,0.566017 -0.011764,0.212789 0.059449,0.40609 0.2120821,0.47194 -0.4319571,0.753139 -0.7542986,1.361908 -0.8907225,2.130561 -0.5556867,-0.05611 -1.4190892,0.232294 -1.7082723,0.381346 -0.07739,-0.198189 -0.2500149,-0.328771 -0.46477889,-0.299694 -0.28076507,0.03801 -0.50154783,0.314503 -0.53984833,0.630573 -0.038675,0.319156 0.25789765,0.537227 0.53877664,0.50519 0.11991998,-0.01365 0.12720678,-0.07282 0.19516988,-0.114786 0.3346436,0.577286 0.8608374,0.885725 1.3892301,1.223269 -0.3257446,0.660504 -0.3200794,1.303479 -0.4154935,1.883137 -0.4407094,0.09432 -0.5052058,0.423845 -0.5079843,0.594463 -0.00515,0.316627 0.282665,0.474457 0.5634406,0.435765 0.320865,-0.04421 0.5161192,-0.330092 0.4587159,-0.616393 0.6697901,-0.394351 1.3279991,-0.784322 1.8369823,-1.305552 0.4041622,0.407029 0.9308998,0.634647 1.3887678,0.7607 -0.021364,0.06161 -0.062282,0.14218 -0.063373,0.209165 -0.00498,0.306388 0.2378431,0.487681 0.5003305,0.452142 0.2624847,-0.03555 0.4993149,-0.301321 0.5043036,-0.607644 0.00287,-0.178366 -0.054621,-0.460656 -0.4511568,-0.446488 0.042457,-0.822895 -0.1227267,-1.433571 -0.3421895,-2.157435 0.582716,-0.426647 0.920212,-0.85242 1.2205386,-1.262131 0.044838,0.03734 0.1390311,0.07247 0.2524477,0.04438 0.1984266,-0.04914 0.3905511,-0.264367 0.3572271,-0.558903 C 7.8241384,28.91902 7.736374,28.77564 7.483684,28.774596 7.3181519,28.773944 7.1347284,29.047153 7.1058994,29.202949 6.5964122,29.100053 5.9355543,29.006948 5.2217319,29.072995 5.1451111,28.380176 4.9261405,27.778458 4.6276781,27.227611 4.7633956,27.107089 4.8387954,26.969011 4.841853,26.781271 4.8413313,26.371669 4.6315557,26.27963 4.3489938,26.298091 Z m 0.017915,0.20256 c 0.1754806,-0.03624 0.3278633,0.107126 0.3281415,0.300539 3.13e-4,0.219265 -0.088018,0.32301 -0.2569447,0.403366 0.3480534,0.676486 0.4558125,1.388435 0.6238724,2.108577 0.7935946,-0.05615 1.4478042,0.0075 2.0974728,0.05457 0.045217,-0.188137 0.1513486,-0.37545 0.3149078,-0.421681 0.1597865,-0.02164 0.2642999,0.09292 0.2612345,0.28129 -0.00304,0.188366 -0.099131,0.358236 -0.2586768,0.379838 -0.1032983,0.01558 -0.1959825,-0.0088 -0.2695765,-0.06972 -0.4174786,0.578625 -0.8772291,0.947764 -1.4456218,1.413049 0.293678,0.783087 0.4759128,1.512935 0.4544857,2.376534 0.2954575,-0.03393 0.443524,-0.04582 0.4390814,0.227025 -0.00304,0.187935 -0.1398868,0.423435 -0.3042116,0.445685 -0.1643245,0.02225 -0.3386616,-0.103911 -0.3360692,-0.291718 0.00135,-0.09907 0.049483,-0.181321 0.095733,-0.267563 C 5.586502,33.105158 4.9784666,32.8728 4.4384031,32.435164 2.647772,33.862329 2.6663914,33.889043 2.4640469,33.987857 c 0.027985,0.0735 0.010039,0.151169 0.00366,0.233368 -0.031523,0.154164 -0.1388242,0.298446 -0.311967,0.321886 -0.1756597,0.02378 -0.3920571,-0.0624 -0.3888952,-0.256663 0.00139,-0.0849 0.098728,-0.428743 0.5226332,-0.437463 0.1541461,-0.691204 0.4272687,-1.425993 0.7000797,-2.1349 -0.5969584,-0.329608 -1.2281151,-0.827865 -1.7809203,-1.40166 -0.075564,0.07657 -0.091224,0.154006 -0.2083381,0.173552 -0.17540871,0.02928 -0.37578125,-0.104698 -0.37262059,-0.298887 0.003126,-0.194188 0.20541169,-0.411256 0.38107179,-0.43504 0.211086,-0.0206 0.3262738,0.111219 0.3644269,0.302134 1.0482934,-0.269303 1.7545178,-0.44587 2.0080098,-0.372485 0.30757,-0.972636 0.3670964,-1.536326 0.8784612,-2.41617 -0.1905003,-0.01389 -0.225242,-0.228615 -0.2300246,-0.374652 -0.0077,-0.235181 0.1973388,-0.361331 0.3372364,-0.390222 z"
         id="path51"
         sodipodi:nodetypes="sscccssscccsscccssscccsssccccsssccsssccccsssccssscccssscccsss"
         inkscape:label="star outline" /><path
         style="color:#000000;font-variation-settings:normal;opacity:1;vector-effect:none;fill:#d3d391;fill-opacity:1;stroke-width:1;stroke-linecap:butt;stroke-linejoin:miter;stroke-miterlimit:4;stroke-dasharray:none;stroke-dashoffset:0;stroke-opacity:1;-inkscape-stroke:none;paint-order:fill markers stroke;stop-color:#000000;stop-opacity:1"
         d="M 4.3965836,29.206639 C 3.620275,29.311744 2.994425,30.132428 2.9801022,31.012017 2.9657782,31.891608 3.5746429,32.50131 4.3439315,32.440033 5.1185019,32.378343 5.79213,31.507596 5.7612664,30.635477 5.7307164,29.772085 5.1728912,29.101534 4.3965836,29.206639 Z m 0.065115,0.200588 c 0.6454116,-0.136563 1.151949,0.572334 1.1395739,1.3323 -0.012377,0.759966 -0.5603347,1.415736 -1.2048028,1.46252 -0.6275278,0.04555 -1.1329914,-0.516034 -1.1206162,-1.275999 0.012377,-0.759967 0.5523343,-1.384776 1.1858451,-1.518821 z"
         id="path58"
         sodipodi:nodetypes="ssssssssss"
         inkscape:label="small circle light" /><path
         style="color:#000000;font-variation-settings:normal;display:inline;opacity:1;vector-effect:none;fill:#d3d391;fill-opacity:1;fill-rule:evenodd;stroke-width:1;stroke-linecap:butt;stroke-linejoin:miter;stroke-miterlimit:4;stroke-dasharray:none;stroke-dashoffset:0;stroke-opacity:1;-inkscape-stroke:none;paint-order:fill markers stroke;stop-color:#000000;stop-opacity:1"
         d="m 4.4531019,29.723473 c -0.5718611,0.05828 -0.9331218,0.522843 -0.9371802,1.084755 -0.0037,0.51764 0.2539406,0.828149 0.6906446,0.768933 0.3609546,-0.04894 0.6944118,-0.301926 0.7250516,-0.710156 0.026033,-0.346741 -0.2384204,-0.648434 -0.5754508,-0.591778 -0.2388287,0.04014 -0.3825617,0.230244 -0.35877,0.471412 0.014977,0.151786 0.1327638,0.283436 0.2449083,0.261806 0.081093,-0.01564 0.1499285,-0.08215 0.1695153,-0.141728 0.016172,-0.0492 0.00256,-0.105539 -0.02292,-0.138733 0.020333,0.05124 0.015086,0.194917 -0.1187792,0.204406 -0.088572,0.0063 -0.1647574,-0.09934 -0.1705179,-0.171739 -0.01046,-0.131495 0.1164568,-0.31972 0.3122153,-0.352622 0.1408567,-0.02368 0.4337738,0.168477 0.4001617,0.455015 -0.02948,0.251239 -0.3192256,0.444642 -0.5967945,0.473372 -0.316341,0.03276 -0.5415843,-0.205399 -0.5689591,-0.554965 -0.03931,-0.501951 0.3612893,-0.831212 0.7951005,-0.886156 0.4961034,-0.06285 0.8461346,0.33476 0.852621,0.931462 0.00344,0.318632 -0.066596,0.591904 -0.3064205,0.853847 -0.2796874,0.305482 -0.4690415,0.463797 -1.2028477,0.544158 0.3865218,0.128632 0.9948553,-0.124383 1.2804262,-0.476525 0.250689,-0.309132 0.4177758,-0.632234 0.4327948,-1.008552 0.019477,-0.488002 -0.1565221,-1.106749 -1.0447998,-1.016213 z"
         id="path59"
         sodipodi:nodetypes="sssssssscssssssssscsss"
         inkscape:label="spiral light" /><path
         style="color:#000000;font-variation-settings:normal;opacity:1;vector-effect:none;fill:#96863d;fill-opacity:1;stroke-width:1;stroke-linecap:butt;stroke-linejoin:miter;stroke-miterlimit:4;stroke-dasharray:none;stroke-dashoffset:0;stroke-opacity:1;-inkscape-stroke:none;paint-order:fill markers stroke;stop-color:#000000;stop-opacity:1"
         d="m 4.3555441,29.180288 c -0.7763085,0.105105 -1.4021581,0.925788 -1.4164819,1.805379 -0.014325,0.87959 0.5945411,1.489292 1.363829,1.428016 0.7745704,-0.0617 1.4481986,-0.932437 1.4173356,-1.804557 -0.030554,-0.86339 -0.5883755,-1.533941 -1.3646827,-1.428838 z m 0.065115,0.200589 c 0.6454111,-0.136564 1.1519486,0.572334 1.1395739,1.3323 -0.012377,0.759965 -0.5603346,1.415735 -1.2048037,1.46252 -0.6275268,0.04556 -1.1329904,-0.516034 -1.1206153,-1.276001 0.012377,-0.759967 0.5523344,-1.384774 1.1858451,-1.518819 z"
         id="path53"
         sodipodi:nodetypes="ssssssssss"
         inkscape:label="small circle" /><path
         style="color:#000000;fill:#96863d;fill-rule:evenodd;stroke-width:1.03635;-inkscape-stroke:none"
         d="m 4.4241845,29.69764 c -0.5718615,0.05828 -0.9331218,0.522845 -0.9371806,1.084757 -0.0037,0.517638 0.253941,0.828147 0.6906456,0.768931 0.3609537,-0.04894 0.6944121,-0.301926 0.7250507,-0.710155 0.026033,-0.346741 -0.2384201,-0.648434 -0.5754513,-0.591778 -0.2388288,0.04014 -0.3825617,0.230244 -0.3587692,0.471413 0.014973,0.151785 0.132763,0.283434 0.2449079,0.261805 0.081093,-0.01566 0.1499285,-0.08215 0.1695157,-0.141727 0.016172,-0.0492 0.00256,-0.105539 -0.022916,-0.138734 0.020329,0.05123 0.015086,0.194917 -0.1187801,0.204405 -0.088571,0.0063 -0.1647574,-0.09934 -0.1705175,-0.171738 -0.01046,-0.131494 0.1164572,-0.319722 0.312215,-0.352623 0.1408566,-0.02369 0.4337733,0.168476 0.4001616,0.455015 -0.029476,0.25124 -0.3192256,0.444643 -0.5967945,0.473372 -0.3163402,0.03274 -0.5415846,-0.205399 -0.5689586,-0.554964 -0.039306,-0.50195 0.3612888,-0.831213 0.7951,-0.886156 0.4961039,-0.06284 0.8461341,0.334759 0.8526219,0.931463 0.00344,0.31863 -0.066597,0.591902 -0.306421,0.853845 -0.279688,0.305482 -0.4690418,0.463797 -1.202848,0.54416 C 4.1422882,32.32756 4.7506222,32.074547 5.036193,31.722405 5.2868825,31.413272 5.4539685,31.09017 5.4689869,30.713852 5.4884639,30.22585 5.3124653,29.607105 4.4241876,29.69764 Z"
         id="path54"
         sodipodi:nodetypes="sssssssscssssssssscsss"
         inkscape:label="spiral" /></g></g><metadata
     id="metadata28"><rdf:RDF><cc:Work
         rdf:about=""><cc:license
           rdf:resource="http://creativecommons.org/licenses/by-sa/4.0/" /><dc:creator><cc:Agent><dc:title>Guillaume 'GuieA_7' ENGLERT</dc:title></cc:Agent></dc:creator></cc:Work><cc:License
         rdf:about="http://creativecommons.org/licenses/by-sa/4.0/"><cc:permits
           rdf:resource="http://creativecommons.org/ns#Reproduction" /><cc:permits
           rdf:resource="http://creativecommons.org/ns#Distribution" /><cc:requires
           rdf:resource="http://creativecommons.org/ns#Notice" /><cc:requires
           rdf:resource="http://creativecommons.org/ns#Attribution" /><cc:permits
           rdf:resource="http://creativecommons.org/ns#DerivativeWorks" /><cc:requires
           rdf:resource="http://creativecommons.org/ns#ShareAlike" /></cc:License></rdf:RDF></metadata></svg>
