<?xml version="1.0" encoding="UTF-8" standalone="no"?>
<!-- Created with Inkscape (http://www.inkscape.org/) -->

<svg
   width="512"
   height="512"
   viewBox="0 0 135.46666 135.46667"
   version="1.1"
   id="svg1"
   xml:space="preserve"
   inkscape:version="1.3.2 (1:1.3.2+202311252150+091e20ef0f)"
   sodipodi:docname="slug.svg"
   inkscape:export-filename="slug.png"
   inkscape:export-xdpi="96"
   inkscape:export-ydpi="96"
   xmlns:inkscape="http://www.inkscape.org/namespaces/inkscape"
   xmlns:sodipodi="http://sodipodi.sourceforge.net/DTD/sodipodi-0.dtd"
   xmlns="http://www.w3.org/2000/svg"
   xmlns:svg="http://www.w3.org/2000/svg"
   xmlns:rdf="http://www.w3.org/1999/02/22-rdf-syntax-ns#"
   xmlns:cc="http://creativecommons.org/ns#"
   xmlns:dc="http://purl.org/dc/elements/1.1/"><sodipodi:namedview
     id="namedview1"
     pagecolor="#ffffff"
     bordercolor="#666666"
     borderopacity="1.0"
     inkscape:showpageshadow="2"
     inkscape:pageopacity="0.0"
     inkscape:pagecheckerboard="true"
     inkscape:deskcolor="#d1d1d1"
     inkscape:document-units="px"
     inkscape:zoom="0.78125"
     inkscape:cx="271.36"
     inkscape:cy="202.88"
     inkscape:window-width="1868"
     inkscape:window-height="1016"
     inkscape:window-x="52"
     inkscape:window-y="27"
     inkscape:window-maximized="1"
     inkscape:current-layer="layer6"
     showguides="true"><sodipodi:guide
       position="63.640079,91.822624"
       orientation="1,0"
       id="guide65"
       inkscape:locked="false" /></sodipodi:namedview><defs
     id="defs1"><filter
       inkscape:collect="always"
       style="color-interpolation-filters:sRGB"
       id="filter46"
       x="-0.027454067"
       y="-0.10869875"
       width="1.0549081"
       height="1.2173975"><feGaussianBlur
         inkscape:collect="always"
         stdDeviation="1.1868934"
         id="feGaussianBlur46" /></filter></defs><path
     style="display:none;mix-blend-mode:normal;fill:#2c3a1c;fill-opacity:0.101655;stroke:none;stroke-width:0.254175px;stroke-linecap:butt;stroke-linejoin:miter;stroke-opacity:1;filter:url(#filter46)"
     d="m 86.114497,111.1034 c -24.596439,2.40831 -45.429724,-7.2007 -69.639982,-4.61762 -3.095089,0.31681 -12.1735416,0.68634 -10.3540909,4.51344 3.3152578,6.97342 8.7648289,9.39419 16.4335779,11.84668 3.94623,1.26202 12.676633,0.2616 16.006606,2.80008 4.013925,3.05985 10.97311,6.24417 15.803692,4.63888 6.610098,-2.19665 15.516688,0.7747 22.406951,-0.15398 15.558301,-2.09696 20.358835,8.74548 31.809759,-4.90076 3.39052,-4.04054 -2.16662,-6.33167 -5.50979,-7.01876 -3.729716,-1.36336 -7.5628,-0.14725 -11.305313,-1.49745 -1.737649,-0.62689 -3.811961,-5.79062 -5.65141,-5.61051 z"
     id="path46"
     inkscape:label="shadow"
     sodipodi:nodetypes="scsssssscss"
     transform="matrix(1,0,0,1.0835716,0,-11.290118)" /><g
     inkscape:groupmode="layer"
     id="layer6"
     inkscape:label="Paper"
     style="display:inline"><rect
       style="display:inline;fill:#ffffff;fill-opacity:1;stroke-width:4.25337;stroke-linecap:round;stroke-opacity:0.523214;stop-color:#000000"
       id="rect393"
       width="70.944305"
       height="11.35015"
       x="28.375483"
       y="123.89182"
       ry="0.0010902683" /><path
       style="fill:#ffffff;stroke-width:4.25336;stroke-linecap:round;stroke-opacity:0.523214;-inkscape-stroke:none;paint-order:fill markers stroke"
       d="m 82.574829,124.89025 2.471441,-4.62465 -2.362297,-10.15246 4.378264,-27.465888 4.732933,-5.448869 4.884707,5.329286 4.409353,-0.850558 2.65827,-5.023639 6.79154,-1.576529 5.3028,5.200669 5.68153,-2.661174 1.21562,-7.026058 -5.90771,-4.760426 -3.76863,-6.114024 6.45333,-9.939836 6.81577,-13.481434 7.7335,-3.028198 1.20469,-8.702071 -4.5028,-3.250117 -6.31025,0.294745 -3.46475,4.831652 0.0984,5.107732 -5.69943,6.86834 -7.30549,-8.375324 -0.39312,-8.610938 -15.906629,-8.262815 -6.017501,1.213547 -4.361711,3.497301 -4.734163,1.544242 -3.639619,4.803721 -0.275707,8.656717 -7.754445,3.075117 -3.550549,3.177802 0.36931,4.69768 5.764551,4.165954 -7.620587,8.226039 -7.061393,11.858265 -4.09366,13.933019 0.757944,7.125023 -10.207749,4.605218 -14.27041,-1.12622 -15.7471021,8.037929 -5.0429911,8.18774 -3.33211497,1.41515 0.30182667,7.20101 6.2626251,4.72293 9.1776964,-1.24021 6.28782,1.21389 9.372088,4.56032 z"
       id="path1"
       sodipodi:nodetypes="cccccccccccccccccccccccccccccccccccccccccccccccccc" /></g><g
     inkscape:label="Main"
     inkscape:groupmode="layer"
     id="layer1"
     style="display:inline"><path
       style="color:#000000;display:inline;fill:#93b86b;fill-opacity:1;stroke-width:1;-inkscape-stroke:none;paint-order:fill markers stroke"
       d="m 129.80288,23.516964 c -1.28678,-0.07975 -2.9869,0.498504 -4.84983,2.72923 -1.29613,2.347614 -1.7654,3.668049 -2.06317,6.304592 -3.89491,4.421414 -6.56281,8.357056 -11.51136,12.531467 -13.421903,0.693687 -18.08837,-6.392222 -39.801259,2.231595 -1.756409,1.805091 -7.500429,7.689967 -10.094085,11.460267 -5.91295,8.595435 -9.537393,17.26979 -9.807428,25.745186 -0.0535,1.679049 0.480084,4.286689 0.678985,5.351111 -2.382623,1.772897 -7.700362,5.224004 -13.623092,5.765434 -3.617535,0.330705 -7.410409,-1.082883 -11.337422,-0.735576 -3.083346,0.272691 -6.181512,0.722299 -9.00416,2.152478 -6.941381,3.517062 -9.3612086,8.556712 -13.4671849,13.900962 -0.3047332,0.39662 -1.2719853,0.13721 -1.6534131,1.17844 -0.1378289,0.37626 -1.9546378,5.73056 5.7203806,7.13961 4.0884854,0.75056 7.4369004,-1.66707 10.8428944,-1.3688 2.827769,0.24764 5.24478,2.03583 8.048038,3.11943 3.423827,1.32344 7.429423,2.4687 10.898447,3.95007 2.645875,1.12984 5.141316,2.97541 7.796432,3.9989 5.811866,3.02394 12.311776,3.13411 18.065599,2.22685 3.438685,-2.18793 4.637735,-4.58538 5.902052,-6.3714 3.204728,-2.15304 5.569468,-3.6787 7.792619,-4.05324 2.099253,-0.18007 3.158779,1.14224 3.960977,-1.70118 0.456435,-1.61784 -2.398698,-7.49843 -1.6802,-14.37568 0.510667,-4.887957 2.949648,-18.0734 3.566213,-20.753645 1.412254,-6.139145 6.853489,-10.886613 12.361962,-13.058395 -0.744561,1.812723 -1.166935,10.253162 1.755139,9.785872 2.308386,-0.369151 1.31137,-5.568581 0.982501,-7.959834 0.974715,0.594817 2.559305,1.545265 3.728035,1.201673 1.10627,-0.568059 1.69513,-1.854892 2.24151,-3.012698 1.21092,1.483728 2.78076,1.828072 3.66709,1.587166 1.15723,-0.31453 1.01857,-2.039701 1.05603,-3.669697 2.19471,0.716429 4.55242,1.661434 5.60952,4.066204 -0.30264,0.714684 -0.406,3.336541 1.57613,4.389417 1.20647,0.640863 2.02645,-0.547869 2.36591,-1.81132 0.47056,-1.751384 -0.12633,-3.061554 -0.84733,-4.376967 -1.03895,-1.895494 -2.79346,-2.802988 -3.98108,-4.159717 -1.33709,-1.527497 -2.98738,-4.578928 -3.89986,-6.678515 0.7828,-4.296832 3.35589,-6.817946 5.47267,-10.310114 2.89543,-4.918192 7.10959,-13.038391 8.65179,-15.462324 4.31729,-0.286961 8.00943,-1.991291 8.22368,-6.127536 0.17657,-3.408926 -1.57747,-4.349112 -3.34373,-4.829316 z"
       id="path13"
       sodipodi:nodetypes="cccccsscsssssssssccccssscscscsccsssscscsc"
       inkscape:label="body (fill)" /><path
       id="path45"
       style="font-variation-settings:normal;display:inline;opacity:1;vector-effect:none;fill:#91a951;fill-opacity:1;stroke:none;stroke-width:1;stroke-linecap:butt;stroke-linejoin:miter;stroke-miterlimit:4;stroke-dasharray:none;stroke-dashoffset:0;stroke-opacity:1;-inkscape-stroke:none;paint-order:fill markers stroke"
       d="m 11.226954,107.73858 c 0.07473,-0.57824 0.346354,-0.0382 0.687211,0.23177 0.395494,0.31327 0.634217,0.41809 0.126024,0.66003 -0.544714,0.25933 -0.883244,-0.35013 -0.813235,-0.8918 z m 4.861692,0.0239 c -0.671282,1.03316 -0.174688,1.40895 0.498853,1.17202 0.551895,-0.19412 1.36963,-0.85175 0.520768,-1.45674 -0.368859,-0.26289 -0.770925,-0.0981 -1.019621,0.28472 z M 40.57219,98.920173 c 0.894814,-0.09201 0.922117,-2.417679 -0.930939,-1.676577 -1.251404,0.500484 -0.641246,1.838222 0.930939,1.676577 z m -3.312905,2.051547 c -1.384927,1.68598 -2.343234,6.69185 0.133331,5.52953 1.582129,-0.74254 1.658195,-4.03466 4.367642,-3.64686 2.170249,0.31062 2.639934,-2.855667 0.785127,-2.4777 -1.134581,0.23121 -2.449183,0.58528 -3.168229,1.26389 -0.853237,0.84133 -1.628975,-1.26403 -2.117871,-0.66886 z m 5.885588,5.37405 c -1.136769,1.1401 -4.203677,0.0651 -2.748231,2.20907 1.655729,2.43898 2.441411,0.13329 3.646913,-0.66885 1.363418,-0.90723 1.512724,0.19665 1.278343,-2.16454 -0.135542,-1.3655 -1.23218,-0.32329 -2.177025,0.62432 z M 33.613329,96.166384 c -0.997374,1.888701 3.006726,2.637548 1.84268,0.209216 -0.536969,-0.425179 -1.536353,-0.789283 -1.84268,-0.209216 z M 33.14553,107.24513 c -1.08379,-0.0136 -1.820731,0.67654 -1.760226,1.18667 0.05771,0.48662 1.653099,1.47938 2.610957,1.3565 1.454546,-0.18654 0.84862,-2.52179 -0.850731,-2.54317 z m -6.216193,-8.884737 c -0.377721,1.63029 3.259575,2.335607 0.723591,4.771337 -1.281342,1.23069 4.798606,1.77459 6.563313,1.15547 1.62092,-1.73017 -1.910942,-2.96009 -3.210619,-3.93147 -0.879344,-0.657217 0.260293,-3.736446 -1.838613,-3.061767 -0.502471,0.161516 -2.099307,0.469217 -2.237672,1.06643 z m -6.554121,-0.269884 c 0.05419,1.340773 1.592878,1.785544 2.190591,1.290842 0.878798,-0.727342 2.015538,-1.081256 0.47985,-1.929787 -0.665143,-0.367517 -2.700512,-0.105037 -2.670441,0.638945 z m 3.572905,3.465311 c -1.510087,0.64399 -0.5765,2.02469 -1.454051,2.95005 -0.334218,0.35242 -1.644812,0.68622 -2.405093,0.81847 -2.37823,0.41369 2.492116,4.91541 3.992346,2.93499 1.383403,-1.82619 4.504093,-0.7554 3.479132,-2.20564 -1.044289,-1.4776 -3.3119,-2.2483 -1.566164,-4.03203 0.45597,-0.4659 -1.29045,-0.78813 -2.04617,-0.46584 z m -10.783755,4.11556 c 0.960974,0.78469 2.617138,0.79273 2.920382,0.36357 0.345186,-0.48853 -0.777279,-1.48922 -0.79272,-2.69537 -0.02152,-1.6808 4.80404,-0.3207 3.281218,-3.14747 -0.479259,-0.889625 -1.543659,-1.718485 -2.605106,-1.362693 -3.255741,1.091306 -1.983917,1.404033 -2.437103,2.912513 -0.400366,1.33267 -1.774502,2.7799 -0.366671,3.92945 z"
       sodipodi:nodetypes="ssssssssssssssscsssssscccsscssscsssssssssssssssssssss"
       inkscape:label="spots" /><path
       id="path68"
       style="font-variation-settings:normal;display:inline;opacity:1;fill:#f1f4f0;fill-opacity:0.32278;stroke:none;stroke-width:0.264583;stroke-linecap:butt;stroke-linejoin:miter;stroke-miterlimit:4;stroke-dasharray:none;stroke-dashoffset:0;stroke-opacity:1;paint-order:fill markers stroke"
       inkscape:label="body (light)"
       d="m 6.5143831,111.1591 c -1.6915173,-0.003 1.1923955,-1.33775 2.3036085,-2.71964 1.8443804,-2.29368 2.7345634,-5.51812 4.9543854,-7.38074 3.07329,-2.578756 6.851887,-2.601725 10.694916,-3.233516 4.662659,-0.766536 9.555505,0.0889 14.260506,-0.260177 3.988669,-0.295931 15.125072,-5.579781 11.645005,-3.447264 -3.618857,2.217563 -7.156595,5.111339 -11.258646,5.976307 -4.757096,1.0031 -9.71726,-1.952505 -14.502235,-1.119543 -3.584395,0.623966 -7.148493,2.045423 -10.074458,4.483513 -2.136202,1.78001 -2.742543,3.1645 -4.8697364,4.95713 -1.2382237,1.04347 -1.3670594,2.74699 -3.1533455,2.74393 z m -1.8539852,1.15986 c 2.0101922,1.7298 4.4810043,1.90821 4.52212,2.28426 0.054427,0.49777 -3.3862599,-0.0595 -4.0194462,-1.10616 0,0 -0.9067393,-1.52581 -0.5026738,-1.1781 z M 72.159425,53.927424 c -0.620279,-0.826885 -1.569309,-1.71776 -2.547827,-1.611692 -3.124165,0.338655 -5.188646,4.036242 -7.032647,6.789824 -2.361589,3.526478 -5.160823,8.420001 -7.063572,13.63072 -1.543071,4.22574 2.947379,-3.935444 6.046234,-10.560048 1.724879,-3.687376 5.087014,-7.151772 7.148409,-7.901127 1.106342,-0.402175 2.158505,0.88103 3.083231,1.652296 0.558984,0.466221 0.896948,2.704309 1.675004,2.241991 C 74.6747,57.452524 73.027289,55.08436 72.159425,53.927424 Z M 54.303216,77.786215 c -0.988871,-0.0015 -1.202389,5.550125 -0.683655,6.462376 0.296249,0.520984 0.454085,-2.351712 0.664155,-2.919739 0.358927,-0.970528 1.122137,-3.540964 0.0195,-3.542637 z M 125.13426,27.777722 c -0.0371,-0.589387 -0.90771,1.167065 -1.15991,1.690812 -0.46335,0.962243 -0.69942,3.485356 -0.28075,2.818997 0.44448,-0.707447 0.30094,-1.25217 0.52997,-2.126101 0.23562,-0.899037 0.96016,-1.59636 0.91069,-2.383708 z" /><path
       id="path29"
       style="color:#000000;display:inline;fill:#242e17;fill-opacity:0.10199;stroke-width:1;-inkscape-stroke:none;paint-order:fill markers stroke"
       inkscape:label="body (shadow)"
       d="m 126.07566,26.606124 c -0.25352,0.143402 -0.4404,1.302678 -0.5046,1.942379 -0.18537,1.84678 0.87444,3.301039 -1.84696,4.906281 -2.02878,1.196702 -8.23891,13.014534 -10.10088,13.907224 -2.06441,0.989731 2.31825,-4.40933 -0.54685,-4.150147 l -41.04174,3.771511 c -0.07679,2.275758 5.568556,4.28896 7.749332,6.025035 1.200453,0.955658 0.298906,2.442461 0.927955,6.72969 0.583941,3.979798 -1.451758,4.906211 -1.701251,4.383507 -0.470046,-0.984769 1.952626,-4.920372 -2.328338,-7.711746 -0.09346,6.861475 -5.06298,11.281367 -6.478276,13.008675 -1.333587,1.627589 -5.989762,8.922672 -7.606812,13.620675 -3.111126,9.038724 -9.002942,5.084454 -9.252642,6.856094 -0.21456,1.522313 6.441591,4.097671 9.420498,1.359549 0.936807,-0.790604 2.470799,-2.459872 2.807623,-2.019019 0.815234,1.067029 -2.175853,6.880715 -3.463738,9.568331 -2.180492,4.550367 -5.97973,8.487587 -11.902437,9.029017 -3.617519,0.3307 -10.153871,-2.9446 -14.080865,-2.59729 -3.083337,0.27269 -10.246873,-1.27003 -13.06951,0.16015 -6.011776,3.04606 -13.5875186,4.06791 -14.8958615,6.09027 -0.6033998,0.93268 4.2314175,4.72897 -1.06203,3.54043 -2.912963,-0.65403 -2.8426678,-3.49839 -3.2240937,-2.45715 -0.1378285,0.37627 -0.1649717,5.02713 6.0359375,5.91066 4.1113437,0.58577 6.7292237,-1.90663 10.1352037,-1.60836 2.827756,0.24763 5.694572,2.788 8.497821,3.8716 3.423812,1.32341 6.790763,1.5529 10.259776,3.03425 2.645861,1.12985 5.595362,3.23506 8.173721,4.46759 5.898639,2.81966 11.281084,3.62035 16.833591,1.75077 3.80806,-1.28222 5.538278,-4.7884 6.70261,-6.65248 0.877482,-1.40486 1.05186,-4.84753 1.387712,-6.4889 0.617654,-3.01857 1.303646,-5.71799 1.621021,-8.67208 0.38876,-3.61855 0.08904,-8.525697 0.203221,-12.244001 0.143135,-4.660827 2.436822,-15.202761 5.240999,-19.642278 1.205072,-1.90784 4.86237,-4.104569 6.794984,-4.92973 l 2.338894,-0.895117 c 2.653343,-1.234078 5.972103,-0.922145 8.399639,-0.0103 2.015629,-3.264353 2.745152,-6.39314 3.547656,-9.346411 0.0675,4.158237 -0.0396,6.439426 -0.945895,7.758648 -2.68496,3.908904 -2.184606,11.429433 -0.256535,10.708821 1.120445,-0.418761 -0.009,-3.545269 -0.145158,-6.700522 -0.07287,-1.694169 0.663579,-4.818376 4.234918,-6.978493 -3.790411,3.803499 -3.272909,5.327205 -3.559274,6.762294 l 0.693594,0.366627 c -0.0385,-0.506683 0.11538,-0.458797 0.0639,-0.833348 0.97471,0.594815 1.86902,1.039094 3.03776,0.695503 0.83449,-0.4285 2.53448,-4.344438 3.08106,-5.395305 0.178,-0.342246 -0.80725,3.083614 -0.67302,2.799175 1.32014,1.279044 2.30082,1.681678 3.18715,1.44077 0.9615,-0.261332 1.01576,-5.244307 1.41304,-6.679357 l 0.0422,3.405454 c 2.09518,0.447445 4.62612,1.711583 5.54504,3.561027 0.0683,-1.244903 0.18219,-1.87187 0.32304,-0.347752 0.10843,1.173224 -0.72618,4.151746 0.90579,4.922295 1.041,0.49152 2.11019,-1.103548 1.20297,-3.571323 -0.75292,-2.048075 -2.34528,-2.775699 -3.53288,-4.132417 -1.02687,-1.173087 -3.76524,-3.833819 -3.90186,-7.576762 l -0.35894,2.041898 c -1.04582,-4.464105 2.88313,-10.236166 4.96758,-13.751081 2.96433,-4.998627 6.00401,-10.27972 9.10485,-15.180411 l -0.70046,-0.403233 c 4.63566,0.02176 8.89126,-1.508865 9.06051,-5.647541 l -5.15443,3.09774 c -2.23654,-2.259155 -1.24295,-4.701363 -1.49329,-4.86567 -0.0388,-0.02544 -0.0767,-0.02611 -0.11296,-0.0057 z M 93.079389,55.022281 c 0.430348,0.02132 0.857899,0.166571 1.322258,0.551941 1.278504,1.061021 1.082219,3.317233 -0.369492,4.655188 -2.139433,1.971789 -5.163094,2.474027 -6.479332,1.957252 -1.236611,-0.485516 -2.70259,-6.517105 -0.975461,-7.095747 0.762525,-0.255469 2.678298,0.508168 4.139909,0.322015 0.919342,-0.117089 1.644872,-0.426185 2.362118,-0.390649 z m -0.834527,15.012826 c -1.484383,-0.06181 -3.253921,0.253083 -5.118012,1.214273 -3.765165,1.873843 -5.302289,3.554307 -7.431039,5.286061 -3.949962,8.196604 -5.175951,16.329646 -5.334429,24.526259 1.015632,7.07165 -1.534849,15.12316 -3.057295,22.8922 2.040203,-1.35878 5.47283,-3.17809 7.083717,-3.44949 2.099246,-0.18006 2.604087,0.49192 3.181866,-1.52599 0.46264,-1.61578 -2.457753,-7.68492 -1.739257,-14.56216 0.510666,-4.887927 3.078468,-17.983555 3.694933,-20.663817 0.849257,-3.692398 3.554211,-7.229842 6.371623,-9.380597 0.402626,-0.255463 0.418298,0.06718 0.746662,-0.116526 1.003511,-0.805148 1.242123,-0.965105 2.447371,-1.57775 0.119112,-0.04981 -0.450654,-0.228139 -0.338878,-0.288841 1.359463,-0.738273 2.718804,-1.258866 3.695462,-1.389866 -1.558683,-0.835067 -2.965652,-0.912248 -4.202724,-0.963756 z M 19.672664,114.93295 c 0,0 -0.474391,0.68722 -1.068253,0.83291 -0.629411,0.1544 -2.307139,-0.0532 -2.307139,-0.0532 1.177023,-0.5985 2.281417,-0.72307 3.375392,-0.77964 z m 18.73557,5.261 c -1.49775,-0.33807 -2.312685,-0.30467 -3.901318,0.0224 -0.47432,0.0977 -1.803668,-0.69831 -3.203506,-1.20287 2.081452,0.45795 8.206641,0.34432 7.104824,1.18041 z m 20.723281,6.97805 c 0,0 -1.879253,-0.42294 -3.601123,-0.0766 -1.396173,0.28082 -2.816166,0.27716 -3.559464,0.3287 -1.301811,0.0904 1.169114,-1.1515 3.773755,-1.22035 1.227352,-0.0324 2.462305,0.33382 3.386832,0.96826 z"
       sodipodi:nodetypes="ssssccssscssscsssssssssscscsssssscccccsccccccscscccssssccsccccscsssssssssccccssssccscsscscscscccsssccss" /><path
       id="path5"
       style="color:#000000;display:inline;fill:#6c9046;fill-opacity:1;stroke-width:1;-inkscape-stroke:none;paint-order:fill markers stroke"
       inkscape:label="body (outline)"
       d="m 122.7415,32.445938 c -3.8949,4.421403 -7.71801,8.500147 -12.66654,12.674549 l 0.54644,0.982271 c 5.14678,-4.341631 8.35448,-8.722919 12.52299,-13.456511 0.0518,-2.514863 0.85434,-3.753393 1.83516,-5.549607 0.76981,-1.409786 2.51012,-3.415172 4.20666,-3.330994 2.32658,0.115442 3.50364,2.266956 3.45239,3.620001 -0.06,1.586209 -0.47055,3.67605 -1.5795,4.873949 -1.04965,1.133832 -4.62224,2.055749 -7.28668,1.788084 0.27542,0.229226 0.52156,0.347817 0.83016,0.46573 -2.85212,4.435476 -6.60179,11.197785 -8.68328,14.73378 -1.9365,3.289691 -3.67472,5.566124 -4.91658,9.431139 -0.40735,1.564553 -0.87204,3.516819 -0.57474,5.073384 0.10143,-1.02524 0.34874,-2.092235 0.51472,-2.996102 0.30752,0.768105 1.91298,4.760587 3.11594,6.134853 1.34917,1.541293 3.28329,2.15898 4.1267,3.697727 0.70262,1.281864 1.21716,3.649153 0.90843,4.798178 -0.23559,0.876896 -1.03544,1.738432 -1.82898,1.665551 -0.78322,-0.07192 -1.4463,-0.596 -1.52444,-1.949814 -0.0345,-0.598445 0.44328,-2.773062 0.10556,-3.700987 -0.0445,-0.09137 -0.18166,0.652907 -0.23003,0.567151 -1.12627,-1.995776 -3.21019,-2.439176 -5.25641,-3.367071 -0.041,-1.164052 -0.22624,-2.421587 -0.11355,-3.722887 -0.32031,2.091204 -0.47707,6.199997 -1.13228,6.943594 -0.66331,0.752799 -2.18084,-0.07967 -3.36545,-1.261012 0.12839,-0.352177 0.29308,-1.584887 0.53738,-2.986234 -0.56658,1.574674 -2.21739,5.348226 -3.11728,5.562976 -1.141,0.272289 -2.49404,-0.435638 -3.454436,-0.962826 0.150467,-0.758532 0.295106,-2.079638 0.897336,-3.009658 1.03356,-1.596104 1.19309,-1.601652 2.47402,-3.486673 0,0 -2.32024,2.015016 -2.957,3.045691 -0.560262,0.906859 -1.153297,2.670961 -1.198212,3.721177 -0.0874,2.043524 0.645143,3.146017 0.633951,5.081872 -0.0049,0.878844 0.233854,2.210302 -0.78438,2.480593 -1.470472,0.390333 -2.250105,-2.04699 -2.418602,-3.432337 -0.18221,-1.498098 -0.223032,-3.575787 0.279232,-5.047552 0.617231,-1.808642 1.079767,-2.086127 1.47639,-3.197833 0.865511,-2.425972 1.923511,-6.235438 1.948291,-7.511561 -0.479422,2.035416 -1.704389,5.460612 -2.511504,7.246744 -0.361922,0.800924 -0.8354,1.586787 -1.187129,2.390797 -2.063818,-0.521989 -4.385287,-0.988046 -6.585336,-0.508379 -3.78712,0.825685 -7.377547,2.850459 -10.111015,5.8156 -1.412719,1.532452 -2.054841,3.624961 -2.707332,5.473666 -1.538307,4.358486 -2.30447,8.203381 -2.81832,12.835051 -0.477484,4.303915 0.209755,8.891082 -0.155447,12.961962 -0.231797,2.58372 -1.105493,6.83487 -1.68866,9.87696 -0.735622,3.83739 -1.049277,5.49398 -1.208818,5.88761 -0.503151,1.24145 -3.853569,6.14419 -6.676612,7.49665 -1.550517,0.74283 -4.677236,0.36337 -7.062152,0.16551 -4.302091,-0.36123 -7.006523,-0.31537 -10.983853,-1.90876 -2.668632,-1.02871 -5.376817,-3.35937 -7.98804,-4.47443 -3.392342,-1.44861 -6.902886,-2.20758 -10.425269,-3.56912 -2.756681,-1.06558 -5.119469,-3.06305 -8.175631,-3.3307 -3.807976,-0.33348 -6.809293,2.15873 -10.3132636,1.51545 -6.2087897,-1.13985 -5.9423926,-5.83768 -5.8153889,-6.1844 0.1513811,-0.41322 1.2258324,-0.98353 1.7533511,-1.57516 2.3131688,-2.59426 3.9435771,-6.35275 6.1061114,-8.5637 3.640725,-3.722209 8.431702,-6.278493 15.929844,-6.941632 3.61924,-0.320087 7.402713,1.212932 11.329722,0.853938 4.930269,-0.371906 9.379837,-2.668248 13.424928,-5.611236 1.564239,0.912503 6.835381,2.350163 9.898607,0.435617 2.589235,-1.68744 2.390482,-5.063548 3.721459,-7.724239 2.085187,-3.913474 4.708387,-7.742353 6.853972,-11.750455 1.989963,-3.717392 5.306962,-6.964759 5.574304,-11.390041 0.243693,-4.033867 -4.586471,-9.880505 -6.337906,-12.0677 l 0.914273,-0.938268 -1.308605,-0.511925 c 0,0 -7.527572,7.21359 -10.367038,11.341216 -2.998701,4.359098 -6.450213,10.349099 -8.247322,15.484924 -1.871798,5.325944 -2.081814,10.261799 -1.019101,15.8602 -3.762485,2.799648 -7.976909,5.365879 -13.780029,5.896375 -3.617528,0.330702 -7.373627,-1.502098 -11.30063,-1.154793 -4.965823,0.439177 -11.625431,3.183426 -16.473624,8.140129 -2.4192956,2.47345 -3.3955525,5.82107 -5.6221049,8.23856 -0.5412133,0.58763 -1.4919502,0.52007 -1.8453556,1.48482 -0.4668754,1.2745 -0.8354283,6.45252 5.8554154,7.68086 3.7859031,0.69503 6.8503801,-0.85653 10.4320901,-0.54286 2.827761,0.24764 6.078659,2.08048 8.88191,3.16406 3.423821,1.32345 7.258471,1.60576 10.72749,3.08711 2.645868,1.12984 5.564785,3.84722 8.219896,4.87071 3.691128,1.94605 6.53878,1.19487 10.627733,1.62735 2.447886,0.20309 5.115995,0.82965 7.042143,-0.0932 2.526576,-1.30403 5.285082,-4.46841 6.744058,-6.96581 2.380849,-1.48423 4.173521,-3.01095 6.890784,-3.69522 0.812253,-0.13683 1.940898,0.33183 2.860935,0.32204 0.97536,-0.0102 1.561473,-1.58831 1.615742,-2.6436 0.107468,-2.08979 -1.656621,-5.551 -1.712271,-7.9485 -0.05204,-2.24155 -0.0362,-4.035 0.09074,-6.3557 0.238372,-4.35811 1.200423,-8.586616 2.048445,-12.979724 0.554041,-2.870155 0.677825,-5.861787 1.667537,-8.404437 0.769874,-1.977873 2.348268,-4.864883 3.634311,-6.601022 1.774758,-2.395886 5.774576,-4.324073 7.424675,-5.050723 -0.482358,1.61157 -0.617658,2.832658 -0.378995,4.555667 0.315863,2.410054 0.91626,5.423788 2.624987,5.109326 0.964407,-0.177481 2.315149,-0.905789 2.430209,-3.57304 -0.0205,-1.417071 -0.604153,-2.522307 -0.744273,-4.109538 0.974723,0.594819 2.033183,1.093431 3.201923,0.74984 0.72037,-0.211776 1.6485,-1.189703 2.4677,-3.000705 0.83046,0.8031 2.09132,2.186529 3.45423,1.774423 1.38748,-0.470914 1.227,-2.563374 1.29102,-3.868656 2.18258,0.385327 4.8433,2.541641 5.20625,3.53749 0.18779,0.516216 -0.55804,1.698166 -0.31724,2.621296 0.31162,1.194642 1.00257,2.589231 2.07656,2.684783 1.24133,0.110439 2.46564,-1.348453 2.83506,-2.63731 0.45342,-1.581857 -0.45398,-3.487918 -1.17499,-4.803328 -1.03893,-1.895491 -3.12226,-2.720208 -4.30986,-4.076935 -1.33711,-1.527495 -3.04903,-4.67291 -3.44,-6.484983 0.99662,-4.033067 4.23313,-7.226918 6.09955,-10.800108 2.50756,-4.800613 7.1954,-14.00714 7.83147,-14.407352 0.87647,-0.122019 4.7341,-0.225221 6.35503,-1.97619 1.30093,-1.405285 2.6015,-4.283408 1.84806,-6.315139 -0.71067,-1.916383 -1.80598,-3.137339 -2.82828,-3.190903 -3.31892,-0.17389 -4.82136,1.664338 -5.77768,2.858844 -1.24257,1.55201 -1.61108,3.038432 -1.91683,6.311743 z M 71.338087,48.637983 c 2.294571,2.882755 5.819422,8.422524 5.618722,11.744713 -0.23125,3.827845 -2.891478,7.281013 -4.667255,10.738046 -2.058144,4.006741 -4.824614,7.6238 -6.911145,11.539795 -1.173474,2.202376 -1.920778,6.764168 -4.089785,8.119818 -1.10031,0.687707 -4.863358,0.708032 -8.35027,-1.13968 -1.201862,-3.299418 -0.53538,-10.502993 1.546396,-16.452349 1.744796,-4.986331 3.842269,-9.224907 6.814248,-13.545163 2.55378,-3.712339 9.372442,-10.313443 10.039089,-11.00518 z m 24.441564,22.305344 c -3.083001,1.620202 -6.808745,4.079579 -8.06967,5.781804 -1.299955,1.754917 -2.749373,3.849847 -3.585,5.996639 -1.077147,2.767276 -1.006409,5.844067 -1.541244,8.614741 -0.835132,4.326328 -2.021197,8.555582 -2.269218,13.090059 -0.135109,2.47017 -0.126055,4.89529 0.157229,7.31482 0.269846,2.30476 1.298586,4.37716 1.460741,6.7876 0.03507,0.52122 -0.342823,1.38364 -0.857174,1.72275 -0.807079,0.53211 -1.68387,-0.14191 -2.833789,0.0518 -2.211272,0.52324 -4.301438,1.63425 -6.208479,2.92048 0.34047,-0.84946 0.992801,-4.1493 1.49421,-6.76494 0.587989,-3.0672 1.402768,-6.22863 1.64155,-8.8902 0.386346,-4.3064 -0.746059,-8.394264 -0.296441,-12.446903 0.503888,-4.541891 1.167375,-8.333374 2.674994,-12.604908 0.661742,-1.874917 1.581374,-4.660266 2.7688,-5.948329 2.578832,-2.797398 6.416718,-5.607497 10.03805,-6.134195 3.21873,-0.468142 5.143539,0.324776 5.425441,0.508748 z M 15.956443,115.88928 c 0.250769,-0.0644 2.082003,-0.79049 3.162551,-0.77295 1.544124,0.025 3.621464,1.04675 4.595192,1.38439 0.398578,0.13821 -3.031078,-2.13191 -4.729246,-2.05922 -1.15561,0.0494 -3.688908,1.61721 -3.028497,1.44778 z m 14.74356,2.81137 c -1.013127,-0.16683 1.457098,0.61439 2.420047,0.84347 1.343707,0.31966 3.088366,-0.118 4.42187,0.24837 0.59067,0.1623 4.653663,3.05939 3.629359,2.07669 -0.639476,-0.61352 -2.833961,-2.40838 -3.651765,-2.72657 -1.193851,-0.46448 -2.523432,0.21465 -3.788612,0.11566 -1.051595,-0.0822 -1.956547,-0.3807 -3.030899,-0.55762 z m 21.422695,8.35124 c 1.337132,-0.29506 2.679818,-0.72428 4.038729,-0.58963 1.606795,0.15921 3.201808,1.37599 4.697767,1.15419 0.851109,-0.12618 1.541216,-0.99725 2.185727,-1.47944 0.717462,-0.53676 -1.422903,0.95023 -2.387158,0.86794 -1.337849,-0.11416 -3.201993,-1.28673 -4.543577,-1.32251 -1.395176,-0.0372 -4.488933,1.47923 -3.991488,1.36945 z"
       sodipodi:nodetypes="ccccssssccscccsssssccccsccscscssssssscscssssssssccssssssssccccsscccsccsssssssssccccccssssssccsccsccccssssscscssssccsssscssccsssssssccssssssccccsscssssscssssssss" /><g
       id="g18"
       inkscape:label="Hat"
       inkscape:groupmode="layer"><g
         id="g19"
         inkscape:label="strap"
         inkscape:groupmode="layer"
         style="display:inline"><path
           style="fill:#786553;fill-opacity:1;stroke:none;stroke-width:1;stroke-opacity:1;-inkscape-stroke:none;paint-order:fill markers stroke"
           d="m 85.346478,48.324716 c -0.462445,3.164481 -1.727269,15.745866 2.760764,22.118906 1.048712,1.222206 3.203793,1.454005 5.329383,2.238831 L 91.71145,74.048127 C 89.051499,73.401556 87.275535,72.836552 86.093187,71.624606 81.746752,64.013358 81.512824,56.586055 82.770093,48.330212 Z"
           id="path21"
           inkscape:label="fill"
           sodipodi:nodetypes="ccccccc" /><path
           style="display:inline;fill:#41382e;fill-opacity:0.114491;stroke:none;stroke-width:1;stroke-opacity:1;-inkscape-stroke:none;paint-order:fill markers stroke"
           d="m 85.110156,48.39548 c -1.037815,3.202432 -2.556139,14.42969 2.242186,22.09655 1.048711,1.222206 3.156875,1.725197 5.339263,2.346231 l -0.561836,0.361303 c -0.387402,0.08929 -2.010494,-0.190227 -2.947827,-0.465601 0.582089,0.279928 2.026879,0.708183 2.596127,0.704861 l -0.383426,0.321745 c -2.698298,-0.735895 -4.104415,-1.44785 -5.286762,-2.659797 -1.066765,-3.033561 -1.479967,-4.718808 -2.004499,-7.433473 -0.04093,-0.211846 -0.134586,-1.247291 -0.151317,-1.462921 -0.174549,-2.249748 -0.472955,-4.575826 -0.389901,-7.061684 0.0076,-0.229101 -0.94182,-0.830755 -0.931674,-1.062353 0.0795,-1.814507 -0.151129,-3.84111 0.139598,-5.750129 z"
           id="path31"
           inkscape:label="shadow"
           sodipodi:nodetypes="ccccccccsssscc" /><path
           id="path11"
           style="color:#000000;fill:#615144;fill-opacity:1;stroke-width:1;-inkscape-stroke:none;paint-order:fill markers stroke"
           inkscape:label="outline"
           d="m 85.314785,48.195575 c -1.028925,4.12327 -1.48342,9.332347 -0.659283,13.860027 0.696498,3.826449 1.671465,6.531115 2.862069,8.361913 0.702769,1.080652 3.451954,1.969763 5.476569,2.325495 -0.100972,0.05188 -0.427123,0.258303 -0.661286,0.417282 -0.765221,0.09836 -2.272089,-0.241613 -2.570604,-0.347458 0.12514,0.105723 1.847521,0.641475 2.098417,0.677429 -0.208664,0.150168 -0.38342,0.282717 -0.450284,0.345879 -1.831082,-0.61656 -3.985316,-0.797587 -5.286876,-2.436523 C 85.46632,70.293555 84.257291,66.344805 83.368717,62.10316 82.421678,57.582423 81.86643,52.0482 82.951175,48.57451 L 82.26747,48.438789 c -1.199341,3.84067 -0.869205,9.254723 0.105735,13.908644 0.915724,4.371247 2.46949,7.936267 3.209979,9.323592 0.601552,1.127024 2.498208,1.849865 6.000791,2.509313 0.454253,-0.323544 0.67873,-0.439067 0.959325,-0.640354 l 0.242253,1.47e-4 c 0.188762,-0.305331 1.551664,-1.197078 1.966728,-1.492384 l -1.369922,0.145027 C 92.304681,72.182514 88.993173,71.345153 88.384393,70.409029 87.32828,68.785037 86.327802,65.526872 85.656999,61.84159 84.860802,57.467396 84.831894,52.1783 85.801693,48.29197 Z m -1.467182,1.05343 c -0.355914,2.692077 -0.423126,5.334149 -0.411232,7.962516 0,0 -0.448054,-2.832286 -0.362591,-4.25296 0.0761,-1.26503 0.773823,-3.709556 0.773823,-3.709556 z"
           sodipodi:nodetypes="cssccccccsccsscccccssccccac" /></g><path
         style="display:inline;fill:#967e5f;fill-opacity:1;stroke:none;stroke-width:1;stroke-opacity:1;-inkscape-stroke:none;paint-order:fill markers stroke"
         d="m 105.88489,31.294685 c 0.006,-1.395205 0.38482,-4.979047 -0.16992,-7.464344 -3.85721,-2.880329 -7.799047,-6.275567 -14.214057,-8.301354 -5.264545,0.468357 -7.825262,2.615231 -9.440463,5.400481 l -2.261406,-0.702812 c -5.856614,5.130651 -4.665295,11.57199 -4.203335,14.704536 -8.272234,1.290603 -11.180137,3.880457 -10.849475,7.918007 5.759219,5.853211 16.299035,5.464537 19.004293,5.668466 4.378727,-1.111961 8.206871,-1.451187 11.452105,-0.972304 5.556328,2.770597 13.641228,1.390374 17.784588,-0.755432 1.97522,-6.593461 0.14211,-11.702206 -7.10233,-15.495244 z"
         id="path20"
         inkscape:label="fill"
         sodipodi:nodetypes="ccccccccccc" /><path
         id="path66"
         style="display:inline;fill:#3c3226;fill-opacity:0.108973;stroke:none;stroke-width:1;stroke-opacity:1;-inkscape-stroke:none;paint-order:fill markers stroke"
         inkscape:label="shadow"
         d="m 84.068031,20.090022 c -0.05189,0.429568 5.156996,-2.741399 10.362192,1.206771 2.723314,2.065651 -2.452977,0.929212 -0.781747,1.883557 0.635408,0.362845 2.286974,0.706323 2.625278,1.131219 3.098068,3.891049 1.79659,3.711509 1.197415,4.086946 -1.10255,0.690847 -7.020601,-2.716618 -10.105561,-1.583001 -5.23565,1.923922 -0.625798,6.968134 -2.303912,7.974791 -0.416881,0.250076 -9.195084,-2.10006 -9.152834,-1.633446 5.570533,2.610718 10.906586,2.99222 16.871595,3.888167 4.912387,-0.01532 8.539663,0.323229 11.689143,-3.096405 0.16723,-0.505991 0.37024,-1.011647 0.51916,-1.529171 0.0564,-0.196114 -0.81251,0.306874 -0.77651,0.106686 0.0408,-0.226381 0.98281,-1.156596 0.98405,-1.389994 0.007,-1.395195 0.26134,-3.104348 -0.29382,-5.589637 -2.73242,-2.040403 -5.397982,-4.531443 -9.132369,-6.476696 -1.537246,-0.800755 -3.161296,-2.251515 -5.103173,-2.42518 -3.221725,-0.288125 -6.489036,2.535758 -6.598907,3.445393 z m 22.002219,12.013697 -0.096,3.112908 c 1.42779,0.07818 3.35018,0.467922 4.98371,0.909482 -1.24859,-1.950911 -4.88779,-4.02239 -4.88779,-4.02239 z m -30.646649,4.000902 c -0.898573,-0.01203 7.357692,3.731898 1.591395,2.445175 -0.643026,-0.14349 -5.315055,-1.789155 -5.89843,-1.698449 -4.461989,0.693774 -6.187146,2.533863 -5.43722,5.544721 0.375902,1.509196 4.479728,3.591741 8.912248,4.58675 3.440778,0.772382 7.146897,0.682861 9.031404,0.480429 3.786492,-0.485358 6.374088,-1.154196 9.381966,-1.091874 C 87.611607,42.451563 82.411478,36.198015 75.423601,36.104621 Z m 36.025309,4.921872 c -0.56585,0.578412 -2.83528,-3.184439 -5.43278,-3.400327 -2.40806,2.146984 -5.62591,3.378711 -8.58011,4.020812 l -9.084258,-0.724675 c 2.696774,1.867442 4.537218,5.057997 7.500187,6.448286 6.621871,1.629548 12.362221,0.639773 15.985511,-0.949121 0.7269,-0.418871 1.93427,-4.892568 0.33509,-7.871941 0.22839,0.700862 -0.0356,1.773687 -0.72364,2.476966 z M 78.276106,25.339881 c -0.06178,-0.393582 1.443706,-2.81235 2.212655,-2.82933 1.084212,-0.02395 2.652492,0.271963 3.596938,1.466609 0.590651,0.747125 -2.199501,-0.610299 -3.398047,-0.180527 -1.025596,0.367756 -2.256122,2.533375 -2.411546,1.543248 z"
         sodipodi:nodetypes="ssssssscccssccsssccccsssssccssccccccssssss" /><path
         style="color:#000000;fill:#7d694f;stroke-width:1;-inkscape-stroke:none;paint-order:fill markers stroke"
         d="m 90.610646,15.196077 c -0.245015,0.0091 -0.506043,0.03379 -0.790188,0.07493 -3.113012,0.450676 -5.838326,2.583658 -7.926162,4.985211 -0.745951,-0.160384 -1.610738,-0.548751 -2.3542,-0.379209 -2.092699,0.477223 -4.322018,5.311555 -4.829807,8.602289 -0.184218,1.386698 0.07009,3.396646 0.446897,4.756127 0.258796,0.0016 0.400853,0.002 0.734763,0.004 -0.02341,-0.346018 -0.342898,-0.745043 -0.357591,-1.149999 -0.04401,-1.212759 0.07062,-2.589963 0.185172,-3.452271 0.444805,-2.576336 2.547776,-7.526743 4.106655,-8.018318 0.2754,-0.08684 7.209347,2.258668 8.306739,2.73054 3.917608,1.684548 7.234756,4.395021 11.531359,4.516202 1.470337,0.04147 3.764767,-0.505044 4.315097,-1.984713 0.45548,-1.224623 -2.96727,-4.018021 -4.128561,-5.068902 0.669951,1.050348 4.001141,3.938519 3.674611,4.89617 -0.65333,1.07095 -2.75521,1.439461 -3.794115,1.445927 -4.137152,-0.478277 -8.659342,-3.22104 -12.352157,-5.205973 -1.815703,-0.794614 -3.007831,-0.908626 -4.86095,-1.594053 1.806272,-2.280808 4.647893,-3.84165 7.327054,-4.317734 1.813039,-0.322172 4.258415,0.692984 6.068667,1.416176 2.392697,0.955875 3.951741,2.765252 6.092421,4.442419 1.05508,0.826642 2.62488,1.351798 3.20983,2.180887 0.16349,0.231726 0.4078,0.587816 0.36989,0.864964 0.0335,1.723737 0.11303,4.394547 -0.16401,6.543121 -0.09,0.697198 -0.82758,2.085206 -0.74793,2.577061 l 1.32095,-1.132102 c 0.0992,-0.360195 0.18383,-0.403371 0.31462,-1.123716 1.10644,0.568098 3.81811,2.626306 4.44251,3.925498 0.13111,0.136758 -1.71385,-1.329403 -4.10654,-1.13437 2.69716,0.540214 4.44646,1.688106 4.71577,2.005699 0.87886,1.03644 0.9791,1.231646 1.36248,2.220706 0.91447,2.359335 0.39373,7.346506 -0.45185,7.800401 -3.21822,1.727577 -7.4433,1.890889 -9.05153,1.848005 -2.44065,-0.06508 -5.950195,-0.882322 -7.37115,-1.419442 l 0.455889,0.968334 c 2.032914,0.823496 4.368981,1.478998 6.891501,1.557869 1.70616,0.0455 5.40098,0.339645 8.94385,-1.462503 2.79406,-1.421242 2.55865,-6.822843 1.57403,-9.362998 -1.22739,-3.166585 -5.30089,-6.649616 -7.40513,-7.692209 0.10134,-0.836534 -0.21264,-3.681648 0.11212,-6.056263 0.0788,-0.576057 -0.10611,-1.191984 -0.39403,-1.600095 -0.7757,-1.099491 -3.36608,-1.933512 -4.28191,-2.651038 -2.142732,-1.678814 -3.414248,-2.901125 -5.98102,-3.926543 -2.513256,-1.004039 -3.439332,-1.693769 -5.154432,-1.630088 z"
         id="path10"
         sodipodi:nodetypes="cccscccscsssscccccsssscsccccccccscccscccssscc"
         inkscape:label="main outline" /><g
         id="g66"
         inkscape:label="band"
         inkscape:groupmode="layer"><path
           style="font-variation-settings:normal;display:inline;opacity:1;vector-effect:none;fill:#867c61;fill-opacity:1;stroke:none;stroke-width:1;stroke-linecap:butt;stroke-linejoin:miter;stroke-miterlimit:4;stroke-dasharray:none;stroke-dashoffset:0;stroke-opacity:1;-inkscape-stroke:none;paint-order:fill markers stroke"
           d="m 87.474301,40.614859 c 1.993811,0.366691 8.299004,1.63292 13.737649,0.13088 1.64678,-0.454802 4.59391,-2.780733 4.59391,-2.780733 -0.26086,-1.39615 -0.25917,-2.931248 -0.0597,-4.570994 -1.15105,1.057649 -2.7476,2.574827 -5.951676,3.113515 -5.80261,0.975564 -11.842075,-0.104803 -17.618696,-1.247114 -1.900421,-0.375804 -5.578004,-1.730843 -6.858094,-2.214011 0.03496,0.786704 -0.06193,1.364179 -0.103288,1.933466 5.562677,0.122718 8.586209,3.265536 12.259946,5.634991 z"
           id="path65"
           sodipodi:nodetypes="csccssccc"
           inkscape:label="fill" /><path
           style="font-variation-settings:normal;display:inline;opacity:1;vector-effect:none;fill:#403a2d;fill-opacity:0.0595169;stroke:none;stroke-width:1;stroke-linecap:butt;stroke-linejoin:miter;stroke-miterlimit:4;stroke-dasharray:none;stroke-dashoffset:0;stroke-opacity:1;-inkscape-stroke:none;paint-order:fill markers stroke"
           d="m 87.542658,40.772596 c 1.993811,0.366691 8.299003,1.63292 13.737652,0.130881 1.64678,-0.454803 3.77453,-2.475431 3.77453,-2.475431 -0.14274,-0.76393 -0.0981,-1.202864 -0.0992,-1.667892 -0.80512,0.543607 -1.71768,1.184791 -2.84122,1.534107 0.80986,-0.412142 2.7442,-1.941179 2.75366,-2.053963 0.0223,-0.266579 0.0588,-0.583775 0.10885,-0.994775 -1.15107,1.057648 -1.71295,1.843292 -4.93074,2.275476 -5.287385,0.710148 -7.883661,0.69209 -13.956393,-0.398007 0.0367,0.238006 3.100426,0.969159 2.797913,1.139708 -0.422915,0.238431 -3.118164,0.01149 -3.850889,0.09694 l 6.894186,1.022655 4.37958,-0.197473 c -0.767236,0.198489 -1.348073,0.427874 -2.927016,0.491809 l 2.795141,0.347728 c -2.48977,0.01984 -6.704895,-0.285905 -9.423042,-0.772527 1.358454,0.480693 2.213986,1.118749 0.7871,1.520764 z"
           id="path67"
           sodipodi:nodetypes="cscccscscsccccccc"
           inkscape:label="shadow" /><path
           id="path62"
           style="color:#000000;fill:#716951;fill-opacity:1;stroke-width:1;-inkscape-stroke:none;paint-order:fill markers stroke"
           inkscape:label="outline"
           d="m 106.24451,32.742506 c -0.18124,-0.283122 -0.66271,0.07534 -0.82889,0.229025 -1.15714,1.063233 -3.66865,2.710851 -6.754558,3.229672 -5.693088,0.95715 -10.411915,0.01462 -16.188513,-1.091017 -2.26823,-0.434138 -6.257999,-1.773814 -7.623572,-2.774736 -0.123228,0.341403 0.153545,0.913829 0.02965,2.618338 l 0.659511,0.08272 c -0.07303,-0.445782 -0.174606,-1.312285 -0.150071,-1.747515 1.492598,0.86763 4.91644,2.088274 6.731679,2.447233 5.782515,1.143478 11.841609,2.312817 17.753726,1.318844 2.726228,-0.45835 4.242548,-1.380142 5.382548,-2.369505 -0.0204,0.319962 -0.0823,1.278981 -0.1087,1.585986 -0.56108,0.468725 -1.77545,1.720538 -4.67175,2.558074 3.26515,-0.594376 4.68341,-2.053263 4.68341,-2.053263 0,0 -0.0314,0.740331 0.014,1.03736 -1.33122,1.41675 -3.71616,2.37579 -4.62443,2.626633 -5.280552,1.458372 -11.134245,0.222022 -13.144155,-0.147627 l 0.131338,0.638035 c 1.977706,0.363726 8.205407,1.896217 13.802167,0.350517 1.6381,-0.452404 4.93316,-2.605284 5.03344,-3.07832 -0.17237,-0.76479 -0.38008,-1.379924 -0.41946,-2.029777 -0.006,-0.09898 0.10112,-0.254719 0.0976,-0.352899 -0.0341,-0.973053 0.0536,-1.918925 0.19506,-3.077769 z m -22.271251,5.406342 c 0,0 4.916682,0.569624 6.937604,0.888294 2.014487,0.317651 6.875822,-0.110729 6.880268,-0.151163 -2.2e-5,4.19e-4 -2.741792,0.783092 -5.039254,0.507091 1.188272,0.226842 1.482183,0.296204 2.614883,0.525931 -1.360836,0.06327 -4.270436,-0.487767 -4.663431,-0.508845 -2.314425,-0.124122 -6.73007,-1.261308 -6.73007,-1.261308 z"
           sodipodi:nodetypes="ccssccccsscccccsccsccccccscccsc" /></g><path
         id="path64"
         style="color:#000000;display:inline;fill:#7d694f;stroke-width:1;-inkscape-stroke:none;paint-order:fill markers stroke"
         d="m 75.1711,34.573539 c -2.593957,0.16601 -12.305296,2.164966 -10.789207,8.791609 3.049027,2.736003 7.072482,4.037178 11.114362,5.036115 2.681711,0.610418 5.386066,0.645273 8.11777,0.547939 3.280346,-0.133927 10.009483,-1.16759 13.834191,-0.787538 C 95.973849,47.203842 94.809881,46.126323 93.592985,45.189702 91.44228,43.534346 89.630727,41.856723 87.515346,39.941389 83.931567,36.696522 80.395788,34.239163 75.1711,34.573539 Z m 0.528376,0.849933 c 3.739272,8.5e-4 7.053876,2.341437 10.038607,4.544802 2.44552,1.8199 5.99473,5.108613 8.268208,6.702237 -3.955647,-0.43418 -7.680183,0.988886 -11.169258,1.131337 -2.646344,0.108036 -5.907699,0.193853 -8.445563,-0.443842 -3.706197,-0.931267 -5.994034,-2.15428 -9.095343,-4.634597 -1.466865,-5.292299 7.487931,-7.300598 10.403349,-7.299937 z"
         sodipodi:nodetypes="sccccssssscsscs"
         inkscape:label="borderR" /><g
         id="g62"
         inkscape:label="holes"
         transform="matrix(1.0214476,0,0,1.1068117,-3.0812652,-3.3846429)"
         style="stroke-width:0.940491"><ellipse
           style="font-variation-settings:normal;opacity:1;fill:#473a2c;fill-opacity:1;stroke:#a99378;stroke-width:0.248838;stroke-linecap:butt;stroke-linejoin:miter;stroke-miterlimit:4;stroke-dasharray:none;stroke-dashoffset:0;stroke-opacity:1;paint-order:fill markers stroke"
           id="path61"
           cx="81.01104"
           cy="28.809677"
           rx="0.56669593"
           ry="1.1634724" /><ellipse
           style="font-variation-settings:normal;opacity:1;fill:#473a2c;fill-opacity:1;stroke:#a99378;stroke-width:0.248838;stroke-linecap:butt;stroke-linejoin:miter;stroke-miterlimit:4;stroke-dasharray:none;stroke-dashoffset:0;stroke-opacity:1;paint-order:fill markers stroke"
           id="ellipse61"
           cx="83.390472"
           cy="29.580006"
           rx="0.60819346"
           ry="1.2486701" /><ellipse
           style="font-variation-settings:normal;opacity:1;fill:#473a2c;fill-opacity:1;stroke:#a99378;stroke-width:0.248838;stroke-linecap:butt;stroke-linejoin:miter;stroke-miterlimit:4;stroke-dasharray:none;stroke-dashoffset:0;stroke-opacity:1;paint-order:fill markers stroke"
           id="ellipse62"
           cx="85.738708"
           cy="30.363918"
           rx="0.67028809"
           ry="1.3761554" /></g></g><g
       id="g28"
       inkscape:label="Eye L"
       style="display:inline;stroke-width:1.29185"
       transform="matrix(0.72802042,0,0,0.82305035,34.868317,4.6457068)"
       inkscape:groupmode="layer"><ellipse
         style="display:inline;fill:#2c473f;fill-opacity:1;stroke:none;stroke-width:1.29184;stroke-opacity:1;-inkscape-stroke:none;paint-order:fill markers stroke"
         id="ellipse26"
         inkscape:label="fill"
         ry="4.7340765"
         rx="4.2153554"
         cy="28.084808"
         cx="130.44212" /><path
         id="path26"
         style="display:inline;fill:#16241f;fill-opacity:0.158085;stroke:none;stroke-width:1.29184;stroke-opacity:1;-inkscape-stroke:none;paint-order:fill markers stroke"
         inkscape:label="shadow"
         d="m 133.16856,25.697793 c 0.18418,1.913745 -1.13357,4.012392 -3.47967,4.012319 -0.97711,-0.0024 -2.08661,-0.271515 -2.74729,-1.052515 0.18523,1.930589 1.96563,3.209255 3.6503,3.402528 1.95686,0.224498 3.5985,-1.874161 3.59853,-3.970332 -1.1e-4,-0.950735 -0.42904,-1.691811 -1.02187,-2.392 z"
         sodipodi:nodetypes="cccscc" /><path
         style="color:#000000;display:inline;fill:#263e36;fill-opacity:1;stroke-width:1.29185;-inkscape-stroke:none;paint-order:fill markers stroke"
         d="m 130.49409,23.172144 c -2.71438,0 -4.67123,1.772705 -4.67123,4.801862 0,3.029157 1.7569,5.134855 4.47126,5.134855 2.71438,0 4.63489,-1.897009 4.63489,-4.926166 0,-3.029161 -1.72055,-5.010551 -4.43492,-5.010551 z m 0.10081,0.763664 c 1.96074,0.166159 3.68179,1.90283 3.68181,4.102785 0,2.199952 -1.79764,4.33864 -3.71154,4.193999 -1.93727,-0.146408 -3.81698,-2.243243 -3.93371,-4.4394 -0.11906,-2.239692 2.02733,-4.021459 3.96344,-3.857384 z"
         id="path27"
         sodipodi:nodetypes="ssssssssss"
         inkscape:label="outline" /><ellipse
         style="fill:#ffffff;fill-opacity:1;stroke:none;stroke-width:1.29184;stroke-opacity:1;-inkscape-stroke:none;paint-order:fill markers stroke"
         id="ellipse27"
         cx="129.06088"
         cy="25.78586"
         rx="1.1857103"
         ry="1.1080202"
         inkscape:label="fx big" /><ellipse
         style="fill:#ffffff;fill-opacity:1;stroke:none;stroke-width:1.29184;stroke-opacity:1;-inkscape-stroke:none;paint-order:fill markers stroke"
         id="ellipse28"
         cx="127.74506"
         cy="27.132105"
         rx="0.37520206"
         ry="0.38116178"
         inkscape:label="fx small" /><path
         id="path28"
         style="fill:#ffffff;stroke-width:1.29184;paint-order:fill markers stroke"
         d="m 132.99227,30.602453 c -0.029,0.115445 -0.14292,0.505721 -0.66138,0.875497 -0.54171,0.386346 -0.87644,0.294562 -0.91386,0.162467 -0.10205,-0.360143 0.45619,-0.301987 0.78194,-0.484401 0.45897,-0.257027 0.84011,-0.738756 0.7933,-0.553563 z"
         sodipodi:nodetypes="sssss"
         inkscape:label="fix long" /></g><g
       id="g17"
       inkscape:label="Antenna R"
       inkscape:groupmode="layer"
       style="display:inline"><path
         style="display:inline;fill:#93b86b;fill-opacity:1;stroke:none;stroke-width:1;stroke-opacity:1;-inkscape-stroke:none;paint-order:fill markers stroke"
         d="m 102.61427,55.483186 c 1.06354,-0.913918 1.85734,-1.406466 1.51088,-3.931567 0,0 -1.13817,-1.426286 -2.47137,-2.619596 -2.006308,-3.795019 -2.106642,-14.497394 -2.083726,-15.549585 1.526196,-1.144754 5.440066,-2.410373 6.056116,-4.912805 1.43348,-7.674882 -3.18655,-7.869222 -5.647577,-7.7482 -3.349067,0.16469 -4.936746,2.663911 -5.267398,6.008734 -0.09015,0.972248 0.289642,4.761399 0.989314,5.621909 1.421505,5.935549 0.845763,10.873888 -0.125001,17.26806 -0.481789,1.115845 -1.236247,2.174589 -2.29372,3.169874 0.388601,2.273356 1.505959,3.043746 2.56245,3.358993 2.531373,0.431148 4.738092,0.09042 6.770032,-0.665817 z"
         id="path17"
         inkscape:label="fill"
         sodipodi:nodetypes="cccccscccccc" /><path
         style="font-variation-settings:normal;display:inline;opacity:1;vector-effect:none;fill:#242e17;fill-opacity:0.10199;stroke:none;stroke-width:1;stroke-linecap:butt;stroke-linejoin:miter;stroke-miterlimit:4;stroke-dasharray:none;stroke-dashoffset:0;stroke-opacity:1;-inkscape-stroke:none;paint-order:fill markers stroke;stop-color:#000000;stop-opacity:1"
         d="m 102.64279,55.42644 c 0.87746,-0.411791 1.09037,-2.309575 0.94643,-2.995141 -0.21743,-1.0357 -1.25535,-1.796345 -1.87167,-2.440153 0,0 -0.11736,0.529517 0.0557,1.867209 -1.820573,-5.152568 -3.622393,-13.007152 -2.661528,-18.044337 -0.385537,-0.160094 -1.074454,-0.212193 -0.838286,-0.341776 1.655985,-0.908607 6.323214,-2.55289 6.779304,-5.095237 1.05183,-5.863078 -2.05055,-7.354817 -4.7705,-7.234835 -2.232821,0.0985 -3.491516,1.283366 -4.179237,3.053327 -0.187913,0.483622 -0.561681,2.313897 0.0517,4.559857 0.102558,0.375541 0.403882,1.147116 0.265126,1.236258 -0.209264,0.134438 -0.620413,-1.078735 -0.658761,-0.685336 -0.09472,0.97174 0.555013,2.396468 1.41314,3.067776 0.758944,0.593715 0.616905,12.063809 0.527046,18.869067 -0.04904,3.713808 -0.557203,1.951062 -1.553473,2.405067 -1.918071,0.87408 -0.868866,2.022404 0.935045,2.299887 1.931204,0.297066 4.979474,-0.249239 5.559894,-0.521633 z"
         id="path30"
         inkscape:label="shadow"
         sodipodi:nodetypes="sscccssssssssssss" /><path
         style="color:#000000;fill:#6c9046;fill-opacity:1;stroke-width:1;-inkscape-stroke:none;paint-order:fill markers stroke"
         d="m 99.51502,20.509477 c -4.065438,0.61011 -5.457818,3.461218 -5.621582,6.547287 -0.07221,1.667131 0.398783,4.119427 1.624724,5.696968 0.03081,0.281138 0.745859,4.302153 0.684873,7.500824 -0.06342,3.326678 -0.807651,8.190691 -1.578442,10.283287 -0.266082,0.722406 -1.632529,1.203859 -1.769579,2.479518 -0.07042,0.655437 -0.0278,2.868329 3.652872,3.316111 -2.292446,-0.725224 -2.558914,-1.667835 -2.637409,-3.188569 0.07393,-0.688222 1.293442,-1.082413 1.703742,-2.196328 0.93435,-2.536648 1.278955,-6.855647 1.34186,-10.154784 0.0453,-2.375905 0.217664,-3.133957 -0.20651,-8.314119 -1.012189,-1.127465 -1.736589,-3.183454 -1.67318,-4.647827 0.108426,-2.504027 0.13554,-6.417581 5.272151,-6.964364 3.97422,-0.423049 5.46837,3.332839 5.14174,6.544056 -0.20876,2.052581 -3.15328,4.958973 -7.121908,6.145932 0.213122,0.199886 0.455316,0.190549 0.803481,0.42094 -0.120095,1.505949 -0.273833,4.445892 0.193408,6.749269 0.44056,2.17179 1.575839,9.106346 2.487569,11.247167 0.0725,-0.648325 -0.0891,-1.70281 -0.0281,-1.901913 0.82718,0.735975 2.05111,1.229267 2.04448,2.255097 -0.0132,2.056662 -0.29985,2.648262 -1.87875,3.287752 1.8281,0.0203 2.71574,-2.170969 2.69329,-3.424033 0.0148,-2.01725 -2.06937,-2.271476 -2.66083,-3.660254 -0.80984,-1.901564 -1.47836,-5.302897 -1.91988,-7.479371 -0.582972,-2.873855 0.34281,-6.951373 0.33501,-7.44951 1.07495,-0.835726 5.23598,-2.47389 5.57154,-5.61401 0.61396,-5.745169 -2.26866,-8.107303 -6.454482,-7.479126 z"
         id="path6"
         inkscape:label="outline"
         sodipodi:nodetypes="sscssscssscsssccsccsccsscss" /><g
         id="g22"
         inkscape:label="Eye"
         transform="translate(-0.18221369,0.06951688)"
         inkscape:groupmode="layer"><ellipse
           style="display:inline;fill:#2c473f;fill-opacity:1;stroke:none;stroke-width:0.999993;stroke-opacity:1;-inkscape-stroke:none;paint-order:fill markers stroke"
           id="path22"
           inkscape:label="fill"
           ry="4.5804787"
           rx="4.2153554"
           cy="25.714882"
           cx="100.83375" /><path
           id="ellipse23"
           style="display:inline;fill:#16241f;fill-opacity:0.158085;stroke:none;stroke-width:0.999993;stroke-opacity:1;-inkscape-stroke:none;paint-order:fill markers stroke"
           inkscape:label="shadow"
           d="m 103.55997,23.405293 c 0.18419,1.851652 -1.13356,3.88221 -3.47967,3.882138 -0.977096,-0.0023 -2.086593,-0.262707 -2.747253,-1.018364 0.185206,1.867949 1.965603,3.105131 3.650283,3.29213 1.95686,0.217213 3.59848,-1.813352 3.59851,-3.841514 -1e-4,-0.919888 -0.42902,-1.636918 -1.02187,-2.31439 z"
           sodipodi:nodetypes="cccscc" /><path
           style="color:#000000;display:inline;fill:#263e36;fill-opacity:1;stroke-width:1;-inkscape-stroke:none;paint-order:fill markers stroke"
           d="m 100.88551,20.961587 c -2.714367,0 -4.671198,1.715191 -4.671198,4.646066 0,2.930879 1.75689,4.968255 4.471228,4.968255 2.71438,0 4.63489,-1.835462 4.63489,-4.766338 0,-2.930877 -1.72054,-4.847983 -4.43492,-4.847983 z m 0.10082,0.738888 c 1.96072,0.160767 3.68177,1.841092 3.68179,3.96967 0,2.128575 -1.79763,4.197871 -3.71153,4.057923 -1.937261,-0.141657 -3.816961,-2.17046 -3.933695,-4.295364 -0.119055,-2.167024 2.027327,-3.89098 3.963435,-3.732229 z"
           id="ellipse22"
           sodipodi:nodetypes="ssssssssss"
           inkscape:label="outline" /><ellipse
           style="fill:#ffffff;fill-opacity:1;stroke:none;stroke-width:0.999993;stroke-opacity:1;-inkscape-stroke:none;paint-order:fill markers stroke"
           id="path24"
           cx="98.499474"
           cy="24.293552"
           rx="1.0906959"
           ry="1.0720704"
           inkscape:label="fx big" /><ellipse
           style="fill:#ffffff;fill-opacity:1;stroke:none;stroke-width:0.999993;stroke-opacity:1;-inkscape-stroke:none;paint-order:fill markers stroke"
           id="ellipse24"
           cx="99.881996"
           cy="22.634556"
           rx="0.37520206"
           ry="0.36879495"
           inkscape:label="fx small" /><path
           id="ellipse25"
           style="fill:#ffffff;stroke-width:0.999993;paint-order:fill markers stroke"
           d="m 103.90215,27.624777 c 0.11237,0.164384 -0.4965,0.846981 -0.80882,1.110376 -0.36419,0.307128 -1.17472,0.539493 -1.17472,0.335818 0,-0.203676 0.52919,-0.217062 1.07431,-0.627346 0.75593,-0.568949 0.78595,-0.999223 0.90923,-0.818848 z"
           sodipodi:nodetypes="sssss"
           inkscape:label="fix long" /></g></g><g
       id="g20"
       inkscape:label="Star"
       inkscape:groupmode="layer"><path
         style="color:#000000;fill:#b1a048;stroke-width:1;-inkscape-stroke:none;paint-order:fill markers stroke"
         d="m 76.218192,78.942057 c -3.012569,0.407872 -5.467892,3.595662 -5.524277,7.058244 -0.05638,3.462578 2.305739,5.998139 5.318311,5.590266 3.012571,-0.407869 5.467893,-3.59566 5.524276,-7.058241 0.05638,-3.46258 -2.305739,-5.998139 -5.31831,-5.590269 z"
         id="path7"
         inkscape:label="back fill" /><path
         id="path55"
         style="font-variation-settings:normal;display:inline;opacity:1;fill:#4a351e;fill-opacity:0.138429;stroke:none;stroke-width:0.396875;stroke-linecap:butt;stroke-linejoin:miter;stroke-miterlimit:4;stroke-dasharray:none;stroke-dashoffset:0;stroke-opacity:1;paint-order:fill markers stroke"
         inkscape:label="back shadow"
         d="m 76.478579,89.671274 c 0,0 -1.803068,1.379058 -1.876714,1.38903 0.47241,0.01588 0.929506,0.06039 1.393416,0.03863 0.150953,-0.007 0.302931,-0.253828 0.456091,-0.278215 0.165638,-0.02639 0.332712,0.167863 0.502784,0.113286 0.27378,-0.08785 0.554556,-0.217611 0.84635,-0.406521 z m 4.133654,-3.229363 c -0.0451,-0.20106 -0.134885,-0.321576 -0.114348,-0.556174 0.01143,-0.130095 0.230384,-0.206166 0.30737,-0.292662 l 0.170414,-0.962062 -1.286072,1.090022 0.674466,2.050564 z m -2.998717,-7.134669 0.454302,2.270604 2.245829,0.03697 -0.357298,-0.575221 c -0.420845,-0.08035 -0.505377,0.01256 -1.168168,-0.370802 -0.471166,-0.272528 -0.521929,-0.751205 -0.82312,-1.142611 z m -6.776927,7.216405 c 0.182791,0.565769 0.762529,1.126177 1.234758,1.567229 l 0.343636,-0.846719 z"
         sodipodi:nodetypes="ccscscccccccccccccscccccc" /><path
         id="path60"
         style="color:#000000;font-variation-settings:normal;opacity:1;vector-effect:none;fill:#d3d391;fill-opacity:1;stroke-width:1;stroke-linecap:butt;stroke-linejoin:miter;stroke-miterlimit:4;stroke-dasharray:none;stroke-dashoffset:0;stroke-opacity:1;-inkscape-stroke:none;paint-order:fill markers stroke;stop-color:#000000;stop-opacity:1"
         inkscape:label="big circle"
         d="m 76.443483,78.825884 c -3.093401,0.600343 -5.809129,3.811832 -5.86776,7.412366 1.151436,1.590866 0.606786,3.643646 3.644513,4.720798 -1.663252,-0.698913 -2.819498,-2.395131 -2.936299,-4.676919 -0.167194,-3.266272 2.384412,-6.28778 5.444689,-6.746781 1.44679,-0.217003 2.589841,0.282996 3.361143,1.211688 -0.27863,-1.089125 -2.303822,-2.150727 -3.646286,-1.921152 z"
         sodipodi:nodetypes="cccsscc" /><path
         style="color:#000000;fill:#96863d;stroke-width:1;-inkscape-stroke:none;paint-order:fill markers stroke"
         d="m 76.156483,78.675403 c -3.093403,0.600343 -5.808959,3.811725 -5.867589,7.412261 -0.05863,3.600537 2.331057,6.345105 5.492823,5.917036 3.161765,-0.428071 5.767625,-3.725271 5.826256,-7.325807 0.05863,-3.600535 -2.291377,-6.616778 -5.45149,-6.00349 z m 0.285132,0.70941 c 2.862637,-0.353452 4.542199,1.799306 4.488062,5.123922 -0.05414,3.324617 -1.754147,6.207378 -4.617517,6.595049 -2.863368,0.38767 -5.164954,-1.739506 -5.233487,-5.018312 -0.06909,-3.30527 2.598781,-6.35936 5.362942,-6.700659 z"
         id="path52"
         sodipodi:nodetypes="ssssssssss"
         inkscape:label="big circle" /><path
         style="color:#000000;fill:#b1a048;stroke-width:1;-inkscape-stroke:none;paint-order:fill markers stroke"
         d="m 76.205838,75.138774 c -1.122481,0.151974 -1.351325,1.899415 -0.494989,2.073157 -1.63245,3.138604 -1.773201,4.346598 -2.107356,5.055319 -0.574691,0.09098 -1.516871,0.427856 -4.256696,1.079487 -0.209693,-1.177522 -1.948205,-0.769601 -1.968356,0.467918 -0.01354,0.831831 0.873482,1.203702 1.531479,0.651422 1.082755,1.113161 2.236041,2.185849 3.638983,3.115283 l -1.283676,4.458504 c -1.370165,0.02676 -1.69273,2.255915 -0.179916,2.032681 0.675769,-0.09972 1.157565,-0.78377 1.004561,-1.385419 l 4.329552,-3.241222 3.507442,2.101033 c -0.191186,0.810571 -0.01449,1.440399 0.803919,1.402499 1.217343,-0.164826 1.172451,-2.316762 -0.0418,-2.006563 -0.10042,-1.867236 -0.564918,-3.504788 -0.902458,-5.222432 1.088033,-1.043378 2.168363,-1.98175 3.056985,-3.081054 0.177777,0.133382 1.054354,0.389858 1.2331,-0.908836 0.142552,-1.035758 -1.067157,-1.465617 -1.549602,0.05198 l -4.529854,-0.231214 c -0.407279,-1.496196 -0.690518,-3.024742 -1.42708,-4.435055 0.943119,-0.444115 0.765427,-2.130435 -0.364232,-1.977491 z"
         id="path47"
         sodipodi:nodetypes="scccscccscccscccscccs"
         inkscape:label="star fill" /><path
         id="path57"
         style="color:#000000;display:inline;fill:#d3d391;fill-opacity:1;stroke-width:1;-inkscape-stroke:none;paint-order:fill markers stroke"
         inkscape:label="star light"
         d="m 76.178162,75.180803 c -0.856452,0.140239 -1.288355,1.592222 -0.456644,2.073797 -0.993571,1.732347 -1.77505,3.408324 -2.088844,5.176355 -1.278173,-0.129072 -3.531486,0.572843 -4.196654,0.915683 -0.178012,-0.455865 -0.369151,-0.716919 -0.863141,-0.650038 -0.364772,0.0045 -1.286189,0.594448 -0.959586,1.511934 0.0072,-0.446661 0.640511,-0.997192 1.044346,-1.043528 0.48588,-0.05573 0.486552,-0.0041 0.648647,0.432577 2.411252,-0.619443 4.222748,-0.821149 4.805821,-0.652315 0.707462,-2.237227 0.735359,-3.743686 1.911583,-5.767474 -0.3417,-0.09838 -0.446024,-0.539726 -0.415922,-0.880629 0.07453,-0.844125 1.157034,-0.952036 1.330462,-0.653166 -0.06294,-0.207067 -0.05118,-0.446561 -0.583584,-0.472769 -0.06062,-0.003 -0.119393,3.15e-4 -0.176485,0.0096 z m 2.06693,6.349504 -0.540717,0.396169 c 2.022514,0.0399 3.736549,0.207471 5.056458,0.16619 0.06727,-0.691086 0.589303,-1.215017 1.199587,-0.883093 -0.61277,-0.837087 -1.333352,0.1937 -1.415761,0.639038 -1.171903,-0.236679 -2.657654,-0.470224 -4.299567,-0.318304 z m -4.791633,5.519457 -0.908175,0.689004 c -0.749267,1.519264 -1.038464,2.973206 -1.257933,4.306517 -0.358887,-5.5e-4 -1.419306,0.449776 -1.060698,1.626028 0.0032,-0.195282 0.325324,-1.212833 1.300377,-1.23289 0.354556,-1.589886 1.298915,-3.758056 1.926429,-5.388659 z"
         sodipodi:nodetypes="ccccccscccscscccccccccccccc" /><path
         id="path56"
         style="color:#000000;font-variation-settings:normal;display:inline;opacity:1;vector-effect:none;fill:#4a351e;fill-opacity:0.138429;stroke:none;stroke-width:0.396875;stroke-linecap:butt;stroke-linejoin:miter;stroke-miterlimit:4;stroke-dasharray:none;stroke-dashoffset:0;stroke-opacity:1;-inkscape-stroke:none;paint-order:fill markers stroke;stop-color:#000000;stop-opacity:1"
         inkscape:label="star shadow"
         d="m 76.894426,75.870129 c -0.04075,0.563604 -0.345086,0.864523 -0.730905,1.117496 0.800584,1.556032 0.941136,3.133262 1.15814,4.806716 l 0.438215,0.063 c -0.39035,-1.517787 -0.748014,-3.587494 -1.434528,-4.854533 0.457126,-0.191483 0.671729,-0.638267 0.569078,-1.132676 z m 6.409947,6.471706 c -0.237603,0.03582 -0.439864,-0.004 -0.609142,-0.144156 -0.960272,1.330936 -2.367028,2.271464 -3.674428,3.341698 0.675511,1.801231 1.534991,3.518525 1.485705,5.504946 0.729066,0.09003 0.712521,0.253035 0.702325,0.475523 -0.01988,0.4338 -0.234318,0.806405 -0.514346,0.916422 -0.217209,0.08533 -0.589842,-0.290829 -0.573252,-0.491286 0.01893,-0.229431 -9.59e-4,-0.411619 0.105484,-0.609998 -1.149696,-0.770076 -2.655987,-1.531172 -3.819508,-2.695411 -4.118753,3.282724 -4.523604,3.807472 -4.693214,3.949514 0.04348,0.225562 -0.286499,1.201084 -1.266402,1.063321 0.184298,0.35325 1.541779,0.341895 1.347631,-1.058912 1.540633,-0.907074 3.220195,-2.574583 4.553627,-3.612214 1.104997,0.784943 2.753336,2.133907 3.806511,2.423847 -0.09426,0.147804 -0.119529,0.455356 -0.118668,0.608929 0.0013,0.248102 0.291887,0.627652 0.584292,0.59136 0.25529,-0.03169 0.792936,-0.193461 0.804411,-0.898063 0.0066,-0.410269 0.03817,-0.735948 -0.873888,-0.703362 0.09766,-1.892796 -0.656655,-3.743078 -1.161454,-5.408084 1.340346,-0.981361 2.660218,-2.321622 3.351022,-3.264026 0.103135,0.08589 0.310225,0.210195 0.571968,0.178024 0.282418,-0.0347 0.727988,-0.367436 0.55783,-1.098682 -0.0136,0.421074 0.03866,0.806115 -0.566504,0.93061 z m -14.346954,1.57402 c -0.173808,0.176122 -0.698663,0.591998 -1.15771,0.289122 0.249745,0.461357 0.836533,0.429495 1.124936,-0.09187 1.28893,1.205187 2.67659,2.768697 3.848183,3.560566 l 0.511469,-0.545131 c -1.373108,-0.758106 -3.055331,-1.89286 -4.326878,-3.212685 z"
         sodipodi:nodetypes="ccccccccccssscccccccssscccscccccccc" /><path
         style="color:#000000;fill:#96863d;stroke-width:1;-inkscape-stroke:none;paint-order:fill markers stroke"
         d="m 76.159892,74.918137 c -0.605745,0.03956 -1.167815,0.570431 -1.20817,1.301938 -0.02706,0.489452 0.136744,0.934079 0.487826,1.085544 -0.993577,1.732355 -1.735019,3.13263 -2.048818,4.900666 -1.278177,-0.12907 -3.264154,0.534316 -3.929326,0.877163 -0.178011,-0.455868 -0.575078,-0.756232 -1.069073,-0.68935 -0.645809,0.08743 -1.153648,0.723413 -1.241746,1.450429 -0.08896,0.734113 0.59321,1.235717 1.239281,1.162026 0.275837,-0.0314 0.292598,-0.167502 0.448925,-0.264027 0.769739,1.327857 1.980077,2.037322 3.195473,2.813734 -0.74927,1.519272 -0.736239,2.998229 -0.955708,4.331545 -1.013709,0.216945 -1.162062,0.974917 -1.168453,1.36737 -0.01184,0.728297 0.650179,1.091333 1.296012,1.002335 0.738046,-0.101705 1.187165,-0.75927 1.055127,-1.417812 1.540635,-0.907077 3.054631,-1.804078 4.225382,-3.002998 0.929644,0.936236 2.141233,1.459799 3.19441,1.749744 -0.04914,0.141694 -0.143258,0.327038 -0.14577,0.481114 -0.01146,0.704748 0.547081,1.121752 1.150848,1.040007 0.603761,-0.08175 1.148512,-0.693093 1.159987,-1.397689 0.0066,-0.410271 -0.125638,-1.059588 -1.03774,-1.027 0.09766,-1.892804 -0.282293,-3.297465 -0.787096,-4.962479 1.340349,-0.981361 2.116649,-1.960716 2.807453,-2.903123 0.103135,0.08589 0.319796,0.166683 0.580674,0.102083 0.456416,-0.11303 0.898336,-0.608091 0.821685,-1.285574 -0.07774,-0.687046 -0.279614,-1.016846 -0.860845,-1.019246 -0.380753,-0.0015 -0.802659,0.62693 -0.868971,0.985287 -1.17191,-0.236681 -2.691999,-0.450836 -4.333916,-0.298918 -0.176241,-1.593604 -0.679912,-2.977662 -1.366428,-4.244705 0.312174,-0.277221 0.485607,-0.594827 0.49264,-1.026663 -0.0012,-0.942155 -0.483721,-1.15386 -1.133663,-1.111399 z m 0.04121,0.465923 c 0.403636,-0.08336 0.754143,0.24641 0.754783,0.691294 7.2e-4,0.504348 -0.202458,0.742979 -0.591018,0.927811 0.800584,1.556038 1.048449,3.193643 1.435016,4.850099 1.825407,-0.129154 3.330204,0.01721 4.824556,0.125543 0.104008,-0.432749 0.348128,-0.863602 0.724343,-0.969941 0.367537,-0.04977 0.607936,0.213737 0.600885,0.647016 -0.007,0.433275 -0.228019,0.824006 -0.595002,0.873694 -0.237604,0.03583 -0.450794,-0.02026 -0.620073,-0.160379 -0.960274,1.330939 -2.017781,2.180025 -3.325184,3.25026 0.675511,1.801236 1.094683,3.480017 1.045397,5.466444 0.679604,-0.07806 1.020183,-0.10539 1.009964,0.522199 -0.007,0.432284 -0.321764,0.973974 -0.69974,1.025154 -0.377975,0.05117 -0.778981,-0.239015 -0.773018,-0.671003 0.0031,-0.227881 0.113819,-0.417072 0.220202,-0.615442 -1.205834,-0.771227 -2.604422,-1.305694 -3.846663,-2.312332 -4.118766,3.282731 -4.075938,3.344177 -4.541366,3.571466 0.06437,0.169057 0.02309,0.347717 0.0084,0.536788 -0.07251,0.354604 -0.31932,0.686478 -0.717579,0.740394 -0.404048,0.05469 -0.9018,-0.143541 -0.894527,-0.590371 0.0032,-0.195282 0.227091,-0.986183 1.202148,-1.006241 0.354563,-1.589891 0.982793,-3.280032 1.610306,-4.910643 -1.373109,-0.758156 -2.82488,-1.904235 -4.096429,-3.224065 -0.173809,0.176123 -0.209832,0.354241 -0.479214,0.3992 -0.403471,0.06733 -0.864363,-0.240822 -0.857093,-0.687493 0.0072,-0.446666 0.472483,-0.945961 0.876532,-1.000668 0.485535,-0.04738 0.750487,0.255825 0.838246,0.69496 2.411263,-0.619443 4.035703,-1.025577 4.618779,-0.856778 0.707465,-2.237235 0.844386,-3.53382 2.020615,-5.557617 -0.438184,-0.03195 -0.518096,-0.525854 -0.529097,-0.861767 -0.01772,-0.540956 0.453914,-0.831123 0.775703,-0.897579 z"
         id="path51"
         sodipodi:nodetypes="sscccssscccsscccssscccsssccccsssccsssccccsssccssscccssscccsss"
         inkscape:label="star outline" /><path
         style="color:#000000;font-variation-settings:normal;opacity:1;vector-effect:none;fill:#d3d391;fill-opacity:1;stroke-width:1;stroke-linecap:butt;stroke-linejoin:miter;stroke-miterlimit:4;stroke-dasharray:none;stroke-dashoffset:0;stroke-opacity:1;-inkscape-stroke:none;paint-order:fill markers stroke;stop-color:#000000;stop-opacity:1"
         d="m 76.269357,81.608306 c -1.785646,0.241761 -3.225211,2.129477 -3.258156,4.152688 -0.03295,2.023212 1.367548,3.425638 3.137047,3.284688 1.781648,-0.141912 3.331111,-2.144768 3.260119,-4.150795 -0.07027,-1.985955 -1.353366,-3.528338 -3.13901,-3.286581 z m 0.149777,0.461389 c 1.484559,-0.314119 2.649684,1.316469 2.621219,3.064525 -0.02847,1.748056 -1.288868,3.25644 -2.771258,3.364053 -1.443424,0.104782 -2.606079,-1.186969 -2.577614,-2.935023 0.02847,-1.748057 1.270466,-3.185227 2.727653,-3.493555 z"
         id="path58"
         sodipodi:nodetypes="ssssssssss"
         inkscape:label="small circle light" /><path
         style="color:#000000;font-variation-settings:normal;display:inline;opacity:1;vector-effect:none;fill:#d3d391;fill-opacity:1;fill-rule:evenodd;stroke-width:1;stroke-linecap:butt;stroke-linejoin:miter;stroke-miterlimit:4;stroke-dasharray:none;stroke-dashoffset:0;stroke-opacity:1;-inkscape-stroke:none;paint-order:fill markers stroke;stop-color:#000000;stop-opacity:1"
         d="m 76.399359,82.797116 c -1.315381,0.134061 -2.146344,1.202632 -2.155679,2.49513 -0.0085,1.19066 0.584108,1.904886 1.588604,1.768677 0.830259,-0.112582 1.597269,-0.69448 1.667746,-1.633481 0.05988,-0.797565 -0.548409,-1.491513 -1.323638,-1.361194 -0.549348,0.09235 -0.879959,0.529601 -0.825234,1.084331 0.03445,0.349133 0.30538,0.651952 0.563332,0.602198 0.186528,-0.03596 0.344862,-0.188958 0.389915,-0.325996 0.0372,-0.113163 0.0059,-0.24276 -0.05272,-0.319113 0.04677,0.117851 0.0347,0.448346 -0.273213,0.47017 -0.203731,0.0144 -0.378971,-0.228495 -0.392221,-0.395029 -0.02406,-0.302461 0.267871,-0.735414 0.71815,-0.811093 0.323995,-0.05447 0.997756,0.387526 0.920442,1.046615 -0.06781,0.577894 -0.734275,1.022755 -1.372732,1.088839 -0.72764,0.07533 -1.245739,-0.472456 -1.308706,-1.276518 -0.09042,-1.154574 0.831029,-1.911933 1.828871,-2.038314 1.141125,-0.144558 1.946258,0.770005 1.961178,2.142527 0.0079,0.732907 -0.153182,1.361482 -0.704821,1.963998 -0.64333,0.702663 -1.078878,1.066815 -2.766761,1.251658 0.889068,0.295875 2.288342,-0.286101 2.945205,-1.096091 0.576629,-0.711059 0.960958,-1.454251 0.995504,-2.319846 0.0448,-1.122491 -0.360028,-2.545717 -2.403223,-2.337469 z"
         id="path59"
         sodipodi:nodetypes="sssssssscssssssssscsss"
         inkscape:label="spiral light" /><path
         style="color:#000000;font-variation-settings:normal;opacity:1;vector-effect:none;fill:#96863d;fill-opacity:1;stroke-width:1;stroke-linecap:butt;stroke-linejoin:miter;stroke-miterlimit:4;stroke-dasharray:none;stroke-dashoffset:0;stroke-opacity:1;-inkscape-stroke:none;paint-order:fill markers stroke;stop-color:#000000;stop-opacity:1"
         d="m 76.174959,81.547696 c -1.785646,0.24176 -3.22521,2.129475 -3.258157,4.152688 -0.03295,2.023211 1.367549,3.425636 3.137046,3.284689 1.781648,-0.141915 3.331111,-2.14477 3.260121,-4.150798 -0.07028,-1.985951 -1.353367,-3.528336 -3.13901,-3.286579 z m 0.149776,0.46139 c 1.484559,-0.314121 2.649684,1.316469 2.62122,3.064524 -0.02847,1.748053 -1.288868,3.256439 -2.77126,3.364053 -1.443422,0.104783 -2.606077,-1.18697 -2.577612,-2.935025 0.02847,-1.748057 1.270466,-3.185225 2.727652,-3.493552 z"
         id="path53"
         sodipodi:nodetypes="ssssssssss"
         inkscape:label="small circle" /><path
         style="color:#000000;fill:#96863d;fill-rule:evenodd;stroke-width:1.03635;-inkscape-stroke:none"
         d="m 76.332844,82.737698 c -1.315382,0.134061 -2.146344,1.202634 -2.15568,2.49513 -0.0085,1.190659 0.584109,1.904884 1.588606,1.768676 0.830257,-0.112581 1.59727,-0.69448 1.667744,-1.633481 0.05988,-0.797566 -0.548408,-1.491513 -1.323639,-1.361193 -0.549348,0.09235 -0.879959,0.529601 -0.825232,1.084331 0.03444,0.349134 0.305378,0.65195 0.563331,0.602199 0.186529,-0.03601 0.344862,-0.18896 0.389916,-0.325997 0.0372,-0.113154 0.0059,-0.242758 -0.05271,-0.319113 0.04676,0.117849 0.0347,0.448345 -0.273215,0.470168 -0.20373,0.0144 -0.378971,-0.228492 -0.39222,-0.395029 -0.02406,-0.302459 0.267872,-0.735415 0.718149,-0.811094 0.323995,-0.0545 0.997755,0.387527 0.920442,1.046617 -0.0678,0.577894 -0.734275,1.022754 -1.372732,1.088838 -0.727638,0.07532 -1.24574,-0.472456 -1.308705,-1.276516 -0.09041,-1.154574 0.831028,-1.911935 1.82887,-2.038313 1.141126,-0.144547 1.946257,0.770002 1.96118,2.142526 0.0079,0.732905 -0.153183,1.361482 -0.704822,1.963996 -0.643332,0.702662 -1.078879,1.066815 -2.766762,1.251661 0.889068,0.295873 2.288343,-0.286102 2.945206,-1.096093 0.57663,-0.711059 0.960957,-1.454252 0.995502,-2.319848 0.0448,-1.122489 -0.360027,-2.545714 -2.403222,-2.337465 z"
         id="path54"
         sodipodi:nodetypes="sssssssscssssssssscsss"
         inkscape:label="spiral" /></g></g><metadata
     id="metadata28"><rdf:RDF><cc:Work
         rdf:about=""><cc:license
           rdf:resource="http://creativecommons.org/licenses/by-sa/4.0/" /><dc:creator><cc:Agent><dc:title>Guillaume 'GuieA_7' ENGLERT</dc:title></cc:Agent></dc:creator></cc:Work><cc:License
         rdf:about="http://creativecommons.org/licenses/by-sa/4.0/"><cc:permits
           rdf:resource="http://creativecommons.org/ns#Reproduction" /><cc:permits
           rdf:resource="http://creativecommons.org/ns#Distribution" /><cc:requires
           rdf:resource="http://creativecommons.org/ns#Notice" /><cc:requires
           rdf:resource="http://creativecommons.org/ns#Attribution" /><cc:permits
           rdf:resource="http://creativecommons.org/ns#DerivativeWorks" /><cc:requires
           rdf:resource="http://creativecommons.org/ns#ShareAlike" /></cc:License></rdf:RDF></metadata></svg>
