<?xml version="1.0" encoding="UTF-8" standalone="no"?>
<!-- Created with Inkscape (http://www.inkscape.org/) -->

<svg
   width="164"
   height="256"
   viewBox="0 0 43.391668 67.733333"
   version="1.1"
   id="svg5"
   inkscape:version="1.3 (1:1.3+202307231459+0e150ed6c4)"
   sodipodi:docname="dash.svg"
   inkscape:export-filename="boots.png"
   inkscape:export-xdpi="96"
   inkscape:export-ydpi="96"
   xml:space="preserve"
   xmlns:inkscape="http://www.inkscape.org/namespaces/inkscape"
   xmlns:sodipodi="http://sodipodi.sourceforge.net/DTD/sodipodi-0.dtd"
   xmlns="http://www.w3.org/2000/svg"
   xmlns:svg="http://www.w3.org/2000/svg"><sodipodi:namedview
     id="namedview7"
     pagecolor="#ffffff"
     bordercolor="#666666"
     borderopacity="1.0"
     inkscape:showpageshadow="2"
     inkscape:pageopacity="0.0"
     inkscape:pagecheckerboard="true"
     inkscape:deskcolor="#d1d1d1"
     inkscape:document-units="px"
     showgrid="false"
     inkscape:zoom="1"
     inkscape:cx="-153.5"
     inkscape:cy="90.5"
     inkscape:window-width="1868"
     inkscape:window-height="1016"
     inkscape:window-x="52"
     inkscape:window-y="27"
     inkscape:window-maximized="1"
     inkscape:current-layer="layer1" /><defs
     id="defs2" /><g
     inkscape:label="Main"
     inkscape:groupmode="layer"
     id="layer1"><rect
       style="fill:#71422b;fill-opacity:1;stroke-width:4.06345;stroke-linecap:round;stroke-opacity:0.523214;stop-color:#000000"
       id="rect234"
       width="46.939754"
       height="69.952309"
       x="-1.7342585"
       y="-2.91874"
       ry="0.0019524163"
       inkscape:label="bg" /><rect
       style="fill:none;fill-opacity:1;stroke:#bfa349;stroke-width:3.90956;stroke-linecap:round;stroke-opacity:1;stop-color:#000000"
       id="rect9312"
       width="43.319679"
       height="67.694405"
       x="0.069148958"
       y="0.034578465"
       ry="0"
       inkscape:label="border" /><text
       xml:space="preserve"
       style="font-style:normal;font-variant:normal;font-weight:normal;font-stretch:normal;font-size:15.9543px;line-height:1.25;font-family:QumpellkaNo12;-inkscape-font-specification:QumpellkaNo12;letter-spacing:0px;word-spacing:0px;fill:#bfa349;fill-opacity:1;stroke:none;stroke-width:0.398858"
       x="-59.035892"
       y="44.035519"
       id="text1"
       inkscape:label="font ref"><tspan
         sodipodi:role="line"
         id="tspan1"
         style="font-style:normal;font-variant:normal;font-weight:normal;font-stretch:normal;font-family:QumpellkaNo12;-inkscape-font-specification:QumpellkaNo12;fill:#bfa349;fill-opacity:1;stroke-width:0.398858"
         x="-59.035892"
         y="44.035519">W&amp;W</tspan></text><g
       id="g11"
       style="display:inline"
       inkscape:label="boot"><g
         inkscape:groupmode="layer"
         id="layer4"
         inkscape:label="colorfill"
         style="display:inline"
         transform="matrix(0.30594293,0,0,0.30594293,-89.157463,-61.00183)"><path
           style="display:inline;opacity:1;vector-effect:none;fill:#bca06c;fill-opacity:1;stroke:none;stroke-width:7.02511;stroke-linecap:butt;stroke-linejoin:miter;stroke-miterlimit:4;stroke-dasharray:none;stroke-dashoffset:0;stroke-opacity:1;marker:none;marker-start:none;marker-mid:none;marker-end:none"
           d="m 319.15962,232.74393 c 22.17666,5.49246 44.42621,3.86395 64.09882,-0.65974 l 0.17126,31.32497 c -12.74246,6.96013 -43.27878,8.86066 -66.77904,1.01042 z"
           id="path911"
           inkscape:connector-curvature="0"
           sodipodi:nodetypes="ccccc" /><path
           sodipodi:nodetypes="ccccccc"
           inkscape:connector-curvature="0"
           id="path932"
           style="display:inline;opacity:1;vector-effect:none;fill:#ae764b;fill-opacity:1;stroke:none;stroke-width:7.02511;stroke-linecap:butt;stroke-linejoin:miter;stroke-miterlimit:4;stroke-dasharray:none;stroke-dashoffset:0;stroke-opacity:1;marker:none;marker-start:none;marker-mid:none;marker-end:none"
           d="m 347.64151,320.12509 c -11.63008,-2.15516 -16.2926,-4.20142 -22.55558,-6.76942 l 1.13385,-11.93838 c 5.23019,-12.94797 3.4666,-18.14839 1.70663,-31.65026 l 50.11598,-0.852 0.46568,13.48318 c -24.7504,3.28575 -28.83569,19.36989 -30.86656,37.72688 z" /><path
           style="display:inline;opacity:1;vector-effect:none;fill:#c6b5a6;fill-opacity:1;stroke:none;stroke-width:7.02511;stroke-linecap:butt;stroke-linejoin:miter;stroke-miterlimit:4;stroke-dasharray:none;stroke-dashoffset:0;stroke-opacity:1;marker:none;marker-start:none;marker-mid:none;marker-end:none"
           d="m 326.70584,314.32915 -3.61719,12.59317 c 0,0 47.01791,20.35738 73.49244,17.40492 11.00084,-1.22682 13.92835,-7.9362 13.92835,-7.9362 l -0.6217,-11.06327 c -13.72985,7.20891 -25.93806,5.65409 -83.1819,-10.99862 z"
           id="path953"
           inkscape:connector-curvature="0"
           sodipodi:nodetypes="ccsccc" /><path
           style="display:inline;opacity:1;vector-effect:none;fill:#a2bcc4;fill-opacity:1;stroke:none;stroke-width:7.02511;stroke-linecap:butt;stroke-linejoin:miter;stroke-miterlimit:4;stroke-dasharray:none;stroke-dashoffset:0;stroke-opacity:1;marker:none;marker-start:none;marker-mid:none;marker-end:none"
           d="m 347.2292,319.49645 c 0,0 1.35629,-16.50389 5.88618,-22.40487 5.57294,-7.2596 11.6191,-12.38966 21.87099,-12.56221 11.09729,-0.18686 24.31874,3.73222 30.9248,12.65092 4.18563,5.6509 4.3758,22.12213 4.3758,22.12213 0,0 -3.1068,6.7286 -11.81249,8.93895 -19.0616,4.83965 -51.24528,-8.74492 -51.24528,-8.74492 z"
           id="path973"
           inkscape:connector-curvature="0"
           sodipodi:nodetypes="cssscsc" /></g><g
         inkscape:groupmode="layer"
         id="layer7"
         inkscape:label="light"
         transform="matrix(0.30594293,0,0,0.30594293,-89.157463,-61.00183)"><path
           style="opacity:1;vector-effect:none;fill:#ffffff;fill-opacity:0.180328;stroke:none;stroke-width:7.02511;stroke-linecap:butt;stroke-linejoin:miter;stroke-miterlimit:4;stroke-dasharray:none;stroke-dashoffset:0;stroke-opacity:1;marker:none;marker-start:none;marker-mid:none;marker-end:none"
           d="m 348.15383,319.78931 c 0,0 10.22404,-4.48469 11.52553,-12.40369 1.12565,-6.84885 4.24759,-15.47439 16.02606,-18.0018 7.62272,-1.6357 14.55925,-0.69186 19.20926,-1.0977 -13.52085,-6.29561 -25.02306,-6.73942 -35.23532,2.52465 -12.04223,10.92418 -9.15786,19.55881 -11.52553,28.97854 z"
           id="path2646" /></g><g
         inkscape:groupmode="layer"
         id="layer5"
         inkscape:label="shadow"
         style="display:inline"
         transform="matrix(0.30594293,0,0,0.30594293,-89.157463,-61.00183)"><path
           sodipodi:nodetypes="ssscss"
           inkscape:connector-curvature="0"
           id="path1716"
           d="m 351.32949,319.13226 c -4.52724,-1.39548 13.60014,1.87275 15.97741,-1.87972 3.13457,-4.94791 4.17878,-14.49061 10.24664,-17.41155 18.13754,-8.73108 28.93287,4.22508 29.67592,20.60667 -1.49758,1.24663 -3.93441,4.20331 -11.94352,5.08801 -15.64631,1.72831 -33.95295,-3.31994 -43.95645,-6.40341 z"
           style="display:inline;opacity:1;vector-effect:none;fill:#010202;fill-opacity:0.0688524;stroke:none;stroke-width:7.02511;stroke-linecap:butt;stroke-linejoin:miter;stroke-miterlimit:4;stroke-dasharray:none;stroke-dashoffset:0;stroke-opacity:1;marker:none;marker-start:none;marker-mid:none;marker-end:none" /><path
           style="display:inline;opacity:1;vector-effect:none;fill:#16120e;fill-opacity:0.0655738;stroke:none;stroke-width:7.02511;stroke-linecap:butt;stroke-linejoin:miter;stroke-miterlimit:4;stroke-dasharray:none;stroke-dashoffset:0;stroke-opacity:1;marker:none;marker-start:none;marker-mid:none;marker-end:none"
           d="m 326.76073,315.42682 c -0.36724,1.49811 2.30023,3.34225 7.3217,5.02787 11.37718,3.81915 7.19507,9.28017 7.09345,9.54045 0.0889,-0.15599 30.13323,12.62802 55.95403,10.81956 11.042,-0.77338 11.7879,-5.24692 11.7879,-5.24692 -1.08151,-3.31981 -2.42051,-6.64068 0.96993,-10.24001 -13.72985,7.20891 -25.88316,6.75176 -83.12701,-9.90095 z"
           id="path1778" /><path
           style="display:inline;opacity:1;vector-effect:none;fill:#302015;fill-opacity:0.0688524;stroke:none;stroke-width:7.02511;stroke-linecap:butt;stroke-linejoin:miter;stroke-miterlimit:4;stroke-dasharray:none;stroke-dashoffset:0;stroke-opacity:1;marker:none;marker-start:none;marker-mid:none;marker-end:none"
           d="m 347.86106,315.84418 c -11.63008,-2.15516 -11.15992,-1.84264 -16.07933,-3.64108 -2.79179,-1.02061 4.75824,1.09004 10.68157,-5.02737 3.81871,-3.94384 -0.60448,-3.55187 -5.81563,-4.00215 -11.32898,-6.91247 19.00843,-6.15957 -2.5216,-25.96268 -3.80026,-3.49542 -4.27178,-5.03966 -5.15688,-6.40109 l 48.14018,-1.56548 c -0.74013,4.6526 -2.90707,8.60994 -2.33339,12.82457 -3.62989,0.6153 -5.71678,1.23774 -8.42275,2.29502 -0.37146,0.14504 -1.72283,-10.40795 -2.07852,-10.25471 -0.52005,0.22403 0.78772,10.61014 -0.5229,11.40011 -11.04937,6.66016 -14.10549,16.23996 -15.89075,30.33486 z"
           id="path1799" /><path
           sodipodi:nodetypes="cssssssssscssscssssssssscsc"
           inkscape:connector-curvature="0"
           id="path1847"
           d="m 355.89384,240.63549 c 9.50104,-1.22552 23.2431,-1.81971 24.59995,-2.28417 2.15055,-0.73614 -1.28685,3.2984 -0.91317,5.92429 0.0793,0.55858 -0.77311,1.48284 -0.65858,2.05668 0.10787,0.53989 1.18075,0.72854 1.31576,1.28032 0.29904,1.22197 0.44056,5.01967 0.84428,6.28744 0.10986,0.34527 -1.64039,1.4447 -1.52456,1.79256 0.12844,0.38616 1.30903,0.44786 1.44384,0.83674 0.24228,0.69947 0.49409,1.40295 0.75168,2.10913 0.64165,1.7591 -8.17165,4.13782 -7.8525,4.12896 5.86913,-0.16263 7.99816,-2.25303 8.14443,-1.79087 -1.98662,2.36986 -13.31348,5.55051 -25.66006,6.36737 -17.81358,1.17852 -30.04167,-2.21012 -32.96413,-3.90869 -1.16664,-0.67806 8.3205,1.42343 13.8945,1.87099 6.3441,0.50939 4.00049,-1.05775 -3.8843,-1.69247 0.41925,-0.53352 5.85741,-1.27384 6.09966,-2.26236 0.0664,-0.27115 0.68533,-0.71108 0.72904,-1.01184 0.0604,-0.41374 -0.12612,-1.36137 -0.47275,-1.36432 -2.65386,-0.0232 -0.0199,-1.16093 -0.13508,-1.90667 -0.12247,-0.78543 -0.29174,-1.74932 -0.58944,-2.61984 -0.13575,-0.39635 6.00828,-1.08407 5.83835,-1.45128 -0.14139,-0.30567 -6.76763,-1.08559 -6.92956,-1.37527 -0.49031,-0.8769 -0.89206,-0.8987 -1.51579,-1.70092 -0.29904,-0.3845 0.57271,-0.85553 0.25058,-1.21517 -0.36399,-0.40647 -2.06236,-0.45672 -2.44739,-0.83216 -1.93156,-4.06186 -11.06872,-2.27865 -11.31824,-7.89979 -0.083,-1.87055 22.47799,1.87869 32.95348,0.66134 z"
           style="display:inline;opacity:1;vector-effect:none;fill:#4c3d23;fill-opacity:0.0786885;stroke:none;stroke-width:7.02511;stroke-linecap:butt;stroke-linejoin:miter;stroke-miterlimit:4;stroke-dasharray:none;stroke-dashoffset:0;stroke-opacity:1;marker:none;marker-start:none;marker-mid:none;marker-end:none" /></g><g
         inkscape:groupmode="layer"
         id="layer3"
         inkscape:label="outline"
         style="display:inline"
         transform="matrix(0.30594293,0,0,0.30594293,-89.157463,-61.00183)"><path
           id="path10"
           style="font-variation-settings:normal;opacity:1;vector-effect:none;fill:#84683b;fill-opacity:1;stroke:none;stroke-width:0;stroke-linecap:butt;stroke-linejoin:miter;stroke-miterlimit:4;stroke-dasharray:none;stroke-dashoffset:0;stroke-opacity:1;-inkscape-stroke:none;marker:none;marker-start:none;marker-mid:none;marker-end:none;stop-color:#000000;stop-opacity:1"
           d="m 351.70748,225.69874 c -16.65038,0.184 -26.30975,1.15494 -33.88168,2.69415 10.91827,4.92839 19.11595,5.96872 31.87089,5.85196 10.45455,-0.58113 25.96784,-0.63234 36.82767,-5.91108 -7.51949,-1.53456 -14.04207,-2.8645 -34.81688,-2.63503 z"
           sodipodi:nodetypes="scccs" /><path
           style="color:#000000;font-style:normal;font-variant:normal;font-weight:normal;font-stretch:normal;font-size:medium;line-height:normal;font-family:sans-serif;font-variant-ligatures:normal;font-variant-position:normal;font-variant-caps:normal;font-variant-numeric:normal;font-variant-alternates:normal;font-feature-settings:normal;text-indent:0;text-align:start;text-decoration:none;text-decoration-line:none;text-decoration-style:solid;text-decoration-color:#000000;letter-spacing:normal;word-spacing:normal;text-transform:none;writing-mode:lr-tb;direction:ltr;text-orientation:mixed;dominant-baseline:auto;baseline-shift:baseline;text-anchor:start;white-space:normal;shape-padding:0;clip-rule:nonzero;display:inline;overflow:visible;visibility:visible;opacity:1;isolation:auto;mix-blend-mode:normal;color-interpolation:sRGB;color-interpolation-filters:linearRGB;solid-color:#000000;solid-opacity:1;vector-effect:none;fill:#b59e8b;fill-opacity:1;fill-rule:nonzero;stroke:none;stroke-width:7.02511;stroke-linecap:butt;stroke-linejoin:miter;stroke-miterlimit:4;stroke-dasharray:none;stroke-dashoffset:0;stroke-opacity:1;marker:none;color-rendering:auto;image-rendering:auto;shape-rendering:auto;text-rendering:auto;enable-background:accumulate"
           d="m 323.78334,313.48421 c -0.24195,4.67806 -2.99584,11.44173 -3.79259,15.24166 11.69195,4.38645 22.0528,8.37772 31.51963,11.30728 15.6854,4.80365 34.62864,9.53022 48.97389,7.78529 7.40599,-0.90087 15.13432,-4.36963 17.21055,-11.05236 -1.36674,-3.17098 -4.79557,-8.55186 -4.2903,-14.14637 l -5.49916,4.75801 c 0.28344,3.90278 1.32941,6.01522 2.36074,8.241 -2.20534,3.10391 -7.43169,4.86272 -10.55969,5.21825 -12.10971,1.3764 -30.96958,-2.12911 -46.28987,-6.82093 -13.90495,-4.25834 -26.37243,-8.27088 -28.32454,-9.07635 1.47381,-4.73348 2.34852,-7.43142 2.62827,-10.39584 z"
           id="path1019"
           inkscape:connector-curvature="0"
           sodipodi:nodetypes="cccsccccssccc" /><path
           style="color:#000000;font-style:normal;font-variant:normal;font-weight:normal;font-stretch:normal;font-size:medium;line-height:normal;font-family:sans-serif;font-variant-ligatures:normal;font-variant-position:normal;font-variant-caps:normal;font-variant-numeric:normal;font-variant-alternates:normal;font-feature-settings:normal;text-indent:0;text-align:start;text-decoration:none;text-decoration-line:none;text-decoration-style:solid;text-decoration-color:#000000;letter-spacing:normal;word-spacing:normal;text-transform:none;writing-mode:lr-tb;direction:ltr;text-orientation:mixed;dominant-baseline:auto;baseline-shift:baseline;text-anchor:start;white-space:normal;shape-padding:0;clip-rule:nonzero;display:inline;overflow:visible;visibility:visible;opacity:1;isolation:auto;mix-blend-mode:normal;color-interpolation:sRGB;color-interpolation-filters:linearRGB;solid-color:#000000;solid-opacity:1;vector-effect:none;fill:#94623f;fill-opacity:1;fill-rule:nonzero;stroke:none;stroke-width:7.02511;stroke-linecap:butt;stroke-linejoin:miter;stroke-miterlimit:4;stroke-dasharray:none;stroke-dashoffset:0;stroke-opacity:1;marker:none;color-rendering:auto;image-rendering:auto;shape-rendering:auto;text-rendering:auto;enable-background:accumulate"
           d="m 324.8922,269.136 c 3.40039,7.67091 4.15008,18.32453 1.55738,27.66012 -0.35254,0.13741 -1.8835,2.08387 -2.13919,2.82642 -1.78709,5.1897 -1.6303,10.19643 -1.49074,15.64833 9.90632,3.92584 19.73127,6.80294 27.69245,8.3103 l -2.90782,-7.22059 c -10.1504,-1.88095 -12.93672,-2.3779 -18.55988,-4.59956 -0.59007,-2.75629 -0.8686,-7.34778 1.76873,-9.48074 1.09877,1.07172 4.69004,1.823 7.40792,0.86117 -2.43023,0.23996 -7.63686,-3.27291 -6.74034,-7.95209 1.78104,-9.39096 0.54543,-19.89409 -3.7003,-25.75957 z m 52.33745,-1.06419 c -0.86764,5.62681 -1.70442,10.8196 -0.86266,16.82981 l 5.5649,-0.73949 c -0.63013,-4.4993 -1.97414,-10.42053 -1.09721,-16.10734 z"
           id="path1015"
           inkscape:connector-curvature="0"
           sodipodi:nodetypes="ccscccccccccccccc" /><path
           id="path1744"
           style="display:inline;opacity:1;vector-effect:none;fill:#9e6943;fill-opacity:1;stroke:none;stroke-width:7.02511;stroke-linecap:butt;stroke-linejoin:miter;stroke-miterlimit:4;stroke-dasharray:none;stroke-dashoffset:0;stroke-opacity:1;marker:none;marker-start:none;marker-mid:none;marker-end:none"
           d="m 374.75484,270.12266 c -1.38158,4.34005 -1.24938,9.14751 -1.32127,13.60638 l -1.56097,-0.32526 c -0.21208,-4.39093 -0.51311,-8.79165 0.0933,-13.0933 z m -12.09178,0.72154 c 1.95848,4.11207 2.48071,8.89291 3.15778,13.30067 l 1.50228,-0.53438 c -0.38665,-4.37902 -0.68619,-8.77984 -1.87155,-12.95919 z"
           inkscape:connector-curvature="0" /><path
           id="path1814"
           style="opacity:1;vector-effect:none;fill:#ae8a4f;fill-opacity:1;stroke:none;stroke-width:7.02511;stroke-linecap:butt;stroke-linejoin:miter;stroke-miterlimit:4;stroke-dasharray:none;stroke-dashoffset:0;stroke-opacity:1;marker:none;marker-start:none;marker-mid:none;marker-end:none"
           d="m 321.01219,237.84123 0.0266,1.64823 c 3.53663,1.3366 4.56189,1.8749 6.24128,2.24649 14.68012,3.24829 23.84828,-0.31331 11.655,0.38795 -9.29948,-0.49528 -15.13259,-2.69531 -17.92373,-4.28267 z m 62.74483,-0.38672 c -5.78519,2.61496 -8.73743,2.96999 -17.60728,4.23863 -12.39951,1.77347 -0.41818,1.93949 8.98558,-0.0916 3.02575,-0.65356 5.89515,-1.27358 8.53849,-2.34347 z"
           inkscape:connector-curvature="0"
           sodipodi:nodetypes="ccsccccsscc" /><path
           style="color:#000000;font-style:normal;font-variant:normal;font-weight:normal;font-stretch:normal;font-size:medium;line-height:normal;font-family:sans-serif;font-variant-ligatures:normal;font-variant-position:normal;font-variant-caps:normal;font-variant-numeric:normal;font-variant-alternates:normal;font-feature-settings:normal;text-indent:0;text-align:start;text-decoration:none;text-decoration-line:none;text-decoration-style:solid;text-decoration-color:#000000;letter-spacing:normal;word-spacing:normal;text-transform:none;writing-mode:lr-tb;direction:ltr;text-orientation:mixed;dominant-baseline:auto;baseline-shift:baseline;text-anchor:start;white-space:normal;shape-padding:0;clip-rule:nonzero;display:inline;overflow:visible;visibility:visible;opacity:1;isolation:auto;mix-blend-mode:normal;color-interpolation:sRGB;color-interpolation-filters:linearRGB;solid-color:#000000;solid-opacity:1;vector-effect:none;fill:#ae8a4f;fill-opacity:1;fill-rule:nonzero;stroke:none;stroke-width:7.02511;stroke-linecap:butt;stroke-linejoin:miter;stroke-miterlimit:4;stroke-dasharray:none;stroke-dashoffset:0;stroke-opacity:1;marker:none;color-rendering:auto;image-rendering:auto;shape-rendering:auto;text-rendering:auto;enable-background:accumulate"
           d="m 317.81259,228.37112 c -1.24162,2.88005 0.49532,4.42442 0.61816,6.45031 0.62831,10.36211 -0.15865,20.06933 -3.45552,30.59032 5.6966,7.40884 25.06497,8.12421 37.70849,7.80861 12.44575,-0.31065 30.82939,-1.46269 36.11945,-8.18717 -2.83959,-8.73172 -5.44317,-17.7621 -3.64178,-29.935 0.31796,-2.14948 2.24826,-3.27148 1.38925,-6.75803 -22.89455,2.20062 -47.8433,4.74934 -68.73805,0.0299 z m 4.64115,5.57968 c 19.23193,4.00368 41.43584,2.29313 58.8296,-1.03292 0.68994,-0.13176 0.7618,0.48035 0.68812,0.96269 -1.30949,8.57556 -0.77803,20.01171 0.98549,27.4897 -8.99275,4.68741 -21.03528,6.05495 -30.60303,5.92786 -10.46288,-0.13906 -22.57304,0.34146 -31.90678,-4.56096 1.52485,-9.16855 3.84792,-18.86096 1.61267,-27.74031 -0.24062,-0.5135 0.1155,-1.121 0.39393,-1.04606 z"
           id="path1017"
           inkscape:connector-curvature="0"
           sodipodi:nodetypes="cscscsccccssccccc" /><path
           style="color:#000000;font-style:normal;font-variant:normal;font-weight:normal;font-stretch:normal;font-size:medium;line-height:normal;font-family:sans-serif;font-variant-ligatures:normal;font-variant-position:normal;font-variant-caps:normal;font-variant-numeric:normal;font-variant-alternates:normal;font-feature-settings:normal;text-indent:0;text-align:start;text-decoration:none;text-decoration-line:none;text-decoration-style:solid;text-decoration-color:#000000;letter-spacing:normal;word-spacing:normal;text-transform:none;writing-mode:lr-tb;direction:ltr;text-orientation:mixed;dominant-baseline:auto;baseline-shift:baseline;text-anchor:start;white-space:normal;shape-padding:0;clip-rule:nonzero;display:inline;overflow:visible;visibility:visible;opacity:1;isolation:auto;mix-blend-mode:normal;color-interpolation:sRGB;color-interpolation-filters:linearRGB;solid-color:#000000;solid-opacity:1;vector-effect:none;fill:#8ca2a9;fill-opacity:1;fill-rule:nonzero;stroke:none;stroke-width:7.02511;stroke-linecap:butt;stroke-linejoin:miter;stroke-miterlimit:4;stroke-dasharray:none;stroke-dashoffset:0;stroke-opacity:1;marker:none;color-rendering:auto;image-rendering:auto;shape-rendering:auto;text-rendering:auto;enable-background:accumulate"
           d="m 378.43791,281.01816 c -11.47891,0.11118 -20.89602,5.79448 -26.6194,14.09991 -5.37693,7.80267 -5.99551,18.04726 -5.98001,26.58312 7.65697,3.40358 15.19011,5.54609 21.78705,7.30556 11.01982,2.89353 24.5189,5.63707 35.22489,2.6383 6.15545,-1.72416 12.41518,-6.00178 11.82391,-12.35517 -0.55927,-7.87254 -2.36385,-18.977 -6.93264,-24.2758 -7.38914,-8.56975 -18.72377,-14.09841 -29.3038,-13.99592 z m 0.0455,5.3904 c 10.2178,-0.17193 18.29157,5.31608 23.61834,12.78637 4.15084,5.82116 5.30162,12.51036 5.75236,19.86793 0.19549,3.29266 -4.73696,5.24082 -7.12268,5.85339 -8.27978,2.12599 -21.72048,2.19758 -32.25644,-0.569 -9.21979,-2.42087 -17.25526,-4.48399 -18.96777,-5.16308 0.56996,-5.38114 1.97179,-16.77607 5.63647,-21.69376 4.91028,-6.58916 14.31375,-10.92998 23.33972,-11.08185 z"
           id="path1021"
           inkscape:connector-curvature="0"
           sodipodi:nodetypes="ssccscsssscsccss" /><path
           id="path1495"
           style="opacity:1;vector-effect:none;fill:#b59e8b;fill-opacity:1;stroke:none;stroke-width:0;stroke-linecap:butt;stroke-linejoin:miter;stroke-miterlimit:4;stroke-dasharray:none;stroke-dashoffset:0;stroke-opacity:1;marker:none;marker-start:none;marker-mid:none;marker-end:none"
           d="m 336.92182,329.89298 -0.082,-3.49279 -2.26033,-0.81494 -0.0972,3.82266 z m 12.07439,3.78698 -0.082,-3.49279 -2.26033,-0.81493 -0.0973,3.82266 z m 6.31164,1.75625 -0.082,-3.49279 -2.26034,-0.81493 -0.0972,3.82266 z m 20.14231,5.37859 -0.0528,-3.80325 -2.81643,-0.50448 -0.11915,3.82266 z m -7.35442,-1.81115 -0.0684,-3.45396 -2.70653,-0.71792 0.007,3.68682 z m -6.3665,-1.59163 -0.082,-3.4928 -2.26033,-0.81493 -0.0973,3.82266 z"
           inkscape:connector-curvature="0" /><path
           style="opacity:1;vector-effect:none;fill:#ae8a4f;fill-opacity:1;stroke:none;stroke-width:7.02511;stroke-linecap:butt;stroke-linejoin:miter;stroke-miterlimit:4;stroke-dasharray:none;stroke-dashoffset:0;stroke-opacity:1;marker:none;marker-start:none;marker-mid:none;marker-end:none"
           d="m 337.91999,263.83764 c 4.23836,-0.48845 7.6132,-0.3537 14.70313,-0.13708 7.451,0.22768 15.05175,-1.2823 19.9141,-1.05336 6.20842,0.2924 -13.84388,2.52548 -20.06402,2.52976 -4.07603,0.003 -18.58397,-0.87477 -14.55321,-1.33929 z"
           id="path1823"
           inkscape:connector-curvature="0"
           sodipodi:nodetypes="sssss" /></g></g><text
       xml:space="preserve"
       style="font-style:normal;font-variant:normal;font-weight:normal;font-stretch:normal;font-size:4.93888895px;line-height:1.25;font-family:QumpellkaNo12;-inkscape-font-specification:QumpellkaNo12;letter-spacing:0px;word-spacing:0px;fill:#bfa349;fill-opacity:1;stroke:none;stroke-width:0.192362"
       x="3.2593584"
       y="58.40044"
       id="text11"
       inkscape:label="description"><tspan
         sodipodi:role="line"
         id="tspan11"
         style="font-style:normal;font-variant:normal;font-weight:normal;font-stretch:normal;font-family:QumpellkaNo12;-inkscape-font-specification:QumpellkaNo12;fill:#bfa349;fill-opacity:1;stroke-width:0.192362;font-size:4.93888895px"
         x="3.2593584"
         y="58.40044">+1 to dice</tspan></text><text
       xml:space="preserve"
       style="font-style:normal;font-variant:normal;font-weight:normal;font-stretch:normal;font-size:7.69446px;line-height:1.25;font-family:QumpellkaNo12;-inkscape-font-specification:QumpellkaNo12;letter-spacing:0px;word-spacing:0px;fill:#bfa349;fill-opacity:1;stroke:none;stroke-width:0.192362"
       x="3.2593584"
       y="50.9921"
       id="text10"
       inkscape:label="title"><tspan
         sodipodi:role="line"
         id="tspan10"
         style="font-style:normal;font-variant:normal;font-weight:normal;font-stretch:normal;font-family:QumpellkaNo12;-inkscape-font-specification:QumpellkaNo12;fill:#bfa349;fill-opacity:1;stroke-width:0.192362"
         x="3.2593584"
         y="50.9921">Boots</tspan></text></g></svg>
