<?xml version="1.0" encoding="UTF-8" standalone="no"?>
<!-- Created with Inkscape (http://www.inkscape.org/) -->

<svg
   width="164"
   height="256"
   viewBox="0 0 43.391668 67.733333"
   version="1.1"
   id="svg5"
   inkscape:version="1.3 (1:1.3+202307231459+0e150ed6c4)"
   sodipodi:docname="mudwall.svg"
   inkscape:export-filename="mudwall.png"
   inkscape:export-xdpi="96"
   inkscape:export-ydpi="96"
   xml:space="preserve"
   xmlns:inkscape="http://www.inkscape.org/namespaces/inkscape"
   xmlns:sodipodi="http://sodipodi.sourceforge.net/DTD/sodipodi-0.dtd"
   xmlns:xlink="http://www.w3.org/1999/xlink"
   xmlns="http://www.w3.org/2000/svg"
   xmlns:svg="http://www.w3.org/2000/svg"><sodipodi:namedview
     id="namedview7"
     pagecolor="#ffffff"
     bordercolor="#666666"
     borderopacity="1.0"
     inkscape:showpageshadow="2"
     inkscape:pageopacity="0.0"
     inkscape:pagecheckerboard="true"
     inkscape:deskcolor="#d1d1d1"
     inkscape:document-units="px"
     showgrid="false"
     inkscape:zoom="1.4142136"
     inkscape:cx="10.253048"
     inkscape:cy="228.04193"
     inkscape:window-width="1868"
     inkscape:window-height="1016"
     inkscape:window-x="52"
     inkscape:window-y="27"
     inkscape:window-maximized="1"
     inkscape:current-layer="layer1" /><defs
     id="defs2"><linearGradient
       inkscape:collect="always"
       id="linearGradient987"><stop
         style="stop-color:#ac5d42;stop-opacity:0.98823529"
         offset="0"
         id="stop983" /><stop
         style="stop-color:#994f35;stop-opacity:1"
         offset="1"
         id="stop985" /></linearGradient><linearGradient
       inkscape:collect="always"
       xlink:href="#linearGradient987"
       id="linearGradient989"
       x1="67.736191"
       y1="57.214241"
       x2="212.45148"
       y2="208.7827"
       gradientUnits="userSpaceOnUse" /><filter
       inkscape:collect="always"
       style="color-interpolation-filters:sRGB"
       id="filter1145"
       x="-0.050079532"
       width="1.1001591"
       y="-0.12804852"
       height="1.256097"><feGaussianBlur
         inkscape:collect="always"
         stdDeviation="5.7548117"
         id="feGaussianBlur1147" /></filter></defs><g
     inkscape:label="Main"
     inkscape:groupmode="layer"
     id="layer1"><rect
       style="fill:#71422b;fill-opacity:1;stroke-width:4.06345;stroke-linecap:round;stroke-opacity:0.523214;stop-color:#000000"
       id="rect234"
       width="46.939754"
       height="69.952309"
       x="-1.7342585"
       y="-2.91874"
       ry="0.0019524163"
       inkscape:label="bg" /><text
       xml:space="preserve"
       style="font-style:normal;font-variant:normal;font-weight:normal;font-stretch:normal;font-size:15.9543px;line-height:1.25;font-family:QumpellkaNo12;-inkscape-font-specification:QumpellkaNo12;letter-spacing:0px;word-spacing:0px;fill:#bfa349;fill-opacity:1;stroke:none;stroke-width:0.398858"
       x="-59.035892"
       y="44.035519"
       id="text1"
       inkscape:label="font ref"><tspan
         sodipodi:role="line"
         id="tspan1"
         style="font-style:normal;font-variant:normal;font-weight:normal;font-stretch:normal;font-family:QumpellkaNo12;-inkscape-font-specification:QumpellkaNo12;fill:#bfa349;fill-opacity:1;stroke-width:0.398858"
         x="-59.035892"
         y="44.035519">W&amp;W</tspan></text><text
       xml:space="preserve"
       style="font-style:normal;font-variant:normal;font-weight:normal;font-stretch:normal;font-size:3.20727px;line-height:1.25;font-family:QumpellkaNo12;-inkscape-font-specification:QumpellkaNo12;letter-spacing:0px;word-spacing:0px;fill:#bfa349;fill-opacity:1;stroke:none;stroke-width:0.124918"
       x="2.6362784"
       y="58.835472"
       id="text11"
       inkscape:label="description"><tspan
         sodipodi:role="line"
         style="font-style:normal;font-variant:normal;font-weight:normal;font-stretch:normal;font-size:3.20727px;font-family:QumpellkaNo12;-inkscape-font-specification:QumpellkaNo12;fill:#bfa349;fill-opacity:1;stroke-width:0.124918"
         x="2.6362784"
         y="58.835472"
         id="tspan3">-1 to other players'</tspan><tspan
         sodipodi:role="line"
         style="font-style:normal;font-variant:normal;font-weight:normal;font-stretch:normal;font-size:3.20727px;font-family:QumpellkaNo12;-inkscape-font-specification:QumpellkaNo12;fill:#bfa349;fill-opacity:1;stroke-width:0.124918"
         x="2.6362784"
         y="62.844559"
         id="tspan4">dice in the next turn</tspan></text><text
       xml:space="preserve"
       style="font-style:normal;font-variant:normal;font-weight:normal;font-stretch:normal;font-size:6.00344px;line-height:1.25;font-family:QumpellkaNo12;-inkscape-font-specification:QumpellkaNo12;letter-spacing:0px;word-spacing:0px;fill:#bfa349;fill-opacity:1;stroke:none;stroke-width:0.204597"
       x="2.5713136"
       y="51.038376"
       id="text10"
       inkscape:label="title"><tspan
         sodipodi:role="line"
         id="tspan10"
         style="font-style:normal;font-variant:normal;font-weight:normal;font-stretch:normal;font-size:6.00344px;font-family:QumpellkaNo12;-inkscape-font-specification:QumpellkaNo12;fill:#bfa349;fill-opacity:1;stroke-width:0.204597"
         x="2.5713136"
         y="51.038376">Mud Wall</tspan></text><g
       id="g1"
       transform="matrix(0.16194723,0,0,0.16194723,0.16859457,2.0303442)"
       inkscape:label="mudwall"><g
         inkscape:label="tmp"
         id="layer1-7"
         transform="translate(0,-26.06665)"
         style="display:none"><image
           xlink:href="../../../../Heroes/wall_mud.scan.png"
           y="33.108818"
           x="-2.9797108"
           id="image1489"
           preserveAspectRatio="none"
           height="240.36147"
           width="267.80759"
           style="stroke-width:0.305398" /></g><g
         id="layer6-9"
         inkscape:label="shadow"><path
           style="fill:#000000;fill-opacity:0.052459;stroke:none;stroke-width:0.264583px;stroke-linecap:butt;stroke-linejoin:miter;stroke-opacity:1;filter:url(#filter1145)"
           d="m 14.363095,199.11785 c 9.859554,6.59728 -15.7430755,21.86849 3.777254,23.91428 11.925874,0.97307 15.917378,15.34939 33.897419,13.56919 17.374579,-1.72025 34.154621,11.43538 49.309892,20.12139 14.43106,8.27095 29.28327,6.24122 43.58743,9.86512 17.9203,4.54004 36.04819,1.97996 53.88038,-3.592 14.42085,-1.89691 25.67769,-12.39221 40.23516,-13.92483 14.31343,-5.17063 30.03263,-9.09395 42.12689,-18.28851 9.87046,-13.9221 5.35604,-36.42137 -10.91649,-43.41278 -15.62949,-5.46569 -27.39258,-16.79478 -39.33261,-26.31002 -75.89507,10.84049 -143.098842,18.35543 -210.969725,34.27401 -1.712892,1.04072 -5.288241,1.42426 -5.5956,3.78415 z"
           id="path926-2"
           inkscape:connector-curvature="0"
           sodipodi:nodetypes="ccsssccccccc" /></g><g
         id="layer2-0"
         inkscape:label="wall"
         style="display:inline"><g
           inkscape:groupmode="layer"
           id="layer4"
           inkscape:label="wall colorfill"
           style="display:inline"><path
             style="color:#000000;font-style:normal;font-variant:normal;font-weight:normal;font-stretch:normal;font-size:medium;line-height:normal;font-family:sans-serif;font-variant-ligatures:normal;font-variant-position:normal;font-variant-caps:normal;font-variant-numeric:normal;font-variant-alternates:normal;font-feature-settings:normal;text-indent:0;text-align:start;text-decoration:none;text-decoration-line:none;text-decoration-style:solid;text-decoration-color:#000000;letter-spacing:normal;word-spacing:normal;text-transform:none;writing-mode:lr-tb;direction:ltr;text-orientation:mixed;dominant-baseline:auto;baseline-shift:baseline;text-anchor:start;white-space:normal;shape-padding:0;clip-rule:nonzero;display:inline;overflow:visible;visibility:visible;opacity:1;isolation:auto;mix-blend-mode:normal;color-interpolation:sRGB;color-interpolation-filters:linearRGB;solid-color:#000000;solid-opacity:1;vector-effect:none;fill:url(#linearGradient989);fill-opacity:1;fill-rule:nonzero;stroke:none;stroke-width:2.11667;stroke-linecap:butt;stroke-linejoin:round;stroke-miterlimit:10;stroke-dasharray:none;stroke-dashoffset:0;stroke-opacity:1;marker:none;color-rendering:auto;image-rendering:auto;shape-rendering:auto;text-rendering:auto;enable-background:accumulate"
             d="m 136.27688,28.911184 c -10.06091,1.477437 -18.96647,4.499141 -28.28581,5.906059 -5.6521,-0.270903 -11.190522,-1.331653 -16.472748,0.0944 -9.786226,2.782896 -15.346429,10.087921 -23.532871,15.558543 -3.435079,2.295505 -7.070811,5.078051 -10.679379,5.967722 -4.930856,1.037915 -11.824654,-1.834844 -15.729645,-0.281352 -6.770366,2.875455 -12.261913,7.882399 -14.620889,14.937603 -0.914792,2.735952 1.891471,12.642208 2.543686,15.262741 1.797047,5.91303 -4.766357,6.53271 -1.325861,12.92446 0.285898,0.70893 2.516202,1.68893 2.733259,1.71822 1.551268,3.03532 -0.783713,6.55508 -0.847005,8.02875 -0.0022,0.8705 0.05942,1.65293 0.611607,2.43852 0.01633,0.11646 0.998731,5.42528 1.544828,12.18359 0.552048,6.83194 1.385764,15.46329 0.537298,20.66545 -0.430291,2.63822 -2.595725,5.23832 -4.235585,8.00941 -1.639859,2.77108 -3.538058,5.24169 -2.932478,8.61895 1.022416,2.40838 2.861599,3.69476 5.076265,4.8457 -0.380013,4.51569 -0.632817,12.74252 -2.941965,16.86849 -1.431316,2.43431 -4.991343,4.17443 -7.859444,5.96959 -3.278661,1.76997 -7.7319,1.70639 -9.156765,4.48417 -0.596927,4.4303 5.370424,6.29549 8.95179,6.94984 -1.916772,6.65005 -9.450107,8.01717 -8.934108,14.65449 2.926328,5.26958 13.198613,3.19227 17.89412,1.2718 2.800537,3.20577 4.324618,8.43319 7.401933,10.00689 3.15623,1.5152 6.924322,0.7673 9.795539,-0.25812 3.273959,-1.77252 4.874257,-5.34605 8.39854,-6.70601 3.789649,-0.704 6.835232,-0.73914 10.338097,-0.86994 2.899433,3.92076 5.722298,8.48801 9.307257,11.04985 8.323,4.6548 20.792695,5.07448 28.419104,1.91438 6.31618,-5.36066 9.88379,-9.36935 17.11913,-13.50648 5.15281,-1.06027 10.72509,0.99796 14.64475,3.10274 4.77711,3.5433 6.31882,10.93881 11.40264,12.43246 6.43707,1.75775 19.871,-2.99477 25.032,-6.44155 2.49946,-4.99018 2.34151,-6.1945 2.52475,-9.97539 1.9887,-3.90307 6.56207,-9.34271 10.06157,-12.33172 7.64769,0.0367 9.92622,1.54276 15.27786,5.60567 5.76579,4.42461 14.88329,6.68571 20.58789,3.83357 3.61681,-1.94786 6.70166,-4.79642 6.24117,-9.12438 -1.48097,-6.874 -4.94319,-7.46593 -9.70694,-10.59344 2.76392,-2.97648 2.94652,-4.02056 6.74198,-4.53875 6.36951,-0.53703 11.58903,4.32227 16.78794,5.29101 5.89749,0.85641 12.71391,0.96506 15.33306,-4.11965 1.57145,-3.17029 0.69444,-6.0648 -0.65297,-9.01162 -2.02661,-4.43228 -5.82236,-6.75677 -9.6657,-9.20077 -3.46184,-2.00046 -6.31267,-2.28355 -9.98047,-3.22861 2.95299,-2.58638 7.96538,-6.94747 6.68082,-10.58841 -1.65903,-2.60358 -6.29912,-0.86033 -9.77673,-2.2319 -1.33854,-0.50829 -5.67213,-3.50189 -6.53444,-3.89752 -0.99475,-4.32178 -2.15173,-9.63692 -2.15173,-9.63692 3.25431,-7.51188 4.4581,-12.60487 4.35424,-19.53834 -0.25467,-7.7058 -6.50314,-14.07955 -7.73386,-20.73438 -0.84201,-7.2868 0.004,-13.918153 1.13754,-20.903988 2.86831,-0.697312 3.197,-1.429365 3.9486,-2.676912 2.83022,-4.927513 -2.42167,-10.932086 -1.81624,-14.726665 0.92335,-2.775937 3.98718,-5.571541 4.02929,-7.634663 -0.14528,-9.458045 -5.43831,-18.252821 -12.20723,-24.389289 -3.39281,-2.871553 -10.05046,-2.478585 -13.13929,-4.42938 -1.53799,-1.064036 -3.33481,-3.388338 -4.65389,-5.117392 -4.2885,-5.289352 -13.9137,-8.365469 -19.50206,-8.096423 -15.35922,0.269399 -28.24357,10.921416 -40.38245,14.194894 z"
             id="path1648"
             inkscape:connector-curvature="0"
             sodipodi:nodetypes="cccsccscccccssccccccccccccccccccccccccccccccccccccccccccccccc" /></g><g
           inkscape:groupmode="layer"
           id="layer7"
           inkscape:label="wall light 1"><path
             id="path942"
             style="opacity:1;vector-effect:none;fill:#ffffff;fill-opacity:0.0754098;stroke:none;stroke-width:0.264583px;stroke-linecap:butt;stroke-linejoin:miter;stroke-miterlimit:4;stroke-dasharray:none;stroke-dashoffset:0;stroke-opacity:1"
             d="m 29.715223,97.139042 c 1.317666,1.689482 0.894402,-3.550233 2.653428,-2.831466 5.914803,2.416883 -1.13228,11.962144 0.266873,15.320334 0.623101,1.49554 2.889621,1.30033 3.993376,-0.47218 1.450313,-2.32904 2.228071,-6.75026 7.979169,-7.3278 4.593652,-0.46131 10.36012,0.24978 11.606622,5.64983 1.037579,4.49496 1.080365,7.82495 0.193266,12.08517 -0.962818,4.62385 -3.83411,9.66267 -1.970607,14.2504 0.644453,2.44139 3.362513,7.05392 4.999834,6.76982 2.495745,-0.43305 3.297583,-6.9738 4.595751,-9.49116 1.232515,-2.39005 6.599441,-6.01875 4.729164,-11.01623 -2.805749,-7.49711 -3.632956,-8.27124 -2.485647,-13.92916 1.770987,-8.73357 -0.751466,-16.032104 -9.321017,-19.473147 -5.705486,-2.290998 -12.187416,-1.145933 -17.384621,-4.795854 -5.57248,-3.913471 -6.135824,3.751422 -7.787546,7.650528 -1.816251,4.2875 -3.325271,5.998928 -2.068045,7.610915 z M 172.30628,15.537036 c -8.96914,1.773604 -18.16303,5.338421 -24.9282,9.314679 -2.99014,1.757471 -5.05047,3.373767 -6.77116,6.444569 -1.58248,2.824151 -4.12083,5.233886 -7.55923,4.535638 -4.85463,-0.814782 -10.30675,-3.670485 -15.68586,-2.645833 -3.48099,1.598406 -3.32394,7.549308 -12.83901,5.300969 -3.84848,-0.909365 -8.213517,-2.139839 -11.884031,-4.254521 -9.774764,5.093255 -22.01904,15.607463 -31.681272,20.802864 -12.832876,4.842465 -9.571456,0.364063 -15.722446,0.464547 -3.614555,1.84895 -11.271459,3.663797 -14.280888,9.321935 -7.601474,4.947214 -3.891998,24.977931 -1.438156,19.023645 1.415191,-3.433983 7.153217,-8.597305 11.514456,-10.548899 7.847574,-3.51168 10.847562,-2.715005 18.154978,-1.319847 2.421529,0.454549 -0.83924,-1.613187 -5.951302,-2.876414 -2.384413,-0.589206 -7.648452,-0.374927 -8.429823,-0.788987 -2.243334,-1.188776 -2.25238,-4.64618 -2.138724,-5.995803 0.60846,-4.749948 11.608761,-4.988023 16.534908,-4.680336 6.014606,0.989536 6.566046,5.339792 11.471135,9.683647 4.123573,2.685031 9.728462,5.33655 15.317927,5.932971 9.361377,0.998903 10.558148,10.880778 21.686528,6.378422 7.41422,-0.42451 8.07092,-8.250987 8.5041,-10.441962 0.39623,-2.004063 4.36841,-0.695804 6.56733,-1.511905 5.89403,-2.187492 9.35421,-2.07515 10.86704,-5.291667 0.99115,-2.107328 -7.84013,-5.505657 -5.85923,-6.703318 4.37224,-2.643454 16.15592,2.242585 21.38165,2.114305 5.45934,-0.134015 3.73863,-0.578985 8.57843,-1.911807 4.15637,-1.144609 5.35093,-3.84938 11.8861,-7.687903 2.36832,-1.391067 13.72635,-1.646692 16.83101,-3.31556 2.60075,-1.397984 -16.92982,-3.838356 -16.15405,-6.591329 1.1848,-4.204478 8.14713,-6.020021 13.24777,-6.715868 3.04333,-0.415181 12.75285,3.958849 12.52327,1.477947 -0.32881,-3.020643 -13.61763,-6.993524 -10.41229,-12.374439 1.06052,-1.780322 1.04864,-2.362472 2.75901,-3.886585 -3.82334,-0.987453 -12.72208,-1.919138 -16.08997,-1.253155 z m -54.77444,29.88758 c 1.39175,1.081458 0.69235,3.499011 0.0636,5.131469 -1.01092,2.624577 -5.92083,1.463587 -8.25608,3.010567 -4.06053,2.689883 -7.63163,5.734534 -12.124078,4.130085 -2.580394,-0.584938 -4.539855,-2.720367 -5.436875,-4.897893 -1.720268,-4.175969 -0.510931,-9.596646 3.741372,-11.233015 7.605311,-2.027604 17.326621,-1.412624 22.012061,3.858787 z"
             inkscape:connector-curvature="0"
             sodipodi:nodetypes="ssssssscssssssssssccscccccsscssccsscssssssscsscscsccssscc" /><path
             style="opacity:1;vector-effect:none;fill:#ffffff;fill-opacity:0.0754098;stroke:none;stroke-width:0.264583px;stroke-linecap:butt;stroke-linejoin:miter;stroke-miterlimit:4;stroke-dasharray:none;stroke-dashoffset:0;stroke-opacity:1"
             d="m 31.671438,117.25335 c 2.441211,0.80031 3.205733,4.04926 6.208899,3.35184 2.551663,-0.38016 6.750395,-3.08341 9.426368,-2.34957 2.152374,1.28983 -1.639781,4.63169 -2.892776,5.86981 -2.064339,2.74816 -5.10601,7.44786 -4.029571,10.88524 0.661172,2.92597 4.125436,-2.67935 6.225754,-0.6659 1.888241,1.81014 12.948839,15.55673 12.389071,18.1503 -0.580465,2.68946 -8.853414,-4.10652 -14.167654,0.0697 -2.408335,1.89261 -3.441013,7.59829 -9.681167,2.91592 -5.052527,-3.79122 -3.492607,-3.64798 -8.905336,3.72775 0.709266,-5.18942 1.448521,-6.29504 3.24325,-8.33062 3.729204,-6.08657 2.833012,-25.06498 2.183162,-33.62448 z"
             id="path963"
             inkscape:connector-curvature="0"
             sodipodi:nodetypes="cccccsssscccc" /><path
             style="opacity:1;vector-effect:none;fill:#ffffff;fill-opacity:0.0754098;stroke:none;stroke-width:0.264583px;stroke-linecap:butt;stroke-linejoin:miter;stroke-miterlimit:4;stroke-dasharray:none;stroke-dashoffset:0;stroke-opacity:1"
             d="m 45.065268,168.89504 c -1.656809,0.6172 -6.136732,2.71203 -7.903946,2.26432 -1.369879,-0.34705 -2.726722,-1.76183 -2.808308,-3.18167 -0.09165,-1.59505 1.951617,-1.88435 3.204755,-1.91171 1.353229,-0.0296 2.655884,0.13514 3.99203,-0.0713 1.759703,-0.27195 3.16374,-1.7752 4.835634,-2.28857 4.07552,-1.25142 0.732777,4.4242 -1.320165,5.18898 z"
             id="path972"
             inkscape:connector-curvature="0"
             sodipodi:nodetypes="sssssss" /><path
             style="opacity:1;vector-effect:none;fill:#ffffff;fill-opacity:0.0754098;stroke:none;stroke-width:0.264583px;stroke-linecap:butt;stroke-linejoin:miter;stroke-miterlimit:4;stroke-dasharray:none;stroke-dashoffset:0;stroke-opacity:1"
             d="m 13.040178,191.36934 c -3.3686126,3.82075 4.859252,1.96853 7.112982,-0.0713 5.008651,-4.53337 1.261309,4.96485 0.365984,7.33588 -1.229875,3.79315 -3.322387,7.60243 -7.172085,9.64669 -4.9492332,3.46655 5.234205,3.33206 7.386678,0.46361 2.838245,-3.78233 1.259587,-8.61016 9.624259,-3.13254 4.159463,1.31109 -0.851213,6.08226 8.155678,7.53502 4.167796,0.67224 -7.86671,-19.33379 2.74296,-18.69425 4.524404,0.27273 10.091459,3.71309 13.263742,6.24524 2.874717,2.29463 19.554202,29.13916 21.472675,24.90185 1.611558,-3.55943 -4.715869,-11.66205 -9.880955,-18.82625 -15.611625,-21.65401 2.306493,-16.08005 -0.553837,-19.59038 -6.271823,-7.69708 -11.218456,-3.16668 -16.287162,-3.01632 -5.239784,0.15544 -11.879019,-3.6341 -16.085906,-7.2355 -1.017473,-0.87103 -2.678317,-3.39352 -2.732477,-2.60432 -0.262599,3.82655 -3.199332,9.25993 -5.721126,11.13315 -3.036438,3.48282 -8.412836,3.11009 -11.69141,5.90946 z"
             id="path991"
             inkscape:connector-curvature="0"
             sodipodi:nodetypes="csccscsssssssssccc" /><path
             style="opacity:1;vector-effect:none;fill:#ffffff;fill-opacity:0.0754098;stroke:none;stroke-width:0.264583px;stroke-linecap:butt;stroke-linejoin:miter;stroke-miterlimit:4;stroke-dasharray:none;stroke-dashoffset:0;stroke-opacity:1"
             d="m 123.03125,159.99732 c -3.20611,0.56176 -5.71572,4.44868 -5.81758,7.71033 -0.12573,4.02586 5.85235,2.32021 5.74134,-1.62038 -0.0559,-1.98603 2.87108,-6.57965 0.0762,-6.08995 z"
             id="path1014-2"
             inkscape:connector-curvature="0"
             sodipodi:nodetypes="ssss" /><path
             style="opacity:1;vector-effect:none;fill:#ffffff;fill-opacity:0.0754098;stroke:none;stroke-width:0.264583px;stroke-linecap:butt;stroke-linejoin:miter;stroke-miterlimit:4;stroke-dasharray:none;stroke-dashoffset:0;stroke-opacity:1"
             d="m 127.75594,89.977232 c -2.93688,-0.67679 -5.54635,4.33667 -5.05878,7.55064 0.3792,2.38659 1.9226,0.61327 3.17133,-1.75471 1.09433,-2.07517 3.85239,-5.34312 1.88745,-5.79593 z"
             id="path1059"
             inkscape:connector-curvature="0"
             sodipodi:nodetypes="scss" /><path
             sodipodi:nodetypes="scss"
             inkscape:connector-curvature="0"
             id="path1123"
             d="m 208.29682,72.717399 c 2.0392,-0.289321 2.47271,-4.127339 1.37277,-6.057422 -0.8277,-1.429009 -1.37672,0.08084 -1.59182,1.897612 -0.18851,1.592122 -1.14528,4.353382 0.21905,4.15981 z"
             style="opacity:1;vector-effect:none;fill:#ffffff;fill-opacity:0.0754098;stroke:none;stroke-width:0.264583px;stroke-linecap:butt;stroke-linejoin:miter;stroke-miterlimit:4;stroke-dasharray:none;stroke-dashoffset:0;stroke-opacity:1" /></g><g
           inkscape:groupmode="layer"
           id="layer8"
           inkscape:label="wall light 2"><path
             style="fill:#ffffff;fill-opacity:0.625;stroke:none;stroke-width:0.264583px;stroke-linecap:butt;stroke-linejoin:miter;stroke-opacity:1"
             d="m 88.198943,39.34429 c -1.308031,-0.351076 -2.726781,1.560411 -4.016087,2.454338 -2.779128,1.92688 -5.505171,3.594801 -7.99027,6.251668 -1.355817,1.44953 -4.577878,3.104222 -4.704168,3.489647 -0.774768,2.364524 3.752561,-0.200706 5.887083,-2.674196 1.939441,-2.24743 2.101123,-2.763086 3.509453,-3.7264 0.885357,-0.605595 1.584412,-0.81605 2.983076,-1.206929 0.777593,-0.217311 5.427659,-4.293761 4.330913,-4.588128 z"
             id="path1091"
             inkscape:connector-curvature="0"
             sodipodi:nodetypes="sasssass" /><path
             sodipodi:nodetypes="sasssass"
             inkscape:connector-curvature="0"
             id="path1100"
             d="m 57.092182,106.61526 c -0.548193,0.71917 0.725554,2.53758 0.885693,3.84206 0.296173,2.4126 0.673265,4.27705 0.129296,7.29098 -0.282047,1.56273 -1.787055,5.70796 -1.654046,5.96814 0.815642,1.5962 2.013144,-2.77536 2.397647,-5.36189 0.347322,-2.33641 0.476739,-2.91262 0.431504,-4.37849 -0.03449,-1.11789 -0.347082,-2.22196 -0.534327,-3.31244 -0.107676,-0.6271 -1.196128,-4.65137 -1.655767,-4.04836 z"
             style="fill:#ffffff;fill-opacity:0.625;stroke:none;stroke-width:0.264583px;stroke-linecap:butt;stroke-linejoin:miter;stroke-opacity:1" /><path
             style="fill:#ffffff;fill-opacity:0.625;stroke:none;stroke-width:0.264583px;stroke-linecap:butt;stroke-linejoin:miter;stroke-opacity:1"
             d="m 36.364452,199.17191 c 0.419045,0.32081 -0.360026,-2.7412 0.327072,-3.81797 0.469542,-0.73583 0.97094,-1.12732 2.272101,-1.30186 1.016982,-0.13642 4.140975,0.40631 3.978003,0.31575 -1.068685,-0.59387 -2.379301,-0.7991 -4.453904,-0.88355 -1.26872,-0.0516 -1.744066,0.44994 -1.966904,1.26242 -0.413951,1.50929 -1.436094,3.44548 -0.156368,4.42521 z"
             id="path1102"
             inkscape:connector-curvature="0"
             sodipodi:nodetypes="sasssss" /><path
             sodipodi:nodetypes="ssssass"
             inkscape:connector-curvature="0"
             id="path1104"
             d="m 169.20905,38.179829 c -0.13141,-0.862932 1.66601,-3.154668 2.73378,-3.91844 0.83458,-0.596965 5.51924,-2.249185 5.33283,-2.252843 -1.22237,-0.02401 -4.14685,1.07685 -6.01927,1.974158 -1.14506,0.548785 -3.34426,2.260834 -3.27608,3.977017 0.0456,1.14742 1.00987,2.312499 2.39437,2.476863 1.04976,0.124625 -0.88821,-0.435009 -1.16563,-2.256755 z"
             style="fill:#ffffff;fill-opacity:0.625;stroke:none;stroke-width:0.264583px;stroke-linecap:butt;stroke-linejoin:miter;stroke-opacity:1" /><path
             style="fill:#ffffff;fill-opacity:0.625;stroke:none;stroke-width:0.264583px;stroke-linecap:butt;stroke-linejoin:miter;stroke-opacity:1"
             d="m 119.28084,46.684707 c 0.35858,1.720089 1.97453,4.066192 -2.40063,8.208063 -0.74515,0.705424 -5.60637,2.405831 -5.42059,2.421584 1.21823,0.103319 5.62543,-0.758106 6.98519,-2.996616 0.65921,-1.085243 2.75146,-2.819472 2.14238,-7.617096 -0.14462,-1.139181 -0.85761,-2.373184 -2.22851,-2.627087 -1.03946,-0.192515 0.54609,0.807187 0.92216,2.611152 z"
             id="path1106"
             inkscape:connector-curvature="0"
             sodipodi:nodetypes="sssssss" /><path
             style="fill:#ffffff;fill-opacity:0.625;stroke:none;stroke-width:0.264583px;stroke-linecap:butt;stroke-linejoin:miter;stroke-opacity:1"
             d="m 236.8279,171.42351 c 2.54465,1.40143 7.76271,3.16908 9.94345,4.70982 3.24922,2.29564 4.45574,5.5955 5.57425,6.16066 1.53578,0.776 -3.21867,-5.33808 -4.63423,-6.65375 -2.9096,-2.70428 -14.33315,-6.11659 -10.88347,-4.21673 z"
             id="path1108"
             inkscape:connector-curvature="0"
             sodipodi:nodetypes="sssss" /><path
             style="opacity:1;vector-effect:none;fill:#ffffff;fill-opacity:0.625;stroke:none;stroke-width:0.264583px;stroke-linecap:butt;stroke-linejoin:miter;stroke-miterlimit:4;stroke-dasharray:none;stroke-dashoffset:0;stroke-opacity:1;marker:none;marker-start:none;marker-mid:none;marker-end:none"
             d="m 140.90878,100.20093 c -0.57825,1.4801 -0.93827,3.10282 -1.11323,2.86199 -0.17495,-0.24082 -0.1153,-1.70273 0.46295,-3.182842 0.57825,-1.480102 1.45613,-2.417928 1.63108,-2.177101 -0.0441,1.210097 -0.62868,1.58382 -0.9808,2.497953 z"
             id="path1110"
             inkscape:connector-curvature="0"
             sodipodi:nodetypes="ccscc" /><ellipse
             style="opacity:1;vector-effect:none;fill:#ffffff;fill-opacity:0.625;stroke:none;stroke-width:0.264583px;stroke-linecap:butt;stroke-linejoin:miter;stroke-miterlimit:4;stroke-dasharray:none;stroke-dashoffset:0;stroke-opacity:1;marker:none;marker-start:none;marker-mid:none;marker-end:none"
             id="path1113"
             cx="152.2126"
             cy="84.775124"
             rx="0.26726952"
             ry="0.59478498"
             transform="rotate(7.5890086)" /><path
             sodipodi:nodetypes="sssss"
             inkscape:connector-curvature="0"
             id="path1115-3"
             d="m 43.146244,58.371639 c 2.336796,-2.090214 -6.428834,2.04069 -10.124414,5.676992 -2.853552,2.807779 -6.236277,9.522878 -5.213285,10.254941 0.846807,0.605984 2.87858,-7.752885 6.604596,-10.444033 3.012876,-2.176076 7.345501,-4.246719 8.733103,-5.4879 z"
             style="fill:#ffffff;fill-opacity:0.625;stroke:none;stroke-width:0.264583px;stroke-linecap:butt;stroke-linejoin:miter;stroke-opacity:1" /><path
             sodipodi:nodetypes="sssss"
             inkscape:connector-curvature="0"
             id="path1117"
             d="m 41.779272,155.36631 c 0.4808,0.2176 1.610899,-2.4454 2.732498,-3.35025 1.296039,-1.04559 1.531495,-0.95439 3.766421,-1.08802 1.319911,-0.0789 -0.561084,-0.3853 -2.612948,-0.0676 -3.501843,0.54228 -5.364325,3.83675 -3.885971,4.50582 z"
             style="fill:#ffffff;fill-opacity:0.625;stroke:none;stroke-width:0.264583px;stroke-linecap:butt;stroke-linejoin:miter;stroke-opacity:1" /><ellipse
             style="opacity:1;vector-effect:none;fill:#ffffff;fill-opacity:0.625;stroke:none;stroke-width:0.26657px;stroke-linecap:butt;stroke-linejoin:miter;stroke-miterlimit:4;stroke-dasharray:none;stroke-dashoffset:0;stroke-opacity:1;marker:none;marker-start:none;marker-mid:none;marker-end:none"
             id="path1119-7"
             cx="90.902794"
             cy="271.97388"
             rx="0.71795982"
             ry="1.7716897"
             transform="matrix(0.91048585,-0.41354023,0.25106463,0.96797033,0,0)" /><ellipse
             style="opacity:1;vector-effect:none;fill:#ffffff;fill-opacity:0.625;stroke:none;stroke-width:0.264912px;stroke-linecap:butt;stroke-linejoin:miter;stroke-miterlimit:4;stroke-dasharray:none;stroke-dashoffset:0;stroke-opacity:1;marker:none;marker-start:none;marker-mid:none;marker-end:none"
             id="path1121"
             cx="-60.99707"
             cy="186.15843"
             rx="1.9324391"
             ry="1.1701345"
             transform="matrix(0.94587651,-0.32452678,0.39032766,0.92067601,0,0)" /></g><g
           inkscape:groupmode="layer"
           id="layer5"
           inkscape:label="wall shadow"
           style="display:inline"><path
             style="opacity:1;vector-effect:none;fill:#000000;fill-opacity:0.147541;stroke:none;stroke-width:8;stroke-linecap:butt;stroke-linejoin:round;stroke-miterlimit:10;stroke-dasharray:none;stroke-dashoffset:0;stroke-opacity:1;marker:none;marker-start:none;marker-mid:none;marker-end:none"
             d="m 725.56445,79.794922 c -0.0325,0.0036 -0.0587,0.01715 -0.0781,0.04102 -6.00911,7.399242 10.25749,26.860828 14.0039,31.478508 10.89563,13.61551 36.33621,22.54567 36.625,30.17969 0.19767,5.22397 -47.1704,-7.75294 -65.94821,3.74455 -17.74581,10.86561 43.73897,28.08573 19.54001,31.0367 -8.50549,1.03721 -48.15269,0.34179 -58.4668,3.54297 -27.05646,8.39756 -35.52845,27.01249 -53.41601,39.16992 -24.20761,16.45284 -70.49942,11.59916 -98.09961,18.80469 -29.04756,7.5834 -12.8348,35.91573 -50.94922,29.11328 -21.23236,-3.78944 -23.84987,19.21324 -36.60547,34.67773 -8.10055,9.82084 -32.71479,17.6361 -47.35547,19.67579 -40.75766,5.67823 -82.65422,-4.64646 -116.17068,-28.9908 -24.09975,-17.50461 -45.10741,-20.7216 -75.14943,-22.47033 -31.8377,-1.85327 -42.6802,12.06408 -48.04903,22.33222 -6.99383,13.37606 27.22125,2.45659 43.04883,5.92773 25.36277,5.56229 31.18665,12.26926 57.00977,16.71485 14.07005,2.42224 36.89243,12.07228 38.20229,31.32086 1.43384,21.07056 -18.31515,79.06298 -0.0321,78.98885 23.78946,-0.0965 5.64286,-39.9961 29.69252,-42.92635 23.75558,-2.89441 19.04584,53.98433 -3.27488,72.39923 -26.24706,21.6542 -27.90576,24.70335 -28.33087,45.70764 -0.41382,20.44637 -36.4012,40.76614 -42.26479,41.79492 16.66825,3.19503 48.87301,-11.47328 66.31055,-23.33593 -10.10032,18.78735 -32.32393,20.33037 -44.06641,28.0332 l -31.06445,1.00976 c -8.54634,-7.54934 -21.67943,-33.93173 -25.97851,-43.4414 -1.84647,16.88477 2.09565,39.58095 12.59375,49.48437 11.53576,10.88228 30.84541,4.07527 43.83593,7.50391 7.38485,1.9491 15.34847,43.84025 11.89258,63.42969 -1.86972,10.59836 -9.48197,13.5332 -16.87695,2.66797 -7.57014,-11.12255 -10.96779,37.19494 5.58008,74.97461 4.5582,10.40662 -9.74892,17.95461 -2.58985,19.24804 21.99813,3.97436 19.29559,-29.14243 28.41992,-29.93164 6.17936,-0.53449 5.40787,58.02952 18.56638,58.07578 8.68361,0.0305 9.67312,-12.97053 17.75039,-13.57184 14.52213,-1.0811 23.08617,79.60074 3.21642,79.36946 -19.23325,-0.22388 -28.95621,-21.58051 -34.11414,-21.09287 -12.99513,1.22857 -6.54107,20.1538 -2.2667,23.39525 30.757,23.32437 11.78165,49.31429 49.25195,52.30469 38.3173,3.05794 57.98195,-20.34706 82.11914,-43.57226 15.48204,-14.89709 57.90326,-24.20503 75.8711,-26.8086 -22.48475,9.45774 -37.94533,18.84822 -36.72461,22.60938 16.77184,-5.26349 45.58016,-2.36079 53.11718,6.25586 8.79466,10.05445 17.70678,19.62526 27.62891,27.08007 3.79551,-0.70393 -12.45867,-42.8366 20.79491,-19.96287 21.57754,14.84227 12.96643,30.95812 14.5547,34.46873 22.74618,1.55097 57.21034,-9.69699 62.43164,-31.71289 3.62657,-15.2914 -6.88153,-32.95748 -32.0957,-45.28906 25.31104,6.79283 31.95011,13.94999 45.06836,25.63867 0.68829,-8.82814 3.79951,-22.02863 10.56445,-31.03906 12.61096,-16.79701 32.91557,-29.78783 72.94141,-28.71289 -13.76482,2.2114 -28.84836,5.28549 -35.16993,10.88086 10.30118,2.63981 65.1425,-2.42875 70.51368,3.76562 6.8506,7.90053 -14.20481,14.47257 -5.98829,21.48242 9.03927,7.71182 33.90281,8.64396 47.17774,6.21876 15.93615,-2.91156 34.03661,-19.21329 26.8164,-39.13282 -4.57472,-12.62115 -25.75992,-13.75052 -43.83789,-28.82812 -17.88685,-14.9182 -17.93261,-42.38034 -24.31445,-72.33594 9.16352,37.745 26.76745,62.51559 42.4336,68.88867 8.37037,-32.86333 54.15775,-17.88314 86.00976,-7.51367 49.79894,16.21217 85.02414,-12.7112 30.55469,-49.47266 -3.46428,0.25172 -4.12938,10.52055 -15.30469,6.48243 -23.25192,-8.40201 -11.73276,-17.7189 -12.87305,-21.01563 -11.73577,-5.18793 -23.18229,-10.23236 -32.45703,-18.08398 -20.43156,-17.29663 -31.38755,-54.28088 -31.375,-77.83985 0.003,-5.0414 0.64615,-5.5422 0.34961,-20.03711 -19.39064,22.33418 -44.34661,41.29334 -69.29297,40.35938 -20.26987,-0.75889 -68.3949,-24.20571 -84.3789,-26.75977 17.32928,0.20372 65.2699,14.35788 84.01367,14.49024 22.73597,0.16063 43.4916,-9.93311 57.30664,-24.20117 17.40964,-17.98065 22.67481,-62.00888 22.92773,-70.49415 1.16603,-39.11441 -41.22286,-68.01229 -35.98046,-107.94531 1.74879,-17.99844 6.90171,-43.69345 15.02539,-57.08398 -15.26419,1.7743 -39.73944,9.05711 -61.24219,-0.99414 -7.6215,-3.5626 -25.33528,-28.49965 -45.15039,-35.91992 -23.55302,-8.82008 -67.34132,7.91947 -78.50391,9.25781 16.53737,-8.7407 59.1611,-24.67434 81.96484,-17.41211 22.43469,7.14468 36.10284,32.62428 44.42969,35.7207 26.94678,10.02042 51.7019,2.88866 58.16407,-1.53906 18.12019,-12.41565 -12.95662,-40.09464 3.69726,-59.01953 24.65307,-28.01475 -8.59319,-103.61893 -37.65039,-115.91797 -0.82602,-0.34965 -28.11285,-5.13886 -44.45508,-20.82422 C 733.93587,89.240975 726.57328,79.683149 725.56445,79.794922 Z M 387.125,152.88672 c -15.96104,0.47014 -36.0562,10.44623 -40.82227,25.0664 -2.55042,7.82365 4.15612,31.17137 15.78321,34.16016 5.26237,1.35272 11.91426,5.24289 14.86328,3.68945 7.06547,-3.72193 9.1047,-16.48375 14.55859,-21.30664 14.33133,-12.67333 48.53022,-6.46954 51.64258,-11.59765 2.96534,-4.88585 -34.84877,-30.63549 -56.02539,-30.01172 z m -188.63867,69.99414 c -5.09184,0.0754 -10.33637,1.05387 -15.06641,2.50391 -8.93393,2.73874 -15.17606,13.35161 -12.92969,22.42187 4.39143,17.73141 12.22419,0.67334 28.00391,-8.5293 8.33234,-4.85935 26.38368,0.8004 21.07617,-7.2539 -4.53702,-6.88505 -12.59756,-9.26827 -21.08398,-9.14258 z m 543.7252,3.20913 c 5.79866,-0.007 24.32098,17.89883 29.43204,20.40339 10.22685,5.01145 13.94448,-9.85865 20.59164,-3.58378 8.24235,7.7807 10.98226,28.2527 -2.10407,36.4965 -12.73715,8.02385 -27.62618,-19.01752 -36.43669,-28.16043 -5.59494,-5.80602 -48.03035,6.92413 -39.76114,-14.9636 2.28337,-6.04383 20.16654,-10.18192 28.27822,-10.19208 z M 763.75,321.14453 c 25.56048,49.45455 37.21036,101.17272 34.82227,121.7832 -25.95119,29.09749 -50.82728,40.421 -90,42.85743 -27.55762,1.714 -76.24383,-26.04358 -102.85547,-18.56836 24.44285,-11.5691 56.39456,7.18988 83.02148,10.09765 36.09417,3.94163 70.33482,-6.48172 74.6543,-10.81445 2.60908,-1.36154 -14.7576,-9.13971 -1.68164,-19.64453 17.75055,-13.36294 17.43668,8.33815 21.48633,6.12305 5.62422,-3.07638 10.49923,-14.86028 9.13085,-30.24414 C 789.13231,386.80509 768.58656,331.24467 763.75,321.14453 Z m -143.36719,6.99219 c 0.77881,38.3954 -13.83016,106.36336 -42.52539,124.07812 -12.40426,23.1182 -12.16453,23.52115 -35.86523,36.40235 -49.20662,-20.42944 -76.38395,-63.14496 -101.27539,-82.65821 5.73213,2.97895 17.83176,13.20966 21.3789,11.81446 3.84669,-1.51301 1.78474,-5.5506 0.52149,-9.30469 -4.87742,-14.49458 -9.77335,-37.54302 -2.01926,-58.12721 5.75038,-15.26504 2.5193,-22.35832 15.84002,-22.90878 20.51391,-0.8477 -4.72805,50.14909 21.72098,39.53766 17.63507,-7.07524 1.15978,-20.5549 14.72194,-27.57334 25.07523,-12.97647 -3.91399,20.8473 14.51744,16.78622 9.74048,-2.14617 7.80615,-33.39154 14.12681,-32.6651 21.80099,2.5056 -14.01517,61.90602 -12.91658,85.97873 0.78427,17.18518 -12.52707,41.53409 -21.85603,33.07198 -6.49726,-5.89353 -7.62633,-10.82427 -16.93369,-10.08397 -13.502,1.07395 -10.81881,2.2324 -6.55124,7.6674 20.64883,26.86254 42.46883,42.41757 58.5332,41.06055 14.49513,-1.22449 18.43925,-26.68851 34.48047,-34.11328 22.74864,-10.52935 37.88287,-89.888 44.10156,-118.96289 z M 747.5,369.71484 c 0,0 -19.54371,36.46158 -37.5,41.07032 -11.84576,3.04038 -27.60337,-3.79635 -41.40234,-10.85547 -11.54356,-5.90531 -27.82772,3.97331 -35.38282,7.99804 7.63444,-7.25823 23.21939,-16.03172 34.86914,-11.31835 13.53175,5.47476 30.8789,5.38939 41.66348,2.87697 C 726.23481,395.64539 747.5,369.71484 747.5,369.71484 Z M 190.60938,394.42969 C 172.14899,394.14338 162.79327,412.11472 151,416.53711 c -12.44665,4.66738 -25.7242,6.65051 -35.77734,5.60547 10.30696,11.79458 12.54483,13.82625 30.69336,12.625 27.33225,-1.80907 41.92564,-17.1607 49.625,-11.44141 6.94612,5.15981 16.20556,12.23416 13.67773,38.81055 3.00946,-10.76353 10.25638,-30.09685 3.54492,-44.73828 -5.42139,-11.82709 -8.78851,-21.27489 -18.33789,-22.66016 -1.31503,-0.19086 -2.58579,-0.28969 -3.8164,-0.30859 z m 167.86328,32.79687 c 9.7664,0.31124 13.03518,11.99373 14.79687,18.71094 1.84699,7.04244 15.59311,75.9192 -2.43386,73.42773 -14.88488,-1.35529 6.08724,-49.99575 -14.83372,-73.31835 -4.05833,-4.52421 -4.6967,-19.04874 2.47071,-18.82032 z m 276.70536,86.95201 c 11.41117,-1.43474 44.26009,10.09412 54.55992,16.04107 5.2111,3.0088 -31.0554,-11.82918 -57.57658,-9.77922 -21.65772,1.67405 -33.66232,31.94084 -48.58909,34.27442 -13.77789,2.15397 -21.97342,-19.41161 -35.71485,-21.78711 -8.6277,-1.49148 -28.65506,8.05862 -25.71484,5.35743 6.44909,-5.92479 14.74926,-9.51875 24.64398,-9.10603 14.15854,0.59056 21.38014,4.51563 36.58064,13.57297 12.84531,7.65399 24.69338,-25.16402 51.81082,-28.57353 z m 213.19307,64.08705 c 3.73531,29.37634 17.35999,47.98968 30.19141,59.02344 12.15534,-1.32053 35.52836,-35.47038 16.62891,-30.02344 -8.04972,2.32003 -19.10892,-1.00473 -26.67969,-7.00976 -7.83005,-6.21063 -14.93202,-18.89949 -20.14063,-21.99024 z m -655.52929,1.8125 c -3.88739,-0.25882 -20.47662,14.28372 -23.25586,16.64063 -17.90254,15.18232 -30.88702,-7.5054 -31.57422,3.04492 -0.7949,12.20368 6.5299,18.68409 26.88086,12.5625 25.89551,-7.78938 38.80776,-31.52529 27.94922,-32.24805 z m 302.54333,-6.18551 c 13.00825,0.14894 24.48144,4.25953 27.56604,14.56828 7.77089,25.97056 -19.91576,34.60328 -44.03405,46.07615 -20.82866,9.90807 -40.78134,31.84648 -49.64647,10.55304 -7.84721,-18.8485 11.84432,-51.46648 29.3412,-61.98802 9.2214,-5.54519 23.76506,-9.35817 36.77328,-9.20945 z m -379.37927,10.91012 c -15.059,18.14797 -15.5187,25.79298 0.0547,39.25196 0.25232,-13.99847 -0.0577,-29.67573 -0.0547,-39.25196 z m 507.77344,1.58008 c 40.62832,28.75 33.59046,68.83065 7.29297,86.18946 -17.00569,11.22531 -50.53383,9.33562 -49.64258,4.28515 0,0 24.01153,-1.16376 43.50976,-12.7168 13.37647,-7.92574 24.91887,-19.95022 23.11719,-35.12109 -0.0866,-0.72889 -0.201,-1.46103 -0.32617,-2.19336 -1.33759,2.77064 -3.77505,4.47285 -6.41016,4.47656 -4.11433,-4.4e-4 -7.44941,-4.07091 -7.44922,-9.09179 6.9e-4,-5.02012 3.33551,-9.08941 7.44922,-9.08985 0.78912,0.002 1.57299,0.15687 2.32227,0.45899 -5.3664,-12.3934 -14.15082,-23.27418 -19.86328,-27.19727 z m -269.67188,14.93806 c 1.70138,-8.50808 2.5067,-58.59132 17.84347,-11.54548 4.27211,13.10475 -4.86072,36.26896 1.12695,47.46847 5.228,9.7786 6.21587,24.20538 -0.29073,26.09403 -3.32192,0.95553 -7.15299,-0.42598 -10.55078,-3.80469 2.66966,4.9754 6.0557,9.37449 10.26367,13.03907 7.45246,6.49009 26.60221,-9.86429 51.94727,-4.51172 7.68015,1.62198 19.91328,11.10885 42.3125,23.33203 16.05936,8.76355 85.9934,-10.20656 113.0957,-54.30078 -9.6987,42.85701 -84.43619,73.49357 -103.87109,67.4707 -20.97616,-6.50045 -39.3819,-23.40568 -51.86719,-25.70703 -23.24085,-4.28391 -48.6938,6.75174 -56.26953,2.11328 -13.32486,-8.15856 -21.41797,-41.25391 -21.41797,-41.25391 z m -129.6582,15.77483 c -1.01655,-0.004 -2.38017,0.72417 -4.16211,2.38868 -8.63759,8.06816 -11.98567,17.81804 -18.9043,23.48828 -13.85215,11.3526 -51.69922,14.63086 -51.69922,14.63086 7.29383,3.07105 28.35584,4.6603 40.90039,2.04101 -32.03192,18.59804 -57.15252,-11.09613 -66.76367,-9.04687 5.16217,21.88973 55.64138,31.061 73.65821,25.10156 11.4394,-4.25065 20.57738,-13.63596 24.70507,-27.01953 3.15386,-10.22597 7.75495,-31.56437 2.26563,-31.58399 z m 438.70898,99.51368 c 5.58502,0.0226 8.02641,1.66949 3.62696,2.57031 -2.42831,0.49721 -8.27174,-1.70927 -22.38086,6.68359 -9.93389,5.90921 -20.1002,13.92508 -28.33399,16.17188 -15.53853,4.2401 -49.149,-9.49762 -47.14062,-9.375 17.2682,1.0543 37.88678,6.94834 52.99414,2.66406 7.17499,-2.03475 15.9073,-10.71842 24.23828,-14.70313 6.4055,-3.06374 12.65219,-4.02927 16.99609,-4.01171 z m -577.675778,9.29296 c -6.255485,5.47378 -16.61909,10.9412 -23.019531,10.54102 -17.842598,-1.11553 -27.335447,6.08067 12.511718,17.38867 3.857447,-9.08855 8.340311,-18.6562 10.507813,-27.92969 z m 107.183598,62.67188 c -16.62084,0.28422 -21.39063,19.3729 -32.13086,24.5332 C 133.7294,825.98662 121.71103,798.41285 93.929688,799 c -16.611462,0.35112 -41.777671,-2.82021 -36.41211,12.19922 5.581705,15.62445 27.843862,9.43837 47.683592,2.49023 -5.783425,-3.64014 -11.805258,-6.06285 -21.51367,-7.64843 5.216614,-1.74021 20.71639,0.32204 23.54688,2.86914 19.99261,17.99077 51.28675,60.12641 81.43164,23.92968 8.6446,-10.38009 31.62816,-19.03659 50.11328,-11.42968 5.71106,2.35011 -7.06746,-15.02436 -38.91211,-17.19532 5.02583,-1.50542 9.92321,-2.14319 14.58593,-2.18359 0,0 -14.31324,-13.58482 -21.7871,-13.45703 z"
             id="path919-5"
             inkscape:connector-curvature="0"
             sodipodi:nodetypes="ccccssccsssssssssssssscccccscscscsssssccsccscscccccccscccsccsccccccsccccccsccsscccccscccccsccscsccssssscccscsccccccccccssssssssssccsccssccscccccccsccsscssssssssssscccccccssccccsccccccccccccccccsssccscscccccscccccccccscsssscscccccscscccscccc"
             transform="scale(0.26458333)" /></g><g
           inkscape:groupmode="layer"
           id="layer3"
           inkscape:label="wall outline"
           style="display:inline"><path
             style="color:#000000;font-style:normal;font-variant:normal;font-weight:normal;font-stretch:normal;font-size:medium;line-height:normal;font-family:sans-serif;font-variant-ligatures:normal;font-variant-position:normal;font-variant-caps:normal;font-variant-numeric:normal;font-variant-alternates:normal;font-feature-settings:normal;text-indent:0;text-align:start;text-decoration:none;text-decoration-line:none;text-decoration-style:solid;text-decoration-color:#000000;letter-spacing:normal;word-spacing:normal;text-transform:none;writing-mode:lr-tb;direction:ltr;text-orientation:mixed;dominant-baseline:auto;baseline-shift:baseline;text-anchor:start;white-space:normal;shape-padding:0;clip-rule:nonzero;display:inline;overflow:visible;visibility:visible;opacity:1;isolation:auto;mix-blend-mode:normal;color-interpolation:sRGB;color-interpolation-filters:linearRGB;solid-color:#000000;solid-opacity:1;vector-effect:none;fill:#6c3928;fill-opacity:1;fill-rule:nonzero;stroke:none;stroke-width:2.11667;stroke-linecap:butt;stroke-linejoin:round;stroke-miterlimit:10;stroke-dasharray:none;stroke-dashoffset:0;stroke-opacity:1;marker:none;color-rendering:auto;image-rendering:auto;shape-rendering:auto;text-rendering:auto;enable-background:accumulate"
             d="m 175.75735,14.181641 c -14.33587,0.238908 -26.32688,10.597973 -39.48047,13.927734 -5.94327,1.504507 -12.28539,1.881705 -18.59692,3.36077 -3.39432,0.795437 -6.39818,2.065397 -9.35816,2.496652 -5.42842,0.790894 -12.14882,-1.929832 -16.708984,-0.661551 -9.802172,2.726196 -16.171166,12.243104 -24.357608,17.005021 -3.571245,2.077334 -7.050095,4.870865 -10.695591,5.594494 -4.84444,0.96162 -10.804414,-2.844712 -14.924479,-1.12844 -6.79011,2.828516 -12.788346,9.195819 -15.147322,16.251023 -0.914792,2.735952 -0.447137,5.492748 0.205078,8.113281 0.652216,2.620533 2.059524,5.060544 2.179276,7.411493 0.09918,1.947127 -1.038775,4.311968 -1.413651,6.635382 -0.374876,2.32341 -0.720371,4.809481 0.414166,6.76203 0.458658,0.78935 1.857114,0.69649 2.292069,1.49915 0.715119,1.31967 0.483059,2.56791 0.0073,4.50292 -0.477032,1.94022 -1.05808,3.93332 0.02669,5.51525 0.250073,0.95074 1.73308,5.20573 1.353466,11.90011 -0.401887,7.08715 1.577125,15.34517 0.728659,20.54733 -0.430291,2.63822 -2.950077,5.26194 -4.589937,8.03303 -1.639859,2.77108 -3.358723,5.79752 -2.578125,9.13867 0.567201,2.42776 3.477077,3.88295 5.3125,4.8457 -0.380017,4.51569 -1.058041,12.08106 -3.367188,16.20703 -1.431316,2.43431 -4.454443,4.01972 -7.398438,5.6875 -3.195747,1.8104 -9.358925,1.84575 -10.2143789,5.12873 -1.323679,5.07987 5.6300259,6.91994 9.6753169,7.50799 -1.350533,4.96316 -7.56931,7.21267 -8.796875,11.01563 -0.7656079,2.37183 -0.6495089,5.73105 1.330078,7.00976 4.693416,3.0317 12.812438,-0.0555 16.894531,-1.86523 2.507666,3.6009 4.025543,8.73 7.46875,10.47461 3.15623,1.5152 6.818136,-0.0365 9.695313,-1.04511 3.552775,-1.2454 5.136625,-5.61215 8.415736,-6.61626 3.492682,-1.06952 6.902482,-0.68258 10.260511,-0.28133 0.906473,1.16379 1.44898,1.60083 2.302269,2.91342 4.576782,7.19994 9.700239,10.88835 17.845703,11.92969 5.907102,0.75518 12.345013,0.46437 17.939455,-1.97071 4.95257,-2.15569 7.58808,-6.61686 10.63436,-10.00945 1.07461,-1.19677 3.04435,-2.67749 5.98364,-3.69747 5.84691,-0.1014 10.40152,0.84848 13.84294,2.90228 5.17922,3.09089 7.06862,11.44159 12.30468,12.93359 6.4173,1.82859 19.90113,-0.0345 26.16077,-6.47831 2.55267,-2.62779 3.64618,-7.60797 2.33142,-10.74044 1.75884,-3.83405 5.92731,-8.97522 9.42681,-11.96423 6.37458,-0.50008 10.27351,2.17531 14.70991,5.47204 2.24713,1.66987 4.58603,3.41922 7.45703,4.24219 4.39426,1.25961 9.91043,2.71106 14.40039,0.29297 3.61681,-1.94786 6.8687,-6.16618 6.40821,-10.49414 -0.43693,-4.10646 -3.61533,-6.70495 -6.87305,-8.98242 -0.64655,-0.452 -2.05567,-1.4193 -2.70164,-1.86347 1.32253,-2.05913 3.59256,-2.73629 5.67429,-3.117 2.56635,-0.46934 5.37292,-0.0529 8.11515,1.24358 2.74224,1.29643 5.36804,3.47288 8.53915,4.04743 5.84307,1.05867 13.69382,0.95704 16.43555,-4.35351 1.62323,-3.14409 0.46394,-6.84466 -0.88347,-9.79148 -2.02661,-4.43228 -5.89153,-7.22811 -9.79696,-9.57162 -3.02236,-1.81362 -6.22318,-2.62032 -9.25121,-3.41425 2.71486,-1.75048 7.56106,-7.01212 6.17969,-10.1875 -1.77248,-4.07445 -7.24318,-1.98692 -10.18407,-2.96046 -1.35497,-0.44855 -3.58711,-1.09425 -6.66164,-3.40282 -0.48704,-3.09485 -1.46048,-5.74626 -1.79129,-9.07115 3.75167,-6.15599 5.14018,-12.6588 4.99606,-19.73662 -0.0802,-3.93844 -1.68287,-7.61198 -3.39357,-10.96604 -1.71069,-3.35406 -4.30935,-6.51762 -4.70443,-9.90197 -0.81968,-7.02167 -0.0274,-13.029033 0.69987,-20.001952 1.57937,-0.453833 3.3782,-1.664811 4.04883,-2.810547 1.49312,-2.550936 0.77024,-5.154499 -0.002,-7.734468 -0.77223,-2.579954 -1.84419,-5.343508 -1.21289,-7.292875 0.97379,-3.006947 3.54736,-4.865447 3.50957,-7.874256 -0.11877,-9.458415 -5.42033,-18.412365 -12.16768,-24.572545 -3.56089,-3.251017 -10.07256,-2.029087 -13.53823,-4.581195 -3.54109,-2.607649 -5.03683,-7.819798 -8.53218,-9.804036 -5.62211,-3.191562 -11.69859,-3.690019 -16.88276,-3.603625 z m 0.0895,1.426246 c 5.09946,-0.567658 11.19088,1.317375 15.7699,4.028832 3.78177,2.239367 5.49175,6.751258 8.73047,9.033203 3.74397,2.637937 9.73624,2.282746 12.89426,5.116071 6.55777,5.883544 12.9187,14.471167 12.37007,22.940942 -0.19251,2.971994 -3.77224,4.814759 -4.31901,7.484003 -0.57615,2.812706 1.4571,5.57256 2.2047,8.070312 0.74761,2.497754 0.3504,4.675898 -0.74767,6.304688 -1.39476,2.068888 -4.09688,2.227112 -6.25977,2.701171 -4.27321,0.936593 -8.98304,1.630568 -12.7793,0.03711 -4.83758,-2.030543 -7.23981,-8.451272 -11.75976,-9.621094 -4.37067,-1.131187 -7.07249,-0.496414 -12.81487,1.17239 4.75749,-0.669529 8.60145,-1.289984 12.45563,0.256175 3.45705,1.386846 5.53294,5.495557 8.10797,8.190814 -1.18159,1.973557 -2.27793,2.776415 -5.00411,1.355778 2.15244,3.057961 6.14706,0.917568 6.75835,0.149141 0.47181,0.310427 0.96793,0.558892 1.49665,0.727169 5.53552,1.761793 11.43448,0.314693 16.35769,-0.756999 -0.38091,6.351623 -2.30678,13.386297 -1.2284,20.012957 0.62515,3.84153 2.55484,7.24453 4.24414,10.55664 1.68929,3.31211 2.91996,6.55695 2.98836,9.91639 0.16295,8.00205 -0.97094,16.72272 -5.99013,22.82422 -3.11358,3.78497 -9.08758,7.00964 -13.92206,7.05431 -6.68895,0.0618 -25.70258,-7.88138 -17.00196,-3.63867 2.40264,1.17161 6.41225,3.14461 9.71584,4.41903 -0.0337,0.6361 -0.64119,1.75919 -1.64429,1.94503 -1.67311,0.30997 -3.15608,-0.0354 -4.16175,-0.83949 0.30545,1.05792 2.36943,1.88637 4.3431,1.66898 1.6126,-0.17762 2.44716,-1.6017 2.97871,-2.23528 2.18643,0.6836 4.26772,1.05191 5.95589,0.78977 7.0457,-1.09405 12.78899,-5.71306 16.28105,-10.82606 0.13636,0.98387 1.02381,4.55272 2.13121,8.99076 2.17372,8.71145 3.45032,15.87896 12.26483,17.71969 2.60547,0.5441 5.46876,1.01593 7.34245,2.20741 3.74993,2.3846 8.09583,5.10301 9.8111,8.85436 1.1723,2.56386 1.36135,6.17361 0.0131,8.30384 -3.10924,4.9126 -9.75606,4.47178 -14.31947,3.67951 -2.67494,-0.46441 -5.25323,-2.43859 -8.08873,-3.77911 -2.83549,-1.34053 -5.85151,-2.53495 -9.13476,-1.98633 -2.64706,0.77987 -4.45999,2.51168 -6.27344,4.48633 -5.78908,-2.90368 -6.79601,-6.31574 -8.94727,-10.38868 0.8654,3.27664 1.1326,4.84513 2.39649,6.93164 2.0783,3.43101 5.49132,5.09456 9.22214,6.90481 3.47201,1.68468 5.41714,5.22645 5.74856,8.34129 0.32373,3.04257 -2.8672,6.63712 -5.77631,8.20384 -3.49994,1.88491 -8.58339,1.84719 -12.91273,0.60619 -2.39469,-0.68644 -5.16978,-2.85781 -7.34139,-4.60198 -4.42106,-3.55086 -6.80892,-5.02424 -12.32699,-5.38579 0.84347,-0.47024 2.55148,-1.21244 6.53124,-2.26958 -13.26618,1.40629 -15.41384,8.94065 -19.83386,14.44845 -1.09413,-1.47247 -2.24075,-3.32971 -6.78703,-4.42403 3.66014,2.14944 6.1344,5.35568 6.49764,7.46126 0.48607,2.81758 -1.048,6.59961 -3.33102,8.12432 -4.98537,3.32947 -17.74785,7.10677 -22.95206,5.24163 -5.83904,-2.09266 -7.16604,-10.49847 -11.88672,-12.76953 -3.81971,-1.83762 -7.75318,-1.92976 -11.60547,-2.05859 3.50072,-1.89659 6.48633,-4.42804 6.48633,-4.42804 -3.82122,1.54135 -11.238,4.21752 -14.69583,6.62458 -4.32212,3.00872 -8.41148,8.83652 -12.46823,10.60229 -5.096282,2.21824 -11.192206,2.65317 -16.83399,1.81054 -8.494524,-1.26871 -12.02061,-4.68722 -16.755301,-10.84068 -4.705371,-6.11535 -6.615003,-7.54345 -13.065012,-8.04994 3.977877,0.89488 5.876828,1.64361 8.34961,4.50976 -3.10901,0.006 -6.609698,-0.22846 -9.636719,0.83009 -3.544503,1.23951 -5.047534,5.81069 -8.262277,6.99033 -2.708263,0.99379 -6.437215,0.89527 -8.588076,-0.24107 -7.072037,-3.73631 -4.358984,-11.12103 -13.264881,-11.59105 1.376472,0.46891 3.933188,1.74685 4.455077,2.42643 -3.801414,1.25516 -11.863307,3.23514 -15.115234,0.85872 -1.399412,-1.02265 -1.842614,-3.9682 -1.269252,-5.44131 1.385121,-3.55872 5.222141,-4.64415 6.923177,-7.56008 2.117114,-3.62918 4.540459,-9.38517 4.490606,-13.59551 -1.142347,3.91557 -1.780212,5.09521 -3.573753,9.32281 -3.827487,-0.12547 -9.237443,-3.35295 -7.951637,-5.59895 1.850172,-3.23181 6.505459,-2.60417 9.25,-4.29493 2.698295,-1.66227 6.209611,-3.19379 8.099609,-6.4082 2.265545,-3.85312 2.294844,-11.89934 2.402809,-17.14434 0.07221,-3.50803 -0.07367,-4.67956 -0.594215,-7.56076 0,0 -0.114185,4.79544 -0.156063,6.71456 -1.182045,-0.71472 -3.343784,-3.20519 -3.716054,-4.48586 -0.718767,-2.47266 1.103698,-5.02313 2.694383,-7.71112 1.590684,-2.68799 4.226044,-5.46425 4.099609,-8.79492 -0.217001,-5.71641 0.468566,-13.49654 -0.08892,-20.39565 -0.462174,-5.71965 -1.303215,-5.86571 -2.101289,-11.37751 0.925286,0.85242 3.342294,1.41998 4.531995,1.41574 1.991723,-0.007 4.061275,-0.25885 5.752364,-0.59016 3.18727,-0.62443 5.347878,-5.62003 8.202714,-5.58172 1.751867,0.0235 4.262057,1.26318 5.063523,2.97517 1.324599,2.82944 1.329529,6.47773 0.345425,10.11979 -0.984104,3.64207 -3.337021,7.63184 -2.397229,11.48903 1.187451,4.87365 3.279936,11.00615 8.347656,13.27539 4.322501,1.93554 9.185656,-0.48409 12.890625,-2.13672 0.949775,2.10798 1.908195,2.88647 4.372901,3.12698 1.715511,0.1674 3.55323,-1.13814 4.668284,-3.17394 -1.270076,1.41758 -3.109427,2.45758 -4.722292,2.32281 -1.528295,-0.1277 -2.851528,-1.35798 -3.354497,-2.63774 2.82142,-1.40508 6.650711,-3.83418 8.10787,-6.82171 1.457938,-2.98913 -2.318877,-8.24172 -0.417036,-10.25753 2.008091,-2.12841 5.893033,-5.70091 8.704148,-4.18778 2.997508,1.61346 4.167635,6.47557 4.14416,10.2324 0.711185,-4.14436 -0.230058,-10.36319 -4.274275,-11.68535 -4.510624,-1.47464 -7.649735,1.55301 -9.831287,5.03896 -1.869436,2.98722 1.993931,6.79503 0.811384,9.41183 -1.377825,2.82488 -4.828968,5.57783 -8.08045,7.02818 -3.732477,1.66491 -9.563846,4.09832 -12.674015,2.70564 -3.913297,-1.75231 -5.49457,-8.05645 -6.636533,-12.7434 -0.752108,-3.08687 0.298614,-6.64538 1.296876,-10.33984 0.998261,-3.69446 1.944009,-7.59668 0.238281,-11.24024 -1.148145,-2.45252 -3.693715,-4.54531 -6.539063,-4.61718 -3.977108,-0.10045 -4.303453,4.76906 -7.51302,5.61124 -1.617938,0.42453 -4.836758,1.23769 -6.514324,1.24376 -1.677565,0.006 -3.881601,-0.64731 -4.701264,-1.65123 -0.961768,-1.17797 0.03448,-3.0662 0.441778,-4.44438 0.581242,-1.96673 0.785145,-4.4471 -0.441523,-6.05781 -0.383427,-0.50347 -1.424528,-0.49412 -1.788709,-0.63641 -1.655105,-0.64666 -0.946348,-4.93264 -0.743935,-6.19252 0.351059,-2.1851 1.829253,-4.500119 1.706311,-6.913648 -0.140525,-2.758697 -1.382207,-5.2762 -2.005962,-7.782381 -0.623755,-2.506181 -1.854987,-5.041587 -1.01559,-7.377839 2.337082,-6.504683 8.925088,-11.677108 15.254346,-14.044951 4.706072,-1.760591 9.903872,0.845723 14.224237,-0.183501 4.215119,-1.004151 7.581843,-3.754503 10.96875,-5.724609 8.646712,-5.029649 15.3524,-13.306347 24.347656,-15.666016 5.573456,-1.46205 11.129013,1.777966 16.280403,1.064291 3.51226,-0.48659 6.49266,-2.694295 9.46293,-3.39036 5.9811,-1.40163 12.84565,0.09209 18.90743,-2.239966 13.02971,-5.012718 25.11557,-14.045768 39.00327,-15.591713 z m -0.1715,33.401879 c -2.32918,1.087117 -4.27066,2.563642 -9.64649,8.505859 0,0 6.91734,-5.02866 10.48243,-6.560547 4.60776,-1.979913 15.26953,-3.939453 15.26953,-3.939453 -9.1763,-0.0075 -12.91655,0.505747 -16.10547,1.994141 z m -72.47461,8.253906 c -3.880462,-0.09418 -4.040332,-0.530246 -8.56055,-1.667969 2.572878,1.539059 5.55004,3.959935 8.5332,3.785156 4.87817,-0.285805 8.68497,-2.654821 12.69727,-5.28125 -3.9229,1.236033 -8.88401,3.255952 -12.66992,3.164063 z m 45.03711,5.02539 c -4.096,0.51139 -8.71174,0.589397 -12.4668,2.529297 -2.96036,1.441819 -3.31141,6.060563 -6.13775,7.045436 -2.56966,0.895432 -6.07544,-1.185045 -8.28217,-0.104029 -2.28323,1.179108 -2.69424,3.463749 -3.69707,5.501953 -1.00282,2.038204 -1.53301,4.31427 -3.08387,5.005962 -9.2139,4.109442 -14.900702,2.654702 -23.289375,4.048725 6.916713,0.160008 17.265685,0.709003 23.324225,-2.537109 2.23191,-1.25492 3.2807,-3.554379 4.27929,-5.583985 0.99859,-2.029605 1.58666,-4.635676 3.17023,-5.222861 2.54269,-0.942823 5.77412,0.754074 8.02159,-0.171462 3.17449,-1.307298 3.90356,-5.399765 6.62613,-6.785568 5.17099,-2.632064 6.55049,-1.776052 11.53557,-3.726359 z M 43.062035,73.220703 c 3.731243,-0.537853 6.679111,-0.665118 10.128906,0.246094 7.124053,1.881712 12.772007,4.745601 19.234375,8.183594 C 67.313983,76.462021 58.954856,72.2064 53.64016,71.398438 49.377099,70.75035 46.464728,71.430238 43.062035,73.220703 Z M 204.56399,91.193359 c 2.64732,6.843571 5.40801,13.224941 6.16341,18.967361 0.29864,2.27017 0.32543,6.05166 -0.49116,7.46112 -3.6066,6.22512 -11.97878,8.51751 -19.3285,9.88988 -5.46864,1.02113 -8.4528,0.19592 -16.03711,-1.72266 4.11838,2.32358 11.39795,4.4978 16.33984,3.81836 7.85342,-1.07973 15.84457,-4.33926 19.9601,-11.44279 1.41648,-2.44489 1.49237,-5.87742 0.9735,-7.97908 -1.72944,-7.00496 -3.78116,-12.84663 -7.58008,-18.992191 z m -46.5661,23.148331 c -0.99188,1.75928 -4.06817,3.37168 -5.9007,5.17784 -1.71162,1.687 -2.09517,3.95384 -3.44191,5.74024 -1.34674,1.78639 -3.50914,2.97441 -5.21238,3.04296 -3.27776,0.13194 -8.06042,-3.25284 -11.92908,-6.69634 -2.84509,-2.53241 -4.26621,-5.27292 -7.34827,-6.88764 0,0 3.80072,5.65573 6.33985,7.86914 3.81827,3.32845 8.33422,8.01883 13.02343,7.83008 2.64043,-0.10628 4.47674,-1.93418 5.94727,-3.88477 1.47053,-1.95059 1.98795,-4.07447 3.37243,-5.43904 1.57734,-1.55464 4.63139,-2.96808 5.99085,-5.37932 2.64768,-5.91051 3.66202,-11.41238 4.40625,-17.77539 -0.92313,0.9583 -2.65857,11.63828 -5.24774,16.40224 z m -45.53156,-9.25185 c -1.96134,0.69432 -4.48452,1.4739 -5.66211,3.08399 -2.36365,3.37123 -1.80693,7.65058 -1.4375,11.56836 0.36944,3.91778 1.45406,7.20736 -0.32468,9.69147 -1.27046,1.77427 -2.09206,2.07181 -4.01907,2.8554 1.55727,-0.13802 3.56631,-0.3945 4.50782,-1.43359 2.71224,-3.12648 2.81452,-7.45029 1.94336,-11.3125 -0.86779,-3.84727 -1.41977,-7.80406 0.39628,-10.28793 2.22971,-3.04966 1.00417,-1.60724 4.5959,-4.1652 z m 112.46857,48.26228 c 1.55669,1.269 4.76495,3.27672 6.00995,3.85491 2.7038,1.25567 8.25547,-0.39552 8.64453,2.02344 0.48935,3.04248 -1.76489,7.0447 -5.17923,9.11663 -7.09351,-2.20968 -7.93433,-9.55525 -9.47525,-14.99498 z m -55.54669,5.80608 c 0.86187,1.29655 2.0727,2.4542 2.46484,4.11328 0.70722,2.99212 0.78505,6.49376 -0.66797,8.82813 -2.53777,4.07711 -7.734,7.51959 -12.53515,7.52148 -2.9793,10e-4 -6.14028,-1.07251 -8.30233,-2.50565 5.40685,-6.52968 5.67683,-13.05522 0.60115,-18.80099 4.37014,5.91369 3.01978,12.38728 -2.85352,18.12696 -5.59617,5.46886 -13.7567,9.59092 -21.41016,9.32421 -2.21618,-0.0772 -4.22869,-1.42241 -6.39257,-3.05078 -2.16389,-1.62836 -4.43538,-3.521 -7.32032,-4.14257 -4.40695,-0.96385 -10.97226,2.79121 -14.390622,0.92186 -3.099578,-1.80084 -5.044106,-6.0319 -5.707963,-10.01228 -0.561461,-3.36642 0.747608,-8.43485 0.987258,-11.3842 -1.12958,3.53189 -2.900815,7.47502 -2.474609,11.21484 0.490462,4.30365 1.997922,9.60936 6.132814,12.01172 4.940382,2.55998 10.610622,-1.5296 15.007812,-0.68164 2.2179,0.47785 4.28697,2.1042 6.49219,3.76367 2.20522,1.65947 4.59121,3.37005 7.59179,3.47461 8.41665,0.2933 17.09797,-4.32045 23.06178,-10.04225 2.43203,1.59034 6.31765,4.05878 9.11791,3.89381 4.86368,-0.28653 9.59961,-2.75078 12.5235,-6.61881 0.11805,-0.15617 3.38079,2.49918 6.45287,2.49526 2.68841,-0.003 6.06317,-2.28498 6.51079,-4.24801 -1.39168,1.10289 -3.83156,3.46591 -6.59885,3.16179 -2.62606,-0.28861 -5.27979,-3.0556 -5.19803,-3.20367 1.67508,-3.03341 1.78451,-5.95646 0.83532,-9.18185 -0.43506,-1.8646 -2.13239,-4.09976 -3.92793,-4.97892 z m -111.414067,6.37428 c -0.949452,2.36983 -3.22165,5.89834 -4.381065,6.92558 -2.950693,2.61431 -7.783224,3.68477 -11.337684,3.20898 -4.680422,-0.62651 -5.245618,-2.39807 -9.410156,-3.30766 2.767423,1.80754 5.83342,4.12981 9.123047,4.60351 4.32372,0.6226 8.806287,-0.90517 12.016139,-3.58203 2.253854,-1.8796 3.600347,-3.91821 3.989719,-7.84838 z"
             id="path1617"
             inkscape:connector-curvature="0"
             sodipodi:nodetypes="ssssssssssssaascsscsccsscssccssccssscssaccssssccsssssscssccssscsssssssssssssssssssscscccsssssscscscsccssssssscccsssssscccccsssccssssccsssccsssccssssccsssscsssssssccscscsscsscssssssssssassssassssssssssscsscscsccsccscccssscccsscccssscssccccsscassscccccssccsscccccccccsccsccccscsccsccsscscsccccscsacc" /></g></g></g><rect
       style="fill:none;fill-opacity:1;stroke:#bfa349;stroke-width:3.90956;stroke-linecap:round;stroke-opacity:1;stop-color:#000000"
       id="rect9312"
       width="43.319679"
       height="67.694405"
       x="0.069148958"
       y="0.034578465"
       ry="0"
       inkscape:label="border" /></g></svg>
