<?xml version="1.0" encoding="UTF-8" standalone="no"?>
<!-- Created with Inkscape (http://www.inkscape.org/) -->

<svg
   width="512"
   height="512"
   viewBox="0 0 135.46666 135.46667"
   version="1.1"
   id="svg42083"
   sodipodi:docname="water.svg"
   inkscape:version="1.2.2 (1:1.2.2+202212051550+b0a8486541)"
   inkscape:export-filename="water.png"
   inkscape:export-xdpi="96"
   inkscape:export-ydpi="96"
   xmlns:inkscape="http://www.inkscape.org/namespaces/inkscape"
   xmlns:sodipodi="http://sodipodi.sourceforge.net/DTD/sodipodi-0.dtd"
   xmlns="http://www.w3.org/2000/svg"
   xmlns:svg="http://www.w3.org/2000/svg"
   xmlns:rdf="http://www.w3.org/1999/02/22-rdf-syntax-ns#"
   xmlns:cc="http://creativecommons.org/ns#">
  <sodipodi:namedview
     id="namedview42085"
     pagecolor="#ffffff"
     bordercolor="#666666"
     borderopacity="1.0"
     inkscape:showpageshadow="2"
     inkscape:pageopacity="0.0"
     inkscape:pagecheckerboard="0"
     inkscape:deskcolor="#d1d1d1"
     inkscape:document-units="px"
     showgrid="false"
     inkscape:zoom="1.1414299"
     inkscape:cx="268.52285"
     inkscape:cy="303.56662"
     inkscape:window-width="1868"
     inkscape:window-height="1016"
     inkscape:window-x="52"
     inkscape:window-y="27"
     inkscape:window-maximized="1"
     inkscape:current-layer="layer1" />
  <defs
     id="defs42080" />
  <g
     inkscape:label="Main"
     inkscape:groupmode="layer"
     id="layer1">
    <rect
       style="fill:#39729c;fill-opacity:0.99884;stroke:#6b8383;stroke-width:0.79375;stroke-linecap:round;stop-color:#000000"
       id="rect42258"
       width="144.53868"
       height="141.70966"
       x="-6.5772414"
       y="-3.3391919"
       inkscape:label="bg"
       sodipodi:insensitive="true" />
    <path
       id="path57663"
       style="color:#000000;fill:#e1e1e1;fill-opacity:0.523214;stroke-linecap:round;-inkscape-stroke:none"
       d="M 100.5737 -20.668506 C 104.53733 -9.3966587 101.05134 2.7202101 100.79436 7.9075276 C 98.523665 7.8838286 96.011682 7.8422476 93.214464 7.77937 C 91.178855 17.447772 91.60622 27.85461 92.861514 36.925911 C 99.009063 36.076028 105.06953 35.647836 110.92656 36.202441 C 111.74847 41.119603 112.09128 45.941213 110.17312 51.638191 C 105.05584 53.955407 96.273839 54.083446 87.642195 52.877392 C 87.570625 49.603043 88.256174 45.738903 86.017488 41.484806 C 71.728623 41.952533 56.334545 44.058152 43.415954 42.226363 C 43.242735 39.508939 41.299838 37.270795 43.515173 33.906457 C 53.757966 33.874557 66.432707 32.182963 74.103486 33.906457 C 75.059585 24.919442 74.191856 16.791571 74.103486 8.2966511 C 61.535788 8.1468192 57.696654 7.1299115 31.875057 8.2966511 C 31.412791 13.194668 31.016561 18.717265 32.763374 23.366015 C 28.285398 24.595635 20.238189 24.703903 15.031124 23.257495 C 12.687199 12.144726 13.83095 -11.974581 16.116329 -19.089791 L 13.579016 -19.119763 C 13.168701 -7.8709589 10.311414 12.598184 13.731461 23.70863 C 9.7016789 23.604923 8.4189746 24.163378 2.824117 23.173779 C 2.4569352 24.563971 2.1793878 26.020454 1.9642212 27.529069 C -0.85045375 27.785658 -3.3817556 27.906964 -4.5749145 27.475842 C -5.6685301 23.643551 -5.7748827 13.825518 -4.8668863 6.7127685 C -10.717255 7.0126412 -15.007607 7.2999008 -21.972819 7.4383056 L -21.972819 11.263395 C -16.660981 11.331675 -12.194386 11.165025 -8.7632893 10.710974 C -8.2376613 18.02452 -6.4188943 24.860998 -7.3576903 32.715315 C -12.288584 32.892953 -17.331598 33.372234 -21.972819 33.740576 L -21.972819 36.176086 C -16.255417 35.635786 -11.310715 34.59808 -3.6566243 35.304821 C -3.6918243 34.020403 -4.2328883 32.497615 -4.3108479 31.22135 C -3.7848091 30.682995 -1.2548789 30.643151 1.6092041 30.774349 C 1.0687939 37.588754 1.6076946 45.415651 2.1109822 54.006005 C 10.690247 53.884659 19.670521 51.850166 26.663488 53.289253 C 26.86513 56.250485 26.484373 59.331796 25.287862 62.690746 C 5.7669411 65.04524 -2.5550038 63.012477 -14.408423 62.363118 L -14.408423 90.21103 C 2.3101252 90.570211 32.14367 92.615648 36.170918 90.30043 C 35.751058 88.421492 35.88066 86.734382 36.113041 85.083178 C 39.444079 84.776199 42.815045 84.449011 47.779512 83.308092 C 48.960569 87.627585 45.947633 95.143576 45.369323 99.248721 L 5.2906331 99.324685 C 4.9017507 104.48058 4.7042292 112.92861 5.1443888 129.12907 C 7.1469712 128.75075 9.8050512 128.49034 12.798702 128.29966 C 12.216295 136.33892 11.672668 145.42402 12.489677 152.76122 L 14.1981 152.76122 C 13.521777 145.42031 13.659715 135.92487 14.294735 128.20406 C 30.584454 127.34067 56.251795 128.50777 58.653267 127.52917 C 59.960682 121.63735 57.721295 114.03208 57.197025 107.41928 C 59.725899 106.77846 65.029405 105.58819 71.70415 105.47573 C 73.342921 110.95318 71.256003 114.43081 71.111421 117.65483 C 73.94765 117.88127 76.301437 118.08825 80.834341 117.38715 C 80.746462 120.86191 78.460843 123.67211 78.460843 127.18138 C 87.913234 126.22684 95.559786 126.18494 102.45059 126.52458 C 102.5003 133.65099 100.96206 139.98912 100.79436 143.37419 C 98.52367 143.35049 96.011679 143.30888 93.214464 143.24604 C 92.557969 146.36415 92.160821 149.55906 91.961827 152.76122 L 95.109956 152.76122 C 95.290542 150.44578 95.556531 148.1356 95.859264 145.91202 C 109.24088 146.86161 119.9559 147.07056 126.70338 146.17764 C 126.86326 148.40226 127.14322 150.58281 127.4284 152.76122 L 129.99878 152.76122 C 129.99378 149.21672 130.18572 145.42297 130.59978 142.17943 C 122.2149 142.60922 117.16416 143.02009 102.60821 142.99075 C 102.85203 140.12816 103.47865 133.07249 103.56267 126.58194 C 108.85519 126.87695 113.72625 127.38489 118.65425 127.86403 L 122.43387 103.31152 C 115.79478 103.04852 109.36733 102.40169 106.62605 104.32386 C 106.85814 99.969608 108.57989 87.408007 107.25702 82.975296 C 112.12738 83.684305 118.14014 84.139107 122.47159 84.298213 C 121.6325 86.380727 121.4841 88.25384 121.05824 90.21103 C 130.14126 90.40617 143.07613 91.095487 153.65987 91.316389 L 153.65987 89.416763 C 139.38948 89.257837 124.55736 87.879937 124.56294 87.654597 C 123.79423 86.485686 124.5852 85.44635 124.6451 84.346272 C 128.00203 84.346363 131.1827 84.167095 134.17217 83.7923 C 132.53005 75.960761 131.17722 76.529154 132.04052 68.697615 C 129.84761 68.422344 128.05512 68.511543 125.45642 68.35655 C 125.38082 67.724753 124.94662 67.08261 125.08952 66.394396 C 134.61389 66.991203 144.13758 67.158618 153.65987 66.742179 L 153.65987 63.39768 C 139.00977 64.534732 131.36479 62.927735 121.05824 62.363118 C 120.64206 64.014133 121.45322 66.18502 122.01064 67.51009 C 114.6895 67.330352 105.02297 66.675978 94.869144 68.435615 C 95.025402 70.475573 95.646757 72.443641 96.837499 74.324145 C 93.229819 75.52768 90.504831 74.704864 87.587418 74.324145 C 85.893698 62.661426 86.006572 56.868144 87.470629 54.049413 C 96.369708 54.876262 104.88239 55.487908 112.92179 54.410115 C 113.41504 48.463134 113.3353 42.431582 112.42363 36.277372 C 118.61616 35.779539 123.67827 34.553972 131.81004 35.304821 C 131.77484 34.020401 131.23378 32.497617 131.15582 31.22135 C 132.45849 29.888186 146.03453 31.601385 146.60294 31.440975 C 147.22739 30.63389 146.8693 27.029522 147.54396 26.742553 C 143.41861 26.55073 133.63299 28.466314 130.89175 27.475842 C 129.79813 23.643542 129.69178 13.825525 130.59978 6.7127685 C 122.21489 7.1425534 117.16418 7.5534216 102.60821 7.5240884 C 103.02947 2.5783327 104.60666 -14.894633 102.52139 -20.318139 L 100.5737 -20.668506 z M 61.294966 9.0681802 C 65.130957 9.0745202 68.75694 9.2202402 71.986303 9.5875284 C 72.951292 14.784194 71.522673 22.979173 71.001867 28.974975 C 65.920158 31.199855 52.844133 29.638992 43.563232 29.875179 C 43.858535 27.487734 44.411566 25.10027 43.648498 22.712825 C 40.331522 21.866142 37.786334 22.784035 34.868672 22.850285 C 31.889299 16.232923 33.129925 13.234691 34.906913 10.181807 C 43.399157 9.7156411 52.855784 9.0542396 61.294966 9.0681802 z M 95.859264 10.445357 C 109.24089 11.394943 119.9559 11.603898 126.70338 10.710974 C 127.22901 18.024527 129.04777 24.86099 128.10897 32.715315 C 115.2522 33.178486 101.57102 35.712999 96.499018 32.897733 C 94.081963 26.514816 94.832806 17.98472 95.859264 10.445357 z M 39.481827 24.9592 C 39.67863 24.9539 39.870557 24.954584 40.056986 24.961784 C 40.745339 24.988274 41.356645 25.104624 41.844474 25.344189 C 43.02119 27.928506 41.628627 32.093597 41.005249 34.733797 C 38.261249 34.885989 33.814335 35.932826 30.649808 34.985461 C 29.154582 32.455255 30.097854 29.654479 30.552657 26.907918 C 32.51444 26.445572 36.529789 25.038666 39.481827 24.9592 z M 17.467151 25.844934 C 21.123893 25.865764 24.136381 26.458406 28.650964 27.008687 C 27.36793 30.329521 27.445387 33.549594 28.368294 36.706803 C 32.042682 38.307051 35.546122 36.649993 39.118025 36.293908 C 41.692704 42.117891 41.877719 46.349457 39.308711 48.745861 C 36.668332 50.078083 12.297094 51.662705 4.5981689 50.683211 C 4.7616023 43.397417 4.4901416 35.128029 6.7556599 27.122892 C 11.388963 26.158305 14.623018 25.828735 17.467151 25.844934 z M 78.408133 44.061909 C 81.97881 44.097919 83.732666 44.417904 84.528173 44.983817 C 87.715099 49.847305 83.894437 64.125538 83.549421 74.324145 C 76.498054 73.543503 71.930404 73.654879 68.916206 74.324145 C 69.324591 77.11494 70.059143 79.652137 69.580248 81.319583 C 53.85152 78.853183 37.763323 81.058414 28.308349 81.031229 C 23.513235 68.765939 28.182993 63.628058 28.550712 53.148693 C 33.464023 52.956216 38.465933 54.022345 43.379264 53.831339 L 43.368929 46.257641 C 60.50545 44.823191 70.728994 44.13141 76.764306 44.063977 C 77.351072 44.057377 77.898036 44.056809 78.408133 44.061909 z M -10.377144 66.394396 C 1.2182755 67.120975 12.812513 67.225784 24.404712 66.394396 C 24.079712 72.551382 22.907072 78.515618 24.243998 85.050622 C 27.428564 85.241984 31.44171 83.977397 33.625337 85.035119 C 34.013558 85.223165 35.213112 87.355064 35.170979 88.745486 C 19.56255 90.676459 -10.911726 87.977549 -10.903727 87.654597 L -10.377144 66.394396 z M 110.9648 68.486258 C 114.51247 68.500018 116.77967 68.815964 120.00198 69.146166 C 121.17682 73.335994 118.65889 77.09703 119.55859 82.283865 C 112.98716 82.680693 108.18465 81.904691 107.47768 80.998156 C 107.00095 79.561538 107.65525 78.455523 107.6818 74.324145 C 104.49986 74.68132 101.14424 75.601848 98.482876 74.270918 C 97.922622 72.800893 96.630523 70.956698 97.925804 70.434976 C 102.66688 68.921248 106.95723 68.47071 110.9648 68.486258 z M 121.50679 69.295511 C 122.87818 69.472698 127.4291 70.080574 129.43189 69.684635 C 128.74891 76.079262 131.45265 76.944801 132.61154 82.566535 C 130.68488 82.741752 123.06526 82.394227 120.67532 82.569119 C 118.4079 79.222207 122.40366 73.677856 121.50679 69.295511 z M 82.709162 77.005118 C 84.367913 77.015458 85.966297 77.148393 87.429804 77.518265 C 86.592887 81.310336 87.004629 85.111063 87.144034 88.372899 C 81.587787 88.774533 74.417819 89.210076 70.659769 88.624047 C 70.812315 85.054587 72.547424 81.41366 71.682445 77.512064 C 75.118897 77.554704 79.059915 76.982361 82.709162 77.005118 z M 94.820051 78.243802 C 98.351595 78.226822 99.313018 78.353356 103.65052 78.353356 C 102.13543 87.634765 105.33749 90.755397 103.81537 101.43308 C 92.409848 105.17228 82.042997 105.7426 71.582193 102.68159 C 71.612353 98.437088 68.761371 96.707155 70.834435 90.305081 C 71.108678 89.45816 85.585822 90.599641 89.615201 91.300886 C 89.666421 86.963654 87.172637 82.45632 90.211547 78.318733 C 92.180105 78.271233 93.642869 78.249462 94.820051 78.243802 z M 61.362662 82.917935 C 64.227626 82.926235 67.018501 83.168526 69.619005 84.009341 C 68.295919 90.127557 70.135953 103.02216 68.916206 103.17923 C 65.593219 103.60715 59.738242 105.28668 57.062149 104.02207 C 56.627429 103.40307 57.188091 102.68354 56.219307 99.974775 C 51.175538 98.537466 50.150932 99.701923 46.569767 99.391348 C 47.170348 95.238533 51.439729 87.081047 50.191251 83.268818 C 53.873034 83.283178 57.679137 82.907246 61.362662 82.917935 z M 24.628987 101.35867 C 25.411774 101.35367 26.187082 101.35587 26.954944 101.36487 C 37.19308 101.47743 46.107786 102.73239 53.796716 103.83707 C 55.158148 106.23927 54.621988 111.79435 54.621988 123.4984 C 35.596503 127.55771 23.107903 125.32896 8.3643472 126.04657 C 7.1353921 114.53098 5.9626054 108.01168 7.075537 102.67487 C 13.303223 101.77029 19.149485 101.39387 24.628987 101.35919 L 24.628987 101.35867 z M 112.43913 104.72746 C 115.05158 104.72546 117.58936 105.29874 119.70949 105.27161 C 121.01312 110.97141 116.89393 118.61509 117.42126 125.37529 C 107.41996 126.29281 93.793769 125.47807 81.230183 123.79141 C 81.275173 121.83569 82.648114 118.88048 82.700894 116.88847 C 87.399868 115.4342 97.23561 116.06538 108.34067 117.21197 C 107.94396 113.82656 106.46749 109.16018 107.72986 105.60647 C 109.27697 104.93721 110.87166 104.72872 112.43913 104.72746 z M 101.16178 104.74658 C 102.40848 104.73958 103.34321 104.93326 103.81537 105.46591 C 105.51059 107.32693 104.91178 111.79721 105.17342 114.38578 C 98.089927 115.50972 93.447225 114.22926 86.36372 114.11706 C 86.42715 111.7581 85.592093 107.43601 85.616995 106.51856 C 90.877291 106.59856 97.421714 104.76794 101.16178 104.74658 z M 75.203677 105.19151 C 78.470365 105.15051 81.620246 105.74443 83.976785 106.25398 C 83.955385 107.22764 85.738967 111.01504 84.095124 114.74442 C 80.793216 115.13322 77.000768 116.39093 73.69886 115.76554 C 72.919922 113.23976 73.080477 107.7924 73.798079 105.24991 C 74.267527 105.21601 74.737009 105.19741 75.203677 105.19151 z " />
  </g>
  <metadata
     id="metadata42204">
    <rdf:RDF>
      <cc:Work
         rdf:about="">
        <cc:license
           rdf:resource="http://creativecommons.org/licenses/by-sa/4.0/" />
      </cc:Work>
      <cc:License
         rdf:about="http://creativecommons.org/licenses/by-sa/4.0/">
        <cc:permits
           rdf:resource="http://creativecommons.org/ns#Reproduction" />
        <cc:permits
           rdf:resource="http://creativecommons.org/ns#Distribution" />
        <cc:requires
           rdf:resource="http://creativecommons.org/ns#Notice" />
        <cc:requires
           rdf:resource="http://creativecommons.org/ns#Attribution" />
        <cc:permits
           rdf:resource="http://creativecommons.org/ns#DerivativeWorks" />
        <cc:requires
           rdf:resource="http://creativecommons.org/ns#ShareAlike" />
      </cc:License>
    </rdf:RDF>
  </metadata>
</svg>
