<?xml version="1.0" encoding="UTF-8" standalone="no"?>
<!-- Created with Inkscape (http://www.inkscape.org/) -->

<svg
   width="64"
   height="64"
   viewBox="0 0 16.933333 16.933333"
   version="1.1"
   id="svg1"
   xml:space="preserve"
   inkscape:version="1.3.2 (1:1.3.2+202311252150+091e20ef0f)"
   sodipodi:docname="icon.svg"
   inkscape:export-filename="icon.png"
   inkscape:export-xdpi="96"
   inkscape:export-ydpi="96"
   xmlns:inkscape="http://www.inkscape.org/namespaces/inkscape"
   xmlns:sodipodi="http://sodipodi.sourceforge.net/DTD/sodipodi-0.dtd"
   xmlns:xlink="http://www.w3.org/1999/xlink"
   xmlns="http://www.w3.org/2000/svg"
   xmlns:svg="http://www.w3.org/2000/svg"
   xmlns:rdf="http://www.w3.org/1999/02/22-rdf-syntax-ns#"
   xmlns:cc="http://creativecommons.org/ns#"><sodipodi:namedview
     id="namedview1"
     pagecolor="#ffffff"
     bordercolor="#666666"
     borderopacity="1.0"
     inkscape:showpageshadow="2"
     inkscape:pageopacity="0.0"
     inkscape:pagecheckerboard="true"
     inkscape:deskcolor="#d1d1d1"
     inkscape:document-units="px"
     inkscape:zoom="4"
     inkscape:cx="15.5"
     inkscape:cy="46.625"
     inkscape:window-width="1868"
     inkscape:window-height="1016"
     inkscape:window-x="52"
     inkscape:window-y="27"
     inkscape:window-maximized="1"
     inkscape:current-layer="layer1"
     showguides="true" /><defs
     id="defs1"><linearGradient
       id="linearGradient51"
       inkscape:collect="always"><stop
         style="stop-color:#7cb3d0;stop-opacity:0.34033111;"
         offset="0"
         id="stop51" /><stop
         style="stop-color:#7cb3d0;stop-opacity:0;"
         offset="1"
         id="stop52" /></linearGradient><linearGradient
       id="linearGradient31"
       inkscape:collect="always"><stop
         style="stop-color:#a179d4;stop-opacity:1;"
         offset="0"
         id="stop31" /><stop
         style="stop-color:#7b44ae;stop-opacity:1;"
         offset="1"
         id="stop32" /></linearGradient><linearGradient
       id="linearGradient29"
       inkscape:collect="always"><stop
         style="stop-color:#226994;stop-opacity:1;"
         offset="0"
         id="stop29" /><stop
         style="stop-color:#2c8cbe;stop-opacity:1;"
         offset="1"
         id="stop30" /></linearGradient><linearGradient
       id="linearGradient24"
       inkscape:collect="always"><stop
         style="stop-color:#9f77ad;stop-opacity:1;"
         offset="0"
         id="stop24" /><stop
         style="stop-color:#80558a;stop-opacity:1;"
         offset="0.94744271"
         id="stop26" /><stop
         style="stop-color:#9c6ba6;stop-opacity:1;"
         offset="1"
         id="stop25" /></linearGradient><linearGradient
       id="linearGradient22"
       inkscape:collect="always"><stop
         style="stop-color:#c459ea;stop-opacity:1;"
         offset="0"
         id="stop22" /><stop
         style="stop-color:#9c17cb;stop-opacity:1;"
         offset="1"
         id="stop23" /></linearGradient><linearGradient
       id="linearGradient20"
       inkscape:collect="always"><stop
         style="stop-color:#4f944e;stop-opacity:1;"
         offset="0"
         id="stop20" /><stop
         style="stop-color:#3f7b3e;stop-opacity:1;"
         offset="1"
         id="stop21" /></linearGradient><linearGradient
       id="linearGradient17"
       inkscape:collect="always"><stop
         style="stop-color:#a39474;stop-opacity:1;"
         offset="0"
         id="stop18" /><stop
         style="stop-color:#72664d;stop-opacity:1;"
         offset="1"
         id="stop19" /></linearGradient><linearGradient
       id="linearGradient13"
       inkscape:collect="always"><stop
         style="stop-color:#f49180;stop-opacity:1;"
         offset="0"
         id="stop14" /><stop
         style="stop-color:#f28775;stop-opacity:1;"
         offset="0.082211"
         id="stop16" /><stop
         style="stop-color:#ec6551;stop-opacity:1;"
         offset="0.95951003"
         id="stop17" /><stop
         style="stop-color:#ed6d5a;stop-opacity:1;"
         offset="1"
         id="stop15" /></linearGradient><linearGradient
       id="linearGradient10"
       inkscape:collect="always"><stop
         style="stop-color:#ea6248;stop-opacity:1;"
         offset="0"
         id="stop10" /><stop
         style="stop-color:#d2482d;stop-opacity:1;"
         offset="0.43029833"
         id="stop13" /><stop
         style="stop-color:#bd3116;stop-opacity:1;"
         offset="0.97784972"
         id="stop12" /><stop
         style="stop-color:#ee765d;stop-opacity:1;"
         offset="1"
         id="stop11" /></linearGradient><linearGradient
       id="linearGradient4"
       inkscape:collect="always"><stop
         style="stop-color:#47a2d0;stop-opacity:1;"
         offset="0"
         id="stop4" /><stop
         style="stop-color:#67b1d8;stop-opacity:1;"
         offset="1"
         id="stop5" /></linearGradient><linearGradient
       inkscape:collect="always"
       xlink:href="#linearGradient4"
       id="linearGradient5"
       x1="7.6210613"
       y1="0.17639941"
       x2="7.6210613"
       y2="9.6847897"
       gradientUnits="userSpaceOnUse" /><linearGradient
       inkscape:collect="always"
       xlink:href="#linearGradient10"
       id="linearGradient11"
       x1="11.053623"
       y1="11.542591"
       x2="14.233835"
       y2="11.533432"
       gradientUnits="userSpaceOnUse"
       gradientTransform="translate(-0.11991203,-0.32717742)" /><radialGradient
       inkscape:collect="always"
       xlink:href="#linearGradient13"
       id="radialGradient15"
       cx="12.112559"
       cy="10.296737"
       fx="12.112559"
       fy="10.296737"
       r="1.5849652"
       gradientTransform="matrix(1.5009341,0.01092151,-0.00654135,0.89897312,-6.157061,0.77367338)"
       gradientUnits="userSpaceOnUse" /><linearGradient
       inkscape:collect="always"
       xlink:href="#linearGradient17"
       id="linearGradient19"
       x1="2.355923"
       y1="11.003491"
       x2="15.457893"
       y2="11.003491"
       gradientUnits="userSpaceOnUse" /><linearGradient
       inkscape:collect="always"
       xlink:href="#linearGradient20"
       id="linearGradient21"
       x1="6.5142097"
       y1="7.3073268"
       x2="11.384588"
       y2="11.896749"
       gradientUnits="userSpaceOnUse" /><radialGradient
       inkscape:collect="always"
       xlink:href="#linearGradient22"
       id="radialGradient23"
       cx="3.8613908"
       cy="3.9973965"
       fx="3.8613908"
       fy="3.9973965"
       r="3.2811917"
       gradientTransform="matrix(0.63072419,0.28716693,-0.72825517,1.5995162,4.5217337,-3.9165009)"
       gradientUnits="userSpaceOnUse" /><linearGradient
       inkscape:collect="always"
       xlink:href="#linearGradient24"
       id="linearGradient25"
       x1="4.9747095"
       y1="8.0341349"
       x2="6.3509917"
       y2="7.9527888"
       gradientUnits="userSpaceOnUse"
       gradientTransform="translate(0.01718557,-0.24662476)" /><filter
       inkscape:collect="always"
       style="color-interpolation-filters:sRGB"
       id="filter28"
       x="-0.013740191"
       y="-0.014433895"
       width="1.0274804"
       height="1.0288678"><feGaussianBlur
         inkscape:collect="always"
         stdDeviation="0.033503765"
         id="feGaussianBlur28" /></filter><linearGradient
       inkscape:collect="always"
       xlink:href="#linearGradient29"
       id="linearGradient30"
       x1="11.133023"
       y1="15.326576"
       x2="8.8849735"
       y2="5.6366315"
       gradientUnits="userSpaceOnUse" /><filter
       inkscape:collect="always"
       style="color-interpolation-filters:sRGB"
       id="filter30"
       x="-0.012411075"
       y="-0.026775159"
       width="1.0248222"
       height="1.0535503"><feGaussianBlur
         inkscape:collect="always"
         stdDeviation="0.068398159"
         id="feGaussianBlur30" /></filter><radialGradient
       inkscape:collect="always"
       xlink:href="#linearGradient31"
       id="radialGradient32"
       cx="4.6774421"
       cy="2.8808281"
       fx="4.6774421"
       fy="2.8808281"
       r="0.21637356"
       gradientTransform="matrix(0.81205779,0.0184408,-0.02039102,0.8883071,0.92853512,0.24944107)"
       gradientUnits="userSpaceOnUse" /><filter
       inkscape:collect="always"
       style="color-interpolation-filters:sRGB"
       id="filter33"
       x="-0.047971802"
       y="-0.045098817"
       width="1.0959436"
       height="1.0901976"><feGaussianBlur
         inkscape:collect="always"
         stdDeviation="0.0091944165"
         id="feGaussianBlur33" /></filter><radialGradient
       inkscape:collect="always"
       xlink:href="#linearGradient31"
       id="radialGradient34"
       gradientUnits="userSpaceOnUse"
       gradientTransform="matrix(0.81205779,0.0184408,-0.02039102,0.8883071,0.92853512,0.24944107)"
       cx="4.6774421"
       cy="2.8808281"
       fx="4.6774421"
       fy="2.8808281"
       r="0.21637356" /><radialGradient
       inkscape:collect="always"
       xlink:href="#linearGradient31"
       id="radialGradient36"
       gradientUnits="userSpaceOnUse"
       gradientTransform="matrix(0.81205779,0.0184408,-0.02039102,0.8883071,0.92853512,0.24944107)"
       cx="4.6774421"
       cy="2.8808281"
       fx="4.6774421"
       fy="2.8808281"
       r="0.21637356" /><radialGradient
       inkscape:collect="always"
       xlink:href="#linearGradient31"
       id="radialGradient38"
       gradientUnits="userSpaceOnUse"
       gradientTransform="matrix(0.81205779,0.0184408,-0.02039102,0.8883071,0.92853512,0.24944107)"
       cx="4.6774421"
       cy="2.8808281"
       fx="4.6774421"
       fy="2.8808281"
       r="0.21637356" /><radialGradient
       inkscape:collect="always"
       xlink:href="#linearGradient31"
       id="radialGradient40"
       gradientUnits="userSpaceOnUse"
       gradientTransform="matrix(0.81205779,0.0184408,-0.02039102,0.8883071,0.92853512,0.24944107)"
       cx="4.6774421"
       cy="2.8808281"
       fx="4.6774421"
       fy="2.8808281"
       r="0.21637356" /><radialGradient
       inkscape:collect="always"
       xlink:href="#linearGradient31"
       id="radialGradient42"
       gradientUnits="userSpaceOnUse"
       gradientTransform="matrix(0.81205779,0.0184408,-0.02039102,0.8883071,0.92853512,0.24944107)"
       cx="4.6774421"
       cy="2.8808281"
       fx="4.6774421"
       fy="2.8808281"
       r="0.21637356" /><radialGradient
       inkscape:collect="always"
       xlink:href="#linearGradient31"
       id="radialGradient44"
       gradientUnits="userSpaceOnUse"
       gradientTransform="matrix(0.81205779,0.0184408,-0.02039102,0.8883071,0.92853512,0.24944107)"
       cx="4.6774421"
       cy="2.8808281"
       fx="4.6774421"
       fy="2.8808281"
       r="0.21637356" /><radialGradient
       inkscape:collect="always"
       xlink:href="#linearGradient31"
       id="radialGradient46"
       gradientUnits="userSpaceOnUse"
       gradientTransform="matrix(0.81205779,0.0184408,-0.02039102,0.8883071,0.92853512,0.24944107)"
       cx="4.6774421"
       cy="2.8808281"
       fx="4.6774421"
       fy="2.8808281"
       r="0.21637356" /><filter
       inkscape:collect="always"
       style="color-interpolation-filters:sRGB"
       id="filter47"
       x="-0.052628258"
       y="-0.1190572"
       width="1.1052565"
       height="1.2381144"><feGaussianBlur
         inkscape:collect="always"
         stdDeviation="0.10899872"
         id="feGaussianBlur47" /></filter><filter
       inkscape:collect="always"
       style="color-interpolation-filters:sRGB"
       id="filter48"
       x="-0.07608666"
       y="-0.10920513"
       width="1.1521733"
       height="1.2184103"><feGaussianBlur
         inkscape:collect="always"
         stdDeviation="0.10571185"
         id="feGaussianBlur48" /></filter><linearGradient
       inkscape:collect="always"
       xlink:href="#linearGradient51"
       id="linearGradient52"
       x1="8.3666992"
       y1="16.83326"
       x2="8.1957502"
       y2="6.632977"
       gradientUnits="userSpaceOnUse" /></defs><g
     inkscape:label="Main"
     inkscape:groupmode="layer"
     id="layer1"
     style="display:inline"><rect
       style="fill:url(#linearGradient30);stroke:none;stroke-width:0.529167;stroke-linecap:round;stroke-linejoin:round;stroke-dasharray:none;stroke-opacity:1"
       id="rect1"
       width="16.442991"
       height="16.414278"
       x="0.26324162"
       y="0.25711393"
       ry="2.7541556"
       inkscape:label="sea" /><path
       id="path50"
       style="color:#000000;display:inline;fill:url(#linearGradient52);stroke-linecap:round;stroke-linejoin:round;-inkscape-stroke:none"
       d="m 16.337702,12.313453 c 0.01123,0.14481 -0.07684,0.357172 -0.177456,0.456814 -0.10704,0.106008 -0.09202,0.203424 -0.221176,0.283187 -0.31433,0.19412 -0.510879,-0.148509 -0.615466,-0.274402 -0.05718,-0.06882 0.01652,-0.21028 -0.05633,-0.365353 0.02224,0.104382 0.03533,0.390195 -0.05219,0.33228 -0.0825,-0.05459 -0.268606,-0.05456 -0.384473,-0.03514 0.427166,-0.01946 0.805644,0.317981 0.607198,0.606164 -0.304433,0.442099 0.251448,0.629653 -0.151412,0.86248 -0.07674,0.04435 -0.285389,-0.0089 -0.414445,-0.148311 -0.07858,-0.08491 -0.365204,-0.153558 -0.483691,-0.217558 0.186205,0.130535 0.558196,0.273973 0.505912,0.478007 -0.09259,0.361327 -0.09623,0.08864 -0.113688,0.468188 -0.01124,0.244404 -0.293317,0.589436 -0.478524,0.515214 -0.245823,-0.09851 -0.483489,-0.446332 -0.958598,-0.313676 -0.356169,0.09945 -0.42391,-0.306588 -0.499711,-0.457336 0.06051,0.298838 0.175425,0.521878 0.158834,0.600052 -0.02676,0.126077 -0.250345,0.277471 -0.190864,0.489287 0.108204,0.385372 -0.998918,0.314913 -1.204061,0.217041 -0.674484,-0.321794 0.11504,-0.583212 -0.474883,-0.733045 -0.153528,-0.03899 0.125316,-0.71755 0.166891,-0.946439 -0.19772,0.529523 -0.447063,1.061635 -0.579101,1.044039 -0.267684,-0.03566 -0.287274,-0.295481 -0.457903,-0.381972 -0.136849,-0.06937 -0.4093209,0.01758 -0.6964214,0.08494 -0.7604235,0.178383 0.1560043,-1.50146 -0.056647,-1.664247 0.00241,0.242827 -0.1342833,0.888588 -0.4418335,1.150318 -0.2510128,0.213616 -0.560094,0.06581 -0.9422385,0.01438 C 7.7838884,14.332398 7.7307602,13.567421 7.6672321,13.260689 7.6068098,12.968953 7.7915226,12.780933 7.9860757,12.620935 7.7160078,12.760349 7.615928,12.86332 7.581966,13.445174 7.5546419,13.913303 7.9060068,14.463883 7.7411294,14.467334 6.8530001,14.485924 7.1856371,14.673355 6.805786,14.80013 6.49148,14.90503 6.380503,13.760322 6.6626423,13.663248 6.2567982,13.824373 6.6576019,14.623958 5.9851643,14.55415 5.5769273,14.511769 5.7698212,14.359158 5.577954,14.064258 5.5224215,13.951174 5.3942407,13.885543 5.3753824,13.773319 5.3436483,13.584473 6.0809385,13.421434 6.0869668,12.681396 5.8895072,13.37891 5.5079031,13.61691 5.1412881,13.549044 4.9264495,13.509272 3.9147936,13.48175 4.0643513,13.298413 4.2871782,13.025257 3.9284331,12.531288 3.8659138,12.445752 4.0677103,13.113163 4.0161912,12.959899 3.8762491,13.413135 3.7532616,13.811453 3.3730794,13.53839 3.2235758,13.61984 3.118534,13.67707 2.9726283,13.259594 2.8654581,13.243636 2.645774,13.210926 2.779163,12.937279 2.841687,12.788883 2.75099,12.868593 2.6889659,12.96461 2.6613362,13.211596 c -0.030106,0.269127 -0.737746,0.270361 -0.850594,0.05581 -0.084165,-0.160017 0.2777166,-0.416487 0.3513997,-0.554488 0.131945,-0.24712 0.215561,-0.315427 0.2092895,-0.454753 -0.08409,0.303379 -0.3192548,0.573487 -0.381372,0.417546 C 1.833237,12.28202 0.7900147,12.177884 0.77152912,11.801863 c -0.01046,-0.212761 0.75297918,0.120755 1.09915768,-0.235127 -0.337715,0.116708 -0.7883466,0.273174 -1.0366292,0.03256 -0.15516587,-0.150374 0.0609594,-0.350705 0.0549236,-0.619652 -0.001224,-0.05454 -0.006423,-0.227207 0.3639309,-0.352824 -0.29034794,0.01558 -0.35184219,0.244079 -0.41402087,0.227026 -0.16789549,-0.04605 -0.36450159,-0.423992 -0.36450159,-0.423992 0.18311263,0.347595 0.28819131,0.417328 0.32969563,0.47749 0.13305443,0.201276 -0.0958023,0.939814 -0.54001871,0.60048 l -0.0139526,0.12299 c 0.27722272,0.05189 0.30878967,0.02376 0.49764403,0.314193 0.10556826,0.162353 0.65761011,0.342013 0.69969881,0.372587 0.1880024,0.136569 0.4351049,0.157939 0.4444173,0.401009 0.02094,0.546558 -0.5869846,0.21355 -0.94361156,0.313159 -0.332561,0.09289 -0.45048611,0.172045 -0.63355304,0.190686 l -0.007235,0.152963 c 0.23416546,-0.06109 1.0776413,-0.471071 1.3089643,-0.157613 0.1462372,0.198162 -0.4142028,0.583622 -0.3607015,0.7059 0.074567,0.170422 0.1434839,0.102729 0.1317749,0.316776 -0.00733,0.13407 -0.84052052,-0.09598 -1.05988363,0 l 0.054777,0.162264 c 0.13094432,-0.168511 0.66952093,-0.208562 0.75447593,0.235128 0.051771,0.270384 -0.30802951,0.575212 -0.47697349,0.752409 l 0.10335286,0.145211 C 0.8515758,15.534662 1.0916537,15.033727 1.453658,14.96136 c 0.052566,-0.01051 0.2643772,-0.03928 0.3110921,0.0186 0.09343,0.115787 0.235425,0.134431 0.3658692,0.281636 0.1304436,0.14721 0.47988,0.203373 0.5312337,0.33383 0.063452,0.16119 -0.3915685,0.133067 -0.5291667,0.111621 -0.090519,-0.0014 -0.3942465,-0.147143 -0.4842081,-0.07286 -0.089962,0.07427 -0.064193,0.528033 -0.2356446,0.517797 l 0.2547648,0.114205 c -0.1026716,-0.100773 0.062595,-0.311215 0.092501,-0.335897 0.029897,-0.02468 0.2044691,-0.20839 0.3689698,0.04237 0.010885,0.0166 -0.08721,0.670849 -0.064596,0.664559 0.2235016,0.129251 0.085306,-0.513504 0.2619995,-0.680062 0.093787,-0.08841 0.1973503,-0.123204 0.3679362,-0.117305 0.1333238,0.0046 0.1253738,0.381317 0.2563151,0.435632 0.1471403,0.06104 0.118691,-0.03334 0.3384807,0.0186 0.309855,0.07323 0.1768252,0.191512 0.2640665,0.275435 h 0.8495605 c 0.1177754,-0.178016 0.4103998,-0.45684 0.8898682,-0.93586 0.05868,-0.05862 0.2843579,0.0034 0.3638021,-0.01447 0.06108,-0.01373 0.1135136,-0.02087 0.1586466,-0.02274 0.3159339,-0.01311 0.2753224,0.239559 0.3581177,0.415478 0.089652,0.19049 -0.042561,0.392095 -0.2728516,0.557589 h 0.1157552 c 0.1293659,-0.112302 0.2141218,-0.257669 0.2904216,-0.274919 0.4125114,-0.09326 0.4608355,0.436277 0.4914428,0.408244 0.1038944,-0.09515 -0.2910006,-0.512961 0.011369,-0.515214 0.5777412,-0.0043 0.639619,0.152709 1.3782105,-0.173633 0.1240626,-0.05482 0.627033,-0.364743 0.8840151,-0.281485 0.224498,0.07273 0.012479,0.44977 0.1433123,0.536767 0.071787,0.04773 0.1300043,0.240025 0.2071004,0.257449 0.095413,0.02156 0.2103843,-0.138849 0.3044963,-0.151512 0.4498011,-0.06051 0.9723841,-0.448077 1.3435871,-0.363286 0.100097,0.02286 0.26936,0.0797 0.35295,0.189136 0.123252,0.161356 0.198107,0.322008 0.268718,0.485242 h 0.194303 c -0.06653,-0.09046 -0.08889,-0.181795 0.02222,-0.326595 0.1708,-0.222594 0.05157,-0.35724 0.258899,-0.362252 0.124395,-0.003 0.366744,0.0404 0.859379,0.140043 0.43861,0.08872 0.557866,0.227899 0.483174,0.548804 h 0.270268 c 0.04156,-0.187478 -0.302266,-0.53286 -0.04304,-0.641931 0.209168,-0.08801 0.253707,-0.320335 0.419242,-0.476347 0.02993,-0.0282 0.287353,-0.145289 0.320393,-0.169499 0.322502,-0.236293 0.572732,0.17411 1.045931,0.257865 0.473204,0.08376 0.572575,0.252181 0.572575,0.252181 l 0.157613,-0.195337 c 0,0 -0.200042,-0.173917 -0.715201,-0.2651 -0.301911,-0.05344 -0.695945,-0.644786 -0.561206,-0.893485 0.09267,-0.171054 0.429877,-0.150935 0.757576,-0.620117 0.198608,-0.284358 0.67229,0.427703 0.837158,0.667659 l 0.09922,-0.131775 c -0.226914,-0.14816 -0.334196,-0.344431 -0.347782,-0.56534 -0.01991,-0.323722 0.431131,-0.849225 0.404626,-0.8847 l -0.06201,-0.143144 c -0.233202,0.174181 -0.222068,0.846583 -0.516764,0.833541 -0.192505,-0.0085 -0.675882,0.05009 -0.731738,-0.214974 -0.04894,-0.232255 0.440168,-0.245373 0.706933,-0.481625 0.0406,-0.03596 0.01438,-0.153574 0.05064,-0.193269 0.306412,-0.335518 0.4579,-0.730479 0.594796,-0.783932 l -0.06362,-0.164772 -0.172435,0.315972 c -0.102271,0.187404 -0.401474,-0.450477 -0.37082,-0.552925 0.01174,-0.03923 0.391616,-0.258271 0.377789,-0.273044 -0.01353,-0.01445 -0.222101,0.155208 -0.35032,0.159344 -0.224744,0.0072 -0.335645,-0.275715 -0.630767,-0.239151 0.177842,0.03052 0.495926,0.165697 0.509516,0.419421 0.0109,0.203395 0.123304,0.211586 0.171697,0.323743 0.04015,0.09304 0.08996,0.188549 0.09766,0.287887 z M 2.0319173,13.513387 c 0.1633743,-0.02874 0.00985,0.733542 0.2666504,0.853694 0.6201901,0.290178 0.5069352,0.31958 0.7539591,0.402043 0.3295844,0.295885 0.1204787,0.587457 -0.1565796,0.617533 C 2.6944387,15.408527 2.0079188,14.683993 1.4629598,14.862142 1.2428375,14.934102 1.2818937,14.390412 1.4004318,14.3769 1.7114827,14.34144 1.077057,13.475787 2.0319173,13.513387 Z m 0.7379394,0.07028 c 0.1045922,0.0198 0.2626478,0.183391 0.5849772,0.207739 0.1761992,0.01331 0.2857817,0.43629 0.2552816,0.612882 -0.03823,0.221351 -1.2853014,0.06363 -1.3818278,-0.406693 -0.043448,-0.2117 0.3227789,-0.360683 0.4997111,-0.412895 0.01308,-0.0039 0.026916,-0.0039 0.041858,-10e-4 z m 1.885673,0.05374 c 0.1273141,-0.0053 0.2479761,0.0084 0.3524333,0.04599 0.186246,0.06705 0.1413194,0.3316 0.2444295,0.541569 0.1031102,0.209969 0.4518049,0.609198 0.543636,0.806669 0.238195,0.411343 -0.1583351,0.511871 -0.6888468,0.293006 C 4.7740065,15.206558 4.8618425,14.822501 4.3423705,14.713314 4.0519952,14.652284 3.7860296,14.356062 3.7966674,14.067875 3.8120574,13.650933 4.1038355,13.660484 4.6555297,13.63741 Z m 10.8878623,0.08258 c 0.04512,-0.02295 0.15413,0.03346 0.169052,0.08183 0.03247,0.105251 -0.179548,0.231088 -0.175464,0.178498 0.0034,-0.04337 -0.08101,-0.215874 0.0064,-0.260331 z m -7.1025637,0.789205 c 0.072408,0.0094 0.1731186,0.08162 0.3488159,0.280086 0.110309,0.124603 -0.1520715,0.665907 -0.2883545,0.829923 -0.3020697,0.3636 -1.4110192,0.455604 -1.8489827,0.458887 -0.3082154,0.0023 -0.5684491,-0.177414 -0.4583699,-0.446484 0.050321,-0.123002 0.037418,-0.35945 0.1922363,-0.414445 0,0 0.9645021,-0.653522 1.4980997,-0.531234 0.3761003,0.08619 0.397257,-0.197486 0.5565552,-0.176733 z m 1.5263464,0.467905 c 0.1846323,-0.005 0.3362903,0.03386 0.3901573,0.132292 l 0.100769,0.183451 c 0.100548,0.18374 0.456934,-0.19007 0.600655,0.008 0.03909,0.05389 -0.04737,0.105255 -0.19792,0.280603 -0.386727,0.450425 -1.0520589,0.726914 -1.4996505,0.467154 -0.061421,-0.03565 -0.029616,-0.40125 -0.1056644,-0.546122 -0.043271,-0.08243 -0.2120345,-0.266133 -0.1981928,-0.373718 0.033028,-0.256731 0.5036584,-0.14069 0.9098464,-0.151695 z M 3.5889282,14.689546 c 0.1876446,0.0048 0.3496705,0.159022 0.5420857,0.222209 0.2753085,0.09041 0.6259727,0.213499 0.659908,0.377238 0.045968,0.221795 0.0507,0.626634 -0.088883,0.642855 -0.5483256,0.06372 0.021011,0.375633 -0.7183024,0.371037 -0.1803312,-0.0011 -0.8538246,-0.11344 -0.9523966,-0.180868 -0.136307,-0.09324 -0.06762,-0.198341 -0.1271241,-0.361735 -0.1223948,-0.336093 0.6163582,-0.209824 0.4408,-0.836641 -0.031503,-0.112481 0.1313285,-0.236947 0.2439124,-0.234095 z m 10.4196568,0.684845 c 0.226812,0.287748 -0.796197,0.728666 -0.933656,0.627646 -0.136164,-0.100072 0.0084,-0.377278 -0.06067,-0.530868 -0.111396,-0.247564 0.22998,-0.384928 0.33756,-0.397144 0.05502,-0.0062 0.447686,0.03511 0.656768,0.300366 z"
       sodipodi:nodetypes="cssccscssccsssscscscccsccssscssscscscsscssscssscsscsscsccccssscccsscccsccsccscccccccsccccccccsccsccsssscssccsccccsccsccsssccscccsscccsssacsascscscccscscccsccccscssccssccsssssccsssssscssssssscssssssssssss"
       inkscape:label="sea fx" /><path
       style="display:inline;mix-blend-mode:normal;fill:#ffffff;fill-opacity:0.446349;stroke:none;stroke-width:0.529167;stroke-linecap:round;stroke-linejoin:round;stroke-dasharray:none;stroke-opacity:1;filter:url(#filter30)"
       d="m 12.270793,14.329127 c -0.152214,-0.009 -0.295528,0.105715 -0.419694,0.08973 -0.150448,-0.01937 -0.275773,-0.170214 -0.393235,-0.187974 -0.129901,-0.01964 -0.377094,0.04964 -0.481473,0.0053 -0.129735,-0.05512 -0.110136,-0.229616 -0.205954,-0.310312 -0.09072,-0.0764 -0.296062,-0.114179 -0.366239,-0.2121 -0.07936,-0.110732 -0.02204,-0.285532 -0.118702,-0.421769 -0.06296,-0.08873 -0.3125158,0.01734 -0.4867929,-0.142114 C 9.6808264,13.04204 9.8342211,12.760565 9.6751486,12.624425 9.5893656,12.551005 9.0550696,12.613845 8.9505435,12.535135 8.7988105,12.420862 8.8862013,12.238953 8.6866714,12.113333 8.537296,12.019289 8.1752379,12.170003 7.99249,12.068405 7.8657526,11.997946 8.0380296,11.805883 7.7202741,11.778246 7.4944199,11.758602 7.303176,11.943327 7.1019664,11.901519 6.7887052,11.836427 6.4893044,11.541758 6.2722824,11.65948 6.0523845,11.778762 5.7482698,11.834836 5.372193,11.828019 c -0.1553208,-0.0028 -0.1099751,0.207408 -0.235305,0.265445 -0.1651271,0.07647 -0.4860814,0.05389 -0.6229837,0.132766 -0.1159396,0.0668 -0.094543,0.194301 -0.1982829,0.251537 -0.1292827,0.07133 -0.3813502,0.06831 -0.5045507,0.106722 -0.1174065,0.0366 -0.1517963,0.150712 -0.2763274,0.151697 -0.066068,5.22e-4 -0.2916814,0.05575 -0.3627094,-0.212781 -0.027365,-0.103456 -0.1348715,-0.02436 -0.2509443,-0.09952 -0.066243,-0.04289 -0.2089451,-0.04427 -0.2631808,-0.09918 -0.046544,-0.04713 -0.00613,-0.146343 -0.044565,-0.200928 -0.035165,-0.04995 -0.1067456,-0.08561 -0.135658,-0.140768 -0.025413,-0.04848 -0.00884,-0.115914 -0.029797,-0.167705 -0.019956,-0.04931 -0.084236,-0.09444 -0.1004625,-0.146166 -0.015442,-0.04922 0.017001,-0.104938 0.00467,-0.155829 -0.012054,-0.04974 -0.040135,-0.100163 -0.049464,-0.151028 -0.00762,-0.04155 0.00308,-0.0834 -0.00287,-0.125417 -0.00509,-0.03597 -0.00363,-0.117215 -0.00759,-0.153348 -0.00341,-0.03116 -0.029785,-0.09064 -0.028139,-0.119471 0.00172,-0.03007 0.033606,-0.0693 0.024338,-0.134749 -0.00566,-0.03994 -0.027192,-0.07666 -0.025823,-0.126659 3.515e-4,-0.01283 0.029765,-0.09502 0.030274,-0.110238 0.012593,-0.376488 0.0631,-1.2942504 0.2364344,-1.4193656 0.7408567,-0.5347608 3.5003071,-0.854812 5.3234276,-0.8758638 12.7043146,-0.1467 -0.5566526,1.8679254 7.6081706,1.0947022 0,0 0.170665,0.9144912 -0.328129,2.1177002 -0.01442,0.03478 0.02587,0.217284 0.01075,0.251758 -0.0144,0.03277 -0.125643,0.144355 -0.140717,0.176785 -0.02097,0.04511 0.03015,0.217173 0.0078,0.261472 -0.02178,0.04325 -0.146998,0.105835 -0.1701,0.14816 -0.01561,0.0286 0.02031,0.125728 0.006,0.155018 -0.01701,0.03486 -0.150292,0.107756 -0.167932,0.142263 -0.01767,0.03456 0.05547,0.167699 0.03717,0.201847 -0.02602,0.04854 -0.09552,0.01633 -0.12284,0.06386 -0.0258,0.04487 -0.0122,0.104451 -0.03919,0.148254 -0.03406,0.05528 -0.157353,0.076 -0.193344,0.129289 -0.04242,0.06282 0.199935,0.04332 0.154765,0.102876 -0.06022,0.0794 -0.409049,0.23649 -0.474305,0.308985 -0.05851,0.065 0.06169,0.211351 -9.96e-4,0.269826 -0.0832,0.07761 -0.350883,0.06469 -0.441682,0.128929 -0.07038,0.04979 -0.04146,0.122854 -0.116555,0.163472 -0.09902,0.05356 -0.402409,0.04162 -0.509902,0.07722 -0.101237,0.03352 -0.03986,0.162016 -0.148864,0.177626 -0.123401,0.01767 -0.418304,-0.0802 -0.552009,-0.08809 z"
       id="path7"
       sodipodi:nodetypes="sssssssssssssssssssssssssssssssssssssscssssssssssssssssssss"
       inkscape:label="foam" /><path
       id="rect3"
       style="fill:url(#linearGradient5);stroke-width:0.529167;stroke-linecap:round;stroke-linejoin:round"
       inkscape:label="sky"
       d="M 3.0173973,0.25711393 H 13.952077 c 1.525802,0 2.754156,1.22835337 2.754156,2.75415567 v 6.6726331 c 0,0 -3.766311,-1.0583334 -8.2214957,-1.0583334 -4.455185,0 -8.22149568,1.0583334 -8.22149568,1.0583334 V 3.0112696 c 0,-1.5258023 1.22835338,-2.75415567 2.75415568,-2.75415567 z"
       sodipodi:nodetypes="sssczcss" /><path
       style="display:inline;fill:url(#linearGradient19);stroke:none;stroke-width:0.529167;stroke-linecap:round;stroke-linejoin:round;stroke-dasharray:none;stroke-opacity:1"
       d="M 12.351601,14.018128 C 9.6410624,13.858101 11.873356,12.294412 7.801082,11.467247 4.5435915,10.805583 4.3373243,12.977589 3.0018975,12.112888 1.9748397,11.447858 2.4802898,9.2019377 2.4802898,9.2019377 c 0,0 0.1006636,-0.3887305 0.3083049,-0.5386087 0.740857,-0.5347604 3.3217707,-0.6561035 5.1448912,-0.6771553 2.5536801,-0.029488 6.8510661,0.7447301 7.3376271,1.0255539 0.21447,0.1237838 0.185465,0.3735246 0.185465,0.3735246 0,0 -0.547979,4.7838368 -3.104977,4.6328758 z"
       id="path5"
       sodipodi:nodetypes="ssscssscs"
       inkscape:label="island rock" /><path
       style="color:#000000;fill:#346333;stroke-linecap:round;stroke-linejoin:round;-inkscape-stroke:none"
       d="m 3.9798876,7.7178473 c 0.044843,0.036158 0.080829,0.053424 0.07407,0.1106316 C 3.5725827,7.9604301 3.1573542,8.1243035 2.9101563,8.3027344 2.8373247,8.2136176 2.6636625,8.1384201 2.5769164,8.178218 c 0.085143,-0.00978 0.2846899,0.084561 0.2701485,0.1777953 -0.068877,-0.03527 -0.1403625,-0.08854 -0.1908782,-0.037235 0.07535,-0.038275 0.1552766,0.074949 0.1480262,0.083595 -0.085329,0.101747 -0.1407872,0.2275692 -0.187025,0.3398146 -0.063053,0.1530654 -0.097656,0.2851563 -0.097656,0.2851563 -0.00149,0.00384 -0.00279,0.00775 -0.00391,0.011719 0,0 -0.095381,0.5402066 -0.09375,1.1523428 8.157e-4,0.306069 0.024804,0.629914 0.1015625,0.921875 0.076759,0.291962 0.2068931,0.556908 0.4355469,0.71875 0.3642401,0.257811 0.6897063,0.308531 0.984375,0.228516 0.030341,0.0014 0.099206,0.01978 0.1252887,0.07011 0.00973,-0.05523 -0.00717,-0.06862 -0.054866,-0.09141 0.025627,-0.0031 0.1002184,0.0059 0.1172298,0.04602 0.00348,-0.05494 -0.023038,-0.06073 -0.037808,-0.07507 0.2355456,-0.09375 0.4564419,-0.247268 0.711483,-0.400827 0.6165444,-0.371218 1.4228249,-0.770033 3.0214844,-0.445312 1.0076475,0.204674 1.6139885,0.454901 1.9960937,0.708984 0.3821051,0.254083 0.5453251,0.508589 0.6816401,0.761719 0.136316,0.253129 0.242645,0.515605 0.503907,0.724609 0.07506,0.06005 0.188673,0.124034 0.289892,0.171555 0.01473,0.0069 -0.0612,0.0466 -0.06572,0.120737 0.04063,-0.04155 0.07895,-0.06377 0.136504,-0.08857 -0.02041,0.05443 -0.02259,0.06827 -0.01548,0.182896 0.03937,-0.08221 0.08883,-0.155834 0.105465,-0.150267 0.228375,0.07644 0.519256,0.128255 0.898947,0.152323 0.396368,0.02513 0.805295,-0.12051 1.124774,-0.334989 0.02078,-0.01395 0.07688,-0.003 0.114624,0.05113 -0.0078,-0.08602 -0.02278,-0.09089 -0.03665,-0.111871 0.03823,0.0037 0.0542,-0.01551 0.106986,0.03349 0.006,-0.05336 -0.05639,-0.07374 -0.04891,-0.07984 0.328914,-0.268392 0.599721,-0.630487 0.838782,-1.048156 0.500365,-0.874197 0.819429,-1.968396 0.964844,-2.847656 0.02016,-0.1218982 -0.0077,-0.2458151 -0.05469,-0.3632813 -0.0065,-0.016183 0.03469,-0.094494 0.150945,-0.081975 -0.04983,-0.018085 -0.06986,-0.042674 -0.198698,-0.02201 -0.0098,-0.018252 0.09244,-0.1437326 0.256975,-0.1107316 -0.137132,-0.051403 -0.221294,-0.014617 -0.31582,0.019355 C 15.229972,8.8124275 15.193922,8.7778364 15.150391,8.75 14.994136,8.6500816 14.668891,8.5326054 14.189453,8.3808594 13.857811,8.275892 13.408709,8.1394887 12.967938,8.0243885 c -0.0018,-0.059195 -0.02253,-0.1451901 0.126338,-0.200876 -0.187391,0.013891 -0.203816,0.1884761 -0.231325,0.1814618 0.02033,-0.00722 0.03292,-0.2824825 -0.03572,-0.32518 0.01107,0.062034 0.03034,0.1483211 -0.05248,0.3020699 0.0031,-0.070213 -0.01225,-0.1172514 -0.02955,-0.134927 0.0033,0.037128 0.01011,0.061308 -0.01626,0.1246967 C 12.63325,7.9481859 12.487164,7.9117735 12.406257,7.892578 11.80141,7.749076 11.0942,7.6057739 10.439145,7.5004949 c -0.02161,-0.020625 0.0083,-0.04125 0.02475,-0.061876 -0.03424,0.012262 -0.071,0.022595 -0.08234,0.052367 -0.02973,-0.087903 -0.03428,-0.1699624 0.01756,-0.2389356 -0.08452,0.068397 -0.09996,0.1461656 -0.116565,0.2237763 -0.0016,-0.050453 -0.03763,-0.1128881 -0.06312,-0.1716591 7.81e-4,0.054403 0.03072,0.1044923 0.0023,0.163215 C 9.5088721,7.3646526 8.7366628,7.2916073 8.1113351,7.298828 8.0336611,7.2997249 7.8749808,7.302838 7.8749808,7.302838 7.8311998,7.286124 7.8568008,7.244179 7.8613298,7.221523 7.8368088,7.239271 7.8182978,7.268445 7.8175058,7.304207 7.8165474,7.266247 7.8052988,7.225653 7.7726218,7.211756 c 0.015885,0.03093 0.034244,0.062616 6.653e-4,0.09025 -1.218791,0.03306 -2.4115716,0.2397912 -3.596984,0.5029833 -0.025659,-0.066308 -0.03061,-0.1165914 1.443e-4,-0.1759184 -0.078137,0.066576 -0.066967,0.1124248 -0.075568,0.1823861 -0.033843,-0.043668 -0.056095,-0.07925 -0.1209918,-0.09361 z M 8.1132781,7.5644531 c 1.256077,-0.014504 2.8754679,0.2639874 4.2324219,0.5859375 0.678477,0.1609751 1.291642,0.3330209 1.763672,0.4824219 0.47203,0.149401 0.818046,0.2884376 0.898438,0.3398438 0.02428,0.015529 0.07965,0.087835 0.113281,0.171875 0.03363,0.08404 0.04792,0.1809231 0.04101,0.2226562 C 15.021163,10.219427 14.705472,11.2917 14.228516,12.125 c -0.238478,0.41665 -0.517706,0.77245 -0.828125,1.013672 -0.31042,0.241221 -0.648193,0.369737 -1.027344,0.345703 -0.663481,-0.04206 -0.998496,-0.167941 -1.201172,-0.330078 C 10.969199,12.99216 10.880497,12.775526 10.736328,12.507813 10.592159,12.240099 10.391195,11.933251 9.96875,11.652344 9.5463045,11.371437 8.9073933,11.113204 7.8789062,10.904297 c -1.6588277,-0.336943 -2.576068,0.09431 -3.2109375,0.476562 -0.3174347,0.191126 -0.5668345,0.361893 -0.7949218,0.423829 -0.2280874,0.06194 -0.4404426,0.0399 -0.7617188,-0.1875 -0.1537979,-0.108859 -0.264175,-0.312213 -0.3320312,-0.570313 -0.067856,-0.2581 -0.092972,-0.565426 -0.09375,-0.857422 -0.00156,-0.5839911 0.091797,-1.1054686 0.091797,-1.1054686 0.00276,-0.01015 0.030758,-0.1129767 0.083984,-0.2421875 C 2.9171194,8.7063599 3.0084866,8.5593853 3.0664063,8.5175781 3.3916127,8.2828398 4.2151783,8.0311923 5.1679687,7.8574219 6.1207592,7.6836514 7.2112326,7.5748692 8.1132813,7.5644531 Z"
       id="path30"
       sodipodi:nodetypes="cccccccsccssscccccssssscccccssccccsscccccsscccccccscccccccsccccccccccsssscsssssssscssccssscc" /><path
       style="display:inline;fill:url(#linearGradient21);stroke:none;stroke-width:0.529167;stroke-linecap:round;stroke-linejoin:round;stroke-dasharray:none;stroke-opacity:1"
       d="M 12.328133,13.539591 C 9.6183135,13.36782 11.995429,11.834228 7.9231553,11.007063 4.6656648,10.345399 4.3423921,12.602055 3.0366569,11.69314 2.2675293,11.157754 2.632,9.0441009 2.632,9.0441009 c 0,0 0.1006636,-0.3887305 0.3083049,-0.5386087 0.740857,-0.5347604 3.2851311,-0.9447405 5.1082516,-0.9657923 2.5536795,-0.029488 6.5668635,1.060334 7.0401585,1.3629819 0.132143,0.084499 0.170235,0.3041164 0.143173,0.4677479 -0.286362,1.7315023 -1.246247,4.2742273 -2.903755,4.1691613 z"
       id="path6"
       sodipodi:nodetypes="ssscsssss"
       inkscape:label="grass" /><path
       style="fill:#346333;fill-opacity:1;stroke:none;stroke-width:0.264583;stroke-linecap:round;stroke-linejoin:round;stroke-dasharray:none;stroke-opacity:1"
       d="m 12.843177,9.453861 c -0.03553,-0.1964285 -0.139171,-0.2900564 -0.236595,-0.3930624 0.115679,0.056402 0.270861,0.060946 0.342165,0.1756099 0.01086,-0.1179099 0.159838,-0.2455887 0.11734,-0.3700256 0.08693,0.1279693 0.02964,0.2938532 0.07571,0.4287101 0.05238,-0.1109306 0.15329,-0.1287498 0.268209,-0.1295976 -0.175558,0.083716 -0.173336,0.2078866 -0.218818,0.3212025 0.03054,-0.098944 -0.01028,-0.2086717 0.131439,-0.2908128 -0.09725,-8.501e-4 -0.184426,0.1311941 -0.20004,0.2378126 -0.01513,-0.09924 -0.0062,-0.3104053 -0.04254,-0.3959962 -0.0482,0.134482 -0.108542,0.2796148 -0.158774,0.3968841 -0.01081,-0.00974 0.01911,-0.1258892 0.009,-0.1382377 -0.0549,-0.066935 -0.08947,-0.1503999 -0.195339,-0.1328942 0.124805,0.088767 0.128352,0.1950793 0.108266,0.2760975 z"
       id="path54"
       sodipodi:nodetypes="cccccccccccsccc"
       inkscape:label="herbs" /><g
       inkscape:groupmode="layer"
       id="layer4"
       inkscape:label="Button"><path
         id="ellipse10"
         style="display:inline;fill:#a39474;stroke-width:0.529167;stroke-linecap:round;stroke-linejoin:round"
         d="m 14.145575,11.160823 c 0,0.07394 -0.04153,0.149914 -0.0632,0.219633 -0.02167,0.06972 0.03774,0.129542 -0.0034,0.193608 -0.04116,0.06407 -0.152757,0.128585 -0.211226,0.185563 -0.05847,0.05698 0.0094,0.123091 -0.06425,0.171544 -0.0736,0.04845 -0.288636,0.07925 -0.375187,0.117738 -0.08655,0.03849 -0.104484,0.101316 -0.201803,0.128406 -0.09732,0.0271 -0.274028,0.01847 -0.379935,0.03274 -0.105907,0.01427 -0.280299,0.08892 -0.392613,0.08892 -0.112314,0 -0.157234,-0.07466 -0.263141,-0.08892 -0.105907,-0.01427 -0.214571,0.03316 -0.311891,0.0061 -0.09732,-0.0271 -0.183295,-0.128721 -0.269847,-0.167211 -0.08655,-0.03849 -0.240655,-0.01459 -0.314257,-0.06303 -0.0736,-0.04845 -0.04366,-0.146877 -0.102133,-0.203855 -0.05847,-0.05698 -0.165038,-0.09924 -0.206201,-0.16331 -0.04116,-0.06407 -0.02245,-0.161764 -0.04413,-0.231483 -0.02167,-0.06972 -0.05056,-0.152467 -0.05056,-0.226404 0,-0.591494 0.728387,-1.070995 1.626899,-1.070995 0.898512,0 1.626899,0.479501 1.626899,1.070995 z"
         sodipodi:nodetypes="ssssssssssssssssssss"
         inkscape:label="dirt" /><ellipse
         style="display:inline;mix-blend-mode:normal;fill:#401107;fill-opacity:0.246713;stroke:none;stroke-width:0.518776;stroke-linecap:round;stroke-linejoin:round;stroke-dasharray:none;stroke-opacity:1;filter:url(#filter48)"
         id="ellipse13"
         cx="12.605829"
         cy="11.500957"
         rx="1.6672333"
         ry="1.1616141"
         inkscape:label="ground shadow"
         transform="matrix(1.0404611,0,0,1,-0.43232178,0)" /><path
         id="path26"
         style="display:inline;fill:none;fill-opacity:1;stroke:#c2371c;stroke-width:0.264583;stroke-linecap:round;stroke-linejoin:round;stroke-dasharray:none;stroke-opacity:1"
         d="m 14.034648,11.0231 c 0.0055,-0.173746 0.01433,-0.347446 0.02335,-0.5209 -3.4e-5,-0.5762188 -0.680557,-1.0433289 -1.520028,-1.0433468 -0.808185,0.0011 -1.473813,0.4360997 -1.515073,0.9901208 -0.01182,0.190499 -0.01922,0.382915 -0.02829,0.574129"
         sodipodi:nodetypes="ccccc"
         inkscape:label="outline" /><path
         id="path9"
         style="display:inline;fill:url(#linearGradient11);fill-opacity:1;stroke-width:0.529167;stroke-linecap:round;stroke-linejoin:round"
         d="m 14.103641,11.023047 c 0,0.576248 -0.709614,1.043389 -1.584965,1.043389 -0.875351,0 -1.584965,-0.467141 -1.584965,-1.043389 l 0.02798,-0.573643 c 0.567264,-0.1267 2.79703,-0.116246 3.162917,0.06156 z"
         sodipodi:nodetypes="cscccc"
         inkscape:label="side" /><ellipse
         style="display:inline;fill:url(#radialGradient15);fill-opacity:1;stroke:none;stroke-width:0.529167;stroke-linecap:round;stroke-linejoin:round;stroke-dasharray:none;stroke-opacity:1"
         id="ellipse9"
         cx="12.542872"
         cy="10.502259"
         rx="1.5849652"
         ry="1.0433899"
         inkscape:label="top" /></g><g
       inkscape:groupmode="layer"
       id="layer5"
       inkscape:label="Mush"
       style="display:inline"><ellipse
         style="display:inline;mix-blend-mode:normal;fill:#440a58;fill-opacity:0.18055119;stroke:none;stroke-width:0.529167;stroke-linecap:round;stroke-linejoin:round;stroke-dasharray:none;stroke-opacity:1;filter:url(#filter47)"
         id="ellipse47"
         cx="6.7072158"
         cy="9.7606239"
         rx="2.4853277"
         ry="1.0986187"
         inkscape:label="ground shadow" /><path
         id="path21"
         style="display:inline;fill:#a39474;stroke-width:0.529167;stroke-linecap:round;stroke-linejoin:round"
         d="m 6.5265433,9.2336985 c 0,0.035906 -0.022938,0.0728 -0.034907,0.1066567 -0.011969,0.033857 0.020845,0.062907 -0.00188,0.094018 -0.022734,0.031114 -0.084372,0.062443 -0.1166658,0.090112 -0.032294,0.027671 0.00519,0.059775 -0.035487,0.083305 -0.040651,0.023528 -0.1594212,0.038483 -0.2072256,0.057175 -0.047804,0.018692 -0.057709,0.049201 -0.1114612,0.062354 -0.053752,0.013162 -0.1513528,0.00897 -0.209848,0.015896 -0.058495,0.00695 -0.1548165,0.043179 -0.2168505,0.043179 -0.062034,0 -0.086844,-0.036259 -0.1453397,-0.043179 -0.058495,-0.00695 -0.1185131,0.016108 -0.1722656,0.00299 -0.053752,-0.013162 -0.1012387,-0.062512 -0.1490436,-0.081204 -0.047804,-0.018692 -0.13292,-0.00712 -0.1735724,-0.030606 -0.040651,-0.023528 -0.024115,-0.071322 -0.056411,-0.098995 -0.032295,-0.02767 -0.091155,-0.048192 -0.1138902,-0.079305 -0.022734,-0.031113 -0.0124,-0.078554 -0.024374,-0.112411 -0.011969,-0.033857 -0.027926,-0.07404 -0.027926,-0.1099448 0,-0.2872375 0.4023072,-0.5200895 0.8985791,-0.5200895 0.4962717,0 0.8985791,0.232852 0.8985791,0.5200895 z"
         sodipodi:nodetypes="ssssssssssssssssssss"
         inkscape:label="dirt" /><path
         style="display:inline;fill:none;stroke:#694671;stroke-width:0.264583;stroke-linecap:round;stroke-linejoin:round;stroke-dasharray:none;stroke-opacity:1"
         d="M 5.0775912,6.5257053 4.8298859,9.1045882 M 6.4637593,9.0219863 6.2296543,6.5388596"
         id="path29"
         sodipodi:nodetypes="cccc"
         inkscape:label="foot outline" /><path
         style="display:inline;fill:url(#linearGradient25);stroke:none;stroke-width:0.529167;stroke-linecap:round;stroke-linejoin:round;stroke-dasharray:none;stroke-opacity:1"
         d="M 5.0602116,6.509921 4.799777,9.2586177 C 5.1074301,9.8691662 6.4694755,9.6217963 6.490506,9.1619167 L 6.2414876,6.5395687 Z"
         id="path8"
         sodipodi:nodetypes="ccccc"
         inkscape:label="foot fill" /><path
         style="display:inline;fill:#4c1b57;fill-opacity:0.0771025;stroke:none;stroke-width:0.529167;stroke-linecap:round;stroke-linejoin:round;stroke-dasharray:none;stroke-opacity:1"
         d="m 5.0374357,6.8618394 -0.07166,0.7858433 c 0.2719818,0.2524161 1.336839,0.156708 1.3554311,-0.033418 L 6.250049,6.8970668 Z"
         id="path48"
         sodipodi:nodetypes="ccccc"
         inkscape:label="foot shadow" /><path
         style="display:inline;fill:none;stroke:#7a139d;stroke-width:0.264583;stroke-linecap:round;stroke-linejoin:round;stroke-dasharray:none;stroke-opacity:1"
         d="M 5.6377091,0.97411574 C 6.8916181,0.90048974 6.9326125,2.5765818 7.3930684,3.8278609 7.6936845,4.6447791 8.0488435,5.2785207 8.2095286,5.3003623 9.0887248,5.4198696 8.7757173,6.3851174 8.5931637,6.4565122 7.1860486,7.2368893 4.2210105,7.1452133 2.7995692,6.4651021 2.5118406,6.3062812 2.374191,5.2529644 3.44029,5.2996314 3.5736859,5.3054707 3.6831973,4.599131 3.9855089,3.8318394 4.5120087,2.4955396 4.3352336,1.0505937 5.6377091,0.97411574 Z"
         id="path27"
         sodipodi:nodetypes="sssccsss"
         inkscape:label="hat outline" /><path
         style="display:inline;fill:url(#radialGradient23);stroke:none;stroke-width:0.529167;stroke-linecap:round;stroke-linejoin:round;stroke-dasharray:none;stroke-opacity:1"
         d="M 5.6377091,0.97411574 C 6.8916181,0.90048974 6.9326125,2.5765818 7.3930684,3.8278609 7.6936845,4.6447791 8.0488435,5.2785207 8.2095286,5.3003623 9.0887248,5.4198696 8.7757173,6.3851174 8.5931637,6.4565122 7.1860486,7.2368893 4.2210105,7.1452133 2.7995692,6.4651021 2.5118406,6.3062812 2.374191,5.2529644 3.44029,5.2996314 3.5736859,5.3054707 3.6831973,4.599131 3.9855089,3.8318394 4.5120087,2.4955396 4.3352336,1.0505937 5.6377091,0.97411574 Z"
         id="path17"
         sodipodi:nodetypes="sssccsss"
         inkscape:label="hat fill" /><g
         inkscape:groupmode="layer"
         id="layer6"
         inkscape:label="Bumps"
         style="display:inline"><g
           id="g46"
           style="display:inline;stroke-width:1.14368"
           inkscape:label="bump8"
           transform="matrix(0.61756285,-0.36609793,0.3310046,1.0417641,3.4954373,3.4462124)"><ellipse
             style="fill:#3b2155;fill-opacity:0.146697;stroke:none;stroke-width:0.302598;stroke-linecap:round;stroke-linejoin:round;stroke-dasharray:none;stroke-opacity:1;filter:url(#filter33)"
             id="ellipse45"
             cx="4.7908711"
             cy="2.9970274"
             rx="0.22999553"
             ry="0.24464722"
             transform="matrix(0.99994506,-0.01048189,0.01124968,0.99993672,0,0)" /><ellipse
             style="fill:url(#radialGradient46);fill-opacity:1;stroke:none;stroke-width:0.302596;stroke-linecap:round;stroke-linejoin:round;stroke-dasharray:none;stroke-opacity:1"
             id="ellipse46"
             cx="4.7387438"
             cy="2.9615433"
             rx="0.21637356"
             ry="0.23015748"
             transform="matrix(0.99994506,-0.01048189,0.01124968,0.99993672,0,0)" /></g><g
           id="g44"
           style="display:inline;stroke-width:2.06592"
           inkscape:label="bump7"
           transform="matrix(0.44880006,-0.05921344,0.03728817,0.51714953,3.6475806,0.52359524)"><ellipse
             style="fill:#3b2155;fill-opacity:0.146697;stroke:none;stroke-width:0.546606;stroke-linecap:round;stroke-linejoin:round;stroke-dasharray:none;stroke-opacity:1;filter:url(#filter33)"
             id="ellipse43"
             cx="4.7908711"
             cy="2.9970274"
             rx="0.22999553"
             ry="0.24464722"
             transform="matrix(0.99994506,-0.01048189,0.01124968,0.99993672,0,0)" /><ellipse
             style="fill:url(#radialGradient44);fill-opacity:1;stroke:none;stroke-width:0.546603;stroke-linecap:round;stroke-linejoin:round;stroke-dasharray:none;stroke-opacity:1"
             id="ellipse44"
             cx="4.7387438"
             cy="2.9615433"
             rx="0.21637356"
             ry="0.23015748"
             transform="matrix(0.99994506,-0.01048189,0.01124968,0.99993672,0,0)" /></g><g
           id="g33"
           style="display:inline;stroke-width:1.62309"
           inkscape:label="bump6"
           transform="matrix(0.53927978,0.1033529,-0.13011951,0.67894385,2.5848453,0.20151379)"><ellipse
             style="fill:#3b2155;fill-opacity:0.146697;stroke:none;stroke-width:0.429445;stroke-linecap:round;stroke-linejoin:round;stroke-dasharray:none;stroke-opacity:1;filter:url(#filter33)"
             id="ellipse32"
             cx="4.7908711"
             cy="2.9970274"
             rx="0.22999553"
             ry="0.24464722"
             transform="matrix(0.99994506,-0.01048189,0.01124968,0.99993672,0,0)" /><ellipse
             style="fill:url(#radialGradient32);fill-opacity:1;stroke:none;stroke-width:0.429443;stroke-linecap:round;stroke-linejoin:round;stroke-dasharray:none;stroke-opacity:1"
             id="path31"
             cx="4.7387438"
             cy="2.9615433"
             rx="0.21637356"
             ry="0.23015748"
             transform="matrix(0.99994506,-0.01048189,0.01124968,0.99993672,0,0)" /></g><g
           id="g34"
           style="display:inline;stroke-width:1.12513"
           inkscape:label="bump5"
           transform="matrix(0.76017168,0.16098682,-0.21062374,0.9945547,1.470848,0.27203364)"><ellipse
             style="fill:#3b2155;fill-opacity:0.146697;stroke:none;stroke-width:0.297692;stroke-linecap:round;stroke-linejoin:round;stroke-dasharray:none;stroke-opacity:1;filter:url(#filter33)"
             id="ellipse33"
             cx="4.7908711"
             cy="2.9970274"
             rx="0.22999553"
             ry="0.24464722"
             transform="matrix(0.99994506,-0.01048189,0.01124968,0.99993672,0,0)" /><ellipse
             style="fill:url(#radialGradient34);fill-opacity:1;stroke:none;stroke-width:0.297691;stroke-linecap:round;stroke-linejoin:round;stroke-dasharray:none;stroke-opacity:1"
             id="ellipse34"
             cx="4.7387438"
             cy="2.9615433"
             rx="0.21637356"
             ry="0.23015748"
             transform="matrix(0.99994506,-0.01048189,0.01124968,0.99993672,0,0)" /></g><g
           id="g36"
           style="display:inline;stroke-width:1.76004"
           inkscape:label="bump4"
           transform="matrix(0.51906413,0.09634866,-0.14381914,0.59522897,2.5908472,1.9368841)"><ellipse
             style="fill:#3b2155;fill-opacity:0.146697;stroke:none;stroke-width:0.465677;stroke-linecap:round;stroke-linejoin:round;stroke-dasharray:none;stroke-opacity:1;filter:url(#filter33)"
             id="ellipse35"
             cx="4.7908711"
             cy="2.9970274"
             rx="0.22999553"
             ry="0.24464722"
             transform="matrix(0.99994506,-0.01048189,0.01124968,0.99993672,0,0)" /><ellipse
             style="fill:url(#radialGradient36);fill-opacity:1;stroke:none;stroke-width:0.465675;stroke-linecap:round;stroke-linejoin:round;stroke-dasharray:none;stroke-opacity:1"
             id="ellipse36"
             cx="4.7387438"
             cy="2.9615433"
             rx="0.21637356"
             ry="0.23015748"
             transform="matrix(0.99994506,-0.01048189,0.01124968,0.99993672,0,0)" /></g><g
           id="g38"
           style="display:inline;stroke-width:1.28184"
           inkscape:label="bump3"
           transform="matrix(0.63867924,0.14762185,-0.17696136,0.91198774,1.183774,1.3133632)"><ellipse
             style="fill:#3b2155;fill-opacity:0.146697;stroke:none;stroke-width:0.339158;stroke-linecap:round;stroke-linejoin:round;stroke-dasharray:none;stroke-opacity:1;filter:url(#filter33)"
             id="ellipse37"
             cx="4.7908711"
             cy="2.9970274"
             rx="0.22999553"
             ry="0.24464722"
             transform="matrix(0.99994506,-0.01048189,0.01124968,0.99993672,0,0)" /><ellipse
             style="fill:url(#radialGradient38);fill-opacity:1;stroke:none;stroke-width:0.339157;stroke-linecap:round;stroke-linejoin:round;stroke-dasharray:none;stroke-opacity:1"
             id="ellipse38"
             cx="4.7387438"
             cy="2.9615433"
             rx="0.21637356"
             ry="0.23015748"
             transform="matrix(0.99994506,-0.01048189,0.01124968,0.99993672,0,0)" /></g><g
           id="g40"
           style="display:inline;stroke-width:1.42205"
           inkscape:label="bump2"
           transform="matrix(0.64874222,0.11808972,-0.17974955,0.72954229,2.8234837,2.2541664)"><ellipse
             style="fill:#3b2155;fill-opacity:0.146697;stroke:none;stroke-width:0.37625;stroke-linecap:round;stroke-linejoin:round;stroke-dasharray:none;stroke-opacity:1;filter:url(#filter33)"
             id="ellipse39"
             cx="4.7908711"
             cy="2.9970274"
             rx="0.22999553"
             ry="0.24464722"
             transform="matrix(0.99994506,-0.01048189,0.01124968,0.99993672,0,0)" /><ellipse
             style="fill:url(#radialGradient40);fill-opacity:1;stroke:none;stroke-width:0.376248;stroke-linecap:round;stroke-linejoin:round;stroke-dasharray:none;stroke-opacity:1"
             id="ellipse40"
             cx="4.7387438"
             cy="2.9615433"
             rx="0.21637356"
             ry="0.23015748"
             transform="matrix(0.99994506,-0.01048189,0.01124968,0.99993672,0,0)" /></g><g
           id="g42"
           style="display:inline;stroke-width:1.76559"
           inkscape:label="bump1"
           transform="matrix(0.49862089,0.07337224,-0.09188168,0.62982914,4.1944429,0.99602224)"><ellipse
             style="fill:#3b2155;fill-opacity:0.146697;stroke:none;stroke-width:0.467149;stroke-linecap:round;stroke-linejoin:round;stroke-dasharray:none;stroke-opacity:1;filter:url(#filter33)"
             id="ellipse41"
             cx="4.7908711"
             cy="2.9970274"
             rx="0.22999553"
             ry="0.24464722"
             transform="matrix(0.99994506,-0.01048189,0.01124968,0.99993672,0,0)" /><ellipse
             style="fill:url(#radialGradient42);fill-opacity:1;stroke:none;stroke-width:0.467147;stroke-linecap:round;stroke-linejoin:round;stroke-dasharray:none;stroke-opacity:1"
             id="ellipse42"
             cx="4.7387438"
             cy="2.9615433"
             rx="0.21637356"
             ry="0.23015748"
             transform="matrix(0.99994506,-0.01048189,0.01124968,0.99993672,0,0)" /></g></g><path
         style="display:inline;mix-blend-mode:normal;fill:#563861;fill-opacity:0.23855;stroke:none;stroke-width:0.529167;stroke-linecap:round;stroke-linejoin:round;stroke-dasharray:none;stroke-opacity:1;filter:url(#filter28)"
         d="m 6.0169202,1.3237199 c 0.7683729,-0.051337 0.8254964,1.2859347 1.2859521,2.5372139 0.2061413,0.5601848 0.4635646,1.0793741 0.6752285,1.3995413 0.042871,0.064848 -0.080234,0.2454628 -0.038428,0.3006648 0.052789,0.069704 0.31558,-0.025972 0.3440188,-0.026226 C 8.9116013,5.5293069 8.6224,6.3550642 8.4398464,6.426459 7.1854613,7.1091735 4.395018,7.0000438 2.8851197,6.3764957 2.7941146,6.3262626 2.7008727,6.1538608 3.246257,6.1036109 3.6857581,6.0631168 4.2382532,6.1808243 4.8757949,6.1864983 6.1711317,6.1980265 6.6627259,6.2103978 6.9167356,5.8821297 7.1642164,5.5622991 5.3630832,6.2135869 5.6653948,5.4462953 6.1918946,4.1099955 5.750936,1.3414911 6.0169202,1.3237199 Z"
         id="path28"
         sodipodi:nodetypes="sssssccsssss"
         inkscape:label="hat shadow" /></g><path
       style="fill:#346333;fill-opacity:1;stroke:none;stroke-width:0.264583;stroke-linecap:round;stroke-linejoin:round;stroke-dasharray:none;stroke-opacity:1"
       d="m 11.493209,13.06214 c -0.06079,-0.33606 -0.2381,-0.496243 -0.404779,-0.672471 0.19791,0.0965 0.463403,0.10427 0.585393,0.300442 0.01859,-0.201726 0.177154,-0.403451 0.301389,-0.605177 0.0032,0.235607 -0.04992,0.474857 0.02889,0.705577 0.0038,-0.232753 0.216189,-0.243356 0.458864,-0.221722 -0.300353,0.143224 -0.296551,0.355663 -0.374364,0.54953 0.05225,-0.169278 -0.01757,-0.357006 0.224871,-0.497538 -0.166373,-0.0015 -0.315524,0.224454 -0.342236,0.406862 -0.02589,-0.169784 -0.128715,-0.423816 -0.08361,-0.600373 -0.167149,0.200631 -0.174891,0.401262 -0.260829,0.601892 -0.01848,-0.01667 0.03271,-0.215377 0.01538,-0.236504 -0.09393,-0.114516 -0.153067,-0.257311 -0.334195,-0.227362 0.155398,0.14128 0.134428,0.34272 0.185226,0.496844 z"
       id="path52"
       sodipodi:nodetypes="cccccccccccsccc"
       inkscape:label="herbs" /><path
       style="fill:#346333;fill-opacity:1;stroke:none;stroke-width:0.264583;stroke-linecap:round;stroke-linejoin:round;stroke-dasharray:none;stroke-opacity:1"
       d="m 10.20545,10.617185 c 0.04598,-0.254196 0.180099,-0.375359 0.306175,-0.508658 -0.149699,0.07299 -0.350519,0.07887 -0.442792,0.227255 -0.01406,-0.152586 -0.1339998,-0.305171 -0.2279708,-0.4577565 -0.0024,0.1782135 0.05299,0.4398725 -0.0066,0.6143895 -0.0029,-0.176055 -0.193436,-0.25542 -0.362313,-0.248401 0.204331,0.122433 0.224312,0.269024 0.28317,0.415665 -0.03952,-0.128042 0.01329,-0.27004 -0.170093,-0.376338 0.125845,-0.0011 0.250641,0.251811 0.270846,0.389785 0.01958,-0.128425 0.08538,-0.402609 0.05126,-0.536157 0.1264318,0.151757 0.1483328,0.411168 0.2133368,0.562925 0.01398,-0.01261 -0.04078,-0.270565 -0.02768,-0.286545 0.07105,-0.08662 0.11578,-0.194631 0.252786,-0.171977 -0.140774,0.111678 -0.173491,0.241623 -0.147272,0.344807 z"
       id="path53"
       sodipodi:nodetypes="cccccccccccsccc"
       inkscape:label="herbs" /><path
       style="fill:#346333;fill-opacity:1;stroke:none;stroke-width:0.264583;stroke-linecap:round;stroke-linejoin:round;stroke-dasharray:none;stroke-opacity:1"
       d="m 11.188477,8.4220042 c -0.03694,-0.20424 -0.144705,-0.3015914 -0.246004,-0.4086937 0.120279,0.058646 0.281633,0.06337 0.355772,0.1825936 0.0113,-0.122599 0.107665,-0.2451971 0.183169,-0.3677956 0.0019,0.1431899 -0.03034,0.2885939 0.01756,0.4288138 0.0023,-0.1414557 0.131388,-0.1478995 0.278874,-0.1347515 -0.182539,0.087044 -0.180229,0.2161539 -0.22752,0.3339762 0.03175,-0.1028785 -0.01068,-0.2169702 0.136666,-0.3023779 -0.101113,-8.838e-4 -0.19176,0.1364114 -0.207994,0.24727 -0.01573,-0.1031862 -0.07823,-0.2575738 -0.05081,-0.3648762 -0.101585,0.1219329 -0.10629,0.2438665 -0.158519,0.3657994 -0.01123,-0.010132 0.01988,-0.1308956 0.0093,-0.1437351 -0.05709,-0.069597 -0.09303,-0.156381 -0.203107,-0.1381791 0.104183,0.090976 0.12598,0.231531 0.11257,0.3019561 z"
       id="path55"
       sodipodi:nodetypes="cccccccccccsccc"
       inkscape:label="herbs" /><path
       style="fill:#346333;fill-opacity:1;stroke:none;stroke-width:0.264583;stroke-linecap:round;stroke-linejoin:round;stroke-dasharray:none;stroke-opacity:1"
       d="m 14.575063,9.4446624 c -0.03125,-0.1727576 -0.1224,-0.2551028 -0.208084,-0.3456961 0.101739,0.049606 0.23822,0.053602 0.300932,0.1544479 0.0096,-0.103701 0.09107,-0.2074014 0.154935,-0.3111022 0.0016,0.1211181 -0.02567,0.244109 0.01485,0.362715 0.002,-0.1196512 0.111136,-0.1251018 0.235887,-0.1139805 -0.154402,0.073627 -0.152448,0.1828352 -0.192449,0.282496 0.02686,-0.08702 -0.009,-0.1835257 0.115599,-0.2557683 -0.08552,-7.503e-4 -0.162202,0.1153844 -0.175933,0.2091549 -0.01331,-0.087281 -0.06617,-0.2178704 -0.04297,-0.308633 -0.08592,0.1031378 -0.08991,0.2062762 -0.134084,0.3094138 -0.0095,-0.00857 0.01682,-0.1107187 0.0079,-0.1215792 -0.04828,-0.058869 -0.07868,-0.1322759 -0.1718,-0.1168797 0.08338,0.074271 0.09781,0.189652 0.09522,0.2554114 z"
       id="path56"
       sodipodi:nodetypes="cccccccccccsccc"
       inkscape:label="herbs" /><path
       style="fill:#346333;fill-opacity:1;stroke:none;stroke-width:0.264583;stroke-linecap:round;stroke-linejoin:round;stroke-dasharray:none;stroke-opacity:1"
       d="M 7.952342,8.9070941 C 7.9106824,8.6767835 7.7891658,8.5670054 7.6749363,8.4462318 7.8105691,8.5123633 7.9925192,8.5176908 8.0761219,8.6521329 8.0888607,8.5138846 8.2404384,8.2528051 8.3255795,8.1145571 8.327754,8.276025 8.2484596,8.5628214 8.3024684,8.72094 8.3707971,8.5755887 8.4796101,8.560408 8.6169407,8.5689878 8.4111002,8.6671432 8.413706,8.8127332 8.3603785,8.9455952 8.3961851,8.8295846 8.3483373,8.7009293 8.5144889,8.6046195 8.4004688,8.6036229 8.2982517,8.7584436 8.2799452,8.8834529 8.262205,8.7670953 8.1917336,8.5930005 8.2226475,8.4720012 8.108096,8.6094985 8.0981415,8.7161218 8.1671265,8.9019335 8.1544602,8.8905084 8.0663097,8.7368899 8.0544315,8.7224114 7.9900577,8.6439306 7.9495307,8.5460688 7.8253984,8.5665941 c 0.1214109,0.096466 0.1420153,0.233682 0.1269401,0.3405 z"
       id="path57"
       sodipodi:nodetypes="cccccccccccsccc"
       inkscape:label="herbs" /><path
       style="fill:#346333;fill-opacity:1;stroke:none;stroke-width:0.264583;stroke-linecap:round;stroke-linejoin:round;stroke-dasharray:none;stroke-opacity:1"
       d="m 4.0047569,11.39934 c -0.049971,-0.276257 -0.1957298,-0.407936 -0.3327481,-0.552804 0.1626916,0.07932 0.3809407,0.08572 0.481222,0.246979 0.01528,-0.165829 0.1456294,-0.331657 0.2477561,-0.497485 0.00261,0.19368 -0.041037,0.390355 0.023746,0.580019 0.00315,-0.191335 0.1777184,-0.200051 0.3772095,-0.182267 -0.2469056,0.117737 -0.24378,0.292373 -0.3077463,0.45174 0.04295,-0.139154 -0.014443,-0.293476 0.1848554,-0.409 -0.1367671,-0.0012 -0.2593765,0.184512 -0.2813351,0.334461 -0.021279,-0.139571 -0.1058099,-0.348398 -0.068729,-0.493536 -0.1374046,0.164928 -0.1437688,0.329857 -0.2144145,0.494785 -0.015193,-0.0137 0.026887,-0.177052 0.012639,-0.194418 -0.077216,-0.09414 -0.1258285,-0.211523 -0.2747252,-0.186903 0.1277456,0.116138 0.1105069,0.281733 0.1522646,0.408429 z"
       id="path58"
       sodipodi:nodetypes="cccccccccccsccc"
       inkscape:label="herbs" /><path
       style="fill:#346333;fill-opacity:1;stroke:none;stroke-width:0.264583;stroke-linecap:round;stroke-linejoin:round;stroke-dasharray:none;stroke-opacity:1"
       d="M 2.6571407,10.432318 C 2.6159507,10.204602 2.4958029,10.09606 2.3828603,9.9766481 c 0.1341048,0.06539 0.314005,0.07065 0.3966657,0.2035809 0.012595,-0.136691 0.1200406,-0.2733801 0.2042224,-0.4100697 0.00215,0.1596479 -0.033826,0.3217647 0.019574,0.4781017 0.0026,-0.157715 0.1464912,-0.1649 0.3109294,-0.15024 -0.2035214,0.09705 -0.200945,0.240999 -0.2536717,0.372364 0.035403,-0.114704 -0.011906,-0.241909 0.1523741,-0.337134 -0.1127355,-9.86e-4 -0.213801,0.152091 -0.2319012,0.275692 -0.01754,-0.115047 -0.087218,-0.28718 -0.056652,-0.406816 -0.1132609,0.135948 -0.1185069,0.271897 -0.1767393,0.407845 -0.012524,-0.0113 0.022163,-0.145941 0.010419,-0.160256 -0.063649,-0.0776 -0.103719,-0.174356 -0.2264528,-0.154062 0.1209151,0.09387 0.1437124,0.225958 0.12551,0.336664 z"
       id="path59"
       sodipodi:nodetypes="cccccccccccsccc"
       inkscape:label="herbs" /><path
       style="fill:#346333;fill-opacity:1;stroke:none;stroke-width:0.264583;stroke-linecap:round;stroke-linejoin:round;stroke-dasharray:none;stroke-opacity:1"
       d="M 4.0393819,8.6662693 C 4.0707085,8.4930835 4.0873156,8.491551 4.1732124,8.4007333 4.0721867,8.3615152 4.0326859,8.3851799 3.9463036,8.4745471 3.9367244,8.370589 3.8550086,8.2666316 3.7909854,8.1626745 3.7893502,8.2840922 3.8167116,8.4073878 3.7760988,8.5262877 3.774123,8.40634 3.6391707,8.3816604 3.5141097,8.3928093 3.6688948,8.4666188 3.7132642,8.570184 3.7325523,8.6952208 3.7226946,8.6044225 3.7482071,8.4914654 3.6232668,8.4190437 c 0.085739,-7.494e-4 0.1560028,0.1354454 0.1697686,0.2294482 0.01334,-0.087497 0.066332,-0.2184104 0.043086,-0.3093977 0.086139,0.1033933 0.090129,0.2067873 0.1344163,0.3101806 0.00952,-0.00859 -0.014801,-0.1247152 -0.00587,-0.1356025 0.048407,-0.059015 0.076828,-0.1188818 0.1701708,-0.1034475 -0.1019189,0.072456 -0.099298,0.1761348 -0.095455,0.2560445 z"
       id="path60"
       sodipodi:nodetypes="cccccccccccsccc"
       inkscape:label="herbs" /></g><rect
     style="display:inline;fill:none;fill-opacity:1;stroke:#1d5877;stroke-width:0.529167;stroke-linecap:round;stroke-linejoin:round;stroke-dasharray:none;stroke-opacity:1"
     id="rect2"
     width="16.442991"
     height="16.414278"
     x="0.26324162"
     y="0.25711393"
     ry="2.7541556"
     inkscape:label="icon outline" /><metadata
     id="metadata46"><rdf:RDF><cc:License
         rdf:about="http://creativecommons.org/licenses/by-sa/4.0/"><cc:permits
           rdf:resource="http://creativecommons.org/ns#Reproduction" /><cc:permits
           rdf:resource="http://creativecommons.org/ns#Distribution" /><cc:requires
           rdf:resource="http://creativecommons.org/ns#Notice" /><cc:requires
           rdf:resource="http://creativecommons.org/ns#Attribution" /><cc:permits
           rdf:resource="http://creativecommons.org/ns#DerivativeWorks" /><cc:requires
           rdf:resource="http://creativecommons.org/ns#ShareAlike" /></cc:License><cc:Work
         rdf:about=""><cc:license
           rdf:resource="http://creativecommons.org/licenses/by-sa/4.0/" /></cc:Work></rdf:RDF></metadata></svg>
