<?xml version="1.0" encoding="UTF-8" standalone="no"?>
<!-- Created with Inkscape (http://www.inkscape.org/) -->

<svg
   width="164"
   height="256"
   viewBox="0 0 43.391668 67.733333"
   version="1.1"
   id="svg5"
   inkscape:version="1.3 (1:1.3+202307231459+0e150ed6c4)"
   sodipodi:docname="card.svg"
   inkscape:export-filename="card.png"
   inkscape:export-xdpi="96"
   inkscape:export-ydpi="96"
   xmlns:inkscape="http://www.inkscape.org/namespaces/inkscape"
   xmlns:sodipodi="http://sodipodi.sourceforge.net/DTD/sodipodi-0.dtd"
   xmlns="http://www.w3.org/2000/svg"
   xmlns:svg="http://www.w3.org/2000/svg">
  <sodipodi:namedview
     id="namedview7"
     pagecolor="#ffffff"
     bordercolor="#666666"
     borderopacity="1.0"
     inkscape:showpageshadow="2"
     inkscape:pageopacity="0.0"
     inkscape:pagecheckerboard="true"
     inkscape:deskcolor="#d1d1d1"
     inkscape:document-units="px"
     showgrid="false"
     inkscape:zoom="1.6142256"
     inkscape:cx="109.34035"
     inkscape:cy="188.01585"
     inkscape:window-width="1868"
     inkscape:window-height="1016"
     inkscape:window-x="52"
     inkscape:window-y="27"
     inkscape:window-maximized="1"
     inkscape:current-layer="layer1" />
  <defs
     id="defs2" />
  <g
     inkscape:label="Main"
     inkscape:groupmode="layer"
     id="layer1">
    <rect
       style="fill:#71422b;fill-opacity:1;stroke-width:4.06345;stroke-linecap:round;stroke-opacity:0.523214;stop-color:#000000"
       id="rect234"
       width="46.939754"
       height="69.952309"
       x="-1.7342585"
       y="-2.91874"
       ry="0.0019524163"
       inkscape:label="bg" />
    <rect
       style="fill:none;fill-opacity:1;stroke:#bfa349;stroke-width:3.90956;stroke-linecap:round;stroke-opacity:1;stop-color:#000000"
       id="rect9312"
       width="43.319679"
       height="67.694405"
       x="0.069148958"
       y="0.034578465"
       ry="0"
       inkscape:label="border" />
    <text
       xml:space="preserve"
       style="font-style:normal;font-variant:normal;font-weight:normal;font-stretch:normal;font-size:15.9543px;line-height:1.25;font-family:QumpellkaNo12;-inkscape-font-specification:QumpellkaNo12;letter-spacing:0px;word-spacing:0px;fill:#bfa349;fill-opacity:1;stroke:none;stroke-width:0.398858"
       x="-59.035892"
       y="22.339676"
       id="text14185"><tspan
         sodipodi:role="line"
         id="tspan14183"
         style="font-style:normal;font-variant:normal;font-weight:normal;font-stretch:normal;font-family:QumpellkaNo12;-inkscape-font-specification:QumpellkaNo12;fill:#bfa349;fill-opacity:1;stroke-width:0.398858"
         x="-59.035892"
         y="22.339676">M&amp;M</tspan></text>
    <path
       d="m 21.493687,36.947735 c -0.579532,0.202836 -1.231504,0.289765 -1.980065,0.289765 -0.932079,0 -1.550245,-0.608507 -1.550245,-1.526097 0,-1.047986 0.545725,-1.51161 1.274968,-1.806205 0.396013,1.197697 1.245991,2.34227 2.255342,3.042537 z m -1.01418,-3.424062 c 1.207356,-0.347718 2.395395,-0.825831 2.395395,-2.163582 0,-0.695437 -0.545725,-1.159062 -1.366727,-1.159062 -1.501951,0 -2.506472,0.932079 -2.506472,2.327783 0,0.33806 0.04829,0.685777 0.135224,1.028667 -1.415021,0.304254 -2.718966,0.787196 -2.718966,2.284318 0,0.985202 1.217015,1.637175 3.047367,1.637175 0.830661,0 1.603369,-0.111077 2.279489,-0.371866 0.550554,0.33806 1.144573,0.536067 1.728933,0.536067 0.396013,0 0.956226,-0.217325 1.270139,-0.835492 l 0.101418,-0.198006 -0.09176,-0.03863 c -0.347719,0.584361 -0.724413,0.627826 -1.192868,0.627826 -0.453966,0 -0.864467,-0.135225 -1.231503,-0.367037 0.956226,-0.545726 1.994552,-1.675811 1.994552,-2.878337 0,-0.275278 -0.25113,-0.453966 -0.661631,-0.453966 -0.193177,0 -0.381524,0.03863 -0.482943,0.08693 l 0.0048,0.50226 c 0,0.83549 -0.0821,1.960746 -1.081791,2.583742 -0.883785,-0.685779 -1.458487,-1.941429 -1.622687,-3.148785 z m -0.02897,-0.231812 c -0.01449,-0.164201 -0.02415,-0.323572 -0.02415,-0.478113 0,-1.357068 0.531237,-2.260171 1.328092,-2.260171 0.521577,0 0.874126,0.33323 0.874126,0.840321 0,1.154232 -0.990032,1.613026 -2.178071,1.897963 z"
       id="path15529"
       style="font-size:15.9543px;line-height:1.25;font-family:QumpellkaNo12;-inkscape-font-specification:QumpellkaNo12;letter-spacing:0px;word-spacing:0px;fill:#bfa349;stroke-width:0.247267" />
    <text
       xml:space="preserve"
       style="font-style:normal;font-variant:normal;font-weight:normal;font-stretch:normal;font-size:15.9543px;line-height:1.25;font-family:QumpellkaNo12;-inkscape-font-specification:QumpellkaNo12;letter-spacing:0px;word-spacing:0px;fill:#bfa349;fill-opacity:1;stroke:none;stroke-width:0.398858"
       x="-59.035892"
       y="44.035519"
       id="text1"><tspan
         sodipodi:role="line"
         id="tspan1"
         style="font-style:normal;font-variant:normal;font-weight:normal;font-stretch:normal;font-family:QumpellkaNo12;-inkscape-font-specification:QumpellkaNo12;fill:#bfa349;fill-opacity:1;stroke-width:0.398858"
         x="-59.035892"
         y="44.035519">W&amp;W</tspan></text>
    <path
       d="m 64.853703,27.867566 c -1.6671,0 -2.118931,-0.373928 -2.118931,-1.355492 0,-0.272656 0.03116,-0.599844 0.08569,-0.965983 l 1.394443,-9.620879 c 0.08569,-0.607634 0.576474,-2.757726 0.732278,-3.809401 l 1.223059,-0.560893 0.08569,-1.059465 c -2.703194,1.223059 -4.650741,2.92911 -6.247729,5.03246 -1.441184,1.900805 -2.453908,4.011945 -3.240717,5.88938 -0.42846,-3.934044 -1.332122,-9.550768 -5.00909,-10.656974 0.04674,0.327188 0.07011,0.724487 0.07011,1.129577 0,0.895871 -0.109062,1.815113 -0.280446,1.986497 0.109062,0.04674 0.218125,0.116853 0.319397,0.194755 -0.311607,1.464555 -0.693326,3.240717 -0.747857,3.451052 -0.997144,4.292392 -1.635939,5.88938 -4.004155,6.535966 -0.0078,0.01558 -0.0078,0.03895 -0.0078,0.06232 0,0.311608 0.42846,0.599845 1.004934,0.599845 0.358348,0 0.786808,-0.116853 1.199688,-0.42067 1.511296,-1.098417 1.620359,-4.292393 2.204623,-6.793042 l 0.693326,-3.131655 c 1.706051,1.776162 2.48507,6.73072 2.991432,10.579072 l 0.545313,0.08569 c 0.07011,-0.241496 0.623215,-1.542457 1.168528,-2.290314 -0.02337,-0.171384 -0.03116,-0.350559 -0.06232,-0.545313 0.81797,-2.002078 1.861854,-4.339134 3.388731,-6.380162 0.545313,-0.732278 1.176318,-1.324332 1.869644,-1.861855 l -1.067255,9.823424 c -0.01558,0.116853 -0.02337,0.241496 -0.02337,0.366139 0,1.651519 1.043885,4.362504 4.152169,4.362504 1.861855,0 3.092704,-0.646586 3.092704,-1.628149 0,-0.669956 -1.004934,-0.872501 -1.410024,-0.872501 0,1.152948 -0.895871,1.854064 -2.002077,1.854064 z"
       id="path1"
       style="font-size:15.9543px;line-height:1.25;font-family:QumpellkaNo12;-inkscape-font-specification:QumpellkaNo12;letter-spacing:0px;word-spacing:0px;fill:#bfa349;stroke-width:0.398858" />
    <path
       d="m 63.827023,36.947735 c -0.579532,0.202836 -1.231504,0.289765 -1.980065,0.289765 -0.932079,0 -1.550245,-0.608507 -1.550245,-1.526097 0,-1.047986 0.545725,-1.51161 1.274968,-1.806205 0.396013,1.197697 1.245991,2.34227 2.255342,3.042537 z m -1.01418,-3.424062 c 1.207356,-0.347718 2.395395,-0.825831 2.395395,-2.163582 0,-0.695437 -0.545725,-1.159062 -1.366727,-1.159062 -1.501951,0 -2.506472,0.932079 -2.506472,2.327783 0,0.33806 0.04829,0.685777 0.135224,1.028667 -1.415021,0.304254 -2.718966,0.787196 -2.718966,2.284318 0,0.985202 1.217015,1.637175 3.047367,1.637175 0.830661,0 1.603369,-0.111077 2.279489,-0.371866 0.550554,0.33806 1.144573,0.536067 1.728933,0.536067 0.396013,0 0.956226,-0.217325 1.270139,-0.835492 l 0.101418,-0.198006 -0.09176,-0.03863 c -0.347719,0.584361 -0.724413,0.627826 -1.192868,0.627826 -0.453966,0 -0.864467,-0.135225 -1.231503,-0.367037 0.956226,-0.545726 1.994552,-1.675811 1.994552,-2.878337 0,-0.275278 -0.25113,-0.453966 -0.661631,-0.453966 -0.193177,0 -0.381524,0.03863 -0.482943,0.08693 l 0.0048,0.50226 c 0,0.83549 -0.0821,1.960746 -1.081791,2.583742 -0.883785,-0.685779 -1.458487,-1.941429 -1.622687,-3.148785 z m -0.02897,-0.231812 c -0.01449,-0.164201 -0.02415,-0.323572 -0.02415,-0.478113 0,-1.357068 0.531237,-2.260171 1.328092,-2.260171 0.521577,0 0.874126,0.33323 0.874126,0.840321 0,1.154232 -0.990032,1.613026 -2.178071,1.897963 z"
       id="path2"
       style="font-size:15.9543px;line-height:1.25;font-family:QumpellkaNo12;-inkscape-font-specification:QumpellkaNo12;letter-spacing:0px;word-spacing:0px;fill:#bfa349;stroke-width:0.247267" />
    <path
       d="m 77.870241,56.765169 c -1.6671,0 -2.11893,-0.373928 -2.11893,-1.355492 0,-0.272656 0.03116,-0.599844 0.08569,-0.965983 l 1.394443,-9.620879 c 0.08569,-0.607634 0.576474,-2.757726 0.732277,-3.809401 l 1.22306,-0.560893 0.08569,-1.059465 c -2.703195,1.223059 -4.650741,2.92911 -6.247729,5.03246 -1.441185,1.900805 -2.453909,4.011945 -3.240717,5.88938 -0.428461,-3.934044 -1.332122,-9.550768 -5.00909,-10.656974 0.04674,0.327188 0.07011,0.724487 0.07011,1.129577 0,0.895871 -0.109063,1.815113 -0.280447,1.986497 0.109063,0.04674 0.218125,0.116853 0.319398,0.194755 -0.311608,1.464555 -0.693327,3.240717 -0.747858,3.451052 -0.997144,4.292392 -1.635939,5.88938 -4.004155,6.535966 -0.0078,0.01558 -0.0078,0.03895 -0.0078,0.06232 0,0.311608 0.42846,0.599845 1.004933,0.599845 0.358349,0 0.786809,-0.116853 1.199689,-0.42067 1.511296,-1.098417 1.620359,-4.292393 2.204623,-6.793042 l 0.693326,-3.131655 c 1.706051,1.776162 2.485069,6.73072 2.991431,10.579072 l 0.545313,0.08569 c 0.07011,-0.241496 0.623215,-1.542457 1.168528,-2.290314 -0.02337,-0.171384 -0.03116,-0.350559 -0.06232,-0.545313 0.817969,-2.002078 1.861854,-4.339134 3.38873,-6.380162 0.545313,-0.732278 1.176318,-1.324332 1.869645,-1.861855 l -1.067256,9.823424 c -0.01558,0.116853 -0.02337,0.241496 -0.02337,0.366139 0,1.651519 1.043885,4.362504 4.152169,4.362504 1.861854,0 3.092703,-0.646586 3.092703,-1.628149 0,-0.669956 -1.004934,-0.872501 -1.410023,-0.872501 0,1.152948 -0.895872,1.854064 -2.002078,1.854064 z"
       id="path3"
       style="font-size:15.9543px;line-height:1.25;font-family:QumpellkaNo12;-inkscape-font-specification:QumpellkaNo12;letter-spacing:0px;word-spacing:0px;fill:#bfa349;stroke-width:0.398858" />
    <path
       style="font-size:15.9543px;line-height:1.25;font-family:QumpellkaNo12;-inkscape-font-specification:QumpellkaNo12;letter-spacing:0px;word-spacing:0px;fill:#bfa349;stroke-width:0.576328"
       d="m 15.498877,22.201913 c -1.328255,2.949177 -3.230588,5.414327 -4.705175,5.414327 -1.8573072,0 -2.3863569,-1.688458 -2.3863569,-3.894713 0,-3.298125 1.1706648,-7.913248 1.1706648,-10.704835 0,-1.710972 -1.0018185,-3.0617406 -3.2418422,-3.0617406 -1.1031282,0 -1.8235365,0.9793066 -2.5439462,2.4088696 l 0.2138709,0.07879 c 0.3827185,-0.742922 0.7091535,-1.035589 0.9680503,-1.035589 0.5965894,0 0.889256,0.776692 0.889256,2.724049 0,0.348948 -0.1125613,1.373281 -0.2138723,2.712792 -0.067537,1.024333 -0.1350735,2.228768 -0.1350735,3.466971 0,3.950996 0.6641275,8.588631 4.131098,8.588631 2.3188181,0 4.4125091,-2.453894 5.9433791,-5.583174 0.360205,3.09551 1.40705,5.583174 3.962252,5.583174 2.093691,0 4.119842,-1.609664 5.684482,-4.15361 1.81228,-2.93792 3.005459,-7.1253 3.005459,-11.492783 0,-1.069358 -0.270154,-2.059921 -1.080615,-3.061741 -0.303922,-0.3827166 -0.641615,-0.5403066 -0.96805,-0.5403066 -0.96805,0 -1.913588,1.2944866 -2.059921,1.8798176 2.116203,0.776692 2.825357,2.498921 2.825357,4.435021 0,3.106768 -0.889256,6.202277 -2.194999,8.431043 -1.136895,1.947357 -2.600229,3.21933 -4.06356,3.21933 -1.834793,0 -2.386356,-1.632178 -2.386356,-3.894714 0,-3.298124 1.170665,-7.913247 1.170665,-10.704834 0,-1.452076 -0.697896,-2.769075 -2.780329,-2.769075 h -0.01127 -2.330074 l 0.01127,0.258897 c 1.204435,0.01127 1.463331,1.384537 1.463331,2.69028 0,0.551564 -0.05628,1.103127 -0.09005,1.519614 -0.146334,1.609664 -0.303923,3.602047 -0.303923,5.583174 0,0.641614 0.01127,1.283229 0.05628,1.902331 z"
       id="text3" />
    <path
       style="font-size:15.9543px;line-height:1.25;font-family:QumpellkaNo12;-inkscape-font-specification:QumpellkaNo12;letter-spacing:0px;word-spacing:0px;fill:#bfa349;stroke-width:0.576328"
       d="m 27.499946,51.625518 c -1.328255,2.949177 -3.230588,5.414327 -4.705175,5.414327 -1.857307,0 -2.386357,-1.688458 -2.386357,-3.894713 0,-3.298125 1.170665,-7.913248 1.170665,-10.704835 0,-1.710972 -1.001819,-3.06174 -3.241843,-3.06174 -1.103128,0 -1.823536,0.979306 -2.543946,2.408869 l 0.213871,0.07879 c 0.382719,-0.742922 0.709154,-1.035589 0.96805,-1.035589 0.59659,0 0.889256,0.776692 0.889256,2.724049 0,0.348948 -0.112561,1.373281 -0.213872,2.712792 -0.06754,1.024333 -0.135073,2.228768 -0.135073,3.466971 0,3.950996 0.664127,8.588631 4.131098,8.588631 2.318818,0 4.412509,-2.453894 5.943379,-5.583174 0.360205,3.09551 1.40705,5.583174 3.962252,5.583174 2.093691,0 4.119842,-1.609664 5.684482,-4.15361 1.81228,-2.93792 3.005459,-7.1253 3.005459,-11.492783 0,-1.069358 -0.270154,-2.059921 -1.080615,-3.061741 -0.303922,-0.382716 -0.641615,-0.540306 -0.96805,-0.540306 -0.96805,0 -1.913588,1.294486 -2.059921,1.879817 2.116203,0.776692 2.825357,2.498921 2.825357,4.435021 0,3.106768 -0.889256,6.202277 -2.194999,8.431043 -1.136895,1.947357 -2.600229,3.21933 -4.06356,3.21933 -1.834793,0 -2.386356,-1.632178 -2.386356,-3.894714 0,-3.298124 1.170665,-7.913247 1.170665,-10.704834 0,-1.452076 -0.697896,-2.769075 -2.780329,-2.769075 h -0.01127 -2.330074 l 0.01127,0.258897 c 1.204435,0.01127 1.463331,1.384537 1.463331,2.69028 0,0.551564 -0.05628,1.103127 -0.09005,1.519614 -0.146334,1.609664 -0.303923,3.602047 -0.303923,5.583174 0,0.641614 0.01127,1.283229 0.05628,1.902331 z"
       id="path7" />
  </g>
</svg>
